G04 #@! TF.GenerationSoftware,KiCad,Pcbnew,5.0.1*
G04 #@! TF.CreationDate,2019-02-21T21:56:02-06:00*
G04 #@! TF.ProjectId,PowerRDP,506F7765725244502E6B696361645F70,2*
G04 #@! TF.SameCoordinates,Original*
G04 #@! TF.FileFunction,Legend,Bot*
G04 #@! TF.FilePolarity,Positive*
%FSLAX46Y46*%
G04 Gerber Fmt 4.6, Leading zero omitted, Abs format (unit mm)*
G04 Created by KiCad (PCBNEW 5.0.1) date Thu 21 Feb 2019 09:56:02 PM CST*
%MOMM*%
%LPD*%
G01*
G04 APERTURE LIST*
%ADD10C,0.200000*%
%ADD11C,0.120000*%
%ADD12C,0.150000*%
%ADD13C,0.152400*%
G04 APERTURE END LIST*
D10*
X155646380Y-53642857D02*
X154646380Y-53642857D01*
X155122571Y-53642857D02*
X155122571Y-54214285D01*
X155646380Y-54214285D02*
X154646380Y-54214285D01*
X155122571Y-54690476D02*
X155122571Y-55023809D01*
X155646380Y-55166666D02*
X155646380Y-54690476D01*
X154646380Y-54690476D01*
X154646380Y-55166666D01*
X155646380Y-56071428D02*
X155646380Y-55595238D01*
X154646380Y-55595238D01*
X155122571Y-56404761D02*
X155122571Y-56738095D01*
X155646380Y-56880952D02*
X155646380Y-56404761D01*
X154646380Y-56404761D01*
X154646380Y-56880952D01*
X155646380Y-57309523D02*
X154646380Y-57309523D01*
X155646380Y-57880952D01*
X154646380Y-57880952D01*
X155646380Y-59690476D02*
X155170190Y-59357142D01*
X155646380Y-59119047D02*
X154646380Y-59119047D01*
X154646380Y-59500000D01*
X154694000Y-59595238D01*
X154741619Y-59642857D01*
X154836857Y-59690476D01*
X154979714Y-59690476D01*
X155074952Y-59642857D01*
X155122571Y-59595238D01*
X155170190Y-59500000D01*
X155170190Y-59119047D01*
X155646380Y-60119047D02*
X154646380Y-60119047D01*
X154646380Y-60357142D01*
X154694000Y-60500000D01*
X154789238Y-60595238D01*
X154884476Y-60642857D01*
X155074952Y-60690476D01*
X155217809Y-60690476D01*
X155408285Y-60642857D01*
X155503523Y-60595238D01*
X155598761Y-60500000D01*
X155646380Y-60357142D01*
X155646380Y-60119047D01*
X155646380Y-61119047D02*
X154646380Y-61119047D01*
X154646380Y-61500000D01*
X154694000Y-61595238D01*
X154741619Y-61642857D01*
X154836857Y-61690476D01*
X154979714Y-61690476D01*
X155074952Y-61642857D01*
X155122571Y-61595238D01*
X155170190Y-61500000D01*
X155170190Y-61119047D01*
X155646380Y-62880952D02*
X154646380Y-62880952D01*
X154646380Y-63261904D01*
X154694000Y-63357142D01*
X154741619Y-63404761D01*
X154836857Y-63452380D01*
X154979714Y-63452380D01*
X155074952Y-63404761D01*
X155122571Y-63357142D01*
X155170190Y-63261904D01*
X155170190Y-62880952D01*
X155646380Y-64023809D02*
X155598761Y-63928571D01*
X155551142Y-63880952D01*
X155455904Y-63833333D01*
X155170190Y-63833333D01*
X155074952Y-63880952D01*
X155027333Y-63928571D01*
X154979714Y-64023809D01*
X154979714Y-64166666D01*
X155027333Y-64261904D01*
X155074952Y-64309523D01*
X155170190Y-64357142D01*
X155455904Y-64357142D01*
X155551142Y-64309523D01*
X155598761Y-64261904D01*
X155646380Y-64166666D01*
X155646380Y-64023809D01*
X154979714Y-64690476D02*
X155646380Y-64880952D01*
X155170190Y-65071428D01*
X155646380Y-65261904D01*
X154979714Y-65452380D01*
X155598761Y-66214285D02*
X155646380Y-66119047D01*
X155646380Y-65928571D01*
X155598761Y-65833333D01*
X155503523Y-65785714D01*
X155122571Y-65785714D01*
X155027333Y-65833333D01*
X154979714Y-65928571D01*
X154979714Y-66119047D01*
X155027333Y-66214285D01*
X155122571Y-66261904D01*
X155217809Y-66261904D01*
X155313047Y-65785714D01*
X155646380Y-66690476D02*
X154979714Y-66690476D01*
X155170190Y-66690476D02*
X155074952Y-66738095D01*
X155027333Y-66785714D01*
X154979714Y-66880952D01*
X154979714Y-66976190D01*
X155646380Y-68642857D02*
X155170190Y-68309523D01*
X155646380Y-68071428D02*
X154646380Y-68071428D01*
X154646380Y-68452380D01*
X154694000Y-68547619D01*
X154741619Y-68595238D01*
X154836857Y-68642857D01*
X154979714Y-68642857D01*
X155074952Y-68595238D01*
X155122571Y-68547619D01*
X155170190Y-68452380D01*
X155170190Y-68071428D01*
X155598761Y-69452380D02*
X155646380Y-69357142D01*
X155646380Y-69166666D01*
X155598761Y-69071428D01*
X155503523Y-69023809D01*
X155122571Y-69023809D01*
X155027333Y-69071428D01*
X154979714Y-69166666D01*
X154979714Y-69357142D01*
X155027333Y-69452380D01*
X155122571Y-69500000D01*
X155217809Y-69500000D01*
X155313047Y-69023809D01*
X154979714Y-69833333D02*
X155646380Y-70071428D01*
X154979714Y-70309523D01*
X154741619Y-71404761D02*
X154694000Y-71452380D01*
X154646380Y-71547619D01*
X154646380Y-71785714D01*
X154694000Y-71880952D01*
X154741619Y-71928571D01*
X154836857Y-71976190D01*
X154932095Y-71976190D01*
X155074952Y-71928571D01*
X155646380Y-71357142D01*
X155646380Y-71976190D01*
X155551142Y-72404761D02*
X155598761Y-72452380D01*
X155646380Y-72404761D01*
X155598761Y-72357142D01*
X155551142Y-72404761D01*
X155646380Y-72404761D01*
X154646380Y-73071428D02*
X154646380Y-73166666D01*
X154694000Y-73261904D01*
X154741619Y-73309523D01*
X154836857Y-73357142D01*
X155027333Y-73404761D01*
X155265428Y-73404761D01*
X155455904Y-73357142D01*
X155551142Y-73309523D01*
X155598761Y-73261904D01*
X155646380Y-73166666D01*
X155646380Y-73071428D01*
X155598761Y-72976190D01*
X155551142Y-72928571D01*
X155455904Y-72880952D01*
X155265428Y-72833333D01*
X155027333Y-72833333D01*
X154836857Y-72880952D01*
X154741619Y-72928571D01*
X154694000Y-72976190D01*
X154646380Y-73071428D01*
D11*
G04 #@! TO.C,C1*
X128253748Y-83006000D02*
X128776252Y-83006000D01*
X128253748Y-81586000D02*
X128776252Y-81586000D01*
G04 #@! TO.C,C2*
X122630000Y-89161252D02*
X122630000Y-88638748D01*
X121210000Y-89161252D02*
X121210000Y-88638748D01*
G04 #@! TO.C,C9*
X123705252Y-79958000D02*
X123182748Y-79958000D01*
X123705252Y-78538000D02*
X123182748Y-78538000D01*
G04 #@! TO.C,C10*
X121106000Y-77979748D02*
X121106000Y-78502252D01*
X119686000Y-77979748D02*
X119686000Y-78502252D01*
G04 #@! TO.C,JP1*
X119396000Y-83696000D02*
X121396000Y-83696000D01*
X119396000Y-80896000D02*
X119396000Y-83696000D01*
X121396000Y-80896000D02*
X119396000Y-80896000D01*
X121396000Y-83696000D02*
X121396000Y-80896000D01*
G04 #@! TO.C,Q1*
X137472000Y-77590000D02*
X138522000Y-77590000D01*
X138522000Y-77590000D02*
X138522000Y-75740000D01*
X135472000Y-77590000D02*
X136472000Y-77590000D01*
X135462000Y-77570000D02*
X135462000Y-75140000D01*
G04 #@! TO.C,R1*
X122787448Y-76012067D02*
X122787448Y-76534571D01*
X124207448Y-76012067D02*
X124207448Y-76534571D01*
G04 #@! TO.C,R2*
X119163196Y-74556319D02*
X119685700Y-74556319D01*
X119163196Y-75976319D02*
X119685700Y-75976319D01*
D12*
G04 #@! TO.C,U5*
X131508448Y-73580319D02*
X131508448Y-73630319D01*
X127358448Y-73580319D02*
X127358448Y-73725319D01*
X127358448Y-78730319D02*
X127358448Y-78585319D01*
X131508448Y-78730319D02*
X131508448Y-78585319D01*
X131508448Y-73580319D02*
X127358448Y-73580319D01*
X131508448Y-78730319D02*
X127358448Y-78730319D01*
X131508448Y-73630319D02*
X132908448Y-73630319D01*
D11*
G04 #@! TO.C,L3*
X115366000Y-71560000D02*
X115366000Y-60060000D01*
X114716000Y-72210000D02*
X111966000Y-72210000D01*
X102566000Y-60060000D02*
X102566000Y-71560000D01*
X114716000Y-59410000D02*
X111966000Y-59410000D01*
X105966000Y-72210000D02*
X103216000Y-72210000D01*
X105966000Y-59410000D02*
X103216000Y-59410000D01*
X114716000Y-72210000D02*
G75*
G03X115366000Y-71560000I0J650000D01*
G01*
X102566000Y-71560000D02*
G75*
G03X103216000Y-72210000I650000J0D01*
G01*
X103216000Y-59410000D02*
G75*
G03X102566000Y-60060000I0J-650000D01*
G01*
X115366000Y-60060000D02*
G75*
G03X114716000Y-59410000I-650000J0D01*
G01*
G04 #@! TO.C,L4*
X128574000Y-60060000D02*
G75*
G03X127924000Y-59410000I-650000J0D01*
G01*
X116424000Y-59410000D02*
G75*
G03X115774000Y-60060000I0J-650000D01*
G01*
X115774000Y-71560000D02*
G75*
G03X116424000Y-72210000I650000J0D01*
G01*
X127924000Y-72210000D02*
G75*
G03X128574000Y-71560000I0J650000D01*
G01*
X119174000Y-59410000D02*
X116424000Y-59410000D01*
X119174000Y-72210000D02*
X116424000Y-72210000D01*
X127924000Y-59410000D02*
X125174000Y-59410000D01*
X115774000Y-60060000D02*
X115774000Y-71560000D01*
X127924000Y-72210000D02*
X125174000Y-72210000D01*
X128574000Y-71560000D02*
X128574000Y-60060000D01*
G04 #@! TO.C,L5*
X141782000Y-71560000D02*
X141782000Y-60060000D01*
X141132000Y-72210000D02*
X138382000Y-72210000D01*
X128982000Y-60060000D02*
X128982000Y-71560000D01*
X141132000Y-59410000D02*
X138382000Y-59410000D01*
X132382000Y-72210000D02*
X129632000Y-72210000D01*
X132382000Y-59410000D02*
X129632000Y-59410000D01*
X141132000Y-72210000D02*
G75*
G03X141782000Y-71560000I0J650000D01*
G01*
X128982000Y-71560000D02*
G75*
G03X129632000Y-72210000I650000J0D01*
G01*
X129632000Y-59410000D02*
G75*
G03X128982000Y-60060000I0J-650000D01*
G01*
X141782000Y-60060000D02*
G75*
G03X141132000Y-59410000I-650000J0D01*
G01*
G04 #@! TO.C,R4*
X94794000Y-56132252D02*
X94794000Y-55609748D01*
X96214000Y-56132252D02*
X96214000Y-55609748D01*
G04 #@! TO.C,R5*
X96518252Y-64972000D02*
X95995748Y-64972000D01*
X96518252Y-63552000D02*
X95995748Y-63552000D01*
G04 #@! TO.C,R6*
X101108252Y-55424000D02*
X100585748Y-55424000D01*
X101108252Y-56844000D02*
X100585748Y-56844000D01*
D12*
G04 #@! TO.C,U6*
X92659000Y-58054000D02*
X94059000Y-58054000D01*
X92659000Y-63154000D02*
X88509000Y-63154000D01*
X92659000Y-58004000D02*
X88509000Y-58004000D01*
X92659000Y-63154000D02*
X92659000Y-63009000D01*
X88509000Y-63154000D02*
X88509000Y-63009000D01*
X88509000Y-58004000D02*
X88509000Y-58149000D01*
X92659000Y-58004000D02*
X92659000Y-58054000D01*
G04 #@! TO.C,U7*
X100721000Y-58004000D02*
X100721000Y-58054000D01*
X96571000Y-58004000D02*
X96571000Y-58149000D01*
X96571000Y-63154000D02*
X96571000Y-63009000D01*
X100721000Y-63154000D02*
X100721000Y-63009000D01*
X100721000Y-58004000D02*
X96571000Y-58004000D01*
X100721000Y-63154000D02*
X96571000Y-63154000D01*
X100721000Y-58054000D02*
X102121000Y-58054000D01*
D11*
G04 #@! TO.C,C11*
X90679748Y-64314000D02*
X91202252Y-64314000D01*
X90679748Y-65734000D02*
X91202252Y-65734000D01*
G04 #@! TO.C,C12*
X100382000Y-66295748D02*
X100382000Y-66818252D01*
X101802000Y-66295748D02*
X101802000Y-66818252D01*
G04 #@! TO.C,C13*
X97773748Y-72338000D02*
X98296252Y-72338000D01*
X97773748Y-70918000D02*
X98296252Y-70918000D01*
D13*
G04 #@! TO.C,U8*
X99760999Y-67221100D02*
X99760999Y-69227700D01*
X98447860Y-69227700D02*
X97772138Y-69227700D01*
X96458999Y-69227700D02*
X96458999Y-67221100D01*
G04 #@! TO.C,C1*
D12*
X128681666Y-84303142D02*
X128729285Y-84350761D01*
X128872142Y-84398380D01*
X128967380Y-84398380D01*
X129110238Y-84350761D01*
X129205476Y-84255523D01*
X129253095Y-84160285D01*
X129300714Y-83969809D01*
X129300714Y-83826952D01*
X129253095Y-83636476D01*
X129205476Y-83541238D01*
X129110238Y-83446000D01*
X128967380Y-83398380D01*
X128872142Y-83398380D01*
X128729285Y-83446000D01*
X128681666Y-83493619D01*
X127729285Y-84398380D02*
X128300714Y-84398380D01*
X128015000Y-84398380D02*
X128015000Y-83398380D01*
X128110238Y-83541238D01*
X128205476Y-83636476D01*
X128300714Y-83684095D01*
G04 #@! TO.C,C2*
X123927142Y-88733333D02*
X123974761Y-88685714D01*
X124022380Y-88542857D01*
X124022380Y-88447619D01*
X123974761Y-88304761D01*
X123879523Y-88209523D01*
X123784285Y-88161904D01*
X123593809Y-88114285D01*
X123450952Y-88114285D01*
X123260476Y-88161904D01*
X123165238Y-88209523D01*
X123070000Y-88304761D01*
X123022380Y-88447619D01*
X123022380Y-88542857D01*
X123070000Y-88685714D01*
X123117619Y-88733333D01*
X123117619Y-89114285D02*
X123070000Y-89161904D01*
X123022380Y-89257142D01*
X123022380Y-89495238D01*
X123070000Y-89590476D01*
X123117619Y-89638095D01*
X123212857Y-89685714D01*
X123308095Y-89685714D01*
X123450952Y-89638095D01*
X124022380Y-89066666D01*
X124022380Y-89685714D01*
G04 #@! TO.C,C9*
X120562666Y-79605142D02*
X120610285Y-79652761D01*
X120753142Y-79700380D01*
X120848380Y-79700380D01*
X120991238Y-79652761D01*
X121086476Y-79557523D01*
X121134095Y-79462285D01*
X121181714Y-79271809D01*
X121181714Y-79128952D01*
X121134095Y-78938476D01*
X121086476Y-78843238D01*
X120991238Y-78748000D01*
X120848380Y-78700380D01*
X120753142Y-78700380D01*
X120610285Y-78748000D01*
X120562666Y-78795619D01*
X120086476Y-79700380D02*
X119896000Y-79700380D01*
X119800761Y-79652761D01*
X119753142Y-79605142D01*
X119657904Y-79462285D01*
X119610285Y-79271809D01*
X119610285Y-78890857D01*
X119657904Y-78795619D01*
X119705523Y-78748000D01*
X119800761Y-78700380D01*
X119991238Y-78700380D01*
X120086476Y-78748000D01*
X120134095Y-78795619D01*
X120181714Y-78890857D01*
X120181714Y-79128952D01*
X120134095Y-79224190D01*
X120086476Y-79271809D01*
X119991238Y-79319428D01*
X119800761Y-79319428D01*
X119705523Y-79271809D01*
X119657904Y-79224190D01*
X119610285Y-79128952D01*
G04 #@! TO.C,C10*
X119103142Y-77598142D02*
X119150761Y-77550523D01*
X119198380Y-77407666D01*
X119198380Y-77312428D01*
X119150761Y-77169571D01*
X119055523Y-77074333D01*
X118960285Y-77026714D01*
X118769809Y-76979095D01*
X118626952Y-76979095D01*
X118436476Y-77026714D01*
X118341238Y-77074333D01*
X118246000Y-77169571D01*
X118198380Y-77312428D01*
X118198380Y-77407666D01*
X118246000Y-77550523D01*
X118293619Y-77598142D01*
X119198380Y-78550523D02*
X119198380Y-77979095D01*
X119198380Y-78264809D02*
X118198380Y-78264809D01*
X118341238Y-78169571D01*
X118436476Y-78074333D01*
X118484095Y-77979095D01*
X118198380Y-79169571D02*
X118198380Y-79264809D01*
X118246000Y-79360047D01*
X118293619Y-79407666D01*
X118388857Y-79455285D01*
X118579333Y-79502904D01*
X118817428Y-79502904D01*
X119007904Y-79455285D01*
X119103142Y-79407666D01*
X119150761Y-79360047D01*
X119198380Y-79264809D01*
X119198380Y-79169571D01*
X119150761Y-79074333D01*
X119103142Y-79026714D01*
X119007904Y-78979095D01*
X118817428Y-78931476D01*
X118579333Y-78931476D01*
X118388857Y-78979095D01*
X118293619Y-79026714D01*
X118246000Y-79074333D01*
X118198380Y-79169571D01*
G04 #@! TO.C,JP1*
X117816380Y-81462666D02*
X118530666Y-81462666D01*
X118673523Y-81415047D01*
X118768761Y-81319809D01*
X118816380Y-81176952D01*
X118816380Y-81081714D01*
X118816380Y-81938857D02*
X117816380Y-81938857D01*
X117816380Y-82319809D01*
X117864000Y-82415047D01*
X117911619Y-82462666D01*
X118006857Y-82510285D01*
X118149714Y-82510285D01*
X118244952Y-82462666D01*
X118292571Y-82415047D01*
X118340190Y-82319809D01*
X118340190Y-81938857D01*
X118816380Y-83462666D02*
X118816380Y-82891238D01*
X118816380Y-83176952D02*
X117816380Y-83176952D01*
X117959238Y-83081714D01*
X118054476Y-82986476D01*
X118102095Y-82891238D01*
G04 #@! TO.C,L1*
X126150666Y-80335380D02*
X126626857Y-80335380D01*
X126626857Y-79335380D01*
X125293523Y-80335380D02*
X125864952Y-80335380D01*
X125579238Y-80335380D02*
X125579238Y-79335380D01*
X125674476Y-79478238D01*
X125769714Y-79573476D01*
X125864952Y-79621095D01*
G04 #@! TO.C,L2*
X120721380Y-88604333D02*
X120721380Y-88128142D01*
X119721380Y-88128142D01*
X119816619Y-88890047D02*
X119769000Y-88937666D01*
X119721380Y-89032904D01*
X119721380Y-89271000D01*
X119769000Y-89366238D01*
X119816619Y-89413857D01*
X119911857Y-89461476D01*
X120007095Y-89461476D01*
X120149952Y-89413857D01*
X120721380Y-88842428D01*
X120721380Y-89461476D01*
G04 #@! TO.C,Q1*
X135069619Y-76544761D02*
X135022000Y-76449523D01*
X134926761Y-76354285D01*
X134783904Y-76211428D01*
X134736285Y-76116190D01*
X134736285Y-76020952D01*
X134974380Y-76068571D02*
X134926761Y-75973333D01*
X134831523Y-75878095D01*
X134641047Y-75830476D01*
X134307714Y-75830476D01*
X134117238Y-75878095D01*
X134022000Y-75973333D01*
X133974380Y-76068571D01*
X133974380Y-76259047D01*
X134022000Y-76354285D01*
X134117238Y-76449523D01*
X134307714Y-76497142D01*
X134641047Y-76497142D01*
X134831523Y-76449523D01*
X134926761Y-76354285D01*
X134974380Y-76259047D01*
X134974380Y-76068571D01*
X134974380Y-77449523D02*
X134974380Y-76878095D01*
X134974380Y-77163809D02*
X133974380Y-77163809D01*
X134117238Y-77068571D01*
X134212476Y-76973333D01*
X134260095Y-76878095D01*
G04 #@! TO.C,R1*
X122299828Y-76106652D02*
X121823638Y-75773319D01*
X122299828Y-75535223D02*
X121299828Y-75535223D01*
X121299828Y-75916176D01*
X121347448Y-76011414D01*
X121395067Y-76059033D01*
X121490305Y-76106652D01*
X121633162Y-76106652D01*
X121728400Y-76059033D01*
X121776019Y-76011414D01*
X121823638Y-75916176D01*
X121823638Y-75535223D01*
X122299828Y-77059033D02*
X122299828Y-76487604D01*
X122299828Y-76773319D02*
X121299828Y-76773319D01*
X121442686Y-76678080D01*
X121537924Y-76582842D01*
X121585543Y-76487604D01*
G04 #@! TO.C,R2*
X116498666Y-75636380D02*
X116832000Y-75160190D01*
X117070095Y-75636380D02*
X117070095Y-74636380D01*
X116689142Y-74636380D01*
X116593904Y-74684000D01*
X116546285Y-74731619D01*
X116498666Y-74826857D01*
X116498666Y-74969714D01*
X116546285Y-75064952D01*
X116593904Y-75112571D01*
X116689142Y-75160190D01*
X117070095Y-75160190D01*
X116117714Y-74731619D02*
X116070095Y-74684000D01*
X115974857Y-74636380D01*
X115736761Y-74636380D01*
X115641523Y-74684000D01*
X115593904Y-74731619D01*
X115546285Y-74826857D01*
X115546285Y-74922095D01*
X115593904Y-75064952D01*
X116165333Y-75636380D01*
X115546285Y-75636380D01*
G04 #@! TO.C,U5*
X130195352Y-72107699D02*
X130195352Y-72917223D01*
X130147733Y-73012461D01*
X130100114Y-73060080D01*
X130004876Y-73107699D01*
X129814400Y-73107699D01*
X129719162Y-73060080D01*
X129671543Y-73012461D01*
X129623924Y-72917223D01*
X129623924Y-72107699D01*
X128671543Y-72107699D02*
X129147733Y-72107699D01*
X129195352Y-72583890D01*
X129147733Y-72536271D01*
X129052495Y-72488652D01*
X128814400Y-72488652D01*
X128719162Y-72536271D01*
X128671543Y-72583890D01*
X128623924Y-72679128D01*
X128623924Y-72917223D01*
X128671543Y-73012461D01*
X128719162Y-73060080D01*
X128814400Y-73107699D01*
X129052495Y-73107699D01*
X129147733Y-73060080D01*
X129195352Y-73012461D01*
G04 #@! TO.C,L3*
X116668380Y-65643333D02*
X116668380Y-65167142D01*
X115668380Y-65167142D01*
X115668380Y-65881428D02*
X115668380Y-66500476D01*
X116049333Y-66167142D01*
X116049333Y-66310000D01*
X116096952Y-66405238D01*
X116144571Y-66452857D01*
X116239809Y-66500476D01*
X116477904Y-66500476D01*
X116573142Y-66452857D01*
X116620761Y-66405238D01*
X116668380Y-66310000D01*
X116668380Y-66024285D01*
X116620761Y-65929047D01*
X116573142Y-65881428D01*
G04 #@! TO.C,L4*
X129876380Y-65643333D02*
X129876380Y-65167142D01*
X128876380Y-65167142D01*
X129209714Y-66405238D02*
X129876380Y-66405238D01*
X128828761Y-66167142D02*
X129543047Y-65929047D01*
X129543047Y-66548095D01*
G04 #@! TO.C,L5*
X143084380Y-65643333D02*
X143084380Y-65167142D01*
X142084380Y-65167142D01*
X142084380Y-66452857D02*
X142084380Y-65976666D01*
X142560571Y-65929047D01*
X142512952Y-65976666D01*
X142465333Y-66071904D01*
X142465333Y-66310000D01*
X142512952Y-66405238D01*
X142560571Y-66452857D01*
X142655809Y-66500476D01*
X142893904Y-66500476D01*
X142989142Y-66452857D01*
X143036761Y-66405238D01*
X143084380Y-66310000D01*
X143084380Y-66071904D01*
X143036761Y-65976666D01*
X142989142Y-65929047D01*
G04 #@! TO.C,R4*
X94432380Y-55704333D02*
X93956190Y-55371000D01*
X94432380Y-55132904D02*
X93432380Y-55132904D01*
X93432380Y-55513857D01*
X93480000Y-55609095D01*
X93527619Y-55656714D01*
X93622857Y-55704333D01*
X93765714Y-55704333D01*
X93860952Y-55656714D01*
X93908571Y-55609095D01*
X93956190Y-55513857D01*
X93956190Y-55132904D01*
X93765714Y-56561476D02*
X94432380Y-56561476D01*
X93384761Y-56323380D02*
X94099047Y-56085285D01*
X94099047Y-56704333D01*
G04 #@! TO.C,R5*
X93638666Y-64460380D02*
X93972000Y-63984190D01*
X94210095Y-64460380D02*
X94210095Y-63460380D01*
X93829142Y-63460380D01*
X93733904Y-63508000D01*
X93686285Y-63555619D01*
X93638666Y-63650857D01*
X93638666Y-63793714D01*
X93686285Y-63888952D01*
X93733904Y-63936571D01*
X93829142Y-63984190D01*
X94210095Y-63984190D01*
X92733904Y-63460380D02*
X93210095Y-63460380D01*
X93257714Y-63936571D01*
X93210095Y-63888952D01*
X93114857Y-63841333D01*
X92876761Y-63841333D01*
X92781523Y-63888952D01*
X92733904Y-63936571D01*
X92686285Y-64031809D01*
X92686285Y-64269904D01*
X92733904Y-64365142D01*
X92781523Y-64412761D01*
X92876761Y-64460380D01*
X93114857Y-64460380D01*
X93210095Y-64412761D01*
X93257714Y-64365142D01*
G04 #@! TO.C,R6*
X101013666Y-54936380D02*
X101347000Y-54460190D01*
X101585095Y-54936380D02*
X101585095Y-53936380D01*
X101204142Y-53936380D01*
X101108904Y-53984000D01*
X101061285Y-54031619D01*
X101013666Y-54126857D01*
X101013666Y-54269714D01*
X101061285Y-54364952D01*
X101108904Y-54412571D01*
X101204142Y-54460190D01*
X101585095Y-54460190D01*
X100156523Y-53936380D02*
X100347000Y-53936380D01*
X100442238Y-53984000D01*
X100489857Y-54031619D01*
X100585095Y-54174476D01*
X100632714Y-54364952D01*
X100632714Y-54745904D01*
X100585095Y-54841142D01*
X100537476Y-54888761D01*
X100442238Y-54936380D01*
X100251761Y-54936380D01*
X100156523Y-54888761D01*
X100108904Y-54841142D01*
X100061285Y-54745904D01*
X100061285Y-54507809D01*
X100108904Y-54412571D01*
X100156523Y-54364952D01*
X100251761Y-54317333D01*
X100442238Y-54317333D01*
X100537476Y-54364952D01*
X100585095Y-54412571D01*
X100632714Y-54507809D01*
G04 #@! TO.C,U6*
X92455904Y-56856380D02*
X92455904Y-57665904D01*
X92408285Y-57761142D01*
X92360666Y-57808761D01*
X92265428Y-57856380D01*
X92074952Y-57856380D01*
X91979714Y-57808761D01*
X91932095Y-57761142D01*
X91884476Y-57665904D01*
X91884476Y-56856380D01*
X90979714Y-56856380D02*
X91170190Y-56856380D01*
X91265428Y-56904000D01*
X91313047Y-56951619D01*
X91408285Y-57094476D01*
X91455904Y-57284952D01*
X91455904Y-57665904D01*
X91408285Y-57761142D01*
X91360666Y-57808761D01*
X91265428Y-57856380D01*
X91074952Y-57856380D01*
X90979714Y-57808761D01*
X90932095Y-57761142D01*
X90884476Y-57665904D01*
X90884476Y-57427809D01*
X90932095Y-57332571D01*
X90979714Y-57284952D01*
X91074952Y-57237333D01*
X91265428Y-57237333D01*
X91360666Y-57284952D01*
X91408285Y-57332571D01*
X91455904Y-57427809D01*
G04 #@! TO.C,U7*
X99407904Y-56531380D02*
X99407904Y-57340904D01*
X99360285Y-57436142D01*
X99312666Y-57483761D01*
X99217428Y-57531380D01*
X99026952Y-57531380D01*
X98931714Y-57483761D01*
X98884095Y-57436142D01*
X98836476Y-57340904D01*
X98836476Y-56531380D01*
X98455523Y-56531380D02*
X97788857Y-56531380D01*
X98217428Y-57531380D01*
G04 #@! TO.C,C11*
X88272857Y-65381142D02*
X88320476Y-65428761D01*
X88463333Y-65476380D01*
X88558571Y-65476380D01*
X88701428Y-65428761D01*
X88796666Y-65333523D01*
X88844285Y-65238285D01*
X88891904Y-65047809D01*
X88891904Y-64904952D01*
X88844285Y-64714476D01*
X88796666Y-64619238D01*
X88701428Y-64524000D01*
X88558571Y-64476380D01*
X88463333Y-64476380D01*
X88320476Y-64524000D01*
X88272857Y-64571619D01*
X87320476Y-65476380D02*
X87891904Y-65476380D01*
X87606190Y-65476380D02*
X87606190Y-64476380D01*
X87701428Y-64619238D01*
X87796666Y-64714476D01*
X87891904Y-64762095D01*
X86368095Y-65476380D02*
X86939523Y-65476380D01*
X86653809Y-65476380D02*
X86653809Y-64476380D01*
X86749047Y-64619238D01*
X86844285Y-64714476D01*
X86939523Y-64762095D01*
G04 #@! TO.C,C12*
X101449142Y-69207142D02*
X101496761Y-69159523D01*
X101544380Y-69016666D01*
X101544380Y-68921428D01*
X101496761Y-68778571D01*
X101401523Y-68683333D01*
X101306285Y-68635714D01*
X101115809Y-68588095D01*
X100972952Y-68588095D01*
X100782476Y-68635714D01*
X100687238Y-68683333D01*
X100592000Y-68778571D01*
X100544380Y-68921428D01*
X100544380Y-69016666D01*
X100592000Y-69159523D01*
X100639619Y-69207142D01*
X101544380Y-70159523D02*
X101544380Y-69588095D01*
X101544380Y-69873809D02*
X100544380Y-69873809D01*
X100687238Y-69778571D01*
X100782476Y-69683333D01*
X100830095Y-69588095D01*
X100639619Y-70540476D02*
X100592000Y-70588095D01*
X100544380Y-70683333D01*
X100544380Y-70921428D01*
X100592000Y-71016666D01*
X100639619Y-71064285D01*
X100734857Y-71111904D01*
X100830095Y-71111904D01*
X100972952Y-71064285D01*
X101544380Y-70492857D01*
X101544380Y-71111904D01*
G04 #@! TO.C,C13*
X98677857Y-73635142D02*
X98725476Y-73682761D01*
X98868333Y-73730380D01*
X98963571Y-73730380D01*
X99106428Y-73682761D01*
X99201666Y-73587523D01*
X99249285Y-73492285D01*
X99296904Y-73301809D01*
X99296904Y-73158952D01*
X99249285Y-72968476D01*
X99201666Y-72873238D01*
X99106428Y-72778000D01*
X98963571Y-72730380D01*
X98868333Y-72730380D01*
X98725476Y-72778000D01*
X98677857Y-72825619D01*
X97725476Y-73730380D02*
X98296904Y-73730380D01*
X98011190Y-73730380D02*
X98011190Y-72730380D01*
X98106428Y-72873238D01*
X98201666Y-72968476D01*
X98296904Y-73016095D01*
X97392142Y-72730380D02*
X96773095Y-72730380D01*
X97106428Y-73111333D01*
X96963571Y-73111333D01*
X96868333Y-73158952D01*
X96820714Y-73206571D01*
X96773095Y-73301809D01*
X96773095Y-73539904D01*
X96820714Y-73635142D01*
X96868333Y-73682761D01*
X96963571Y-73730380D01*
X97249285Y-73730380D01*
X97344523Y-73682761D01*
X97392142Y-73635142D01*
G04 #@! TD*
M02*
