G04 #@! TF.GenerationSoftware,KiCad,Pcbnew,5.0.1*
G04 #@! TF.CreationDate,2019-02-21T21:56:02-06:00*
G04 #@! TF.ProjectId,PowerRDP,506F7765725244502E6B696361645F70,2*
G04 #@! TF.SameCoordinates,Original*
G04 #@! TF.FileFunction,Copper,L2,Bot,Signal*
G04 #@! TF.FilePolarity,Positive*
%FSLAX46Y46*%
G04 Gerber Fmt 4.6, Leading zero omitted, Abs format (unit mm)*
G04 Created by KiCad (PCBNEW 5.0.1) date Thu 21 Feb 2019 09:56:02 PM CST*
%MOMM*%
%LPD*%
G01*
G04 APERTURE LIST*
G04 #@! TA.AperFunction,Conductor*
%ADD10C,0.100000*%
G04 #@! TD*
G04 #@! TA.AperFunction,SMDPad,CuDef*
%ADD11C,1.150000*%
G04 #@! TD*
G04 #@! TA.AperFunction,ComponentPad*
%ADD12C,1.740000*%
G04 #@! TD*
G04 #@! TA.AperFunction,ComponentPad*
%ADD13O,1.740000X2.200000*%
G04 #@! TD*
G04 #@! TA.AperFunction,SMDPad,CuDef*
%ADD14R,1.500000X1.000000*%
G04 #@! TD*
G04 #@! TA.AperFunction,SMDPad,CuDef*
%ADD15R,1.520000X3.050000*%
G04 #@! TD*
G04 #@! TA.AperFunction,SMDPad,CuDef*
%ADD16R,3.050000X1.520000*%
G04 #@! TD*
G04 #@! TA.AperFunction,SMDPad,CuDef*
%ADD17R,0.650000X2.000000*%
G04 #@! TD*
G04 #@! TA.AperFunction,ComponentPad*
%ADD18C,1.700000*%
G04 #@! TD*
G04 #@! TA.AperFunction,SMDPad,CuDef*
%ADD19R,1.550000X0.600000*%
G04 #@! TD*
G04 #@! TA.AperFunction,SMDPad,CuDef*
%ADD20R,5.400000X2.900000*%
G04 #@! TD*
G04 #@! TA.AperFunction,WasherPad*
%ADD21C,4.000000*%
G04 #@! TD*
G04 #@! TA.AperFunction,ComponentPad*
%ADD22C,2.050000*%
G04 #@! TD*
G04 #@! TA.AperFunction,ComponentPad*
%ADD23C,2.250000*%
G04 #@! TD*
G04 #@! TA.AperFunction,ComponentPad*
%ADD24C,1.400000*%
G04 #@! TD*
G04 #@! TA.AperFunction,ComponentPad*
%ADD25O,1.400000X1.400000*%
G04 #@! TD*
G04 #@! TA.AperFunction,SMDPad,CuDef*
%ADD26R,0.558800X1.473200*%
G04 #@! TD*
G04 #@! TA.AperFunction,ViaPad*
%ADD27C,0.800000*%
G04 #@! TD*
G04 #@! TA.AperFunction,Conductor*
%ADD28C,0.250000*%
G04 #@! TD*
G04 #@! TA.AperFunction,Conductor*
%ADD29C,0.254000*%
G04 #@! TD*
G04 APERTURE END LIST*
D10*
G04 #@! TO.N,/-15V*
G04 #@! TO.C,C1*
G36*
X127839505Y-81597204D02*
X127863773Y-81600804D01*
X127887572Y-81606765D01*
X127910671Y-81615030D01*
X127932850Y-81625520D01*
X127953893Y-81638132D01*
X127973599Y-81652747D01*
X127991777Y-81669223D01*
X128008253Y-81687401D01*
X128022868Y-81707107D01*
X128035480Y-81728150D01*
X128045970Y-81750329D01*
X128054235Y-81773428D01*
X128060196Y-81797227D01*
X128063796Y-81821495D01*
X128065000Y-81845999D01*
X128065000Y-82746001D01*
X128063796Y-82770505D01*
X128060196Y-82794773D01*
X128054235Y-82818572D01*
X128045970Y-82841671D01*
X128035480Y-82863850D01*
X128022868Y-82884893D01*
X128008253Y-82904599D01*
X127991777Y-82922777D01*
X127973599Y-82939253D01*
X127953893Y-82953868D01*
X127932850Y-82966480D01*
X127910671Y-82976970D01*
X127887572Y-82985235D01*
X127863773Y-82991196D01*
X127839505Y-82994796D01*
X127815001Y-82996000D01*
X127164999Y-82996000D01*
X127140495Y-82994796D01*
X127116227Y-82991196D01*
X127092428Y-82985235D01*
X127069329Y-82976970D01*
X127047150Y-82966480D01*
X127026107Y-82953868D01*
X127006401Y-82939253D01*
X126988223Y-82922777D01*
X126971747Y-82904599D01*
X126957132Y-82884893D01*
X126944520Y-82863850D01*
X126934030Y-82841671D01*
X126925765Y-82818572D01*
X126919804Y-82794773D01*
X126916204Y-82770505D01*
X126915000Y-82746001D01*
X126915000Y-81845999D01*
X126916204Y-81821495D01*
X126919804Y-81797227D01*
X126925765Y-81773428D01*
X126934030Y-81750329D01*
X126944520Y-81728150D01*
X126957132Y-81707107D01*
X126971747Y-81687401D01*
X126988223Y-81669223D01*
X127006401Y-81652747D01*
X127026107Y-81638132D01*
X127047150Y-81625520D01*
X127069329Y-81615030D01*
X127092428Y-81606765D01*
X127116227Y-81600804D01*
X127140495Y-81597204D01*
X127164999Y-81596000D01*
X127815001Y-81596000D01*
X127839505Y-81597204D01*
X127839505Y-81597204D01*
G37*
D11*
G04 #@! TD*
G04 #@! TO.P,C1,1*
G04 #@! TO.N,/-15V*
X127490000Y-82296000D03*
D10*
G04 #@! TO.N,GND*
G04 #@! TO.C,C1*
G36*
X129889505Y-81597204D02*
X129913773Y-81600804D01*
X129937572Y-81606765D01*
X129960671Y-81615030D01*
X129982850Y-81625520D01*
X130003893Y-81638132D01*
X130023599Y-81652747D01*
X130041777Y-81669223D01*
X130058253Y-81687401D01*
X130072868Y-81707107D01*
X130085480Y-81728150D01*
X130095970Y-81750329D01*
X130104235Y-81773428D01*
X130110196Y-81797227D01*
X130113796Y-81821495D01*
X130115000Y-81845999D01*
X130115000Y-82746001D01*
X130113796Y-82770505D01*
X130110196Y-82794773D01*
X130104235Y-82818572D01*
X130095970Y-82841671D01*
X130085480Y-82863850D01*
X130072868Y-82884893D01*
X130058253Y-82904599D01*
X130041777Y-82922777D01*
X130023599Y-82939253D01*
X130003893Y-82953868D01*
X129982850Y-82966480D01*
X129960671Y-82976970D01*
X129937572Y-82985235D01*
X129913773Y-82991196D01*
X129889505Y-82994796D01*
X129865001Y-82996000D01*
X129214999Y-82996000D01*
X129190495Y-82994796D01*
X129166227Y-82991196D01*
X129142428Y-82985235D01*
X129119329Y-82976970D01*
X129097150Y-82966480D01*
X129076107Y-82953868D01*
X129056401Y-82939253D01*
X129038223Y-82922777D01*
X129021747Y-82904599D01*
X129007132Y-82884893D01*
X128994520Y-82863850D01*
X128984030Y-82841671D01*
X128975765Y-82818572D01*
X128969804Y-82794773D01*
X128966204Y-82770505D01*
X128965000Y-82746001D01*
X128965000Y-81845999D01*
X128966204Y-81821495D01*
X128969804Y-81797227D01*
X128975765Y-81773428D01*
X128984030Y-81750329D01*
X128994520Y-81728150D01*
X129007132Y-81707107D01*
X129021747Y-81687401D01*
X129038223Y-81669223D01*
X129056401Y-81652747D01*
X129076107Y-81638132D01*
X129097150Y-81625520D01*
X129119329Y-81615030D01*
X129142428Y-81606765D01*
X129166227Y-81600804D01*
X129190495Y-81597204D01*
X129214999Y-81596000D01*
X129865001Y-81596000D01*
X129889505Y-81597204D01*
X129889505Y-81597204D01*
G37*
D11*
G04 #@! TD*
G04 #@! TO.P,C1,2*
G04 #@! TO.N,GND*
X129540000Y-82296000D03*
D10*
G04 #@! TO.N,/+15V*
G04 #@! TO.C,C2*
G36*
X122394505Y-89351204D02*
X122418773Y-89354804D01*
X122442572Y-89360765D01*
X122465671Y-89369030D01*
X122487850Y-89379520D01*
X122508893Y-89392132D01*
X122528599Y-89406747D01*
X122546777Y-89423223D01*
X122563253Y-89441401D01*
X122577868Y-89461107D01*
X122590480Y-89482150D01*
X122600970Y-89504329D01*
X122609235Y-89527428D01*
X122615196Y-89551227D01*
X122618796Y-89575495D01*
X122620000Y-89599999D01*
X122620000Y-90250001D01*
X122618796Y-90274505D01*
X122615196Y-90298773D01*
X122609235Y-90322572D01*
X122600970Y-90345671D01*
X122590480Y-90367850D01*
X122577868Y-90388893D01*
X122563253Y-90408599D01*
X122546777Y-90426777D01*
X122528599Y-90443253D01*
X122508893Y-90457868D01*
X122487850Y-90470480D01*
X122465671Y-90480970D01*
X122442572Y-90489235D01*
X122418773Y-90495196D01*
X122394505Y-90498796D01*
X122370001Y-90500000D01*
X121469999Y-90500000D01*
X121445495Y-90498796D01*
X121421227Y-90495196D01*
X121397428Y-90489235D01*
X121374329Y-90480970D01*
X121352150Y-90470480D01*
X121331107Y-90457868D01*
X121311401Y-90443253D01*
X121293223Y-90426777D01*
X121276747Y-90408599D01*
X121262132Y-90388893D01*
X121249520Y-90367850D01*
X121239030Y-90345671D01*
X121230765Y-90322572D01*
X121224804Y-90298773D01*
X121221204Y-90274505D01*
X121220000Y-90250001D01*
X121220000Y-89599999D01*
X121221204Y-89575495D01*
X121224804Y-89551227D01*
X121230765Y-89527428D01*
X121239030Y-89504329D01*
X121249520Y-89482150D01*
X121262132Y-89461107D01*
X121276747Y-89441401D01*
X121293223Y-89423223D01*
X121311401Y-89406747D01*
X121331107Y-89392132D01*
X121352150Y-89379520D01*
X121374329Y-89369030D01*
X121397428Y-89360765D01*
X121421227Y-89354804D01*
X121445495Y-89351204D01*
X121469999Y-89350000D01*
X122370001Y-89350000D01*
X122394505Y-89351204D01*
X122394505Y-89351204D01*
G37*
D11*
G04 #@! TD*
G04 #@! TO.P,C2,1*
G04 #@! TO.N,/+15V*
X121920000Y-89925000D03*
D10*
G04 #@! TO.N,GND*
G04 #@! TO.C,C2*
G36*
X122394505Y-87301204D02*
X122418773Y-87304804D01*
X122442572Y-87310765D01*
X122465671Y-87319030D01*
X122487850Y-87329520D01*
X122508893Y-87342132D01*
X122528599Y-87356747D01*
X122546777Y-87373223D01*
X122563253Y-87391401D01*
X122577868Y-87411107D01*
X122590480Y-87432150D01*
X122600970Y-87454329D01*
X122609235Y-87477428D01*
X122615196Y-87501227D01*
X122618796Y-87525495D01*
X122620000Y-87549999D01*
X122620000Y-88200001D01*
X122618796Y-88224505D01*
X122615196Y-88248773D01*
X122609235Y-88272572D01*
X122600970Y-88295671D01*
X122590480Y-88317850D01*
X122577868Y-88338893D01*
X122563253Y-88358599D01*
X122546777Y-88376777D01*
X122528599Y-88393253D01*
X122508893Y-88407868D01*
X122487850Y-88420480D01*
X122465671Y-88430970D01*
X122442572Y-88439235D01*
X122418773Y-88445196D01*
X122394505Y-88448796D01*
X122370001Y-88450000D01*
X121469999Y-88450000D01*
X121445495Y-88448796D01*
X121421227Y-88445196D01*
X121397428Y-88439235D01*
X121374329Y-88430970D01*
X121352150Y-88420480D01*
X121331107Y-88407868D01*
X121311401Y-88393253D01*
X121293223Y-88376777D01*
X121276747Y-88358599D01*
X121262132Y-88338893D01*
X121249520Y-88317850D01*
X121239030Y-88295671D01*
X121230765Y-88272572D01*
X121224804Y-88248773D01*
X121221204Y-88224505D01*
X121220000Y-88200001D01*
X121220000Y-87549999D01*
X121221204Y-87525495D01*
X121224804Y-87501227D01*
X121230765Y-87477428D01*
X121239030Y-87454329D01*
X121249520Y-87432150D01*
X121262132Y-87411107D01*
X121276747Y-87391401D01*
X121293223Y-87373223D01*
X121311401Y-87356747D01*
X121331107Y-87342132D01*
X121352150Y-87329520D01*
X121374329Y-87319030D01*
X121397428Y-87310765D01*
X121421227Y-87304804D01*
X121445495Y-87301204D01*
X121469999Y-87300000D01*
X122370001Y-87300000D01*
X122394505Y-87301204D01*
X122394505Y-87301204D01*
G37*
D11*
G04 #@! TD*
G04 #@! TO.P,C2,2*
G04 #@! TO.N,GND*
X121920000Y-87875000D03*
D10*
G04 #@! TO.N,GND*
G04 #@! TO.C,C9*
G36*
X122768505Y-78549204D02*
X122792773Y-78552804D01*
X122816572Y-78558765D01*
X122839671Y-78567030D01*
X122861850Y-78577520D01*
X122882893Y-78590132D01*
X122902599Y-78604747D01*
X122920777Y-78621223D01*
X122937253Y-78639401D01*
X122951868Y-78659107D01*
X122964480Y-78680150D01*
X122974970Y-78702329D01*
X122983235Y-78725428D01*
X122989196Y-78749227D01*
X122992796Y-78773495D01*
X122994000Y-78797999D01*
X122994000Y-79698001D01*
X122992796Y-79722505D01*
X122989196Y-79746773D01*
X122983235Y-79770572D01*
X122974970Y-79793671D01*
X122964480Y-79815850D01*
X122951868Y-79836893D01*
X122937253Y-79856599D01*
X122920777Y-79874777D01*
X122902599Y-79891253D01*
X122882893Y-79905868D01*
X122861850Y-79918480D01*
X122839671Y-79928970D01*
X122816572Y-79937235D01*
X122792773Y-79943196D01*
X122768505Y-79946796D01*
X122744001Y-79948000D01*
X122093999Y-79948000D01*
X122069495Y-79946796D01*
X122045227Y-79943196D01*
X122021428Y-79937235D01*
X121998329Y-79928970D01*
X121976150Y-79918480D01*
X121955107Y-79905868D01*
X121935401Y-79891253D01*
X121917223Y-79874777D01*
X121900747Y-79856599D01*
X121886132Y-79836893D01*
X121873520Y-79815850D01*
X121863030Y-79793671D01*
X121854765Y-79770572D01*
X121848804Y-79746773D01*
X121845204Y-79722505D01*
X121844000Y-79698001D01*
X121844000Y-78797999D01*
X121845204Y-78773495D01*
X121848804Y-78749227D01*
X121854765Y-78725428D01*
X121863030Y-78702329D01*
X121873520Y-78680150D01*
X121886132Y-78659107D01*
X121900747Y-78639401D01*
X121917223Y-78621223D01*
X121935401Y-78604747D01*
X121955107Y-78590132D01*
X121976150Y-78577520D01*
X121998329Y-78567030D01*
X122021428Y-78558765D01*
X122045227Y-78552804D01*
X122069495Y-78549204D01*
X122093999Y-78548000D01*
X122744001Y-78548000D01*
X122768505Y-78549204D01*
X122768505Y-78549204D01*
G37*
D11*
G04 #@! TD*
G04 #@! TO.P,C9,2*
G04 #@! TO.N,GND*
X122419000Y-79248000D03*
D10*
G04 #@! TO.N,Net-(C9-Pad1)*
G04 #@! TO.C,C9*
G36*
X124818505Y-78549204D02*
X124842773Y-78552804D01*
X124866572Y-78558765D01*
X124889671Y-78567030D01*
X124911850Y-78577520D01*
X124932893Y-78590132D01*
X124952599Y-78604747D01*
X124970777Y-78621223D01*
X124987253Y-78639401D01*
X125001868Y-78659107D01*
X125014480Y-78680150D01*
X125024970Y-78702329D01*
X125033235Y-78725428D01*
X125039196Y-78749227D01*
X125042796Y-78773495D01*
X125044000Y-78797999D01*
X125044000Y-79698001D01*
X125042796Y-79722505D01*
X125039196Y-79746773D01*
X125033235Y-79770572D01*
X125024970Y-79793671D01*
X125014480Y-79815850D01*
X125001868Y-79836893D01*
X124987253Y-79856599D01*
X124970777Y-79874777D01*
X124952599Y-79891253D01*
X124932893Y-79905868D01*
X124911850Y-79918480D01*
X124889671Y-79928970D01*
X124866572Y-79937235D01*
X124842773Y-79943196D01*
X124818505Y-79946796D01*
X124794001Y-79948000D01*
X124143999Y-79948000D01*
X124119495Y-79946796D01*
X124095227Y-79943196D01*
X124071428Y-79937235D01*
X124048329Y-79928970D01*
X124026150Y-79918480D01*
X124005107Y-79905868D01*
X123985401Y-79891253D01*
X123967223Y-79874777D01*
X123950747Y-79856599D01*
X123936132Y-79836893D01*
X123923520Y-79815850D01*
X123913030Y-79793671D01*
X123904765Y-79770572D01*
X123898804Y-79746773D01*
X123895204Y-79722505D01*
X123894000Y-79698001D01*
X123894000Y-78797999D01*
X123895204Y-78773495D01*
X123898804Y-78749227D01*
X123904765Y-78725428D01*
X123913030Y-78702329D01*
X123923520Y-78680150D01*
X123936132Y-78659107D01*
X123950747Y-78639401D01*
X123967223Y-78621223D01*
X123985401Y-78604747D01*
X124005107Y-78590132D01*
X124026150Y-78577520D01*
X124048329Y-78567030D01*
X124071428Y-78558765D01*
X124095227Y-78552804D01*
X124119495Y-78549204D01*
X124143999Y-78548000D01*
X124794001Y-78548000D01*
X124818505Y-78549204D01*
X124818505Y-78549204D01*
G37*
D11*
G04 #@! TD*
G04 #@! TO.P,C9,1*
G04 #@! TO.N,Net-(C9-Pad1)*
X124469000Y-79248000D03*
D10*
G04 #@! TO.N,GND*
G04 #@! TO.C,C10*
G36*
X120870505Y-78692204D02*
X120894773Y-78695804D01*
X120918572Y-78701765D01*
X120941671Y-78710030D01*
X120963850Y-78720520D01*
X120984893Y-78733132D01*
X121004599Y-78747747D01*
X121022777Y-78764223D01*
X121039253Y-78782401D01*
X121053868Y-78802107D01*
X121066480Y-78823150D01*
X121076970Y-78845329D01*
X121085235Y-78868428D01*
X121091196Y-78892227D01*
X121094796Y-78916495D01*
X121096000Y-78940999D01*
X121096000Y-79591001D01*
X121094796Y-79615505D01*
X121091196Y-79639773D01*
X121085235Y-79663572D01*
X121076970Y-79686671D01*
X121066480Y-79708850D01*
X121053868Y-79729893D01*
X121039253Y-79749599D01*
X121022777Y-79767777D01*
X121004599Y-79784253D01*
X120984893Y-79798868D01*
X120963850Y-79811480D01*
X120941671Y-79821970D01*
X120918572Y-79830235D01*
X120894773Y-79836196D01*
X120870505Y-79839796D01*
X120846001Y-79841000D01*
X119945999Y-79841000D01*
X119921495Y-79839796D01*
X119897227Y-79836196D01*
X119873428Y-79830235D01*
X119850329Y-79821970D01*
X119828150Y-79811480D01*
X119807107Y-79798868D01*
X119787401Y-79784253D01*
X119769223Y-79767777D01*
X119752747Y-79749599D01*
X119738132Y-79729893D01*
X119725520Y-79708850D01*
X119715030Y-79686671D01*
X119706765Y-79663572D01*
X119700804Y-79639773D01*
X119697204Y-79615505D01*
X119696000Y-79591001D01*
X119696000Y-78940999D01*
X119697204Y-78916495D01*
X119700804Y-78892227D01*
X119706765Y-78868428D01*
X119715030Y-78845329D01*
X119725520Y-78823150D01*
X119738132Y-78802107D01*
X119752747Y-78782401D01*
X119769223Y-78764223D01*
X119787401Y-78747747D01*
X119807107Y-78733132D01*
X119828150Y-78720520D01*
X119850329Y-78710030D01*
X119873428Y-78701765D01*
X119897227Y-78695804D01*
X119921495Y-78692204D01*
X119945999Y-78691000D01*
X120846001Y-78691000D01*
X120870505Y-78692204D01*
X120870505Y-78692204D01*
G37*
D11*
G04 #@! TD*
G04 #@! TO.P,C10,2*
G04 #@! TO.N,GND*
X120396000Y-79266000D03*
D10*
G04 #@! TO.N,/THR*
G04 #@! TO.C,C10*
G36*
X120870505Y-76642204D02*
X120894773Y-76645804D01*
X120918572Y-76651765D01*
X120941671Y-76660030D01*
X120963850Y-76670520D01*
X120984893Y-76683132D01*
X121004599Y-76697747D01*
X121022777Y-76714223D01*
X121039253Y-76732401D01*
X121053868Y-76752107D01*
X121066480Y-76773150D01*
X121076970Y-76795329D01*
X121085235Y-76818428D01*
X121091196Y-76842227D01*
X121094796Y-76866495D01*
X121096000Y-76890999D01*
X121096000Y-77541001D01*
X121094796Y-77565505D01*
X121091196Y-77589773D01*
X121085235Y-77613572D01*
X121076970Y-77636671D01*
X121066480Y-77658850D01*
X121053868Y-77679893D01*
X121039253Y-77699599D01*
X121022777Y-77717777D01*
X121004599Y-77734253D01*
X120984893Y-77748868D01*
X120963850Y-77761480D01*
X120941671Y-77771970D01*
X120918572Y-77780235D01*
X120894773Y-77786196D01*
X120870505Y-77789796D01*
X120846001Y-77791000D01*
X119945999Y-77791000D01*
X119921495Y-77789796D01*
X119897227Y-77786196D01*
X119873428Y-77780235D01*
X119850329Y-77771970D01*
X119828150Y-77761480D01*
X119807107Y-77748868D01*
X119787401Y-77734253D01*
X119769223Y-77717777D01*
X119752747Y-77699599D01*
X119738132Y-77679893D01*
X119725520Y-77658850D01*
X119715030Y-77636671D01*
X119706765Y-77613572D01*
X119700804Y-77589773D01*
X119697204Y-77565505D01*
X119696000Y-77541001D01*
X119696000Y-76890999D01*
X119697204Y-76866495D01*
X119700804Y-76842227D01*
X119706765Y-76818428D01*
X119715030Y-76795329D01*
X119725520Y-76773150D01*
X119738132Y-76752107D01*
X119752747Y-76732401D01*
X119769223Y-76714223D01*
X119787401Y-76697747D01*
X119807107Y-76683132D01*
X119828150Y-76670520D01*
X119850329Y-76660030D01*
X119873428Y-76651765D01*
X119897227Y-76645804D01*
X119921495Y-76642204D01*
X119945999Y-76641000D01*
X120846001Y-76641000D01*
X120870505Y-76642204D01*
X120870505Y-76642204D01*
G37*
D11*
G04 #@! TD*
G04 #@! TO.P,C10,1*
G04 #@! TO.N,/THR*
X120396000Y-77216000D03*
D10*
G04 #@! TO.N,GND*
G04 #@! TO.C,J1*
G36*
X87004505Y-66465204D02*
X87028773Y-66468804D01*
X87052572Y-66474765D01*
X87075671Y-66483030D01*
X87097850Y-66493520D01*
X87118893Y-66506132D01*
X87138599Y-66520747D01*
X87156777Y-66537223D01*
X87173253Y-66555401D01*
X87187868Y-66575107D01*
X87200480Y-66596150D01*
X87210970Y-66618329D01*
X87219235Y-66641428D01*
X87225196Y-66665227D01*
X87228796Y-66689495D01*
X87230000Y-66713999D01*
X87230000Y-68414001D01*
X87228796Y-68438505D01*
X87225196Y-68462773D01*
X87219235Y-68486572D01*
X87210970Y-68509671D01*
X87200480Y-68531850D01*
X87187868Y-68552893D01*
X87173253Y-68572599D01*
X87156777Y-68590777D01*
X87138599Y-68607253D01*
X87118893Y-68621868D01*
X87097850Y-68634480D01*
X87075671Y-68644970D01*
X87052572Y-68653235D01*
X87028773Y-68659196D01*
X87004505Y-68662796D01*
X86980001Y-68664000D01*
X85739999Y-68664000D01*
X85715495Y-68662796D01*
X85691227Y-68659196D01*
X85667428Y-68653235D01*
X85644329Y-68644970D01*
X85622150Y-68634480D01*
X85601107Y-68621868D01*
X85581401Y-68607253D01*
X85563223Y-68590777D01*
X85546747Y-68572599D01*
X85532132Y-68552893D01*
X85519520Y-68531850D01*
X85509030Y-68509671D01*
X85500765Y-68486572D01*
X85494804Y-68462773D01*
X85491204Y-68438505D01*
X85490000Y-68414001D01*
X85490000Y-66713999D01*
X85491204Y-66689495D01*
X85494804Y-66665227D01*
X85500765Y-66641428D01*
X85509030Y-66618329D01*
X85519520Y-66596150D01*
X85532132Y-66575107D01*
X85546747Y-66555401D01*
X85563223Y-66537223D01*
X85581401Y-66520747D01*
X85601107Y-66506132D01*
X85622150Y-66493520D01*
X85644329Y-66483030D01*
X85667428Y-66474765D01*
X85691227Y-66468804D01*
X85715495Y-66465204D01*
X85739999Y-66464000D01*
X86980001Y-66464000D01*
X87004505Y-66465204D01*
X87004505Y-66465204D01*
G37*
D12*
G04 #@! TD*
G04 #@! TO.P,J1,1*
G04 #@! TO.N,GND*
X86360000Y-67564000D03*
D13*
G04 #@! TO.P,J1,2*
G04 #@! TO.N,Net-(J1-Pad2)*
X88900000Y-67564000D03*
G04 #@! TD*
D10*
G04 #@! TO.N,Net-(J1-Pad2)*
G04 #@! TO.C,J2*
G36*
X93100505Y-66465204D02*
X93124773Y-66468804D01*
X93148572Y-66474765D01*
X93171671Y-66483030D01*
X93193850Y-66493520D01*
X93214893Y-66506132D01*
X93234599Y-66520747D01*
X93252777Y-66537223D01*
X93269253Y-66555401D01*
X93283868Y-66575107D01*
X93296480Y-66596150D01*
X93306970Y-66618329D01*
X93315235Y-66641428D01*
X93321196Y-66665227D01*
X93324796Y-66689495D01*
X93326000Y-66713999D01*
X93326000Y-68414001D01*
X93324796Y-68438505D01*
X93321196Y-68462773D01*
X93315235Y-68486572D01*
X93306970Y-68509671D01*
X93296480Y-68531850D01*
X93283868Y-68552893D01*
X93269253Y-68572599D01*
X93252777Y-68590777D01*
X93234599Y-68607253D01*
X93214893Y-68621868D01*
X93193850Y-68634480D01*
X93171671Y-68644970D01*
X93148572Y-68653235D01*
X93124773Y-68659196D01*
X93100505Y-68662796D01*
X93076001Y-68664000D01*
X91835999Y-68664000D01*
X91811495Y-68662796D01*
X91787227Y-68659196D01*
X91763428Y-68653235D01*
X91740329Y-68644970D01*
X91718150Y-68634480D01*
X91697107Y-68621868D01*
X91677401Y-68607253D01*
X91659223Y-68590777D01*
X91642747Y-68572599D01*
X91628132Y-68552893D01*
X91615520Y-68531850D01*
X91605030Y-68509671D01*
X91596765Y-68486572D01*
X91590804Y-68462773D01*
X91587204Y-68438505D01*
X91586000Y-68414001D01*
X91586000Y-66713999D01*
X91587204Y-66689495D01*
X91590804Y-66665227D01*
X91596765Y-66641428D01*
X91605030Y-66618329D01*
X91615520Y-66596150D01*
X91628132Y-66575107D01*
X91642747Y-66555401D01*
X91659223Y-66537223D01*
X91677401Y-66520747D01*
X91697107Y-66506132D01*
X91718150Y-66493520D01*
X91740329Y-66483030D01*
X91763428Y-66474765D01*
X91787227Y-66468804D01*
X91811495Y-66465204D01*
X91835999Y-66464000D01*
X93076001Y-66464000D01*
X93100505Y-66465204D01*
X93100505Y-66465204D01*
G37*
D12*
G04 #@! TD*
G04 #@! TO.P,J2,1*
G04 #@! TO.N,Net-(J1-Pad2)*
X92456000Y-67564000D03*
D13*
G04 #@! TO.P,J2,2*
G04 #@! TO.N,+BATT*
X94996000Y-67564000D03*
G04 #@! TD*
G04 #@! TO.P,J3,2*
G04 #@! TO.N,Net-(J3-Pad2)*
X88900000Y-76708000D03*
D10*
G04 #@! TD*
G04 #@! TO.N,GND*
G04 #@! TO.C,J3*
G36*
X87004505Y-75609204D02*
X87028773Y-75612804D01*
X87052572Y-75618765D01*
X87075671Y-75627030D01*
X87097850Y-75637520D01*
X87118893Y-75650132D01*
X87138599Y-75664747D01*
X87156777Y-75681223D01*
X87173253Y-75699401D01*
X87187868Y-75719107D01*
X87200480Y-75740150D01*
X87210970Y-75762329D01*
X87219235Y-75785428D01*
X87225196Y-75809227D01*
X87228796Y-75833495D01*
X87230000Y-75857999D01*
X87230000Y-77558001D01*
X87228796Y-77582505D01*
X87225196Y-77606773D01*
X87219235Y-77630572D01*
X87210970Y-77653671D01*
X87200480Y-77675850D01*
X87187868Y-77696893D01*
X87173253Y-77716599D01*
X87156777Y-77734777D01*
X87138599Y-77751253D01*
X87118893Y-77765868D01*
X87097850Y-77778480D01*
X87075671Y-77788970D01*
X87052572Y-77797235D01*
X87028773Y-77803196D01*
X87004505Y-77806796D01*
X86980001Y-77808000D01*
X85739999Y-77808000D01*
X85715495Y-77806796D01*
X85691227Y-77803196D01*
X85667428Y-77797235D01*
X85644329Y-77788970D01*
X85622150Y-77778480D01*
X85601107Y-77765868D01*
X85581401Y-77751253D01*
X85563223Y-77734777D01*
X85546747Y-77716599D01*
X85532132Y-77696893D01*
X85519520Y-77675850D01*
X85509030Y-77653671D01*
X85500765Y-77630572D01*
X85494804Y-77606773D01*
X85491204Y-77582505D01*
X85490000Y-77558001D01*
X85490000Y-75857999D01*
X85491204Y-75833495D01*
X85494804Y-75809227D01*
X85500765Y-75785428D01*
X85509030Y-75762329D01*
X85519520Y-75740150D01*
X85532132Y-75719107D01*
X85546747Y-75699401D01*
X85563223Y-75681223D01*
X85581401Y-75664747D01*
X85601107Y-75650132D01*
X85622150Y-75637520D01*
X85644329Y-75627030D01*
X85667428Y-75618765D01*
X85691227Y-75612804D01*
X85715495Y-75609204D01*
X85739999Y-75608000D01*
X86980001Y-75608000D01*
X87004505Y-75609204D01*
X87004505Y-75609204D01*
G37*
D12*
G04 #@! TO.P,J3,1*
G04 #@! TO.N,GND*
X86360000Y-76708000D03*
G04 #@! TD*
D10*
G04 #@! TO.N,Net-(J3-Pad2)*
G04 #@! TO.C,J4*
G36*
X93100505Y-75609204D02*
X93124773Y-75612804D01*
X93148572Y-75618765D01*
X93171671Y-75627030D01*
X93193850Y-75637520D01*
X93214893Y-75650132D01*
X93234599Y-75664747D01*
X93252777Y-75681223D01*
X93269253Y-75699401D01*
X93283868Y-75719107D01*
X93296480Y-75740150D01*
X93306970Y-75762329D01*
X93315235Y-75785428D01*
X93321196Y-75809227D01*
X93324796Y-75833495D01*
X93326000Y-75857999D01*
X93326000Y-77558001D01*
X93324796Y-77582505D01*
X93321196Y-77606773D01*
X93315235Y-77630572D01*
X93306970Y-77653671D01*
X93296480Y-77675850D01*
X93283868Y-77696893D01*
X93269253Y-77716599D01*
X93252777Y-77734777D01*
X93234599Y-77751253D01*
X93214893Y-77765868D01*
X93193850Y-77778480D01*
X93171671Y-77788970D01*
X93148572Y-77797235D01*
X93124773Y-77803196D01*
X93100505Y-77806796D01*
X93076001Y-77808000D01*
X91835999Y-77808000D01*
X91811495Y-77806796D01*
X91787227Y-77803196D01*
X91763428Y-77797235D01*
X91740329Y-77788970D01*
X91718150Y-77778480D01*
X91697107Y-77765868D01*
X91677401Y-77751253D01*
X91659223Y-77734777D01*
X91642747Y-77716599D01*
X91628132Y-77696893D01*
X91615520Y-77675850D01*
X91605030Y-77653671D01*
X91596765Y-77630572D01*
X91590804Y-77606773D01*
X91587204Y-77582505D01*
X91586000Y-77558001D01*
X91586000Y-75857999D01*
X91587204Y-75833495D01*
X91590804Y-75809227D01*
X91596765Y-75785428D01*
X91605030Y-75762329D01*
X91615520Y-75740150D01*
X91628132Y-75719107D01*
X91642747Y-75699401D01*
X91659223Y-75681223D01*
X91677401Y-75664747D01*
X91697107Y-75650132D01*
X91718150Y-75637520D01*
X91740329Y-75627030D01*
X91763428Y-75618765D01*
X91787227Y-75612804D01*
X91811495Y-75609204D01*
X91835999Y-75608000D01*
X93076001Y-75608000D01*
X93100505Y-75609204D01*
X93100505Y-75609204D01*
G37*
D12*
G04 #@! TD*
G04 #@! TO.P,J4,1*
G04 #@! TO.N,Net-(J3-Pad2)*
X92456000Y-76708000D03*
D13*
G04 #@! TO.P,J4,2*
G04 #@! TO.N,+BATT*
X94996000Y-76708000D03*
G04 #@! TD*
G04 #@! TO.P,J5,2*
G04 #@! TO.N,Net-(J5-Pad2)*
X88900000Y-85852000D03*
D10*
G04 #@! TD*
G04 #@! TO.N,GND*
G04 #@! TO.C,J5*
G36*
X87004505Y-84753204D02*
X87028773Y-84756804D01*
X87052572Y-84762765D01*
X87075671Y-84771030D01*
X87097850Y-84781520D01*
X87118893Y-84794132D01*
X87138599Y-84808747D01*
X87156777Y-84825223D01*
X87173253Y-84843401D01*
X87187868Y-84863107D01*
X87200480Y-84884150D01*
X87210970Y-84906329D01*
X87219235Y-84929428D01*
X87225196Y-84953227D01*
X87228796Y-84977495D01*
X87230000Y-85001999D01*
X87230000Y-86702001D01*
X87228796Y-86726505D01*
X87225196Y-86750773D01*
X87219235Y-86774572D01*
X87210970Y-86797671D01*
X87200480Y-86819850D01*
X87187868Y-86840893D01*
X87173253Y-86860599D01*
X87156777Y-86878777D01*
X87138599Y-86895253D01*
X87118893Y-86909868D01*
X87097850Y-86922480D01*
X87075671Y-86932970D01*
X87052572Y-86941235D01*
X87028773Y-86947196D01*
X87004505Y-86950796D01*
X86980001Y-86952000D01*
X85739999Y-86952000D01*
X85715495Y-86950796D01*
X85691227Y-86947196D01*
X85667428Y-86941235D01*
X85644329Y-86932970D01*
X85622150Y-86922480D01*
X85601107Y-86909868D01*
X85581401Y-86895253D01*
X85563223Y-86878777D01*
X85546747Y-86860599D01*
X85532132Y-86840893D01*
X85519520Y-86819850D01*
X85509030Y-86797671D01*
X85500765Y-86774572D01*
X85494804Y-86750773D01*
X85491204Y-86726505D01*
X85490000Y-86702001D01*
X85490000Y-85001999D01*
X85491204Y-84977495D01*
X85494804Y-84953227D01*
X85500765Y-84929428D01*
X85509030Y-84906329D01*
X85519520Y-84884150D01*
X85532132Y-84863107D01*
X85546747Y-84843401D01*
X85563223Y-84825223D01*
X85581401Y-84808747D01*
X85601107Y-84794132D01*
X85622150Y-84781520D01*
X85644329Y-84771030D01*
X85667428Y-84762765D01*
X85691227Y-84756804D01*
X85715495Y-84753204D01*
X85739999Y-84752000D01*
X86980001Y-84752000D01*
X87004505Y-84753204D01*
X87004505Y-84753204D01*
G37*
D12*
G04 #@! TO.P,J5,1*
G04 #@! TO.N,GND*
X86360000Y-85852000D03*
G04 #@! TD*
D13*
G04 #@! TO.P,J6,2*
G04 #@! TO.N,+BATT*
X94996000Y-85852000D03*
D10*
G04 #@! TD*
G04 #@! TO.N,Net-(J5-Pad2)*
G04 #@! TO.C,J6*
G36*
X93100505Y-84753204D02*
X93124773Y-84756804D01*
X93148572Y-84762765D01*
X93171671Y-84771030D01*
X93193850Y-84781520D01*
X93214893Y-84794132D01*
X93234599Y-84808747D01*
X93252777Y-84825223D01*
X93269253Y-84843401D01*
X93283868Y-84863107D01*
X93296480Y-84884150D01*
X93306970Y-84906329D01*
X93315235Y-84929428D01*
X93321196Y-84953227D01*
X93324796Y-84977495D01*
X93326000Y-85001999D01*
X93326000Y-86702001D01*
X93324796Y-86726505D01*
X93321196Y-86750773D01*
X93315235Y-86774572D01*
X93306970Y-86797671D01*
X93296480Y-86819850D01*
X93283868Y-86840893D01*
X93269253Y-86860599D01*
X93252777Y-86878777D01*
X93234599Y-86895253D01*
X93214893Y-86909868D01*
X93193850Y-86922480D01*
X93171671Y-86932970D01*
X93148572Y-86941235D01*
X93124773Y-86947196D01*
X93100505Y-86950796D01*
X93076001Y-86952000D01*
X91835999Y-86952000D01*
X91811495Y-86950796D01*
X91787227Y-86947196D01*
X91763428Y-86941235D01*
X91740329Y-86932970D01*
X91718150Y-86922480D01*
X91697107Y-86909868D01*
X91677401Y-86895253D01*
X91659223Y-86878777D01*
X91642747Y-86860599D01*
X91628132Y-86840893D01*
X91615520Y-86819850D01*
X91605030Y-86797671D01*
X91596765Y-86774572D01*
X91590804Y-86750773D01*
X91587204Y-86726505D01*
X91586000Y-86702001D01*
X91586000Y-85001999D01*
X91587204Y-84977495D01*
X91590804Y-84953227D01*
X91596765Y-84929428D01*
X91605030Y-84906329D01*
X91615520Y-84884150D01*
X91628132Y-84863107D01*
X91642747Y-84843401D01*
X91659223Y-84825223D01*
X91677401Y-84808747D01*
X91697107Y-84794132D01*
X91718150Y-84781520D01*
X91740329Y-84771030D01*
X91763428Y-84762765D01*
X91787227Y-84756804D01*
X91811495Y-84753204D01*
X91835999Y-84752000D01*
X93076001Y-84752000D01*
X93100505Y-84753204D01*
X93100505Y-84753204D01*
G37*
D12*
G04 #@! TO.P,J6,1*
G04 #@! TO.N,Net-(J5-Pad2)*
X92456000Y-85852000D03*
G04 #@! TD*
D13*
G04 #@! TO.P,J7,2*
G04 #@! TO.N,/+3.3V*
X153924000Y-72136000D03*
D10*
G04 #@! TD*
G04 #@! TO.N,GND*
G04 #@! TO.C,J7*
G36*
X152028505Y-71037204D02*
X152052773Y-71040804D01*
X152076572Y-71046765D01*
X152099671Y-71055030D01*
X152121850Y-71065520D01*
X152142893Y-71078132D01*
X152162599Y-71092747D01*
X152180777Y-71109223D01*
X152197253Y-71127401D01*
X152211868Y-71147107D01*
X152224480Y-71168150D01*
X152234970Y-71190329D01*
X152243235Y-71213428D01*
X152249196Y-71237227D01*
X152252796Y-71261495D01*
X152254000Y-71285999D01*
X152254000Y-72986001D01*
X152252796Y-73010505D01*
X152249196Y-73034773D01*
X152243235Y-73058572D01*
X152234970Y-73081671D01*
X152224480Y-73103850D01*
X152211868Y-73124893D01*
X152197253Y-73144599D01*
X152180777Y-73162777D01*
X152162599Y-73179253D01*
X152142893Y-73193868D01*
X152121850Y-73206480D01*
X152099671Y-73216970D01*
X152076572Y-73225235D01*
X152052773Y-73231196D01*
X152028505Y-73234796D01*
X152004001Y-73236000D01*
X150763999Y-73236000D01*
X150739495Y-73234796D01*
X150715227Y-73231196D01*
X150691428Y-73225235D01*
X150668329Y-73216970D01*
X150646150Y-73206480D01*
X150625107Y-73193868D01*
X150605401Y-73179253D01*
X150587223Y-73162777D01*
X150570747Y-73144599D01*
X150556132Y-73124893D01*
X150543520Y-73103850D01*
X150533030Y-73081671D01*
X150524765Y-73058572D01*
X150518804Y-73034773D01*
X150515204Y-73010505D01*
X150514000Y-72986001D01*
X150514000Y-71285999D01*
X150515204Y-71261495D01*
X150518804Y-71237227D01*
X150524765Y-71213428D01*
X150533030Y-71190329D01*
X150543520Y-71168150D01*
X150556132Y-71147107D01*
X150570747Y-71127401D01*
X150587223Y-71109223D01*
X150605401Y-71092747D01*
X150625107Y-71078132D01*
X150646150Y-71065520D01*
X150668329Y-71055030D01*
X150691428Y-71046765D01*
X150715227Y-71040804D01*
X150739495Y-71037204D01*
X150763999Y-71036000D01*
X152004001Y-71036000D01*
X152028505Y-71037204D01*
X152028505Y-71037204D01*
G37*
D12*
G04 #@! TO.P,J7,1*
G04 #@! TO.N,GND*
X151384000Y-72136000D03*
G04 #@! TD*
D10*
G04 #@! TO.N,GND*
G04 #@! TO.C,J8*
G36*
X152028505Y-78657204D02*
X152052773Y-78660804D01*
X152076572Y-78666765D01*
X152099671Y-78675030D01*
X152121850Y-78685520D01*
X152142893Y-78698132D01*
X152162599Y-78712747D01*
X152180777Y-78729223D01*
X152197253Y-78747401D01*
X152211868Y-78767107D01*
X152224480Y-78788150D01*
X152234970Y-78810329D01*
X152243235Y-78833428D01*
X152249196Y-78857227D01*
X152252796Y-78881495D01*
X152254000Y-78905999D01*
X152254000Y-80606001D01*
X152252796Y-80630505D01*
X152249196Y-80654773D01*
X152243235Y-80678572D01*
X152234970Y-80701671D01*
X152224480Y-80723850D01*
X152211868Y-80744893D01*
X152197253Y-80764599D01*
X152180777Y-80782777D01*
X152162599Y-80799253D01*
X152142893Y-80813868D01*
X152121850Y-80826480D01*
X152099671Y-80836970D01*
X152076572Y-80845235D01*
X152052773Y-80851196D01*
X152028505Y-80854796D01*
X152004001Y-80856000D01*
X150763999Y-80856000D01*
X150739495Y-80854796D01*
X150715227Y-80851196D01*
X150691428Y-80845235D01*
X150668329Y-80836970D01*
X150646150Y-80826480D01*
X150625107Y-80813868D01*
X150605401Y-80799253D01*
X150587223Y-80782777D01*
X150570747Y-80764599D01*
X150556132Y-80744893D01*
X150543520Y-80723850D01*
X150533030Y-80701671D01*
X150524765Y-80678572D01*
X150518804Y-80654773D01*
X150515204Y-80630505D01*
X150514000Y-80606001D01*
X150514000Y-78905999D01*
X150515204Y-78881495D01*
X150518804Y-78857227D01*
X150524765Y-78833428D01*
X150533030Y-78810329D01*
X150543520Y-78788150D01*
X150556132Y-78767107D01*
X150570747Y-78747401D01*
X150587223Y-78729223D01*
X150605401Y-78712747D01*
X150625107Y-78698132D01*
X150646150Y-78685520D01*
X150668329Y-78675030D01*
X150691428Y-78666765D01*
X150715227Y-78660804D01*
X150739495Y-78657204D01*
X150763999Y-78656000D01*
X152004001Y-78656000D01*
X152028505Y-78657204D01*
X152028505Y-78657204D01*
G37*
D12*
G04 #@! TD*
G04 #@! TO.P,J8,1*
G04 #@! TO.N,GND*
X151384000Y-79756000D03*
D13*
G04 #@! TO.P,J8,2*
G04 #@! TO.N,/+5V*
X153924000Y-79756000D03*
G04 #@! TD*
D10*
G04 #@! TO.N,GND*
G04 #@! TO.C,J9*
G36*
X145424505Y-71037204D02*
X145448773Y-71040804D01*
X145472572Y-71046765D01*
X145495671Y-71055030D01*
X145517850Y-71065520D01*
X145538893Y-71078132D01*
X145558599Y-71092747D01*
X145576777Y-71109223D01*
X145593253Y-71127401D01*
X145607868Y-71147107D01*
X145620480Y-71168150D01*
X145630970Y-71190329D01*
X145639235Y-71213428D01*
X145645196Y-71237227D01*
X145648796Y-71261495D01*
X145650000Y-71285999D01*
X145650000Y-72986001D01*
X145648796Y-73010505D01*
X145645196Y-73034773D01*
X145639235Y-73058572D01*
X145630970Y-73081671D01*
X145620480Y-73103850D01*
X145607868Y-73124893D01*
X145593253Y-73144599D01*
X145576777Y-73162777D01*
X145558599Y-73179253D01*
X145538893Y-73193868D01*
X145517850Y-73206480D01*
X145495671Y-73216970D01*
X145472572Y-73225235D01*
X145448773Y-73231196D01*
X145424505Y-73234796D01*
X145400001Y-73236000D01*
X144159999Y-73236000D01*
X144135495Y-73234796D01*
X144111227Y-73231196D01*
X144087428Y-73225235D01*
X144064329Y-73216970D01*
X144042150Y-73206480D01*
X144021107Y-73193868D01*
X144001401Y-73179253D01*
X143983223Y-73162777D01*
X143966747Y-73144599D01*
X143952132Y-73124893D01*
X143939520Y-73103850D01*
X143929030Y-73081671D01*
X143920765Y-73058572D01*
X143914804Y-73034773D01*
X143911204Y-73010505D01*
X143910000Y-72986001D01*
X143910000Y-71285999D01*
X143911204Y-71261495D01*
X143914804Y-71237227D01*
X143920765Y-71213428D01*
X143929030Y-71190329D01*
X143939520Y-71168150D01*
X143952132Y-71147107D01*
X143966747Y-71127401D01*
X143983223Y-71109223D01*
X144001401Y-71092747D01*
X144021107Y-71078132D01*
X144042150Y-71065520D01*
X144064329Y-71055030D01*
X144087428Y-71046765D01*
X144111227Y-71040804D01*
X144135495Y-71037204D01*
X144159999Y-71036000D01*
X145400001Y-71036000D01*
X145424505Y-71037204D01*
X145424505Y-71037204D01*
G37*
D12*
G04 #@! TD*
G04 #@! TO.P,J9,1*
G04 #@! TO.N,GND*
X144780000Y-72136000D03*
D13*
G04 #@! TO.P,J9,2*
G04 #@! TO.N,/+12V*
X147320000Y-72136000D03*
G04 #@! TD*
D10*
G04 #@! TO.N,GND*
G04 #@! TO.C,J10*
G36*
X128152505Y-85769204D02*
X128176773Y-85772804D01*
X128200572Y-85778765D01*
X128223671Y-85787030D01*
X128245850Y-85797520D01*
X128266893Y-85810132D01*
X128286599Y-85824747D01*
X128304777Y-85841223D01*
X128321253Y-85859401D01*
X128335868Y-85879107D01*
X128348480Y-85900150D01*
X128358970Y-85922329D01*
X128367235Y-85945428D01*
X128373196Y-85969227D01*
X128376796Y-85993495D01*
X128378000Y-86017999D01*
X128378000Y-87718001D01*
X128376796Y-87742505D01*
X128373196Y-87766773D01*
X128367235Y-87790572D01*
X128358970Y-87813671D01*
X128348480Y-87835850D01*
X128335868Y-87856893D01*
X128321253Y-87876599D01*
X128304777Y-87894777D01*
X128286599Y-87911253D01*
X128266893Y-87925868D01*
X128245850Y-87938480D01*
X128223671Y-87948970D01*
X128200572Y-87957235D01*
X128176773Y-87963196D01*
X128152505Y-87966796D01*
X128128001Y-87968000D01*
X126887999Y-87968000D01*
X126863495Y-87966796D01*
X126839227Y-87963196D01*
X126815428Y-87957235D01*
X126792329Y-87948970D01*
X126770150Y-87938480D01*
X126749107Y-87925868D01*
X126729401Y-87911253D01*
X126711223Y-87894777D01*
X126694747Y-87876599D01*
X126680132Y-87856893D01*
X126667520Y-87835850D01*
X126657030Y-87813671D01*
X126648765Y-87790572D01*
X126642804Y-87766773D01*
X126639204Y-87742505D01*
X126638000Y-87718001D01*
X126638000Y-86017999D01*
X126639204Y-85993495D01*
X126642804Y-85969227D01*
X126648765Y-85945428D01*
X126657030Y-85922329D01*
X126667520Y-85900150D01*
X126680132Y-85879107D01*
X126694747Y-85859401D01*
X126711223Y-85841223D01*
X126729401Y-85824747D01*
X126749107Y-85810132D01*
X126770150Y-85797520D01*
X126792329Y-85787030D01*
X126815428Y-85778765D01*
X126839227Y-85772804D01*
X126863495Y-85769204D01*
X126887999Y-85768000D01*
X128128001Y-85768000D01*
X128152505Y-85769204D01*
X128152505Y-85769204D01*
G37*
D12*
G04 #@! TD*
G04 #@! TO.P,J10,1*
G04 #@! TO.N,GND*
X127508000Y-86868000D03*
D13*
G04 #@! TO.P,J10,2*
G04 #@! TO.N,/+15V*
X130048000Y-86868000D03*
G04 #@! TO.P,J10,3*
G04 #@! TO.N,/-15V*
X132588000Y-86868000D03*
G04 #@! TO.P,J10,4*
G04 #@! TO.N,/C_in*
X135128000Y-86868000D03*
G04 #@! TO.P,J10,5*
G04 #@! TO.N,/C_out*
X137668000Y-86868000D03*
G04 #@! TD*
D10*
G04 #@! TO.N,Net-(J11-Pad1)*
G04 #@! TO.C,J11*
G36*
X145424505Y-78657204D02*
X145448773Y-78660804D01*
X145472572Y-78666765D01*
X145495671Y-78675030D01*
X145517850Y-78685520D01*
X145538893Y-78698132D01*
X145558599Y-78712747D01*
X145576777Y-78729223D01*
X145593253Y-78747401D01*
X145607868Y-78767107D01*
X145620480Y-78788150D01*
X145630970Y-78810329D01*
X145639235Y-78833428D01*
X145645196Y-78857227D01*
X145648796Y-78881495D01*
X145650000Y-78905999D01*
X145650000Y-80606001D01*
X145648796Y-80630505D01*
X145645196Y-80654773D01*
X145639235Y-80678572D01*
X145630970Y-80701671D01*
X145620480Y-80723850D01*
X145607868Y-80744893D01*
X145593253Y-80764599D01*
X145576777Y-80782777D01*
X145558599Y-80799253D01*
X145538893Y-80813868D01*
X145517850Y-80826480D01*
X145495671Y-80836970D01*
X145472572Y-80845235D01*
X145448773Y-80851196D01*
X145424505Y-80854796D01*
X145400001Y-80856000D01*
X144159999Y-80856000D01*
X144135495Y-80854796D01*
X144111227Y-80851196D01*
X144087428Y-80845235D01*
X144064329Y-80836970D01*
X144042150Y-80826480D01*
X144021107Y-80813868D01*
X144001401Y-80799253D01*
X143983223Y-80782777D01*
X143966747Y-80764599D01*
X143952132Y-80744893D01*
X143939520Y-80723850D01*
X143929030Y-80701671D01*
X143920765Y-80678572D01*
X143914804Y-80654773D01*
X143911204Y-80630505D01*
X143910000Y-80606001D01*
X143910000Y-78905999D01*
X143911204Y-78881495D01*
X143914804Y-78857227D01*
X143920765Y-78833428D01*
X143929030Y-78810329D01*
X143939520Y-78788150D01*
X143952132Y-78767107D01*
X143966747Y-78747401D01*
X143983223Y-78729223D01*
X144001401Y-78712747D01*
X144021107Y-78698132D01*
X144042150Y-78685520D01*
X144064329Y-78675030D01*
X144087428Y-78666765D01*
X144111227Y-78660804D01*
X144135495Y-78657204D01*
X144159999Y-78656000D01*
X145400001Y-78656000D01*
X145424505Y-78657204D01*
X145424505Y-78657204D01*
G37*
D12*
G04 #@! TD*
G04 #@! TO.P,J11,1*
G04 #@! TO.N,Net-(J11-Pad1)*
X144780000Y-79756000D03*
D13*
G04 #@! TO.P,J11,2*
G04 #@! TO.N,/FAA_GND*
X147320000Y-79756000D03*
G04 #@! TD*
G04 #@! TO.P,J12,2*
G04 #@! TO.N,/POWR*
X101092000Y-76708000D03*
D10*
G04 #@! TD*
G04 #@! TO.N,+BATT*
G04 #@! TO.C,J12*
G36*
X99196505Y-75609204D02*
X99220773Y-75612804D01*
X99244572Y-75618765D01*
X99267671Y-75627030D01*
X99289850Y-75637520D01*
X99310893Y-75650132D01*
X99330599Y-75664747D01*
X99348777Y-75681223D01*
X99365253Y-75699401D01*
X99379868Y-75719107D01*
X99392480Y-75740150D01*
X99402970Y-75762329D01*
X99411235Y-75785428D01*
X99417196Y-75809227D01*
X99420796Y-75833495D01*
X99422000Y-75857999D01*
X99422000Y-77558001D01*
X99420796Y-77582505D01*
X99417196Y-77606773D01*
X99411235Y-77630572D01*
X99402970Y-77653671D01*
X99392480Y-77675850D01*
X99379868Y-77696893D01*
X99365253Y-77716599D01*
X99348777Y-77734777D01*
X99330599Y-77751253D01*
X99310893Y-77765868D01*
X99289850Y-77778480D01*
X99267671Y-77788970D01*
X99244572Y-77797235D01*
X99220773Y-77803196D01*
X99196505Y-77806796D01*
X99172001Y-77808000D01*
X97931999Y-77808000D01*
X97907495Y-77806796D01*
X97883227Y-77803196D01*
X97859428Y-77797235D01*
X97836329Y-77788970D01*
X97814150Y-77778480D01*
X97793107Y-77765868D01*
X97773401Y-77751253D01*
X97755223Y-77734777D01*
X97738747Y-77716599D01*
X97724132Y-77696893D01*
X97711520Y-77675850D01*
X97701030Y-77653671D01*
X97692765Y-77630572D01*
X97686804Y-77606773D01*
X97683204Y-77582505D01*
X97682000Y-77558001D01*
X97682000Y-75857999D01*
X97683204Y-75833495D01*
X97686804Y-75809227D01*
X97692765Y-75785428D01*
X97701030Y-75762329D01*
X97711520Y-75740150D01*
X97724132Y-75719107D01*
X97738747Y-75699401D01*
X97755223Y-75681223D01*
X97773401Y-75664747D01*
X97793107Y-75650132D01*
X97814150Y-75637520D01*
X97836329Y-75627030D01*
X97859428Y-75618765D01*
X97883227Y-75612804D01*
X97907495Y-75609204D01*
X97931999Y-75608000D01*
X99172001Y-75608000D01*
X99196505Y-75609204D01*
X99196505Y-75609204D01*
G37*
D12*
G04 #@! TO.P,J12,1*
G04 #@! TO.N,+BATT*
X98552000Y-76708000D03*
G04 #@! TD*
D14*
G04 #@! TO.P,JP1,2*
G04 #@! TO.N,GND*
X120396000Y-81646000D03*
G04 #@! TO.P,JP1,1*
G04 #@! TO.N,Net-(JP1-Pad1)*
X120396000Y-82946000D03*
G04 #@! TD*
D15*
G04 #@! TO.P,L1,2*
G04 #@! TO.N,/-15V*
X125605000Y-82296000D03*
G04 #@! TO.P,L1,1*
G04 #@! TO.N,Net-(L1-Pad1)*
X123315000Y-82296000D03*
G04 #@! TD*
D16*
G04 #@! TO.P,L2,1*
G04 #@! TO.N,Net-(L2-Pad1)*
X117856000Y-87626000D03*
G04 #@! TO.P,L2,2*
G04 #@! TO.N,/+15V*
X117856000Y-89916000D03*
G04 #@! TD*
D17*
G04 #@! TO.P,Q1,1*
G04 #@! TO.N,/FAA_SIG*
X136022000Y-74930000D03*
G04 #@! TO.P,Q1,2*
G04 #@! TO.N,GND*
X137922000Y-74930000D03*
G04 #@! TO.P,Q1,3*
G04 #@! TO.N,/FAA_GND*
X136972000Y-78350000D03*
G04 #@! TD*
D10*
G04 #@! TO.N,Net-(R1-Pad1)*
G04 #@! TO.C,R1*
G36*
X123971953Y-74674523D02*
X123996221Y-74678123D01*
X124020020Y-74684084D01*
X124043119Y-74692349D01*
X124065298Y-74702839D01*
X124086341Y-74715451D01*
X124106047Y-74730066D01*
X124124225Y-74746542D01*
X124140701Y-74764720D01*
X124155316Y-74784426D01*
X124167928Y-74805469D01*
X124178418Y-74827648D01*
X124186683Y-74850747D01*
X124192644Y-74874546D01*
X124196244Y-74898814D01*
X124197448Y-74923318D01*
X124197448Y-75573320D01*
X124196244Y-75597824D01*
X124192644Y-75622092D01*
X124186683Y-75645891D01*
X124178418Y-75668990D01*
X124167928Y-75691169D01*
X124155316Y-75712212D01*
X124140701Y-75731918D01*
X124124225Y-75750096D01*
X124106047Y-75766572D01*
X124086341Y-75781187D01*
X124065298Y-75793799D01*
X124043119Y-75804289D01*
X124020020Y-75812554D01*
X123996221Y-75818515D01*
X123971953Y-75822115D01*
X123947449Y-75823319D01*
X123047447Y-75823319D01*
X123022943Y-75822115D01*
X122998675Y-75818515D01*
X122974876Y-75812554D01*
X122951777Y-75804289D01*
X122929598Y-75793799D01*
X122908555Y-75781187D01*
X122888849Y-75766572D01*
X122870671Y-75750096D01*
X122854195Y-75731918D01*
X122839580Y-75712212D01*
X122826968Y-75691169D01*
X122816478Y-75668990D01*
X122808213Y-75645891D01*
X122802252Y-75622092D01*
X122798652Y-75597824D01*
X122797448Y-75573320D01*
X122797448Y-74923318D01*
X122798652Y-74898814D01*
X122802252Y-74874546D01*
X122808213Y-74850747D01*
X122816478Y-74827648D01*
X122826968Y-74805469D01*
X122839580Y-74784426D01*
X122854195Y-74764720D01*
X122870671Y-74746542D01*
X122888849Y-74730066D01*
X122908555Y-74715451D01*
X122929598Y-74702839D01*
X122951777Y-74692349D01*
X122974876Y-74684084D01*
X122998675Y-74678123D01*
X123022943Y-74674523D01*
X123047447Y-74673319D01*
X123947449Y-74673319D01*
X123971953Y-74674523D01*
X123971953Y-74674523D01*
G37*
D11*
G04 #@! TD*
G04 #@! TO.P,R1,1*
G04 #@! TO.N,Net-(R1-Pad1)*
X123497448Y-75248319D03*
D10*
G04 #@! TO.N,/THR*
G04 #@! TO.C,R1*
G36*
X123971953Y-76724523D02*
X123996221Y-76728123D01*
X124020020Y-76734084D01*
X124043119Y-76742349D01*
X124065298Y-76752839D01*
X124086341Y-76765451D01*
X124106047Y-76780066D01*
X124124225Y-76796542D01*
X124140701Y-76814720D01*
X124155316Y-76834426D01*
X124167928Y-76855469D01*
X124178418Y-76877648D01*
X124186683Y-76900747D01*
X124192644Y-76924546D01*
X124196244Y-76948814D01*
X124197448Y-76973318D01*
X124197448Y-77623320D01*
X124196244Y-77647824D01*
X124192644Y-77672092D01*
X124186683Y-77695891D01*
X124178418Y-77718990D01*
X124167928Y-77741169D01*
X124155316Y-77762212D01*
X124140701Y-77781918D01*
X124124225Y-77800096D01*
X124106047Y-77816572D01*
X124086341Y-77831187D01*
X124065298Y-77843799D01*
X124043119Y-77854289D01*
X124020020Y-77862554D01*
X123996221Y-77868515D01*
X123971953Y-77872115D01*
X123947449Y-77873319D01*
X123047447Y-77873319D01*
X123022943Y-77872115D01*
X122998675Y-77868515D01*
X122974876Y-77862554D01*
X122951777Y-77854289D01*
X122929598Y-77843799D01*
X122908555Y-77831187D01*
X122888849Y-77816572D01*
X122870671Y-77800096D01*
X122854195Y-77781918D01*
X122839580Y-77762212D01*
X122826968Y-77741169D01*
X122816478Y-77718990D01*
X122808213Y-77695891D01*
X122802252Y-77672092D01*
X122798652Y-77647824D01*
X122797448Y-77623320D01*
X122797448Y-76973318D01*
X122798652Y-76948814D01*
X122802252Y-76924546D01*
X122808213Y-76900747D01*
X122816478Y-76877648D01*
X122826968Y-76855469D01*
X122839580Y-76834426D01*
X122854195Y-76814720D01*
X122870671Y-76796542D01*
X122888849Y-76780066D01*
X122908555Y-76765451D01*
X122929598Y-76752839D01*
X122951777Y-76742349D01*
X122974876Y-76734084D01*
X122998675Y-76728123D01*
X123022943Y-76724523D01*
X123047447Y-76723319D01*
X123947449Y-76723319D01*
X123971953Y-76724523D01*
X123971953Y-76724523D01*
G37*
D11*
G04 #@! TD*
G04 #@! TO.P,R1,2*
G04 #@! TO.N,/THR*
X123497448Y-77298319D03*
D10*
G04 #@! TO.N,Net-(R1-Pad1)*
G04 #@! TO.C,R2*
G36*
X120798953Y-74567523D02*
X120823221Y-74571123D01*
X120847020Y-74577084D01*
X120870119Y-74585349D01*
X120892298Y-74595839D01*
X120913341Y-74608451D01*
X120933047Y-74623066D01*
X120951225Y-74639542D01*
X120967701Y-74657720D01*
X120982316Y-74677426D01*
X120994928Y-74698469D01*
X121005418Y-74720648D01*
X121013683Y-74743747D01*
X121019644Y-74767546D01*
X121023244Y-74791814D01*
X121024448Y-74816318D01*
X121024448Y-75716320D01*
X121023244Y-75740824D01*
X121019644Y-75765092D01*
X121013683Y-75788891D01*
X121005418Y-75811990D01*
X120994928Y-75834169D01*
X120982316Y-75855212D01*
X120967701Y-75874918D01*
X120951225Y-75893096D01*
X120933047Y-75909572D01*
X120913341Y-75924187D01*
X120892298Y-75936799D01*
X120870119Y-75947289D01*
X120847020Y-75955554D01*
X120823221Y-75961515D01*
X120798953Y-75965115D01*
X120774449Y-75966319D01*
X120124447Y-75966319D01*
X120099943Y-75965115D01*
X120075675Y-75961515D01*
X120051876Y-75955554D01*
X120028777Y-75947289D01*
X120006598Y-75936799D01*
X119985555Y-75924187D01*
X119965849Y-75909572D01*
X119947671Y-75893096D01*
X119931195Y-75874918D01*
X119916580Y-75855212D01*
X119903968Y-75834169D01*
X119893478Y-75811990D01*
X119885213Y-75788891D01*
X119879252Y-75765092D01*
X119875652Y-75740824D01*
X119874448Y-75716320D01*
X119874448Y-74816318D01*
X119875652Y-74791814D01*
X119879252Y-74767546D01*
X119885213Y-74743747D01*
X119893478Y-74720648D01*
X119903968Y-74698469D01*
X119916580Y-74677426D01*
X119931195Y-74657720D01*
X119947671Y-74639542D01*
X119965849Y-74623066D01*
X119985555Y-74608451D01*
X120006598Y-74595839D01*
X120028777Y-74585349D01*
X120051876Y-74577084D01*
X120075675Y-74571123D01*
X120099943Y-74567523D01*
X120124447Y-74566319D01*
X120774449Y-74566319D01*
X120798953Y-74567523D01*
X120798953Y-74567523D01*
G37*
D11*
G04 #@! TD*
G04 #@! TO.P,R2,2*
G04 #@! TO.N,Net-(R1-Pad1)*
X120449448Y-75266319D03*
D10*
G04 #@! TO.N,/+12V*
G04 #@! TO.C,R2*
G36*
X118748953Y-74567523D02*
X118773221Y-74571123D01*
X118797020Y-74577084D01*
X118820119Y-74585349D01*
X118842298Y-74595839D01*
X118863341Y-74608451D01*
X118883047Y-74623066D01*
X118901225Y-74639542D01*
X118917701Y-74657720D01*
X118932316Y-74677426D01*
X118944928Y-74698469D01*
X118955418Y-74720648D01*
X118963683Y-74743747D01*
X118969644Y-74767546D01*
X118973244Y-74791814D01*
X118974448Y-74816318D01*
X118974448Y-75716320D01*
X118973244Y-75740824D01*
X118969644Y-75765092D01*
X118963683Y-75788891D01*
X118955418Y-75811990D01*
X118944928Y-75834169D01*
X118932316Y-75855212D01*
X118917701Y-75874918D01*
X118901225Y-75893096D01*
X118883047Y-75909572D01*
X118863341Y-75924187D01*
X118842298Y-75936799D01*
X118820119Y-75947289D01*
X118797020Y-75955554D01*
X118773221Y-75961515D01*
X118748953Y-75965115D01*
X118724449Y-75966319D01*
X118074447Y-75966319D01*
X118049943Y-75965115D01*
X118025675Y-75961515D01*
X118001876Y-75955554D01*
X117978777Y-75947289D01*
X117956598Y-75936799D01*
X117935555Y-75924187D01*
X117915849Y-75909572D01*
X117897671Y-75893096D01*
X117881195Y-75874918D01*
X117866580Y-75855212D01*
X117853968Y-75834169D01*
X117843478Y-75811990D01*
X117835213Y-75788891D01*
X117829252Y-75765092D01*
X117825652Y-75740824D01*
X117824448Y-75716320D01*
X117824448Y-74816318D01*
X117825652Y-74791814D01*
X117829252Y-74767546D01*
X117835213Y-74743747D01*
X117843478Y-74720648D01*
X117853968Y-74698469D01*
X117866580Y-74677426D01*
X117881195Y-74657720D01*
X117897671Y-74639542D01*
X117915849Y-74623066D01*
X117935555Y-74608451D01*
X117956598Y-74595839D01*
X117978777Y-74585349D01*
X118001876Y-74577084D01*
X118025675Y-74571123D01*
X118049943Y-74567523D01*
X118074447Y-74566319D01*
X118724449Y-74566319D01*
X118748953Y-74567523D01*
X118748953Y-74567523D01*
G37*
D11*
G04 #@! TD*
G04 #@! TO.P,R2,1*
G04 #@! TO.N,/+12V*
X118399448Y-75266319D03*
D18*
G04 #@! TO.P,U1,1*
G04 #@! TO.N,GND*
X105156000Y-85344000D03*
G04 #@! TO.P,U1,2*
G04 #@! TO.N,/POWR*
X107696000Y-85344000D03*
G04 #@! TO.P,U1,3*
G04 #@! TO.N,Net-(U1-Pad3)*
X110236000Y-85344000D03*
G04 #@! TO.P,U1,5*
G04 #@! TO.N,Net-(U1-Pad5)*
X115316000Y-85344000D03*
G04 #@! TO.P,U1,6*
G04 #@! TO.N,Net-(L2-Pad1)*
X117856000Y-85344000D03*
G04 #@! TO.P,U1,7*
G04 #@! TO.N,Net-(JP1-Pad1)*
X120396000Y-85344000D03*
G04 #@! TO.P,U1,8*
G04 #@! TO.N,Net-(L1-Pad1)*
X122936000Y-85344000D03*
G04 #@! TD*
D19*
G04 #@! TO.P,U5,1*
G04 #@! TO.N,GND*
X132133448Y-74250319D03*
G04 #@! TO.P,U5,2*
G04 #@! TO.N,/THR*
X132133448Y-75520319D03*
G04 #@! TO.P,U5,3*
G04 #@! TO.N,/FAA_SIG*
X132133448Y-76790319D03*
G04 #@! TO.P,U5,4*
G04 #@! TO.N,/+12V*
X132133448Y-78060319D03*
G04 #@! TO.P,U5,5*
G04 #@! TO.N,Net-(C9-Pad1)*
X126733448Y-78060319D03*
G04 #@! TO.P,U5,6*
G04 #@! TO.N,/THR*
X126733448Y-76790319D03*
G04 #@! TO.P,U5,7*
G04 #@! TO.N,Net-(R1-Pad1)*
X126733448Y-75520319D03*
G04 #@! TO.P,U5,8*
G04 #@! TO.N,/+12V*
X126733448Y-74250319D03*
G04 #@! TD*
D20*
G04 #@! TO.P,L3,2*
G04 #@! TO.N,/+3.3V*
X108966000Y-60960000D03*
G04 #@! TO.P,L3,1*
G04 #@! TO.N,Net-(D1-Pad1)*
X108966000Y-70660000D03*
G04 #@! TD*
G04 #@! TO.P,L4,1*
G04 #@! TO.N,Net-(D2-Pad1)*
X122174000Y-70660000D03*
G04 #@! TO.P,L4,2*
G04 #@! TO.N,/+5V*
X122174000Y-60960000D03*
G04 #@! TD*
G04 #@! TO.P,L5,2*
G04 #@! TO.N,/+12V*
X135382000Y-60960000D03*
G04 #@! TO.P,L5,1*
G04 #@! TO.N,Net-(D3-Pad1)*
X135382000Y-70660000D03*
G04 #@! TD*
D21*
G04 #@! TO.P,REF\002A\002A,*
G04 #@! TO.N,*
X152400000Y-86360000D03*
G04 #@! TD*
G04 #@! TO.P,REF\002A\002A,*
G04 #@! TO.N,*
X99314000Y-86360000D03*
G04 #@! TD*
G04 #@! TO.P,REF\002A\002A,*
G04 #@! TO.N,*
X87630000Y-50800000D03*
G04 #@! TD*
G04 #@! TO.P,REF\002A\002A,*
G04 #@! TO.N,*
X152400000Y-50800000D03*
G04 #@! TD*
D22*
G04 #@! TO.P,J13,1*
G04 #@! TO.N,/ADC1*
X94234000Y-49530000D03*
D23*
G04 #@! TO.P,J13,2*
G04 #@! TO.N,GND*
X96774000Y-52070000D03*
X96774000Y-46990000D03*
X91694000Y-46990000D03*
X91694000Y-52070000D03*
G04 #@! TD*
G04 #@! TO.P,J14,2*
G04 #@! TO.N,GND*
X100076000Y-52070000D03*
X100076000Y-46990000D03*
X105156000Y-46990000D03*
X105156000Y-52070000D03*
D22*
G04 #@! TO.P,J14,1*
G04 #@! TO.N,/ADC1*
X102616000Y-49530000D03*
G04 #@! TD*
G04 #@! TO.P,J15,1*
G04 #@! TO.N,/ADC2*
X110998000Y-49530000D03*
D23*
G04 #@! TO.P,J15,2*
G04 #@! TO.N,GND*
X113538000Y-52070000D03*
X113538000Y-46990000D03*
X108458000Y-46990000D03*
X108458000Y-52070000D03*
G04 #@! TD*
D10*
G04 #@! TO.N,Net-(R3-Pad1)*
G04 #@! TO.C,R4*
G36*
X95978505Y-54272204D02*
X96002773Y-54275804D01*
X96026572Y-54281765D01*
X96049671Y-54290030D01*
X96071850Y-54300520D01*
X96092893Y-54313132D01*
X96112599Y-54327747D01*
X96130777Y-54344223D01*
X96147253Y-54362401D01*
X96161868Y-54382107D01*
X96174480Y-54403150D01*
X96184970Y-54425329D01*
X96193235Y-54448428D01*
X96199196Y-54472227D01*
X96202796Y-54496495D01*
X96204000Y-54520999D01*
X96204000Y-55171001D01*
X96202796Y-55195505D01*
X96199196Y-55219773D01*
X96193235Y-55243572D01*
X96184970Y-55266671D01*
X96174480Y-55288850D01*
X96161868Y-55309893D01*
X96147253Y-55329599D01*
X96130777Y-55347777D01*
X96112599Y-55364253D01*
X96092893Y-55378868D01*
X96071850Y-55391480D01*
X96049671Y-55401970D01*
X96026572Y-55410235D01*
X96002773Y-55416196D01*
X95978505Y-55419796D01*
X95954001Y-55421000D01*
X95053999Y-55421000D01*
X95029495Y-55419796D01*
X95005227Y-55416196D01*
X94981428Y-55410235D01*
X94958329Y-55401970D01*
X94936150Y-55391480D01*
X94915107Y-55378868D01*
X94895401Y-55364253D01*
X94877223Y-55347777D01*
X94860747Y-55329599D01*
X94846132Y-55309893D01*
X94833520Y-55288850D01*
X94823030Y-55266671D01*
X94814765Y-55243572D01*
X94808804Y-55219773D01*
X94805204Y-55195505D01*
X94804000Y-55171001D01*
X94804000Y-54520999D01*
X94805204Y-54496495D01*
X94808804Y-54472227D01*
X94814765Y-54448428D01*
X94823030Y-54425329D01*
X94833520Y-54403150D01*
X94846132Y-54382107D01*
X94860747Y-54362401D01*
X94877223Y-54344223D01*
X94895401Y-54327747D01*
X94915107Y-54313132D01*
X94936150Y-54300520D01*
X94958329Y-54290030D01*
X94981428Y-54281765D01*
X95005227Y-54275804D01*
X95029495Y-54272204D01*
X95053999Y-54271000D01*
X95954001Y-54271000D01*
X95978505Y-54272204D01*
X95978505Y-54272204D01*
G37*
D11*
G04 #@! TD*
G04 #@! TO.P,R4,2*
G04 #@! TO.N,Net-(R3-Pad1)*
X95504000Y-54846000D03*
D10*
G04 #@! TO.N,Net-(R4-Pad1)*
G04 #@! TO.C,R4*
G36*
X95978505Y-56322204D02*
X96002773Y-56325804D01*
X96026572Y-56331765D01*
X96049671Y-56340030D01*
X96071850Y-56350520D01*
X96092893Y-56363132D01*
X96112599Y-56377747D01*
X96130777Y-56394223D01*
X96147253Y-56412401D01*
X96161868Y-56432107D01*
X96174480Y-56453150D01*
X96184970Y-56475329D01*
X96193235Y-56498428D01*
X96199196Y-56522227D01*
X96202796Y-56546495D01*
X96204000Y-56570999D01*
X96204000Y-57221001D01*
X96202796Y-57245505D01*
X96199196Y-57269773D01*
X96193235Y-57293572D01*
X96184970Y-57316671D01*
X96174480Y-57338850D01*
X96161868Y-57359893D01*
X96147253Y-57379599D01*
X96130777Y-57397777D01*
X96112599Y-57414253D01*
X96092893Y-57428868D01*
X96071850Y-57441480D01*
X96049671Y-57451970D01*
X96026572Y-57460235D01*
X96002773Y-57466196D01*
X95978505Y-57469796D01*
X95954001Y-57471000D01*
X95053999Y-57471000D01*
X95029495Y-57469796D01*
X95005227Y-57466196D01*
X94981428Y-57460235D01*
X94958329Y-57451970D01*
X94936150Y-57441480D01*
X94915107Y-57428868D01*
X94895401Y-57414253D01*
X94877223Y-57397777D01*
X94860747Y-57379599D01*
X94846132Y-57359893D01*
X94833520Y-57338850D01*
X94823030Y-57316671D01*
X94814765Y-57293572D01*
X94808804Y-57269773D01*
X94805204Y-57245505D01*
X94804000Y-57221001D01*
X94804000Y-56570999D01*
X94805204Y-56546495D01*
X94808804Y-56522227D01*
X94814765Y-56498428D01*
X94823030Y-56475329D01*
X94833520Y-56453150D01*
X94846132Y-56432107D01*
X94860747Y-56412401D01*
X94877223Y-56394223D01*
X94895401Y-56377747D01*
X94915107Y-56363132D01*
X94936150Y-56350520D01*
X94958329Y-56340030D01*
X94981428Y-56331765D01*
X95005227Y-56325804D01*
X95029495Y-56322204D01*
X95053999Y-56321000D01*
X95954001Y-56321000D01*
X95978505Y-56322204D01*
X95978505Y-56322204D01*
G37*
D11*
G04 #@! TD*
G04 #@! TO.P,R4,1*
G04 #@! TO.N,Net-(R4-Pad1)*
X95504000Y-56896000D03*
D10*
G04 #@! TO.N,Net-(R4-Pad1)*
G04 #@! TO.C,R5*
G36*
X95581505Y-63563204D02*
X95605773Y-63566804D01*
X95629572Y-63572765D01*
X95652671Y-63581030D01*
X95674850Y-63591520D01*
X95695893Y-63604132D01*
X95715599Y-63618747D01*
X95733777Y-63635223D01*
X95750253Y-63653401D01*
X95764868Y-63673107D01*
X95777480Y-63694150D01*
X95787970Y-63716329D01*
X95796235Y-63739428D01*
X95802196Y-63763227D01*
X95805796Y-63787495D01*
X95807000Y-63811999D01*
X95807000Y-64712001D01*
X95805796Y-64736505D01*
X95802196Y-64760773D01*
X95796235Y-64784572D01*
X95787970Y-64807671D01*
X95777480Y-64829850D01*
X95764868Y-64850893D01*
X95750253Y-64870599D01*
X95733777Y-64888777D01*
X95715599Y-64905253D01*
X95695893Y-64919868D01*
X95674850Y-64932480D01*
X95652671Y-64942970D01*
X95629572Y-64951235D01*
X95605773Y-64957196D01*
X95581505Y-64960796D01*
X95557001Y-64962000D01*
X94906999Y-64962000D01*
X94882495Y-64960796D01*
X94858227Y-64957196D01*
X94834428Y-64951235D01*
X94811329Y-64942970D01*
X94789150Y-64932480D01*
X94768107Y-64919868D01*
X94748401Y-64905253D01*
X94730223Y-64888777D01*
X94713747Y-64870599D01*
X94699132Y-64850893D01*
X94686520Y-64829850D01*
X94676030Y-64807671D01*
X94667765Y-64784572D01*
X94661804Y-64760773D01*
X94658204Y-64736505D01*
X94657000Y-64712001D01*
X94657000Y-63811999D01*
X94658204Y-63787495D01*
X94661804Y-63763227D01*
X94667765Y-63739428D01*
X94676030Y-63716329D01*
X94686520Y-63694150D01*
X94699132Y-63673107D01*
X94713747Y-63653401D01*
X94730223Y-63635223D01*
X94748401Y-63618747D01*
X94768107Y-63604132D01*
X94789150Y-63591520D01*
X94811329Y-63581030D01*
X94834428Y-63572765D01*
X94858227Y-63566804D01*
X94882495Y-63563204D01*
X94906999Y-63562000D01*
X95557001Y-63562000D01*
X95581505Y-63563204D01*
X95581505Y-63563204D01*
G37*
D11*
G04 #@! TD*
G04 #@! TO.P,R5,2*
G04 #@! TO.N,Net-(R4-Pad1)*
X95232000Y-64262000D03*
D10*
G04 #@! TO.N,Net-(R5-Pad1)*
G04 #@! TO.C,R5*
G36*
X97631505Y-63563204D02*
X97655773Y-63566804D01*
X97679572Y-63572765D01*
X97702671Y-63581030D01*
X97724850Y-63591520D01*
X97745893Y-63604132D01*
X97765599Y-63618747D01*
X97783777Y-63635223D01*
X97800253Y-63653401D01*
X97814868Y-63673107D01*
X97827480Y-63694150D01*
X97837970Y-63716329D01*
X97846235Y-63739428D01*
X97852196Y-63763227D01*
X97855796Y-63787495D01*
X97857000Y-63811999D01*
X97857000Y-64712001D01*
X97855796Y-64736505D01*
X97852196Y-64760773D01*
X97846235Y-64784572D01*
X97837970Y-64807671D01*
X97827480Y-64829850D01*
X97814868Y-64850893D01*
X97800253Y-64870599D01*
X97783777Y-64888777D01*
X97765599Y-64905253D01*
X97745893Y-64919868D01*
X97724850Y-64932480D01*
X97702671Y-64942970D01*
X97679572Y-64951235D01*
X97655773Y-64957196D01*
X97631505Y-64960796D01*
X97607001Y-64962000D01*
X96956999Y-64962000D01*
X96932495Y-64960796D01*
X96908227Y-64957196D01*
X96884428Y-64951235D01*
X96861329Y-64942970D01*
X96839150Y-64932480D01*
X96818107Y-64919868D01*
X96798401Y-64905253D01*
X96780223Y-64888777D01*
X96763747Y-64870599D01*
X96749132Y-64850893D01*
X96736520Y-64829850D01*
X96726030Y-64807671D01*
X96717765Y-64784572D01*
X96711804Y-64760773D01*
X96708204Y-64736505D01*
X96707000Y-64712001D01*
X96707000Y-63811999D01*
X96708204Y-63787495D01*
X96711804Y-63763227D01*
X96717765Y-63739428D01*
X96726030Y-63716329D01*
X96736520Y-63694150D01*
X96749132Y-63673107D01*
X96763747Y-63653401D01*
X96780223Y-63635223D01*
X96798401Y-63618747D01*
X96818107Y-63604132D01*
X96839150Y-63591520D01*
X96861329Y-63581030D01*
X96884428Y-63572765D01*
X96908227Y-63566804D01*
X96932495Y-63563204D01*
X96956999Y-63562000D01*
X97607001Y-63562000D01*
X97631505Y-63563204D01*
X97631505Y-63563204D01*
G37*
D11*
G04 #@! TD*
G04 #@! TO.P,R5,1*
G04 #@! TO.N,Net-(R5-Pad1)*
X97282000Y-64262000D03*
D10*
G04 #@! TO.N,/ADC2*
G04 #@! TO.C,R6*
G36*
X102221505Y-55435204D02*
X102245773Y-55438804D01*
X102269572Y-55444765D01*
X102292671Y-55453030D01*
X102314850Y-55463520D01*
X102335893Y-55476132D01*
X102355599Y-55490747D01*
X102373777Y-55507223D01*
X102390253Y-55525401D01*
X102404868Y-55545107D01*
X102417480Y-55566150D01*
X102427970Y-55588329D01*
X102436235Y-55611428D01*
X102442196Y-55635227D01*
X102445796Y-55659495D01*
X102447000Y-55683999D01*
X102447000Y-56584001D01*
X102445796Y-56608505D01*
X102442196Y-56632773D01*
X102436235Y-56656572D01*
X102427970Y-56679671D01*
X102417480Y-56701850D01*
X102404868Y-56722893D01*
X102390253Y-56742599D01*
X102373777Y-56760777D01*
X102355599Y-56777253D01*
X102335893Y-56791868D01*
X102314850Y-56804480D01*
X102292671Y-56814970D01*
X102269572Y-56823235D01*
X102245773Y-56829196D01*
X102221505Y-56832796D01*
X102197001Y-56834000D01*
X101546999Y-56834000D01*
X101522495Y-56832796D01*
X101498227Y-56829196D01*
X101474428Y-56823235D01*
X101451329Y-56814970D01*
X101429150Y-56804480D01*
X101408107Y-56791868D01*
X101388401Y-56777253D01*
X101370223Y-56760777D01*
X101353747Y-56742599D01*
X101339132Y-56722893D01*
X101326520Y-56701850D01*
X101316030Y-56679671D01*
X101307765Y-56656572D01*
X101301804Y-56632773D01*
X101298204Y-56608505D01*
X101297000Y-56584001D01*
X101297000Y-55683999D01*
X101298204Y-55659495D01*
X101301804Y-55635227D01*
X101307765Y-55611428D01*
X101316030Y-55588329D01*
X101326520Y-55566150D01*
X101339132Y-55545107D01*
X101353747Y-55525401D01*
X101370223Y-55507223D01*
X101388401Y-55490747D01*
X101408107Y-55476132D01*
X101429150Y-55463520D01*
X101451329Y-55453030D01*
X101474428Y-55444765D01*
X101498227Y-55438804D01*
X101522495Y-55435204D01*
X101546999Y-55434000D01*
X102197001Y-55434000D01*
X102221505Y-55435204D01*
X102221505Y-55435204D01*
G37*
D11*
G04 #@! TD*
G04 #@! TO.P,R6,1*
G04 #@! TO.N,/ADC2*
X101872000Y-56134000D03*
D10*
G04 #@! TO.N,Net-(R5-Pad1)*
G04 #@! TO.C,R6*
G36*
X100171505Y-55435204D02*
X100195773Y-55438804D01*
X100219572Y-55444765D01*
X100242671Y-55453030D01*
X100264850Y-55463520D01*
X100285893Y-55476132D01*
X100305599Y-55490747D01*
X100323777Y-55507223D01*
X100340253Y-55525401D01*
X100354868Y-55545107D01*
X100367480Y-55566150D01*
X100377970Y-55588329D01*
X100386235Y-55611428D01*
X100392196Y-55635227D01*
X100395796Y-55659495D01*
X100397000Y-55683999D01*
X100397000Y-56584001D01*
X100395796Y-56608505D01*
X100392196Y-56632773D01*
X100386235Y-56656572D01*
X100377970Y-56679671D01*
X100367480Y-56701850D01*
X100354868Y-56722893D01*
X100340253Y-56742599D01*
X100323777Y-56760777D01*
X100305599Y-56777253D01*
X100285893Y-56791868D01*
X100264850Y-56804480D01*
X100242671Y-56814970D01*
X100219572Y-56823235D01*
X100195773Y-56829196D01*
X100171505Y-56832796D01*
X100147001Y-56834000D01*
X99496999Y-56834000D01*
X99472495Y-56832796D01*
X99448227Y-56829196D01*
X99424428Y-56823235D01*
X99401329Y-56814970D01*
X99379150Y-56804480D01*
X99358107Y-56791868D01*
X99338401Y-56777253D01*
X99320223Y-56760777D01*
X99303747Y-56742599D01*
X99289132Y-56722893D01*
X99276520Y-56701850D01*
X99266030Y-56679671D01*
X99257765Y-56656572D01*
X99251804Y-56632773D01*
X99248204Y-56608505D01*
X99247000Y-56584001D01*
X99247000Y-55683999D01*
X99248204Y-55659495D01*
X99251804Y-55635227D01*
X99257765Y-55611428D01*
X99266030Y-55588329D01*
X99276520Y-55566150D01*
X99289132Y-55545107D01*
X99303747Y-55525401D01*
X99320223Y-55507223D01*
X99338401Y-55490747D01*
X99358107Y-55476132D01*
X99379150Y-55463520D01*
X99401329Y-55453030D01*
X99424428Y-55444765D01*
X99448227Y-55438804D01*
X99472495Y-55435204D01*
X99496999Y-55434000D01*
X100147001Y-55434000D01*
X100171505Y-55435204D01*
X100171505Y-55435204D01*
G37*
D11*
G04 #@! TD*
G04 #@! TO.P,R6,2*
G04 #@! TO.N,Net-(R5-Pad1)*
X99822000Y-56134000D03*
D19*
G04 #@! TO.P,U6,8*
G04 #@! TO.N,Net-(U6-Pad8)*
X87884000Y-58674000D03*
G04 #@! TO.P,U6,7*
G04 #@! TO.N,/+3.3V*
X87884000Y-59944000D03*
G04 #@! TO.P,U6,6*
G04 #@! TO.N,Net-(R4-Pad1)*
X87884000Y-61214000D03*
G04 #@! TO.P,U6,5*
G04 #@! TO.N,Net-(U6-Pad5)*
X87884000Y-62484000D03*
G04 #@! TO.P,U6,4*
G04 #@! TO.N,/-3.3V*
X93284000Y-62484000D03*
G04 #@! TO.P,U6,3*
G04 #@! TO.N,GND*
X93284000Y-61214000D03*
G04 #@! TO.P,U6,2*
G04 #@! TO.N,Net-(R3-Pad1)*
X93284000Y-59944000D03*
G04 #@! TO.P,U6,1*
G04 #@! TO.N,Net-(U6-Pad1)*
X93284000Y-58674000D03*
G04 #@! TD*
G04 #@! TO.P,U7,1*
G04 #@! TO.N,Net-(U7-Pad1)*
X101346000Y-58674000D03*
G04 #@! TO.P,U7,2*
G04 #@! TO.N,Net-(R5-Pad1)*
X101346000Y-59944000D03*
G04 #@! TO.P,U7,3*
G04 #@! TO.N,GND*
X101346000Y-61214000D03*
G04 #@! TO.P,U7,4*
G04 #@! TO.N,/-3.3V*
X101346000Y-62484000D03*
G04 #@! TO.P,U7,5*
G04 #@! TO.N,Net-(U7-Pad5)*
X95946000Y-62484000D03*
G04 #@! TO.P,U7,6*
G04 #@! TO.N,/ADC2*
X95946000Y-61214000D03*
G04 #@! TO.P,U7,7*
G04 #@! TO.N,/+3.3V*
X95946000Y-59944000D03*
G04 #@! TO.P,U7,8*
G04 #@! TO.N,Net-(U7-Pad8)*
X95946000Y-58674000D03*
G04 #@! TD*
D24*
G04 #@! TO.P,R3,1*
G04 #@! TO.N,Net-(R3-Pad1)*
X91300000Y-54950000D03*
D25*
G04 #@! TO.P,R3,2*
G04 #@! TO.N,/ADC1*
X86220000Y-54950000D03*
G04 #@! TD*
D10*
G04 #@! TO.N,/-3.3V*
G04 #@! TO.C,C11*
G36*
X92315505Y-64325204D02*
X92339773Y-64328804D01*
X92363572Y-64334765D01*
X92386671Y-64343030D01*
X92408850Y-64353520D01*
X92429893Y-64366132D01*
X92449599Y-64380747D01*
X92467777Y-64397223D01*
X92484253Y-64415401D01*
X92498868Y-64435107D01*
X92511480Y-64456150D01*
X92521970Y-64478329D01*
X92530235Y-64501428D01*
X92536196Y-64525227D01*
X92539796Y-64549495D01*
X92541000Y-64573999D01*
X92541000Y-65474001D01*
X92539796Y-65498505D01*
X92536196Y-65522773D01*
X92530235Y-65546572D01*
X92521970Y-65569671D01*
X92511480Y-65591850D01*
X92498868Y-65612893D01*
X92484253Y-65632599D01*
X92467777Y-65650777D01*
X92449599Y-65667253D01*
X92429893Y-65681868D01*
X92408850Y-65694480D01*
X92386671Y-65704970D01*
X92363572Y-65713235D01*
X92339773Y-65719196D01*
X92315505Y-65722796D01*
X92291001Y-65724000D01*
X91640999Y-65724000D01*
X91616495Y-65722796D01*
X91592227Y-65719196D01*
X91568428Y-65713235D01*
X91545329Y-65704970D01*
X91523150Y-65694480D01*
X91502107Y-65681868D01*
X91482401Y-65667253D01*
X91464223Y-65650777D01*
X91447747Y-65632599D01*
X91433132Y-65612893D01*
X91420520Y-65591850D01*
X91410030Y-65569671D01*
X91401765Y-65546572D01*
X91395804Y-65522773D01*
X91392204Y-65498505D01*
X91391000Y-65474001D01*
X91391000Y-64573999D01*
X91392204Y-64549495D01*
X91395804Y-64525227D01*
X91401765Y-64501428D01*
X91410030Y-64478329D01*
X91420520Y-64456150D01*
X91433132Y-64435107D01*
X91447747Y-64415401D01*
X91464223Y-64397223D01*
X91482401Y-64380747D01*
X91502107Y-64366132D01*
X91523150Y-64353520D01*
X91545329Y-64343030D01*
X91568428Y-64334765D01*
X91592227Y-64328804D01*
X91616495Y-64325204D01*
X91640999Y-64324000D01*
X92291001Y-64324000D01*
X92315505Y-64325204D01*
X92315505Y-64325204D01*
G37*
D11*
G04 #@! TD*
G04 #@! TO.P,C11,2*
G04 #@! TO.N,/-3.3V*
X91966000Y-65024000D03*
D10*
G04 #@! TO.N,GND*
G04 #@! TO.C,C11*
G36*
X90265505Y-64325204D02*
X90289773Y-64328804D01*
X90313572Y-64334765D01*
X90336671Y-64343030D01*
X90358850Y-64353520D01*
X90379893Y-64366132D01*
X90399599Y-64380747D01*
X90417777Y-64397223D01*
X90434253Y-64415401D01*
X90448868Y-64435107D01*
X90461480Y-64456150D01*
X90471970Y-64478329D01*
X90480235Y-64501428D01*
X90486196Y-64525227D01*
X90489796Y-64549495D01*
X90491000Y-64573999D01*
X90491000Y-65474001D01*
X90489796Y-65498505D01*
X90486196Y-65522773D01*
X90480235Y-65546572D01*
X90471970Y-65569671D01*
X90461480Y-65591850D01*
X90448868Y-65612893D01*
X90434253Y-65632599D01*
X90417777Y-65650777D01*
X90399599Y-65667253D01*
X90379893Y-65681868D01*
X90358850Y-65694480D01*
X90336671Y-65704970D01*
X90313572Y-65713235D01*
X90289773Y-65719196D01*
X90265505Y-65722796D01*
X90241001Y-65724000D01*
X89590999Y-65724000D01*
X89566495Y-65722796D01*
X89542227Y-65719196D01*
X89518428Y-65713235D01*
X89495329Y-65704970D01*
X89473150Y-65694480D01*
X89452107Y-65681868D01*
X89432401Y-65667253D01*
X89414223Y-65650777D01*
X89397747Y-65632599D01*
X89383132Y-65612893D01*
X89370520Y-65591850D01*
X89360030Y-65569671D01*
X89351765Y-65546572D01*
X89345804Y-65522773D01*
X89342204Y-65498505D01*
X89341000Y-65474001D01*
X89341000Y-64573999D01*
X89342204Y-64549495D01*
X89345804Y-64525227D01*
X89351765Y-64501428D01*
X89360030Y-64478329D01*
X89370520Y-64456150D01*
X89383132Y-64435107D01*
X89397747Y-64415401D01*
X89414223Y-64397223D01*
X89432401Y-64380747D01*
X89452107Y-64366132D01*
X89473150Y-64353520D01*
X89495329Y-64343030D01*
X89518428Y-64334765D01*
X89542227Y-64328804D01*
X89566495Y-64325204D01*
X89590999Y-64324000D01*
X90241001Y-64324000D01*
X90265505Y-64325204D01*
X90265505Y-64325204D01*
G37*
D11*
G04 #@! TD*
G04 #@! TO.P,C11,1*
G04 #@! TO.N,GND*
X89916000Y-65024000D03*
D10*
G04 #@! TO.N,/+3.3V*
G04 #@! TO.C,C12*
G36*
X101566505Y-64958204D02*
X101590773Y-64961804D01*
X101614572Y-64967765D01*
X101637671Y-64976030D01*
X101659850Y-64986520D01*
X101680893Y-64999132D01*
X101700599Y-65013747D01*
X101718777Y-65030223D01*
X101735253Y-65048401D01*
X101749868Y-65068107D01*
X101762480Y-65089150D01*
X101772970Y-65111329D01*
X101781235Y-65134428D01*
X101787196Y-65158227D01*
X101790796Y-65182495D01*
X101792000Y-65206999D01*
X101792000Y-65857001D01*
X101790796Y-65881505D01*
X101787196Y-65905773D01*
X101781235Y-65929572D01*
X101772970Y-65952671D01*
X101762480Y-65974850D01*
X101749868Y-65995893D01*
X101735253Y-66015599D01*
X101718777Y-66033777D01*
X101700599Y-66050253D01*
X101680893Y-66064868D01*
X101659850Y-66077480D01*
X101637671Y-66087970D01*
X101614572Y-66096235D01*
X101590773Y-66102196D01*
X101566505Y-66105796D01*
X101542001Y-66107000D01*
X100641999Y-66107000D01*
X100617495Y-66105796D01*
X100593227Y-66102196D01*
X100569428Y-66096235D01*
X100546329Y-66087970D01*
X100524150Y-66077480D01*
X100503107Y-66064868D01*
X100483401Y-66050253D01*
X100465223Y-66033777D01*
X100448747Y-66015599D01*
X100434132Y-65995893D01*
X100421520Y-65974850D01*
X100411030Y-65952671D01*
X100402765Y-65929572D01*
X100396804Y-65905773D01*
X100393204Y-65881505D01*
X100392000Y-65857001D01*
X100392000Y-65206999D01*
X100393204Y-65182495D01*
X100396804Y-65158227D01*
X100402765Y-65134428D01*
X100411030Y-65111329D01*
X100421520Y-65089150D01*
X100434132Y-65068107D01*
X100448747Y-65048401D01*
X100465223Y-65030223D01*
X100483401Y-65013747D01*
X100503107Y-64999132D01*
X100524150Y-64986520D01*
X100546329Y-64976030D01*
X100569428Y-64967765D01*
X100593227Y-64961804D01*
X100617495Y-64958204D01*
X100641999Y-64957000D01*
X101542001Y-64957000D01*
X101566505Y-64958204D01*
X101566505Y-64958204D01*
G37*
D11*
G04 #@! TD*
G04 #@! TO.P,C12,1*
G04 #@! TO.N,/+3.3V*
X101092000Y-65532000D03*
D10*
G04 #@! TO.N,GND*
G04 #@! TO.C,C12*
G36*
X101566505Y-67008204D02*
X101590773Y-67011804D01*
X101614572Y-67017765D01*
X101637671Y-67026030D01*
X101659850Y-67036520D01*
X101680893Y-67049132D01*
X101700599Y-67063747D01*
X101718777Y-67080223D01*
X101735253Y-67098401D01*
X101749868Y-67118107D01*
X101762480Y-67139150D01*
X101772970Y-67161329D01*
X101781235Y-67184428D01*
X101787196Y-67208227D01*
X101790796Y-67232495D01*
X101792000Y-67256999D01*
X101792000Y-67907001D01*
X101790796Y-67931505D01*
X101787196Y-67955773D01*
X101781235Y-67979572D01*
X101772970Y-68002671D01*
X101762480Y-68024850D01*
X101749868Y-68045893D01*
X101735253Y-68065599D01*
X101718777Y-68083777D01*
X101700599Y-68100253D01*
X101680893Y-68114868D01*
X101659850Y-68127480D01*
X101637671Y-68137970D01*
X101614572Y-68146235D01*
X101590773Y-68152196D01*
X101566505Y-68155796D01*
X101542001Y-68157000D01*
X100641999Y-68157000D01*
X100617495Y-68155796D01*
X100593227Y-68152196D01*
X100569428Y-68146235D01*
X100546329Y-68137970D01*
X100524150Y-68127480D01*
X100503107Y-68114868D01*
X100483401Y-68100253D01*
X100465223Y-68083777D01*
X100448747Y-68065599D01*
X100434132Y-68045893D01*
X100421520Y-68024850D01*
X100411030Y-68002671D01*
X100402765Y-67979572D01*
X100396804Y-67955773D01*
X100393204Y-67931505D01*
X100392000Y-67907001D01*
X100392000Y-67256999D01*
X100393204Y-67232495D01*
X100396804Y-67208227D01*
X100402765Y-67184428D01*
X100411030Y-67161329D01*
X100421520Y-67139150D01*
X100434132Y-67118107D01*
X100448747Y-67098401D01*
X100465223Y-67080223D01*
X100483401Y-67063747D01*
X100503107Y-67049132D01*
X100524150Y-67036520D01*
X100546329Y-67026030D01*
X100569428Y-67017765D01*
X100593227Y-67011804D01*
X100617495Y-67008204D01*
X100641999Y-67007000D01*
X101542001Y-67007000D01*
X101566505Y-67008204D01*
X101566505Y-67008204D01*
G37*
D11*
G04 #@! TD*
G04 #@! TO.P,C12,2*
G04 #@! TO.N,GND*
X101092000Y-67582000D03*
D10*
G04 #@! TO.N,Net-(C13-Pad1)*
G04 #@! TO.C,C13*
G36*
X97359505Y-70929204D02*
X97383773Y-70932804D01*
X97407572Y-70938765D01*
X97430671Y-70947030D01*
X97452850Y-70957520D01*
X97473893Y-70970132D01*
X97493599Y-70984747D01*
X97511777Y-71001223D01*
X97528253Y-71019401D01*
X97542868Y-71039107D01*
X97555480Y-71060150D01*
X97565970Y-71082329D01*
X97574235Y-71105428D01*
X97580196Y-71129227D01*
X97583796Y-71153495D01*
X97585000Y-71177999D01*
X97585000Y-72078001D01*
X97583796Y-72102505D01*
X97580196Y-72126773D01*
X97574235Y-72150572D01*
X97565970Y-72173671D01*
X97555480Y-72195850D01*
X97542868Y-72216893D01*
X97528253Y-72236599D01*
X97511777Y-72254777D01*
X97493599Y-72271253D01*
X97473893Y-72285868D01*
X97452850Y-72298480D01*
X97430671Y-72308970D01*
X97407572Y-72317235D01*
X97383773Y-72323196D01*
X97359505Y-72326796D01*
X97335001Y-72328000D01*
X96684999Y-72328000D01*
X96660495Y-72326796D01*
X96636227Y-72323196D01*
X96612428Y-72317235D01*
X96589329Y-72308970D01*
X96567150Y-72298480D01*
X96546107Y-72285868D01*
X96526401Y-72271253D01*
X96508223Y-72254777D01*
X96491747Y-72236599D01*
X96477132Y-72216893D01*
X96464520Y-72195850D01*
X96454030Y-72173671D01*
X96445765Y-72150572D01*
X96439804Y-72126773D01*
X96436204Y-72102505D01*
X96435000Y-72078001D01*
X96435000Y-71177999D01*
X96436204Y-71153495D01*
X96439804Y-71129227D01*
X96445765Y-71105428D01*
X96454030Y-71082329D01*
X96464520Y-71060150D01*
X96477132Y-71039107D01*
X96491747Y-71019401D01*
X96508223Y-71001223D01*
X96526401Y-70984747D01*
X96546107Y-70970132D01*
X96567150Y-70957520D01*
X96589329Y-70947030D01*
X96612428Y-70938765D01*
X96636227Y-70932804D01*
X96660495Y-70929204D01*
X96684999Y-70928000D01*
X97335001Y-70928000D01*
X97359505Y-70929204D01*
X97359505Y-70929204D01*
G37*
D11*
G04 #@! TD*
G04 #@! TO.P,C13,1*
G04 #@! TO.N,Net-(C13-Pad1)*
X97010000Y-71628000D03*
D10*
G04 #@! TO.N,Net-(C13-Pad2)*
G04 #@! TO.C,C13*
G36*
X99409505Y-70929204D02*
X99433773Y-70932804D01*
X99457572Y-70938765D01*
X99480671Y-70947030D01*
X99502850Y-70957520D01*
X99523893Y-70970132D01*
X99543599Y-70984747D01*
X99561777Y-71001223D01*
X99578253Y-71019401D01*
X99592868Y-71039107D01*
X99605480Y-71060150D01*
X99615970Y-71082329D01*
X99624235Y-71105428D01*
X99630196Y-71129227D01*
X99633796Y-71153495D01*
X99635000Y-71177999D01*
X99635000Y-72078001D01*
X99633796Y-72102505D01*
X99630196Y-72126773D01*
X99624235Y-72150572D01*
X99615970Y-72173671D01*
X99605480Y-72195850D01*
X99592868Y-72216893D01*
X99578253Y-72236599D01*
X99561777Y-72254777D01*
X99543599Y-72271253D01*
X99523893Y-72285868D01*
X99502850Y-72298480D01*
X99480671Y-72308970D01*
X99457572Y-72317235D01*
X99433773Y-72323196D01*
X99409505Y-72326796D01*
X99385001Y-72328000D01*
X98734999Y-72328000D01*
X98710495Y-72326796D01*
X98686227Y-72323196D01*
X98662428Y-72317235D01*
X98639329Y-72308970D01*
X98617150Y-72298480D01*
X98596107Y-72285868D01*
X98576401Y-72271253D01*
X98558223Y-72254777D01*
X98541747Y-72236599D01*
X98527132Y-72216893D01*
X98514520Y-72195850D01*
X98504030Y-72173671D01*
X98495765Y-72150572D01*
X98489804Y-72126773D01*
X98486204Y-72102505D01*
X98485000Y-72078001D01*
X98485000Y-71177999D01*
X98486204Y-71153495D01*
X98489804Y-71129227D01*
X98495765Y-71105428D01*
X98504030Y-71082329D01*
X98514520Y-71060150D01*
X98527132Y-71039107D01*
X98541747Y-71019401D01*
X98558223Y-71001223D01*
X98576401Y-70984747D01*
X98596107Y-70970132D01*
X98617150Y-70957520D01*
X98639329Y-70947030D01*
X98662428Y-70938765D01*
X98686227Y-70932804D01*
X98710495Y-70929204D01*
X98734999Y-70928000D01*
X99385001Y-70928000D01*
X99409505Y-70929204D01*
X99409505Y-70929204D01*
G37*
D11*
G04 #@! TD*
G04 #@! TO.P,C13,2*
G04 #@! TO.N,Net-(C13-Pad2)*
X99060000Y-71628000D03*
D26*
G04 #@! TO.P,U8,1*
G04 #@! TO.N,/-3.3V*
X97159998Y-67106800D03*
G04 #@! TO.P,U8,2*
G04 #@! TO.N,/+3.3V*
X98109999Y-67106800D03*
G04 #@! TO.P,U8,3*
G04 #@! TO.N,Net-(C13-Pad2)*
X99060000Y-67106800D03*
G04 #@! TO.P,U8,4*
G04 #@! TO.N,GND*
X99060000Y-69342000D03*
G04 #@! TO.P,U8,5*
G04 #@! TO.N,Net-(C13-Pad1)*
X97159998Y-69342000D03*
G04 #@! TD*
D27*
G04 #@! TO.N,GND*
X101092000Y-69850000D03*
G04 #@! TO.N,/POWR*
X115316000Y-66040000D03*
X115316000Y-66040000D03*
X128524000Y-66040000D03*
X141732000Y-66040000D03*
G04 #@! TO.N,/+3.3V*
X105410000Y-60960000D03*
X97790000Y-59944000D03*
X90424000Y-57150000D03*
X99822000Y-65532000D03*
G04 #@! TO.N,/+5V*
X120142000Y-63246000D03*
G04 #@! TO.N,/+12V*
X134112000Y-63246000D03*
X128524000Y-74168000D03*
X128778000Y-77470000D03*
G04 #@! TO.N,Net-(D1-Pad1)*
X112522000Y-70104000D03*
G04 #@! TO.N,Net-(D2-Pad1)*
X125476000Y-70104000D03*
G04 #@! TO.N,Net-(D3-Pad1)*
X139954000Y-69342000D03*
G04 #@! TO.N,Net-(R4-Pad1)*
X85852000Y-56642000D03*
X92964000Y-56642000D03*
G04 #@! TD*
D28*
G04 #@! TO.N,/-15V*
X125605000Y-82296000D02*
X127490000Y-82296000D01*
X132588000Y-84836000D02*
X132588000Y-86868000D01*
X128722000Y-84328000D02*
X132080000Y-84328000D01*
X127490000Y-82296000D02*
X127490000Y-83096000D01*
X132080000Y-84328000D02*
X132588000Y-84836000D01*
X127490000Y-83096000D02*
X128722000Y-84328000D01*
G04 #@! TO.N,/+15V*
X121911000Y-89916000D02*
X121920000Y-89925000D01*
X117856000Y-89916000D02*
X121911000Y-89916000D01*
X129023000Y-89925000D02*
X121920000Y-89925000D01*
X130048000Y-86868000D02*
X130048000Y-88900000D01*
X130048000Y-88900000D02*
X129023000Y-89925000D01*
G04 #@! TO.N,/POWR*
X115316000Y-66040000D02*
X128524000Y-66040000D01*
X128524000Y-66040000D02*
X141732000Y-66040000D01*
X114750315Y-66040000D02*
X115316000Y-66040000D01*
X108850998Y-66040000D02*
X114750315Y-66040000D01*
X101092000Y-73798998D02*
X108850998Y-66040000D01*
X101092000Y-76708000D02*
X101092000Y-73798998D01*
G04 #@! TO.N,/+3.3V*
X105410000Y-60960000D02*
X108966000Y-60960000D01*
X97790000Y-59944000D02*
X95946000Y-59944000D01*
X88359000Y-59944000D02*
X87884000Y-59944000D01*
X90424000Y-57879000D02*
X88359000Y-59944000D01*
X90424000Y-57150000D02*
X90424000Y-57879000D01*
X98109999Y-66120200D02*
X98109999Y-67106800D01*
X98698199Y-65532000D02*
X98109999Y-66120200D01*
X101092000Y-65532000D02*
X99822000Y-65532000D01*
X99822000Y-65532000D02*
X98698199Y-65532000D01*
G04 #@! TO.N,/+5V*
X121588000Y-63246000D02*
X120142000Y-63246000D01*
X122174000Y-60960000D02*
X122174000Y-62660000D01*
X122174000Y-62660000D02*
X121588000Y-63246000D01*
X125124000Y-60960000D02*
X128172000Y-57912000D01*
X122174000Y-60960000D02*
X125124000Y-60960000D01*
X128172000Y-57912000D02*
X141732000Y-57912000D01*
X141732000Y-57912000D02*
X149352000Y-65532000D01*
X153924000Y-79526000D02*
X153924000Y-79756000D01*
X149352000Y-74954000D02*
X153924000Y-79526000D01*
X149352000Y-65532000D02*
X149352000Y-74954000D01*
G04 #@! TO.N,/+12V*
X118399448Y-74203448D02*
X118399448Y-75266319D01*
X125668129Y-73660000D02*
X118872000Y-73660000D01*
X126733448Y-74250319D02*
X126258448Y-74250319D01*
X126258448Y-74250319D02*
X125668129Y-73660000D01*
X118872000Y-73660000D02*
X118364000Y-74168000D01*
X135382000Y-61976000D02*
X135382000Y-60960000D01*
X134112000Y-63246000D02*
X135382000Y-61976000D01*
X132133448Y-78060319D02*
X131108448Y-78060319D01*
X126815767Y-74168000D02*
X126733448Y-74250319D01*
X128524000Y-74168000D02*
X126815767Y-74168000D01*
X129368319Y-78060319D02*
X132133448Y-78060319D01*
X128778000Y-77470000D02*
X129368319Y-78060319D01*
G04 #@! TO.N,Net-(C9-Pad1)*
X125656681Y-78060319D02*
X124469000Y-79248000D01*
X126733448Y-78060319D02*
X125656681Y-78060319D01*
G04 #@! TO.N,/THR*
X124005448Y-76790319D02*
X123497448Y-77298319D01*
X126733448Y-76790319D02*
X124005448Y-76790319D01*
X120478319Y-77298319D02*
X120396000Y-77216000D01*
X123497448Y-77298319D02*
X120478319Y-77298319D01*
X129028448Y-75520319D02*
X131108448Y-75520319D01*
X127758448Y-76790319D02*
X129028448Y-75520319D01*
X131108448Y-75520319D02*
X132133448Y-75520319D01*
X126733448Y-76790319D02*
X127758448Y-76790319D01*
G04 #@! TO.N,Net-(D1-Pad1)*
X109522000Y-70104000D02*
X108966000Y-70660000D01*
X112522000Y-70104000D02*
X109522000Y-70104000D01*
G04 #@! TO.N,Net-(D2-Pad1)*
X122730000Y-70104000D02*
X122174000Y-70660000D01*
X125476000Y-70104000D02*
X122730000Y-70104000D01*
G04 #@! TO.N,Net-(D3-Pad1)*
X136700000Y-69342000D02*
X135382000Y-70660000D01*
X139954000Y-69342000D02*
X136700000Y-69342000D01*
G04 #@! TO.N,/FAA_GND*
X147320000Y-78232000D02*
X147320000Y-79756000D01*
X138937000Y-77216000D02*
X146304000Y-77216000D01*
X146304000Y-77216000D02*
X147320000Y-78232000D01*
X137160000Y-78418000D02*
X137735000Y-78418000D01*
X137735000Y-78418000D02*
X138937000Y-77216000D01*
G04 #@! TO.N,Net-(JP1-Pad1)*
X120396000Y-85344000D02*
X120396000Y-82946000D01*
G04 #@! TO.N,Net-(L1-Pad1)*
X122936000Y-82675000D02*
X123315000Y-82296000D01*
X122936000Y-85344000D02*
X122936000Y-82675000D01*
G04 #@! TO.N,Net-(L2-Pad1)*
X117856000Y-85344000D02*
X117856000Y-87626000D01*
G04 #@! TO.N,/FAA_SIG*
X136210000Y-75673000D02*
X136210000Y-74998000D01*
X135092681Y-76790319D02*
X136210000Y-75673000D01*
X132133448Y-76790319D02*
X135092681Y-76790319D01*
G04 #@! TO.N,Net-(R1-Pad1)*
X123479448Y-75266319D02*
X123497448Y-75248319D01*
X120449448Y-75266319D02*
X123479448Y-75266319D01*
X123769448Y-75520319D02*
X123497448Y-75248319D01*
X126733448Y-75520319D02*
X123769448Y-75520319D01*
G04 #@! TO.N,/ADC2*
X103396000Y-54610000D02*
X101872000Y-56134000D01*
X109474000Y-54610000D02*
X103396000Y-54610000D01*
X110998000Y-49530000D02*
X110998000Y-53086000D01*
X110998000Y-53086000D02*
X109474000Y-54610000D01*
X100094000Y-54356000D02*
X101872000Y-56134000D01*
X98552000Y-54356000D02*
X100094000Y-54356000D01*
X98044000Y-61214000D02*
X98806000Y-60452000D01*
X98298000Y-54610000D02*
X98552000Y-54356000D01*
X95946000Y-61214000D02*
X98044000Y-61214000D01*
X98806000Y-60452000D02*
X98806000Y-59690000D01*
X98806000Y-59690000D02*
X98298000Y-59182000D01*
X98298000Y-59182000D02*
X98298000Y-54610000D01*
G04 #@! TO.N,Net-(R3-Pad1)*
X94880628Y-55469372D02*
X94136628Y-55469372D01*
X95504000Y-54846000D02*
X94880628Y-55469372D01*
X91694000Y-59944000D02*
X93284000Y-59944000D01*
X91300000Y-59550000D02*
X91694000Y-59944000D01*
X91300000Y-54950000D02*
X91300000Y-58300000D01*
X91300000Y-58300000D02*
X91300000Y-59550000D01*
X93617256Y-54950000D02*
X91300000Y-54950000D01*
X94136628Y-55469372D02*
X93617256Y-54950000D01*
G04 #@! TO.N,Net-(R4-Pad1)*
X95504000Y-64498000D02*
X95232000Y-64770000D01*
X95504000Y-56896000D02*
X93980000Y-56896000D01*
X86859000Y-61214000D02*
X85852000Y-60207000D01*
X87884000Y-61214000D02*
X86859000Y-61214000D01*
X85852000Y-60207000D02*
X85852000Y-56642000D01*
X93726000Y-56642000D02*
X92964000Y-56642000D01*
X93980000Y-56896000D02*
X93726000Y-56642000D01*
X94557000Y-64262000D02*
X95232000Y-64262000D01*
X94488000Y-64193000D02*
X94557000Y-64262000D01*
X94488000Y-57912000D02*
X94488000Y-64193000D01*
X95504000Y-56896000D02*
X94488000Y-57912000D01*
G04 #@! TO.N,Net-(R5-Pad1)*
X100871000Y-59944000D02*
X101346000Y-59944000D01*
X97905372Y-62909628D02*
X100871000Y-59944000D01*
X99198628Y-56757372D02*
X99198628Y-58812628D01*
X99822000Y-56134000D02*
X99198628Y-56757372D01*
X99198628Y-58812628D02*
X100330000Y-59944000D01*
X100330000Y-59944000D02*
X101346000Y-59944000D01*
X97905372Y-63638628D02*
X97282000Y-64262000D01*
X97905372Y-62909628D02*
X97905372Y-63638628D01*
G04 #@! TO.N,/-3.3V*
X93284000Y-64410190D02*
X93284000Y-63034000D01*
X93284000Y-63034000D02*
X93284000Y-62484000D01*
X96447800Y-66040000D02*
X94913810Y-66040000D01*
X93726000Y-64852190D02*
X93284000Y-64410190D01*
X94913810Y-66040000D02*
X93726000Y-64852190D01*
X92982000Y-66040000D02*
X91966000Y-65024000D01*
X94913810Y-66040000D02*
X92982000Y-66040000D01*
X97079798Y-66040000D02*
X96447800Y-66040000D01*
X97159998Y-66120200D02*
X97079798Y-66040000D01*
X97159998Y-67106800D02*
X97159998Y-66120200D01*
X100871000Y-62484000D02*
X101346000Y-62484000D01*
X97234800Y-66120200D02*
X100871000Y-62484000D01*
X97159998Y-66120200D02*
X97234800Y-66120200D01*
G04 #@! TO.N,Net-(C13-Pad1)*
X97010000Y-69491998D02*
X97159998Y-69342000D01*
X97010000Y-71628000D02*
X97010000Y-69491998D01*
G04 #@! TO.N,Net-(C13-Pad2)*
X99060000Y-70828000D02*
X99060000Y-71628000D01*
X98455599Y-70223599D02*
X99060000Y-70828000D01*
X98455599Y-68345399D02*
X98455599Y-70223599D01*
X99060000Y-67740998D02*
X98455599Y-68345399D01*
X99060000Y-67106800D02*
X99060000Y-67740998D01*
G04 #@! TD*
D29*
G04 #@! TO.N,GND*
G36*
X90451051Y-45926659D02*
X90171227Y-46040621D01*
X89923830Y-46695629D01*
X89945925Y-47395451D01*
X90171227Y-47939379D01*
X90451053Y-48053342D01*
X91514395Y-46990000D01*
X91500253Y-46975858D01*
X91679858Y-46796253D01*
X91694000Y-46810395D01*
X91708143Y-46796253D01*
X91887748Y-46975858D01*
X91873605Y-46990000D01*
X92936947Y-48053342D01*
X93216773Y-47939379D01*
X93464170Y-47284371D01*
X93442075Y-46584549D01*
X93216773Y-46040621D01*
X92936949Y-45926659D01*
X92966608Y-45897000D01*
X95501392Y-45897000D01*
X95531051Y-45926659D01*
X95251227Y-46040621D01*
X95003830Y-46695629D01*
X95025925Y-47395451D01*
X95251227Y-47939379D01*
X95531053Y-48053342D01*
X96594395Y-46990000D01*
X96580253Y-46975858D01*
X96759858Y-46796253D01*
X96774000Y-46810395D01*
X96788143Y-46796253D01*
X96967748Y-46975858D01*
X96953605Y-46990000D01*
X98016947Y-48053342D01*
X98296773Y-47939379D01*
X98419088Y-47615538D01*
X98553227Y-47939379D01*
X98833053Y-48053342D01*
X99896395Y-46990000D01*
X99882253Y-46975858D01*
X100061858Y-46796253D01*
X100076000Y-46810395D01*
X100090143Y-46796253D01*
X100269748Y-46975858D01*
X100255605Y-46990000D01*
X101318947Y-48053342D01*
X101598773Y-47939379D01*
X101846170Y-47284371D01*
X101824075Y-46584549D01*
X101598773Y-46040621D01*
X101318949Y-45926659D01*
X101348608Y-45897000D01*
X103883392Y-45897000D01*
X103913051Y-45926659D01*
X103633227Y-46040621D01*
X103385830Y-46695629D01*
X103407925Y-47395451D01*
X103633227Y-47939379D01*
X103913053Y-48053342D01*
X104976395Y-46990000D01*
X104962253Y-46975858D01*
X105141858Y-46796253D01*
X105156000Y-46810395D01*
X105170143Y-46796253D01*
X105349748Y-46975858D01*
X105335605Y-46990000D01*
X106398947Y-48053342D01*
X106678773Y-47939379D01*
X106801088Y-47615538D01*
X106935227Y-47939379D01*
X107215053Y-48053342D01*
X108278395Y-46990000D01*
X108264253Y-46975858D01*
X108443858Y-46796253D01*
X108458000Y-46810395D01*
X108472143Y-46796253D01*
X108651748Y-46975858D01*
X108637605Y-46990000D01*
X109700947Y-48053342D01*
X109980773Y-47939379D01*
X110228170Y-47284371D01*
X110206075Y-46584549D01*
X109980773Y-46040621D01*
X109700949Y-45926659D01*
X109730608Y-45897000D01*
X112265392Y-45897000D01*
X112295051Y-45926659D01*
X112015227Y-46040621D01*
X111767830Y-46695629D01*
X111789925Y-47395451D01*
X112015227Y-47939379D01*
X112295053Y-48053342D01*
X113358395Y-46990000D01*
X113344253Y-46975858D01*
X113523858Y-46796253D01*
X113538000Y-46810395D01*
X113552143Y-46796253D01*
X113731748Y-46975858D01*
X113717605Y-46990000D01*
X114780947Y-48053342D01*
X115060773Y-47939379D01*
X115308170Y-47284371D01*
X115286075Y-46584549D01*
X115060773Y-46040621D01*
X114780949Y-45926659D01*
X114810608Y-45897000D01*
X155779000Y-45897000D01*
X155779001Y-55812534D01*
X155779000Y-55812539D01*
X155779001Y-91263000D01*
X119645463Y-91263000D01*
X119838809Y-91133809D01*
X119979157Y-90923765D01*
X120028440Y-90676000D01*
X120696041Y-90676000D01*
X120835414Y-90884586D01*
X121126564Y-91079127D01*
X121469999Y-91147440D01*
X122370001Y-91147440D01*
X122713436Y-91079127D01*
X123004586Y-90884586D01*
X123137946Y-90685000D01*
X128948153Y-90685000D01*
X129023000Y-90699888D01*
X129097847Y-90685000D01*
X129097852Y-90685000D01*
X129319537Y-90640904D01*
X129570929Y-90472929D01*
X129613331Y-90409470D01*
X130532473Y-89490329D01*
X130595929Y-89447929D01*
X130763904Y-89196537D01*
X130808000Y-88974852D01*
X130808000Y-88974847D01*
X130822888Y-88900000D01*
X130808000Y-88825153D01*
X130808000Y-88400231D01*
X131133044Y-88183044D01*
X131318000Y-87906237D01*
X131502956Y-88183044D01*
X132000779Y-88515678D01*
X132588000Y-88632484D01*
X133175222Y-88515678D01*
X133673044Y-88183044D01*
X133858000Y-87906237D01*
X134042956Y-88183044D01*
X134540779Y-88515678D01*
X135128000Y-88632484D01*
X135715222Y-88515678D01*
X136213044Y-88183044D01*
X136398000Y-87906237D01*
X136582956Y-88183044D01*
X137080779Y-88515678D01*
X137668000Y-88632484D01*
X138255222Y-88515678D01*
X138753044Y-88183044D01*
X139085678Y-87685221D01*
X139173000Y-87246225D01*
X139173000Y-86489774D01*
X139085678Y-86050778D01*
X138942079Y-85835866D01*
X149765000Y-85835866D01*
X149765000Y-86884134D01*
X150166155Y-87852608D01*
X150907392Y-88593845D01*
X151875866Y-88995000D01*
X152924134Y-88995000D01*
X153892608Y-88593845D01*
X154633845Y-87852608D01*
X155035000Y-86884134D01*
X155035000Y-85835866D01*
X154633845Y-84867392D01*
X153892608Y-84126155D01*
X152924134Y-83725000D01*
X151875866Y-83725000D01*
X150907392Y-84126155D01*
X150166155Y-84867392D01*
X149765000Y-85835866D01*
X138942079Y-85835866D01*
X138753044Y-85552956D01*
X138255221Y-85220322D01*
X137668000Y-85103516D01*
X137080778Y-85220322D01*
X136582956Y-85552956D01*
X136398000Y-85829763D01*
X136213044Y-85552956D01*
X135715221Y-85220322D01*
X135128000Y-85103516D01*
X134540778Y-85220322D01*
X134042956Y-85552956D01*
X133858000Y-85829763D01*
X133673044Y-85552956D01*
X133348000Y-85335769D01*
X133348000Y-84910846D01*
X133362888Y-84835999D01*
X133348000Y-84761152D01*
X133348000Y-84761148D01*
X133303904Y-84539463D01*
X133223518Y-84419157D01*
X133178329Y-84351526D01*
X133178327Y-84351524D01*
X133135929Y-84288071D01*
X133072475Y-84245673D01*
X132670330Y-83843529D01*
X132627929Y-83780071D01*
X132376537Y-83612096D01*
X132154852Y-83568000D01*
X132154847Y-83568000D01*
X132080000Y-83553112D01*
X132005153Y-83568000D01*
X130393404Y-83568000D01*
X130474698Y-83534327D01*
X130653327Y-83355699D01*
X130750000Y-83122310D01*
X130750000Y-82581750D01*
X130591250Y-82423000D01*
X129667000Y-82423000D01*
X129667000Y-82443000D01*
X129413000Y-82443000D01*
X129413000Y-82423000D01*
X129393000Y-82423000D01*
X129393000Y-82169000D01*
X129413000Y-82169000D01*
X129413000Y-81119750D01*
X129667000Y-81119750D01*
X129667000Y-82169000D01*
X130591250Y-82169000D01*
X130750000Y-82010250D01*
X130750000Y-81469690D01*
X130653327Y-81236301D01*
X130474698Y-81057673D01*
X130241309Y-80961000D01*
X129825750Y-80961000D01*
X129667000Y-81119750D01*
X129413000Y-81119750D01*
X129254250Y-80961000D01*
X128838691Y-80961000D01*
X128605302Y-81057673D01*
X128450377Y-81212597D01*
X128449586Y-81211414D01*
X128158436Y-81016873D01*
X127815001Y-80948560D01*
X127164999Y-80948560D01*
X127012440Y-80978906D01*
X127012440Y-80771000D01*
X126963157Y-80523235D01*
X126822809Y-80313191D01*
X126612765Y-80172843D01*
X126365000Y-80123560D01*
X125568253Y-80123560D01*
X125623127Y-80041436D01*
X125691440Y-79698001D01*
X125691440Y-79100362D01*
X125812978Y-78978824D01*
X125958448Y-79007759D01*
X127508448Y-79007759D01*
X127756213Y-78958476D01*
X127966257Y-78818128D01*
X128106605Y-78608084D01*
X128155888Y-78360319D01*
X128155888Y-78311599D01*
X128191720Y-78347431D01*
X128572126Y-78505000D01*
X128738198Y-78505000D01*
X128777990Y-78544792D01*
X128820390Y-78608248D01*
X129071782Y-78776223D01*
X129293467Y-78820319D01*
X129293471Y-78820319D01*
X129368318Y-78835207D01*
X129443165Y-78820319D01*
X130903918Y-78820319D01*
X131110683Y-78958476D01*
X131358448Y-79007759D01*
X132908448Y-79007759D01*
X133156213Y-78958476D01*
X133366257Y-78818128D01*
X133506605Y-78608084D01*
X133555888Y-78360319D01*
X133555888Y-77760319D01*
X133514117Y-77550319D01*
X135017834Y-77550319D01*
X135092681Y-77565207D01*
X135167528Y-77550319D01*
X135167533Y-77550319D01*
X135389218Y-77506223D01*
X135623021Y-77350000D01*
X135999560Y-77350000D01*
X135999560Y-79350000D01*
X136048843Y-79597765D01*
X136189191Y-79807809D01*
X136399235Y-79948157D01*
X136647000Y-79997440D01*
X137297000Y-79997440D01*
X137544765Y-79948157D01*
X137754809Y-79807809D01*
X137895157Y-79597765D01*
X137944440Y-79350000D01*
X137944440Y-79151229D01*
X138031537Y-79133904D01*
X138282929Y-78965929D01*
X138325331Y-78902470D01*
X139251802Y-77976000D01*
X145989199Y-77976000D01*
X146366356Y-78353157D01*
X146234956Y-78440956D01*
X146191414Y-78506122D01*
X146034586Y-78271414D01*
X145743436Y-78076873D01*
X145400001Y-78008560D01*
X144159999Y-78008560D01*
X143816564Y-78076873D01*
X143525414Y-78271414D01*
X143330873Y-78562564D01*
X143262560Y-78905999D01*
X143262560Y-80606001D01*
X143330873Y-80949436D01*
X143525414Y-81240586D01*
X143816564Y-81435127D01*
X144159999Y-81503440D01*
X145400001Y-81503440D01*
X145743436Y-81435127D01*
X146034586Y-81240586D01*
X146191413Y-81005878D01*
X146234956Y-81071044D01*
X146732779Y-81403678D01*
X147320000Y-81520484D01*
X147907222Y-81403678D01*
X148405044Y-81071044D01*
X148737678Y-80573221D01*
X148825000Y-80134225D01*
X148825000Y-80041750D01*
X149879000Y-80041750D01*
X149879000Y-80982310D01*
X149975673Y-81215699D01*
X150154302Y-81394327D01*
X150387691Y-81491000D01*
X151098250Y-81491000D01*
X151257000Y-81332250D01*
X151257000Y-79883000D01*
X150037750Y-79883000D01*
X149879000Y-80041750D01*
X148825000Y-80041750D01*
X148825000Y-79377774D01*
X148737678Y-78938778D01*
X148405044Y-78440956D01*
X148094587Y-78233515D01*
X148094888Y-78232000D01*
X148080000Y-78157153D01*
X148080000Y-78157148D01*
X148035904Y-77935463D01*
X147867929Y-77684071D01*
X147804473Y-77641671D01*
X146894331Y-76731530D01*
X146851929Y-76668071D01*
X146600537Y-76500096D01*
X146378852Y-76456000D01*
X146378847Y-76456000D01*
X146304000Y-76441112D01*
X146229153Y-76456000D01*
X139011848Y-76456000D01*
X138937000Y-76441112D01*
X138862152Y-76456000D01*
X138862148Y-76456000D01*
X138689615Y-76490319D01*
X138640462Y-76500096D01*
X138453418Y-76625076D01*
X138389071Y-76668071D01*
X138346671Y-76731527D01*
X137908564Y-77169635D01*
X137895157Y-77102235D01*
X137754809Y-76892191D01*
X137544765Y-76751843D01*
X137297000Y-76702560D01*
X136647000Y-76702560D01*
X136399235Y-76751843D01*
X136189191Y-76892191D01*
X136048843Y-77102235D01*
X135999560Y-77350000D01*
X135623021Y-77350000D01*
X135640610Y-77338248D01*
X135683012Y-77274789D01*
X136388645Y-76569156D01*
X136594765Y-76528157D01*
X136804809Y-76387809D01*
X136945157Y-76177765D01*
X136966942Y-76068241D01*
X137058673Y-76289698D01*
X137237301Y-76468327D01*
X137470690Y-76565000D01*
X137636250Y-76565000D01*
X137795000Y-76406250D01*
X137795000Y-75057000D01*
X138049000Y-75057000D01*
X138049000Y-76406250D01*
X138207750Y-76565000D01*
X138373310Y-76565000D01*
X138606699Y-76468327D01*
X138785327Y-76289698D01*
X138882000Y-76056309D01*
X138882000Y-75215750D01*
X138723250Y-75057000D01*
X138049000Y-75057000D01*
X137795000Y-75057000D01*
X137775000Y-75057000D01*
X137775000Y-74803000D01*
X137795000Y-74803000D01*
X137795000Y-73453750D01*
X138049000Y-73453750D01*
X138049000Y-74803000D01*
X138723250Y-74803000D01*
X138882000Y-74644250D01*
X138882000Y-73803691D01*
X138785327Y-73570302D01*
X138606699Y-73391673D01*
X138373310Y-73295000D01*
X138207750Y-73295000D01*
X138049000Y-73453750D01*
X137795000Y-73453750D01*
X137636250Y-73295000D01*
X137470690Y-73295000D01*
X137237301Y-73391673D01*
X137058673Y-73570302D01*
X136966942Y-73791759D01*
X136945157Y-73682235D01*
X136804809Y-73472191D01*
X136594765Y-73331843D01*
X136347000Y-73282560D01*
X135697000Y-73282560D01*
X135449235Y-73331843D01*
X135239191Y-73472191D01*
X135098843Y-73682235D01*
X135049560Y-73930000D01*
X135049560Y-75758639D01*
X134777880Y-76030319D01*
X133514117Y-76030319D01*
X133555888Y-75820319D01*
X133555888Y-75220319D01*
X133506605Y-74972554D01*
X133453680Y-74893347D01*
X133543448Y-74676629D01*
X133543448Y-74536069D01*
X133384698Y-74377319D01*
X132260448Y-74377319D01*
X132260448Y-74397319D01*
X132006448Y-74397319D01*
X132006448Y-74377319D01*
X130882198Y-74377319D01*
X130723448Y-74536069D01*
X130723448Y-74676629D01*
X130758114Y-74760319D01*
X129395392Y-74760319D01*
X129401431Y-74754280D01*
X129559000Y-74373874D01*
X129559000Y-73962126D01*
X129501791Y-73824009D01*
X130723448Y-73824009D01*
X130723448Y-73964569D01*
X130882198Y-74123319D01*
X132006448Y-74123319D01*
X132006448Y-73474069D01*
X132260448Y-73474069D01*
X132260448Y-74123319D01*
X133384698Y-74123319D01*
X133543448Y-73964569D01*
X133543448Y-73824009D01*
X133446775Y-73590620D01*
X133268146Y-73411992D01*
X133034757Y-73315319D01*
X132419198Y-73315319D01*
X132260448Y-73474069D01*
X132006448Y-73474069D01*
X131847698Y-73315319D01*
X131232139Y-73315319D01*
X130998750Y-73411992D01*
X130820121Y-73590620D01*
X130723448Y-73824009D01*
X129501791Y-73824009D01*
X129401431Y-73581720D01*
X129110280Y-73290569D01*
X128729874Y-73133000D01*
X128318126Y-73133000D01*
X127937720Y-73290569D01*
X127828096Y-73400193D01*
X127756213Y-73352162D01*
X127508448Y-73302879D01*
X126385809Y-73302879D01*
X126258460Y-73175530D01*
X126216058Y-73112071D01*
X125964666Y-72944096D01*
X125742981Y-72900000D01*
X125742976Y-72900000D01*
X125668129Y-72885112D01*
X125593282Y-72900000D01*
X118946846Y-72900000D01*
X118871999Y-72885112D01*
X118797152Y-72900000D01*
X118797148Y-72900000D01*
X118575463Y-72944096D01*
X118512902Y-72985898D01*
X118387526Y-73069671D01*
X118387524Y-73069673D01*
X118324071Y-73112071D01*
X118281672Y-73175525D01*
X117773671Y-73683528D01*
X117648097Y-73871463D01*
X117608839Y-74068826D01*
X117439862Y-74181733D01*
X117245321Y-74472883D01*
X117177008Y-74816318D01*
X117177008Y-75716320D01*
X117245321Y-76059755D01*
X117439862Y-76350905D01*
X117731012Y-76545446D01*
X118074447Y-76613759D01*
X118724449Y-76613759D01*
X119067884Y-76545446D01*
X119158943Y-76484602D01*
X119116873Y-76547564D01*
X119048560Y-76890999D01*
X119048560Y-77541001D01*
X119116873Y-77884436D01*
X119311414Y-78175586D01*
X119312597Y-78176377D01*
X119157673Y-78331302D01*
X119061000Y-78564691D01*
X119061000Y-78980250D01*
X119219750Y-79139000D01*
X120269000Y-79139000D01*
X120269000Y-79119000D01*
X120523000Y-79119000D01*
X120523000Y-79139000D01*
X121572250Y-79139000D01*
X121590250Y-79121000D01*
X122292000Y-79121000D01*
X122292000Y-79101000D01*
X122546000Y-79101000D01*
X122546000Y-79121000D01*
X122566000Y-79121000D01*
X122566000Y-79375000D01*
X122546000Y-79375000D01*
X122546000Y-79395000D01*
X122292000Y-79395000D01*
X122292000Y-79375000D01*
X121367750Y-79375000D01*
X121349750Y-79393000D01*
X120523000Y-79393000D01*
X120523000Y-80317250D01*
X120681750Y-80476000D01*
X121222310Y-80476000D01*
X121400264Y-80402289D01*
X121484302Y-80486327D01*
X121717691Y-80583000D01*
X121944955Y-80583000D01*
X121907560Y-80771000D01*
X121907560Y-83821000D01*
X121956843Y-84068765D01*
X122018641Y-84161252D01*
X121677078Y-84502815D01*
X121666000Y-84529560D01*
X121654922Y-84502815D01*
X121237185Y-84085078D01*
X121221241Y-84078474D01*
X121393765Y-84044157D01*
X121603809Y-83903809D01*
X121744157Y-83693765D01*
X121793440Y-83446000D01*
X121793440Y-82446000D01*
X121766064Y-82308368D01*
X121781000Y-82272309D01*
X121781000Y-81931750D01*
X121622250Y-81773000D01*
X120523000Y-81773000D01*
X120523000Y-81793000D01*
X120269000Y-81793000D01*
X120269000Y-81773000D01*
X119169750Y-81773000D01*
X119011000Y-81931750D01*
X119011000Y-82272309D01*
X119025936Y-82308368D01*
X118998560Y-82446000D01*
X118998560Y-83446000D01*
X119047843Y-83693765D01*
X119188191Y-83903809D01*
X119398235Y-84044157D01*
X119570759Y-84078474D01*
X119554815Y-84085078D01*
X119137078Y-84502815D01*
X119126000Y-84529560D01*
X119114922Y-84502815D01*
X118697185Y-84085078D01*
X118151385Y-83859000D01*
X117560615Y-83859000D01*
X117014815Y-84085078D01*
X116597078Y-84502815D01*
X116586000Y-84529560D01*
X116574922Y-84502815D01*
X116157185Y-84085078D01*
X115611385Y-83859000D01*
X115020615Y-83859000D01*
X114474815Y-84085078D01*
X114057078Y-84502815D01*
X113831000Y-85048615D01*
X113831000Y-85639385D01*
X114057078Y-86185185D01*
X114474815Y-86602922D01*
X115020615Y-86829000D01*
X115611385Y-86829000D01*
X115698061Y-86793098D01*
X115683560Y-86866000D01*
X115683560Y-88386000D01*
X115732843Y-88633765D01*
X115824541Y-88771000D01*
X115732843Y-88908235D01*
X115683560Y-89156000D01*
X115683560Y-90676000D01*
X115732843Y-90923765D01*
X115873191Y-91133809D01*
X116066537Y-91263000D01*
X84505000Y-91263000D01*
X84505000Y-86137750D01*
X84855000Y-86137750D01*
X84855000Y-87078310D01*
X84951673Y-87311699D01*
X85130302Y-87490327D01*
X85363691Y-87587000D01*
X86074250Y-87587000D01*
X86233000Y-87428250D01*
X86233000Y-85979000D01*
X85013750Y-85979000D01*
X84855000Y-86137750D01*
X84505000Y-86137750D01*
X84505000Y-84625690D01*
X84855000Y-84625690D01*
X84855000Y-85566250D01*
X85013750Y-85725000D01*
X86233000Y-85725000D01*
X86233000Y-84275750D01*
X86487000Y-84275750D01*
X86487000Y-85725000D01*
X86507000Y-85725000D01*
X86507000Y-85979000D01*
X86487000Y-85979000D01*
X86487000Y-87428250D01*
X86645750Y-87587000D01*
X87356309Y-87587000D01*
X87589698Y-87490327D01*
X87768327Y-87311699D01*
X87825364Y-87173999D01*
X88312779Y-87499678D01*
X88900000Y-87616484D01*
X89487222Y-87499678D01*
X89985044Y-87167044D01*
X90317678Y-86669221D01*
X90405000Y-86230225D01*
X90405000Y-85473774D01*
X90317678Y-85034778D01*
X90295776Y-85001999D01*
X90938560Y-85001999D01*
X90938560Y-86702001D01*
X91006873Y-87045436D01*
X91201414Y-87336586D01*
X91492564Y-87531127D01*
X91835999Y-87599440D01*
X93076001Y-87599440D01*
X93419436Y-87531127D01*
X93710586Y-87336586D01*
X93867413Y-87101878D01*
X93910956Y-87167044D01*
X94408779Y-87499678D01*
X94996000Y-87616484D01*
X95583222Y-87499678D01*
X96081044Y-87167044D01*
X96413678Y-86669221D01*
X96501000Y-86230225D01*
X96501000Y-85835866D01*
X96679000Y-85835866D01*
X96679000Y-86884134D01*
X97080155Y-87852608D01*
X97821392Y-88593845D01*
X98789866Y-88995000D01*
X99838134Y-88995000D01*
X100806608Y-88593845D01*
X101547845Y-87852608D01*
X101949000Y-86884134D01*
X101949000Y-86387958D01*
X104291647Y-86387958D01*
X104371920Y-86639259D01*
X104927279Y-86840718D01*
X105517458Y-86814315D01*
X105940080Y-86639259D01*
X106020353Y-86387958D01*
X105156000Y-85523605D01*
X104291647Y-86387958D01*
X101949000Y-86387958D01*
X101949000Y-85835866D01*
X101650524Y-85115279D01*
X103659282Y-85115279D01*
X103685685Y-85705458D01*
X103860741Y-86128080D01*
X104112042Y-86208353D01*
X104976395Y-85344000D01*
X105335605Y-85344000D01*
X106199958Y-86208353D01*
X106417845Y-86138753D01*
X106437078Y-86185185D01*
X106854815Y-86602922D01*
X107400615Y-86829000D01*
X107991385Y-86829000D01*
X108537185Y-86602922D01*
X108954922Y-86185185D01*
X108966000Y-86158440D01*
X108977078Y-86185185D01*
X109394815Y-86602922D01*
X109940615Y-86829000D01*
X110531385Y-86829000D01*
X111077185Y-86602922D01*
X111494922Y-86185185D01*
X111721000Y-85639385D01*
X111721000Y-85048615D01*
X111494922Y-84502815D01*
X111077185Y-84085078D01*
X110531385Y-83859000D01*
X109940615Y-83859000D01*
X109394815Y-84085078D01*
X108977078Y-84502815D01*
X108966000Y-84529560D01*
X108954922Y-84502815D01*
X108537185Y-84085078D01*
X107991385Y-83859000D01*
X107400615Y-83859000D01*
X106854815Y-84085078D01*
X106437078Y-84502815D01*
X106417845Y-84549247D01*
X106199958Y-84479647D01*
X105335605Y-85344000D01*
X104976395Y-85344000D01*
X104112042Y-84479647D01*
X103860741Y-84559920D01*
X103659282Y-85115279D01*
X101650524Y-85115279D01*
X101547845Y-84867392D01*
X100980495Y-84300042D01*
X104291647Y-84300042D01*
X105156000Y-85164395D01*
X106020353Y-84300042D01*
X105940080Y-84048741D01*
X105384721Y-83847282D01*
X104794542Y-83873685D01*
X104371920Y-84048741D01*
X104291647Y-84300042D01*
X100980495Y-84300042D01*
X100806608Y-84126155D01*
X99838134Y-83725000D01*
X98789866Y-83725000D01*
X97821392Y-84126155D01*
X97080155Y-84867392D01*
X96679000Y-85835866D01*
X96501000Y-85835866D01*
X96501000Y-85473774D01*
X96413678Y-85034778D01*
X96081044Y-84536956D01*
X95583221Y-84204322D01*
X94996000Y-84087516D01*
X94408778Y-84204322D01*
X93910956Y-84536956D01*
X93867414Y-84602122D01*
X93710586Y-84367414D01*
X93419436Y-84172873D01*
X93076001Y-84104560D01*
X91835999Y-84104560D01*
X91492564Y-84172873D01*
X91201414Y-84367414D01*
X91006873Y-84658564D01*
X90938560Y-85001999D01*
X90295776Y-85001999D01*
X89985044Y-84536956D01*
X89487221Y-84204322D01*
X88900000Y-84087516D01*
X88312778Y-84204322D01*
X87825364Y-84530001D01*
X87768327Y-84392301D01*
X87589698Y-84213673D01*
X87356309Y-84117000D01*
X86645750Y-84117000D01*
X86487000Y-84275750D01*
X86233000Y-84275750D01*
X86074250Y-84117000D01*
X85363691Y-84117000D01*
X85130302Y-84213673D01*
X84951673Y-84392301D01*
X84855000Y-84625690D01*
X84505000Y-84625690D01*
X84505000Y-81019691D01*
X119011000Y-81019691D01*
X119011000Y-81360250D01*
X119169750Y-81519000D01*
X120269000Y-81519000D01*
X120269000Y-80669750D01*
X120523000Y-80669750D01*
X120523000Y-81519000D01*
X121622250Y-81519000D01*
X121781000Y-81360250D01*
X121781000Y-81019691D01*
X121684327Y-80786302D01*
X121505699Y-80607673D01*
X121272310Y-80511000D01*
X120681750Y-80511000D01*
X120523000Y-80669750D01*
X120269000Y-80669750D01*
X120110250Y-80511000D01*
X119519690Y-80511000D01*
X119286301Y-80607673D01*
X119107673Y-80786302D01*
X119011000Y-81019691D01*
X84505000Y-81019691D01*
X84505000Y-79551750D01*
X119061000Y-79551750D01*
X119061000Y-79967309D01*
X119157673Y-80200698D01*
X119336301Y-80379327D01*
X119569690Y-80476000D01*
X120110250Y-80476000D01*
X120269000Y-80317250D01*
X120269000Y-79393000D01*
X119219750Y-79393000D01*
X119061000Y-79551750D01*
X84505000Y-79551750D01*
X84505000Y-76993750D01*
X84855000Y-76993750D01*
X84855000Y-77934310D01*
X84951673Y-78167699D01*
X85130302Y-78346327D01*
X85363691Y-78443000D01*
X86074250Y-78443000D01*
X86233000Y-78284250D01*
X86233000Y-76835000D01*
X85013750Y-76835000D01*
X84855000Y-76993750D01*
X84505000Y-76993750D01*
X84505000Y-75481690D01*
X84855000Y-75481690D01*
X84855000Y-76422250D01*
X85013750Y-76581000D01*
X86233000Y-76581000D01*
X86233000Y-75131750D01*
X86487000Y-75131750D01*
X86487000Y-76581000D01*
X86507000Y-76581000D01*
X86507000Y-76835000D01*
X86487000Y-76835000D01*
X86487000Y-78284250D01*
X86645750Y-78443000D01*
X87356309Y-78443000D01*
X87589698Y-78346327D01*
X87768327Y-78167699D01*
X87825364Y-78029999D01*
X88312779Y-78355678D01*
X88900000Y-78472484D01*
X89487222Y-78355678D01*
X89985044Y-78023044D01*
X90317678Y-77525221D01*
X90405000Y-77086225D01*
X90405000Y-76329774D01*
X90317678Y-75890778D01*
X90295776Y-75857999D01*
X90938560Y-75857999D01*
X90938560Y-77558001D01*
X91006873Y-77901436D01*
X91201414Y-78192586D01*
X91492564Y-78387127D01*
X91835999Y-78455440D01*
X93076001Y-78455440D01*
X93419436Y-78387127D01*
X93710586Y-78192586D01*
X93867413Y-77957878D01*
X93910956Y-78023044D01*
X94408779Y-78355678D01*
X94996000Y-78472484D01*
X95583222Y-78355678D01*
X96081044Y-78023044D01*
X96413678Y-77525221D01*
X96501000Y-77086225D01*
X96501000Y-76329774D01*
X96413678Y-75890778D01*
X96391776Y-75857999D01*
X97034560Y-75857999D01*
X97034560Y-77558001D01*
X97102873Y-77901436D01*
X97297414Y-78192586D01*
X97588564Y-78387127D01*
X97931999Y-78455440D01*
X99172001Y-78455440D01*
X99515436Y-78387127D01*
X99806586Y-78192586D01*
X99963413Y-77957878D01*
X100006956Y-78023044D01*
X100504779Y-78355678D01*
X101092000Y-78472484D01*
X101679222Y-78355678D01*
X102177044Y-78023044D01*
X102509678Y-77525221D01*
X102597000Y-77086225D01*
X102597000Y-76329774D01*
X102509678Y-75890778D01*
X102177044Y-75392956D01*
X101852000Y-75175769D01*
X101852000Y-74113799D01*
X105618560Y-70347240D01*
X105618560Y-72110000D01*
X105667843Y-72357765D01*
X105808191Y-72567809D01*
X106018235Y-72708157D01*
X106266000Y-72757440D01*
X111666000Y-72757440D01*
X111913765Y-72708157D01*
X112123809Y-72567809D01*
X112264157Y-72357765D01*
X112313440Y-72110000D01*
X112313440Y-71137887D01*
X112316126Y-71139000D01*
X112727874Y-71139000D01*
X113108280Y-70981431D01*
X113399431Y-70690280D01*
X113557000Y-70309874D01*
X113557000Y-69898126D01*
X113399431Y-69517720D01*
X113108280Y-69226569D01*
X113068279Y-69210000D01*
X118826560Y-69210000D01*
X118826560Y-72110000D01*
X118875843Y-72357765D01*
X119016191Y-72567809D01*
X119226235Y-72708157D01*
X119474000Y-72757440D01*
X124874000Y-72757440D01*
X125121765Y-72708157D01*
X125331809Y-72567809D01*
X125472157Y-72357765D01*
X125521440Y-72110000D01*
X125521440Y-71139000D01*
X125681874Y-71139000D01*
X126062280Y-70981431D01*
X126353431Y-70690280D01*
X126511000Y-70309874D01*
X126511000Y-69898126D01*
X126353431Y-69517720D01*
X126062280Y-69226569D01*
X126022279Y-69210000D01*
X132034560Y-69210000D01*
X132034560Y-72110000D01*
X132083843Y-72357765D01*
X132224191Y-72567809D01*
X132434235Y-72708157D01*
X132682000Y-72757440D01*
X138082000Y-72757440D01*
X138329765Y-72708157D01*
X138539809Y-72567809D01*
X138637403Y-72421750D01*
X143275000Y-72421750D01*
X143275000Y-73362310D01*
X143371673Y-73595699D01*
X143550302Y-73774327D01*
X143783691Y-73871000D01*
X144494250Y-73871000D01*
X144653000Y-73712250D01*
X144653000Y-72263000D01*
X143433750Y-72263000D01*
X143275000Y-72421750D01*
X138637403Y-72421750D01*
X138680157Y-72357765D01*
X138729440Y-72110000D01*
X138729440Y-70909690D01*
X143275000Y-70909690D01*
X143275000Y-71850250D01*
X143433750Y-72009000D01*
X144653000Y-72009000D01*
X144653000Y-70559750D01*
X144494250Y-70401000D01*
X143783691Y-70401000D01*
X143550302Y-70497673D01*
X143371673Y-70676301D01*
X143275000Y-70909690D01*
X138729440Y-70909690D01*
X138729440Y-70102000D01*
X139250289Y-70102000D01*
X139367720Y-70219431D01*
X139748126Y-70377000D01*
X140159874Y-70377000D01*
X140540280Y-70219431D01*
X140831431Y-69928280D01*
X140989000Y-69547874D01*
X140989000Y-69136126D01*
X140831431Y-68755720D01*
X140540280Y-68464569D01*
X140159874Y-68307000D01*
X139748126Y-68307000D01*
X139367720Y-68464569D01*
X139250289Y-68582000D01*
X138179733Y-68582000D01*
X138082000Y-68562560D01*
X132682000Y-68562560D01*
X132434235Y-68611843D01*
X132224191Y-68752191D01*
X132083843Y-68962235D01*
X132034560Y-69210000D01*
X126022279Y-69210000D01*
X125681874Y-69069000D01*
X125493394Y-69069000D01*
X125472157Y-68962235D01*
X125331809Y-68752191D01*
X125121765Y-68611843D01*
X124874000Y-68562560D01*
X119474000Y-68562560D01*
X119226235Y-68611843D01*
X119016191Y-68752191D01*
X118875843Y-68962235D01*
X118826560Y-69210000D01*
X113068279Y-69210000D01*
X112727874Y-69069000D01*
X112316126Y-69069000D01*
X112287733Y-69080761D01*
X112264157Y-68962235D01*
X112123809Y-68752191D01*
X111913765Y-68611843D01*
X111666000Y-68562560D01*
X107403240Y-68562560D01*
X109165800Y-66800000D01*
X114612289Y-66800000D01*
X114729720Y-66917431D01*
X115110126Y-67075000D01*
X115521874Y-67075000D01*
X115902280Y-66917431D01*
X116019711Y-66800000D01*
X127820289Y-66800000D01*
X127937720Y-66917431D01*
X128318126Y-67075000D01*
X128729874Y-67075000D01*
X129110280Y-66917431D01*
X129227711Y-66800000D01*
X141028289Y-66800000D01*
X141145720Y-66917431D01*
X141526126Y-67075000D01*
X141937874Y-67075000D01*
X142318280Y-66917431D01*
X142609431Y-66626280D01*
X142767000Y-66245874D01*
X142767000Y-65834126D01*
X142609431Y-65453720D01*
X142318280Y-65162569D01*
X141937874Y-65005000D01*
X141526126Y-65005000D01*
X141145720Y-65162569D01*
X141028289Y-65280000D01*
X129227711Y-65280000D01*
X129110280Y-65162569D01*
X128729874Y-65005000D01*
X128318126Y-65005000D01*
X127937720Y-65162569D01*
X127820289Y-65280000D01*
X116019711Y-65280000D01*
X115902280Y-65162569D01*
X115521874Y-65005000D01*
X115110126Y-65005000D01*
X114729720Y-65162569D01*
X114612289Y-65280000D01*
X108925844Y-65280000D01*
X108850997Y-65265112D01*
X108776150Y-65280000D01*
X108776146Y-65280000D01*
X108554461Y-65324096D01*
X108303069Y-65492071D01*
X108260669Y-65555527D01*
X100607528Y-73208669D01*
X100544072Y-73251069D01*
X100501672Y-73314525D01*
X100501671Y-73314526D01*
X100376097Y-73502461D01*
X100317112Y-73798998D01*
X100332001Y-73873850D01*
X100332001Y-75175768D01*
X100006956Y-75392956D01*
X99963414Y-75458122D01*
X99806586Y-75223414D01*
X99515436Y-75028873D01*
X99172001Y-74960560D01*
X97931999Y-74960560D01*
X97588564Y-75028873D01*
X97297414Y-75223414D01*
X97102873Y-75514564D01*
X97034560Y-75857999D01*
X96391776Y-75857999D01*
X96081044Y-75392956D01*
X95583221Y-75060322D01*
X94996000Y-74943516D01*
X94408778Y-75060322D01*
X93910956Y-75392956D01*
X93867414Y-75458122D01*
X93710586Y-75223414D01*
X93419436Y-75028873D01*
X93076001Y-74960560D01*
X91835999Y-74960560D01*
X91492564Y-75028873D01*
X91201414Y-75223414D01*
X91006873Y-75514564D01*
X90938560Y-75857999D01*
X90295776Y-75857999D01*
X89985044Y-75392956D01*
X89487221Y-75060322D01*
X88900000Y-74943516D01*
X88312778Y-75060322D01*
X87825364Y-75386001D01*
X87768327Y-75248301D01*
X87589698Y-75069673D01*
X87356309Y-74973000D01*
X86645750Y-74973000D01*
X86487000Y-75131750D01*
X86233000Y-75131750D01*
X86074250Y-74973000D01*
X85363691Y-74973000D01*
X85130302Y-75069673D01*
X84951673Y-75248301D01*
X84855000Y-75481690D01*
X84505000Y-75481690D01*
X84505000Y-67849750D01*
X84855000Y-67849750D01*
X84855000Y-68790310D01*
X84951673Y-69023699D01*
X85130302Y-69202327D01*
X85363691Y-69299000D01*
X86074250Y-69299000D01*
X86233000Y-69140250D01*
X86233000Y-67691000D01*
X85013750Y-67691000D01*
X84855000Y-67849750D01*
X84505000Y-67849750D01*
X84505000Y-66337690D01*
X84855000Y-66337690D01*
X84855000Y-67278250D01*
X85013750Y-67437000D01*
X86233000Y-67437000D01*
X86233000Y-65987750D01*
X86074250Y-65829000D01*
X85363691Y-65829000D01*
X85130302Y-65925673D01*
X84951673Y-66104301D01*
X84855000Y-66337690D01*
X84505000Y-66337690D01*
X84505000Y-64197690D01*
X88706000Y-64197690D01*
X88706000Y-64738250D01*
X88864750Y-64897000D01*
X89789000Y-64897000D01*
X89789000Y-63847750D01*
X89630250Y-63689000D01*
X89214691Y-63689000D01*
X88981302Y-63785673D01*
X88802673Y-63964301D01*
X88706000Y-64197690D01*
X84505000Y-64197690D01*
X84505000Y-56436126D01*
X84817000Y-56436126D01*
X84817000Y-56847874D01*
X84974569Y-57228280D01*
X85092001Y-57345712D01*
X85092000Y-60132153D01*
X85077112Y-60207000D01*
X85092000Y-60281847D01*
X85092000Y-60281851D01*
X85136096Y-60503536D01*
X85304071Y-60754929D01*
X85367530Y-60797331D01*
X86268671Y-61698473D01*
X86311071Y-61761929D01*
X86529701Y-61908013D01*
X86510843Y-61936235D01*
X86461560Y-62184000D01*
X86461560Y-62784000D01*
X86510843Y-63031765D01*
X86651191Y-63241809D01*
X86861235Y-63382157D01*
X87109000Y-63431440D01*
X88659000Y-63431440D01*
X88906765Y-63382157D01*
X89116809Y-63241809D01*
X89257157Y-63031765D01*
X89306440Y-62784000D01*
X89306440Y-62184000D01*
X89257157Y-61936235D01*
X89198868Y-61849000D01*
X89257157Y-61761765D01*
X89306440Y-61514000D01*
X89306440Y-60914000D01*
X89257157Y-60666235D01*
X89198868Y-60579000D01*
X89257157Y-60491765D01*
X89306440Y-60244000D01*
X89306440Y-60071361D01*
X90540000Y-58837801D01*
X90540001Y-59475149D01*
X90525112Y-59550000D01*
X90540001Y-59624852D01*
X90584097Y-59846537D01*
X90752072Y-60097929D01*
X90815528Y-60140329D01*
X91103669Y-60428470D01*
X91146071Y-60491929D01*
X91397463Y-60659904D01*
X91619148Y-60704000D01*
X91619152Y-60704000D01*
X91693999Y-60718888D01*
X91768846Y-60704000D01*
X91908666Y-60704000D01*
X91874000Y-60787690D01*
X91874000Y-60928250D01*
X92032750Y-61087000D01*
X93157000Y-61087000D01*
X93157000Y-61067000D01*
X93411000Y-61067000D01*
X93411000Y-61087000D01*
X93431000Y-61087000D01*
X93431000Y-61341000D01*
X93411000Y-61341000D01*
X93411000Y-61361000D01*
X93157000Y-61361000D01*
X93157000Y-61341000D01*
X92032750Y-61341000D01*
X91874000Y-61499750D01*
X91874000Y-61640310D01*
X91963768Y-61857028D01*
X91910843Y-61936235D01*
X91861560Y-62184000D01*
X91861560Y-62784000D01*
X91910843Y-63031765D01*
X92051191Y-63241809D01*
X92261235Y-63382157D01*
X92509000Y-63431440D01*
X92524001Y-63431440D01*
X92524000Y-63722906D01*
X92291001Y-63676560D01*
X91640999Y-63676560D01*
X91297564Y-63744873D01*
X91006414Y-63939414D01*
X91005623Y-63940597D01*
X90850698Y-63785673D01*
X90617309Y-63689000D01*
X90201750Y-63689000D01*
X90043000Y-63847750D01*
X90043000Y-64897000D01*
X90063000Y-64897000D01*
X90063000Y-65151000D01*
X90043000Y-65151000D01*
X90043000Y-65171000D01*
X89789000Y-65171000D01*
X89789000Y-65151000D01*
X88864750Y-65151000D01*
X88706000Y-65309750D01*
X88706000Y-65838105D01*
X88312778Y-65916322D01*
X87825364Y-66242001D01*
X87768327Y-66104301D01*
X87589698Y-65925673D01*
X87356309Y-65829000D01*
X86645750Y-65829000D01*
X86487000Y-65987750D01*
X86487000Y-67437000D01*
X86507000Y-67437000D01*
X86507000Y-67691000D01*
X86487000Y-67691000D01*
X86487000Y-69140250D01*
X86645750Y-69299000D01*
X87356309Y-69299000D01*
X87589698Y-69202327D01*
X87768327Y-69023699D01*
X87825364Y-68885999D01*
X88312779Y-69211678D01*
X88900000Y-69328484D01*
X89487222Y-69211678D01*
X89985044Y-68879044D01*
X90317678Y-68381221D01*
X90405000Y-67942225D01*
X90405000Y-67185774D01*
X90317678Y-66746778D01*
X90043002Y-66335696D01*
X90043002Y-66200252D01*
X90201750Y-66359000D01*
X90617309Y-66359000D01*
X90850698Y-66262327D01*
X91005623Y-66107403D01*
X91006414Y-66108586D01*
X91127750Y-66189660D01*
X91006873Y-66370564D01*
X90938560Y-66713999D01*
X90938560Y-68414001D01*
X91006873Y-68757436D01*
X91201414Y-69048586D01*
X91492564Y-69243127D01*
X91835999Y-69311440D01*
X93076001Y-69311440D01*
X93419436Y-69243127D01*
X93710586Y-69048586D01*
X93867413Y-68813878D01*
X93910956Y-68879044D01*
X94408779Y-69211678D01*
X94996000Y-69328484D01*
X95583222Y-69211678D01*
X96081044Y-68879044D01*
X96233158Y-68651389D01*
X96233158Y-70078600D01*
X96250001Y-70163275D01*
X96250001Y-70410054D01*
X96050414Y-70543414D01*
X95855873Y-70834564D01*
X95787560Y-71177999D01*
X95787560Y-72078001D01*
X95855873Y-72421436D01*
X96050414Y-72712586D01*
X96341564Y-72907127D01*
X96684999Y-72975440D01*
X97335001Y-72975440D01*
X97678436Y-72907127D01*
X97969586Y-72712586D01*
X98035000Y-72614687D01*
X98100414Y-72712586D01*
X98391564Y-72907127D01*
X98734999Y-72975440D01*
X99385001Y-72975440D01*
X99728436Y-72907127D01*
X100019586Y-72712586D01*
X100214127Y-72421436D01*
X100282440Y-72078001D01*
X100282440Y-71177999D01*
X100214127Y-70834564D01*
X100019586Y-70543414D01*
X99871536Y-70444489D01*
X99877727Y-70438298D01*
X99974400Y-70204909D01*
X99974400Y-69627750D01*
X99815650Y-69469000D01*
X99215599Y-69469000D01*
X99215599Y-69215000D01*
X99815650Y-69215000D01*
X99974400Y-69056250D01*
X99974400Y-68637426D01*
X100032301Y-68695327D01*
X100265690Y-68792000D01*
X100806250Y-68792000D01*
X100965000Y-68633250D01*
X100965000Y-67709000D01*
X101219000Y-67709000D01*
X101219000Y-68633250D01*
X101377750Y-68792000D01*
X101918310Y-68792000D01*
X102151699Y-68695327D01*
X102330327Y-68516698D01*
X102427000Y-68283309D01*
X102427000Y-67867750D01*
X102268250Y-67709000D01*
X101219000Y-67709000D01*
X100965000Y-67709000D01*
X100945000Y-67709000D01*
X100945000Y-67455000D01*
X100965000Y-67455000D01*
X100965000Y-67435000D01*
X101219000Y-67435000D01*
X101219000Y-67455000D01*
X102268250Y-67455000D01*
X102427000Y-67296250D01*
X102427000Y-66880691D01*
X102330327Y-66647302D01*
X102175403Y-66492377D01*
X102176586Y-66491586D01*
X102371127Y-66200436D01*
X102439440Y-65857001D01*
X102439440Y-65206999D01*
X102371127Y-64863564D01*
X102176586Y-64572414D01*
X101885436Y-64377873D01*
X101542001Y-64309560D01*
X100641999Y-64309560D01*
X100298564Y-64377873D01*
X100084917Y-64520628D01*
X100027874Y-64497000D01*
X99932802Y-64497000D01*
X100998363Y-63431440D01*
X102121000Y-63431440D01*
X102368765Y-63382157D01*
X102578809Y-63241809D01*
X102719157Y-63031765D01*
X102768440Y-62784000D01*
X102768440Y-62184000D01*
X102719157Y-61936235D01*
X102666232Y-61857028D01*
X102756000Y-61640310D01*
X102756000Y-61499750D01*
X102597250Y-61341000D01*
X101473000Y-61341000D01*
X101473000Y-61361000D01*
X101219000Y-61361000D01*
X101219000Y-61341000D01*
X101199000Y-61341000D01*
X101199000Y-61087000D01*
X101219000Y-61087000D01*
X101219000Y-61067000D01*
X101473000Y-61067000D01*
X101473000Y-61087000D01*
X102597250Y-61087000D01*
X102756000Y-60928250D01*
X102756000Y-60787690D01*
X102742098Y-60754126D01*
X104375000Y-60754126D01*
X104375000Y-61165874D01*
X104532569Y-61546280D01*
X104823720Y-61837431D01*
X105204126Y-61995000D01*
X105615874Y-61995000D01*
X105618560Y-61993887D01*
X105618560Y-62410000D01*
X105667843Y-62657765D01*
X105808191Y-62867809D01*
X106018235Y-63008157D01*
X106266000Y-63057440D01*
X111666000Y-63057440D01*
X111913765Y-63008157D01*
X112123809Y-62867809D01*
X112264157Y-62657765D01*
X112313440Y-62410000D01*
X112313440Y-59510000D01*
X118826560Y-59510000D01*
X118826560Y-62410000D01*
X118875843Y-62657765D01*
X119016191Y-62867809D01*
X119143218Y-62952687D01*
X119107000Y-63040126D01*
X119107000Y-63451874D01*
X119264569Y-63832280D01*
X119555720Y-64123431D01*
X119936126Y-64281000D01*
X120347874Y-64281000D01*
X120728280Y-64123431D01*
X120845711Y-64006000D01*
X121513153Y-64006000D01*
X121588000Y-64020888D01*
X121662847Y-64006000D01*
X121662852Y-64006000D01*
X121884537Y-63961904D01*
X122135929Y-63793929D01*
X122178331Y-63730470D01*
X122658473Y-63250329D01*
X122721929Y-63207929D01*
X122822483Y-63057440D01*
X124874000Y-63057440D01*
X125121765Y-63008157D01*
X125331809Y-62867809D01*
X125472157Y-62657765D01*
X125521440Y-62410000D01*
X125521440Y-61608483D01*
X125671929Y-61507929D01*
X125714331Y-61444470D01*
X127648801Y-59510000D01*
X132034560Y-59510000D01*
X132034560Y-62410000D01*
X132083843Y-62657765D01*
X132224191Y-62867809D01*
X132434235Y-63008157D01*
X132682000Y-63057440D01*
X133077000Y-63057440D01*
X133077000Y-63451874D01*
X133234569Y-63832280D01*
X133525720Y-64123431D01*
X133906126Y-64281000D01*
X134317874Y-64281000D01*
X134698280Y-64123431D01*
X134989431Y-63832280D01*
X135147000Y-63451874D01*
X135147000Y-63285801D01*
X135375362Y-63057440D01*
X138082000Y-63057440D01*
X138329765Y-63008157D01*
X138539809Y-62867809D01*
X138680157Y-62657765D01*
X138729440Y-62410000D01*
X138729440Y-59510000D01*
X138680157Y-59262235D01*
X138539809Y-59052191D01*
X138329765Y-58911843D01*
X138082000Y-58862560D01*
X132682000Y-58862560D01*
X132434235Y-58911843D01*
X132224191Y-59052191D01*
X132083843Y-59262235D01*
X132034560Y-59510000D01*
X127648801Y-59510000D01*
X128486802Y-58672000D01*
X141417199Y-58672000D01*
X148592000Y-65846803D01*
X148592001Y-71100756D01*
X148405044Y-70820956D01*
X147907221Y-70488322D01*
X147320000Y-70371516D01*
X146732778Y-70488322D01*
X146245364Y-70814001D01*
X146188327Y-70676301D01*
X146009698Y-70497673D01*
X145776309Y-70401000D01*
X145065750Y-70401000D01*
X144907000Y-70559750D01*
X144907000Y-72009000D01*
X144927000Y-72009000D01*
X144927000Y-72263000D01*
X144907000Y-72263000D01*
X144907000Y-73712250D01*
X145065750Y-73871000D01*
X145776309Y-73871000D01*
X146009698Y-73774327D01*
X146188327Y-73595699D01*
X146245364Y-73457999D01*
X146732779Y-73783678D01*
X147320000Y-73900484D01*
X147907222Y-73783678D01*
X148405044Y-73451044D01*
X148592001Y-73171243D01*
X148592001Y-74879148D01*
X148577112Y-74954000D01*
X148592001Y-75028852D01*
X148636097Y-75250537D01*
X148804072Y-75501929D01*
X148867528Y-75544329D01*
X151344198Y-78021000D01*
X151256998Y-78021000D01*
X151256998Y-78179748D01*
X151098250Y-78021000D01*
X150387691Y-78021000D01*
X150154302Y-78117673D01*
X149975673Y-78296301D01*
X149879000Y-78529690D01*
X149879000Y-79470250D01*
X150037750Y-79629000D01*
X151257000Y-79629000D01*
X151257000Y-79609000D01*
X151511000Y-79609000D01*
X151511000Y-79629000D01*
X151531000Y-79629000D01*
X151531000Y-79883000D01*
X151511000Y-79883000D01*
X151511000Y-81332250D01*
X151669750Y-81491000D01*
X152380309Y-81491000D01*
X152613698Y-81394327D01*
X152792327Y-81215699D01*
X152849364Y-81077999D01*
X153336779Y-81403678D01*
X153924000Y-81520484D01*
X154511222Y-81403678D01*
X155009044Y-81071044D01*
X155341678Y-80573221D01*
X155429000Y-80134225D01*
X155429000Y-79377774D01*
X155341678Y-78938778D01*
X155009044Y-78440956D01*
X154511221Y-78108322D01*
X153924000Y-77991516D01*
X153540585Y-78067782D01*
X150112000Y-74639199D01*
X150112000Y-73732025D01*
X150154302Y-73774327D01*
X150387691Y-73871000D01*
X151098250Y-73871000D01*
X151257000Y-73712250D01*
X151257000Y-72263000D01*
X151237000Y-72263000D01*
X151237000Y-72009000D01*
X151257000Y-72009000D01*
X151257000Y-70559750D01*
X151511000Y-70559750D01*
X151511000Y-72009000D01*
X151531000Y-72009000D01*
X151531000Y-72263000D01*
X151511000Y-72263000D01*
X151511000Y-73712250D01*
X151669750Y-73871000D01*
X152380309Y-73871000D01*
X152613698Y-73774327D01*
X152792327Y-73595699D01*
X152849364Y-73457999D01*
X153336779Y-73783678D01*
X153924000Y-73900484D01*
X154511222Y-73783678D01*
X155009044Y-73451044D01*
X155341678Y-72953221D01*
X155429000Y-72514225D01*
X155429000Y-71757774D01*
X155341678Y-71318778D01*
X155009044Y-70820956D01*
X154511221Y-70488322D01*
X153924000Y-70371516D01*
X153336778Y-70488322D01*
X152849364Y-70814001D01*
X152792327Y-70676301D01*
X152613698Y-70497673D01*
X152380309Y-70401000D01*
X151669750Y-70401000D01*
X151511000Y-70559750D01*
X151257000Y-70559750D01*
X151098250Y-70401000D01*
X150387691Y-70401000D01*
X150154302Y-70497673D01*
X150112000Y-70539975D01*
X150112000Y-65606846D01*
X150126888Y-65531999D01*
X150112000Y-65457152D01*
X150112000Y-65457148D01*
X150067904Y-65235463D01*
X149994826Y-65126094D01*
X149942329Y-65047526D01*
X149942327Y-65047524D01*
X149899929Y-64984071D01*
X149836476Y-64941673D01*
X142322331Y-57427530D01*
X142279929Y-57364071D01*
X142028537Y-57196096D01*
X141806852Y-57152000D01*
X141806847Y-57152000D01*
X141732000Y-57137112D01*
X141657153Y-57152000D01*
X128246847Y-57152000D01*
X128172000Y-57137112D01*
X128097153Y-57152000D01*
X128097148Y-57152000D01*
X127875463Y-57196096D01*
X127624071Y-57364071D01*
X127581671Y-57427527D01*
X125517750Y-59491449D01*
X125472157Y-59262235D01*
X125331809Y-59052191D01*
X125121765Y-58911843D01*
X124874000Y-58862560D01*
X119474000Y-58862560D01*
X119226235Y-58911843D01*
X119016191Y-59052191D01*
X118875843Y-59262235D01*
X118826560Y-59510000D01*
X112313440Y-59510000D01*
X112264157Y-59262235D01*
X112123809Y-59052191D01*
X111913765Y-58911843D01*
X111666000Y-58862560D01*
X106266000Y-58862560D01*
X106018235Y-58911843D01*
X105808191Y-59052191D01*
X105667843Y-59262235D01*
X105618560Y-59510000D01*
X105618560Y-59926113D01*
X105615874Y-59925000D01*
X105204126Y-59925000D01*
X104823720Y-60082569D01*
X104532569Y-60373720D01*
X104375000Y-60754126D01*
X102742098Y-60754126D01*
X102666232Y-60570972D01*
X102719157Y-60491765D01*
X102768440Y-60244000D01*
X102768440Y-59644000D01*
X102719157Y-59396235D01*
X102660868Y-59309000D01*
X102719157Y-59221765D01*
X102768440Y-58974000D01*
X102768440Y-58374000D01*
X102719157Y-58126235D01*
X102578809Y-57916191D01*
X102368765Y-57775843D01*
X102121000Y-57726560D01*
X100571000Y-57726560D01*
X100323235Y-57775843D01*
X100113191Y-57916191D01*
X99972843Y-58126235D01*
X99958628Y-58197699D01*
X99958628Y-57481440D01*
X100147001Y-57481440D01*
X100490436Y-57413127D01*
X100781586Y-57218586D01*
X100847000Y-57120687D01*
X100912414Y-57218586D01*
X101203564Y-57413127D01*
X101546999Y-57481440D01*
X102197001Y-57481440D01*
X102540436Y-57413127D01*
X102831586Y-57218586D01*
X103026127Y-56927436D01*
X103094440Y-56584001D01*
X103094440Y-55986362D01*
X103710803Y-55370000D01*
X109399153Y-55370000D01*
X109474000Y-55384888D01*
X109548847Y-55370000D01*
X109548852Y-55370000D01*
X109770537Y-55325904D01*
X110021929Y-55157929D01*
X110064331Y-55094470D01*
X111482476Y-53676327D01*
X111545929Y-53633929D01*
X111588327Y-53570476D01*
X111588329Y-53570474D01*
X111713903Y-53382538D01*
X111713904Y-53382537D01*
X111727746Y-53312947D01*
X112474658Y-53312947D01*
X112588621Y-53592773D01*
X113243629Y-53840170D01*
X113943451Y-53818075D01*
X114487379Y-53592773D01*
X114601342Y-53312947D01*
X113538000Y-52249605D01*
X112474658Y-53312947D01*
X111727746Y-53312947D01*
X111758000Y-53160852D01*
X111758000Y-53160848D01*
X111772888Y-53086001D01*
X111758000Y-53011154D01*
X111758000Y-51775629D01*
X111767830Y-51775629D01*
X111789925Y-52475451D01*
X112015227Y-53019379D01*
X112295053Y-53133342D01*
X113358395Y-52070000D01*
X113717605Y-52070000D01*
X114780947Y-53133342D01*
X115060773Y-53019379D01*
X115308170Y-52364371D01*
X115286075Y-51664549D01*
X115060773Y-51120621D01*
X114780947Y-51006658D01*
X113717605Y-52070000D01*
X113358395Y-52070000D01*
X112295053Y-51006658D01*
X112015227Y-51120621D01*
X111767830Y-51775629D01*
X111758000Y-51775629D01*
X111758000Y-51011969D01*
X111938314Y-50937280D01*
X112048541Y-50827053D01*
X112474658Y-50827053D01*
X113538000Y-51890395D01*
X114601342Y-50827053D01*
X114487379Y-50547227D01*
X113832371Y-50299830D01*
X113132549Y-50321925D01*
X112588621Y-50547227D01*
X112474658Y-50827053D01*
X112048541Y-50827053D01*
X112405280Y-50470314D01*
X112485823Y-50275866D01*
X149765000Y-50275866D01*
X149765000Y-51324134D01*
X150166155Y-52292608D01*
X150907392Y-53033845D01*
X151875866Y-53435000D01*
X152924134Y-53435000D01*
X153892608Y-53033845D01*
X154633845Y-52292608D01*
X155035000Y-51324134D01*
X155035000Y-50275866D01*
X154633845Y-49307392D01*
X153892608Y-48566155D01*
X152924134Y-48165000D01*
X151875866Y-48165000D01*
X150907392Y-48566155D01*
X150166155Y-49307392D01*
X149765000Y-50275866D01*
X112485823Y-50275866D01*
X112658000Y-49860194D01*
X112658000Y-49199806D01*
X112405280Y-48589686D01*
X112048541Y-48232947D01*
X112474658Y-48232947D01*
X112588621Y-48512773D01*
X113243629Y-48760170D01*
X113943451Y-48738075D01*
X114487379Y-48512773D01*
X114601342Y-48232947D01*
X113538000Y-47169605D01*
X112474658Y-48232947D01*
X112048541Y-48232947D01*
X111938314Y-48122720D01*
X111328194Y-47870000D01*
X110667806Y-47870000D01*
X110057686Y-48122720D01*
X109590720Y-48589686D01*
X109338000Y-49199806D01*
X109338000Y-49860194D01*
X109590720Y-50470314D01*
X110057686Y-50937280D01*
X110238000Y-51011969D01*
X110238001Y-52771196D01*
X109788403Y-53220795D01*
X109700949Y-53133341D01*
X109980773Y-53019379D01*
X110228170Y-52364371D01*
X110206075Y-51664549D01*
X109980773Y-51120621D01*
X109700947Y-51006658D01*
X108637605Y-52070000D01*
X108651748Y-52084143D01*
X108472143Y-52263748D01*
X108458000Y-52249605D01*
X107394658Y-53312947D01*
X107508621Y-53592773D01*
X108163629Y-53840170D01*
X108863451Y-53818075D01*
X109407379Y-53592773D01*
X109521341Y-53312949D01*
X109608795Y-53400403D01*
X109159199Y-53850000D01*
X103470846Y-53850000D01*
X103395999Y-53835112D01*
X103321152Y-53850000D01*
X103321148Y-53850000D01*
X103099463Y-53894096D01*
X103099461Y-53894097D01*
X103099462Y-53894097D01*
X102911526Y-54019671D01*
X102911524Y-54019673D01*
X102848071Y-54062071D01*
X102805673Y-54125524D01*
X102144638Y-54786560D01*
X101599362Y-54786560D01*
X100684331Y-53871530D01*
X100641929Y-53808071D01*
X100589759Y-53773212D01*
X101025379Y-53592773D01*
X101139342Y-53312947D01*
X104092658Y-53312947D01*
X104206621Y-53592773D01*
X104861629Y-53840170D01*
X105561451Y-53818075D01*
X106105379Y-53592773D01*
X106219342Y-53312947D01*
X105156000Y-52249605D01*
X104092658Y-53312947D01*
X101139342Y-53312947D01*
X100076000Y-52249605D01*
X99012658Y-53312947D01*
X99126621Y-53592773D01*
X99135165Y-53596000D01*
X98626846Y-53596000D01*
X98551999Y-53581112D01*
X98477152Y-53596000D01*
X98477148Y-53596000D01*
X98255463Y-53640096D01*
X98004071Y-53808071D01*
X97961669Y-53871530D01*
X97813528Y-54019671D01*
X97750072Y-54062071D01*
X97707672Y-54125527D01*
X97707671Y-54125528D01*
X97582097Y-54313463D01*
X97523112Y-54610000D01*
X97538001Y-54684852D01*
X97538000Y-58928106D01*
X97363164Y-59000525D01*
X97368440Y-58974000D01*
X97368440Y-58374000D01*
X97319157Y-58126235D01*
X97178809Y-57916191D01*
X96968765Y-57775843D01*
X96721000Y-57726560D01*
X96674799Y-57726560D01*
X96783127Y-57564436D01*
X96851440Y-57221001D01*
X96851440Y-56570999D01*
X96783127Y-56227564D01*
X96588586Y-55936414D01*
X96490687Y-55871000D01*
X96588586Y-55805586D01*
X96783127Y-55514436D01*
X96851440Y-55171001D01*
X96851440Y-54520999D01*
X96783127Y-54177564D01*
X96588586Y-53886414D01*
X96517584Y-53838972D01*
X97179451Y-53818075D01*
X97723379Y-53592773D01*
X97837342Y-53312947D01*
X96774000Y-52249605D01*
X95710658Y-53312947D01*
X95824621Y-53592773D01*
X95906133Y-53623560D01*
X95053999Y-53623560D01*
X94710564Y-53691873D01*
X94419414Y-53886414D01*
X94224873Y-54177564D01*
X94176768Y-54419406D01*
X94165185Y-54402071D01*
X93913793Y-54234096D01*
X93692108Y-54190000D01*
X93692103Y-54190000D01*
X93617256Y-54175112D01*
X93542409Y-54190000D01*
X92427975Y-54190000D01*
X92057378Y-53819403D01*
X92099451Y-53818075D01*
X92643379Y-53592773D01*
X92757342Y-53312947D01*
X91694000Y-52249605D01*
X90630658Y-53312947D01*
X90744621Y-53592773D01*
X90924286Y-53660632D01*
X90543783Y-53818242D01*
X90168242Y-54193783D01*
X89965000Y-54684452D01*
X89965000Y-55215548D01*
X90168242Y-55706217D01*
X90540000Y-56077975D01*
X90540000Y-56115000D01*
X90218126Y-56115000D01*
X89837720Y-56272569D01*
X89546569Y-56563720D01*
X89389000Y-56944126D01*
X89389000Y-57355874D01*
X89530562Y-57697636D01*
X89194995Y-58033203D01*
X89116809Y-57916191D01*
X88906765Y-57775843D01*
X88659000Y-57726560D01*
X87109000Y-57726560D01*
X86861235Y-57775843D01*
X86651191Y-57916191D01*
X86612000Y-57974844D01*
X86612000Y-57345711D01*
X86729431Y-57228280D01*
X86887000Y-56847874D01*
X86887000Y-56436126D01*
X86781170Y-56180629D01*
X87182481Y-55912481D01*
X87477542Y-55470891D01*
X87581154Y-54950000D01*
X87477542Y-54429109D01*
X87182481Y-53987519D01*
X86740891Y-53692458D01*
X86351485Y-53615000D01*
X86088515Y-53615000D01*
X85699109Y-53692458D01*
X85257519Y-53987519D01*
X84962458Y-54429109D01*
X84858846Y-54950000D01*
X84962458Y-55470891D01*
X85201559Y-55828730D01*
X84974569Y-56055720D01*
X84817000Y-56436126D01*
X84505000Y-56436126D01*
X84505000Y-50275866D01*
X84995000Y-50275866D01*
X84995000Y-51324134D01*
X85396155Y-52292608D01*
X86137392Y-53033845D01*
X87105866Y-53435000D01*
X88154134Y-53435000D01*
X89122608Y-53033845D01*
X89863845Y-52292608D01*
X89934748Y-52121433D01*
X89945925Y-52475451D01*
X90171227Y-53019379D01*
X90451053Y-53133342D01*
X91514395Y-52070000D01*
X91873605Y-52070000D01*
X92936947Y-53133342D01*
X93216773Y-53019379D01*
X93464170Y-52364371D01*
X93445583Y-51775629D01*
X95003830Y-51775629D01*
X95025925Y-52475451D01*
X95251227Y-53019379D01*
X95531053Y-53133342D01*
X96594395Y-52070000D01*
X96953605Y-52070000D01*
X98016947Y-53133342D01*
X98296773Y-53019379D01*
X98419088Y-52695538D01*
X98553227Y-53019379D01*
X98833053Y-53133342D01*
X99896395Y-52070000D01*
X100255605Y-52070000D01*
X101318947Y-53133342D01*
X101598773Y-53019379D01*
X101846170Y-52364371D01*
X101827583Y-51775629D01*
X103385830Y-51775629D01*
X103407925Y-52475451D01*
X103633227Y-53019379D01*
X103913053Y-53133342D01*
X104976395Y-52070000D01*
X105335605Y-52070000D01*
X106398947Y-53133342D01*
X106678773Y-53019379D01*
X106801088Y-52695538D01*
X106935227Y-53019379D01*
X107215053Y-53133342D01*
X108278395Y-52070000D01*
X107215053Y-51006658D01*
X106935227Y-51120621D01*
X106812912Y-51444462D01*
X106678773Y-51120621D01*
X106398947Y-51006658D01*
X105335605Y-52070000D01*
X104976395Y-52070000D01*
X103913053Y-51006658D01*
X103633227Y-51120621D01*
X103385830Y-51775629D01*
X101827583Y-51775629D01*
X101824075Y-51664549D01*
X101598773Y-51120621D01*
X101318947Y-51006658D01*
X100255605Y-52070000D01*
X99896395Y-52070000D01*
X98833053Y-51006658D01*
X98553227Y-51120621D01*
X98430912Y-51444462D01*
X98296773Y-51120621D01*
X98016947Y-51006658D01*
X96953605Y-52070000D01*
X96594395Y-52070000D01*
X95531053Y-51006658D01*
X95251227Y-51120621D01*
X95003830Y-51775629D01*
X93445583Y-51775629D01*
X93442075Y-51664549D01*
X93216773Y-51120621D01*
X92936947Y-51006658D01*
X91873605Y-52070000D01*
X91514395Y-52070000D01*
X90451053Y-51006658D01*
X90265000Y-51082431D01*
X90265000Y-50827053D01*
X90630658Y-50827053D01*
X91694000Y-51890395D01*
X92757342Y-50827053D01*
X92643379Y-50547227D01*
X91988371Y-50299830D01*
X91288549Y-50321925D01*
X90744621Y-50547227D01*
X90630658Y-50827053D01*
X90265000Y-50827053D01*
X90265000Y-50275866D01*
X89863845Y-49307392D01*
X89756259Y-49199806D01*
X92574000Y-49199806D01*
X92574000Y-49860194D01*
X92826720Y-50470314D01*
X93293686Y-50937280D01*
X93903806Y-51190000D01*
X94564194Y-51190000D01*
X95174314Y-50937280D01*
X95284541Y-50827053D01*
X95710658Y-50827053D01*
X96774000Y-51890395D01*
X97837342Y-50827053D01*
X99012658Y-50827053D01*
X100076000Y-51890395D01*
X101139342Y-50827053D01*
X101025379Y-50547227D01*
X100370371Y-50299830D01*
X99670549Y-50321925D01*
X99126621Y-50547227D01*
X99012658Y-50827053D01*
X97837342Y-50827053D01*
X97723379Y-50547227D01*
X97068371Y-50299830D01*
X96368549Y-50321925D01*
X95824621Y-50547227D01*
X95710658Y-50827053D01*
X95284541Y-50827053D01*
X95641280Y-50470314D01*
X95894000Y-49860194D01*
X95894000Y-49199806D01*
X100956000Y-49199806D01*
X100956000Y-49860194D01*
X101208720Y-50470314D01*
X101675686Y-50937280D01*
X102285806Y-51190000D01*
X102946194Y-51190000D01*
X103556314Y-50937280D01*
X103666541Y-50827053D01*
X104092658Y-50827053D01*
X105156000Y-51890395D01*
X106219342Y-50827053D01*
X107394658Y-50827053D01*
X108458000Y-51890395D01*
X109521342Y-50827053D01*
X109407379Y-50547227D01*
X108752371Y-50299830D01*
X108052549Y-50321925D01*
X107508621Y-50547227D01*
X107394658Y-50827053D01*
X106219342Y-50827053D01*
X106105379Y-50547227D01*
X105450371Y-50299830D01*
X104750549Y-50321925D01*
X104206621Y-50547227D01*
X104092658Y-50827053D01*
X103666541Y-50827053D01*
X104023280Y-50470314D01*
X104276000Y-49860194D01*
X104276000Y-49199806D01*
X104023280Y-48589686D01*
X103666541Y-48232947D01*
X104092658Y-48232947D01*
X104206621Y-48512773D01*
X104861629Y-48760170D01*
X105561451Y-48738075D01*
X106105379Y-48512773D01*
X106219342Y-48232947D01*
X107394658Y-48232947D01*
X107508621Y-48512773D01*
X108163629Y-48760170D01*
X108863451Y-48738075D01*
X109407379Y-48512773D01*
X109521342Y-48232947D01*
X108458000Y-47169605D01*
X107394658Y-48232947D01*
X106219342Y-48232947D01*
X105156000Y-47169605D01*
X104092658Y-48232947D01*
X103666541Y-48232947D01*
X103556314Y-48122720D01*
X102946194Y-47870000D01*
X102285806Y-47870000D01*
X101675686Y-48122720D01*
X101208720Y-48589686D01*
X100956000Y-49199806D01*
X95894000Y-49199806D01*
X95641280Y-48589686D01*
X95284541Y-48232947D01*
X95710658Y-48232947D01*
X95824621Y-48512773D01*
X96479629Y-48760170D01*
X97179451Y-48738075D01*
X97723379Y-48512773D01*
X97837342Y-48232947D01*
X99012658Y-48232947D01*
X99126621Y-48512773D01*
X99781629Y-48760170D01*
X100481451Y-48738075D01*
X101025379Y-48512773D01*
X101139342Y-48232947D01*
X100076000Y-47169605D01*
X99012658Y-48232947D01*
X97837342Y-48232947D01*
X96774000Y-47169605D01*
X95710658Y-48232947D01*
X95284541Y-48232947D01*
X95174314Y-48122720D01*
X94564194Y-47870000D01*
X93903806Y-47870000D01*
X93293686Y-48122720D01*
X92826720Y-48589686D01*
X92574000Y-49199806D01*
X89756259Y-49199806D01*
X89122608Y-48566155D01*
X88318173Y-48232947D01*
X90630658Y-48232947D01*
X90744621Y-48512773D01*
X91399629Y-48760170D01*
X92099451Y-48738075D01*
X92643379Y-48512773D01*
X92757342Y-48232947D01*
X91694000Y-47169605D01*
X90630658Y-48232947D01*
X88318173Y-48232947D01*
X88154134Y-48165000D01*
X87105866Y-48165000D01*
X86137392Y-48566155D01*
X85396155Y-49307392D01*
X84995000Y-50275866D01*
X84505000Y-50275866D01*
X84505000Y-45897000D01*
X90421392Y-45897000D01*
X90451051Y-45926659D01*
X90451051Y-45926659D01*
G37*
X90451051Y-45926659D02*
X90171227Y-46040621D01*
X89923830Y-46695629D01*
X89945925Y-47395451D01*
X90171227Y-47939379D01*
X90451053Y-48053342D01*
X91514395Y-46990000D01*
X91500253Y-46975858D01*
X91679858Y-46796253D01*
X91694000Y-46810395D01*
X91708143Y-46796253D01*
X91887748Y-46975858D01*
X91873605Y-46990000D01*
X92936947Y-48053342D01*
X93216773Y-47939379D01*
X93464170Y-47284371D01*
X93442075Y-46584549D01*
X93216773Y-46040621D01*
X92936949Y-45926659D01*
X92966608Y-45897000D01*
X95501392Y-45897000D01*
X95531051Y-45926659D01*
X95251227Y-46040621D01*
X95003830Y-46695629D01*
X95025925Y-47395451D01*
X95251227Y-47939379D01*
X95531053Y-48053342D01*
X96594395Y-46990000D01*
X96580253Y-46975858D01*
X96759858Y-46796253D01*
X96774000Y-46810395D01*
X96788143Y-46796253D01*
X96967748Y-46975858D01*
X96953605Y-46990000D01*
X98016947Y-48053342D01*
X98296773Y-47939379D01*
X98419088Y-47615538D01*
X98553227Y-47939379D01*
X98833053Y-48053342D01*
X99896395Y-46990000D01*
X99882253Y-46975858D01*
X100061858Y-46796253D01*
X100076000Y-46810395D01*
X100090143Y-46796253D01*
X100269748Y-46975858D01*
X100255605Y-46990000D01*
X101318947Y-48053342D01*
X101598773Y-47939379D01*
X101846170Y-47284371D01*
X101824075Y-46584549D01*
X101598773Y-46040621D01*
X101318949Y-45926659D01*
X101348608Y-45897000D01*
X103883392Y-45897000D01*
X103913051Y-45926659D01*
X103633227Y-46040621D01*
X103385830Y-46695629D01*
X103407925Y-47395451D01*
X103633227Y-47939379D01*
X103913053Y-48053342D01*
X104976395Y-46990000D01*
X104962253Y-46975858D01*
X105141858Y-46796253D01*
X105156000Y-46810395D01*
X105170143Y-46796253D01*
X105349748Y-46975858D01*
X105335605Y-46990000D01*
X106398947Y-48053342D01*
X106678773Y-47939379D01*
X106801088Y-47615538D01*
X106935227Y-47939379D01*
X107215053Y-48053342D01*
X108278395Y-46990000D01*
X108264253Y-46975858D01*
X108443858Y-46796253D01*
X108458000Y-46810395D01*
X108472143Y-46796253D01*
X108651748Y-46975858D01*
X108637605Y-46990000D01*
X109700947Y-48053342D01*
X109980773Y-47939379D01*
X110228170Y-47284371D01*
X110206075Y-46584549D01*
X109980773Y-46040621D01*
X109700949Y-45926659D01*
X109730608Y-45897000D01*
X112265392Y-45897000D01*
X112295051Y-45926659D01*
X112015227Y-46040621D01*
X111767830Y-46695629D01*
X111789925Y-47395451D01*
X112015227Y-47939379D01*
X112295053Y-48053342D01*
X113358395Y-46990000D01*
X113344253Y-46975858D01*
X113523858Y-46796253D01*
X113538000Y-46810395D01*
X113552143Y-46796253D01*
X113731748Y-46975858D01*
X113717605Y-46990000D01*
X114780947Y-48053342D01*
X115060773Y-47939379D01*
X115308170Y-47284371D01*
X115286075Y-46584549D01*
X115060773Y-46040621D01*
X114780949Y-45926659D01*
X114810608Y-45897000D01*
X155779000Y-45897000D01*
X155779001Y-55812534D01*
X155779000Y-55812539D01*
X155779001Y-91263000D01*
X119645463Y-91263000D01*
X119838809Y-91133809D01*
X119979157Y-90923765D01*
X120028440Y-90676000D01*
X120696041Y-90676000D01*
X120835414Y-90884586D01*
X121126564Y-91079127D01*
X121469999Y-91147440D01*
X122370001Y-91147440D01*
X122713436Y-91079127D01*
X123004586Y-90884586D01*
X123137946Y-90685000D01*
X128948153Y-90685000D01*
X129023000Y-90699888D01*
X129097847Y-90685000D01*
X129097852Y-90685000D01*
X129319537Y-90640904D01*
X129570929Y-90472929D01*
X129613331Y-90409470D01*
X130532473Y-89490329D01*
X130595929Y-89447929D01*
X130763904Y-89196537D01*
X130808000Y-88974852D01*
X130808000Y-88974847D01*
X130822888Y-88900000D01*
X130808000Y-88825153D01*
X130808000Y-88400231D01*
X131133044Y-88183044D01*
X131318000Y-87906237D01*
X131502956Y-88183044D01*
X132000779Y-88515678D01*
X132588000Y-88632484D01*
X133175222Y-88515678D01*
X133673044Y-88183044D01*
X133858000Y-87906237D01*
X134042956Y-88183044D01*
X134540779Y-88515678D01*
X135128000Y-88632484D01*
X135715222Y-88515678D01*
X136213044Y-88183044D01*
X136398000Y-87906237D01*
X136582956Y-88183044D01*
X137080779Y-88515678D01*
X137668000Y-88632484D01*
X138255222Y-88515678D01*
X138753044Y-88183044D01*
X139085678Y-87685221D01*
X139173000Y-87246225D01*
X139173000Y-86489774D01*
X139085678Y-86050778D01*
X138942079Y-85835866D01*
X149765000Y-85835866D01*
X149765000Y-86884134D01*
X150166155Y-87852608D01*
X150907392Y-88593845D01*
X151875866Y-88995000D01*
X152924134Y-88995000D01*
X153892608Y-88593845D01*
X154633845Y-87852608D01*
X155035000Y-86884134D01*
X155035000Y-85835866D01*
X154633845Y-84867392D01*
X153892608Y-84126155D01*
X152924134Y-83725000D01*
X151875866Y-83725000D01*
X150907392Y-84126155D01*
X150166155Y-84867392D01*
X149765000Y-85835866D01*
X138942079Y-85835866D01*
X138753044Y-85552956D01*
X138255221Y-85220322D01*
X137668000Y-85103516D01*
X137080778Y-85220322D01*
X136582956Y-85552956D01*
X136398000Y-85829763D01*
X136213044Y-85552956D01*
X135715221Y-85220322D01*
X135128000Y-85103516D01*
X134540778Y-85220322D01*
X134042956Y-85552956D01*
X133858000Y-85829763D01*
X133673044Y-85552956D01*
X133348000Y-85335769D01*
X133348000Y-84910846D01*
X133362888Y-84835999D01*
X133348000Y-84761152D01*
X133348000Y-84761148D01*
X133303904Y-84539463D01*
X133223518Y-84419157D01*
X133178329Y-84351526D01*
X133178327Y-84351524D01*
X133135929Y-84288071D01*
X133072475Y-84245673D01*
X132670330Y-83843529D01*
X132627929Y-83780071D01*
X132376537Y-83612096D01*
X132154852Y-83568000D01*
X132154847Y-83568000D01*
X132080000Y-83553112D01*
X132005153Y-83568000D01*
X130393404Y-83568000D01*
X130474698Y-83534327D01*
X130653327Y-83355699D01*
X130750000Y-83122310D01*
X130750000Y-82581750D01*
X130591250Y-82423000D01*
X129667000Y-82423000D01*
X129667000Y-82443000D01*
X129413000Y-82443000D01*
X129413000Y-82423000D01*
X129393000Y-82423000D01*
X129393000Y-82169000D01*
X129413000Y-82169000D01*
X129413000Y-81119750D01*
X129667000Y-81119750D01*
X129667000Y-82169000D01*
X130591250Y-82169000D01*
X130750000Y-82010250D01*
X130750000Y-81469690D01*
X130653327Y-81236301D01*
X130474698Y-81057673D01*
X130241309Y-80961000D01*
X129825750Y-80961000D01*
X129667000Y-81119750D01*
X129413000Y-81119750D01*
X129254250Y-80961000D01*
X128838691Y-80961000D01*
X128605302Y-81057673D01*
X128450377Y-81212597D01*
X128449586Y-81211414D01*
X128158436Y-81016873D01*
X127815001Y-80948560D01*
X127164999Y-80948560D01*
X127012440Y-80978906D01*
X127012440Y-80771000D01*
X126963157Y-80523235D01*
X126822809Y-80313191D01*
X126612765Y-80172843D01*
X126365000Y-80123560D01*
X125568253Y-80123560D01*
X125623127Y-80041436D01*
X125691440Y-79698001D01*
X125691440Y-79100362D01*
X125812978Y-78978824D01*
X125958448Y-79007759D01*
X127508448Y-79007759D01*
X127756213Y-78958476D01*
X127966257Y-78818128D01*
X128106605Y-78608084D01*
X128155888Y-78360319D01*
X128155888Y-78311599D01*
X128191720Y-78347431D01*
X128572126Y-78505000D01*
X128738198Y-78505000D01*
X128777990Y-78544792D01*
X128820390Y-78608248D01*
X129071782Y-78776223D01*
X129293467Y-78820319D01*
X129293471Y-78820319D01*
X129368318Y-78835207D01*
X129443165Y-78820319D01*
X130903918Y-78820319D01*
X131110683Y-78958476D01*
X131358448Y-79007759D01*
X132908448Y-79007759D01*
X133156213Y-78958476D01*
X133366257Y-78818128D01*
X133506605Y-78608084D01*
X133555888Y-78360319D01*
X133555888Y-77760319D01*
X133514117Y-77550319D01*
X135017834Y-77550319D01*
X135092681Y-77565207D01*
X135167528Y-77550319D01*
X135167533Y-77550319D01*
X135389218Y-77506223D01*
X135623021Y-77350000D01*
X135999560Y-77350000D01*
X135999560Y-79350000D01*
X136048843Y-79597765D01*
X136189191Y-79807809D01*
X136399235Y-79948157D01*
X136647000Y-79997440D01*
X137297000Y-79997440D01*
X137544765Y-79948157D01*
X137754809Y-79807809D01*
X137895157Y-79597765D01*
X137944440Y-79350000D01*
X137944440Y-79151229D01*
X138031537Y-79133904D01*
X138282929Y-78965929D01*
X138325331Y-78902470D01*
X139251802Y-77976000D01*
X145989199Y-77976000D01*
X146366356Y-78353157D01*
X146234956Y-78440956D01*
X146191414Y-78506122D01*
X146034586Y-78271414D01*
X145743436Y-78076873D01*
X145400001Y-78008560D01*
X144159999Y-78008560D01*
X143816564Y-78076873D01*
X143525414Y-78271414D01*
X143330873Y-78562564D01*
X143262560Y-78905999D01*
X143262560Y-80606001D01*
X143330873Y-80949436D01*
X143525414Y-81240586D01*
X143816564Y-81435127D01*
X144159999Y-81503440D01*
X145400001Y-81503440D01*
X145743436Y-81435127D01*
X146034586Y-81240586D01*
X146191413Y-81005878D01*
X146234956Y-81071044D01*
X146732779Y-81403678D01*
X147320000Y-81520484D01*
X147907222Y-81403678D01*
X148405044Y-81071044D01*
X148737678Y-80573221D01*
X148825000Y-80134225D01*
X148825000Y-80041750D01*
X149879000Y-80041750D01*
X149879000Y-80982310D01*
X149975673Y-81215699D01*
X150154302Y-81394327D01*
X150387691Y-81491000D01*
X151098250Y-81491000D01*
X151257000Y-81332250D01*
X151257000Y-79883000D01*
X150037750Y-79883000D01*
X149879000Y-80041750D01*
X148825000Y-80041750D01*
X148825000Y-79377774D01*
X148737678Y-78938778D01*
X148405044Y-78440956D01*
X148094587Y-78233515D01*
X148094888Y-78232000D01*
X148080000Y-78157153D01*
X148080000Y-78157148D01*
X148035904Y-77935463D01*
X147867929Y-77684071D01*
X147804473Y-77641671D01*
X146894331Y-76731530D01*
X146851929Y-76668071D01*
X146600537Y-76500096D01*
X146378852Y-76456000D01*
X146378847Y-76456000D01*
X146304000Y-76441112D01*
X146229153Y-76456000D01*
X139011848Y-76456000D01*
X138937000Y-76441112D01*
X138862152Y-76456000D01*
X138862148Y-76456000D01*
X138689615Y-76490319D01*
X138640462Y-76500096D01*
X138453418Y-76625076D01*
X138389071Y-76668071D01*
X138346671Y-76731527D01*
X137908564Y-77169635D01*
X137895157Y-77102235D01*
X137754809Y-76892191D01*
X137544765Y-76751843D01*
X137297000Y-76702560D01*
X136647000Y-76702560D01*
X136399235Y-76751843D01*
X136189191Y-76892191D01*
X136048843Y-77102235D01*
X135999560Y-77350000D01*
X135623021Y-77350000D01*
X135640610Y-77338248D01*
X135683012Y-77274789D01*
X136388645Y-76569156D01*
X136594765Y-76528157D01*
X136804809Y-76387809D01*
X136945157Y-76177765D01*
X136966942Y-76068241D01*
X137058673Y-76289698D01*
X137237301Y-76468327D01*
X137470690Y-76565000D01*
X137636250Y-76565000D01*
X137795000Y-76406250D01*
X137795000Y-75057000D01*
X138049000Y-75057000D01*
X138049000Y-76406250D01*
X138207750Y-76565000D01*
X138373310Y-76565000D01*
X138606699Y-76468327D01*
X138785327Y-76289698D01*
X138882000Y-76056309D01*
X138882000Y-75215750D01*
X138723250Y-75057000D01*
X138049000Y-75057000D01*
X137795000Y-75057000D01*
X137775000Y-75057000D01*
X137775000Y-74803000D01*
X137795000Y-74803000D01*
X137795000Y-73453750D01*
X138049000Y-73453750D01*
X138049000Y-74803000D01*
X138723250Y-74803000D01*
X138882000Y-74644250D01*
X138882000Y-73803691D01*
X138785327Y-73570302D01*
X138606699Y-73391673D01*
X138373310Y-73295000D01*
X138207750Y-73295000D01*
X138049000Y-73453750D01*
X137795000Y-73453750D01*
X137636250Y-73295000D01*
X137470690Y-73295000D01*
X137237301Y-73391673D01*
X137058673Y-73570302D01*
X136966942Y-73791759D01*
X136945157Y-73682235D01*
X136804809Y-73472191D01*
X136594765Y-73331843D01*
X136347000Y-73282560D01*
X135697000Y-73282560D01*
X135449235Y-73331843D01*
X135239191Y-73472191D01*
X135098843Y-73682235D01*
X135049560Y-73930000D01*
X135049560Y-75758639D01*
X134777880Y-76030319D01*
X133514117Y-76030319D01*
X133555888Y-75820319D01*
X133555888Y-75220319D01*
X133506605Y-74972554D01*
X133453680Y-74893347D01*
X133543448Y-74676629D01*
X133543448Y-74536069D01*
X133384698Y-74377319D01*
X132260448Y-74377319D01*
X132260448Y-74397319D01*
X132006448Y-74397319D01*
X132006448Y-74377319D01*
X130882198Y-74377319D01*
X130723448Y-74536069D01*
X130723448Y-74676629D01*
X130758114Y-74760319D01*
X129395392Y-74760319D01*
X129401431Y-74754280D01*
X129559000Y-74373874D01*
X129559000Y-73962126D01*
X129501791Y-73824009D01*
X130723448Y-73824009D01*
X130723448Y-73964569D01*
X130882198Y-74123319D01*
X132006448Y-74123319D01*
X132006448Y-73474069D01*
X132260448Y-73474069D01*
X132260448Y-74123319D01*
X133384698Y-74123319D01*
X133543448Y-73964569D01*
X133543448Y-73824009D01*
X133446775Y-73590620D01*
X133268146Y-73411992D01*
X133034757Y-73315319D01*
X132419198Y-73315319D01*
X132260448Y-73474069D01*
X132006448Y-73474069D01*
X131847698Y-73315319D01*
X131232139Y-73315319D01*
X130998750Y-73411992D01*
X130820121Y-73590620D01*
X130723448Y-73824009D01*
X129501791Y-73824009D01*
X129401431Y-73581720D01*
X129110280Y-73290569D01*
X128729874Y-73133000D01*
X128318126Y-73133000D01*
X127937720Y-73290569D01*
X127828096Y-73400193D01*
X127756213Y-73352162D01*
X127508448Y-73302879D01*
X126385809Y-73302879D01*
X126258460Y-73175530D01*
X126216058Y-73112071D01*
X125964666Y-72944096D01*
X125742981Y-72900000D01*
X125742976Y-72900000D01*
X125668129Y-72885112D01*
X125593282Y-72900000D01*
X118946846Y-72900000D01*
X118871999Y-72885112D01*
X118797152Y-72900000D01*
X118797148Y-72900000D01*
X118575463Y-72944096D01*
X118512902Y-72985898D01*
X118387526Y-73069671D01*
X118387524Y-73069673D01*
X118324071Y-73112071D01*
X118281672Y-73175525D01*
X117773671Y-73683528D01*
X117648097Y-73871463D01*
X117608839Y-74068826D01*
X117439862Y-74181733D01*
X117245321Y-74472883D01*
X117177008Y-74816318D01*
X117177008Y-75716320D01*
X117245321Y-76059755D01*
X117439862Y-76350905D01*
X117731012Y-76545446D01*
X118074447Y-76613759D01*
X118724449Y-76613759D01*
X119067884Y-76545446D01*
X119158943Y-76484602D01*
X119116873Y-76547564D01*
X119048560Y-76890999D01*
X119048560Y-77541001D01*
X119116873Y-77884436D01*
X119311414Y-78175586D01*
X119312597Y-78176377D01*
X119157673Y-78331302D01*
X119061000Y-78564691D01*
X119061000Y-78980250D01*
X119219750Y-79139000D01*
X120269000Y-79139000D01*
X120269000Y-79119000D01*
X120523000Y-79119000D01*
X120523000Y-79139000D01*
X121572250Y-79139000D01*
X121590250Y-79121000D01*
X122292000Y-79121000D01*
X122292000Y-79101000D01*
X122546000Y-79101000D01*
X122546000Y-79121000D01*
X122566000Y-79121000D01*
X122566000Y-79375000D01*
X122546000Y-79375000D01*
X122546000Y-79395000D01*
X122292000Y-79395000D01*
X122292000Y-79375000D01*
X121367750Y-79375000D01*
X121349750Y-79393000D01*
X120523000Y-79393000D01*
X120523000Y-80317250D01*
X120681750Y-80476000D01*
X121222310Y-80476000D01*
X121400264Y-80402289D01*
X121484302Y-80486327D01*
X121717691Y-80583000D01*
X121944955Y-80583000D01*
X121907560Y-80771000D01*
X121907560Y-83821000D01*
X121956843Y-84068765D01*
X122018641Y-84161252D01*
X121677078Y-84502815D01*
X121666000Y-84529560D01*
X121654922Y-84502815D01*
X121237185Y-84085078D01*
X121221241Y-84078474D01*
X121393765Y-84044157D01*
X121603809Y-83903809D01*
X121744157Y-83693765D01*
X121793440Y-83446000D01*
X121793440Y-82446000D01*
X121766064Y-82308368D01*
X121781000Y-82272309D01*
X121781000Y-81931750D01*
X121622250Y-81773000D01*
X120523000Y-81773000D01*
X120523000Y-81793000D01*
X120269000Y-81793000D01*
X120269000Y-81773000D01*
X119169750Y-81773000D01*
X119011000Y-81931750D01*
X119011000Y-82272309D01*
X119025936Y-82308368D01*
X118998560Y-82446000D01*
X118998560Y-83446000D01*
X119047843Y-83693765D01*
X119188191Y-83903809D01*
X119398235Y-84044157D01*
X119570759Y-84078474D01*
X119554815Y-84085078D01*
X119137078Y-84502815D01*
X119126000Y-84529560D01*
X119114922Y-84502815D01*
X118697185Y-84085078D01*
X118151385Y-83859000D01*
X117560615Y-83859000D01*
X117014815Y-84085078D01*
X116597078Y-84502815D01*
X116586000Y-84529560D01*
X116574922Y-84502815D01*
X116157185Y-84085078D01*
X115611385Y-83859000D01*
X115020615Y-83859000D01*
X114474815Y-84085078D01*
X114057078Y-84502815D01*
X113831000Y-85048615D01*
X113831000Y-85639385D01*
X114057078Y-86185185D01*
X114474815Y-86602922D01*
X115020615Y-86829000D01*
X115611385Y-86829000D01*
X115698061Y-86793098D01*
X115683560Y-86866000D01*
X115683560Y-88386000D01*
X115732843Y-88633765D01*
X115824541Y-88771000D01*
X115732843Y-88908235D01*
X115683560Y-89156000D01*
X115683560Y-90676000D01*
X115732843Y-90923765D01*
X115873191Y-91133809D01*
X116066537Y-91263000D01*
X84505000Y-91263000D01*
X84505000Y-86137750D01*
X84855000Y-86137750D01*
X84855000Y-87078310D01*
X84951673Y-87311699D01*
X85130302Y-87490327D01*
X85363691Y-87587000D01*
X86074250Y-87587000D01*
X86233000Y-87428250D01*
X86233000Y-85979000D01*
X85013750Y-85979000D01*
X84855000Y-86137750D01*
X84505000Y-86137750D01*
X84505000Y-84625690D01*
X84855000Y-84625690D01*
X84855000Y-85566250D01*
X85013750Y-85725000D01*
X86233000Y-85725000D01*
X86233000Y-84275750D01*
X86487000Y-84275750D01*
X86487000Y-85725000D01*
X86507000Y-85725000D01*
X86507000Y-85979000D01*
X86487000Y-85979000D01*
X86487000Y-87428250D01*
X86645750Y-87587000D01*
X87356309Y-87587000D01*
X87589698Y-87490327D01*
X87768327Y-87311699D01*
X87825364Y-87173999D01*
X88312779Y-87499678D01*
X88900000Y-87616484D01*
X89487222Y-87499678D01*
X89985044Y-87167044D01*
X90317678Y-86669221D01*
X90405000Y-86230225D01*
X90405000Y-85473774D01*
X90317678Y-85034778D01*
X90295776Y-85001999D01*
X90938560Y-85001999D01*
X90938560Y-86702001D01*
X91006873Y-87045436D01*
X91201414Y-87336586D01*
X91492564Y-87531127D01*
X91835999Y-87599440D01*
X93076001Y-87599440D01*
X93419436Y-87531127D01*
X93710586Y-87336586D01*
X93867413Y-87101878D01*
X93910956Y-87167044D01*
X94408779Y-87499678D01*
X94996000Y-87616484D01*
X95583222Y-87499678D01*
X96081044Y-87167044D01*
X96413678Y-86669221D01*
X96501000Y-86230225D01*
X96501000Y-85835866D01*
X96679000Y-85835866D01*
X96679000Y-86884134D01*
X97080155Y-87852608D01*
X97821392Y-88593845D01*
X98789866Y-88995000D01*
X99838134Y-88995000D01*
X100806608Y-88593845D01*
X101547845Y-87852608D01*
X101949000Y-86884134D01*
X101949000Y-86387958D01*
X104291647Y-86387958D01*
X104371920Y-86639259D01*
X104927279Y-86840718D01*
X105517458Y-86814315D01*
X105940080Y-86639259D01*
X106020353Y-86387958D01*
X105156000Y-85523605D01*
X104291647Y-86387958D01*
X101949000Y-86387958D01*
X101949000Y-85835866D01*
X101650524Y-85115279D01*
X103659282Y-85115279D01*
X103685685Y-85705458D01*
X103860741Y-86128080D01*
X104112042Y-86208353D01*
X104976395Y-85344000D01*
X105335605Y-85344000D01*
X106199958Y-86208353D01*
X106417845Y-86138753D01*
X106437078Y-86185185D01*
X106854815Y-86602922D01*
X107400615Y-86829000D01*
X107991385Y-86829000D01*
X108537185Y-86602922D01*
X108954922Y-86185185D01*
X108966000Y-86158440D01*
X108977078Y-86185185D01*
X109394815Y-86602922D01*
X109940615Y-86829000D01*
X110531385Y-86829000D01*
X111077185Y-86602922D01*
X111494922Y-86185185D01*
X111721000Y-85639385D01*
X111721000Y-85048615D01*
X111494922Y-84502815D01*
X111077185Y-84085078D01*
X110531385Y-83859000D01*
X109940615Y-83859000D01*
X109394815Y-84085078D01*
X108977078Y-84502815D01*
X108966000Y-84529560D01*
X108954922Y-84502815D01*
X108537185Y-84085078D01*
X107991385Y-83859000D01*
X107400615Y-83859000D01*
X106854815Y-84085078D01*
X106437078Y-84502815D01*
X106417845Y-84549247D01*
X106199958Y-84479647D01*
X105335605Y-85344000D01*
X104976395Y-85344000D01*
X104112042Y-84479647D01*
X103860741Y-84559920D01*
X103659282Y-85115279D01*
X101650524Y-85115279D01*
X101547845Y-84867392D01*
X100980495Y-84300042D01*
X104291647Y-84300042D01*
X105156000Y-85164395D01*
X106020353Y-84300042D01*
X105940080Y-84048741D01*
X105384721Y-83847282D01*
X104794542Y-83873685D01*
X104371920Y-84048741D01*
X104291647Y-84300042D01*
X100980495Y-84300042D01*
X100806608Y-84126155D01*
X99838134Y-83725000D01*
X98789866Y-83725000D01*
X97821392Y-84126155D01*
X97080155Y-84867392D01*
X96679000Y-85835866D01*
X96501000Y-85835866D01*
X96501000Y-85473774D01*
X96413678Y-85034778D01*
X96081044Y-84536956D01*
X95583221Y-84204322D01*
X94996000Y-84087516D01*
X94408778Y-84204322D01*
X93910956Y-84536956D01*
X93867414Y-84602122D01*
X93710586Y-84367414D01*
X93419436Y-84172873D01*
X93076001Y-84104560D01*
X91835999Y-84104560D01*
X91492564Y-84172873D01*
X91201414Y-84367414D01*
X91006873Y-84658564D01*
X90938560Y-85001999D01*
X90295776Y-85001999D01*
X89985044Y-84536956D01*
X89487221Y-84204322D01*
X88900000Y-84087516D01*
X88312778Y-84204322D01*
X87825364Y-84530001D01*
X87768327Y-84392301D01*
X87589698Y-84213673D01*
X87356309Y-84117000D01*
X86645750Y-84117000D01*
X86487000Y-84275750D01*
X86233000Y-84275750D01*
X86074250Y-84117000D01*
X85363691Y-84117000D01*
X85130302Y-84213673D01*
X84951673Y-84392301D01*
X84855000Y-84625690D01*
X84505000Y-84625690D01*
X84505000Y-81019691D01*
X119011000Y-81019691D01*
X119011000Y-81360250D01*
X119169750Y-81519000D01*
X120269000Y-81519000D01*
X120269000Y-80669750D01*
X120523000Y-80669750D01*
X120523000Y-81519000D01*
X121622250Y-81519000D01*
X121781000Y-81360250D01*
X121781000Y-81019691D01*
X121684327Y-80786302D01*
X121505699Y-80607673D01*
X121272310Y-80511000D01*
X120681750Y-80511000D01*
X120523000Y-80669750D01*
X120269000Y-80669750D01*
X120110250Y-80511000D01*
X119519690Y-80511000D01*
X119286301Y-80607673D01*
X119107673Y-80786302D01*
X119011000Y-81019691D01*
X84505000Y-81019691D01*
X84505000Y-79551750D01*
X119061000Y-79551750D01*
X119061000Y-79967309D01*
X119157673Y-80200698D01*
X119336301Y-80379327D01*
X119569690Y-80476000D01*
X120110250Y-80476000D01*
X120269000Y-80317250D01*
X120269000Y-79393000D01*
X119219750Y-79393000D01*
X119061000Y-79551750D01*
X84505000Y-79551750D01*
X84505000Y-76993750D01*
X84855000Y-76993750D01*
X84855000Y-77934310D01*
X84951673Y-78167699D01*
X85130302Y-78346327D01*
X85363691Y-78443000D01*
X86074250Y-78443000D01*
X86233000Y-78284250D01*
X86233000Y-76835000D01*
X85013750Y-76835000D01*
X84855000Y-76993750D01*
X84505000Y-76993750D01*
X84505000Y-75481690D01*
X84855000Y-75481690D01*
X84855000Y-76422250D01*
X85013750Y-76581000D01*
X86233000Y-76581000D01*
X86233000Y-75131750D01*
X86487000Y-75131750D01*
X86487000Y-76581000D01*
X86507000Y-76581000D01*
X86507000Y-76835000D01*
X86487000Y-76835000D01*
X86487000Y-78284250D01*
X86645750Y-78443000D01*
X87356309Y-78443000D01*
X87589698Y-78346327D01*
X87768327Y-78167699D01*
X87825364Y-78029999D01*
X88312779Y-78355678D01*
X88900000Y-78472484D01*
X89487222Y-78355678D01*
X89985044Y-78023044D01*
X90317678Y-77525221D01*
X90405000Y-77086225D01*
X90405000Y-76329774D01*
X90317678Y-75890778D01*
X90295776Y-75857999D01*
X90938560Y-75857999D01*
X90938560Y-77558001D01*
X91006873Y-77901436D01*
X91201414Y-78192586D01*
X91492564Y-78387127D01*
X91835999Y-78455440D01*
X93076001Y-78455440D01*
X93419436Y-78387127D01*
X93710586Y-78192586D01*
X93867413Y-77957878D01*
X93910956Y-78023044D01*
X94408779Y-78355678D01*
X94996000Y-78472484D01*
X95583222Y-78355678D01*
X96081044Y-78023044D01*
X96413678Y-77525221D01*
X96501000Y-77086225D01*
X96501000Y-76329774D01*
X96413678Y-75890778D01*
X96391776Y-75857999D01*
X97034560Y-75857999D01*
X97034560Y-77558001D01*
X97102873Y-77901436D01*
X97297414Y-78192586D01*
X97588564Y-78387127D01*
X97931999Y-78455440D01*
X99172001Y-78455440D01*
X99515436Y-78387127D01*
X99806586Y-78192586D01*
X99963413Y-77957878D01*
X100006956Y-78023044D01*
X100504779Y-78355678D01*
X101092000Y-78472484D01*
X101679222Y-78355678D01*
X102177044Y-78023044D01*
X102509678Y-77525221D01*
X102597000Y-77086225D01*
X102597000Y-76329774D01*
X102509678Y-75890778D01*
X102177044Y-75392956D01*
X101852000Y-75175769D01*
X101852000Y-74113799D01*
X105618560Y-70347240D01*
X105618560Y-72110000D01*
X105667843Y-72357765D01*
X105808191Y-72567809D01*
X106018235Y-72708157D01*
X106266000Y-72757440D01*
X111666000Y-72757440D01*
X111913765Y-72708157D01*
X112123809Y-72567809D01*
X112264157Y-72357765D01*
X112313440Y-72110000D01*
X112313440Y-71137887D01*
X112316126Y-71139000D01*
X112727874Y-71139000D01*
X113108280Y-70981431D01*
X113399431Y-70690280D01*
X113557000Y-70309874D01*
X113557000Y-69898126D01*
X113399431Y-69517720D01*
X113108280Y-69226569D01*
X113068279Y-69210000D01*
X118826560Y-69210000D01*
X118826560Y-72110000D01*
X118875843Y-72357765D01*
X119016191Y-72567809D01*
X119226235Y-72708157D01*
X119474000Y-72757440D01*
X124874000Y-72757440D01*
X125121765Y-72708157D01*
X125331809Y-72567809D01*
X125472157Y-72357765D01*
X125521440Y-72110000D01*
X125521440Y-71139000D01*
X125681874Y-71139000D01*
X126062280Y-70981431D01*
X126353431Y-70690280D01*
X126511000Y-70309874D01*
X126511000Y-69898126D01*
X126353431Y-69517720D01*
X126062280Y-69226569D01*
X126022279Y-69210000D01*
X132034560Y-69210000D01*
X132034560Y-72110000D01*
X132083843Y-72357765D01*
X132224191Y-72567809D01*
X132434235Y-72708157D01*
X132682000Y-72757440D01*
X138082000Y-72757440D01*
X138329765Y-72708157D01*
X138539809Y-72567809D01*
X138637403Y-72421750D01*
X143275000Y-72421750D01*
X143275000Y-73362310D01*
X143371673Y-73595699D01*
X143550302Y-73774327D01*
X143783691Y-73871000D01*
X144494250Y-73871000D01*
X144653000Y-73712250D01*
X144653000Y-72263000D01*
X143433750Y-72263000D01*
X143275000Y-72421750D01*
X138637403Y-72421750D01*
X138680157Y-72357765D01*
X138729440Y-72110000D01*
X138729440Y-70909690D01*
X143275000Y-70909690D01*
X143275000Y-71850250D01*
X143433750Y-72009000D01*
X144653000Y-72009000D01*
X144653000Y-70559750D01*
X144494250Y-70401000D01*
X143783691Y-70401000D01*
X143550302Y-70497673D01*
X143371673Y-70676301D01*
X143275000Y-70909690D01*
X138729440Y-70909690D01*
X138729440Y-70102000D01*
X139250289Y-70102000D01*
X139367720Y-70219431D01*
X139748126Y-70377000D01*
X140159874Y-70377000D01*
X140540280Y-70219431D01*
X140831431Y-69928280D01*
X140989000Y-69547874D01*
X140989000Y-69136126D01*
X140831431Y-68755720D01*
X140540280Y-68464569D01*
X140159874Y-68307000D01*
X139748126Y-68307000D01*
X139367720Y-68464569D01*
X139250289Y-68582000D01*
X138179733Y-68582000D01*
X138082000Y-68562560D01*
X132682000Y-68562560D01*
X132434235Y-68611843D01*
X132224191Y-68752191D01*
X132083843Y-68962235D01*
X132034560Y-69210000D01*
X126022279Y-69210000D01*
X125681874Y-69069000D01*
X125493394Y-69069000D01*
X125472157Y-68962235D01*
X125331809Y-68752191D01*
X125121765Y-68611843D01*
X124874000Y-68562560D01*
X119474000Y-68562560D01*
X119226235Y-68611843D01*
X119016191Y-68752191D01*
X118875843Y-68962235D01*
X118826560Y-69210000D01*
X113068279Y-69210000D01*
X112727874Y-69069000D01*
X112316126Y-69069000D01*
X112287733Y-69080761D01*
X112264157Y-68962235D01*
X112123809Y-68752191D01*
X111913765Y-68611843D01*
X111666000Y-68562560D01*
X107403240Y-68562560D01*
X109165800Y-66800000D01*
X114612289Y-66800000D01*
X114729720Y-66917431D01*
X115110126Y-67075000D01*
X115521874Y-67075000D01*
X115902280Y-66917431D01*
X116019711Y-66800000D01*
X127820289Y-66800000D01*
X127937720Y-66917431D01*
X128318126Y-67075000D01*
X128729874Y-67075000D01*
X129110280Y-66917431D01*
X129227711Y-66800000D01*
X141028289Y-66800000D01*
X141145720Y-66917431D01*
X141526126Y-67075000D01*
X141937874Y-67075000D01*
X142318280Y-66917431D01*
X142609431Y-66626280D01*
X142767000Y-66245874D01*
X142767000Y-65834126D01*
X142609431Y-65453720D01*
X142318280Y-65162569D01*
X141937874Y-65005000D01*
X141526126Y-65005000D01*
X141145720Y-65162569D01*
X141028289Y-65280000D01*
X129227711Y-65280000D01*
X129110280Y-65162569D01*
X128729874Y-65005000D01*
X128318126Y-65005000D01*
X127937720Y-65162569D01*
X127820289Y-65280000D01*
X116019711Y-65280000D01*
X115902280Y-65162569D01*
X115521874Y-65005000D01*
X115110126Y-65005000D01*
X114729720Y-65162569D01*
X114612289Y-65280000D01*
X108925844Y-65280000D01*
X108850997Y-65265112D01*
X108776150Y-65280000D01*
X108776146Y-65280000D01*
X108554461Y-65324096D01*
X108303069Y-65492071D01*
X108260669Y-65555527D01*
X100607528Y-73208669D01*
X100544072Y-73251069D01*
X100501672Y-73314525D01*
X100501671Y-73314526D01*
X100376097Y-73502461D01*
X100317112Y-73798998D01*
X100332001Y-73873850D01*
X100332001Y-75175768D01*
X100006956Y-75392956D01*
X99963414Y-75458122D01*
X99806586Y-75223414D01*
X99515436Y-75028873D01*
X99172001Y-74960560D01*
X97931999Y-74960560D01*
X97588564Y-75028873D01*
X97297414Y-75223414D01*
X97102873Y-75514564D01*
X97034560Y-75857999D01*
X96391776Y-75857999D01*
X96081044Y-75392956D01*
X95583221Y-75060322D01*
X94996000Y-74943516D01*
X94408778Y-75060322D01*
X93910956Y-75392956D01*
X93867414Y-75458122D01*
X93710586Y-75223414D01*
X93419436Y-75028873D01*
X93076001Y-74960560D01*
X91835999Y-74960560D01*
X91492564Y-75028873D01*
X91201414Y-75223414D01*
X91006873Y-75514564D01*
X90938560Y-75857999D01*
X90295776Y-75857999D01*
X89985044Y-75392956D01*
X89487221Y-75060322D01*
X88900000Y-74943516D01*
X88312778Y-75060322D01*
X87825364Y-75386001D01*
X87768327Y-75248301D01*
X87589698Y-75069673D01*
X87356309Y-74973000D01*
X86645750Y-74973000D01*
X86487000Y-75131750D01*
X86233000Y-75131750D01*
X86074250Y-74973000D01*
X85363691Y-74973000D01*
X85130302Y-75069673D01*
X84951673Y-75248301D01*
X84855000Y-75481690D01*
X84505000Y-75481690D01*
X84505000Y-67849750D01*
X84855000Y-67849750D01*
X84855000Y-68790310D01*
X84951673Y-69023699D01*
X85130302Y-69202327D01*
X85363691Y-69299000D01*
X86074250Y-69299000D01*
X86233000Y-69140250D01*
X86233000Y-67691000D01*
X85013750Y-67691000D01*
X84855000Y-67849750D01*
X84505000Y-67849750D01*
X84505000Y-66337690D01*
X84855000Y-66337690D01*
X84855000Y-67278250D01*
X85013750Y-67437000D01*
X86233000Y-67437000D01*
X86233000Y-65987750D01*
X86074250Y-65829000D01*
X85363691Y-65829000D01*
X85130302Y-65925673D01*
X84951673Y-66104301D01*
X84855000Y-66337690D01*
X84505000Y-66337690D01*
X84505000Y-64197690D01*
X88706000Y-64197690D01*
X88706000Y-64738250D01*
X88864750Y-64897000D01*
X89789000Y-64897000D01*
X89789000Y-63847750D01*
X89630250Y-63689000D01*
X89214691Y-63689000D01*
X88981302Y-63785673D01*
X88802673Y-63964301D01*
X88706000Y-64197690D01*
X84505000Y-64197690D01*
X84505000Y-56436126D01*
X84817000Y-56436126D01*
X84817000Y-56847874D01*
X84974569Y-57228280D01*
X85092001Y-57345712D01*
X85092000Y-60132153D01*
X85077112Y-60207000D01*
X85092000Y-60281847D01*
X85092000Y-60281851D01*
X85136096Y-60503536D01*
X85304071Y-60754929D01*
X85367530Y-60797331D01*
X86268671Y-61698473D01*
X86311071Y-61761929D01*
X86529701Y-61908013D01*
X86510843Y-61936235D01*
X86461560Y-62184000D01*
X86461560Y-62784000D01*
X86510843Y-63031765D01*
X86651191Y-63241809D01*
X86861235Y-63382157D01*
X87109000Y-63431440D01*
X88659000Y-63431440D01*
X88906765Y-63382157D01*
X89116809Y-63241809D01*
X89257157Y-63031765D01*
X89306440Y-62784000D01*
X89306440Y-62184000D01*
X89257157Y-61936235D01*
X89198868Y-61849000D01*
X89257157Y-61761765D01*
X89306440Y-61514000D01*
X89306440Y-60914000D01*
X89257157Y-60666235D01*
X89198868Y-60579000D01*
X89257157Y-60491765D01*
X89306440Y-60244000D01*
X89306440Y-60071361D01*
X90540000Y-58837801D01*
X90540001Y-59475149D01*
X90525112Y-59550000D01*
X90540001Y-59624852D01*
X90584097Y-59846537D01*
X90752072Y-60097929D01*
X90815528Y-60140329D01*
X91103669Y-60428470D01*
X91146071Y-60491929D01*
X91397463Y-60659904D01*
X91619148Y-60704000D01*
X91619152Y-60704000D01*
X91693999Y-60718888D01*
X91768846Y-60704000D01*
X91908666Y-60704000D01*
X91874000Y-60787690D01*
X91874000Y-60928250D01*
X92032750Y-61087000D01*
X93157000Y-61087000D01*
X93157000Y-61067000D01*
X93411000Y-61067000D01*
X93411000Y-61087000D01*
X93431000Y-61087000D01*
X93431000Y-61341000D01*
X93411000Y-61341000D01*
X93411000Y-61361000D01*
X93157000Y-61361000D01*
X93157000Y-61341000D01*
X92032750Y-61341000D01*
X91874000Y-61499750D01*
X91874000Y-61640310D01*
X91963768Y-61857028D01*
X91910843Y-61936235D01*
X91861560Y-62184000D01*
X91861560Y-62784000D01*
X91910843Y-63031765D01*
X92051191Y-63241809D01*
X92261235Y-63382157D01*
X92509000Y-63431440D01*
X92524001Y-63431440D01*
X92524000Y-63722906D01*
X92291001Y-63676560D01*
X91640999Y-63676560D01*
X91297564Y-63744873D01*
X91006414Y-63939414D01*
X91005623Y-63940597D01*
X90850698Y-63785673D01*
X90617309Y-63689000D01*
X90201750Y-63689000D01*
X90043000Y-63847750D01*
X90043000Y-64897000D01*
X90063000Y-64897000D01*
X90063000Y-65151000D01*
X90043000Y-65151000D01*
X90043000Y-65171000D01*
X89789000Y-65171000D01*
X89789000Y-65151000D01*
X88864750Y-65151000D01*
X88706000Y-65309750D01*
X88706000Y-65838105D01*
X88312778Y-65916322D01*
X87825364Y-66242001D01*
X87768327Y-66104301D01*
X87589698Y-65925673D01*
X87356309Y-65829000D01*
X86645750Y-65829000D01*
X86487000Y-65987750D01*
X86487000Y-67437000D01*
X86507000Y-67437000D01*
X86507000Y-67691000D01*
X86487000Y-67691000D01*
X86487000Y-69140250D01*
X86645750Y-69299000D01*
X87356309Y-69299000D01*
X87589698Y-69202327D01*
X87768327Y-69023699D01*
X87825364Y-68885999D01*
X88312779Y-69211678D01*
X88900000Y-69328484D01*
X89487222Y-69211678D01*
X89985044Y-68879044D01*
X90317678Y-68381221D01*
X90405000Y-67942225D01*
X90405000Y-67185774D01*
X90317678Y-66746778D01*
X90043002Y-66335696D01*
X90043002Y-66200252D01*
X90201750Y-66359000D01*
X90617309Y-66359000D01*
X90850698Y-66262327D01*
X91005623Y-66107403D01*
X91006414Y-66108586D01*
X91127750Y-66189660D01*
X91006873Y-66370564D01*
X90938560Y-66713999D01*
X90938560Y-68414001D01*
X91006873Y-68757436D01*
X91201414Y-69048586D01*
X91492564Y-69243127D01*
X91835999Y-69311440D01*
X93076001Y-69311440D01*
X93419436Y-69243127D01*
X93710586Y-69048586D01*
X93867413Y-68813878D01*
X93910956Y-68879044D01*
X94408779Y-69211678D01*
X94996000Y-69328484D01*
X95583222Y-69211678D01*
X96081044Y-68879044D01*
X96233158Y-68651389D01*
X96233158Y-70078600D01*
X96250001Y-70163275D01*
X96250001Y-70410054D01*
X96050414Y-70543414D01*
X95855873Y-70834564D01*
X95787560Y-71177999D01*
X95787560Y-72078001D01*
X95855873Y-72421436D01*
X96050414Y-72712586D01*
X96341564Y-72907127D01*
X96684999Y-72975440D01*
X97335001Y-72975440D01*
X97678436Y-72907127D01*
X97969586Y-72712586D01*
X98035000Y-72614687D01*
X98100414Y-72712586D01*
X98391564Y-72907127D01*
X98734999Y-72975440D01*
X99385001Y-72975440D01*
X99728436Y-72907127D01*
X100019586Y-72712586D01*
X100214127Y-72421436D01*
X100282440Y-72078001D01*
X100282440Y-71177999D01*
X100214127Y-70834564D01*
X100019586Y-70543414D01*
X99871536Y-70444489D01*
X99877727Y-70438298D01*
X99974400Y-70204909D01*
X99974400Y-69627750D01*
X99815650Y-69469000D01*
X99215599Y-69469000D01*
X99215599Y-69215000D01*
X99815650Y-69215000D01*
X99974400Y-69056250D01*
X99974400Y-68637426D01*
X100032301Y-68695327D01*
X100265690Y-68792000D01*
X100806250Y-68792000D01*
X100965000Y-68633250D01*
X100965000Y-67709000D01*
X101219000Y-67709000D01*
X101219000Y-68633250D01*
X101377750Y-68792000D01*
X101918310Y-68792000D01*
X102151699Y-68695327D01*
X102330327Y-68516698D01*
X102427000Y-68283309D01*
X102427000Y-67867750D01*
X102268250Y-67709000D01*
X101219000Y-67709000D01*
X100965000Y-67709000D01*
X100945000Y-67709000D01*
X100945000Y-67455000D01*
X100965000Y-67455000D01*
X100965000Y-67435000D01*
X101219000Y-67435000D01*
X101219000Y-67455000D01*
X102268250Y-67455000D01*
X102427000Y-67296250D01*
X102427000Y-66880691D01*
X102330327Y-66647302D01*
X102175403Y-66492377D01*
X102176586Y-66491586D01*
X102371127Y-66200436D01*
X102439440Y-65857001D01*
X102439440Y-65206999D01*
X102371127Y-64863564D01*
X102176586Y-64572414D01*
X101885436Y-64377873D01*
X101542001Y-64309560D01*
X100641999Y-64309560D01*
X100298564Y-64377873D01*
X100084917Y-64520628D01*
X100027874Y-64497000D01*
X99932802Y-64497000D01*
X100998363Y-63431440D01*
X102121000Y-63431440D01*
X102368765Y-63382157D01*
X102578809Y-63241809D01*
X102719157Y-63031765D01*
X102768440Y-62784000D01*
X102768440Y-62184000D01*
X102719157Y-61936235D01*
X102666232Y-61857028D01*
X102756000Y-61640310D01*
X102756000Y-61499750D01*
X102597250Y-61341000D01*
X101473000Y-61341000D01*
X101473000Y-61361000D01*
X101219000Y-61361000D01*
X101219000Y-61341000D01*
X101199000Y-61341000D01*
X101199000Y-61087000D01*
X101219000Y-61087000D01*
X101219000Y-61067000D01*
X101473000Y-61067000D01*
X101473000Y-61087000D01*
X102597250Y-61087000D01*
X102756000Y-60928250D01*
X102756000Y-60787690D01*
X102742098Y-60754126D01*
X104375000Y-60754126D01*
X104375000Y-61165874D01*
X104532569Y-61546280D01*
X104823720Y-61837431D01*
X105204126Y-61995000D01*
X105615874Y-61995000D01*
X105618560Y-61993887D01*
X105618560Y-62410000D01*
X105667843Y-62657765D01*
X105808191Y-62867809D01*
X106018235Y-63008157D01*
X106266000Y-63057440D01*
X111666000Y-63057440D01*
X111913765Y-63008157D01*
X112123809Y-62867809D01*
X112264157Y-62657765D01*
X112313440Y-62410000D01*
X112313440Y-59510000D01*
X118826560Y-59510000D01*
X118826560Y-62410000D01*
X118875843Y-62657765D01*
X119016191Y-62867809D01*
X119143218Y-62952687D01*
X119107000Y-63040126D01*
X119107000Y-63451874D01*
X119264569Y-63832280D01*
X119555720Y-64123431D01*
X119936126Y-64281000D01*
X120347874Y-64281000D01*
X120728280Y-64123431D01*
X120845711Y-64006000D01*
X121513153Y-64006000D01*
X121588000Y-64020888D01*
X121662847Y-64006000D01*
X121662852Y-64006000D01*
X121884537Y-63961904D01*
X122135929Y-63793929D01*
X122178331Y-63730470D01*
X122658473Y-63250329D01*
X122721929Y-63207929D01*
X122822483Y-63057440D01*
X124874000Y-63057440D01*
X125121765Y-63008157D01*
X125331809Y-62867809D01*
X125472157Y-62657765D01*
X125521440Y-62410000D01*
X125521440Y-61608483D01*
X125671929Y-61507929D01*
X125714331Y-61444470D01*
X127648801Y-59510000D01*
X132034560Y-59510000D01*
X132034560Y-62410000D01*
X132083843Y-62657765D01*
X132224191Y-62867809D01*
X132434235Y-63008157D01*
X132682000Y-63057440D01*
X133077000Y-63057440D01*
X133077000Y-63451874D01*
X133234569Y-63832280D01*
X133525720Y-64123431D01*
X133906126Y-64281000D01*
X134317874Y-64281000D01*
X134698280Y-64123431D01*
X134989431Y-63832280D01*
X135147000Y-63451874D01*
X135147000Y-63285801D01*
X135375362Y-63057440D01*
X138082000Y-63057440D01*
X138329765Y-63008157D01*
X138539809Y-62867809D01*
X138680157Y-62657765D01*
X138729440Y-62410000D01*
X138729440Y-59510000D01*
X138680157Y-59262235D01*
X138539809Y-59052191D01*
X138329765Y-58911843D01*
X138082000Y-58862560D01*
X132682000Y-58862560D01*
X132434235Y-58911843D01*
X132224191Y-59052191D01*
X132083843Y-59262235D01*
X132034560Y-59510000D01*
X127648801Y-59510000D01*
X128486802Y-58672000D01*
X141417199Y-58672000D01*
X148592000Y-65846803D01*
X148592001Y-71100756D01*
X148405044Y-70820956D01*
X147907221Y-70488322D01*
X147320000Y-70371516D01*
X146732778Y-70488322D01*
X146245364Y-70814001D01*
X146188327Y-70676301D01*
X146009698Y-70497673D01*
X145776309Y-70401000D01*
X145065750Y-70401000D01*
X144907000Y-70559750D01*
X144907000Y-72009000D01*
X144927000Y-72009000D01*
X144927000Y-72263000D01*
X144907000Y-72263000D01*
X144907000Y-73712250D01*
X145065750Y-73871000D01*
X145776309Y-73871000D01*
X146009698Y-73774327D01*
X146188327Y-73595699D01*
X146245364Y-73457999D01*
X146732779Y-73783678D01*
X147320000Y-73900484D01*
X147907222Y-73783678D01*
X148405044Y-73451044D01*
X148592001Y-73171243D01*
X148592001Y-74879148D01*
X148577112Y-74954000D01*
X148592001Y-75028852D01*
X148636097Y-75250537D01*
X148804072Y-75501929D01*
X148867528Y-75544329D01*
X151344198Y-78021000D01*
X151256998Y-78021000D01*
X151256998Y-78179748D01*
X151098250Y-78021000D01*
X150387691Y-78021000D01*
X150154302Y-78117673D01*
X149975673Y-78296301D01*
X149879000Y-78529690D01*
X149879000Y-79470250D01*
X150037750Y-79629000D01*
X151257000Y-79629000D01*
X151257000Y-79609000D01*
X151511000Y-79609000D01*
X151511000Y-79629000D01*
X151531000Y-79629000D01*
X151531000Y-79883000D01*
X151511000Y-79883000D01*
X151511000Y-81332250D01*
X151669750Y-81491000D01*
X152380309Y-81491000D01*
X152613698Y-81394327D01*
X152792327Y-81215699D01*
X152849364Y-81077999D01*
X153336779Y-81403678D01*
X153924000Y-81520484D01*
X154511222Y-81403678D01*
X155009044Y-81071044D01*
X155341678Y-80573221D01*
X155429000Y-80134225D01*
X155429000Y-79377774D01*
X155341678Y-78938778D01*
X155009044Y-78440956D01*
X154511221Y-78108322D01*
X153924000Y-77991516D01*
X153540585Y-78067782D01*
X150112000Y-74639199D01*
X150112000Y-73732025D01*
X150154302Y-73774327D01*
X150387691Y-73871000D01*
X151098250Y-73871000D01*
X151257000Y-73712250D01*
X151257000Y-72263000D01*
X151237000Y-72263000D01*
X151237000Y-72009000D01*
X151257000Y-72009000D01*
X151257000Y-70559750D01*
X151511000Y-70559750D01*
X151511000Y-72009000D01*
X151531000Y-72009000D01*
X151531000Y-72263000D01*
X151511000Y-72263000D01*
X151511000Y-73712250D01*
X151669750Y-73871000D01*
X152380309Y-73871000D01*
X152613698Y-73774327D01*
X152792327Y-73595699D01*
X152849364Y-73457999D01*
X153336779Y-73783678D01*
X153924000Y-73900484D01*
X154511222Y-73783678D01*
X155009044Y-73451044D01*
X155341678Y-72953221D01*
X155429000Y-72514225D01*
X155429000Y-71757774D01*
X155341678Y-71318778D01*
X155009044Y-70820956D01*
X154511221Y-70488322D01*
X153924000Y-70371516D01*
X153336778Y-70488322D01*
X152849364Y-70814001D01*
X152792327Y-70676301D01*
X152613698Y-70497673D01*
X152380309Y-70401000D01*
X151669750Y-70401000D01*
X151511000Y-70559750D01*
X151257000Y-70559750D01*
X151098250Y-70401000D01*
X150387691Y-70401000D01*
X150154302Y-70497673D01*
X150112000Y-70539975D01*
X150112000Y-65606846D01*
X150126888Y-65531999D01*
X150112000Y-65457152D01*
X150112000Y-65457148D01*
X150067904Y-65235463D01*
X149994826Y-65126094D01*
X149942329Y-65047526D01*
X149942327Y-65047524D01*
X149899929Y-64984071D01*
X149836476Y-64941673D01*
X142322331Y-57427530D01*
X142279929Y-57364071D01*
X142028537Y-57196096D01*
X141806852Y-57152000D01*
X141806847Y-57152000D01*
X141732000Y-57137112D01*
X141657153Y-57152000D01*
X128246847Y-57152000D01*
X128172000Y-57137112D01*
X128097153Y-57152000D01*
X128097148Y-57152000D01*
X127875463Y-57196096D01*
X127624071Y-57364071D01*
X127581671Y-57427527D01*
X125517750Y-59491449D01*
X125472157Y-59262235D01*
X125331809Y-59052191D01*
X125121765Y-58911843D01*
X124874000Y-58862560D01*
X119474000Y-58862560D01*
X119226235Y-58911843D01*
X119016191Y-59052191D01*
X118875843Y-59262235D01*
X118826560Y-59510000D01*
X112313440Y-59510000D01*
X112264157Y-59262235D01*
X112123809Y-59052191D01*
X111913765Y-58911843D01*
X111666000Y-58862560D01*
X106266000Y-58862560D01*
X106018235Y-58911843D01*
X105808191Y-59052191D01*
X105667843Y-59262235D01*
X105618560Y-59510000D01*
X105618560Y-59926113D01*
X105615874Y-59925000D01*
X105204126Y-59925000D01*
X104823720Y-60082569D01*
X104532569Y-60373720D01*
X104375000Y-60754126D01*
X102742098Y-60754126D01*
X102666232Y-60570972D01*
X102719157Y-60491765D01*
X102768440Y-60244000D01*
X102768440Y-59644000D01*
X102719157Y-59396235D01*
X102660868Y-59309000D01*
X102719157Y-59221765D01*
X102768440Y-58974000D01*
X102768440Y-58374000D01*
X102719157Y-58126235D01*
X102578809Y-57916191D01*
X102368765Y-57775843D01*
X102121000Y-57726560D01*
X100571000Y-57726560D01*
X100323235Y-57775843D01*
X100113191Y-57916191D01*
X99972843Y-58126235D01*
X99958628Y-58197699D01*
X99958628Y-57481440D01*
X100147001Y-57481440D01*
X100490436Y-57413127D01*
X100781586Y-57218586D01*
X100847000Y-57120687D01*
X100912414Y-57218586D01*
X101203564Y-57413127D01*
X101546999Y-57481440D01*
X102197001Y-57481440D01*
X102540436Y-57413127D01*
X102831586Y-57218586D01*
X103026127Y-56927436D01*
X103094440Y-56584001D01*
X103094440Y-55986362D01*
X103710803Y-55370000D01*
X109399153Y-55370000D01*
X109474000Y-55384888D01*
X109548847Y-55370000D01*
X109548852Y-55370000D01*
X109770537Y-55325904D01*
X110021929Y-55157929D01*
X110064331Y-55094470D01*
X111482476Y-53676327D01*
X111545929Y-53633929D01*
X111588327Y-53570476D01*
X111588329Y-53570474D01*
X111713903Y-53382538D01*
X111713904Y-53382537D01*
X111727746Y-53312947D01*
X112474658Y-53312947D01*
X112588621Y-53592773D01*
X113243629Y-53840170D01*
X113943451Y-53818075D01*
X114487379Y-53592773D01*
X114601342Y-53312947D01*
X113538000Y-52249605D01*
X112474658Y-53312947D01*
X111727746Y-53312947D01*
X111758000Y-53160852D01*
X111758000Y-53160848D01*
X111772888Y-53086001D01*
X111758000Y-53011154D01*
X111758000Y-51775629D01*
X111767830Y-51775629D01*
X111789925Y-52475451D01*
X112015227Y-53019379D01*
X112295053Y-53133342D01*
X113358395Y-52070000D01*
X113717605Y-52070000D01*
X114780947Y-53133342D01*
X115060773Y-53019379D01*
X115308170Y-52364371D01*
X115286075Y-51664549D01*
X115060773Y-51120621D01*
X114780947Y-51006658D01*
X113717605Y-52070000D01*
X113358395Y-52070000D01*
X112295053Y-51006658D01*
X112015227Y-51120621D01*
X111767830Y-51775629D01*
X111758000Y-51775629D01*
X111758000Y-51011969D01*
X111938314Y-50937280D01*
X112048541Y-50827053D01*
X112474658Y-50827053D01*
X113538000Y-51890395D01*
X114601342Y-50827053D01*
X114487379Y-50547227D01*
X113832371Y-50299830D01*
X113132549Y-50321925D01*
X112588621Y-50547227D01*
X112474658Y-50827053D01*
X112048541Y-50827053D01*
X112405280Y-50470314D01*
X112485823Y-50275866D01*
X149765000Y-50275866D01*
X149765000Y-51324134D01*
X150166155Y-52292608D01*
X150907392Y-53033845D01*
X151875866Y-53435000D01*
X152924134Y-53435000D01*
X153892608Y-53033845D01*
X154633845Y-52292608D01*
X155035000Y-51324134D01*
X155035000Y-50275866D01*
X154633845Y-49307392D01*
X153892608Y-48566155D01*
X152924134Y-48165000D01*
X151875866Y-48165000D01*
X150907392Y-48566155D01*
X150166155Y-49307392D01*
X149765000Y-50275866D01*
X112485823Y-50275866D01*
X112658000Y-49860194D01*
X112658000Y-49199806D01*
X112405280Y-48589686D01*
X112048541Y-48232947D01*
X112474658Y-48232947D01*
X112588621Y-48512773D01*
X113243629Y-48760170D01*
X113943451Y-48738075D01*
X114487379Y-48512773D01*
X114601342Y-48232947D01*
X113538000Y-47169605D01*
X112474658Y-48232947D01*
X112048541Y-48232947D01*
X111938314Y-48122720D01*
X111328194Y-47870000D01*
X110667806Y-47870000D01*
X110057686Y-48122720D01*
X109590720Y-48589686D01*
X109338000Y-49199806D01*
X109338000Y-49860194D01*
X109590720Y-50470314D01*
X110057686Y-50937280D01*
X110238000Y-51011969D01*
X110238001Y-52771196D01*
X109788403Y-53220795D01*
X109700949Y-53133341D01*
X109980773Y-53019379D01*
X110228170Y-52364371D01*
X110206075Y-51664549D01*
X109980773Y-51120621D01*
X109700947Y-51006658D01*
X108637605Y-52070000D01*
X108651748Y-52084143D01*
X108472143Y-52263748D01*
X108458000Y-52249605D01*
X107394658Y-53312947D01*
X107508621Y-53592773D01*
X108163629Y-53840170D01*
X108863451Y-53818075D01*
X109407379Y-53592773D01*
X109521341Y-53312949D01*
X109608795Y-53400403D01*
X109159199Y-53850000D01*
X103470846Y-53850000D01*
X103395999Y-53835112D01*
X103321152Y-53850000D01*
X103321148Y-53850000D01*
X103099463Y-53894096D01*
X103099461Y-53894097D01*
X103099462Y-53894097D01*
X102911526Y-54019671D01*
X102911524Y-54019673D01*
X102848071Y-54062071D01*
X102805673Y-54125524D01*
X102144638Y-54786560D01*
X101599362Y-54786560D01*
X100684331Y-53871530D01*
X100641929Y-53808071D01*
X100589759Y-53773212D01*
X101025379Y-53592773D01*
X101139342Y-53312947D01*
X104092658Y-53312947D01*
X104206621Y-53592773D01*
X104861629Y-53840170D01*
X105561451Y-53818075D01*
X106105379Y-53592773D01*
X106219342Y-53312947D01*
X105156000Y-52249605D01*
X104092658Y-53312947D01*
X101139342Y-53312947D01*
X100076000Y-52249605D01*
X99012658Y-53312947D01*
X99126621Y-53592773D01*
X99135165Y-53596000D01*
X98626846Y-53596000D01*
X98551999Y-53581112D01*
X98477152Y-53596000D01*
X98477148Y-53596000D01*
X98255463Y-53640096D01*
X98004071Y-53808071D01*
X97961669Y-53871530D01*
X97813528Y-54019671D01*
X97750072Y-54062071D01*
X97707672Y-54125527D01*
X97707671Y-54125528D01*
X97582097Y-54313463D01*
X97523112Y-54610000D01*
X97538001Y-54684852D01*
X97538000Y-58928106D01*
X97363164Y-59000525D01*
X97368440Y-58974000D01*
X97368440Y-58374000D01*
X97319157Y-58126235D01*
X97178809Y-57916191D01*
X96968765Y-57775843D01*
X96721000Y-57726560D01*
X96674799Y-57726560D01*
X96783127Y-57564436D01*
X96851440Y-57221001D01*
X96851440Y-56570999D01*
X96783127Y-56227564D01*
X96588586Y-55936414D01*
X96490687Y-55871000D01*
X96588586Y-55805586D01*
X96783127Y-55514436D01*
X96851440Y-55171001D01*
X96851440Y-54520999D01*
X96783127Y-54177564D01*
X96588586Y-53886414D01*
X96517584Y-53838972D01*
X97179451Y-53818075D01*
X97723379Y-53592773D01*
X97837342Y-53312947D01*
X96774000Y-52249605D01*
X95710658Y-53312947D01*
X95824621Y-53592773D01*
X95906133Y-53623560D01*
X95053999Y-53623560D01*
X94710564Y-53691873D01*
X94419414Y-53886414D01*
X94224873Y-54177564D01*
X94176768Y-54419406D01*
X94165185Y-54402071D01*
X93913793Y-54234096D01*
X93692108Y-54190000D01*
X93692103Y-54190000D01*
X93617256Y-54175112D01*
X93542409Y-54190000D01*
X92427975Y-54190000D01*
X92057378Y-53819403D01*
X92099451Y-53818075D01*
X92643379Y-53592773D01*
X92757342Y-53312947D01*
X91694000Y-52249605D01*
X90630658Y-53312947D01*
X90744621Y-53592773D01*
X90924286Y-53660632D01*
X90543783Y-53818242D01*
X90168242Y-54193783D01*
X89965000Y-54684452D01*
X89965000Y-55215548D01*
X90168242Y-55706217D01*
X90540000Y-56077975D01*
X90540000Y-56115000D01*
X90218126Y-56115000D01*
X89837720Y-56272569D01*
X89546569Y-56563720D01*
X89389000Y-56944126D01*
X89389000Y-57355874D01*
X89530562Y-57697636D01*
X89194995Y-58033203D01*
X89116809Y-57916191D01*
X88906765Y-57775843D01*
X88659000Y-57726560D01*
X87109000Y-57726560D01*
X86861235Y-57775843D01*
X86651191Y-57916191D01*
X86612000Y-57974844D01*
X86612000Y-57345711D01*
X86729431Y-57228280D01*
X86887000Y-56847874D01*
X86887000Y-56436126D01*
X86781170Y-56180629D01*
X87182481Y-55912481D01*
X87477542Y-55470891D01*
X87581154Y-54950000D01*
X87477542Y-54429109D01*
X87182481Y-53987519D01*
X86740891Y-53692458D01*
X86351485Y-53615000D01*
X86088515Y-53615000D01*
X85699109Y-53692458D01*
X85257519Y-53987519D01*
X84962458Y-54429109D01*
X84858846Y-54950000D01*
X84962458Y-55470891D01*
X85201559Y-55828730D01*
X84974569Y-56055720D01*
X84817000Y-56436126D01*
X84505000Y-56436126D01*
X84505000Y-50275866D01*
X84995000Y-50275866D01*
X84995000Y-51324134D01*
X85396155Y-52292608D01*
X86137392Y-53033845D01*
X87105866Y-53435000D01*
X88154134Y-53435000D01*
X89122608Y-53033845D01*
X89863845Y-52292608D01*
X89934748Y-52121433D01*
X89945925Y-52475451D01*
X90171227Y-53019379D01*
X90451053Y-53133342D01*
X91514395Y-52070000D01*
X91873605Y-52070000D01*
X92936947Y-53133342D01*
X93216773Y-53019379D01*
X93464170Y-52364371D01*
X93445583Y-51775629D01*
X95003830Y-51775629D01*
X95025925Y-52475451D01*
X95251227Y-53019379D01*
X95531053Y-53133342D01*
X96594395Y-52070000D01*
X96953605Y-52070000D01*
X98016947Y-53133342D01*
X98296773Y-53019379D01*
X98419088Y-52695538D01*
X98553227Y-53019379D01*
X98833053Y-53133342D01*
X99896395Y-52070000D01*
X100255605Y-52070000D01*
X101318947Y-53133342D01*
X101598773Y-53019379D01*
X101846170Y-52364371D01*
X101827583Y-51775629D01*
X103385830Y-51775629D01*
X103407925Y-52475451D01*
X103633227Y-53019379D01*
X103913053Y-53133342D01*
X104976395Y-52070000D01*
X105335605Y-52070000D01*
X106398947Y-53133342D01*
X106678773Y-53019379D01*
X106801088Y-52695538D01*
X106935227Y-53019379D01*
X107215053Y-53133342D01*
X108278395Y-52070000D01*
X107215053Y-51006658D01*
X106935227Y-51120621D01*
X106812912Y-51444462D01*
X106678773Y-51120621D01*
X106398947Y-51006658D01*
X105335605Y-52070000D01*
X104976395Y-52070000D01*
X103913053Y-51006658D01*
X103633227Y-51120621D01*
X103385830Y-51775629D01*
X101827583Y-51775629D01*
X101824075Y-51664549D01*
X101598773Y-51120621D01*
X101318947Y-51006658D01*
X100255605Y-52070000D01*
X99896395Y-52070000D01*
X98833053Y-51006658D01*
X98553227Y-51120621D01*
X98430912Y-51444462D01*
X98296773Y-51120621D01*
X98016947Y-51006658D01*
X96953605Y-52070000D01*
X96594395Y-52070000D01*
X95531053Y-51006658D01*
X95251227Y-51120621D01*
X95003830Y-51775629D01*
X93445583Y-51775629D01*
X93442075Y-51664549D01*
X93216773Y-51120621D01*
X92936947Y-51006658D01*
X91873605Y-52070000D01*
X91514395Y-52070000D01*
X90451053Y-51006658D01*
X90265000Y-51082431D01*
X90265000Y-50827053D01*
X90630658Y-50827053D01*
X91694000Y-51890395D01*
X92757342Y-50827053D01*
X92643379Y-50547227D01*
X91988371Y-50299830D01*
X91288549Y-50321925D01*
X90744621Y-50547227D01*
X90630658Y-50827053D01*
X90265000Y-50827053D01*
X90265000Y-50275866D01*
X89863845Y-49307392D01*
X89756259Y-49199806D01*
X92574000Y-49199806D01*
X92574000Y-49860194D01*
X92826720Y-50470314D01*
X93293686Y-50937280D01*
X93903806Y-51190000D01*
X94564194Y-51190000D01*
X95174314Y-50937280D01*
X95284541Y-50827053D01*
X95710658Y-50827053D01*
X96774000Y-51890395D01*
X97837342Y-50827053D01*
X99012658Y-50827053D01*
X100076000Y-51890395D01*
X101139342Y-50827053D01*
X101025379Y-50547227D01*
X100370371Y-50299830D01*
X99670549Y-50321925D01*
X99126621Y-50547227D01*
X99012658Y-50827053D01*
X97837342Y-50827053D01*
X97723379Y-50547227D01*
X97068371Y-50299830D01*
X96368549Y-50321925D01*
X95824621Y-50547227D01*
X95710658Y-50827053D01*
X95284541Y-50827053D01*
X95641280Y-50470314D01*
X95894000Y-49860194D01*
X95894000Y-49199806D01*
X100956000Y-49199806D01*
X100956000Y-49860194D01*
X101208720Y-50470314D01*
X101675686Y-50937280D01*
X102285806Y-51190000D01*
X102946194Y-51190000D01*
X103556314Y-50937280D01*
X103666541Y-50827053D01*
X104092658Y-50827053D01*
X105156000Y-51890395D01*
X106219342Y-50827053D01*
X107394658Y-50827053D01*
X108458000Y-51890395D01*
X109521342Y-50827053D01*
X109407379Y-50547227D01*
X108752371Y-50299830D01*
X108052549Y-50321925D01*
X107508621Y-50547227D01*
X107394658Y-50827053D01*
X106219342Y-50827053D01*
X106105379Y-50547227D01*
X105450371Y-50299830D01*
X104750549Y-50321925D01*
X104206621Y-50547227D01*
X104092658Y-50827053D01*
X103666541Y-50827053D01*
X104023280Y-50470314D01*
X104276000Y-49860194D01*
X104276000Y-49199806D01*
X104023280Y-48589686D01*
X103666541Y-48232947D01*
X104092658Y-48232947D01*
X104206621Y-48512773D01*
X104861629Y-48760170D01*
X105561451Y-48738075D01*
X106105379Y-48512773D01*
X106219342Y-48232947D01*
X107394658Y-48232947D01*
X107508621Y-48512773D01*
X108163629Y-48760170D01*
X108863451Y-48738075D01*
X109407379Y-48512773D01*
X109521342Y-48232947D01*
X108458000Y-47169605D01*
X107394658Y-48232947D01*
X106219342Y-48232947D01*
X105156000Y-47169605D01*
X104092658Y-48232947D01*
X103666541Y-48232947D01*
X103556314Y-48122720D01*
X102946194Y-47870000D01*
X102285806Y-47870000D01*
X101675686Y-48122720D01*
X101208720Y-48589686D01*
X100956000Y-49199806D01*
X95894000Y-49199806D01*
X95641280Y-48589686D01*
X95284541Y-48232947D01*
X95710658Y-48232947D01*
X95824621Y-48512773D01*
X96479629Y-48760170D01*
X97179451Y-48738075D01*
X97723379Y-48512773D01*
X97837342Y-48232947D01*
X99012658Y-48232947D01*
X99126621Y-48512773D01*
X99781629Y-48760170D01*
X100481451Y-48738075D01*
X101025379Y-48512773D01*
X101139342Y-48232947D01*
X100076000Y-47169605D01*
X99012658Y-48232947D01*
X97837342Y-48232947D01*
X96774000Y-47169605D01*
X95710658Y-48232947D01*
X95284541Y-48232947D01*
X95174314Y-48122720D01*
X94564194Y-47870000D01*
X93903806Y-47870000D01*
X93293686Y-48122720D01*
X92826720Y-48589686D01*
X92574000Y-49199806D01*
X89756259Y-49199806D01*
X89122608Y-48566155D01*
X88318173Y-48232947D01*
X90630658Y-48232947D01*
X90744621Y-48512773D01*
X91399629Y-48760170D01*
X92099451Y-48738075D01*
X92643379Y-48512773D01*
X92757342Y-48232947D01*
X91694000Y-47169605D01*
X90630658Y-48232947D01*
X88318173Y-48232947D01*
X88154134Y-48165000D01*
X87105866Y-48165000D01*
X86137392Y-48566155D01*
X85396155Y-49307392D01*
X84995000Y-50275866D01*
X84505000Y-50275866D01*
X84505000Y-45897000D01*
X90421392Y-45897000D01*
X90451051Y-45926659D01*
G36*
X128131670Y-84812472D02*
X128174071Y-84875929D01*
X128425463Y-85043904D01*
X128647148Y-85088000D01*
X128647152Y-85088000D01*
X128721999Y-85102888D01*
X128796846Y-85088000D01*
X131765198Y-85088000D01*
X131828000Y-85150802D01*
X131828000Y-85335768D01*
X131502956Y-85552956D01*
X131318000Y-85829763D01*
X131133044Y-85552956D01*
X130635221Y-85220322D01*
X130048000Y-85103516D01*
X129460778Y-85220322D01*
X128973364Y-85546001D01*
X128916327Y-85408301D01*
X128737698Y-85229673D01*
X128504309Y-85133000D01*
X127793750Y-85133000D01*
X127635000Y-85291750D01*
X127635000Y-86741000D01*
X127655000Y-86741000D01*
X127655000Y-86995000D01*
X127635000Y-86995000D01*
X127635000Y-88444250D01*
X127793750Y-88603000D01*
X128504309Y-88603000D01*
X128737698Y-88506327D01*
X128916327Y-88327699D01*
X128973364Y-88189999D01*
X129288001Y-88400231D01*
X129288001Y-88585197D01*
X128708199Y-89165000D01*
X123137946Y-89165000D01*
X123004586Y-88965414D01*
X123003403Y-88964623D01*
X123158327Y-88809698D01*
X123255000Y-88576309D01*
X123255000Y-88160750D01*
X123096250Y-88002000D01*
X122047000Y-88002000D01*
X122047000Y-88022000D01*
X121793000Y-88022000D01*
X121793000Y-88002000D01*
X120743750Y-88002000D01*
X120585000Y-88160750D01*
X120585000Y-88576309D01*
X120681673Y-88809698D01*
X120836597Y-88964623D01*
X120835414Y-88965414D01*
X120708068Y-89156000D01*
X120028440Y-89156000D01*
X119979157Y-88908235D01*
X119887459Y-88771000D01*
X119979157Y-88633765D01*
X120028440Y-88386000D01*
X120028440Y-87173691D01*
X120585000Y-87173691D01*
X120585000Y-87589250D01*
X120743750Y-87748000D01*
X121793000Y-87748000D01*
X121793000Y-86823750D01*
X121634250Y-86665000D01*
X121093690Y-86665000D01*
X120860301Y-86761673D01*
X120681673Y-86940302D01*
X120585000Y-87173691D01*
X120028440Y-87173691D01*
X120028440Y-86866000D01*
X120013939Y-86793098D01*
X120100615Y-86829000D01*
X120691385Y-86829000D01*
X121237185Y-86602922D01*
X121654922Y-86185185D01*
X121666000Y-86158440D01*
X121677078Y-86185185D01*
X122094815Y-86602922D01*
X122244684Y-86665000D01*
X122205750Y-86665000D01*
X122047000Y-86823750D01*
X122047000Y-87748000D01*
X123096250Y-87748000D01*
X123255000Y-87589250D01*
X123255000Y-87173691D01*
X123246741Y-87153750D01*
X126003000Y-87153750D01*
X126003000Y-88094310D01*
X126099673Y-88327699D01*
X126278302Y-88506327D01*
X126511691Y-88603000D01*
X127222250Y-88603000D01*
X127381000Y-88444250D01*
X127381000Y-86995000D01*
X126161750Y-86995000D01*
X126003000Y-87153750D01*
X123246741Y-87153750D01*
X123158327Y-86940302D01*
X123047026Y-86829000D01*
X123231385Y-86829000D01*
X123777185Y-86602922D01*
X124194922Y-86185185D01*
X124420045Y-85641690D01*
X126003000Y-85641690D01*
X126003000Y-86582250D01*
X126161750Y-86741000D01*
X127381000Y-86741000D01*
X127381000Y-85291750D01*
X127222250Y-85133000D01*
X126511691Y-85133000D01*
X126278302Y-85229673D01*
X126099673Y-85408301D01*
X126003000Y-85641690D01*
X124420045Y-85641690D01*
X124421000Y-85639385D01*
X124421000Y-85048615D01*
X124194922Y-84502815D01*
X124146354Y-84454247D01*
X124322765Y-84419157D01*
X124460000Y-84327459D01*
X124597235Y-84419157D01*
X124845000Y-84468440D01*
X126365000Y-84468440D01*
X126612765Y-84419157D01*
X126822809Y-84278809D01*
X126963157Y-84068765D01*
X127012440Y-83821000D01*
X127012440Y-83693241D01*
X128131670Y-84812472D01*
X128131670Y-84812472D01*
G37*
X128131670Y-84812472D02*
X128174071Y-84875929D01*
X128425463Y-85043904D01*
X128647148Y-85088000D01*
X128647152Y-85088000D01*
X128721999Y-85102888D01*
X128796846Y-85088000D01*
X131765198Y-85088000D01*
X131828000Y-85150802D01*
X131828000Y-85335768D01*
X131502956Y-85552956D01*
X131318000Y-85829763D01*
X131133044Y-85552956D01*
X130635221Y-85220322D01*
X130048000Y-85103516D01*
X129460778Y-85220322D01*
X128973364Y-85546001D01*
X128916327Y-85408301D01*
X128737698Y-85229673D01*
X128504309Y-85133000D01*
X127793750Y-85133000D01*
X127635000Y-85291750D01*
X127635000Y-86741000D01*
X127655000Y-86741000D01*
X127655000Y-86995000D01*
X127635000Y-86995000D01*
X127635000Y-88444250D01*
X127793750Y-88603000D01*
X128504309Y-88603000D01*
X128737698Y-88506327D01*
X128916327Y-88327699D01*
X128973364Y-88189999D01*
X129288001Y-88400231D01*
X129288001Y-88585197D01*
X128708199Y-89165000D01*
X123137946Y-89165000D01*
X123004586Y-88965414D01*
X123003403Y-88964623D01*
X123158327Y-88809698D01*
X123255000Y-88576309D01*
X123255000Y-88160750D01*
X123096250Y-88002000D01*
X122047000Y-88002000D01*
X122047000Y-88022000D01*
X121793000Y-88022000D01*
X121793000Y-88002000D01*
X120743750Y-88002000D01*
X120585000Y-88160750D01*
X120585000Y-88576309D01*
X120681673Y-88809698D01*
X120836597Y-88964623D01*
X120835414Y-88965414D01*
X120708068Y-89156000D01*
X120028440Y-89156000D01*
X119979157Y-88908235D01*
X119887459Y-88771000D01*
X119979157Y-88633765D01*
X120028440Y-88386000D01*
X120028440Y-87173691D01*
X120585000Y-87173691D01*
X120585000Y-87589250D01*
X120743750Y-87748000D01*
X121793000Y-87748000D01*
X121793000Y-86823750D01*
X121634250Y-86665000D01*
X121093690Y-86665000D01*
X120860301Y-86761673D01*
X120681673Y-86940302D01*
X120585000Y-87173691D01*
X120028440Y-87173691D01*
X120028440Y-86866000D01*
X120013939Y-86793098D01*
X120100615Y-86829000D01*
X120691385Y-86829000D01*
X121237185Y-86602922D01*
X121654922Y-86185185D01*
X121666000Y-86158440D01*
X121677078Y-86185185D01*
X122094815Y-86602922D01*
X122244684Y-86665000D01*
X122205750Y-86665000D01*
X122047000Y-86823750D01*
X122047000Y-87748000D01*
X123096250Y-87748000D01*
X123255000Y-87589250D01*
X123255000Y-87173691D01*
X123246741Y-87153750D01*
X126003000Y-87153750D01*
X126003000Y-88094310D01*
X126099673Y-88327699D01*
X126278302Y-88506327D01*
X126511691Y-88603000D01*
X127222250Y-88603000D01*
X127381000Y-88444250D01*
X127381000Y-86995000D01*
X126161750Y-86995000D01*
X126003000Y-87153750D01*
X123246741Y-87153750D01*
X123158327Y-86940302D01*
X123047026Y-86829000D01*
X123231385Y-86829000D01*
X123777185Y-86602922D01*
X124194922Y-86185185D01*
X124420045Y-85641690D01*
X126003000Y-85641690D01*
X126003000Y-86582250D01*
X126161750Y-86741000D01*
X127381000Y-86741000D01*
X127381000Y-85291750D01*
X127222250Y-85133000D01*
X126511691Y-85133000D01*
X126278302Y-85229673D01*
X126099673Y-85408301D01*
X126003000Y-85641690D01*
X124420045Y-85641690D01*
X124421000Y-85639385D01*
X124421000Y-85048615D01*
X124194922Y-84502815D01*
X124146354Y-84454247D01*
X124322765Y-84419157D01*
X124460000Y-84327459D01*
X124597235Y-84419157D01*
X124845000Y-84468440D01*
X126365000Y-84468440D01*
X126612765Y-84419157D01*
X126822809Y-84278809D01*
X126963157Y-84068765D01*
X127012440Y-83821000D01*
X127012440Y-83693241D01*
X128131670Y-84812472D01*
G04 #@! TD*
M02*
