G04 #@! TF.GenerationSoftware,KiCad,Pcbnew,5.0.1*
G04 #@! TF.CreationDate,2019-02-21T21:56:02-06:00*
G04 #@! TF.ProjectId,PowerRDP,506F7765725244502E6B696361645F70,2*
G04 #@! TF.SameCoordinates,Original*
G04 #@! TF.FileFunction,Paste,Bot*
G04 #@! TF.FilePolarity,Positive*
%FSLAX46Y46*%
G04 Gerber Fmt 4.6, Leading zero omitted, Abs format (unit mm)*
G04 Created by KiCad (PCBNEW 5.0.1) date Thu 21 Feb 2019 09:56:02 PM CST*
%MOMM*%
%LPD*%
G01*
G04 APERTURE LIST*
%ADD10C,0.100000*%
%ADD11C,1.150000*%
%ADD12R,1.520000X3.050000*%
%ADD13R,3.050000X1.520000*%
%ADD14R,0.650000X2.000000*%
%ADD15R,1.550000X0.600000*%
%ADD16R,5.400000X2.900000*%
%ADD17R,0.558800X1.473200*%
G04 APERTURE END LIST*
D10*
G04 #@! TO.C,C1*
G36*
X127839505Y-81597204D02*
X127863773Y-81600804D01*
X127887572Y-81606765D01*
X127910671Y-81615030D01*
X127932850Y-81625520D01*
X127953893Y-81638132D01*
X127973599Y-81652747D01*
X127991777Y-81669223D01*
X128008253Y-81687401D01*
X128022868Y-81707107D01*
X128035480Y-81728150D01*
X128045970Y-81750329D01*
X128054235Y-81773428D01*
X128060196Y-81797227D01*
X128063796Y-81821495D01*
X128065000Y-81845999D01*
X128065000Y-82746001D01*
X128063796Y-82770505D01*
X128060196Y-82794773D01*
X128054235Y-82818572D01*
X128045970Y-82841671D01*
X128035480Y-82863850D01*
X128022868Y-82884893D01*
X128008253Y-82904599D01*
X127991777Y-82922777D01*
X127973599Y-82939253D01*
X127953893Y-82953868D01*
X127932850Y-82966480D01*
X127910671Y-82976970D01*
X127887572Y-82985235D01*
X127863773Y-82991196D01*
X127839505Y-82994796D01*
X127815001Y-82996000D01*
X127164999Y-82996000D01*
X127140495Y-82994796D01*
X127116227Y-82991196D01*
X127092428Y-82985235D01*
X127069329Y-82976970D01*
X127047150Y-82966480D01*
X127026107Y-82953868D01*
X127006401Y-82939253D01*
X126988223Y-82922777D01*
X126971747Y-82904599D01*
X126957132Y-82884893D01*
X126944520Y-82863850D01*
X126934030Y-82841671D01*
X126925765Y-82818572D01*
X126919804Y-82794773D01*
X126916204Y-82770505D01*
X126915000Y-82746001D01*
X126915000Y-81845999D01*
X126916204Y-81821495D01*
X126919804Y-81797227D01*
X126925765Y-81773428D01*
X126934030Y-81750329D01*
X126944520Y-81728150D01*
X126957132Y-81707107D01*
X126971747Y-81687401D01*
X126988223Y-81669223D01*
X127006401Y-81652747D01*
X127026107Y-81638132D01*
X127047150Y-81625520D01*
X127069329Y-81615030D01*
X127092428Y-81606765D01*
X127116227Y-81600804D01*
X127140495Y-81597204D01*
X127164999Y-81596000D01*
X127815001Y-81596000D01*
X127839505Y-81597204D01*
X127839505Y-81597204D01*
G37*
D11*
X127490000Y-82296000D03*
D10*
G36*
X129889505Y-81597204D02*
X129913773Y-81600804D01*
X129937572Y-81606765D01*
X129960671Y-81615030D01*
X129982850Y-81625520D01*
X130003893Y-81638132D01*
X130023599Y-81652747D01*
X130041777Y-81669223D01*
X130058253Y-81687401D01*
X130072868Y-81707107D01*
X130085480Y-81728150D01*
X130095970Y-81750329D01*
X130104235Y-81773428D01*
X130110196Y-81797227D01*
X130113796Y-81821495D01*
X130115000Y-81845999D01*
X130115000Y-82746001D01*
X130113796Y-82770505D01*
X130110196Y-82794773D01*
X130104235Y-82818572D01*
X130095970Y-82841671D01*
X130085480Y-82863850D01*
X130072868Y-82884893D01*
X130058253Y-82904599D01*
X130041777Y-82922777D01*
X130023599Y-82939253D01*
X130003893Y-82953868D01*
X129982850Y-82966480D01*
X129960671Y-82976970D01*
X129937572Y-82985235D01*
X129913773Y-82991196D01*
X129889505Y-82994796D01*
X129865001Y-82996000D01*
X129214999Y-82996000D01*
X129190495Y-82994796D01*
X129166227Y-82991196D01*
X129142428Y-82985235D01*
X129119329Y-82976970D01*
X129097150Y-82966480D01*
X129076107Y-82953868D01*
X129056401Y-82939253D01*
X129038223Y-82922777D01*
X129021747Y-82904599D01*
X129007132Y-82884893D01*
X128994520Y-82863850D01*
X128984030Y-82841671D01*
X128975765Y-82818572D01*
X128969804Y-82794773D01*
X128966204Y-82770505D01*
X128965000Y-82746001D01*
X128965000Y-81845999D01*
X128966204Y-81821495D01*
X128969804Y-81797227D01*
X128975765Y-81773428D01*
X128984030Y-81750329D01*
X128994520Y-81728150D01*
X129007132Y-81707107D01*
X129021747Y-81687401D01*
X129038223Y-81669223D01*
X129056401Y-81652747D01*
X129076107Y-81638132D01*
X129097150Y-81625520D01*
X129119329Y-81615030D01*
X129142428Y-81606765D01*
X129166227Y-81600804D01*
X129190495Y-81597204D01*
X129214999Y-81596000D01*
X129865001Y-81596000D01*
X129889505Y-81597204D01*
X129889505Y-81597204D01*
G37*
D11*
X129540000Y-82296000D03*
G04 #@! TD*
D10*
G04 #@! TO.C,C2*
G36*
X122394505Y-89351204D02*
X122418773Y-89354804D01*
X122442572Y-89360765D01*
X122465671Y-89369030D01*
X122487850Y-89379520D01*
X122508893Y-89392132D01*
X122528599Y-89406747D01*
X122546777Y-89423223D01*
X122563253Y-89441401D01*
X122577868Y-89461107D01*
X122590480Y-89482150D01*
X122600970Y-89504329D01*
X122609235Y-89527428D01*
X122615196Y-89551227D01*
X122618796Y-89575495D01*
X122620000Y-89599999D01*
X122620000Y-90250001D01*
X122618796Y-90274505D01*
X122615196Y-90298773D01*
X122609235Y-90322572D01*
X122600970Y-90345671D01*
X122590480Y-90367850D01*
X122577868Y-90388893D01*
X122563253Y-90408599D01*
X122546777Y-90426777D01*
X122528599Y-90443253D01*
X122508893Y-90457868D01*
X122487850Y-90470480D01*
X122465671Y-90480970D01*
X122442572Y-90489235D01*
X122418773Y-90495196D01*
X122394505Y-90498796D01*
X122370001Y-90500000D01*
X121469999Y-90500000D01*
X121445495Y-90498796D01*
X121421227Y-90495196D01*
X121397428Y-90489235D01*
X121374329Y-90480970D01*
X121352150Y-90470480D01*
X121331107Y-90457868D01*
X121311401Y-90443253D01*
X121293223Y-90426777D01*
X121276747Y-90408599D01*
X121262132Y-90388893D01*
X121249520Y-90367850D01*
X121239030Y-90345671D01*
X121230765Y-90322572D01*
X121224804Y-90298773D01*
X121221204Y-90274505D01*
X121220000Y-90250001D01*
X121220000Y-89599999D01*
X121221204Y-89575495D01*
X121224804Y-89551227D01*
X121230765Y-89527428D01*
X121239030Y-89504329D01*
X121249520Y-89482150D01*
X121262132Y-89461107D01*
X121276747Y-89441401D01*
X121293223Y-89423223D01*
X121311401Y-89406747D01*
X121331107Y-89392132D01*
X121352150Y-89379520D01*
X121374329Y-89369030D01*
X121397428Y-89360765D01*
X121421227Y-89354804D01*
X121445495Y-89351204D01*
X121469999Y-89350000D01*
X122370001Y-89350000D01*
X122394505Y-89351204D01*
X122394505Y-89351204D01*
G37*
D11*
X121920000Y-89925000D03*
D10*
G36*
X122394505Y-87301204D02*
X122418773Y-87304804D01*
X122442572Y-87310765D01*
X122465671Y-87319030D01*
X122487850Y-87329520D01*
X122508893Y-87342132D01*
X122528599Y-87356747D01*
X122546777Y-87373223D01*
X122563253Y-87391401D01*
X122577868Y-87411107D01*
X122590480Y-87432150D01*
X122600970Y-87454329D01*
X122609235Y-87477428D01*
X122615196Y-87501227D01*
X122618796Y-87525495D01*
X122620000Y-87549999D01*
X122620000Y-88200001D01*
X122618796Y-88224505D01*
X122615196Y-88248773D01*
X122609235Y-88272572D01*
X122600970Y-88295671D01*
X122590480Y-88317850D01*
X122577868Y-88338893D01*
X122563253Y-88358599D01*
X122546777Y-88376777D01*
X122528599Y-88393253D01*
X122508893Y-88407868D01*
X122487850Y-88420480D01*
X122465671Y-88430970D01*
X122442572Y-88439235D01*
X122418773Y-88445196D01*
X122394505Y-88448796D01*
X122370001Y-88450000D01*
X121469999Y-88450000D01*
X121445495Y-88448796D01*
X121421227Y-88445196D01*
X121397428Y-88439235D01*
X121374329Y-88430970D01*
X121352150Y-88420480D01*
X121331107Y-88407868D01*
X121311401Y-88393253D01*
X121293223Y-88376777D01*
X121276747Y-88358599D01*
X121262132Y-88338893D01*
X121249520Y-88317850D01*
X121239030Y-88295671D01*
X121230765Y-88272572D01*
X121224804Y-88248773D01*
X121221204Y-88224505D01*
X121220000Y-88200001D01*
X121220000Y-87549999D01*
X121221204Y-87525495D01*
X121224804Y-87501227D01*
X121230765Y-87477428D01*
X121239030Y-87454329D01*
X121249520Y-87432150D01*
X121262132Y-87411107D01*
X121276747Y-87391401D01*
X121293223Y-87373223D01*
X121311401Y-87356747D01*
X121331107Y-87342132D01*
X121352150Y-87329520D01*
X121374329Y-87319030D01*
X121397428Y-87310765D01*
X121421227Y-87304804D01*
X121445495Y-87301204D01*
X121469999Y-87300000D01*
X122370001Y-87300000D01*
X122394505Y-87301204D01*
X122394505Y-87301204D01*
G37*
D11*
X121920000Y-87875000D03*
G04 #@! TD*
D10*
G04 #@! TO.C,C9*
G36*
X122768505Y-78549204D02*
X122792773Y-78552804D01*
X122816572Y-78558765D01*
X122839671Y-78567030D01*
X122861850Y-78577520D01*
X122882893Y-78590132D01*
X122902599Y-78604747D01*
X122920777Y-78621223D01*
X122937253Y-78639401D01*
X122951868Y-78659107D01*
X122964480Y-78680150D01*
X122974970Y-78702329D01*
X122983235Y-78725428D01*
X122989196Y-78749227D01*
X122992796Y-78773495D01*
X122994000Y-78797999D01*
X122994000Y-79698001D01*
X122992796Y-79722505D01*
X122989196Y-79746773D01*
X122983235Y-79770572D01*
X122974970Y-79793671D01*
X122964480Y-79815850D01*
X122951868Y-79836893D01*
X122937253Y-79856599D01*
X122920777Y-79874777D01*
X122902599Y-79891253D01*
X122882893Y-79905868D01*
X122861850Y-79918480D01*
X122839671Y-79928970D01*
X122816572Y-79937235D01*
X122792773Y-79943196D01*
X122768505Y-79946796D01*
X122744001Y-79948000D01*
X122093999Y-79948000D01*
X122069495Y-79946796D01*
X122045227Y-79943196D01*
X122021428Y-79937235D01*
X121998329Y-79928970D01*
X121976150Y-79918480D01*
X121955107Y-79905868D01*
X121935401Y-79891253D01*
X121917223Y-79874777D01*
X121900747Y-79856599D01*
X121886132Y-79836893D01*
X121873520Y-79815850D01*
X121863030Y-79793671D01*
X121854765Y-79770572D01*
X121848804Y-79746773D01*
X121845204Y-79722505D01*
X121844000Y-79698001D01*
X121844000Y-78797999D01*
X121845204Y-78773495D01*
X121848804Y-78749227D01*
X121854765Y-78725428D01*
X121863030Y-78702329D01*
X121873520Y-78680150D01*
X121886132Y-78659107D01*
X121900747Y-78639401D01*
X121917223Y-78621223D01*
X121935401Y-78604747D01*
X121955107Y-78590132D01*
X121976150Y-78577520D01*
X121998329Y-78567030D01*
X122021428Y-78558765D01*
X122045227Y-78552804D01*
X122069495Y-78549204D01*
X122093999Y-78548000D01*
X122744001Y-78548000D01*
X122768505Y-78549204D01*
X122768505Y-78549204D01*
G37*
D11*
X122419000Y-79248000D03*
D10*
G36*
X124818505Y-78549204D02*
X124842773Y-78552804D01*
X124866572Y-78558765D01*
X124889671Y-78567030D01*
X124911850Y-78577520D01*
X124932893Y-78590132D01*
X124952599Y-78604747D01*
X124970777Y-78621223D01*
X124987253Y-78639401D01*
X125001868Y-78659107D01*
X125014480Y-78680150D01*
X125024970Y-78702329D01*
X125033235Y-78725428D01*
X125039196Y-78749227D01*
X125042796Y-78773495D01*
X125044000Y-78797999D01*
X125044000Y-79698001D01*
X125042796Y-79722505D01*
X125039196Y-79746773D01*
X125033235Y-79770572D01*
X125024970Y-79793671D01*
X125014480Y-79815850D01*
X125001868Y-79836893D01*
X124987253Y-79856599D01*
X124970777Y-79874777D01*
X124952599Y-79891253D01*
X124932893Y-79905868D01*
X124911850Y-79918480D01*
X124889671Y-79928970D01*
X124866572Y-79937235D01*
X124842773Y-79943196D01*
X124818505Y-79946796D01*
X124794001Y-79948000D01*
X124143999Y-79948000D01*
X124119495Y-79946796D01*
X124095227Y-79943196D01*
X124071428Y-79937235D01*
X124048329Y-79928970D01*
X124026150Y-79918480D01*
X124005107Y-79905868D01*
X123985401Y-79891253D01*
X123967223Y-79874777D01*
X123950747Y-79856599D01*
X123936132Y-79836893D01*
X123923520Y-79815850D01*
X123913030Y-79793671D01*
X123904765Y-79770572D01*
X123898804Y-79746773D01*
X123895204Y-79722505D01*
X123894000Y-79698001D01*
X123894000Y-78797999D01*
X123895204Y-78773495D01*
X123898804Y-78749227D01*
X123904765Y-78725428D01*
X123913030Y-78702329D01*
X123923520Y-78680150D01*
X123936132Y-78659107D01*
X123950747Y-78639401D01*
X123967223Y-78621223D01*
X123985401Y-78604747D01*
X124005107Y-78590132D01*
X124026150Y-78577520D01*
X124048329Y-78567030D01*
X124071428Y-78558765D01*
X124095227Y-78552804D01*
X124119495Y-78549204D01*
X124143999Y-78548000D01*
X124794001Y-78548000D01*
X124818505Y-78549204D01*
X124818505Y-78549204D01*
G37*
D11*
X124469000Y-79248000D03*
G04 #@! TD*
D10*
G04 #@! TO.C,C10*
G36*
X120870505Y-78692204D02*
X120894773Y-78695804D01*
X120918572Y-78701765D01*
X120941671Y-78710030D01*
X120963850Y-78720520D01*
X120984893Y-78733132D01*
X121004599Y-78747747D01*
X121022777Y-78764223D01*
X121039253Y-78782401D01*
X121053868Y-78802107D01*
X121066480Y-78823150D01*
X121076970Y-78845329D01*
X121085235Y-78868428D01*
X121091196Y-78892227D01*
X121094796Y-78916495D01*
X121096000Y-78940999D01*
X121096000Y-79591001D01*
X121094796Y-79615505D01*
X121091196Y-79639773D01*
X121085235Y-79663572D01*
X121076970Y-79686671D01*
X121066480Y-79708850D01*
X121053868Y-79729893D01*
X121039253Y-79749599D01*
X121022777Y-79767777D01*
X121004599Y-79784253D01*
X120984893Y-79798868D01*
X120963850Y-79811480D01*
X120941671Y-79821970D01*
X120918572Y-79830235D01*
X120894773Y-79836196D01*
X120870505Y-79839796D01*
X120846001Y-79841000D01*
X119945999Y-79841000D01*
X119921495Y-79839796D01*
X119897227Y-79836196D01*
X119873428Y-79830235D01*
X119850329Y-79821970D01*
X119828150Y-79811480D01*
X119807107Y-79798868D01*
X119787401Y-79784253D01*
X119769223Y-79767777D01*
X119752747Y-79749599D01*
X119738132Y-79729893D01*
X119725520Y-79708850D01*
X119715030Y-79686671D01*
X119706765Y-79663572D01*
X119700804Y-79639773D01*
X119697204Y-79615505D01*
X119696000Y-79591001D01*
X119696000Y-78940999D01*
X119697204Y-78916495D01*
X119700804Y-78892227D01*
X119706765Y-78868428D01*
X119715030Y-78845329D01*
X119725520Y-78823150D01*
X119738132Y-78802107D01*
X119752747Y-78782401D01*
X119769223Y-78764223D01*
X119787401Y-78747747D01*
X119807107Y-78733132D01*
X119828150Y-78720520D01*
X119850329Y-78710030D01*
X119873428Y-78701765D01*
X119897227Y-78695804D01*
X119921495Y-78692204D01*
X119945999Y-78691000D01*
X120846001Y-78691000D01*
X120870505Y-78692204D01*
X120870505Y-78692204D01*
G37*
D11*
X120396000Y-79266000D03*
D10*
G36*
X120870505Y-76642204D02*
X120894773Y-76645804D01*
X120918572Y-76651765D01*
X120941671Y-76660030D01*
X120963850Y-76670520D01*
X120984893Y-76683132D01*
X121004599Y-76697747D01*
X121022777Y-76714223D01*
X121039253Y-76732401D01*
X121053868Y-76752107D01*
X121066480Y-76773150D01*
X121076970Y-76795329D01*
X121085235Y-76818428D01*
X121091196Y-76842227D01*
X121094796Y-76866495D01*
X121096000Y-76890999D01*
X121096000Y-77541001D01*
X121094796Y-77565505D01*
X121091196Y-77589773D01*
X121085235Y-77613572D01*
X121076970Y-77636671D01*
X121066480Y-77658850D01*
X121053868Y-77679893D01*
X121039253Y-77699599D01*
X121022777Y-77717777D01*
X121004599Y-77734253D01*
X120984893Y-77748868D01*
X120963850Y-77761480D01*
X120941671Y-77771970D01*
X120918572Y-77780235D01*
X120894773Y-77786196D01*
X120870505Y-77789796D01*
X120846001Y-77791000D01*
X119945999Y-77791000D01*
X119921495Y-77789796D01*
X119897227Y-77786196D01*
X119873428Y-77780235D01*
X119850329Y-77771970D01*
X119828150Y-77761480D01*
X119807107Y-77748868D01*
X119787401Y-77734253D01*
X119769223Y-77717777D01*
X119752747Y-77699599D01*
X119738132Y-77679893D01*
X119725520Y-77658850D01*
X119715030Y-77636671D01*
X119706765Y-77613572D01*
X119700804Y-77589773D01*
X119697204Y-77565505D01*
X119696000Y-77541001D01*
X119696000Y-76890999D01*
X119697204Y-76866495D01*
X119700804Y-76842227D01*
X119706765Y-76818428D01*
X119715030Y-76795329D01*
X119725520Y-76773150D01*
X119738132Y-76752107D01*
X119752747Y-76732401D01*
X119769223Y-76714223D01*
X119787401Y-76697747D01*
X119807107Y-76683132D01*
X119828150Y-76670520D01*
X119850329Y-76660030D01*
X119873428Y-76651765D01*
X119897227Y-76645804D01*
X119921495Y-76642204D01*
X119945999Y-76641000D01*
X120846001Y-76641000D01*
X120870505Y-76642204D01*
X120870505Y-76642204D01*
G37*
D11*
X120396000Y-77216000D03*
G04 #@! TD*
D12*
G04 #@! TO.C,L1*
X125605000Y-82296000D03*
X123315000Y-82296000D03*
G04 #@! TD*
D13*
G04 #@! TO.C,L2*
X117856000Y-87626000D03*
X117856000Y-89916000D03*
G04 #@! TD*
D14*
G04 #@! TO.C,Q1*
X136022000Y-74930000D03*
X137922000Y-74930000D03*
X136972000Y-78350000D03*
G04 #@! TD*
D10*
G04 #@! TO.C,R1*
G36*
X123971953Y-74674523D02*
X123996221Y-74678123D01*
X124020020Y-74684084D01*
X124043119Y-74692349D01*
X124065298Y-74702839D01*
X124086341Y-74715451D01*
X124106047Y-74730066D01*
X124124225Y-74746542D01*
X124140701Y-74764720D01*
X124155316Y-74784426D01*
X124167928Y-74805469D01*
X124178418Y-74827648D01*
X124186683Y-74850747D01*
X124192644Y-74874546D01*
X124196244Y-74898814D01*
X124197448Y-74923318D01*
X124197448Y-75573320D01*
X124196244Y-75597824D01*
X124192644Y-75622092D01*
X124186683Y-75645891D01*
X124178418Y-75668990D01*
X124167928Y-75691169D01*
X124155316Y-75712212D01*
X124140701Y-75731918D01*
X124124225Y-75750096D01*
X124106047Y-75766572D01*
X124086341Y-75781187D01*
X124065298Y-75793799D01*
X124043119Y-75804289D01*
X124020020Y-75812554D01*
X123996221Y-75818515D01*
X123971953Y-75822115D01*
X123947449Y-75823319D01*
X123047447Y-75823319D01*
X123022943Y-75822115D01*
X122998675Y-75818515D01*
X122974876Y-75812554D01*
X122951777Y-75804289D01*
X122929598Y-75793799D01*
X122908555Y-75781187D01*
X122888849Y-75766572D01*
X122870671Y-75750096D01*
X122854195Y-75731918D01*
X122839580Y-75712212D01*
X122826968Y-75691169D01*
X122816478Y-75668990D01*
X122808213Y-75645891D01*
X122802252Y-75622092D01*
X122798652Y-75597824D01*
X122797448Y-75573320D01*
X122797448Y-74923318D01*
X122798652Y-74898814D01*
X122802252Y-74874546D01*
X122808213Y-74850747D01*
X122816478Y-74827648D01*
X122826968Y-74805469D01*
X122839580Y-74784426D01*
X122854195Y-74764720D01*
X122870671Y-74746542D01*
X122888849Y-74730066D01*
X122908555Y-74715451D01*
X122929598Y-74702839D01*
X122951777Y-74692349D01*
X122974876Y-74684084D01*
X122998675Y-74678123D01*
X123022943Y-74674523D01*
X123047447Y-74673319D01*
X123947449Y-74673319D01*
X123971953Y-74674523D01*
X123971953Y-74674523D01*
G37*
D11*
X123497448Y-75248319D03*
D10*
G36*
X123971953Y-76724523D02*
X123996221Y-76728123D01*
X124020020Y-76734084D01*
X124043119Y-76742349D01*
X124065298Y-76752839D01*
X124086341Y-76765451D01*
X124106047Y-76780066D01*
X124124225Y-76796542D01*
X124140701Y-76814720D01*
X124155316Y-76834426D01*
X124167928Y-76855469D01*
X124178418Y-76877648D01*
X124186683Y-76900747D01*
X124192644Y-76924546D01*
X124196244Y-76948814D01*
X124197448Y-76973318D01*
X124197448Y-77623320D01*
X124196244Y-77647824D01*
X124192644Y-77672092D01*
X124186683Y-77695891D01*
X124178418Y-77718990D01*
X124167928Y-77741169D01*
X124155316Y-77762212D01*
X124140701Y-77781918D01*
X124124225Y-77800096D01*
X124106047Y-77816572D01*
X124086341Y-77831187D01*
X124065298Y-77843799D01*
X124043119Y-77854289D01*
X124020020Y-77862554D01*
X123996221Y-77868515D01*
X123971953Y-77872115D01*
X123947449Y-77873319D01*
X123047447Y-77873319D01*
X123022943Y-77872115D01*
X122998675Y-77868515D01*
X122974876Y-77862554D01*
X122951777Y-77854289D01*
X122929598Y-77843799D01*
X122908555Y-77831187D01*
X122888849Y-77816572D01*
X122870671Y-77800096D01*
X122854195Y-77781918D01*
X122839580Y-77762212D01*
X122826968Y-77741169D01*
X122816478Y-77718990D01*
X122808213Y-77695891D01*
X122802252Y-77672092D01*
X122798652Y-77647824D01*
X122797448Y-77623320D01*
X122797448Y-76973318D01*
X122798652Y-76948814D01*
X122802252Y-76924546D01*
X122808213Y-76900747D01*
X122816478Y-76877648D01*
X122826968Y-76855469D01*
X122839580Y-76834426D01*
X122854195Y-76814720D01*
X122870671Y-76796542D01*
X122888849Y-76780066D01*
X122908555Y-76765451D01*
X122929598Y-76752839D01*
X122951777Y-76742349D01*
X122974876Y-76734084D01*
X122998675Y-76728123D01*
X123022943Y-76724523D01*
X123047447Y-76723319D01*
X123947449Y-76723319D01*
X123971953Y-76724523D01*
X123971953Y-76724523D01*
G37*
D11*
X123497448Y-77298319D03*
G04 #@! TD*
D10*
G04 #@! TO.C,R2*
G36*
X120798953Y-74567523D02*
X120823221Y-74571123D01*
X120847020Y-74577084D01*
X120870119Y-74585349D01*
X120892298Y-74595839D01*
X120913341Y-74608451D01*
X120933047Y-74623066D01*
X120951225Y-74639542D01*
X120967701Y-74657720D01*
X120982316Y-74677426D01*
X120994928Y-74698469D01*
X121005418Y-74720648D01*
X121013683Y-74743747D01*
X121019644Y-74767546D01*
X121023244Y-74791814D01*
X121024448Y-74816318D01*
X121024448Y-75716320D01*
X121023244Y-75740824D01*
X121019644Y-75765092D01*
X121013683Y-75788891D01*
X121005418Y-75811990D01*
X120994928Y-75834169D01*
X120982316Y-75855212D01*
X120967701Y-75874918D01*
X120951225Y-75893096D01*
X120933047Y-75909572D01*
X120913341Y-75924187D01*
X120892298Y-75936799D01*
X120870119Y-75947289D01*
X120847020Y-75955554D01*
X120823221Y-75961515D01*
X120798953Y-75965115D01*
X120774449Y-75966319D01*
X120124447Y-75966319D01*
X120099943Y-75965115D01*
X120075675Y-75961515D01*
X120051876Y-75955554D01*
X120028777Y-75947289D01*
X120006598Y-75936799D01*
X119985555Y-75924187D01*
X119965849Y-75909572D01*
X119947671Y-75893096D01*
X119931195Y-75874918D01*
X119916580Y-75855212D01*
X119903968Y-75834169D01*
X119893478Y-75811990D01*
X119885213Y-75788891D01*
X119879252Y-75765092D01*
X119875652Y-75740824D01*
X119874448Y-75716320D01*
X119874448Y-74816318D01*
X119875652Y-74791814D01*
X119879252Y-74767546D01*
X119885213Y-74743747D01*
X119893478Y-74720648D01*
X119903968Y-74698469D01*
X119916580Y-74677426D01*
X119931195Y-74657720D01*
X119947671Y-74639542D01*
X119965849Y-74623066D01*
X119985555Y-74608451D01*
X120006598Y-74595839D01*
X120028777Y-74585349D01*
X120051876Y-74577084D01*
X120075675Y-74571123D01*
X120099943Y-74567523D01*
X120124447Y-74566319D01*
X120774449Y-74566319D01*
X120798953Y-74567523D01*
X120798953Y-74567523D01*
G37*
D11*
X120449448Y-75266319D03*
D10*
G36*
X118748953Y-74567523D02*
X118773221Y-74571123D01*
X118797020Y-74577084D01*
X118820119Y-74585349D01*
X118842298Y-74595839D01*
X118863341Y-74608451D01*
X118883047Y-74623066D01*
X118901225Y-74639542D01*
X118917701Y-74657720D01*
X118932316Y-74677426D01*
X118944928Y-74698469D01*
X118955418Y-74720648D01*
X118963683Y-74743747D01*
X118969644Y-74767546D01*
X118973244Y-74791814D01*
X118974448Y-74816318D01*
X118974448Y-75716320D01*
X118973244Y-75740824D01*
X118969644Y-75765092D01*
X118963683Y-75788891D01*
X118955418Y-75811990D01*
X118944928Y-75834169D01*
X118932316Y-75855212D01*
X118917701Y-75874918D01*
X118901225Y-75893096D01*
X118883047Y-75909572D01*
X118863341Y-75924187D01*
X118842298Y-75936799D01*
X118820119Y-75947289D01*
X118797020Y-75955554D01*
X118773221Y-75961515D01*
X118748953Y-75965115D01*
X118724449Y-75966319D01*
X118074447Y-75966319D01*
X118049943Y-75965115D01*
X118025675Y-75961515D01*
X118001876Y-75955554D01*
X117978777Y-75947289D01*
X117956598Y-75936799D01*
X117935555Y-75924187D01*
X117915849Y-75909572D01*
X117897671Y-75893096D01*
X117881195Y-75874918D01*
X117866580Y-75855212D01*
X117853968Y-75834169D01*
X117843478Y-75811990D01*
X117835213Y-75788891D01*
X117829252Y-75765092D01*
X117825652Y-75740824D01*
X117824448Y-75716320D01*
X117824448Y-74816318D01*
X117825652Y-74791814D01*
X117829252Y-74767546D01*
X117835213Y-74743747D01*
X117843478Y-74720648D01*
X117853968Y-74698469D01*
X117866580Y-74677426D01*
X117881195Y-74657720D01*
X117897671Y-74639542D01*
X117915849Y-74623066D01*
X117935555Y-74608451D01*
X117956598Y-74595839D01*
X117978777Y-74585349D01*
X118001876Y-74577084D01*
X118025675Y-74571123D01*
X118049943Y-74567523D01*
X118074447Y-74566319D01*
X118724449Y-74566319D01*
X118748953Y-74567523D01*
X118748953Y-74567523D01*
G37*
D11*
X118399448Y-75266319D03*
G04 #@! TD*
D15*
G04 #@! TO.C,U5*
X132133448Y-74250319D03*
X132133448Y-75520319D03*
X132133448Y-76790319D03*
X132133448Y-78060319D03*
X126733448Y-78060319D03*
X126733448Y-76790319D03*
X126733448Y-75520319D03*
X126733448Y-74250319D03*
G04 #@! TD*
D16*
G04 #@! TO.C,L3*
X108966000Y-60960000D03*
X108966000Y-70660000D03*
G04 #@! TD*
G04 #@! TO.C,L4*
X122174000Y-70660000D03*
X122174000Y-60960000D03*
G04 #@! TD*
G04 #@! TO.C,L5*
X135382000Y-60960000D03*
X135382000Y-70660000D03*
G04 #@! TD*
D10*
G04 #@! TO.C,R4*
G36*
X95978505Y-54272204D02*
X96002773Y-54275804D01*
X96026572Y-54281765D01*
X96049671Y-54290030D01*
X96071850Y-54300520D01*
X96092893Y-54313132D01*
X96112599Y-54327747D01*
X96130777Y-54344223D01*
X96147253Y-54362401D01*
X96161868Y-54382107D01*
X96174480Y-54403150D01*
X96184970Y-54425329D01*
X96193235Y-54448428D01*
X96199196Y-54472227D01*
X96202796Y-54496495D01*
X96204000Y-54520999D01*
X96204000Y-55171001D01*
X96202796Y-55195505D01*
X96199196Y-55219773D01*
X96193235Y-55243572D01*
X96184970Y-55266671D01*
X96174480Y-55288850D01*
X96161868Y-55309893D01*
X96147253Y-55329599D01*
X96130777Y-55347777D01*
X96112599Y-55364253D01*
X96092893Y-55378868D01*
X96071850Y-55391480D01*
X96049671Y-55401970D01*
X96026572Y-55410235D01*
X96002773Y-55416196D01*
X95978505Y-55419796D01*
X95954001Y-55421000D01*
X95053999Y-55421000D01*
X95029495Y-55419796D01*
X95005227Y-55416196D01*
X94981428Y-55410235D01*
X94958329Y-55401970D01*
X94936150Y-55391480D01*
X94915107Y-55378868D01*
X94895401Y-55364253D01*
X94877223Y-55347777D01*
X94860747Y-55329599D01*
X94846132Y-55309893D01*
X94833520Y-55288850D01*
X94823030Y-55266671D01*
X94814765Y-55243572D01*
X94808804Y-55219773D01*
X94805204Y-55195505D01*
X94804000Y-55171001D01*
X94804000Y-54520999D01*
X94805204Y-54496495D01*
X94808804Y-54472227D01*
X94814765Y-54448428D01*
X94823030Y-54425329D01*
X94833520Y-54403150D01*
X94846132Y-54382107D01*
X94860747Y-54362401D01*
X94877223Y-54344223D01*
X94895401Y-54327747D01*
X94915107Y-54313132D01*
X94936150Y-54300520D01*
X94958329Y-54290030D01*
X94981428Y-54281765D01*
X95005227Y-54275804D01*
X95029495Y-54272204D01*
X95053999Y-54271000D01*
X95954001Y-54271000D01*
X95978505Y-54272204D01*
X95978505Y-54272204D01*
G37*
D11*
X95504000Y-54846000D03*
D10*
G36*
X95978505Y-56322204D02*
X96002773Y-56325804D01*
X96026572Y-56331765D01*
X96049671Y-56340030D01*
X96071850Y-56350520D01*
X96092893Y-56363132D01*
X96112599Y-56377747D01*
X96130777Y-56394223D01*
X96147253Y-56412401D01*
X96161868Y-56432107D01*
X96174480Y-56453150D01*
X96184970Y-56475329D01*
X96193235Y-56498428D01*
X96199196Y-56522227D01*
X96202796Y-56546495D01*
X96204000Y-56570999D01*
X96204000Y-57221001D01*
X96202796Y-57245505D01*
X96199196Y-57269773D01*
X96193235Y-57293572D01*
X96184970Y-57316671D01*
X96174480Y-57338850D01*
X96161868Y-57359893D01*
X96147253Y-57379599D01*
X96130777Y-57397777D01*
X96112599Y-57414253D01*
X96092893Y-57428868D01*
X96071850Y-57441480D01*
X96049671Y-57451970D01*
X96026572Y-57460235D01*
X96002773Y-57466196D01*
X95978505Y-57469796D01*
X95954001Y-57471000D01*
X95053999Y-57471000D01*
X95029495Y-57469796D01*
X95005227Y-57466196D01*
X94981428Y-57460235D01*
X94958329Y-57451970D01*
X94936150Y-57441480D01*
X94915107Y-57428868D01*
X94895401Y-57414253D01*
X94877223Y-57397777D01*
X94860747Y-57379599D01*
X94846132Y-57359893D01*
X94833520Y-57338850D01*
X94823030Y-57316671D01*
X94814765Y-57293572D01*
X94808804Y-57269773D01*
X94805204Y-57245505D01*
X94804000Y-57221001D01*
X94804000Y-56570999D01*
X94805204Y-56546495D01*
X94808804Y-56522227D01*
X94814765Y-56498428D01*
X94823030Y-56475329D01*
X94833520Y-56453150D01*
X94846132Y-56432107D01*
X94860747Y-56412401D01*
X94877223Y-56394223D01*
X94895401Y-56377747D01*
X94915107Y-56363132D01*
X94936150Y-56350520D01*
X94958329Y-56340030D01*
X94981428Y-56331765D01*
X95005227Y-56325804D01*
X95029495Y-56322204D01*
X95053999Y-56321000D01*
X95954001Y-56321000D01*
X95978505Y-56322204D01*
X95978505Y-56322204D01*
G37*
D11*
X95504000Y-56896000D03*
G04 #@! TD*
D10*
G04 #@! TO.C,R5*
G36*
X95581505Y-63563204D02*
X95605773Y-63566804D01*
X95629572Y-63572765D01*
X95652671Y-63581030D01*
X95674850Y-63591520D01*
X95695893Y-63604132D01*
X95715599Y-63618747D01*
X95733777Y-63635223D01*
X95750253Y-63653401D01*
X95764868Y-63673107D01*
X95777480Y-63694150D01*
X95787970Y-63716329D01*
X95796235Y-63739428D01*
X95802196Y-63763227D01*
X95805796Y-63787495D01*
X95807000Y-63811999D01*
X95807000Y-64712001D01*
X95805796Y-64736505D01*
X95802196Y-64760773D01*
X95796235Y-64784572D01*
X95787970Y-64807671D01*
X95777480Y-64829850D01*
X95764868Y-64850893D01*
X95750253Y-64870599D01*
X95733777Y-64888777D01*
X95715599Y-64905253D01*
X95695893Y-64919868D01*
X95674850Y-64932480D01*
X95652671Y-64942970D01*
X95629572Y-64951235D01*
X95605773Y-64957196D01*
X95581505Y-64960796D01*
X95557001Y-64962000D01*
X94906999Y-64962000D01*
X94882495Y-64960796D01*
X94858227Y-64957196D01*
X94834428Y-64951235D01*
X94811329Y-64942970D01*
X94789150Y-64932480D01*
X94768107Y-64919868D01*
X94748401Y-64905253D01*
X94730223Y-64888777D01*
X94713747Y-64870599D01*
X94699132Y-64850893D01*
X94686520Y-64829850D01*
X94676030Y-64807671D01*
X94667765Y-64784572D01*
X94661804Y-64760773D01*
X94658204Y-64736505D01*
X94657000Y-64712001D01*
X94657000Y-63811999D01*
X94658204Y-63787495D01*
X94661804Y-63763227D01*
X94667765Y-63739428D01*
X94676030Y-63716329D01*
X94686520Y-63694150D01*
X94699132Y-63673107D01*
X94713747Y-63653401D01*
X94730223Y-63635223D01*
X94748401Y-63618747D01*
X94768107Y-63604132D01*
X94789150Y-63591520D01*
X94811329Y-63581030D01*
X94834428Y-63572765D01*
X94858227Y-63566804D01*
X94882495Y-63563204D01*
X94906999Y-63562000D01*
X95557001Y-63562000D01*
X95581505Y-63563204D01*
X95581505Y-63563204D01*
G37*
D11*
X95232000Y-64262000D03*
D10*
G36*
X97631505Y-63563204D02*
X97655773Y-63566804D01*
X97679572Y-63572765D01*
X97702671Y-63581030D01*
X97724850Y-63591520D01*
X97745893Y-63604132D01*
X97765599Y-63618747D01*
X97783777Y-63635223D01*
X97800253Y-63653401D01*
X97814868Y-63673107D01*
X97827480Y-63694150D01*
X97837970Y-63716329D01*
X97846235Y-63739428D01*
X97852196Y-63763227D01*
X97855796Y-63787495D01*
X97857000Y-63811999D01*
X97857000Y-64712001D01*
X97855796Y-64736505D01*
X97852196Y-64760773D01*
X97846235Y-64784572D01*
X97837970Y-64807671D01*
X97827480Y-64829850D01*
X97814868Y-64850893D01*
X97800253Y-64870599D01*
X97783777Y-64888777D01*
X97765599Y-64905253D01*
X97745893Y-64919868D01*
X97724850Y-64932480D01*
X97702671Y-64942970D01*
X97679572Y-64951235D01*
X97655773Y-64957196D01*
X97631505Y-64960796D01*
X97607001Y-64962000D01*
X96956999Y-64962000D01*
X96932495Y-64960796D01*
X96908227Y-64957196D01*
X96884428Y-64951235D01*
X96861329Y-64942970D01*
X96839150Y-64932480D01*
X96818107Y-64919868D01*
X96798401Y-64905253D01*
X96780223Y-64888777D01*
X96763747Y-64870599D01*
X96749132Y-64850893D01*
X96736520Y-64829850D01*
X96726030Y-64807671D01*
X96717765Y-64784572D01*
X96711804Y-64760773D01*
X96708204Y-64736505D01*
X96707000Y-64712001D01*
X96707000Y-63811999D01*
X96708204Y-63787495D01*
X96711804Y-63763227D01*
X96717765Y-63739428D01*
X96726030Y-63716329D01*
X96736520Y-63694150D01*
X96749132Y-63673107D01*
X96763747Y-63653401D01*
X96780223Y-63635223D01*
X96798401Y-63618747D01*
X96818107Y-63604132D01*
X96839150Y-63591520D01*
X96861329Y-63581030D01*
X96884428Y-63572765D01*
X96908227Y-63566804D01*
X96932495Y-63563204D01*
X96956999Y-63562000D01*
X97607001Y-63562000D01*
X97631505Y-63563204D01*
X97631505Y-63563204D01*
G37*
D11*
X97282000Y-64262000D03*
G04 #@! TD*
D10*
G04 #@! TO.C,R6*
G36*
X102221505Y-55435204D02*
X102245773Y-55438804D01*
X102269572Y-55444765D01*
X102292671Y-55453030D01*
X102314850Y-55463520D01*
X102335893Y-55476132D01*
X102355599Y-55490747D01*
X102373777Y-55507223D01*
X102390253Y-55525401D01*
X102404868Y-55545107D01*
X102417480Y-55566150D01*
X102427970Y-55588329D01*
X102436235Y-55611428D01*
X102442196Y-55635227D01*
X102445796Y-55659495D01*
X102447000Y-55683999D01*
X102447000Y-56584001D01*
X102445796Y-56608505D01*
X102442196Y-56632773D01*
X102436235Y-56656572D01*
X102427970Y-56679671D01*
X102417480Y-56701850D01*
X102404868Y-56722893D01*
X102390253Y-56742599D01*
X102373777Y-56760777D01*
X102355599Y-56777253D01*
X102335893Y-56791868D01*
X102314850Y-56804480D01*
X102292671Y-56814970D01*
X102269572Y-56823235D01*
X102245773Y-56829196D01*
X102221505Y-56832796D01*
X102197001Y-56834000D01*
X101546999Y-56834000D01*
X101522495Y-56832796D01*
X101498227Y-56829196D01*
X101474428Y-56823235D01*
X101451329Y-56814970D01*
X101429150Y-56804480D01*
X101408107Y-56791868D01*
X101388401Y-56777253D01*
X101370223Y-56760777D01*
X101353747Y-56742599D01*
X101339132Y-56722893D01*
X101326520Y-56701850D01*
X101316030Y-56679671D01*
X101307765Y-56656572D01*
X101301804Y-56632773D01*
X101298204Y-56608505D01*
X101297000Y-56584001D01*
X101297000Y-55683999D01*
X101298204Y-55659495D01*
X101301804Y-55635227D01*
X101307765Y-55611428D01*
X101316030Y-55588329D01*
X101326520Y-55566150D01*
X101339132Y-55545107D01*
X101353747Y-55525401D01*
X101370223Y-55507223D01*
X101388401Y-55490747D01*
X101408107Y-55476132D01*
X101429150Y-55463520D01*
X101451329Y-55453030D01*
X101474428Y-55444765D01*
X101498227Y-55438804D01*
X101522495Y-55435204D01*
X101546999Y-55434000D01*
X102197001Y-55434000D01*
X102221505Y-55435204D01*
X102221505Y-55435204D01*
G37*
D11*
X101872000Y-56134000D03*
D10*
G36*
X100171505Y-55435204D02*
X100195773Y-55438804D01*
X100219572Y-55444765D01*
X100242671Y-55453030D01*
X100264850Y-55463520D01*
X100285893Y-55476132D01*
X100305599Y-55490747D01*
X100323777Y-55507223D01*
X100340253Y-55525401D01*
X100354868Y-55545107D01*
X100367480Y-55566150D01*
X100377970Y-55588329D01*
X100386235Y-55611428D01*
X100392196Y-55635227D01*
X100395796Y-55659495D01*
X100397000Y-55683999D01*
X100397000Y-56584001D01*
X100395796Y-56608505D01*
X100392196Y-56632773D01*
X100386235Y-56656572D01*
X100377970Y-56679671D01*
X100367480Y-56701850D01*
X100354868Y-56722893D01*
X100340253Y-56742599D01*
X100323777Y-56760777D01*
X100305599Y-56777253D01*
X100285893Y-56791868D01*
X100264850Y-56804480D01*
X100242671Y-56814970D01*
X100219572Y-56823235D01*
X100195773Y-56829196D01*
X100171505Y-56832796D01*
X100147001Y-56834000D01*
X99496999Y-56834000D01*
X99472495Y-56832796D01*
X99448227Y-56829196D01*
X99424428Y-56823235D01*
X99401329Y-56814970D01*
X99379150Y-56804480D01*
X99358107Y-56791868D01*
X99338401Y-56777253D01*
X99320223Y-56760777D01*
X99303747Y-56742599D01*
X99289132Y-56722893D01*
X99276520Y-56701850D01*
X99266030Y-56679671D01*
X99257765Y-56656572D01*
X99251804Y-56632773D01*
X99248204Y-56608505D01*
X99247000Y-56584001D01*
X99247000Y-55683999D01*
X99248204Y-55659495D01*
X99251804Y-55635227D01*
X99257765Y-55611428D01*
X99266030Y-55588329D01*
X99276520Y-55566150D01*
X99289132Y-55545107D01*
X99303747Y-55525401D01*
X99320223Y-55507223D01*
X99338401Y-55490747D01*
X99358107Y-55476132D01*
X99379150Y-55463520D01*
X99401329Y-55453030D01*
X99424428Y-55444765D01*
X99448227Y-55438804D01*
X99472495Y-55435204D01*
X99496999Y-55434000D01*
X100147001Y-55434000D01*
X100171505Y-55435204D01*
X100171505Y-55435204D01*
G37*
D11*
X99822000Y-56134000D03*
G04 #@! TD*
D15*
G04 #@! TO.C,U6*
X87884000Y-58674000D03*
X87884000Y-59944000D03*
X87884000Y-61214000D03*
X87884000Y-62484000D03*
X93284000Y-62484000D03*
X93284000Y-61214000D03*
X93284000Y-59944000D03*
X93284000Y-58674000D03*
G04 #@! TD*
G04 #@! TO.C,U7*
X101346000Y-58674000D03*
X101346000Y-59944000D03*
X101346000Y-61214000D03*
X101346000Y-62484000D03*
X95946000Y-62484000D03*
X95946000Y-61214000D03*
X95946000Y-59944000D03*
X95946000Y-58674000D03*
G04 #@! TD*
D10*
G04 #@! TO.C,C11*
G36*
X92315505Y-64325204D02*
X92339773Y-64328804D01*
X92363572Y-64334765D01*
X92386671Y-64343030D01*
X92408850Y-64353520D01*
X92429893Y-64366132D01*
X92449599Y-64380747D01*
X92467777Y-64397223D01*
X92484253Y-64415401D01*
X92498868Y-64435107D01*
X92511480Y-64456150D01*
X92521970Y-64478329D01*
X92530235Y-64501428D01*
X92536196Y-64525227D01*
X92539796Y-64549495D01*
X92541000Y-64573999D01*
X92541000Y-65474001D01*
X92539796Y-65498505D01*
X92536196Y-65522773D01*
X92530235Y-65546572D01*
X92521970Y-65569671D01*
X92511480Y-65591850D01*
X92498868Y-65612893D01*
X92484253Y-65632599D01*
X92467777Y-65650777D01*
X92449599Y-65667253D01*
X92429893Y-65681868D01*
X92408850Y-65694480D01*
X92386671Y-65704970D01*
X92363572Y-65713235D01*
X92339773Y-65719196D01*
X92315505Y-65722796D01*
X92291001Y-65724000D01*
X91640999Y-65724000D01*
X91616495Y-65722796D01*
X91592227Y-65719196D01*
X91568428Y-65713235D01*
X91545329Y-65704970D01*
X91523150Y-65694480D01*
X91502107Y-65681868D01*
X91482401Y-65667253D01*
X91464223Y-65650777D01*
X91447747Y-65632599D01*
X91433132Y-65612893D01*
X91420520Y-65591850D01*
X91410030Y-65569671D01*
X91401765Y-65546572D01*
X91395804Y-65522773D01*
X91392204Y-65498505D01*
X91391000Y-65474001D01*
X91391000Y-64573999D01*
X91392204Y-64549495D01*
X91395804Y-64525227D01*
X91401765Y-64501428D01*
X91410030Y-64478329D01*
X91420520Y-64456150D01*
X91433132Y-64435107D01*
X91447747Y-64415401D01*
X91464223Y-64397223D01*
X91482401Y-64380747D01*
X91502107Y-64366132D01*
X91523150Y-64353520D01*
X91545329Y-64343030D01*
X91568428Y-64334765D01*
X91592227Y-64328804D01*
X91616495Y-64325204D01*
X91640999Y-64324000D01*
X92291001Y-64324000D01*
X92315505Y-64325204D01*
X92315505Y-64325204D01*
G37*
D11*
X91966000Y-65024000D03*
D10*
G36*
X90265505Y-64325204D02*
X90289773Y-64328804D01*
X90313572Y-64334765D01*
X90336671Y-64343030D01*
X90358850Y-64353520D01*
X90379893Y-64366132D01*
X90399599Y-64380747D01*
X90417777Y-64397223D01*
X90434253Y-64415401D01*
X90448868Y-64435107D01*
X90461480Y-64456150D01*
X90471970Y-64478329D01*
X90480235Y-64501428D01*
X90486196Y-64525227D01*
X90489796Y-64549495D01*
X90491000Y-64573999D01*
X90491000Y-65474001D01*
X90489796Y-65498505D01*
X90486196Y-65522773D01*
X90480235Y-65546572D01*
X90471970Y-65569671D01*
X90461480Y-65591850D01*
X90448868Y-65612893D01*
X90434253Y-65632599D01*
X90417777Y-65650777D01*
X90399599Y-65667253D01*
X90379893Y-65681868D01*
X90358850Y-65694480D01*
X90336671Y-65704970D01*
X90313572Y-65713235D01*
X90289773Y-65719196D01*
X90265505Y-65722796D01*
X90241001Y-65724000D01*
X89590999Y-65724000D01*
X89566495Y-65722796D01*
X89542227Y-65719196D01*
X89518428Y-65713235D01*
X89495329Y-65704970D01*
X89473150Y-65694480D01*
X89452107Y-65681868D01*
X89432401Y-65667253D01*
X89414223Y-65650777D01*
X89397747Y-65632599D01*
X89383132Y-65612893D01*
X89370520Y-65591850D01*
X89360030Y-65569671D01*
X89351765Y-65546572D01*
X89345804Y-65522773D01*
X89342204Y-65498505D01*
X89341000Y-65474001D01*
X89341000Y-64573999D01*
X89342204Y-64549495D01*
X89345804Y-64525227D01*
X89351765Y-64501428D01*
X89360030Y-64478329D01*
X89370520Y-64456150D01*
X89383132Y-64435107D01*
X89397747Y-64415401D01*
X89414223Y-64397223D01*
X89432401Y-64380747D01*
X89452107Y-64366132D01*
X89473150Y-64353520D01*
X89495329Y-64343030D01*
X89518428Y-64334765D01*
X89542227Y-64328804D01*
X89566495Y-64325204D01*
X89590999Y-64324000D01*
X90241001Y-64324000D01*
X90265505Y-64325204D01*
X90265505Y-64325204D01*
G37*
D11*
X89916000Y-65024000D03*
G04 #@! TD*
D10*
G04 #@! TO.C,C12*
G36*
X101566505Y-64958204D02*
X101590773Y-64961804D01*
X101614572Y-64967765D01*
X101637671Y-64976030D01*
X101659850Y-64986520D01*
X101680893Y-64999132D01*
X101700599Y-65013747D01*
X101718777Y-65030223D01*
X101735253Y-65048401D01*
X101749868Y-65068107D01*
X101762480Y-65089150D01*
X101772970Y-65111329D01*
X101781235Y-65134428D01*
X101787196Y-65158227D01*
X101790796Y-65182495D01*
X101792000Y-65206999D01*
X101792000Y-65857001D01*
X101790796Y-65881505D01*
X101787196Y-65905773D01*
X101781235Y-65929572D01*
X101772970Y-65952671D01*
X101762480Y-65974850D01*
X101749868Y-65995893D01*
X101735253Y-66015599D01*
X101718777Y-66033777D01*
X101700599Y-66050253D01*
X101680893Y-66064868D01*
X101659850Y-66077480D01*
X101637671Y-66087970D01*
X101614572Y-66096235D01*
X101590773Y-66102196D01*
X101566505Y-66105796D01*
X101542001Y-66107000D01*
X100641999Y-66107000D01*
X100617495Y-66105796D01*
X100593227Y-66102196D01*
X100569428Y-66096235D01*
X100546329Y-66087970D01*
X100524150Y-66077480D01*
X100503107Y-66064868D01*
X100483401Y-66050253D01*
X100465223Y-66033777D01*
X100448747Y-66015599D01*
X100434132Y-65995893D01*
X100421520Y-65974850D01*
X100411030Y-65952671D01*
X100402765Y-65929572D01*
X100396804Y-65905773D01*
X100393204Y-65881505D01*
X100392000Y-65857001D01*
X100392000Y-65206999D01*
X100393204Y-65182495D01*
X100396804Y-65158227D01*
X100402765Y-65134428D01*
X100411030Y-65111329D01*
X100421520Y-65089150D01*
X100434132Y-65068107D01*
X100448747Y-65048401D01*
X100465223Y-65030223D01*
X100483401Y-65013747D01*
X100503107Y-64999132D01*
X100524150Y-64986520D01*
X100546329Y-64976030D01*
X100569428Y-64967765D01*
X100593227Y-64961804D01*
X100617495Y-64958204D01*
X100641999Y-64957000D01*
X101542001Y-64957000D01*
X101566505Y-64958204D01*
X101566505Y-64958204D01*
G37*
D11*
X101092000Y-65532000D03*
D10*
G36*
X101566505Y-67008204D02*
X101590773Y-67011804D01*
X101614572Y-67017765D01*
X101637671Y-67026030D01*
X101659850Y-67036520D01*
X101680893Y-67049132D01*
X101700599Y-67063747D01*
X101718777Y-67080223D01*
X101735253Y-67098401D01*
X101749868Y-67118107D01*
X101762480Y-67139150D01*
X101772970Y-67161329D01*
X101781235Y-67184428D01*
X101787196Y-67208227D01*
X101790796Y-67232495D01*
X101792000Y-67256999D01*
X101792000Y-67907001D01*
X101790796Y-67931505D01*
X101787196Y-67955773D01*
X101781235Y-67979572D01*
X101772970Y-68002671D01*
X101762480Y-68024850D01*
X101749868Y-68045893D01*
X101735253Y-68065599D01*
X101718777Y-68083777D01*
X101700599Y-68100253D01*
X101680893Y-68114868D01*
X101659850Y-68127480D01*
X101637671Y-68137970D01*
X101614572Y-68146235D01*
X101590773Y-68152196D01*
X101566505Y-68155796D01*
X101542001Y-68157000D01*
X100641999Y-68157000D01*
X100617495Y-68155796D01*
X100593227Y-68152196D01*
X100569428Y-68146235D01*
X100546329Y-68137970D01*
X100524150Y-68127480D01*
X100503107Y-68114868D01*
X100483401Y-68100253D01*
X100465223Y-68083777D01*
X100448747Y-68065599D01*
X100434132Y-68045893D01*
X100421520Y-68024850D01*
X100411030Y-68002671D01*
X100402765Y-67979572D01*
X100396804Y-67955773D01*
X100393204Y-67931505D01*
X100392000Y-67907001D01*
X100392000Y-67256999D01*
X100393204Y-67232495D01*
X100396804Y-67208227D01*
X100402765Y-67184428D01*
X100411030Y-67161329D01*
X100421520Y-67139150D01*
X100434132Y-67118107D01*
X100448747Y-67098401D01*
X100465223Y-67080223D01*
X100483401Y-67063747D01*
X100503107Y-67049132D01*
X100524150Y-67036520D01*
X100546329Y-67026030D01*
X100569428Y-67017765D01*
X100593227Y-67011804D01*
X100617495Y-67008204D01*
X100641999Y-67007000D01*
X101542001Y-67007000D01*
X101566505Y-67008204D01*
X101566505Y-67008204D01*
G37*
D11*
X101092000Y-67582000D03*
G04 #@! TD*
D10*
G04 #@! TO.C,C13*
G36*
X97359505Y-70929204D02*
X97383773Y-70932804D01*
X97407572Y-70938765D01*
X97430671Y-70947030D01*
X97452850Y-70957520D01*
X97473893Y-70970132D01*
X97493599Y-70984747D01*
X97511777Y-71001223D01*
X97528253Y-71019401D01*
X97542868Y-71039107D01*
X97555480Y-71060150D01*
X97565970Y-71082329D01*
X97574235Y-71105428D01*
X97580196Y-71129227D01*
X97583796Y-71153495D01*
X97585000Y-71177999D01*
X97585000Y-72078001D01*
X97583796Y-72102505D01*
X97580196Y-72126773D01*
X97574235Y-72150572D01*
X97565970Y-72173671D01*
X97555480Y-72195850D01*
X97542868Y-72216893D01*
X97528253Y-72236599D01*
X97511777Y-72254777D01*
X97493599Y-72271253D01*
X97473893Y-72285868D01*
X97452850Y-72298480D01*
X97430671Y-72308970D01*
X97407572Y-72317235D01*
X97383773Y-72323196D01*
X97359505Y-72326796D01*
X97335001Y-72328000D01*
X96684999Y-72328000D01*
X96660495Y-72326796D01*
X96636227Y-72323196D01*
X96612428Y-72317235D01*
X96589329Y-72308970D01*
X96567150Y-72298480D01*
X96546107Y-72285868D01*
X96526401Y-72271253D01*
X96508223Y-72254777D01*
X96491747Y-72236599D01*
X96477132Y-72216893D01*
X96464520Y-72195850D01*
X96454030Y-72173671D01*
X96445765Y-72150572D01*
X96439804Y-72126773D01*
X96436204Y-72102505D01*
X96435000Y-72078001D01*
X96435000Y-71177999D01*
X96436204Y-71153495D01*
X96439804Y-71129227D01*
X96445765Y-71105428D01*
X96454030Y-71082329D01*
X96464520Y-71060150D01*
X96477132Y-71039107D01*
X96491747Y-71019401D01*
X96508223Y-71001223D01*
X96526401Y-70984747D01*
X96546107Y-70970132D01*
X96567150Y-70957520D01*
X96589329Y-70947030D01*
X96612428Y-70938765D01*
X96636227Y-70932804D01*
X96660495Y-70929204D01*
X96684999Y-70928000D01*
X97335001Y-70928000D01*
X97359505Y-70929204D01*
X97359505Y-70929204D01*
G37*
D11*
X97010000Y-71628000D03*
D10*
G36*
X99409505Y-70929204D02*
X99433773Y-70932804D01*
X99457572Y-70938765D01*
X99480671Y-70947030D01*
X99502850Y-70957520D01*
X99523893Y-70970132D01*
X99543599Y-70984747D01*
X99561777Y-71001223D01*
X99578253Y-71019401D01*
X99592868Y-71039107D01*
X99605480Y-71060150D01*
X99615970Y-71082329D01*
X99624235Y-71105428D01*
X99630196Y-71129227D01*
X99633796Y-71153495D01*
X99635000Y-71177999D01*
X99635000Y-72078001D01*
X99633796Y-72102505D01*
X99630196Y-72126773D01*
X99624235Y-72150572D01*
X99615970Y-72173671D01*
X99605480Y-72195850D01*
X99592868Y-72216893D01*
X99578253Y-72236599D01*
X99561777Y-72254777D01*
X99543599Y-72271253D01*
X99523893Y-72285868D01*
X99502850Y-72298480D01*
X99480671Y-72308970D01*
X99457572Y-72317235D01*
X99433773Y-72323196D01*
X99409505Y-72326796D01*
X99385001Y-72328000D01*
X98734999Y-72328000D01*
X98710495Y-72326796D01*
X98686227Y-72323196D01*
X98662428Y-72317235D01*
X98639329Y-72308970D01*
X98617150Y-72298480D01*
X98596107Y-72285868D01*
X98576401Y-72271253D01*
X98558223Y-72254777D01*
X98541747Y-72236599D01*
X98527132Y-72216893D01*
X98514520Y-72195850D01*
X98504030Y-72173671D01*
X98495765Y-72150572D01*
X98489804Y-72126773D01*
X98486204Y-72102505D01*
X98485000Y-72078001D01*
X98485000Y-71177999D01*
X98486204Y-71153495D01*
X98489804Y-71129227D01*
X98495765Y-71105428D01*
X98504030Y-71082329D01*
X98514520Y-71060150D01*
X98527132Y-71039107D01*
X98541747Y-71019401D01*
X98558223Y-71001223D01*
X98576401Y-70984747D01*
X98596107Y-70970132D01*
X98617150Y-70957520D01*
X98639329Y-70947030D01*
X98662428Y-70938765D01*
X98686227Y-70932804D01*
X98710495Y-70929204D01*
X98734999Y-70928000D01*
X99385001Y-70928000D01*
X99409505Y-70929204D01*
X99409505Y-70929204D01*
G37*
D11*
X99060000Y-71628000D03*
G04 #@! TD*
D17*
G04 #@! TO.C,U8*
X97159998Y-67106800D03*
X98109999Y-67106800D03*
X99060000Y-67106800D03*
X99060000Y-69342000D03*
X97159998Y-69342000D03*
G04 #@! TD*
M02*
