M48
;DRILL file {KiCad 5.0.1} date Thu 21 Feb 2019 09:56:04 PM CST
;FORMAT={-:-/ absolute / inch / decimal}
FMAT,2
INCH,TZ
T1C0.0157
T2C0.0276
T3C0.0394
T4C0.0472
T5C0.0591
T6C0.0669
T7C0.0969
T8C0.1000
%
G90
G05
M72
T1
X3.38Y-2.23
X3.56Y-2.25
X3.66Y-2.23
X3.85Y-2.36
X3.93Y-2.58
X3.98Y-2.75
X4.15Y-2.4
X4.43Y-2.76
X4.54Y-2.6
X4.54Y-2.6
X4.73Y-2.49
X4.94Y-2.76
X5.06Y-2.6
X5.06Y-2.92
X5.07Y-3.05
X5.28Y-2.49
X5.51Y-2.73
X5.58Y-2.6
T2
X3.3945Y-2.1634
X3.5945Y-2.1634
T3
X4.14Y-3.36
X4.24Y-3.36
X4.34Y-3.36
X4.54Y-3.36
X4.64Y-3.36
X4.74Y-3.36
X4.84Y-3.36
T4
X3.4Y-3.02
X3.5Y-3.02
X5.96Y-3.14
X6.06Y-3.14
X5.7Y-2.84
X5.8Y-2.84
X5.02Y-3.42
X5.12Y-3.42
X5.22Y-3.42
X5.32Y-3.42
X5.42Y-3.42
X3.64Y-3.02
X3.74Y-3.02
X3.4Y-2.66
X3.5Y-2.66
X5.96Y-2.84
X6.06Y-2.84
X3.88Y-3.02
X3.98Y-3.02
X3.64Y-2.66
X3.74Y-2.66
X5.7Y-3.14
X5.8Y-3.14
X3.64Y-3.38
X3.74Y-3.38
X3.4Y-3.38
X3.5Y-3.38
T5
X3.71Y-1.95
X4.37Y-1.95
X4.04Y-1.95
T6
X3.61Y-1.85
X3.61Y-2.05
X3.81Y-1.85
X3.81Y-2.05
X4.27Y-1.85
X4.27Y-2.05
X4.47Y-1.85
X4.47Y-2.05
X3.94Y-1.85
X3.94Y-2.05
X4.14Y-1.85
X4.14Y-2.05
T7
X6.Y-3.4
X6.Y-2.
X3.91Y-3.4
T8
X3.45Y-2.
T0
M30
