G04 #@! TF.GenerationSoftware,KiCad,Pcbnew,5.0.1*
G04 #@! TF.CreationDate,2019-02-21T21:56:02-06:00*
G04 #@! TF.ProjectId,PowerRDP,506F7765725244502E6B696361645F70,2*
G04 #@! TF.SameCoordinates,Original*
G04 #@! TF.FileFunction,Soldermask,Bot*
G04 #@! TF.FilePolarity,Negative*
%FSLAX46Y46*%
G04 Gerber Fmt 4.6, Leading zero omitted, Abs format (unit mm)*
G04 Created by KiCad (PCBNEW 5.0.1) date Thu 21 Feb 2019 09:56:02 PM CST*
%MOMM*%
%LPD*%
G01*
G04 APERTURE LIST*
%ADD10C,0.100000*%
G04 APERTURE END LIST*
D10*
G36*
X119381000Y-90676000D02*
X116331000Y-90676000D01*
X116331000Y-89156000D01*
X119381000Y-89156000D01*
X119381000Y-90676000D01*
X119381000Y-90676000D01*
G37*
G36*
X122475522Y-89354039D02*
X122509053Y-89364211D01*
X122539960Y-89380731D01*
X122567043Y-89402957D01*
X122589269Y-89430040D01*
X122605789Y-89460947D01*
X122615961Y-89494478D01*
X122620000Y-89535487D01*
X122620000Y-90314513D01*
X122615961Y-90355522D01*
X122605789Y-90389053D01*
X122589269Y-90419960D01*
X122567043Y-90447043D01*
X122539960Y-90469269D01*
X122509053Y-90485789D01*
X122475522Y-90495961D01*
X122434513Y-90500000D01*
X121405487Y-90500000D01*
X121364478Y-90495961D01*
X121330947Y-90485789D01*
X121300040Y-90469269D01*
X121272957Y-90447043D01*
X121250731Y-90419960D01*
X121234211Y-90389053D01*
X121224039Y-90355522D01*
X121220000Y-90314513D01*
X121220000Y-89535487D01*
X121224039Y-89494478D01*
X121234211Y-89460947D01*
X121250731Y-89430040D01*
X121272957Y-89402957D01*
X121300040Y-89380731D01*
X121330947Y-89364211D01*
X121364478Y-89354039D01*
X121405487Y-89350000D01*
X122434513Y-89350000D01*
X122475522Y-89354039D01*
X122475522Y-89354039D01*
G37*
G36*
X122475522Y-87304039D02*
X122509053Y-87314211D01*
X122539960Y-87330731D01*
X122567043Y-87352957D01*
X122589269Y-87380040D01*
X122605789Y-87410947D01*
X122615961Y-87444478D01*
X122620000Y-87485487D01*
X122620000Y-88264513D01*
X122615961Y-88305522D01*
X122605789Y-88339053D01*
X122589269Y-88369960D01*
X122567043Y-88397043D01*
X122539960Y-88419269D01*
X122509053Y-88435789D01*
X122475522Y-88445961D01*
X122434513Y-88450000D01*
X121405487Y-88450000D01*
X121364478Y-88445961D01*
X121330947Y-88435789D01*
X121300040Y-88419269D01*
X121272957Y-88397043D01*
X121250731Y-88369960D01*
X121234211Y-88339053D01*
X121224039Y-88305522D01*
X121220000Y-88264513D01*
X121220000Y-87485487D01*
X121224039Y-87444478D01*
X121234211Y-87410947D01*
X121250731Y-87380040D01*
X121272957Y-87352957D01*
X121300040Y-87330731D01*
X121330947Y-87314211D01*
X121364478Y-87304039D01*
X121405487Y-87300000D01*
X122434513Y-87300000D01*
X122475522Y-87304039D01*
X122475522Y-87304039D01*
G37*
G36*
X119381000Y-88386000D02*
X116331000Y-88386000D01*
X116331000Y-86866000D01*
X119381000Y-86866000D01*
X119381000Y-88386000D01*
X119381000Y-88386000D01*
G37*
G36*
X99897378Y-84436859D02*
X100261354Y-84587622D01*
X100588929Y-84806501D01*
X100867499Y-85085071D01*
X101086378Y-85412646D01*
X101237141Y-85776622D01*
X101314000Y-86163016D01*
X101314000Y-86556984D01*
X101237141Y-86943378D01*
X101086378Y-87307354D01*
X100867499Y-87634929D01*
X100588929Y-87913499D01*
X100261354Y-88132378D01*
X99897378Y-88283141D01*
X99510984Y-88360000D01*
X99117016Y-88360000D01*
X98730622Y-88283141D01*
X98366646Y-88132378D01*
X98039071Y-87913499D01*
X97760501Y-87634929D01*
X97541622Y-87307354D01*
X97390859Y-86943378D01*
X97314000Y-86556984D01*
X97314000Y-86163016D01*
X97390859Y-85776622D01*
X97541622Y-85412646D01*
X97760501Y-85085071D01*
X98039071Y-84806501D01*
X98366646Y-84587622D01*
X98730622Y-84436859D01*
X99117016Y-84360000D01*
X99510984Y-84360000D01*
X99897378Y-84436859D01*
X99897378Y-84436859D01*
G37*
G36*
X152983378Y-84436859D02*
X153347354Y-84587622D01*
X153674929Y-84806501D01*
X153953499Y-85085071D01*
X154172378Y-85412646D01*
X154323141Y-85776622D01*
X154400000Y-86163016D01*
X154400000Y-86556984D01*
X154323141Y-86943378D01*
X154172378Y-87307354D01*
X153953499Y-87634929D01*
X153674929Y-87913499D01*
X153347354Y-88132378D01*
X152983378Y-88283141D01*
X152596984Y-88360000D01*
X152203016Y-88360000D01*
X151816622Y-88283141D01*
X151452646Y-88132378D01*
X151125071Y-87913499D01*
X150846501Y-87634929D01*
X150627622Y-87307354D01*
X150476859Y-86943378D01*
X150400000Y-86556984D01*
X150400000Y-86163016D01*
X150476859Y-85776622D01*
X150627622Y-85412646D01*
X150846501Y-85085071D01*
X151125071Y-84806501D01*
X151452646Y-84587622D01*
X151816622Y-84436859D01*
X152203016Y-84360000D01*
X152596984Y-84360000D01*
X152983378Y-84436859D01*
X152983378Y-84436859D01*
G37*
G36*
X137838545Y-85780588D02*
X137838548Y-85780589D01*
X137838549Y-85780589D01*
X138002544Y-85830336D01*
X138002546Y-85830337D01*
X138002549Y-85830338D01*
X138153685Y-85911121D01*
X138286159Y-86019841D01*
X138394878Y-86152314D01*
X138448453Y-86252547D01*
X138475664Y-86303455D01*
X138509970Y-86416547D01*
X138525412Y-86467454D01*
X138538000Y-86595262D01*
X138538000Y-87140737D01*
X138525412Y-87268547D01*
X138475664Y-87432546D01*
X138394878Y-87583686D01*
X138286159Y-87716159D01*
X138153686Y-87824878D01*
X138022913Y-87894777D01*
X138002545Y-87905664D01*
X137838550Y-87955411D01*
X137838549Y-87955411D01*
X137838546Y-87955412D01*
X137668000Y-87972209D01*
X137497455Y-87955412D01*
X137497452Y-87955411D01*
X137497451Y-87955411D01*
X137333456Y-87905664D01*
X137313088Y-87894777D01*
X137182315Y-87824878D01*
X137049842Y-87716159D01*
X136941123Y-87583686D01*
X136860337Y-87432547D01*
X136853785Y-87410947D01*
X136810589Y-87268550D01*
X136810589Y-87268549D01*
X136810588Y-87268546D01*
X136798000Y-87140738D01*
X136798000Y-86595263D01*
X136810588Y-86467455D01*
X136810589Y-86467451D01*
X136860336Y-86303456D01*
X136860337Y-86303454D01*
X136860338Y-86303451D01*
X136941121Y-86152315D01*
X137049841Y-86019841D01*
X137182314Y-85911122D01*
X137333453Y-85830337D01*
X137333455Y-85830336D01*
X137497450Y-85780589D01*
X137497451Y-85780589D01*
X137497454Y-85780588D01*
X137668000Y-85763791D01*
X137838545Y-85780588D01*
X137838545Y-85780588D01*
G37*
G36*
X135298545Y-85780588D02*
X135298548Y-85780589D01*
X135298549Y-85780589D01*
X135462544Y-85830336D01*
X135462546Y-85830337D01*
X135462549Y-85830338D01*
X135613685Y-85911121D01*
X135746159Y-86019841D01*
X135854878Y-86152314D01*
X135908453Y-86252547D01*
X135935664Y-86303455D01*
X135969970Y-86416547D01*
X135985412Y-86467454D01*
X135998000Y-86595262D01*
X135998000Y-87140737D01*
X135985412Y-87268547D01*
X135935664Y-87432546D01*
X135854878Y-87583686D01*
X135746159Y-87716159D01*
X135613686Y-87824878D01*
X135482913Y-87894777D01*
X135462545Y-87905664D01*
X135298550Y-87955411D01*
X135298549Y-87955411D01*
X135298546Y-87955412D01*
X135128000Y-87972209D01*
X134957455Y-87955412D01*
X134957452Y-87955411D01*
X134957451Y-87955411D01*
X134793456Y-87905664D01*
X134773088Y-87894777D01*
X134642315Y-87824878D01*
X134509842Y-87716159D01*
X134401123Y-87583686D01*
X134320337Y-87432547D01*
X134313785Y-87410947D01*
X134270589Y-87268550D01*
X134270589Y-87268549D01*
X134270588Y-87268546D01*
X134258000Y-87140738D01*
X134258000Y-86595263D01*
X134270588Y-86467455D01*
X134270589Y-86467451D01*
X134320336Y-86303456D01*
X134320337Y-86303454D01*
X134320338Y-86303451D01*
X134401121Y-86152315D01*
X134509841Y-86019841D01*
X134642314Y-85911122D01*
X134793453Y-85830337D01*
X134793455Y-85830336D01*
X134957450Y-85780589D01*
X134957451Y-85780589D01*
X134957454Y-85780588D01*
X135128000Y-85763791D01*
X135298545Y-85780588D01*
X135298545Y-85780588D01*
G37*
G36*
X132758545Y-85780588D02*
X132758548Y-85780589D01*
X132758549Y-85780589D01*
X132922544Y-85830336D01*
X132922546Y-85830337D01*
X132922549Y-85830338D01*
X133073685Y-85911121D01*
X133206159Y-86019841D01*
X133314878Y-86152314D01*
X133368453Y-86252547D01*
X133395664Y-86303455D01*
X133429970Y-86416547D01*
X133445412Y-86467454D01*
X133458000Y-86595262D01*
X133458000Y-87140737D01*
X133445412Y-87268547D01*
X133395664Y-87432546D01*
X133314878Y-87583686D01*
X133206159Y-87716159D01*
X133073686Y-87824878D01*
X132942913Y-87894777D01*
X132922545Y-87905664D01*
X132758550Y-87955411D01*
X132758549Y-87955411D01*
X132758546Y-87955412D01*
X132588000Y-87972209D01*
X132417455Y-87955412D01*
X132417452Y-87955411D01*
X132417451Y-87955411D01*
X132253456Y-87905664D01*
X132233088Y-87894777D01*
X132102315Y-87824878D01*
X131969842Y-87716159D01*
X131861123Y-87583686D01*
X131780337Y-87432547D01*
X131773785Y-87410947D01*
X131730589Y-87268550D01*
X131730589Y-87268549D01*
X131730588Y-87268546D01*
X131718000Y-87140738D01*
X131718000Y-86595263D01*
X131730588Y-86467455D01*
X131730589Y-86467451D01*
X131780336Y-86303456D01*
X131780337Y-86303454D01*
X131780338Y-86303451D01*
X131861121Y-86152315D01*
X131969841Y-86019841D01*
X132102314Y-85911122D01*
X132253453Y-85830337D01*
X132253455Y-85830336D01*
X132417450Y-85780589D01*
X132417451Y-85780589D01*
X132417454Y-85780588D01*
X132588000Y-85763791D01*
X132758545Y-85780588D01*
X132758545Y-85780588D01*
G37*
G36*
X130218545Y-85780588D02*
X130218548Y-85780589D01*
X130218549Y-85780589D01*
X130382544Y-85830336D01*
X130382546Y-85830337D01*
X130382549Y-85830338D01*
X130533685Y-85911121D01*
X130666159Y-86019841D01*
X130774878Y-86152314D01*
X130828453Y-86252547D01*
X130855664Y-86303455D01*
X130889970Y-86416547D01*
X130905412Y-86467454D01*
X130918000Y-86595262D01*
X130918000Y-87140737D01*
X130905412Y-87268547D01*
X130855664Y-87432546D01*
X130774878Y-87583686D01*
X130666159Y-87716159D01*
X130533686Y-87824878D01*
X130402913Y-87894777D01*
X130382545Y-87905664D01*
X130218550Y-87955411D01*
X130218549Y-87955411D01*
X130218546Y-87955412D01*
X130048000Y-87972209D01*
X129877455Y-87955412D01*
X129877452Y-87955411D01*
X129877451Y-87955411D01*
X129713456Y-87905664D01*
X129693088Y-87894777D01*
X129562315Y-87824878D01*
X129429842Y-87716159D01*
X129321123Y-87583686D01*
X129240337Y-87432547D01*
X129233785Y-87410947D01*
X129190589Y-87268550D01*
X129190589Y-87268549D01*
X129190588Y-87268546D01*
X129178000Y-87140738D01*
X129178000Y-86595263D01*
X129190588Y-86467455D01*
X129190589Y-86467451D01*
X129240336Y-86303456D01*
X129240337Y-86303454D01*
X129240338Y-86303451D01*
X129321121Y-86152315D01*
X129429841Y-86019841D01*
X129562314Y-85911122D01*
X129713453Y-85830337D01*
X129713455Y-85830336D01*
X129877450Y-85780589D01*
X129877451Y-85780589D01*
X129877454Y-85780588D01*
X130048000Y-85763791D01*
X130218545Y-85780588D01*
X130218545Y-85780588D01*
G37*
G36*
X128248355Y-85771685D02*
X128278431Y-85780808D01*
X128306145Y-85795622D01*
X128330440Y-85815560D01*
X128350378Y-85839855D01*
X128365192Y-85867569D01*
X128374315Y-85897645D01*
X128378000Y-85935059D01*
X128378000Y-87800941D01*
X128374315Y-87838355D01*
X128365192Y-87868431D01*
X128350378Y-87896145D01*
X128330440Y-87920440D01*
X128306145Y-87940378D01*
X128278431Y-87955192D01*
X128248355Y-87964315D01*
X128210941Y-87968000D01*
X126805059Y-87968000D01*
X126767645Y-87964315D01*
X126737569Y-87955192D01*
X126709855Y-87940378D01*
X126685560Y-87920440D01*
X126665622Y-87896145D01*
X126650808Y-87868431D01*
X126641685Y-87838355D01*
X126638000Y-87800941D01*
X126638000Y-85935059D01*
X126641685Y-85897645D01*
X126650808Y-85867569D01*
X126665622Y-85839855D01*
X126685560Y-85815560D01*
X126709855Y-85795622D01*
X126737569Y-85780808D01*
X126767645Y-85771685D01*
X126805059Y-85768000D01*
X128210941Y-85768000D01*
X128248355Y-85771685D01*
X128248355Y-85771685D01*
G37*
G36*
X89070545Y-84764588D02*
X89070548Y-84764589D01*
X89070549Y-84764589D01*
X89234544Y-84814336D01*
X89234546Y-84814337D01*
X89234549Y-84814338D01*
X89385685Y-84895121D01*
X89518159Y-85003841D01*
X89626878Y-85136314D01*
X89693139Y-85260281D01*
X89707664Y-85287455D01*
X89745640Y-85412646D01*
X89757412Y-85451454D01*
X89770000Y-85579262D01*
X89770000Y-86124737D01*
X89757412Y-86252547D01*
X89707664Y-86416546D01*
X89626878Y-86567686D01*
X89518159Y-86700159D01*
X89385686Y-86808878D01*
X89254913Y-86878777D01*
X89234545Y-86889664D01*
X89070550Y-86939411D01*
X89070549Y-86939411D01*
X89070546Y-86939412D01*
X88900000Y-86956209D01*
X88729455Y-86939412D01*
X88729452Y-86939411D01*
X88729451Y-86939411D01*
X88565456Y-86889664D01*
X88545088Y-86878777D01*
X88414315Y-86808878D01*
X88281842Y-86700159D01*
X88173123Y-86567686D01*
X88092337Y-86416547D01*
X88042588Y-86252546D01*
X88030000Y-86124738D01*
X88030000Y-85579263D01*
X88042588Y-85451455D01*
X88042589Y-85451451D01*
X88092336Y-85287456D01*
X88092337Y-85287454D01*
X88092338Y-85287451D01*
X88173121Y-85136315D01*
X88281841Y-85003841D01*
X88414314Y-84895122D01*
X88565453Y-84814337D01*
X88565455Y-84814336D01*
X88729450Y-84764589D01*
X88729451Y-84764589D01*
X88729454Y-84764588D01*
X88900000Y-84747791D01*
X89070545Y-84764588D01*
X89070545Y-84764588D01*
G37*
G36*
X95166545Y-84764588D02*
X95166548Y-84764589D01*
X95166549Y-84764589D01*
X95330544Y-84814336D01*
X95330546Y-84814337D01*
X95330549Y-84814338D01*
X95481685Y-84895121D01*
X95614159Y-85003841D01*
X95722878Y-85136314D01*
X95789139Y-85260281D01*
X95803664Y-85287455D01*
X95841640Y-85412646D01*
X95853412Y-85451454D01*
X95866000Y-85579262D01*
X95866000Y-86124737D01*
X95853412Y-86252547D01*
X95803664Y-86416546D01*
X95722878Y-86567686D01*
X95614159Y-86700159D01*
X95481686Y-86808878D01*
X95350913Y-86878777D01*
X95330545Y-86889664D01*
X95166550Y-86939411D01*
X95166549Y-86939411D01*
X95166546Y-86939412D01*
X94996000Y-86956209D01*
X94825455Y-86939412D01*
X94825452Y-86939411D01*
X94825451Y-86939411D01*
X94661456Y-86889664D01*
X94641088Y-86878777D01*
X94510315Y-86808878D01*
X94377842Y-86700159D01*
X94269123Y-86567686D01*
X94188337Y-86416547D01*
X94138588Y-86252546D01*
X94126000Y-86124738D01*
X94126000Y-85579263D01*
X94138588Y-85451455D01*
X94138589Y-85451451D01*
X94188336Y-85287456D01*
X94188337Y-85287454D01*
X94188338Y-85287451D01*
X94269121Y-85136315D01*
X94377841Y-85003841D01*
X94510314Y-84895122D01*
X94661453Y-84814337D01*
X94661455Y-84814336D01*
X94825450Y-84764589D01*
X94825451Y-84764589D01*
X94825454Y-84764588D01*
X94996000Y-84747791D01*
X95166545Y-84764588D01*
X95166545Y-84764588D01*
G37*
G36*
X87100355Y-84755685D02*
X87130431Y-84764808D01*
X87158145Y-84779622D01*
X87182440Y-84799560D01*
X87202378Y-84823855D01*
X87217192Y-84851569D01*
X87226315Y-84881645D01*
X87230000Y-84919059D01*
X87230000Y-86784941D01*
X87226315Y-86822355D01*
X87217192Y-86852431D01*
X87202378Y-86880145D01*
X87182440Y-86904440D01*
X87158145Y-86924378D01*
X87130431Y-86939192D01*
X87100355Y-86948315D01*
X87062941Y-86952000D01*
X85657059Y-86952000D01*
X85619645Y-86948315D01*
X85589569Y-86939192D01*
X85561855Y-86924378D01*
X85537560Y-86904440D01*
X85517622Y-86880145D01*
X85502808Y-86852431D01*
X85493685Y-86822355D01*
X85490000Y-86784941D01*
X85490000Y-84919059D01*
X85493685Y-84881645D01*
X85502808Y-84851569D01*
X85517622Y-84823855D01*
X85537560Y-84799560D01*
X85561855Y-84779622D01*
X85589569Y-84764808D01*
X85619645Y-84755685D01*
X85657059Y-84752000D01*
X87062941Y-84752000D01*
X87100355Y-84755685D01*
X87100355Y-84755685D01*
G37*
G36*
X93196355Y-84755685D02*
X93226431Y-84764808D01*
X93254145Y-84779622D01*
X93278440Y-84799560D01*
X93298378Y-84823855D01*
X93313192Y-84851569D01*
X93322315Y-84881645D01*
X93326000Y-84919059D01*
X93326000Y-86784941D01*
X93322315Y-86822355D01*
X93313192Y-86852431D01*
X93298378Y-86880145D01*
X93278440Y-86904440D01*
X93254145Y-86924378D01*
X93226431Y-86939192D01*
X93196355Y-86948315D01*
X93158941Y-86952000D01*
X91753059Y-86952000D01*
X91715645Y-86948315D01*
X91685569Y-86939192D01*
X91657855Y-86924378D01*
X91633560Y-86904440D01*
X91613622Y-86880145D01*
X91598808Y-86852431D01*
X91589685Y-86822355D01*
X91586000Y-86784941D01*
X91586000Y-84919059D01*
X91589685Y-84881645D01*
X91598808Y-84851569D01*
X91613622Y-84823855D01*
X91633560Y-84799560D01*
X91657855Y-84779622D01*
X91685569Y-84764808D01*
X91715645Y-84755685D01*
X91753059Y-84752000D01*
X93158941Y-84752000D01*
X93196355Y-84755685D01*
X93196355Y-84755685D01*
G37*
G36*
X115563934Y-84526664D02*
X115718627Y-84590740D01*
X115857847Y-84683764D01*
X115976236Y-84802153D01*
X116069260Y-84941373D01*
X116133336Y-85096066D01*
X116166000Y-85260281D01*
X116166000Y-85427719D01*
X116133336Y-85591934D01*
X116069260Y-85746627D01*
X115976236Y-85885847D01*
X115857847Y-86004236D01*
X115718627Y-86097260D01*
X115563934Y-86161336D01*
X115399719Y-86194000D01*
X115232281Y-86194000D01*
X115068066Y-86161336D01*
X114913373Y-86097260D01*
X114774153Y-86004236D01*
X114655764Y-85885847D01*
X114562740Y-85746627D01*
X114498664Y-85591934D01*
X114466000Y-85427719D01*
X114466000Y-85260281D01*
X114498664Y-85096066D01*
X114562740Y-84941373D01*
X114655764Y-84802153D01*
X114774153Y-84683764D01*
X114913373Y-84590740D01*
X115068066Y-84526664D01*
X115232281Y-84494000D01*
X115399719Y-84494000D01*
X115563934Y-84526664D01*
X115563934Y-84526664D01*
G37*
G36*
X107943934Y-84526664D02*
X108098627Y-84590740D01*
X108237847Y-84683764D01*
X108356236Y-84802153D01*
X108449260Y-84941373D01*
X108513336Y-85096066D01*
X108546000Y-85260281D01*
X108546000Y-85427719D01*
X108513336Y-85591934D01*
X108449260Y-85746627D01*
X108356236Y-85885847D01*
X108237847Y-86004236D01*
X108098627Y-86097260D01*
X107943934Y-86161336D01*
X107779719Y-86194000D01*
X107612281Y-86194000D01*
X107448066Y-86161336D01*
X107293373Y-86097260D01*
X107154153Y-86004236D01*
X107035764Y-85885847D01*
X106942740Y-85746627D01*
X106878664Y-85591934D01*
X106846000Y-85427719D01*
X106846000Y-85260281D01*
X106878664Y-85096066D01*
X106942740Y-84941373D01*
X107035764Y-84802153D01*
X107154153Y-84683764D01*
X107293373Y-84590740D01*
X107448066Y-84526664D01*
X107612281Y-84494000D01*
X107779719Y-84494000D01*
X107943934Y-84526664D01*
X107943934Y-84526664D01*
G37*
G36*
X123183934Y-84526664D02*
X123338627Y-84590740D01*
X123477847Y-84683764D01*
X123596236Y-84802153D01*
X123689260Y-84941373D01*
X123753336Y-85096066D01*
X123786000Y-85260281D01*
X123786000Y-85427719D01*
X123753336Y-85591934D01*
X123689260Y-85746627D01*
X123596236Y-85885847D01*
X123477847Y-86004236D01*
X123338627Y-86097260D01*
X123183934Y-86161336D01*
X123019719Y-86194000D01*
X122852281Y-86194000D01*
X122688066Y-86161336D01*
X122533373Y-86097260D01*
X122394153Y-86004236D01*
X122275764Y-85885847D01*
X122182740Y-85746627D01*
X122118664Y-85591934D01*
X122086000Y-85427719D01*
X122086000Y-85260281D01*
X122118664Y-85096066D01*
X122182740Y-84941373D01*
X122275764Y-84802153D01*
X122394153Y-84683764D01*
X122533373Y-84590740D01*
X122688066Y-84526664D01*
X122852281Y-84494000D01*
X123019719Y-84494000D01*
X123183934Y-84526664D01*
X123183934Y-84526664D01*
G37*
G36*
X118103934Y-84526664D02*
X118258627Y-84590740D01*
X118397847Y-84683764D01*
X118516236Y-84802153D01*
X118609260Y-84941373D01*
X118673336Y-85096066D01*
X118706000Y-85260281D01*
X118706000Y-85427719D01*
X118673336Y-85591934D01*
X118609260Y-85746627D01*
X118516236Y-85885847D01*
X118397847Y-86004236D01*
X118258627Y-86097260D01*
X118103934Y-86161336D01*
X117939719Y-86194000D01*
X117772281Y-86194000D01*
X117608066Y-86161336D01*
X117453373Y-86097260D01*
X117314153Y-86004236D01*
X117195764Y-85885847D01*
X117102740Y-85746627D01*
X117038664Y-85591934D01*
X117006000Y-85427719D01*
X117006000Y-85260281D01*
X117038664Y-85096066D01*
X117102740Y-84941373D01*
X117195764Y-84802153D01*
X117314153Y-84683764D01*
X117453373Y-84590740D01*
X117608066Y-84526664D01*
X117772281Y-84494000D01*
X117939719Y-84494000D01*
X118103934Y-84526664D01*
X118103934Y-84526664D01*
G37*
G36*
X110483934Y-84526664D02*
X110638627Y-84590740D01*
X110777847Y-84683764D01*
X110896236Y-84802153D01*
X110989260Y-84941373D01*
X111053336Y-85096066D01*
X111086000Y-85260281D01*
X111086000Y-85427719D01*
X111053336Y-85591934D01*
X110989260Y-85746627D01*
X110896236Y-85885847D01*
X110777847Y-86004236D01*
X110638627Y-86097260D01*
X110483934Y-86161336D01*
X110319719Y-86194000D01*
X110152281Y-86194000D01*
X109988066Y-86161336D01*
X109833373Y-86097260D01*
X109694153Y-86004236D01*
X109575764Y-85885847D01*
X109482740Y-85746627D01*
X109418664Y-85591934D01*
X109386000Y-85427719D01*
X109386000Y-85260281D01*
X109418664Y-85096066D01*
X109482740Y-84941373D01*
X109575764Y-84802153D01*
X109694153Y-84683764D01*
X109833373Y-84590740D01*
X109988066Y-84526664D01*
X110152281Y-84494000D01*
X110319719Y-84494000D01*
X110483934Y-84526664D01*
X110483934Y-84526664D01*
G37*
G36*
X105403934Y-84526664D02*
X105558627Y-84590740D01*
X105697847Y-84683764D01*
X105816236Y-84802153D01*
X105909260Y-84941373D01*
X105973336Y-85096066D01*
X106006000Y-85260281D01*
X106006000Y-85427719D01*
X105973336Y-85591934D01*
X105909260Y-85746627D01*
X105816236Y-85885847D01*
X105697847Y-86004236D01*
X105558627Y-86097260D01*
X105403934Y-86161336D01*
X105239719Y-86194000D01*
X105072281Y-86194000D01*
X104908066Y-86161336D01*
X104753373Y-86097260D01*
X104614153Y-86004236D01*
X104495764Y-85885847D01*
X104402740Y-85746627D01*
X104338664Y-85591934D01*
X104306000Y-85427719D01*
X104306000Y-85260281D01*
X104338664Y-85096066D01*
X104402740Y-84941373D01*
X104495764Y-84802153D01*
X104614153Y-84683764D01*
X104753373Y-84590740D01*
X104908066Y-84526664D01*
X105072281Y-84494000D01*
X105239719Y-84494000D01*
X105403934Y-84526664D01*
X105403934Y-84526664D01*
G37*
G36*
X120643934Y-84526664D02*
X120798627Y-84590740D01*
X120937847Y-84683764D01*
X121056236Y-84802153D01*
X121149260Y-84941373D01*
X121213336Y-85096066D01*
X121246000Y-85260281D01*
X121246000Y-85427719D01*
X121213336Y-85591934D01*
X121149260Y-85746627D01*
X121056236Y-85885847D01*
X120937847Y-86004236D01*
X120798627Y-86097260D01*
X120643934Y-86161336D01*
X120479719Y-86194000D01*
X120312281Y-86194000D01*
X120148066Y-86161336D01*
X119993373Y-86097260D01*
X119854153Y-86004236D01*
X119735764Y-85885847D01*
X119642740Y-85746627D01*
X119578664Y-85591934D01*
X119546000Y-85427719D01*
X119546000Y-85260281D01*
X119578664Y-85096066D01*
X119642740Y-84941373D01*
X119735764Y-84802153D01*
X119854153Y-84683764D01*
X119993373Y-84590740D01*
X120148066Y-84526664D01*
X120312281Y-84494000D01*
X120479719Y-84494000D01*
X120643934Y-84526664D01*
X120643934Y-84526664D01*
G37*
G36*
X126365000Y-83821000D02*
X124845000Y-83821000D01*
X124845000Y-80771000D01*
X126365000Y-80771000D01*
X126365000Y-83821000D01*
X126365000Y-83821000D01*
G37*
G36*
X124075000Y-83821000D02*
X122555000Y-83821000D01*
X122555000Y-80771000D01*
X124075000Y-80771000D01*
X124075000Y-83821000D01*
X124075000Y-83821000D01*
G37*
G36*
X121146000Y-83446000D02*
X119646000Y-83446000D01*
X119646000Y-82446000D01*
X121146000Y-82446000D01*
X121146000Y-83446000D01*
X121146000Y-83446000D01*
G37*
G36*
X129970522Y-81600039D02*
X130004053Y-81610211D01*
X130034960Y-81626731D01*
X130062043Y-81648957D01*
X130084269Y-81676040D01*
X130100789Y-81706947D01*
X130110961Y-81740478D01*
X130115000Y-81781487D01*
X130115000Y-82810513D01*
X130110961Y-82851522D01*
X130100789Y-82885053D01*
X130084269Y-82915960D01*
X130062043Y-82943043D01*
X130034960Y-82965269D01*
X130004053Y-82981789D01*
X129970522Y-82991961D01*
X129929513Y-82996000D01*
X129150487Y-82996000D01*
X129109478Y-82991961D01*
X129075947Y-82981789D01*
X129045040Y-82965269D01*
X129017957Y-82943043D01*
X128995731Y-82915960D01*
X128979211Y-82885053D01*
X128969039Y-82851522D01*
X128965000Y-82810513D01*
X128965000Y-81781487D01*
X128969039Y-81740478D01*
X128979211Y-81706947D01*
X128995731Y-81676040D01*
X129017957Y-81648957D01*
X129045040Y-81626731D01*
X129075947Y-81610211D01*
X129109478Y-81600039D01*
X129150487Y-81596000D01*
X129929513Y-81596000D01*
X129970522Y-81600039D01*
X129970522Y-81600039D01*
G37*
G36*
X127920522Y-81600039D02*
X127954053Y-81610211D01*
X127984960Y-81626731D01*
X128012043Y-81648957D01*
X128034269Y-81676040D01*
X128050789Y-81706947D01*
X128060961Y-81740478D01*
X128065000Y-81781487D01*
X128065000Y-82810513D01*
X128060961Y-82851522D01*
X128050789Y-82885053D01*
X128034269Y-82915960D01*
X128012043Y-82943043D01*
X127984960Y-82965269D01*
X127954053Y-82981789D01*
X127920522Y-82991961D01*
X127879513Y-82996000D01*
X127100487Y-82996000D01*
X127059478Y-82991961D01*
X127025947Y-82981789D01*
X126995040Y-82965269D01*
X126967957Y-82943043D01*
X126945731Y-82915960D01*
X126929211Y-82885053D01*
X126919039Y-82851522D01*
X126915000Y-82810513D01*
X126915000Y-81781487D01*
X126919039Y-81740478D01*
X126929211Y-81706947D01*
X126945731Y-81676040D01*
X126967957Y-81648957D01*
X126995040Y-81626731D01*
X127025947Y-81610211D01*
X127059478Y-81600039D01*
X127100487Y-81596000D01*
X127879513Y-81596000D01*
X127920522Y-81600039D01*
X127920522Y-81600039D01*
G37*
G36*
X121146000Y-82146000D02*
X119646000Y-82146000D01*
X119646000Y-81146000D01*
X121146000Y-81146000D01*
X121146000Y-82146000D01*
X121146000Y-82146000D01*
G37*
G36*
X154094545Y-78668588D02*
X154094548Y-78668589D01*
X154094549Y-78668589D01*
X154258544Y-78718336D01*
X154258546Y-78718337D01*
X154258549Y-78718338D01*
X154409685Y-78799121D01*
X154542159Y-78907841D01*
X154650878Y-79040314D01*
X154731663Y-79191453D01*
X154781412Y-79355454D01*
X154794000Y-79483262D01*
X154794000Y-80028737D01*
X154781412Y-80156547D01*
X154731664Y-80320546D01*
X154650878Y-80471686D01*
X154542159Y-80604159D01*
X154409686Y-80712878D01*
X154278913Y-80782777D01*
X154258545Y-80793664D01*
X154094550Y-80843411D01*
X154094549Y-80843411D01*
X154094546Y-80843412D01*
X153924000Y-80860209D01*
X153753455Y-80843412D01*
X153753452Y-80843411D01*
X153753451Y-80843411D01*
X153589456Y-80793664D01*
X153569088Y-80782777D01*
X153438315Y-80712878D01*
X153305842Y-80604159D01*
X153197123Y-80471686D01*
X153116337Y-80320547D01*
X153066588Y-80156546D01*
X153054000Y-80028738D01*
X153054000Y-79483263D01*
X153066588Y-79355455D01*
X153066589Y-79355451D01*
X153116336Y-79191456D01*
X153116337Y-79191454D01*
X153116338Y-79191451D01*
X153197121Y-79040315D01*
X153305841Y-78907841D01*
X153438314Y-78799122D01*
X153589453Y-78718337D01*
X153589455Y-78718336D01*
X153753450Y-78668589D01*
X153753451Y-78668589D01*
X153753454Y-78668588D01*
X153924000Y-78651791D01*
X154094545Y-78668588D01*
X154094545Y-78668588D01*
G37*
G36*
X147490545Y-78668588D02*
X147490548Y-78668589D01*
X147490549Y-78668589D01*
X147654544Y-78718336D01*
X147654546Y-78718337D01*
X147654549Y-78718338D01*
X147805685Y-78799121D01*
X147938159Y-78907841D01*
X148046878Y-79040314D01*
X148127663Y-79191453D01*
X148177412Y-79355454D01*
X148190000Y-79483262D01*
X148190000Y-80028737D01*
X148177412Y-80156547D01*
X148127664Y-80320546D01*
X148046878Y-80471686D01*
X147938159Y-80604159D01*
X147805686Y-80712878D01*
X147674913Y-80782777D01*
X147654545Y-80793664D01*
X147490550Y-80843411D01*
X147490549Y-80843411D01*
X147490546Y-80843412D01*
X147320000Y-80860209D01*
X147149455Y-80843412D01*
X147149452Y-80843411D01*
X147149451Y-80843411D01*
X146985456Y-80793664D01*
X146965088Y-80782777D01*
X146834315Y-80712878D01*
X146701842Y-80604159D01*
X146593123Y-80471686D01*
X146512337Y-80320547D01*
X146462588Y-80156546D01*
X146450000Y-80028738D01*
X146450000Y-79483263D01*
X146462588Y-79355455D01*
X146462589Y-79355451D01*
X146512336Y-79191456D01*
X146512337Y-79191454D01*
X146512338Y-79191451D01*
X146593121Y-79040315D01*
X146701841Y-78907841D01*
X146834314Y-78799122D01*
X146985453Y-78718337D01*
X146985455Y-78718336D01*
X147149450Y-78668589D01*
X147149451Y-78668589D01*
X147149454Y-78668588D01*
X147320000Y-78651791D01*
X147490545Y-78668588D01*
X147490545Y-78668588D01*
G37*
G36*
X145520355Y-78659685D02*
X145550431Y-78668808D01*
X145578145Y-78683622D01*
X145602440Y-78703560D01*
X145622378Y-78727855D01*
X145637192Y-78755569D01*
X145646315Y-78785645D01*
X145650000Y-78823059D01*
X145650000Y-80688941D01*
X145646315Y-80726355D01*
X145637192Y-80756431D01*
X145622378Y-80784145D01*
X145602440Y-80808440D01*
X145578145Y-80828378D01*
X145550431Y-80843192D01*
X145520355Y-80852315D01*
X145482941Y-80856000D01*
X144077059Y-80856000D01*
X144039645Y-80852315D01*
X144009569Y-80843192D01*
X143981855Y-80828378D01*
X143957560Y-80808440D01*
X143937622Y-80784145D01*
X143922808Y-80756431D01*
X143913685Y-80726355D01*
X143910000Y-80688941D01*
X143910000Y-78823059D01*
X143913685Y-78785645D01*
X143922808Y-78755569D01*
X143937622Y-78727855D01*
X143957560Y-78703560D01*
X143981855Y-78683622D01*
X144009569Y-78668808D01*
X144039645Y-78659685D01*
X144077059Y-78656000D01*
X145482941Y-78656000D01*
X145520355Y-78659685D01*
X145520355Y-78659685D01*
G37*
G36*
X152124355Y-78659685D02*
X152154431Y-78668808D01*
X152182145Y-78683622D01*
X152206440Y-78703560D01*
X152226378Y-78727855D01*
X152241192Y-78755569D01*
X152250315Y-78785645D01*
X152254000Y-78823059D01*
X152254000Y-80688941D01*
X152250315Y-80726355D01*
X152241192Y-80756431D01*
X152226378Y-80784145D01*
X152206440Y-80808440D01*
X152182145Y-80828378D01*
X152154431Y-80843192D01*
X152124355Y-80852315D01*
X152086941Y-80856000D01*
X150681059Y-80856000D01*
X150643645Y-80852315D01*
X150613569Y-80843192D01*
X150585855Y-80828378D01*
X150561560Y-80808440D01*
X150541622Y-80784145D01*
X150526808Y-80756431D01*
X150517685Y-80726355D01*
X150514000Y-80688941D01*
X150514000Y-78823059D01*
X150517685Y-78785645D01*
X150526808Y-78755569D01*
X150541622Y-78727855D01*
X150561560Y-78703560D01*
X150585855Y-78683622D01*
X150613569Y-78668808D01*
X150643645Y-78659685D01*
X150681059Y-78656000D01*
X152086941Y-78656000D01*
X152124355Y-78659685D01*
X152124355Y-78659685D01*
G37*
G36*
X122849522Y-78552039D02*
X122883053Y-78562211D01*
X122913960Y-78578731D01*
X122941043Y-78600957D01*
X122963269Y-78628040D01*
X122979789Y-78658947D01*
X122989961Y-78692478D01*
X122994000Y-78733487D01*
X122994000Y-79762513D01*
X122989961Y-79803522D01*
X122979789Y-79837053D01*
X122963269Y-79867960D01*
X122941043Y-79895043D01*
X122913960Y-79917269D01*
X122883053Y-79933789D01*
X122849522Y-79943961D01*
X122808513Y-79948000D01*
X122029487Y-79948000D01*
X121988478Y-79943961D01*
X121954947Y-79933789D01*
X121924040Y-79917269D01*
X121896957Y-79895043D01*
X121874731Y-79867960D01*
X121858211Y-79837053D01*
X121848039Y-79803522D01*
X121844000Y-79762513D01*
X121844000Y-78733487D01*
X121848039Y-78692478D01*
X121858211Y-78658947D01*
X121874731Y-78628040D01*
X121896957Y-78600957D01*
X121924040Y-78578731D01*
X121954947Y-78562211D01*
X121988478Y-78552039D01*
X122029487Y-78548000D01*
X122808513Y-78548000D01*
X122849522Y-78552039D01*
X122849522Y-78552039D01*
G37*
G36*
X124899522Y-78552039D02*
X124933053Y-78562211D01*
X124963960Y-78578731D01*
X124991043Y-78600957D01*
X125013269Y-78628040D01*
X125029789Y-78658947D01*
X125039961Y-78692478D01*
X125044000Y-78733487D01*
X125044000Y-79762513D01*
X125039961Y-79803522D01*
X125029789Y-79837053D01*
X125013269Y-79867960D01*
X124991043Y-79895043D01*
X124963960Y-79917269D01*
X124933053Y-79933789D01*
X124899522Y-79943961D01*
X124858513Y-79948000D01*
X124079487Y-79948000D01*
X124038478Y-79943961D01*
X124004947Y-79933789D01*
X123974040Y-79917269D01*
X123946957Y-79895043D01*
X123924731Y-79867960D01*
X123908211Y-79837053D01*
X123898039Y-79803522D01*
X123894000Y-79762513D01*
X123894000Y-78733487D01*
X123898039Y-78692478D01*
X123908211Y-78658947D01*
X123924731Y-78628040D01*
X123946957Y-78600957D01*
X123974040Y-78578731D01*
X124004947Y-78562211D01*
X124038478Y-78552039D01*
X124079487Y-78548000D01*
X124858513Y-78548000D01*
X124899522Y-78552039D01*
X124899522Y-78552039D01*
G37*
G36*
X120951522Y-78695039D02*
X120985053Y-78705211D01*
X121015960Y-78721731D01*
X121043043Y-78743957D01*
X121065269Y-78771040D01*
X121081789Y-78801947D01*
X121091961Y-78835478D01*
X121096000Y-78876487D01*
X121096000Y-79655513D01*
X121091961Y-79696522D01*
X121081789Y-79730053D01*
X121065269Y-79760960D01*
X121043043Y-79788043D01*
X121015960Y-79810269D01*
X120985053Y-79826789D01*
X120951522Y-79836961D01*
X120910513Y-79841000D01*
X119881487Y-79841000D01*
X119840478Y-79836961D01*
X119806947Y-79826789D01*
X119776040Y-79810269D01*
X119748957Y-79788043D01*
X119726731Y-79760960D01*
X119710211Y-79730053D01*
X119700039Y-79696522D01*
X119696000Y-79655513D01*
X119696000Y-78876487D01*
X119700039Y-78835478D01*
X119710211Y-78801947D01*
X119726731Y-78771040D01*
X119748957Y-78743957D01*
X119776040Y-78721731D01*
X119806947Y-78705211D01*
X119840478Y-78695039D01*
X119881487Y-78691000D01*
X120910513Y-78691000D01*
X120951522Y-78695039D01*
X120951522Y-78695039D01*
G37*
G36*
X137297000Y-79350000D02*
X136647000Y-79350000D01*
X136647000Y-77350000D01*
X137297000Y-77350000D01*
X137297000Y-79350000D01*
X137297000Y-79350000D01*
G37*
G36*
X132908448Y-78360319D02*
X131358448Y-78360319D01*
X131358448Y-77760319D01*
X132908448Y-77760319D01*
X132908448Y-78360319D01*
X132908448Y-78360319D01*
G37*
G36*
X127508448Y-78360319D02*
X125958448Y-78360319D01*
X125958448Y-77760319D01*
X127508448Y-77760319D01*
X127508448Y-78360319D01*
X127508448Y-78360319D01*
G37*
G36*
X124052970Y-76727358D02*
X124086501Y-76737530D01*
X124117408Y-76754050D01*
X124144491Y-76776276D01*
X124166717Y-76803359D01*
X124183237Y-76834266D01*
X124193409Y-76867797D01*
X124197448Y-76908806D01*
X124197448Y-77687832D01*
X124193409Y-77728841D01*
X124183237Y-77762372D01*
X124166717Y-77793279D01*
X124144491Y-77820362D01*
X124117408Y-77842588D01*
X124086501Y-77859108D01*
X124052970Y-77869280D01*
X124011961Y-77873319D01*
X122982935Y-77873319D01*
X122941926Y-77869280D01*
X122908395Y-77859108D01*
X122877488Y-77842588D01*
X122850405Y-77820362D01*
X122828179Y-77793279D01*
X122811659Y-77762372D01*
X122801487Y-77728841D01*
X122797448Y-77687832D01*
X122797448Y-76908806D01*
X122801487Y-76867797D01*
X122811659Y-76834266D01*
X122828179Y-76803359D01*
X122850405Y-76776276D01*
X122877488Y-76754050D01*
X122908395Y-76737530D01*
X122941926Y-76727358D01*
X122982935Y-76723319D01*
X124011961Y-76723319D01*
X124052970Y-76727358D01*
X124052970Y-76727358D01*
G37*
G36*
X89070545Y-75620588D02*
X89070548Y-75620589D01*
X89070549Y-75620589D01*
X89234544Y-75670336D01*
X89234546Y-75670337D01*
X89234549Y-75670338D01*
X89385685Y-75751121D01*
X89518159Y-75859841D01*
X89626878Y-75992314D01*
X89707663Y-76143453D01*
X89757412Y-76307454D01*
X89770000Y-76435262D01*
X89770000Y-76980737D01*
X89757412Y-77108547D01*
X89707664Y-77272546D01*
X89626878Y-77423686D01*
X89518159Y-77556159D01*
X89385686Y-77664878D01*
X89254913Y-77734777D01*
X89234545Y-77745664D01*
X89070550Y-77795411D01*
X89070549Y-77795411D01*
X89070546Y-77795412D01*
X88900000Y-77812209D01*
X88729455Y-77795412D01*
X88729452Y-77795411D01*
X88729451Y-77795411D01*
X88565456Y-77745664D01*
X88545088Y-77734777D01*
X88414315Y-77664878D01*
X88281842Y-77556159D01*
X88173123Y-77423686D01*
X88092337Y-77272547D01*
X88042588Y-77108546D01*
X88030000Y-76980738D01*
X88030000Y-76435263D01*
X88042588Y-76307455D01*
X88042589Y-76307451D01*
X88092336Y-76143456D01*
X88092337Y-76143454D01*
X88092338Y-76143451D01*
X88173121Y-75992315D01*
X88281841Y-75859841D01*
X88414314Y-75751122D01*
X88565453Y-75670337D01*
X88565455Y-75670336D01*
X88729450Y-75620589D01*
X88729451Y-75620589D01*
X88729454Y-75620588D01*
X88900000Y-75603791D01*
X89070545Y-75620588D01*
X89070545Y-75620588D01*
G37*
G36*
X101262545Y-75620588D02*
X101262548Y-75620589D01*
X101262549Y-75620589D01*
X101426544Y-75670336D01*
X101426546Y-75670337D01*
X101426549Y-75670338D01*
X101577685Y-75751121D01*
X101710159Y-75859841D01*
X101818878Y-75992314D01*
X101899663Y-76143453D01*
X101949412Y-76307454D01*
X101962000Y-76435262D01*
X101962000Y-76980737D01*
X101949412Y-77108547D01*
X101899664Y-77272546D01*
X101818878Y-77423686D01*
X101710159Y-77556159D01*
X101577686Y-77664878D01*
X101446913Y-77734777D01*
X101426545Y-77745664D01*
X101262550Y-77795411D01*
X101262549Y-77795411D01*
X101262546Y-77795412D01*
X101092000Y-77812209D01*
X100921455Y-77795412D01*
X100921452Y-77795411D01*
X100921451Y-77795411D01*
X100757456Y-77745664D01*
X100737088Y-77734777D01*
X100606315Y-77664878D01*
X100473842Y-77556159D01*
X100365123Y-77423686D01*
X100284337Y-77272547D01*
X100234588Y-77108546D01*
X100222000Y-76980738D01*
X100222000Y-76435263D01*
X100234588Y-76307455D01*
X100234589Y-76307451D01*
X100284336Y-76143456D01*
X100284337Y-76143454D01*
X100284338Y-76143451D01*
X100365121Y-75992315D01*
X100473841Y-75859841D01*
X100606314Y-75751122D01*
X100757453Y-75670337D01*
X100757455Y-75670336D01*
X100921450Y-75620589D01*
X100921451Y-75620589D01*
X100921454Y-75620588D01*
X101092000Y-75603791D01*
X101262545Y-75620588D01*
X101262545Y-75620588D01*
G37*
G36*
X95166545Y-75620588D02*
X95166548Y-75620589D01*
X95166549Y-75620589D01*
X95330544Y-75670336D01*
X95330546Y-75670337D01*
X95330549Y-75670338D01*
X95481685Y-75751121D01*
X95614159Y-75859841D01*
X95722878Y-75992314D01*
X95803663Y-76143453D01*
X95853412Y-76307454D01*
X95866000Y-76435262D01*
X95866000Y-76980737D01*
X95853412Y-77108547D01*
X95803664Y-77272546D01*
X95722878Y-77423686D01*
X95614159Y-77556159D01*
X95481686Y-77664878D01*
X95350913Y-77734777D01*
X95330545Y-77745664D01*
X95166550Y-77795411D01*
X95166549Y-77795411D01*
X95166546Y-77795412D01*
X94996000Y-77812209D01*
X94825455Y-77795412D01*
X94825452Y-77795411D01*
X94825451Y-77795411D01*
X94661456Y-77745664D01*
X94641088Y-77734777D01*
X94510315Y-77664878D01*
X94377842Y-77556159D01*
X94269123Y-77423686D01*
X94188337Y-77272547D01*
X94138588Y-77108546D01*
X94126000Y-76980738D01*
X94126000Y-76435263D01*
X94138588Y-76307455D01*
X94138589Y-76307451D01*
X94188336Y-76143456D01*
X94188337Y-76143454D01*
X94188338Y-76143451D01*
X94269121Y-75992315D01*
X94377841Y-75859841D01*
X94510314Y-75751122D01*
X94661453Y-75670337D01*
X94661455Y-75670336D01*
X94825450Y-75620589D01*
X94825451Y-75620589D01*
X94825454Y-75620588D01*
X94996000Y-75603791D01*
X95166545Y-75620588D01*
X95166545Y-75620588D01*
G37*
G36*
X99292355Y-75611685D02*
X99322431Y-75620808D01*
X99350145Y-75635622D01*
X99374440Y-75655560D01*
X99394378Y-75679855D01*
X99409192Y-75707569D01*
X99418315Y-75737645D01*
X99422000Y-75775059D01*
X99422000Y-77640941D01*
X99418315Y-77678355D01*
X99409192Y-77708431D01*
X99394378Y-77736145D01*
X99374440Y-77760440D01*
X99350145Y-77780378D01*
X99322431Y-77795192D01*
X99292355Y-77804315D01*
X99254941Y-77808000D01*
X97849059Y-77808000D01*
X97811645Y-77804315D01*
X97781569Y-77795192D01*
X97753855Y-77780378D01*
X97729560Y-77760440D01*
X97709622Y-77736145D01*
X97694808Y-77708431D01*
X97685685Y-77678355D01*
X97682000Y-77640941D01*
X97682000Y-75775059D01*
X97685685Y-75737645D01*
X97694808Y-75707569D01*
X97709622Y-75679855D01*
X97729560Y-75655560D01*
X97753855Y-75635622D01*
X97781569Y-75620808D01*
X97811645Y-75611685D01*
X97849059Y-75608000D01*
X99254941Y-75608000D01*
X99292355Y-75611685D01*
X99292355Y-75611685D01*
G37*
G36*
X93196355Y-75611685D02*
X93226431Y-75620808D01*
X93254145Y-75635622D01*
X93278440Y-75655560D01*
X93298378Y-75679855D01*
X93313192Y-75707569D01*
X93322315Y-75737645D01*
X93326000Y-75775059D01*
X93326000Y-77640941D01*
X93322315Y-77678355D01*
X93313192Y-77708431D01*
X93298378Y-77736145D01*
X93278440Y-77760440D01*
X93254145Y-77780378D01*
X93226431Y-77795192D01*
X93196355Y-77804315D01*
X93158941Y-77808000D01*
X91753059Y-77808000D01*
X91715645Y-77804315D01*
X91685569Y-77795192D01*
X91657855Y-77780378D01*
X91633560Y-77760440D01*
X91613622Y-77736145D01*
X91598808Y-77708431D01*
X91589685Y-77678355D01*
X91586000Y-77640941D01*
X91586000Y-75775059D01*
X91589685Y-75737645D01*
X91598808Y-75707569D01*
X91613622Y-75679855D01*
X91633560Y-75655560D01*
X91657855Y-75635622D01*
X91685569Y-75620808D01*
X91715645Y-75611685D01*
X91753059Y-75608000D01*
X93158941Y-75608000D01*
X93196355Y-75611685D01*
X93196355Y-75611685D01*
G37*
G36*
X87100355Y-75611685D02*
X87130431Y-75620808D01*
X87158145Y-75635622D01*
X87182440Y-75655560D01*
X87202378Y-75679855D01*
X87217192Y-75707569D01*
X87226315Y-75737645D01*
X87230000Y-75775059D01*
X87230000Y-77640941D01*
X87226315Y-77678355D01*
X87217192Y-77708431D01*
X87202378Y-77736145D01*
X87182440Y-77760440D01*
X87158145Y-77780378D01*
X87130431Y-77795192D01*
X87100355Y-77804315D01*
X87062941Y-77808000D01*
X85657059Y-77808000D01*
X85619645Y-77804315D01*
X85589569Y-77795192D01*
X85561855Y-77780378D01*
X85537560Y-77760440D01*
X85517622Y-77736145D01*
X85502808Y-77708431D01*
X85493685Y-77678355D01*
X85490000Y-77640941D01*
X85490000Y-75775059D01*
X85493685Y-75737645D01*
X85502808Y-75707569D01*
X85517622Y-75679855D01*
X85537560Y-75655560D01*
X85561855Y-75635622D01*
X85589569Y-75620808D01*
X85619645Y-75611685D01*
X85657059Y-75608000D01*
X87062941Y-75608000D01*
X87100355Y-75611685D01*
X87100355Y-75611685D01*
G37*
G36*
X120951522Y-76645039D02*
X120985053Y-76655211D01*
X121015960Y-76671731D01*
X121043043Y-76693957D01*
X121065269Y-76721040D01*
X121081789Y-76751947D01*
X121091961Y-76785478D01*
X121096000Y-76826487D01*
X121096000Y-77605513D01*
X121091961Y-77646522D01*
X121081789Y-77680053D01*
X121065269Y-77710960D01*
X121043043Y-77738043D01*
X121015960Y-77760269D01*
X120985053Y-77776789D01*
X120951522Y-77786961D01*
X120910513Y-77791000D01*
X119881487Y-77791000D01*
X119840478Y-77786961D01*
X119806947Y-77776789D01*
X119776040Y-77760269D01*
X119748957Y-77738043D01*
X119726731Y-77710960D01*
X119710211Y-77680053D01*
X119700039Y-77646522D01*
X119696000Y-77605513D01*
X119696000Y-76826487D01*
X119700039Y-76785478D01*
X119710211Y-76751947D01*
X119726731Y-76721040D01*
X119748957Y-76693957D01*
X119776040Y-76671731D01*
X119806947Y-76655211D01*
X119840478Y-76645039D01*
X119881487Y-76641000D01*
X120910513Y-76641000D01*
X120951522Y-76645039D01*
X120951522Y-76645039D01*
G37*
G36*
X127508448Y-77090319D02*
X125958448Y-77090319D01*
X125958448Y-76490319D01*
X127508448Y-76490319D01*
X127508448Y-77090319D01*
X127508448Y-77090319D01*
G37*
G36*
X132908448Y-77090319D02*
X131358448Y-77090319D01*
X131358448Y-76490319D01*
X132908448Y-76490319D01*
X132908448Y-77090319D01*
X132908448Y-77090319D01*
G37*
G36*
X120879970Y-74570358D02*
X120913501Y-74580530D01*
X120944408Y-74597050D01*
X120971491Y-74619276D01*
X120993717Y-74646359D01*
X121010237Y-74677266D01*
X121020409Y-74710797D01*
X121024448Y-74751806D01*
X121024448Y-75780832D01*
X121020409Y-75821841D01*
X121010237Y-75855372D01*
X120993717Y-75886279D01*
X120971491Y-75913362D01*
X120944408Y-75935588D01*
X120913501Y-75952108D01*
X120879970Y-75962280D01*
X120838961Y-75966319D01*
X120059935Y-75966319D01*
X120018926Y-75962280D01*
X119985395Y-75952108D01*
X119954488Y-75935588D01*
X119927405Y-75913362D01*
X119905179Y-75886279D01*
X119888659Y-75855372D01*
X119878487Y-75821841D01*
X119874448Y-75780832D01*
X119874448Y-74751806D01*
X119878487Y-74710797D01*
X119888659Y-74677266D01*
X119905179Y-74646359D01*
X119927405Y-74619276D01*
X119954488Y-74597050D01*
X119985395Y-74580530D01*
X120018926Y-74570358D01*
X120059935Y-74566319D01*
X120838961Y-74566319D01*
X120879970Y-74570358D01*
X120879970Y-74570358D01*
G37*
G36*
X118829970Y-74570358D02*
X118863501Y-74580530D01*
X118894408Y-74597050D01*
X118921491Y-74619276D01*
X118943717Y-74646359D01*
X118960237Y-74677266D01*
X118970409Y-74710797D01*
X118974448Y-74751806D01*
X118974448Y-75780832D01*
X118970409Y-75821841D01*
X118960237Y-75855372D01*
X118943717Y-75886279D01*
X118921491Y-75913362D01*
X118894408Y-75935588D01*
X118863501Y-75952108D01*
X118829970Y-75962280D01*
X118788961Y-75966319D01*
X118009935Y-75966319D01*
X117968926Y-75962280D01*
X117935395Y-75952108D01*
X117904488Y-75935588D01*
X117877405Y-75913362D01*
X117855179Y-75886279D01*
X117838659Y-75855372D01*
X117828487Y-75821841D01*
X117824448Y-75780832D01*
X117824448Y-74751806D01*
X117828487Y-74710797D01*
X117838659Y-74677266D01*
X117855179Y-74646359D01*
X117877405Y-74619276D01*
X117904488Y-74597050D01*
X117935395Y-74580530D01*
X117968926Y-74570358D01*
X118009935Y-74566319D01*
X118788961Y-74566319D01*
X118829970Y-74570358D01*
X118829970Y-74570358D01*
G37*
G36*
X138247000Y-75930000D02*
X137597000Y-75930000D01*
X137597000Y-73930000D01*
X138247000Y-73930000D01*
X138247000Y-75930000D01*
X138247000Y-75930000D01*
G37*
G36*
X136347000Y-75930000D02*
X135697000Y-75930000D01*
X135697000Y-73930000D01*
X136347000Y-73930000D01*
X136347000Y-75930000D01*
X136347000Y-75930000D01*
G37*
G36*
X124052970Y-74677358D02*
X124086501Y-74687530D01*
X124117408Y-74704050D01*
X124144491Y-74726276D01*
X124166717Y-74753359D01*
X124183237Y-74784266D01*
X124193409Y-74817797D01*
X124197448Y-74858806D01*
X124197448Y-75637832D01*
X124193409Y-75678841D01*
X124183237Y-75712372D01*
X124166717Y-75743279D01*
X124144491Y-75770362D01*
X124117408Y-75792588D01*
X124086501Y-75809108D01*
X124052970Y-75819280D01*
X124011961Y-75823319D01*
X122982935Y-75823319D01*
X122941926Y-75819280D01*
X122908395Y-75809108D01*
X122877488Y-75792588D01*
X122850405Y-75770362D01*
X122828179Y-75743279D01*
X122811659Y-75712372D01*
X122801487Y-75678841D01*
X122797448Y-75637832D01*
X122797448Y-74858806D01*
X122801487Y-74817797D01*
X122811659Y-74784266D01*
X122828179Y-74753359D01*
X122850405Y-74726276D01*
X122877488Y-74704050D01*
X122908395Y-74687530D01*
X122941926Y-74677358D01*
X122982935Y-74673319D01*
X124011961Y-74673319D01*
X124052970Y-74677358D01*
X124052970Y-74677358D01*
G37*
G36*
X132908448Y-75820319D02*
X131358448Y-75820319D01*
X131358448Y-75220319D01*
X132908448Y-75220319D01*
X132908448Y-75820319D01*
X132908448Y-75820319D01*
G37*
G36*
X127508448Y-75820319D02*
X125958448Y-75820319D01*
X125958448Y-75220319D01*
X127508448Y-75220319D01*
X127508448Y-75820319D01*
X127508448Y-75820319D01*
G37*
G36*
X132908448Y-74550319D02*
X131358448Y-74550319D01*
X131358448Y-73950319D01*
X132908448Y-73950319D01*
X132908448Y-74550319D01*
X132908448Y-74550319D01*
G37*
G36*
X127508448Y-74550319D02*
X125958448Y-74550319D01*
X125958448Y-73950319D01*
X127508448Y-73950319D01*
X127508448Y-74550319D01*
X127508448Y-74550319D01*
G37*
G36*
X154094545Y-71048588D02*
X154094548Y-71048589D01*
X154094549Y-71048589D01*
X154258544Y-71098336D01*
X154258546Y-71098337D01*
X154258549Y-71098338D01*
X154409685Y-71179121D01*
X154542159Y-71287841D01*
X154650878Y-71420314D01*
X154731663Y-71571453D01*
X154781412Y-71735454D01*
X154794000Y-71863262D01*
X154794000Y-72408737D01*
X154781412Y-72536547D01*
X154731664Y-72700546D01*
X154650878Y-72851686D01*
X154542159Y-72984159D01*
X154409686Y-73092878D01*
X154278913Y-73162777D01*
X154258545Y-73173664D01*
X154094550Y-73223411D01*
X154094549Y-73223411D01*
X154094546Y-73223412D01*
X153924000Y-73240209D01*
X153753455Y-73223412D01*
X153753452Y-73223411D01*
X153753451Y-73223411D01*
X153589456Y-73173664D01*
X153569088Y-73162777D01*
X153438315Y-73092878D01*
X153305842Y-72984159D01*
X153197123Y-72851686D01*
X153116337Y-72700547D01*
X153066588Y-72536546D01*
X153054000Y-72408738D01*
X153054000Y-71863263D01*
X153066588Y-71735455D01*
X153066589Y-71735451D01*
X153116336Y-71571456D01*
X153116337Y-71571454D01*
X153116338Y-71571451D01*
X153197121Y-71420315D01*
X153305841Y-71287841D01*
X153438314Y-71179122D01*
X153589453Y-71098337D01*
X153589455Y-71098336D01*
X153753450Y-71048589D01*
X153753451Y-71048589D01*
X153753454Y-71048588D01*
X153924000Y-71031791D01*
X154094545Y-71048588D01*
X154094545Y-71048588D01*
G37*
G36*
X147490545Y-71048588D02*
X147490548Y-71048589D01*
X147490549Y-71048589D01*
X147654544Y-71098336D01*
X147654546Y-71098337D01*
X147654549Y-71098338D01*
X147805685Y-71179121D01*
X147938159Y-71287841D01*
X148046878Y-71420314D01*
X148127663Y-71571453D01*
X148177412Y-71735454D01*
X148190000Y-71863262D01*
X148190000Y-72408737D01*
X148177412Y-72536547D01*
X148127664Y-72700546D01*
X148046878Y-72851686D01*
X147938159Y-72984159D01*
X147805686Y-73092878D01*
X147674913Y-73162777D01*
X147654545Y-73173664D01*
X147490550Y-73223411D01*
X147490549Y-73223411D01*
X147490546Y-73223412D01*
X147320000Y-73240209D01*
X147149455Y-73223412D01*
X147149452Y-73223411D01*
X147149451Y-73223411D01*
X146985456Y-73173664D01*
X146965088Y-73162777D01*
X146834315Y-73092878D01*
X146701842Y-72984159D01*
X146593123Y-72851686D01*
X146512337Y-72700547D01*
X146462588Y-72536546D01*
X146450000Y-72408738D01*
X146450000Y-71863263D01*
X146462588Y-71735455D01*
X146462589Y-71735451D01*
X146512336Y-71571456D01*
X146512337Y-71571454D01*
X146512338Y-71571451D01*
X146593121Y-71420315D01*
X146701841Y-71287841D01*
X146834314Y-71179122D01*
X146985453Y-71098337D01*
X146985455Y-71098336D01*
X147149450Y-71048589D01*
X147149451Y-71048589D01*
X147149454Y-71048588D01*
X147320000Y-71031791D01*
X147490545Y-71048588D01*
X147490545Y-71048588D01*
G37*
G36*
X152124355Y-71039685D02*
X152154431Y-71048808D01*
X152182145Y-71063622D01*
X152206440Y-71083560D01*
X152226378Y-71107855D01*
X152241192Y-71135569D01*
X152250315Y-71165645D01*
X152254000Y-71203059D01*
X152254000Y-73068941D01*
X152250315Y-73106355D01*
X152241192Y-73136431D01*
X152226378Y-73164145D01*
X152206440Y-73188440D01*
X152182145Y-73208378D01*
X152154431Y-73223192D01*
X152124355Y-73232315D01*
X152086941Y-73236000D01*
X150681059Y-73236000D01*
X150643645Y-73232315D01*
X150613569Y-73223192D01*
X150585855Y-73208378D01*
X150561560Y-73188440D01*
X150541622Y-73164145D01*
X150526808Y-73136431D01*
X150517685Y-73106355D01*
X150514000Y-73068941D01*
X150514000Y-71203059D01*
X150517685Y-71165645D01*
X150526808Y-71135569D01*
X150541622Y-71107855D01*
X150561560Y-71083560D01*
X150585855Y-71063622D01*
X150613569Y-71048808D01*
X150643645Y-71039685D01*
X150681059Y-71036000D01*
X152086941Y-71036000D01*
X152124355Y-71039685D01*
X152124355Y-71039685D01*
G37*
G36*
X145520355Y-71039685D02*
X145550431Y-71048808D01*
X145578145Y-71063622D01*
X145602440Y-71083560D01*
X145622378Y-71107855D01*
X145637192Y-71135569D01*
X145646315Y-71165645D01*
X145650000Y-71203059D01*
X145650000Y-73068941D01*
X145646315Y-73106355D01*
X145637192Y-73136431D01*
X145622378Y-73164145D01*
X145602440Y-73188440D01*
X145578145Y-73208378D01*
X145550431Y-73223192D01*
X145520355Y-73232315D01*
X145482941Y-73236000D01*
X144077059Y-73236000D01*
X144039645Y-73232315D01*
X144009569Y-73223192D01*
X143981855Y-73208378D01*
X143957560Y-73188440D01*
X143937622Y-73164145D01*
X143922808Y-73136431D01*
X143913685Y-73106355D01*
X143910000Y-73068941D01*
X143910000Y-71203059D01*
X143913685Y-71165645D01*
X143922808Y-71135569D01*
X143937622Y-71107855D01*
X143957560Y-71083560D01*
X143981855Y-71063622D01*
X144009569Y-71048808D01*
X144039645Y-71039685D01*
X144077059Y-71036000D01*
X145482941Y-71036000D01*
X145520355Y-71039685D01*
X145520355Y-71039685D01*
G37*
G36*
X99490522Y-70932039D02*
X99524053Y-70942211D01*
X99554960Y-70958731D01*
X99582043Y-70980957D01*
X99604269Y-71008040D01*
X99620789Y-71038947D01*
X99630961Y-71072478D01*
X99635000Y-71113487D01*
X99635000Y-72142513D01*
X99630961Y-72183522D01*
X99620789Y-72217053D01*
X99604269Y-72247960D01*
X99582043Y-72275043D01*
X99554960Y-72297269D01*
X99524053Y-72313789D01*
X99490522Y-72323961D01*
X99449513Y-72328000D01*
X98670487Y-72328000D01*
X98629478Y-72323961D01*
X98595947Y-72313789D01*
X98565040Y-72297269D01*
X98537957Y-72275043D01*
X98515731Y-72247960D01*
X98499211Y-72217053D01*
X98489039Y-72183522D01*
X98485000Y-72142513D01*
X98485000Y-71113487D01*
X98489039Y-71072478D01*
X98499211Y-71038947D01*
X98515731Y-71008040D01*
X98537957Y-70980957D01*
X98565040Y-70958731D01*
X98595947Y-70942211D01*
X98629478Y-70932039D01*
X98670487Y-70928000D01*
X99449513Y-70928000D01*
X99490522Y-70932039D01*
X99490522Y-70932039D01*
G37*
G36*
X97440522Y-70932039D02*
X97474053Y-70942211D01*
X97504960Y-70958731D01*
X97532043Y-70980957D01*
X97554269Y-71008040D01*
X97570789Y-71038947D01*
X97580961Y-71072478D01*
X97585000Y-71113487D01*
X97585000Y-72142513D01*
X97580961Y-72183522D01*
X97570789Y-72217053D01*
X97554269Y-72247960D01*
X97532043Y-72275043D01*
X97504960Y-72297269D01*
X97474053Y-72313789D01*
X97440522Y-72323961D01*
X97399513Y-72328000D01*
X96620487Y-72328000D01*
X96579478Y-72323961D01*
X96545947Y-72313789D01*
X96515040Y-72297269D01*
X96487957Y-72275043D01*
X96465731Y-72247960D01*
X96449211Y-72217053D01*
X96439039Y-72183522D01*
X96435000Y-72142513D01*
X96435000Y-71113487D01*
X96439039Y-71072478D01*
X96449211Y-71038947D01*
X96465731Y-71008040D01*
X96487957Y-70980957D01*
X96515040Y-70958731D01*
X96545947Y-70942211D01*
X96579478Y-70932039D01*
X96620487Y-70928000D01*
X97399513Y-70928000D01*
X97440522Y-70932039D01*
X97440522Y-70932039D01*
G37*
G36*
X111666000Y-72110000D02*
X106266000Y-72110000D01*
X106266000Y-69210000D01*
X111666000Y-69210000D01*
X111666000Y-72110000D01*
X111666000Y-72110000D01*
G37*
G36*
X124874000Y-72110000D02*
X119474000Y-72110000D01*
X119474000Y-69210000D01*
X124874000Y-69210000D01*
X124874000Y-72110000D01*
X124874000Y-72110000D01*
G37*
G36*
X138082000Y-72110000D02*
X132682000Y-72110000D01*
X132682000Y-69210000D01*
X138082000Y-69210000D01*
X138082000Y-72110000D01*
X138082000Y-72110000D01*
G37*
G36*
X97439398Y-70078600D02*
X96880598Y-70078600D01*
X96880598Y-68605400D01*
X97439398Y-68605400D01*
X97439398Y-70078600D01*
X97439398Y-70078600D01*
G37*
G36*
X99339400Y-70078600D02*
X98780600Y-70078600D01*
X98780600Y-68605400D01*
X99339400Y-68605400D01*
X99339400Y-70078600D01*
X99339400Y-70078600D01*
G37*
G36*
X95166545Y-66476588D02*
X95166548Y-66476589D01*
X95166549Y-66476589D01*
X95330544Y-66526336D01*
X95330546Y-66526337D01*
X95330549Y-66526338D01*
X95481685Y-66607121D01*
X95614159Y-66715841D01*
X95722878Y-66848314D01*
X95803662Y-66999451D01*
X95803664Y-66999455D01*
X95853411Y-67163450D01*
X95853412Y-67163454D01*
X95866000Y-67291262D01*
X95866000Y-67836737D01*
X95853412Y-67964547D01*
X95803664Y-68128546D01*
X95722878Y-68279686D01*
X95614159Y-68412159D01*
X95481686Y-68520878D01*
X95350913Y-68590777D01*
X95330545Y-68601664D01*
X95166550Y-68651411D01*
X95166549Y-68651411D01*
X95166546Y-68651412D01*
X94996000Y-68668209D01*
X94825455Y-68651412D01*
X94825452Y-68651411D01*
X94825451Y-68651411D01*
X94661456Y-68601664D01*
X94641088Y-68590777D01*
X94510315Y-68520878D01*
X94377842Y-68412159D01*
X94269123Y-68279686D01*
X94188337Y-68128547D01*
X94184188Y-68114868D01*
X94138589Y-67964550D01*
X94138589Y-67964549D01*
X94138588Y-67964546D01*
X94126000Y-67836738D01*
X94126000Y-67291263D01*
X94138588Y-67163455D01*
X94138589Y-67163451D01*
X94188336Y-66999456D01*
X94188337Y-66999454D01*
X94188338Y-66999451D01*
X94269121Y-66848315D01*
X94377841Y-66715841D01*
X94510314Y-66607122D01*
X94661453Y-66526337D01*
X94661455Y-66526336D01*
X94825450Y-66476589D01*
X94825451Y-66476589D01*
X94825454Y-66476588D01*
X94996000Y-66459791D01*
X95166545Y-66476588D01*
X95166545Y-66476588D01*
G37*
G36*
X89070545Y-66476588D02*
X89070548Y-66476589D01*
X89070549Y-66476589D01*
X89234544Y-66526336D01*
X89234546Y-66526337D01*
X89234549Y-66526338D01*
X89385685Y-66607121D01*
X89518159Y-66715841D01*
X89626878Y-66848314D01*
X89707662Y-66999451D01*
X89707664Y-66999455D01*
X89757411Y-67163450D01*
X89757412Y-67163454D01*
X89770000Y-67291262D01*
X89770000Y-67836737D01*
X89757412Y-67964547D01*
X89707664Y-68128546D01*
X89626878Y-68279686D01*
X89518159Y-68412159D01*
X89385686Y-68520878D01*
X89254913Y-68590777D01*
X89234545Y-68601664D01*
X89070550Y-68651411D01*
X89070549Y-68651411D01*
X89070546Y-68651412D01*
X88900000Y-68668209D01*
X88729455Y-68651412D01*
X88729452Y-68651411D01*
X88729451Y-68651411D01*
X88565456Y-68601664D01*
X88545088Y-68590777D01*
X88414315Y-68520878D01*
X88281842Y-68412159D01*
X88173123Y-68279686D01*
X88092337Y-68128547D01*
X88088188Y-68114868D01*
X88042589Y-67964550D01*
X88042589Y-67964549D01*
X88042588Y-67964546D01*
X88030000Y-67836738D01*
X88030000Y-67291263D01*
X88042588Y-67163455D01*
X88042589Y-67163451D01*
X88092336Y-66999456D01*
X88092337Y-66999454D01*
X88092338Y-66999451D01*
X88173121Y-66848315D01*
X88281841Y-66715841D01*
X88414314Y-66607122D01*
X88565453Y-66526337D01*
X88565455Y-66526336D01*
X88729450Y-66476589D01*
X88729451Y-66476589D01*
X88729454Y-66476588D01*
X88900000Y-66459791D01*
X89070545Y-66476588D01*
X89070545Y-66476588D01*
G37*
G36*
X87100355Y-66467685D02*
X87130431Y-66476808D01*
X87158145Y-66491622D01*
X87182440Y-66511560D01*
X87202378Y-66535855D01*
X87217192Y-66563569D01*
X87226315Y-66593645D01*
X87230000Y-66631059D01*
X87230000Y-68496941D01*
X87226315Y-68534355D01*
X87217192Y-68564431D01*
X87202378Y-68592145D01*
X87182440Y-68616440D01*
X87158145Y-68636378D01*
X87130431Y-68651192D01*
X87100355Y-68660315D01*
X87062941Y-68664000D01*
X85657059Y-68664000D01*
X85619645Y-68660315D01*
X85589569Y-68651192D01*
X85561855Y-68636378D01*
X85537560Y-68616440D01*
X85517622Y-68592145D01*
X85502808Y-68564431D01*
X85493685Y-68534355D01*
X85490000Y-68496941D01*
X85490000Y-66631059D01*
X85493685Y-66593645D01*
X85502808Y-66563569D01*
X85517622Y-66535855D01*
X85537560Y-66511560D01*
X85561855Y-66491622D01*
X85589569Y-66476808D01*
X85619645Y-66467685D01*
X85657059Y-66464000D01*
X87062941Y-66464000D01*
X87100355Y-66467685D01*
X87100355Y-66467685D01*
G37*
G36*
X93196355Y-66467685D02*
X93226431Y-66476808D01*
X93254145Y-66491622D01*
X93278440Y-66511560D01*
X93298378Y-66535855D01*
X93313192Y-66563569D01*
X93322315Y-66593645D01*
X93326000Y-66631059D01*
X93326000Y-68496941D01*
X93322315Y-68534355D01*
X93313192Y-68564431D01*
X93298378Y-68592145D01*
X93278440Y-68616440D01*
X93254145Y-68636378D01*
X93226431Y-68651192D01*
X93196355Y-68660315D01*
X93158941Y-68664000D01*
X91753059Y-68664000D01*
X91715645Y-68660315D01*
X91685569Y-68651192D01*
X91657855Y-68636378D01*
X91633560Y-68616440D01*
X91613622Y-68592145D01*
X91598808Y-68564431D01*
X91589685Y-68534355D01*
X91586000Y-68496941D01*
X91586000Y-66631059D01*
X91589685Y-66593645D01*
X91598808Y-66563569D01*
X91613622Y-66535855D01*
X91633560Y-66511560D01*
X91657855Y-66491622D01*
X91685569Y-66476808D01*
X91715645Y-66467685D01*
X91753059Y-66464000D01*
X93158941Y-66464000D01*
X93196355Y-66467685D01*
X93196355Y-66467685D01*
G37*
G36*
X101647522Y-67011039D02*
X101681053Y-67021211D01*
X101711960Y-67037731D01*
X101739043Y-67059957D01*
X101761269Y-67087040D01*
X101777789Y-67117947D01*
X101787961Y-67151478D01*
X101792000Y-67192487D01*
X101792000Y-67971513D01*
X101787961Y-68012522D01*
X101777789Y-68046053D01*
X101761269Y-68076960D01*
X101739043Y-68104043D01*
X101711960Y-68126269D01*
X101681053Y-68142789D01*
X101647522Y-68152961D01*
X101606513Y-68157000D01*
X100577487Y-68157000D01*
X100536478Y-68152961D01*
X100502947Y-68142789D01*
X100472040Y-68126269D01*
X100444957Y-68104043D01*
X100422731Y-68076960D01*
X100406211Y-68046053D01*
X100396039Y-68012522D01*
X100392000Y-67971513D01*
X100392000Y-67192487D01*
X100396039Y-67151478D01*
X100406211Y-67117947D01*
X100422731Y-67087040D01*
X100444957Y-67059957D01*
X100472040Y-67037731D01*
X100502947Y-67021211D01*
X100536478Y-67011039D01*
X100577487Y-67007000D01*
X101606513Y-67007000D01*
X101647522Y-67011039D01*
X101647522Y-67011039D01*
G37*
G36*
X99339400Y-67843400D02*
X98780600Y-67843400D01*
X98780600Y-66370200D01*
X99339400Y-66370200D01*
X99339400Y-67843400D01*
X99339400Y-67843400D01*
G37*
G36*
X98389399Y-67843400D02*
X97830599Y-67843400D01*
X97830599Y-66370200D01*
X98389399Y-66370200D01*
X98389399Y-67843400D01*
X98389399Y-67843400D01*
G37*
G36*
X97439398Y-67843400D02*
X96880598Y-67843400D01*
X96880598Y-66370200D01*
X97439398Y-66370200D01*
X97439398Y-67843400D01*
X97439398Y-67843400D01*
G37*
G36*
X101647522Y-64961039D02*
X101681053Y-64971211D01*
X101711960Y-64987731D01*
X101739043Y-65009957D01*
X101761269Y-65037040D01*
X101777789Y-65067947D01*
X101787961Y-65101478D01*
X101792000Y-65142487D01*
X101792000Y-65921513D01*
X101787961Y-65962522D01*
X101777789Y-65996053D01*
X101761269Y-66026960D01*
X101739043Y-66054043D01*
X101711960Y-66076269D01*
X101681053Y-66092789D01*
X101647522Y-66102961D01*
X101606513Y-66107000D01*
X100577487Y-66107000D01*
X100536478Y-66102961D01*
X100502947Y-66092789D01*
X100472040Y-66076269D01*
X100444957Y-66054043D01*
X100422731Y-66026960D01*
X100406211Y-65996053D01*
X100396039Y-65962522D01*
X100392000Y-65921513D01*
X100392000Y-65142487D01*
X100396039Y-65101478D01*
X100406211Y-65067947D01*
X100422731Y-65037040D01*
X100444957Y-65009957D01*
X100472040Y-64987731D01*
X100502947Y-64971211D01*
X100536478Y-64961039D01*
X100577487Y-64957000D01*
X101606513Y-64957000D01*
X101647522Y-64961039D01*
X101647522Y-64961039D01*
G37*
G36*
X90346522Y-64328039D02*
X90380053Y-64338211D01*
X90410960Y-64354731D01*
X90438043Y-64376957D01*
X90460269Y-64404040D01*
X90476789Y-64434947D01*
X90486961Y-64468478D01*
X90491000Y-64509487D01*
X90491000Y-65538513D01*
X90486961Y-65579522D01*
X90476789Y-65613053D01*
X90460269Y-65643960D01*
X90438043Y-65671043D01*
X90410960Y-65693269D01*
X90380053Y-65709789D01*
X90346522Y-65719961D01*
X90305513Y-65724000D01*
X89526487Y-65724000D01*
X89485478Y-65719961D01*
X89451947Y-65709789D01*
X89421040Y-65693269D01*
X89393957Y-65671043D01*
X89371731Y-65643960D01*
X89355211Y-65613053D01*
X89345039Y-65579522D01*
X89341000Y-65538513D01*
X89341000Y-64509487D01*
X89345039Y-64468478D01*
X89355211Y-64434947D01*
X89371731Y-64404040D01*
X89393957Y-64376957D01*
X89421040Y-64354731D01*
X89451947Y-64338211D01*
X89485478Y-64328039D01*
X89526487Y-64324000D01*
X90305513Y-64324000D01*
X90346522Y-64328039D01*
X90346522Y-64328039D01*
G37*
G36*
X92396522Y-64328039D02*
X92430053Y-64338211D01*
X92460960Y-64354731D01*
X92488043Y-64376957D01*
X92510269Y-64404040D01*
X92526789Y-64434947D01*
X92536961Y-64468478D01*
X92541000Y-64509487D01*
X92541000Y-65538513D01*
X92536961Y-65579522D01*
X92526789Y-65613053D01*
X92510269Y-65643960D01*
X92488043Y-65671043D01*
X92460960Y-65693269D01*
X92430053Y-65709789D01*
X92396522Y-65719961D01*
X92355513Y-65724000D01*
X91576487Y-65724000D01*
X91535478Y-65719961D01*
X91501947Y-65709789D01*
X91471040Y-65693269D01*
X91443957Y-65671043D01*
X91421731Y-65643960D01*
X91405211Y-65613053D01*
X91395039Y-65579522D01*
X91391000Y-65538513D01*
X91391000Y-64509487D01*
X91395039Y-64468478D01*
X91405211Y-64434947D01*
X91421731Y-64404040D01*
X91443957Y-64376957D01*
X91471040Y-64354731D01*
X91501947Y-64338211D01*
X91535478Y-64328039D01*
X91576487Y-64324000D01*
X92355513Y-64324000D01*
X92396522Y-64328039D01*
X92396522Y-64328039D01*
G37*
G36*
X97712522Y-63566039D02*
X97746053Y-63576211D01*
X97776960Y-63592731D01*
X97804043Y-63614957D01*
X97826269Y-63642040D01*
X97842789Y-63672947D01*
X97852961Y-63706478D01*
X97857000Y-63747487D01*
X97857000Y-64776513D01*
X97852961Y-64817522D01*
X97842789Y-64851053D01*
X97826269Y-64881960D01*
X97804043Y-64909043D01*
X97776960Y-64931269D01*
X97746053Y-64947789D01*
X97712522Y-64957961D01*
X97671513Y-64962000D01*
X96892487Y-64962000D01*
X96851478Y-64957961D01*
X96817947Y-64947789D01*
X96787040Y-64931269D01*
X96759957Y-64909043D01*
X96737731Y-64881960D01*
X96721211Y-64851053D01*
X96711039Y-64817522D01*
X96707000Y-64776513D01*
X96707000Y-63747487D01*
X96711039Y-63706478D01*
X96721211Y-63672947D01*
X96737731Y-63642040D01*
X96759957Y-63614957D01*
X96787040Y-63592731D01*
X96817947Y-63576211D01*
X96851478Y-63566039D01*
X96892487Y-63562000D01*
X97671513Y-63562000D01*
X97712522Y-63566039D01*
X97712522Y-63566039D01*
G37*
G36*
X95662522Y-63566039D02*
X95696053Y-63576211D01*
X95726960Y-63592731D01*
X95754043Y-63614957D01*
X95776269Y-63642040D01*
X95792789Y-63672947D01*
X95802961Y-63706478D01*
X95807000Y-63747487D01*
X95807000Y-64776513D01*
X95802961Y-64817522D01*
X95792789Y-64851053D01*
X95776269Y-64881960D01*
X95754043Y-64909043D01*
X95726960Y-64931269D01*
X95696053Y-64947789D01*
X95662522Y-64957961D01*
X95621513Y-64962000D01*
X94842487Y-64962000D01*
X94801478Y-64957961D01*
X94767947Y-64947789D01*
X94737040Y-64931269D01*
X94709957Y-64909043D01*
X94687731Y-64881960D01*
X94671211Y-64851053D01*
X94661039Y-64817522D01*
X94657000Y-64776513D01*
X94657000Y-63747487D01*
X94661039Y-63706478D01*
X94671211Y-63672947D01*
X94687731Y-63642040D01*
X94709957Y-63614957D01*
X94737040Y-63592731D01*
X94767947Y-63576211D01*
X94801478Y-63566039D01*
X94842487Y-63562000D01*
X95621513Y-63562000D01*
X95662522Y-63566039D01*
X95662522Y-63566039D01*
G37*
G36*
X102121000Y-62784000D02*
X100571000Y-62784000D01*
X100571000Y-62184000D01*
X102121000Y-62184000D01*
X102121000Y-62784000D01*
X102121000Y-62784000D01*
G37*
G36*
X94059000Y-62784000D02*
X92509000Y-62784000D01*
X92509000Y-62184000D01*
X94059000Y-62184000D01*
X94059000Y-62784000D01*
X94059000Y-62784000D01*
G37*
G36*
X88659000Y-62784000D02*
X87109000Y-62784000D01*
X87109000Y-62184000D01*
X88659000Y-62184000D01*
X88659000Y-62784000D01*
X88659000Y-62784000D01*
G37*
G36*
X96721000Y-62784000D02*
X95171000Y-62784000D01*
X95171000Y-62184000D01*
X96721000Y-62184000D01*
X96721000Y-62784000D01*
X96721000Y-62784000D01*
G37*
G36*
X111666000Y-62410000D02*
X106266000Y-62410000D01*
X106266000Y-59510000D01*
X111666000Y-59510000D01*
X111666000Y-62410000D01*
X111666000Y-62410000D01*
G37*
G36*
X124874000Y-62410000D02*
X119474000Y-62410000D01*
X119474000Y-59510000D01*
X124874000Y-59510000D01*
X124874000Y-62410000D01*
X124874000Y-62410000D01*
G37*
G36*
X138082000Y-62410000D02*
X132682000Y-62410000D01*
X132682000Y-59510000D01*
X138082000Y-59510000D01*
X138082000Y-62410000D01*
X138082000Y-62410000D01*
G37*
G36*
X102121000Y-61514000D02*
X100571000Y-61514000D01*
X100571000Y-60914000D01*
X102121000Y-60914000D01*
X102121000Y-61514000D01*
X102121000Y-61514000D01*
G37*
G36*
X96721000Y-61514000D02*
X95171000Y-61514000D01*
X95171000Y-60914000D01*
X96721000Y-60914000D01*
X96721000Y-61514000D01*
X96721000Y-61514000D01*
G37*
G36*
X94059000Y-61514000D02*
X92509000Y-61514000D01*
X92509000Y-60914000D01*
X94059000Y-60914000D01*
X94059000Y-61514000D01*
X94059000Y-61514000D01*
G37*
G36*
X88659000Y-61514000D02*
X87109000Y-61514000D01*
X87109000Y-60914000D01*
X88659000Y-60914000D01*
X88659000Y-61514000D01*
X88659000Y-61514000D01*
G37*
G36*
X88659000Y-60244000D02*
X87109000Y-60244000D01*
X87109000Y-59644000D01*
X88659000Y-59644000D01*
X88659000Y-60244000D01*
X88659000Y-60244000D01*
G37*
G36*
X96721000Y-60244000D02*
X95171000Y-60244000D01*
X95171000Y-59644000D01*
X96721000Y-59644000D01*
X96721000Y-60244000D01*
X96721000Y-60244000D01*
G37*
G36*
X94059000Y-60244000D02*
X92509000Y-60244000D01*
X92509000Y-59644000D01*
X94059000Y-59644000D01*
X94059000Y-60244000D01*
X94059000Y-60244000D01*
G37*
G36*
X102121000Y-60244000D02*
X100571000Y-60244000D01*
X100571000Y-59644000D01*
X102121000Y-59644000D01*
X102121000Y-60244000D01*
X102121000Y-60244000D01*
G37*
G36*
X88659000Y-58974000D02*
X87109000Y-58974000D01*
X87109000Y-58374000D01*
X88659000Y-58374000D01*
X88659000Y-58974000D01*
X88659000Y-58974000D01*
G37*
G36*
X94059000Y-58974000D02*
X92509000Y-58974000D01*
X92509000Y-58374000D01*
X94059000Y-58374000D01*
X94059000Y-58974000D01*
X94059000Y-58974000D01*
G37*
G36*
X102121000Y-58974000D02*
X100571000Y-58974000D01*
X100571000Y-58374000D01*
X102121000Y-58374000D01*
X102121000Y-58974000D01*
X102121000Y-58974000D01*
G37*
G36*
X96721000Y-58974000D02*
X95171000Y-58974000D01*
X95171000Y-58374000D01*
X96721000Y-58374000D01*
X96721000Y-58974000D01*
X96721000Y-58974000D01*
G37*
G36*
X96059522Y-56325039D02*
X96093053Y-56335211D01*
X96123960Y-56351731D01*
X96151043Y-56373957D01*
X96173269Y-56401040D01*
X96189789Y-56431947D01*
X96199961Y-56465478D01*
X96204000Y-56506487D01*
X96204000Y-57285513D01*
X96199961Y-57326522D01*
X96189789Y-57360053D01*
X96173269Y-57390960D01*
X96151043Y-57418043D01*
X96123960Y-57440269D01*
X96093053Y-57456789D01*
X96059522Y-57466961D01*
X96018513Y-57471000D01*
X94989487Y-57471000D01*
X94948478Y-57466961D01*
X94914947Y-57456789D01*
X94884040Y-57440269D01*
X94856957Y-57418043D01*
X94834731Y-57390960D01*
X94818211Y-57360053D01*
X94808039Y-57326522D01*
X94804000Y-57285513D01*
X94804000Y-56506487D01*
X94808039Y-56465478D01*
X94818211Y-56431947D01*
X94834731Y-56401040D01*
X94856957Y-56373957D01*
X94884040Y-56351731D01*
X94914947Y-56335211D01*
X94948478Y-56325039D01*
X94989487Y-56321000D01*
X96018513Y-56321000D01*
X96059522Y-56325039D01*
X96059522Y-56325039D01*
G37*
G36*
X102302522Y-55438039D02*
X102336053Y-55448211D01*
X102366960Y-55464731D01*
X102394043Y-55486957D01*
X102416269Y-55514040D01*
X102432789Y-55544947D01*
X102442961Y-55578478D01*
X102447000Y-55619487D01*
X102447000Y-56648513D01*
X102442961Y-56689522D01*
X102432789Y-56723053D01*
X102416269Y-56753960D01*
X102394043Y-56781043D01*
X102366960Y-56803269D01*
X102336053Y-56819789D01*
X102302522Y-56829961D01*
X102261513Y-56834000D01*
X101482487Y-56834000D01*
X101441478Y-56829961D01*
X101407947Y-56819789D01*
X101377040Y-56803269D01*
X101349957Y-56781043D01*
X101327731Y-56753960D01*
X101311211Y-56723053D01*
X101301039Y-56689522D01*
X101297000Y-56648513D01*
X101297000Y-55619487D01*
X101301039Y-55578478D01*
X101311211Y-55544947D01*
X101327731Y-55514040D01*
X101349957Y-55486957D01*
X101377040Y-55464731D01*
X101407947Y-55448211D01*
X101441478Y-55438039D01*
X101482487Y-55434000D01*
X102261513Y-55434000D01*
X102302522Y-55438039D01*
X102302522Y-55438039D01*
G37*
G36*
X100252522Y-55438039D02*
X100286053Y-55448211D01*
X100316960Y-55464731D01*
X100344043Y-55486957D01*
X100366269Y-55514040D01*
X100382789Y-55544947D01*
X100392961Y-55578478D01*
X100397000Y-55619487D01*
X100397000Y-56648513D01*
X100392961Y-56689522D01*
X100382789Y-56723053D01*
X100366269Y-56753960D01*
X100344043Y-56781043D01*
X100316960Y-56803269D01*
X100286053Y-56819789D01*
X100252522Y-56829961D01*
X100211513Y-56834000D01*
X99432487Y-56834000D01*
X99391478Y-56829961D01*
X99357947Y-56819789D01*
X99327040Y-56803269D01*
X99299957Y-56781043D01*
X99277731Y-56753960D01*
X99261211Y-56723053D01*
X99251039Y-56689522D01*
X99247000Y-56648513D01*
X99247000Y-55619487D01*
X99251039Y-55578478D01*
X99261211Y-55544947D01*
X99277731Y-55514040D01*
X99299957Y-55486957D01*
X99327040Y-55464731D01*
X99357947Y-55448211D01*
X99391478Y-55438039D01*
X99432487Y-55434000D01*
X100211513Y-55434000D01*
X100252522Y-55438039D01*
X100252522Y-55438039D01*
G37*
G36*
X91504183Y-54276900D02*
X91631574Y-54329668D01*
X91709816Y-54381947D01*
X91746225Y-54406275D01*
X91843725Y-54503775D01*
X91920332Y-54618426D01*
X91973100Y-54745817D01*
X92000000Y-54881055D01*
X92000000Y-55018945D01*
X91973100Y-55154183D01*
X91945931Y-55219773D01*
X91920332Y-55281574D01*
X91843726Y-55396224D01*
X91746224Y-55493726D01*
X91669566Y-55544947D01*
X91631574Y-55570332D01*
X91504183Y-55623100D01*
X91368945Y-55650000D01*
X91231055Y-55650000D01*
X91095817Y-55623100D01*
X90968426Y-55570332D01*
X90930434Y-55544947D01*
X90853776Y-55493726D01*
X90756274Y-55396224D01*
X90679668Y-55281574D01*
X90654069Y-55219773D01*
X90626900Y-55154183D01*
X90600000Y-55018945D01*
X90600000Y-54881055D01*
X90626900Y-54745817D01*
X90679668Y-54618426D01*
X90756275Y-54503775D01*
X90853775Y-54406275D01*
X90890185Y-54381947D01*
X90968426Y-54329668D01*
X91095817Y-54276900D01*
X91231055Y-54250000D01*
X91368945Y-54250000D01*
X91504183Y-54276900D01*
X91504183Y-54276900D01*
G37*
G36*
X86357224Y-54260128D02*
X86489175Y-54300155D01*
X86610781Y-54365155D01*
X86717370Y-54452630D01*
X86804845Y-54559219D01*
X86869845Y-54680825D01*
X86909872Y-54812776D01*
X86923387Y-54950000D01*
X86909872Y-55087224D01*
X86869845Y-55219175D01*
X86804845Y-55340781D01*
X86717370Y-55447370D01*
X86610781Y-55534845D01*
X86489175Y-55599845D01*
X86357224Y-55639872D01*
X86254390Y-55650000D01*
X86185610Y-55650000D01*
X86082776Y-55639872D01*
X85950825Y-55599845D01*
X85829219Y-55534845D01*
X85722630Y-55447370D01*
X85635155Y-55340781D01*
X85570155Y-55219175D01*
X85530128Y-55087224D01*
X85516613Y-54950000D01*
X85530128Y-54812776D01*
X85570155Y-54680825D01*
X85635155Y-54559219D01*
X85722630Y-54452630D01*
X85829219Y-54365155D01*
X85950825Y-54300155D01*
X86082776Y-54260128D01*
X86185610Y-54250000D01*
X86254390Y-54250000D01*
X86357224Y-54260128D01*
X86357224Y-54260128D01*
G37*
G36*
X96059522Y-54275039D02*
X96093053Y-54285211D01*
X96123960Y-54301731D01*
X96151043Y-54323957D01*
X96173269Y-54351040D01*
X96189789Y-54381947D01*
X96199961Y-54415478D01*
X96204000Y-54456487D01*
X96204000Y-55235513D01*
X96199961Y-55276522D01*
X96189789Y-55310053D01*
X96173269Y-55340960D01*
X96151043Y-55368043D01*
X96123960Y-55390269D01*
X96093053Y-55406789D01*
X96059522Y-55416961D01*
X96018513Y-55421000D01*
X94989487Y-55421000D01*
X94948478Y-55416961D01*
X94914947Y-55406789D01*
X94884040Y-55390269D01*
X94856957Y-55368043D01*
X94834731Y-55340960D01*
X94818211Y-55310053D01*
X94808039Y-55276522D01*
X94804000Y-55235513D01*
X94804000Y-54456487D01*
X94808039Y-54415478D01*
X94818211Y-54381947D01*
X94834731Y-54351040D01*
X94856957Y-54323957D01*
X94884040Y-54301731D01*
X94914947Y-54285211D01*
X94948478Y-54275039D01*
X94989487Y-54271000D01*
X96018513Y-54271000D01*
X96059522Y-54275039D01*
X96059522Y-54275039D01*
G37*
G36*
X100241140Y-50955808D02*
X100404150Y-50988233D01*
X100608887Y-51073038D01*
X100608888Y-51073039D01*
X100793148Y-51196158D01*
X100949842Y-51352852D01*
X100949844Y-51352855D01*
X101072962Y-51537113D01*
X101157767Y-51741850D01*
X101201000Y-51959197D01*
X101201000Y-52180803D01*
X101157767Y-52398150D01*
X101072962Y-52602887D01*
X101072961Y-52602888D01*
X100949842Y-52787148D01*
X100793148Y-52943842D01*
X100793145Y-52943844D01*
X100608887Y-53066962D01*
X100404150Y-53151767D01*
X100241140Y-53184192D01*
X100186804Y-53195000D01*
X99965196Y-53195000D01*
X99910860Y-53184192D01*
X99747850Y-53151767D01*
X99543113Y-53066962D01*
X99358855Y-52943844D01*
X99358852Y-52943842D01*
X99202158Y-52787148D01*
X99079039Y-52602888D01*
X99079038Y-52602887D01*
X98994233Y-52398150D01*
X98951000Y-52180803D01*
X98951000Y-51959197D01*
X98994233Y-51741850D01*
X99079038Y-51537113D01*
X99202156Y-51352855D01*
X99202158Y-51352852D01*
X99358852Y-51196158D01*
X99543112Y-51073039D01*
X99543113Y-51073038D01*
X99747850Y-50988233D01*
X99910860Y-50955808D01*
X99965196Y-50945000D01*
X100186804Y-50945000D01*
X100241140Y-50955808D01*
X100241140Y-50955808D01*
G37*
G36*
X105321140Y-50955808D02*
X105484150Y-50988233D01*
X105688887Y-51073038D01*
X105688888Y-51073039D01*
X105873148Y-51196158D01*
X106029842Y-51352852D01*
X106029844Y-51352855D01*
X106152962Y-51537113D01*
X106237767Y-51741850D01*
X106281000Y-51959197D01*
X106281000Y-52180803D01*
X106237767Y-52398150D01*
X106152962Y-52602887D01*
X106152961Y-52602888D01*
X106029842Y-52787148D01*
X105873148Y-52943842D01*
X105873145Y-52943844D01*
X105688887Y-53066962D01*
X105484150Y-53151767D01*
X105321140Y-53184192D01*
X105266804Y-53195000D01*
X105045196Y-53195000D01*
X104990860Y-53184192D01*
X104827850Y-53151767D01*
X104623113Y-53066962D01*
X104438855Y-52943844D01*
X104438852Y-52943842D01*
X104282158Y-52787148D01*
X104159039Y-52602888D01*
X104159038Y-52602887D01*
X104074233Y-52398150D01*
X104031000Y-52180803D01*
X104031000Y-51959197D01*
X104074233Y-51741850D01*
X104159038Y-51537113D01*
X104282156Y-51352855D01*
X104282158Y-51352852D01*
X104438852Y-51196158D01*
X104623112Y-51073039D01*
X104623113Y-51073038D01*
X104827850Y-50988233D01*
X104990860Y-50955808D01*
X105045196Y-50945000D01*
X105266804Y-50945000D01*
X105321140Y-50955808D01*
X105321140Y-50955808D01*
G37*
G36*
X108623140Y-50955808D02*
X108786150Y-50988233D01*
X108990887Y-51073038D01*
X108990888Y-51073039D01*
X109175148Y-51196158D01*
X109331842Y-51352852D01*
X109331844Y-51352855D01*
X109454962Y-51537113D01*
X109539767Y-51741850D01*
X109583000Y-51959197D01*
X109583000Y-52180803D01*
X109539767Y-52398150D01*
X109454962Y-52602887D01*
X109454961Y-52602888D01*
X109331842Y-52787148D01*
X109175148Y-52943842D01*
X109175145Y-52943844D01*
X108990887Y-53066962D01*
X108786150Y-53151767D01*
X108623140Y-53184192D01*
X108568804Y-53195000D01*
X108347196Y-53195000D01*
X108292860Y-53184192D01*
X108129850Y-53151767D01*
X107925113Y-53066962D01*
X107740855Y-52943844D01*
X107740852Y-52943842D01*
X107584158Y-52787148D01*
X107461039Y-52602888D01*
X107461038Y-52602887D01*
X107376233Y-52398150D01*
X107333000Y-52180803D01*
X107333000Y-51959197D01*
X107376233Y-51741850D01*
X107461038Y-51537113D01*
X107584156Y-51352855D01*
X107584158Y-51352852D01*
X107740852Y-51196158D01*
X107925112Y-51073039D01*
X107925113Y-51073038D01*
X108129850Y-50988233D01*
X108292860Y-50955808D01*
X108347196Y-50945000D01*
X108568804Y-50945000D01*
X108623140Y-50955808D01*
X108623140Y-50955808D01*
G37*
G36*
X113703140Y-50955808D02*
X113866150Y-50988233D01*
X114070887Y-51073038D01*
X114070888Y-51073039D01*
X114255148Y-51196158D01*
X114411842Y-51352852D01*
X114411844Y-51352855D01*
X114534962Y-51537113D01*
X114619767Y-51741850D01*
X114663000Y-51959197D01*
X114663000Y-52180803D01*
X114619767Y-52398150D01*
X114534962Y-52602887D01*
X114534961Y-52602888D01*
X114411842Y-52787148D01*
X114255148Y-52943842D01*
X114255145Y-52943844D01*
X114070887Y-53066962D01*
X113866150Y-53151767D01*
X113703140Y-53184192D01*
X113648804Y-53195000D01*
X113427196Y-53195000D01*
X113372860Y-53184192D01*
X113209850Y-53151767D01*
X113005113Y-53066962D01*
X112820855Y-52943844D01*
X112820852Y-52943842D01*
X112664158Y-52787148D01*
X112541039Y-52602888D01*
X112541038Y-52602887D01*
X112456233Y-52398150D01*
X112413000Y-52180803D01*
X112413000Y-51959197D01*
X112456233Y-51741850D01*
X112541038Y-51537113D01*
X112664156Y-51352855D01*
X112664158Y-51352852D01*
X112820852Y-51196158D01*
X113005112Y-51073039D01*
X113005113Y-51073038D01*
X113209850Y-50988233D01*
X113372860Y-50955808D01*
X113427196Y-50945000D01*
X113648804Y-50945000D01*
X113703140Y-50955808D01*
X113703140Y-50955808D01*
G37*
G36*
X91859140Y-50955808D02*
X92022150Y-50988233D01*
X92226887Y-51073038D01*
X92226888Y-51073039D01*
X92411148Y-51196158D01*
X92567842Y-51352852D01*
X92567844Y-51352855D01*
X92690962Y-51537113D01*
X92775767Y-51741850D01*
X92819000Y-51959197D01*
X92819000Y-52180803D01*
X92775767Y-52398150D01*
X92690962Y-52602887D01*
X92690961Y-52602888D01*
X92567842Y-52787148D01*
X92411148Y-52943842D01*
X92411145Y-52943844D01*
X92226887Y-53066962D01*
X92022150Y-53151767D01*
X91859140Y-53184192D01*
X91804804Y-53195000D01*
X91583196Y-53195000D01*
X91528860Y-53184192D01*
X91365850Y-53151767D01*
X91161113Y-53066962D01*
X90976855Y-52943844D01*
X90976852Y-52943842D01*
X90820158Y-52787148D01*
X90697039Y-52602888D01*
X90697038Y-52602887D01*
X90612233Y-52398150D01*
X90569000Y-52180803D01*
X90569000Y-51959197D01*
X90612233Y-51741850D01*
X90697038Y-51537113D01*
X90820156Y-51352855D01*
X90820158Y-51352852D01*
X90976852Y-51196158D01*
X91161112Y-51073039D01*
X91161113Y-51073038D01*
X91365850Y-50988233D01*
X91528860Y-50955808D01*
X91583196Y-50945000D01*
X91804804Y-50945000D01*
X91859140Y-50955808D01*
X91859140Y-50955808D01*
G37*
G36*
X96939140Y-50955808D02*
X97102150Y-50988233D01*
X97306887Y-51073038D01*
X97306888Y-51073039D01*
X97491148Y-51196158D01*
X97647842Y-51352852D01*
X97647844Y-51352855D01*
X97770962Y-51537113D01*
X97855767Y-51741850D01*
X97899000Y-51959197D01*
X97899000Y-52180803D01*
X97855767Y-52398150D01*
X97770962Y-52602887D01*
X97770961Y-52602888D01*
X97647842Y-52787148D01*
X97491148Y-52943842D01*
X97491145Y-52943844D01*
X97306887Y-53066962D01*
X97102150Y-53151767D01*
X96939140Y-53184192D01*
X96884804Y-53195000D01*
X96663196Y-53195000D01*
X96608860Y-53184192D01*
X96445850Y-53151767D01*
X96241113Y-53066962D01*
X96056855Y-52943844D01*
X96056852Y-52943842D01*
X95900158Y-52787148D01*
X95777039Y-52602888D01*
X95777038Y-52602887D01*
X95692233Y-52398150D01*
X95649000Y-52180803D01*
X95649000Y-51959197D01*
X95692233Y-51741850D01*
X95777038Y-51537113D01*
X95900156Y-51352855D01*
X95900158Y-51352852D01*
X96056852Y-51196158D01*
X96241112Y-51073039D01*
X96241113Y-51073038D01*
X96445850Y-50988233D01*
X96608860Y-50955808D01*
X96663196Y-50945000D01*
X96884804Y-50945000D01*
X96939140Y-50955808D01*
X96939140Y-50955808D01*
G37*
G36*
X152983378Y-48876859D02*
X153347354Y-49027622D01*
X153674929Y-49246501D01*
X153953499Y-49525071D01*
X154172378Y-49852646D01*
X154323141Y-50216622D01*
X154400000Y-50603016D01*
X154400000Y-50996984D01*
X154323141Y-51383378D01*
X154172378Y-51747354D01*
X153953499Y-52074929D01*
X153674929Y-52353499D01*
X153347354Y-52572378D01*
X152983378Y-52723141D01*
X152596984Y-52800000D01*
X152203016Y-52800000D01*
X151816622Y-52723141D01*
X151452646Y-52572378D01*
X151125071Y-52353499D01*
X150846501Y-52074929D01*
X150627622Y-51747354D01*
X150476859Y-51383378D01*
X150400000Y-50996984D01*
X150400000Y-50603016D01*
X150476859Y-50216622D01*
X150627622Y-49852646D01*
X150846501Y-49525071D01*
X151125071Y-49246501D01*
X151452646Y-49027622D01*
X151816622Y-48876859D01*
X152203016Y-48800000D01*
X152596984Y-48800000D01*
X152983378Y-48876859D01*
X152983378Y-48876859D01*
G37*
G36*
X88213378Y-48876859D02*
X88577354Y-49027622D01*
X88904929Y-49246501D01*
X89183499Y-49525071D01*
X89402378Y-49852646D01*
X89553141Y-50216622D01*
X89630000Y-50603016D01*
X89630000Y-50996984D01*
X89553141Y-51383378D01*
X89402378Y-51747354D01*
X89183499Y-52074929D01*
X88904929Y-52353499D01*
X88577354Y-52572378D01*
X88213378Y-52723141D01*
X87826984Y-52800000D01*
X87433016Y-52800000D01*
X87046622Y-52723141D01*
X86682646Y-52572378D01*
X86355071Y-52353499D01*
X86076501Y-52074929D01*
X85857622Y-51747354D01*
X85706859Y-51383378D01*
X85630000Y-50996984D01*
X85630000Y-50603016D01*
X85706859Y-50216622D01*
X85857622Y-49852646D01*
X86076501Y-49525071D01*
X86355071Y-49246501D01*
X86682646Y-49027622D01*
X87046622Y-48876859D01*
X87433016Y-48800000D01*
X87826984Y-48800000D01*
X88213378Y-48876859D01*
X88213378Y-48876859D01*
G37*
G36*
X94384461Y-48514848D02*
X94532982Y-48544390D01*
X94719520Y-48621656D01*
X94887400Y-48733830D01*
X95030170Y-48876600D01*
X95142344Y-49044480D01*
X95219610Y-49231018D01*
X95259000Y-49429046D01*
X95259000Y-49630954D01*
X95219610Y-49828982D01*
X95142344Y-50015520D01*
X95030170Y-50183400D01*
X94887400Y-50326170D01*
X94719520Y-50438344D01*
X94532982Y-50515610D01*
X94384461Y-50545153D01*
X94334955Y-50555000D01*
X94133045Y-50555000D01*
X94083539Y-50545153D01*
X93935018Y-50515610D01*
X93748480Y-50438344D01*
X93580600Y-50326170D01*
X93437830Y-50183400D01*
X93325656Y-50015520D01*
X93248390Y-49828982D01*
X93209000Y-49630954D01*
X93209000Y-49429046D01*
X93248390Y-49231018D01*
X93325656Y-49044480D01*
X93437830Y-48876600D01*
X93580600Y-48733830D01*
X93748480Y-48621656D01*
X93935018Y-48544390D01*
X94083539Y-48514848D01*
X94133045Y-48505000D01*
X94334955Y-48505000D01*
X94384461Y-48514848D01*
X94384461Y-48514848D01*
G37*
G36*
X111148461Y-48514848D02*
X111296982Y-48544390D01*
X111483520Y-48621656D01*
X111651400Y-48733830D01*
X111794170Y-48876600D01*
X111906344Y-49044480D01*
X111983610Y-49231018D01*
X112023000Y-49429046D01*
X112023000Y-49630954D01*
X111983610Y-49828982D01*
X111906344Y-50015520D01*
X111794170Y-50183400D01*
X111651400Y-50326170D01*
X111483520Y-50438344D01*
X111296982Y-50515610D01*
X111148461Y-50545153D01*
X111098955Y-50555000D01*
X110897045Y-50555000D01*
X110847539Y-50545153D01*
X110699018Y-50515610D01*
X110512480Y-50438344D01*
X110344600Y-50326170D01*
X110201830Y-50183400D01*
X110089656Y-50015520D01*
X110012390Y-49828982D01*
X109973000Y-49630954D01*
X109973000Y-49429046D01*
X110012390Y-49231018D01*
X110089656Y-49044480D01*
X110201830Y-48876600D01*
X110344600Y-48733830D01*
X110512480Y-48621656D01*
X110699018Y-48544390D01*
X110847539Y-48514848D01*
X110897045Y-48505000D01*
X111098955Y-48505000D01*
X111148461Y-48514848D01*
X111148461Y-48514848D01*
G37*
G36*
X102766461Y-48514848D02*
X102914982Y-48544390D01*
X103101520Y-48621656D01*
X103269400Y-48733830D01*
X103412170Y-48876600D01*
X103524344Y-49044480D01*
X103601610Y-49231018D01*
X103641000Y-49429046D01*
X103641000Y-49630954D01*
X103601610Y-49828982D01*
X103524344Y-50015520D01*
X103412170Y-50183400D01*
X103269400Y-50326170D01*
X103101520Y-50438344D01*
X102914982Y-50515610D01*
X102766461Y-50545153D01*
X102716955Y-50555000D01*
X102515045Y-50555000D01*
X102465539Y-50545153D01*
X102317018Y-50515610D01*
X102130480Y-50438344D01*
X101962600Y-50326170D01*
X101819830Y-50183400D01*
X101707656Y-50015520D01*
X101630390Y-49828982D01*
X101591000Y-49630954D01*
X101591000Y-49429046D01*
X101630390Y-49231018D01*
X101707656Y-49044480D01*
X101819830Y-48876600D01*
X101962600Y-48733830D01*
X102130480Y-48621656D01*
X102317018Y-48544390D01*
X102465539Y-48514848D01*
X102515045Y-48505000D01*
X102716955Y-48505000D01*
X102766461Y-48514848D01*
X102766461Y-48514848D01*
G37*
G36*
X108623140Y-45875808D02*
X108786150Y-45908233D01*
X108990887Y-45993038D01*
X108990888Y-45993039D01*
X109175148Y-46116158D01*
X109331842Y-46272852D01*
X109331844Y-46272855D01*
X109454962Y-46457113D01*
X109539767Y-46661850D01*
X109583000Y-46879197D01*
X109583000Y-47100803D01*
X109539767Y-47318150D01*
X109454962Y-47522887D01*
X109454961Y-47522888D01*
X109331842Y-47707148D01*
X109175148Y-47863842D01*
X109175145Y-47863844D01*
X108990887Y-47986962D01*
X108786150Y-48071767D01*
X108623140Y-48104192D01*
X108568804Y-48115000D01*
X108347196Y-48115000D01*
X108292860Y-48104192D01*
X108129850Y-48071767D01*
X107925113Y-47986962D01*
X107740855Y-47863844D01*
X107740852Y-47863842D01*
X107584158Y-47707148D01*
X107461039Y-47522888D01*
X107461038Y-47522887D01*
X107376233Y-47318150D01*
X107333000Y-47100803D01*
X107333000Y-46879197D01*
X107376233Y-46661850D01*
X107461038Y-46457113D01*
X107584156Y-46272855D01*
X107584158Y-46272852D01*
X107740852Y-46116158D01*
X107925112Y-45993039D01*
X107925113Y-45993038D01*
X108129850Y-45908233D01*
X108292860Y-45875808D01*
X108347196Y-45865000D01*
X108568804Y-45865000D01*
X108623140Y-45875808D01*
X108623140Y-45875808D01*
G37*
G36*
X96939140Y-45875808D02*
X97102150Y-45908233D01*
X97306887Y-45993038D01*
X97306888Y-45993039D01*
X97491148Y-46116158D01*
X97647842Y-46272852D01*
X97647844Y-46272855D01*
X97770962Y-46457113D01*
X97855767Y-46661850D01*
X97899000Y-46879197D01*
X97899000Y-47100803D01*
X97855767Y-47318150D01*
X97770962Y-47522887D01*
X97770961Y-47522888D01*
X97647842Y-47707148D01*
X97491148Y-47863842D01*
X97491145Y-47863844D01*
X97306887Y-47986962D01*
X97102150Y-48071767D01*
X96939140Y-48104192D01*
X96884804Y-48115000D01*
X96663196Y-48115000D01*
X96608860Y-48104192D01*
X96445850Y-48071767D01*
X96241113Y-47986962D01*
X96056855Y-47863844D01*
X96056852Y-47863842D01*
X95900158Y-47707148D01*
X95777039Y-47522888D01*
X95777038Y-47522887D01*
X95692233Y-47318150D01*
X95649000Y-47100803D01*
X95649000Y-46879197D01*
X95692233Y-46661850D01*
X95777038Y-46457113D01*
X95900156Y-46272855D01*
X95900158Y-46272852D01*
X96056852Y-46116158D01*
X96241112Y-45993039D01*
X96241113Y-45993038D01*
X96445850Y-45908233D01*
X96608860Y-45875808D01*
X96663196Y-45865000D01*
X96884804Y-45865000D01*
X96939140Y-45875808D01*
X96939140Y-45875808D01*
G37*
G36*
X113703140Y-45875808D02*
X113866150Y-45908233D01*
X114070887Y-45993038D01*
X114070888Y-45993039D01*
X114255148Y-46116158D01*
X114411842Y-46272852D01*
X114411844Y-46272855D01*
X114534962Y-46457113D01*
X114619767Y-46661850D01*
X114663000Y-46879197D01*
X114663000Y-47100803D01*
X114619767Y-47318150D01*
X114534962Y-47522887D01*
X114534961Y-47522888D01*
X114411842Y-47707148D01*
X114255148Y-47863842D01*
X114255145Y-47863844D01*
X114070887Y-47986962D01*
X113866150Y-48071767D01*
X113703140Y-48104192D01*
X113648804Y-48115000D01*
X113427196Y-48115000D01*
X113372860Y-48104192D01*
X113209850Y-48071767D01*
X113005113Y-47986962D01*
X112820855Y-47863844D01*
X112820852Y-47863842D01*
X112664158Y-47707148D01*
X112541039Y-47522888D01*
X112541038Y-47522887D01*
X112456233Y-47318150D01*
X112413000Y-47100803D01*
X112413000Y-46879197D01*
X112456233Y-46661850D01*
X112541038Y-46457113D01*
X112664156Y-46272855D01*
X112664158Y-46272852D01*
X112820852Y-46116158D01*
X113005112Y-45993039D01*
X113005113Y-45993038D01*
X113209850Y-45908233D01*
X113372860Y-45875808D01*
X113427196Y-45865000D01*
X113648804Y-45865000D01*
X113703140Y-45875808D01*
X113703140Y-45875808D01*
G37*
G36*
X91859140Y-45875808D02*
X92022150Y-45908233D01*
X92226887Y-45993038D01*
X92226888Y-45993039D01*
X92411148Y-46116158D01*
X92567842Y-46272852D01*
X92567844Y-46272855D01*
X92690962Y-46457113D01*
X92775767Y-46661850D01*
X92819000Y-46879197D01*
X92819000Y-47100803D01*
X92775767Y-47318150D01*
X92690962Y-47522887D01*
X92690961Y-47522888D01*
X92567842Y-47707148D01*
X92411148Y-47863842D01*
X92411145Y-47863844D01*
X92226887Y-47986962D01*
X92022150Y-48071767D01*
X91859140Y-48104192D01*
X91804804Y-48115000D01*
X91583196Y-48115000D01*
X91528860Y-48104192D01*
X91365850Y-48071767D01*
X91161113Y-47986962D01*
X90976855Y-47863844D01*
X90976852Y-47863842D01*
X90820158Y-47707148D01*
X90697039Y-47522888D01*
X90697038Y-47522887D01*
X90612233Y-47318150D01*
X90569000Y-47100803D01*
X90569000Y-46879197D01*
X90612233Y-46661850D01*
X90697038Y-46457113D01*
X90820156Y-46272855D01*
X90820158Y-46272852D01*
X90976852Y-46116158D01*
X91161112Y-45993039D01*
X91161113Y-45993038D01*
X91365850Y-45908233D01*
X91528860Y-45875808D01*
X91583196Y-45865000D01*
X91804804Y-45865000D01*
X91859140Y-45875808D01*
X91859140Y-45875808D01*
G37*
G36*
X100241140Y-45875808D02*
X100404150Y-45908233D01*
X100608887Y-45993038D01*
X100608888Y-45993039D01*
X100793148Y-46116158D01*
X100949842Y-46272852D01*
X100949844Y-46272855D01*
X101072962Y-46457113D01*
X101157767Y-46661850D01*
X101201000Y-46879197D01*
X101201000Y-47100803D01*
X101157767Y-47318150D01*
X101072962Y-47522887D01*
X101072961Y-47522888D01*
X100949842Y-47707148D01*
X100793148Y-47863842D01*
X100793145Y-47863844D01*
X100608887Y-47986962D01*
X100404150Y-48071767D01*
X100241140Y-48104192D01*
X100186804Y-48115000D01*
X99965196Y-48115000D01*
X99910860Y-48104192D01*
X99747850Y-48071767D01*
X99543113Y-47986962D01*
X99358855Y-47863844D01*
X99358852Y-47863842D01*
X99202158Y-47707148D01*
X99079039Y-47522888D01*
X99079038Y-47522887D01*
X98994233Y-47318150D01*
X98951000Y-47100803D01*
X98951000Y-46879197D01*
X98994233Y-46661850D01*
X99079038Y-46457113D01*
X99202156Y-46272855D01*
X99202158Y-46272852D01*
X99358852Y-46116158D01*
X99543112Y-45993039D01*
X99543113Y-45993038D01*
X99747850Y-45908233D01*
X99910860Y-45875808D01*
X99965196Y-45865000D01*
X100186804Y-45865000D01*
X100241140Y-45875808D01*
X100241140Y-45875808D01*
G37*
G36*
X105321140Y-45875808D02*
X105484150Y-45908233D01*
X105688887Y-45993038D01*
X105688888Y-45993039D01*
X105873148Y-46116158D01*
X106029842Y-46272852D01*
X106029844Y-46272855D01*
X106152962Y-46457113D01*
X106237767Y-46661850D01*
X106281000Y-46879197D01*
X106281000Y-47100803D01*
X106237767Y-47318150D01*
X106152962Y-47522887D01*
X106152961Y-47522888D01*
X106029842Y-47707148D01*
X105873148Y-47863842D01*
X105873145Y-47863844D01*
X105688887Y-47986962D01*
X105484150Y-48071767D01*
X105321140Y-48104192D01*
X105266804Y-48115000D01*
X105045196Y-48115000D01*
X104990860Y-48104192D01*
X104827850Y-48071767D01*
X104623113Y-47986962D01*
X104438855Y-47863844D01*
X104438852Y-47863842D01*
X104282158Y-47707148D01*
X104159039Y-47522888D01*
X104159038Y-47522887D01*
X104074233Y-47318150D01*
X104031000Y-47100803D01*
X104031000Y-46879197D01*
X104074233Y-46661850D01*
X104159038Y-46457113D01*
X104282156Y-46272855D01*
X104282158Y-46272852D01*
X104438852Y-46116158D01*
X104623112Y-45993039D01*
X104623113Y-45993038D01*
X104827850Y-45908233D01*
X104990860Y-45875808D01*
X105045196Y-45865000D01*
X105266804Y-45865000D01*
X105321140Y-45875808D01*
X105321140Y-45875808D01*
G37*
M02*
