G04 #@! TF.GenerationSoftware,KiCad,Pcbnew,5.0.1*
G04 #@! TF.CreationDate,2019-02-12T17:29:55-06:00*
G04 #@! TF.ProjectId,EFM,45464D2E6B696361645F706362000000,rev?*
G04 #@! TF.SameCoordinates,Original*
G04 #@! TF.FileFunction,Paste,Top*
G04 #@! TF.FilePolarity,Positive*
%FSLAX46Y46*%
G04 Gerber Fmt 4.6, Leading zero omitted, Abs format (unit mm)*
G04 Created by KiCad (PCBNEW 5.0.1) date Tue 12 Feb 2019 05:29:55 PM CST*
%MOMM*%
%LPD*%
G01*
G04 APERTURE LIST*
%ADD10C,0.100000*%
%ADD11C,0.975000*%
%ADD12C,1.150000*%
%ADD13R,1.550000X0.600000*%
%ADD14R,1.500000X0.550000*%
%ADD15R,0.550000X1.500000*%
G04 APERTURE END LIST*
D10*
G04 #@! TO.C,D1*
G36*
X233280142Y-54788674D02*
X233303803Y-54792184D01*
X233327007Y-54797996D01*
X233349529Y-54806054D01*
X233371153Y-54816282D01*
X233391670Y-54828579D01*
X233410883Y-54842829D01*
X233428607Y-54858893D01*
X233444671Y-54876617D01*
X233458921Y-54895830D01*
X233471218Y-54916347D01*
X233481446Y-54937971D01*
X233489504Y-54960493D01*
X233495316Y-54983697D01*
X233498826Y-55007358D01*
X233500000Y-55031250D01*
X233500000Y-55518750D01*
X233498826Y-55542642D01*
X233495316Y-55566303D01*
X233489504Y-55589507D01*
X233481446Y-55612029D01*
X233471218Y-55633653D01*
X233458921Y-55654170D01*
X233444671Y-55673383D01*
X233428607Y-55691107D01*
X233410883Y-55707171D01*
X233391670Y-55721421D01*
X233371153Y-55733718D01*
X233349529Y-55743946D01*
X233327007Y-55752004D01*
X233303803Y-55757816D01*
X233280142Y-55761326D01*
X233256250Y-55762500D01*
X232343750Y-55762500D01*
X232319858Y-55761326D01*
X232296197Y-55757816D01*
X232272993Y-55752004D01*
X232250471Y-55743946D01*
X232228847Y-55733718D01*
X232208330Y-55721421D01*
X232189117Y-55707171D01*
X232171393Y-55691107D01*
X232155329Y-55673383D01*
X232141079Y-55654170D01*
X232128782Y-55633653D01*
X232118554Y-55612029D01*
X232110496Y-55589507D01*
X232104684Y-55566303D01*
X232101174Y-55542642D01*
X232100000Y-55518750D01*
X232100000Y-55031250D01*
X232101174Y-55007358D01*
X232104684Y-54983697D01*
X232110496Y-54960493D01*
X232118554Y-54937971D01*
X232128782Y-54916347D01*
X232141079Y-54895830D01*
X232155329Y-54876617D01*
X232171393Y-54858893D01*
X232189117Y-54842829D01*
X232208330Y-54828579D01*
X232228847Y-54816282D01*
X232250471Y-54806054D01*
X232272993Y-54797996D01*
X232296197Y-54792184D01*
X232319858Y-54788674D01*
X232343750Y-54787500D01*
X233256250Y-54787500D01*
X233280142Y-54788674D01*
X233280142Y-54788674D01*
G37*
D11*
X232800000Y-55275000D03*
D10*
G36*
X233280142Y-52913674D02*
X233303803Y-52917184D01*
X233327007Y-52922996D01*
X233349529Y-52931054D01*
X233371153Y-52941282D01*
X233391670Y-52953579D01*
X233410883Y-52967829D01*
X233428607Y-52983893D01*
X233444671Y-53001617D01*
X233458921Y-53020830D01*
X233471218Y-53041347D01*
X233481446Y-53062971D01*
X233489504Y-53085493D01*
X233495316Y-53108697D01*
X233498826Y-53132358D01*
X233500000Y-53156250D01*
X233500000Y-53643750D01*
X233498826Y-53667642D01*
X233495316Y-53691303D01*
X233489504Y-53714507D01*
X233481446Y-53737029D01*
X233471218Y-53758653D01*
X233458921Y-53779170D01*
X233444671Y-53798383D01*
X233428607Y-53816107D01*
X233410883Y-53832171D01*
X233391670Y-53846421D01*
X233371153Y-53858718D01*
X233349529Y-53868946D01*
X233327007Y-53877004D01*
X233303803Y-53882816D01*
X233280142Y-53886326D01*
X233256250Y-53887500D01*
X232343750Y-53887500D01*
X232319858Y-53886326D01*
X232296197Y-53882816D01*
X232272993Y-53877004D01*
X232250471Y-53868946D01*
X232228847Y-53858718D01*
X232208330Y-53846421D01*
X232189117Y-53832171D01*
X232171393Y-53816107D01*
X232155329Y-53798383D01*
X232141079Y-53779170D01*
X232128782Y-53758653D01*
X232118554Y-53737029D01*
X232110496Y-53714507D01*
X232104684Y-53691303D01*
X232101174Y-53667642D01*
X232100000Y-53643750D01*
X232100000Y-53156250D01*
X232101174Y-53132358D01*
X232104684Y-53108697D01*
X232110496Y-53085493D01*
X232118554Y-53062971D01*
X232128782Y-53041347D01*
X232141079Y-53020830D01*
X232155329Y-53001617D01*
X232171393Y-52983893D01*
X232189117Y-52967829D01*
X232208330Y-52953579D01*
X232228847Y-52941282D01*
X232250471Y-52931054D01*
X232272993Y-52922996D01*
X232296197Y-52917184D01*
X232319858Y-52913674D01*
X232343750Y-52912500D01*
X233256250Y-52912500D01*
X233280142Y-52913674D01*
X233280142Y-52913674D01*
G37*
D11*
X232800000Y-53400000D03*
G04 #@! TD*
D10*
G04 #@! TO.C,R1*
G36*
X230774505Y-51901204D02*
X230798773Y-51904804D01*
X230822572Y-51910765D01*
X230845671Y-51919030D01*
X230867850Y-51929520D01*
X230888893Y-51942132D01*
X230908599Y-51956747D01*
X230926777Y-51973223D01*
X230943253Y-51991401D01*
X230957868Y-52011107D01*
X230970480Y-52032150D01*
X230980970Y-52054329D01*
X230989235Y-52077428D01*
X230995196Y-52101227D01*
X230998796Y-52125495D01*
X231000000Y-52149999D01*
X231000000Y-53050001D01*
X230998796Y-53074505D01*
X230995196Y-53098773D01*
X230989235Y-53122572D01*
X230980970Y-53145671D01*
X230970480Y-53167850D01*
X230957868Y-53188893D01*
X230943253Y-53208599D01*
X230926777Y-53226777D01*
X230908599Y-53243253D01*
X230888893Y-53257868D01*
X230867850Y-53270480D01*
X230845671Y-53280970D01*
X230822572Y-53289235D01*
X230798773Y-53295196D01*
X230774505Y-53298796D01*
X230750001Y-53300000D01*
X230099999Y-53300000D01*
X230075495Y-53298796D01*
X230051227Y-53295196D01*
X230027428Y-53289235D01*
X230004329Y-53280970D01*
X229982150Y-53270480D01*
X229961107Y-53257868D01*
X229941401Y-53243253D01*
X229923223Y-53226777D01*
X229906747Y-53208599D01*
X229892132Y-53188893D01*
X229879520Y-53167850D01*
X229869030Y-53145671D01*
X229860765Y-53122572D01*
X229854804Y-53098773D01*
X229851204Y-53074505D01*
X229850000Y-53050001D01*
X229850000Y-52149999D01*
X229851204Y-52125495D01*
X229854804Y-52101227D01*
X229860765Y-52077428D01*
X229869030Y-52054329D01*
X229879520Y-52032150D01*
X229892132Y-52011107D01*
X229906747Y-51991401D01*
X229923223Y-51973223D01*
X229941401Y-51956747D01*
X229961107Y-51942132D01*
X229982150Y-51929520D01*
X230004329Y-51919030D01*
X230027428Y-51910765D01*
X230051227Y-51904804D01*
X230075495Y-51901204D01*
X230099999Y-51900000D01*
X230750001Y-51900000D01*
X230774505Y-51901204D01*
X230774505Y-51901204D01*
G37*
D12*
X230425000Y-52600000D03*
D10*
G36*
X228724505Y-51901204D02*
X228748773Y-51904804D01*
X228772572Y-51910765D01*
X228795671Y-51919030D01*
X228817850Y-51929520D01*
X228838893Y-51942132D01*
X228858599Y-51956747D01*
X228876777Y-51973223D01*
X228893253Y-51991401D01*
X228907868Y-52011107D01*
X228920480Y-52032150D01*
X228930970Y-52054329D01*
X228939235Y-52077428D01*
X228945196Y-52101227D01*
X228948796Y-52125495D01*
X228950000Y-52149999D01*
X228950000Y-53050001D01*
X228948796Y-53074505D01*
X228945196Y-53098773D01*
X228939235Y-53122572D01*
X228930970Y-53145671D01*
X228920480Y-53167850D01*
X228907868Y-53188893D01*
X228893253Y-53208599D01*
X228876777Y-53226777D01*
X228858599Y-53243253D01*
X228838893Y-53257868D01*
X228817850Y-53270480D01*
X228795671Y-53280970D01*
X228772572Y-53289235D01*
X228748773Y-53295196D01*
X228724505Y-53298796D01*
X228700001Y-53300000D01*
X228049999Y-53300000D01*
X228025495Y-53298796D01*
X228001227Y-53295196D01*
X227977428Y-53289235D01*
X227954329Y-53280970D01*
X227932150Y-53270480D01*
X227911107Y-53257868D01*
X227891401Y-53243253D01*
X227873223Y-53226777D01*
X227856747Y-53208599D01*
X227842132Y-53188893D01*
X227829520Y-53167850D01*
X227819030Y-53145671D01*
X227810765Y-53122572D01*
X227804804Y-53098773D01*
X227801204Y-53074505D01*
X227800000Y-53050001D01*
X227800000Y-52149999D01*
X227801204Y-52125495D01*
X227804804Y-52101227D01*
X227810765Y-52077428D01*
X227819030Y-52054329D01*
X227829520Y-52032150D01*
X227842132Y-52011107D01*
X227856747Y-51991401D01*
X227873223Y-51973223D01*
X227891401Y-51956747D01*
X227911107Y-51942132D01*
X227932150Y-51929520D01*
X227954329Y-51919030D01*
X227977428Y-51910765D01*
X228001227Y-51904804D01*
X228025495Y-51901204D01*
X228049999Y-51900000D01*
X228700001Y-51900000D01*
X228724505Y-51901204D01*
X228724505Y-51901204D01*
G37*
D12*
X228375000Y-52600000D03*
G04 #@! TD*
D10*
G04 #@! TO.C,R5*
G36*
X233899505Y-73901204D02*
X233923773Y-73904804D01*
X233947572Y-73910765D01*
X233970671Y-73919030D01*
X233992850Y-73929520D01*
X234013893Y-73942132D01*
X234033599Y-73956747D01*
X234051777Y-73973223D01*
X234068253Y-73991401D01*
X234082868Y-74011107D01*
X234095480Y-74032150D01*
X234105970Y-74054329D01*
X234114235Y-74077428D01*
X234120196Y-74101227D01*
X234123796Y-74125495D01*
X234125000Y-74149999D01*
X234125000Y-75050001D01*
X234123796Y-75074505D01*
X234120196Y-75098773D01*
X234114235Y-75122572D01*
X234105970Y-75145671D01*
X234095480Y-75167850D01*
X234082868Y-75188893D01*
X234068253Y-75208599D01*
X234051777Y-75226777D01*
X234033599Y-75243253D01*
X234013893Y-75257868D01*
X233992850Y-75270480D01*
X233970671Y-75280970D01*
X233947572Y-75289235D01*
X233923773Y-75295196D01*
X233899505Y-75298796D01*
X233875001Y-75300000D01*
X233224999Y-75300000D01*
X233200495Y-75298796D01*
X233176227Y-75295196D01*
X233152428Y-75289235D01*
X233129329Y-75280970D01*
X233107150Y-75270480D01*
X233086107Y-75257868D01*
X233066401Y-75243253D01*
X233048223Y-75226777D01*
X233031747Y-75208599D01*
X233017132Y-75188893D01*
X233004520Y-75167850D01*
X232994030Y-75145671D01*
X232985765Y-75122572D01*
X232979804Y-75098773D01*
X232976204Y-75074505D01*
X232975000Y-75050001D01*
X232975000Y-74149999D01*
X232976204Y-74125495D01*
X232979804Y-74101227D01*
X232985765Y-74077428D01*
X232994030Y-74054329D01*
X233004520Y-74032150D01*
X233017132Y-74011107D01*
X233031747Y-73991401D01*
X233048223Y-73973223D01*
X233066401Y-73956747D01*
X233086107Y-73942132D01*
X233107150Y-73929520D01*
X233129329Y-73919030D01*
X233152428Y-73910765D01*
X233176227Y-73904804D01*
X233200495Y-73901204D01*
X233224999Y-73900000D01*
X233875001Y-73900000D01*
X233899505Y-73901204D01*
X233899505Y-73901204D01*
G37*
D12*
X233550000Y-74600000D03*
D10*
G36*
X235949505Y-73901204D02*
X235973773Y-73904804D01*
X235997572Y-73910765D01*
X236020671Y-73919030D01*
X236042850Y-73929520D01*
X236063893Y-73942132D01*
X236083599Y-73956747D01*
X236101777Y-73973223D01*
X236118253Y-73991401D01*
X236132868Y-74011107D01*
X236145480Y-74032150D01*
X236155970Y-74054329D01*
X236164235Y-74077428D01*
X236170196Y-74101227D01*
X236173796Y-74125495D01*
X236175000Y-74149999D01*
X236175000Y-75050001D01*
X236173796Y-75074505D01*
X236170196Y-75098773D01*
X236164235Y-75122572D01*
X236155970Y-75145671D01*
X236145480Y-75167850D01*
X236132868Y-75188893D01*
X236118253Y-75208599D01*
X236101777Y-75226777D01*
X236083599Y-75243253D01*
X236063893Y-75257868D01*
X236042850Y-75270480D01*
X236020671Y-75280970D01*
X235997572Y-75289235D01*
X235973773Y-75295196D01*
X235949505Y-75298796D01*
X235925001Y-75300000D01*
X235274999Y-75300000D01*
X235250495Y-75298796D01*
X235226227Y-75295196D01*
X235202428Y-75289235D01*
X235179329Y-75280970D01*
X235157150Y-75270480D01*
X235136107Y-75257868D01*
X235116401Y-75243253D01*
X235098223Y-75226777D01*
X235081747Y-75208599D01*
X235067132Y-75188893D01*
X235054520Y-75167850D01*
X235044030Y-75145671D01*
X235035765Y-75122572D01*
X235029804Y-75098773D01*
X235026204Y-75074505D01*
X235025000Y-75050001D01*
X235025000Y-74149999D01*
X235026204Y-74125495D01*
X235029804Y-74101227D01*
X235035765Y-74077428D01*
X235044030Y-74054329D01*
X235054520Y-74032150D01*
X235067132Y-74011107D01*
X235081747Y-73991401D01*
X235098223Y-73973223D01*
X235116401Y-73956747D01*
X235136107Y-73942132D01*
X235157150Y-73929520D01*
X235179329Y-73919030D01*
X235202428Y-73910765D01*
X235226227Y-73904804D01*
X235250495Y-73901204D01*
X235274999Y-73900000D01*
X235925001Y-73900000D01*
X235949505Y-73901204D01*
X235949505Y-73901204D01*
G37*
D12*
X235600000Y-74600000D03*
G04 #@! TD*
D13*
G04 #@! TO.C,U2*
X234300000Y-65905000D03*
X234300000Y-64635000D03*
X234300000Y-63365000D03*
X234300000Y-62095000D03*
X228900000Y-62095000D03*
X228900000Y-63365000D03*
X228900000Y-64635000D03*
X228900000Y-65905000D03*
G04 #@! TD*
G04 #@! TO.C,U3*
X228800000Y-72810000D03*
X228800000Y-71540000D03*
X228800000Y-70270000D03*
X228800000Y-69000000D03*
X234200000Y-69000000D03*
X234200000Y-70270000D03*
X234200000Y-71540000D03*
X234200000Y-72810000D03*
G04 #@! TD*
D14*
G04 #@! TO.C,U5*
X225300000Y-64500000D03*
X225300000Y-63700000D03*
X225300000Y-62900000D03*
X225300000Y-62100000D03*
X225300000Y-61300000D03*
X225300000Y-60500000D03*
X225300000Y-59700000D03*
X225300000Y-58900000D03*
X225300000Y-58100000D03*
X225300000Y-57300000D03*
X225300000Y-56500000D03*
D15*
X223600000Y-54800000D03*
X222800000Y-54800000D03*
X222000000Y-54800000D03*
X221200000Y-54800000D03*
X220400000Y-54800000D03*
X219600000Y-54800000D03*
X218800000Y-54800000D03*
X218000000Y-54800000D03*
X217200000Y-54800000D03*
X216400000Y-54800000D03*
X215600000Y-54800000D03*
D14*
X213900000Y-56500000D03*
X213900000Y-57300000D03*
X213900000Y-58100000D03*
X213900000Y-58900000D03*
X213900000Y-59700000D03*
X213900000Y-60500000D03*
X213900000Y-61300000D03*
X213900000Y-62100000D03*
X213900000Y-62900000D03*
X213900000Y-63700000D03*
X213900000Y-64500000D03*
D15*
X215600000Y-66200000D03*
X216400000Y-66200000D03*
X217200000Y-66200000D03*
X218000000Y-66200000D03*
X218800000Y-66200000D03*
X219600000Y-66200000D03*
X220400000Y-66200000D03*
X221200000Y-66200000D03*
X222000000Y-66200000D03*
X222800000Y-66200000D03*
X223600000Y-66200000D03*
G04 #@! TD*
M02*
