G04 #@! TF.GenerationSoftware,KiCad,Pcbnew,5.0.1*
G04 #@! TF.CreationDate,2019-02-12T17:29:54-06:00*
G04 #@! TF.ProjectId,EFM,45464D2E6B696361645F706362000000,rev?*
G04 #@! TF.SameCoordinates,Original*
G04 #@! TF.FileFunction,Copper,L2,Bot,Signal*
G04 #@! TF.FilePolarity,Positive*
%FSLAX46Y46*%
G04 Gerber Fmt 4.6, Leading zero omitted, Abs format (unit mm)*
G04 Created by KiCad (PCBNEW 5.0.1) date Tue 12 Feb 2019 05:29:54 PM CST*
%MOMM*%
%LPD*%
G01*
G04 APERTURE LIST*
G04 #@! TA.AperFunction,Conductor*
%ADD10C,0.100000*%
G04 #@! TD*
G04 #@! TA.AperFunction,SMDPad,CuDef*
%ADD11C,1.150000*%
G04 #@! TD*
G04 #@! TA.AperFunction,ComponentPad*
%ADD12C,1.740000*%
G04 #@! TD*
G04 #@! TA.AperFunction,ComponentPad*
%ADD13O,2.200000X1.740000*%
G04 #@! TD*
G04 #@! TA.AperFunction,ComponentPad*
%ADD14C,2.250000*%
G04 #@! TD*
G04 #@! TA.AperFunction,ComponentPad*
%ADD15C,4.216000*%
G04 #@! TD*
G04 #@! TA.AperFunction,SMDPad,CuDef*
%ADD16R,0.558800X1.473200*%
G04 #@! TD*
G04 #@! TA.AperFunction,SMDPad,CuDef*
%ADD17R,1.100000X1.500000*%
G04 #@! TD*
G04 #@! TA.AperFunction,SMDPad,CuDef*
%ADD18R,0.375000X0.350000*%
G04 #@! TD*
G04 #@! TA.AperFunction,SMDPad,CuDef*
%ADD19R,2.100000X0.350000*%
G04 #@! TD*
G04 #@! TA.AperFunction,ComponentPad*
%ADD20R,1.700000X1.700000*%
G04 #@! TD*
G04 #@! TA.AperFunction,ComponentPad*
%ADD21O,1.700000X1.700000*%
G04 #@! TD*
G04 #@! TA.AperFunction,ViaPad*
%ADD22C,0.800000*%
G04 #@! TD*
G04 #@! TA.AperFunction,Conductor*
%ADD23C,0.250000*%
G04 #@! TD*
G04 #@! TA.AperFunction,Conductor*
%ADD24C,0.254000*%
G04 #@! TD*
G04 APERTURE END LIST*
D10*
G04 #@! TO.N,/-2.8V*
G04 #@! TO.C,C1*
G36*
X237074505Y-70026204D02*
X237098773Y-70029804D01*
X237122572Y-70035765D01*
X237145671Y-70044030D01*
X237167850Y-70054520D01*
X237188893Y-70067132D01*
X237208599Y-70081747D01*
X237226777Y-70098223D01*
X237243253Y-70116401D01*
X237257868Y-70136107D01*
X237270480Y-70157150D01*
X237280970Y-70179329D01*
X237289235Y-70202428D01*
X237295196Y-70226227D01*
X237298796Y-70250495D01*
X237300000Y-70274999D01*
X237300000Y-70925001D01*
X237298796Y-70949505D01*
X237295196Y-70973773D01*
X237289235Y-70997572D01*
X237280970Y-71020671D01*
X237270480Y-71042850D01*
X237257868Y-71063893D01*
X237243253Y-71083599D01*
X237226777Y-71101777D01*
X237208599Y-71118253D01*
X237188893Y-71132868D01*
X237167850Y-71145480D01*
X237145671Y-71155970D01*
X237122572Y-71164235D01*
X237098773Y-71170196D01*
X237074505Y-71173796D01*
X237050001Y-71175000D01*
X236149999Y-71175000D01*
X236125495Y-71173796D01*
X236101227Y-71170196D01*
X236077428Y-71164235D01*
X236054329Y-71155970D01*
X236032150Y-71145480D01*
X236011107Y-71132868D01*
X235991401Y-71118253D01*
X235973223Y-71101777D01*
X235956747Y-71083599D01*
X235942132Y-71063893D01*
X235929520Y-71042850D01*
X235919030Y-71020671D01*
X235910765Y-70997572D01*
X235904804Y-70973773D01*
X235901204Y-70949505D01*
X235900000Y-70925001D01*
X235900000Y-70274999D01*
X235901204Y-70250495D01*
X235904804Y-70226227D01*
X235910765Y-70202428D01*
X235919030Y-70179329D01*
X235929520Y-70157150D01*
X235942132Y-70136107D01*
X235956747Y-70116401D01*
X235973223Y-70098223D01*
X235991401Y-70081747D01*
X236011107Y-70067132D01*
X236032150Y-70054520D01*
X236054329Y-70044030D01*
X236077428Y-70035765D01*
X236101227Y-70029804D01*
X236125495Y-70026204D01*
X236149999Y-70025000D01*
X237050001Y-70025000D01*
X237074505Y-70026204D01*
X237074505Y-70026204D01*
G37*
D11*
G04 #@! TD*
G04 #@! TO.P,C1,2*
G04 #@! TO.N,/-2.8V*
X236600000Y-70600000D03*
D10*
G04 #@! TO.N,GND*
G04 #@! TO.C,C1*
G36*
X237074505Y-67976204D02*
X237098773Y-67979804D01*
X237122572Y-67985765D01*
X237145671Y-67994030D01*
X237167850Y-68004520D01*
X237188893Y-68017132D01*
X237208599Y-68031747D01*
X237226777Y-68048223D01*
X237243253Y-68066401D01*
X237257868Y-68086107D01*
X237270480Y-68107150D01*
X237280970Y-68129329D01*
X237289235Y-68152428D01*
X237295196Y-68176227D01*
X237298796Y-68200495D01*
X237300000Y-68224999D01*
X237300000Y-68875001D01*
X237298796Y-68899505D01*
X237295196Y-68923773D01*
X237289235Y-68947572D01*
X237280970Y-68970671D01*
X237270480Y-68992850D01*
X237257868Y-69013893D01*
X237243253Y-69033599D01*
X237226777Y-69051777D01*
X237208599Y-69068253D01*
X237188893Y-69082868D01*
X237167850Y-69095480D01*
X237145671Y-69105970D01*
X237122572Y-69114235D01*
X237098773Y-69120196D01*
X237074505Y-69123796D01*
X237050001Y-69125000D01*
X236149999Y-69125000D01*
X236125495Y-69123796D01*
X236101227Y-69120196D01*
X236077428Y-69114235D01*
X236054329Y-69105970D01*
X236032150Y-69095480D01*
X236011107Y-69082868D01*
X235991401Y-69068253D01*
X235973223Y-69051777D01*
X235956747Y-69033599D01*
X235942132Y-69013893D01*
X235929520Y-68992850D01*
X235919030Y-68970671D01*
X235910765Y-68947572D01*
X235904804Y-68923773D01*
X235901204Y-68899505D01*
X235900000Y-68875001D01*
X235900000Y-68224999D01*
X235901204Y-68200495D01*
X235904804Y-68176227D01*
X235910765Y-68152428D01*
X235919030Y-68129329D01*
X235929520Y-68107150D01*
X235942132Y-68086107D01*
X235956747Y-68066401D01*
X235973223Y-68048223D01*
X235991401Y-68031747D01*
X236011107Y-68017132D01*
X236032150Y-68004520D01*
X236054329Y-67994030D01*
X236077428Y-67985765D01*
X236101227Y-67979804D01*
X236125495Y-67976204D01*
X236149999Y-67975000D01*
X237050001Y-67975000D01*
X237074505Y-67976204D01*
X237074505Y-67976204D01*
G37*
D11*
G04 #@! TD*
G04 #@! TO.P,C1,1*
G04 #@! TO.N,GND*
X236600000Y-68550000D03*
D10*
G04 #@! TO.N,/+2.8V*
G04 #@! TO.C,C2*
G36*
X240949505Y-67701204D02*
X240973773Y-67704804D01*
X240997572Y-67710765D01*
X241020671Y-67719030D01*
X241042850Y-67729520D01*
X241063893Y-67742132D01*
X241083599Y-67756747D01*
X241101777Y-67773223D01*
X241118253Y-67791401D01*
X241132868Y-67811107D01*
X241145480Y-67832150D01*
X241155970Y-67854329D01*
X241164235Y-67877428D01*
X241170196Y-67901227D01*
X241173796Y-67925495D01*
X241175000Y-67949999D01*
X241175000Y-68850001D01*
X241173796Y-68874505D01*
X241170196Y-68898773D01*
X241164235Y-68922572D01*
X241155970Y-68945671D01*
X241145480Y-68967850D01*
X241132868Y-68988893D01*
X241118253Y-69008599D01*
X241101777Y-69026777D01*
X241083599Y-69043253D01*
X241063893Y-69057868D01*
X241042850Y-69070480D01*
X241020671Y-69080970D01*
X240997572Y-69089235D01*
X240973773Y-69095196D01*
X240949505Y-69098796D01*
X240925001Y-69100000D01*
X240274999Y-69100000D01*
X240250495Y-69098796D01*
X240226227Y-69095196D01*
X240202428Y-69089235D01*
X240179329Y-69080970D01*
X240157150Y-69070480D01*
X240136107Y-69057868D01*
X240116401Y-69043253D01*
X240098223Y-69026777D01*
X240081747Y-69008599D01*
X240067132Y-68988893D01*
X240054520Y-68967850D01*
X240044030Y-68945671D01*
X240035765Y-68922572D01*
X240029804Y-68898773D01*
X240026204Y-68874505D01*
X240025000Y-68850001D01*
X240025000Y-67949999D01*
X240026204Y-67925495D01*
X240029804Y-67901227D01*
X240035765Y-67877428D01*
X240044030Y-67854329D01*
X240054520Y-67832150D01*
X240067132Y-67811107D01*
X240081747Y-67791401D01*
X240098223Y-67773223D01*
X240116401Y-67756747D01*
X240136107Y-67742132D01*
X240157150Y-67729520D01*
X240179329Y-67719030D01*
X240202428Y-67710765D01*
X240226227Y-67704804D01*
X240250495Y-67701204D01*
X240274999Y-67700000D01*
X240925001Y-67700000D01*
X240949505Y-67701204D01*
X240949505Y-67701204D01*
G37*
D11*
G04 #@! TD*
G04 #@! TO.P,C2,1*
G04 #@! TO.N,/+2.8V*
X240600000Y-68400000D03*
D10*
G04 #@! TO.N,GND*
G04 #@! TO.C,C2*
G36*
X238899505Y-67701204D02*
X238923773Y-67704804D01*
X238947572Y-67710765D01*
X238970671Y-67719030D01*
X238992850Y-67729520D01*
X239013893Y-67742132D01*
X239033599Y-67756747D01*
X239051777Y-67773223D01*
X239068253Y-67791401D01*
X239082868Y-67811107D01*
X239095480Y-67832150D01*
X239105970Y-67854329D01*
X239114235Y-67877428D01*
X239120196Y-67901227D01*
X239123796Y-67925495D01*
X239125000Y-67949999D01*
X239125000Y-68850001D01*
X239123796Y-68874505D01*
X239120196Y-68898773D01*
X239114235Y-68922572D01*
X239105970Y-68945671D01*
X239095480Y-68967850D01*
X239082868Y-68988893D01*
X239068253Y-69008599D01*
X239051777Y-69026777D01*
X239033599Y-69043253D01*
X239013893Y-69057868D01*
X238992850Y-69070480D01*
X238970671Y-69080970D01*
X238947572Y-69089235D01*
X238923773Y-69095196D01*
X238899505Y-69098796D01*
X238875001Y-69100000D01*
X238224999Y-69100000D01*
X238200495Y-69098796D01*
X238176227Y-69095196D01*
X238152428Y-69089235D01*
X238129329Y-69080970D01*
X238107150Y-69070480D01*
X238086107Y-69057868D01*
X238066401Y-69043253D01*
X238048223Y-69026777D01*
X238031747Y-69008599D01*
X238017132Y-68988893D01*
X238004520Y-68967850D01*
X237994030Y-68945671D01*
X237985765Y-68922572D01*
X237979804Y-68898773D01*
X237976204Y-68874505D01*
X237975000Y-68850001D01*
X237975000Y-67949999D01*
X237976204Y-67925495D01*
X237979804Y-67901227D01*
X237985765Y-67877428D01*
X237994030Y-67854329D01*
X238004520Y-67832150D01*
X238017132Y-67811107D01*
X238031747Y-67791401D01*
X238048223Y-67773223D01*
X238066401Y-67756747D01*
X238086107Y-67742132D01*
X238107150Y-67729520D01*
X238129329Y-67719030D01*
X238152428Y-67710765D01*
X238176227Y-67704804D01*
X238200495Y-67701204D01*
X238224999Y-67700000D01*
X238875001Y-67700000D01*
X238899505Y-67701204D01*
X238899505Y-67701204D01*
G37*
D11*
G04 #@! TD*
G04 #@! TO.P,C2,2*
G04 #@! TO.N,GND*
X238550000Y-68400000D03*
D10*
G04 #@! TO.N,Net-(C3-Pad1)*
G04 #@! TO.C,C3*
G36*
X230899505Y-61101204D02*
X230923773Y-61104804D01*
X230947572Y-61110765D01*
X230970671Y-61119030D01*
X230992850Y-61129520D01*
X231013893Y-61142132D01*
X231033599Y-61156747D01*
X231051777Y-61173223D01*
X231068253Y-61191401D01*
X231082868Y-61211107D01*
X231095480Y-61232150D01*
X231105970Y-61254329D01*
X231114235Y-61277428D01*
X231120196Y-61301227D01*
X231123796Y-61325495D01*
X231125000Y-61349999D01*
X231125000Y-62250001D01*
X231123796Y-62274505D01*
X231120196Y-62298773D01*
X231114235Y-62322572D01*
X231105970Y-62345671D01*
X231095480Y-62367850D01*
X231082868Y-62388893D01*
X231068253Y-62408599D01*
X231051777Y-62426777D01*
X231033599Y-62443253D01*
X231013893Y-62457868D01*
X230992850Y-62470480D01*
X230970671Y-62480970D01*
X230947572Y-62489235D01*
X230923773Y-62495196D01*
X230899505Y-62498796D01*
X230875001Y-62500000D01*
X230224999Y-62500000D01*
X230200495Y-62498796D01*
X230176227Y-62495196D01*
X230152428Y-62489235D01*
X230129329Y-62480970D01*
X230107150Y-62470480D01*
X230086107Y-62457868D01*
X230066401Y-62443253D01*
X230048223Y-62426777D01*
X230031747Y-62408599D01*
X230017132Y-62388893D01*
X230004520Y-62367850D01*
X229994030Y-62345671D01*
X229985765Y-62322572D01*
X229979804Y-62298773D01*
X229976204Y-62274505D01*
X229975000Y-62250001D01*
X229975000Y-61349999D01*
X229976204Y-61325495D01*
X229979804Y-61301227D01*
X229985765Y-61277428D01*
X229994030Y-61254329D01*
X230004520Y-61232150D01*
X230017132Y-61211107D01*
X230031747Y-61191401D01*
X230048223Y-61173223D01*
X230066401Y-61156747D01*
X230086107Y-61142132D01*
X230107150Y-61129520D01*
X230129329Y-61119030D01*
X230152428Y-61110765D01*
X230176227Y-61104804D01*
X230200495Y-61101204D01*
X230224999Y-61100000D01*
X230875001Y-61100000D01*
X230899505Y-61101204D01*
X230899505Y-61101204D01*
G37*
D11*
G04 #@! TD*
G04 #@! TO.P,C3,1*
G04 #@! TO.N,Net-(C3-Pad1)*
X230550000Y-61800000D03*
D10*
G04 #@! TO.N,/S1*
G04 #@! TO.C,C3*
G36*
X232949505Y-61101204D02*
X232973773Y-61104804D01*
X232997572Y-61110765D01*
X233020671Y-61119030D01*
X233042850Y-61129520D01*
X233063893Y-61142132D01*
X233083599Y-61156747D01*
X233101777Y-61173223D01*
X233118253Y-61191401D01*
X233132868Y-61211107D01*
X233145480Y-61232150D01*
X233155970Y-61254329D01*
X233164235Y-61277428D01*
X233170196Y-61301227D01*
X233173796Y-61325495D01*
X233175000Y-61349999D01*
X233175000Y-62250001D01*
X233173796Y-62274505D01*
X233170196Y-62298773D01*
X233164235Y-62322572D01*
X233155970Y-62345671D01*
X233145480Y-62367850D01*
X233132868Y-62388893D01*
X233118253Y-62408599D01*
X233101777Y-62426777D01*
X233083599Y-62443253D01*
X233063893Y-62457868D01*
X233042850Y-62470480D01*
X233020671Y-62480970D01*
X232997572Y-62489235D01*
X232973773Y-62495196D01*
X232949505Y-62498796D01*
X232925001Y-62500000D01*
X232274999Y-62500000D01*
X232250495Y-62498796D01*
X232226227Y-62495196D01*
X232202428Y-62489235D01*
X232179329Y-62480970D01*
X232157150Y-62470480D01*
X232136107Y-62457868D01*
X232116401Y-62443253D01*
X232098223Y-62426777D01*
X232081747Y-62408599D01*
X232067132Y-62388893D01*
X232054520Y-62367850D01*
X232044030Y-62345671D01*
X232035765Y-62322572D01*
X232029804Y-62298773D01*
X232026204Y-62274505D01*
X232025000Y-62250001D01*
X232025000Y-61349999D01*
X232026204Y-61325495D01*
X232029804Y-61301227D01*
X232035765Y-61277428D01*
X232044030Y-61254329D01*
X232054520Y-61232150D01*
X232067132Y-61211107D01*
X232081747Y-61191401D01*
X232098223Y-61173223D01*
X232116401Y-61156747D01*
X232136107Y-61142132D01*
X232157150Y-61129520D01*
X232179329Y-61119030D01*
X232202428Y-61110765D01*
X232226227Y-61104804D01*
X232250495Y-61101204D01*
X232274999Y-61100000D01*
X232925001Y-61100000D01*
X232949505Y-61101204D01*
X232949505Y-61101204D01*
G37*
D11*
G04 #@! TD*
G04 #@! TO.P,C3,2*
G04 #@! TO.N,/S1*
X232600000Y-61800000D03*
D10*
G04 #@! TO.N,/BATT*
G04 #@! TO.C,C4*
G36*
X203874505Y-46176204D02*
X203898773Y-46179804D01*
X203922572Y-46185765D01*
X203945671Y-46194030D01*
X203967850Y-46204520D01*
X203988893Y-46217132D01*
X204008599Y-46231747D01*
X204026777Y-46248223D01*
X204043253Y-46266401D01*
X204057868Y-46286107D01*
X204070480Y-46307150D01*
X204080970Y-46329329D01*
X204089235Y-46352428D01*
X204095196Y-46376227D01*
X204098796Y-46400495D01*
X204100000Y-46424999D01*
X204100000Y-47075001D01*
X204098796Y-47099505D01*
X204095196Y-47123773D01*
X204089235Y-47147572D01*
X204080970Y-47170671D01*
X204070480Y-47192850D01*
X204057868Y-47213893D01*
X204043253Y-47233599D01*
X204026777Y-47251777D01*
X204008599Y-47268253D01*
X203988893Y-47282868D01*
X203967850Y-47295480D01*
X203945671Y-47305970D01*
X203922572Y-47314235D01*
X203898773Y-47320196D01*
X203874505Y-47323796D01*
X203850001Y-47325000D01*
X202949999Y-47325000D01*
X202925495Y-47323796D01*
X202901227Y-47320196D01*
X202877428Y-47314235D01*
X202854329Y-47305970D01*
X202832150Y-47295480D01*
X202811107Y-47282868D01*
X202791401Y-47268253D01*
X202773223Y-47251777D01*
X202756747Y-47233599D01*
X202742132Y-47213893D01*
X202729520Y-47192850D01*
X202719030Y-47170671D01*
X202710765Y-47147572D01*
X202704804Y-47123773D01*
X202701204Y-47099505D01*
X202700000Y-47075001D01*
X202700000Y-46424999D01*
X202701204Y-46400495D01*
X202704804Y-46376227D01*
X202710765Y-46352428D01*
X202719030Y-46329329D01*
X202729520Y-46307150D01*
X202742132Y-46286107D01*
X202756747Y-46266401D01*
X202773223Y-46248223D01*
X202791401Y-46231747D01*
X202811107Y-46217132D01*
X202832150Y-46204520D01*
X202854329Y-46194030D01*
X202877428Y-46185765D01*
X202901227Y-46179804D01*
X202925495Y-46176204D01*
X202949999Y-46175000D01*
X203850001Y-46175000D01*
X203874505Y-46176204D01*
X203874505Y-46176204D01*
G37*
D11*
G04 #@! TD*
G04 #@! TO.P,C4,1*
G04 #@! TO.N,/BATT*
X203400000Y-46750000D03*
D10*
G04 #@! TO.N,GND*
G04 #@! TO.C,C4*
G36*
X203874505Y-48226204D02*
X203898773Y-48229804D01*
X203922572Y-48235765D01*
X203945671Y-48244030D01*
X203967850Y-48254520D01*
X203988893Y-48267132D01*
X204008599Y-48281747D01*
X204026777Y-48298223D01*
X204043253Y-48316401D01*
X204057868Y-48336107D01*
X204070480Y-48357150D01*
X204080970Y-48379329D01*
X204089235Y-48402428D01*
X204095196Y-48426227D01*
X204098796Y-48450495D01*
X204100000Y-48474999D01*
X204100000Y-49125001D01*
X204098796Y-49149505D01*
X204095196Y-49173773D01*
X204089235Y-49197572D01*
X204080970Y-49220671D01*
X204070480Y-49242850D01*
X204057868Y-49263893D01*
X204043253Y-49283599D01*
X204026777Y-49301777D01*
X204008599Y-49318253D01*
X203988893Y-49332868D01*
X203967850Y-49345480D01*
X203945671Y-49355970D01*
X203922572Y-49364235D01*
X203898773Y-49370196D01*
X203874505Y-49373796D01*
X203850001Y-49375000D01*
X202949999Y-49375000D01*
X202925495Y-49373796D01*
X202901227Y-49370196D01*
X202877428Y-49364235D01*
X202854329Y-49355970D01*
X202832150Y-49345480D01*
X202811107Y-49332868D01*
X202791401Y-49318253D01*
X202773223Y-49301777D01*
X202756747Y-49283599D01*
X202742132Y-49263893D01*
X202729520Y-49242850D01*
X202719030Y-49220671D01*
X202710765Y-49197572D01*
X202704804Y-49173773D01*
X202701204Y-49149505D01*
X202700000Y-49125001D01*
X202700000Y-48474999D01*
X202701204Y-48450495D01*
X202704804Y-48426227D01*
X202710765Y-48402428D01*
X202719030Y-48379329D01*
X202729520Y-48357150D01*
X202742132Y-48336107D01*
X202756747Y-48316401D01*
X202773223Y-48298223D01*
X202791401Y-48281747D01*
X202811107Y-48267132D01*
X202832150Y-48254520D01*
X202854329Y-48244030D01*
X202877428Y-48235765D01*
X202901227Y-48229804D01*
X202925495Y-48226204D01*
X202949999Y-48225000D01*
X203850001Y-48225000D01*
X203874505Y-48226204D01*
X203874505Y-48226204D01*
G37*
D11*
G04 #@! TD*
G04 #@! TO.P,C4,2*
G04 #@! TO.N,GND*
X203400000Y-48800000D03*
D10*
G04 #@! TO.N,/+2.8V*
G04 #@! TO.C,C5*
G36*
X211874505Y-48426204D02*
X211898773Y-48429804D01*
X211922572Y-48435765D01*
X211945671Y-48444030D01*
X211967850Y-48454520D01*
X211988893Y-48467132D01*
X212008599Y-48481747D01*
X212026777Y-48498223D01*
X212043253Y-48516401D01*
X212057868Y-48536107D01*
X212070480Y-48557150D01*
X212080970Y-48579329D01*
X212089235Y-48602428D01*
X212095196Y-48626227D01*
X212098796Y-48650495D01*
X212100000Y-48674999D01*
X212100000Y-49325001D01*
X212098796Y-49349505D01*
X212095196Y-49373773D01*
X212089235Y-49397572D01*
X212080970Y-49420671D01*
X212070480Y-49442850D01*
X212057868Y-49463893D01*
X212043253Y-49483599D01*
X212026777Y-49501777D01*
X212008599Y-49518253D01*
X211988893Y-49532868D01*
X211967850Y-49545480D01*
X211945671Y-49555970D01*
X211922572Y-49564235D01*
X211898773Y-49570196D01*
X211874505Y-49573796D01*
X211850001Y-49575000D01*
X210949999Y-49575000D01*
X210925495Y-49573796D01*
X210901227Y-49570196D01*
X210877428Y-49564235D01*
X210854329Y-49555970D01*
X210832150Y-49545480D01*
X210811107Y-49532868D01*
X210791401Y-49518253D01*
X210773223Y-49501777D01*
X210756747Y-49483599D01*
X210742132Y-49463893D01*
X210729520Y-49442850D01*
X210719030Y-49420671D01*
X210710765Y-49397572D01*
X210704804Y-49373773D01*
X210701204Y-49349505D01*
X210700000Y-49325001D01*
X210700000Y-48674999D01*
X210701204Y-48650495D01*
X210704804Y-48626227D01*
X210710765Y-48602428D01*
X210719030Y-48579329D01*
X210729520Y-48557150D01*
X210742132Y-48536107D01*
X210756747Y-48516401D01*
X210773223Y-48498223D01*
X210791401Y-48481747D01*
X210811107Y-48467132D01*
X210832150Y-48454520D01*
X210854329Y-48444030D01*
X210877428Y-48435765D01*
X210901227Y-48429804D01*
X210925495Y-48426204D01*
X210949999Y-48425000D01*
X211850001Y-48425000D01*
X211874505Y-48426204D01*
X211874505Y-48426204D01*
G37*
D11*
G04 #@! TD*
G04 #@! TO.P,C5,2*
G04 #@! TO.N,/+2.8V*
X211400000Y-49000000D03*
D10*
G04 #@! TO.N,GND*
G04 #@! TO.C,C5*
G36*
X211874505Y-46376204D02*
X211898773Y-46379804D01*
X211922572Y-46385765D01*
X211945671Y-46394030D01*
X211967850Y-46404520D01*
X211988893Y-46417132D01*
X212008599Y-46431747D01*
X212026777Y-46448223D01*
X212043253Y-46466401D01*
X212057868Y-46486107D01*
X212070480Y-46507150D01*
X212080970Y-46529329D01*
X212089235Y-46552428D01*
X212095196Y-46576227D01*
X212098796Y-46600495D01*
X212100000Y-46624999D01*
X212100000Y-47275001D01*
X212098796Y-47299505D01*
X212095196Y-47323773D01*
X212089235Y-47347572D01*
X212080970Y-47370671D01*
X212070480Y-47392850D01*
X212057868Y-47413893D01*
X212043253Y-47433599D01*
X212026777Y-47451777D01*
X212008599Y-47468253D01*
X211988893Y-47482868D01*
X211967850Y-47495480D01*
X211945671Y-47505970D01*
X211922572Y-47514235D01*
X211898773Y-47520196D01*
X211874505Y-47523796D01*
X211850001Y-47525000D01*
X210949999Y-47525000D01*
X210925495Y-47523796D01*
X210901227Y-47520196D01*
X210877428Y-47514235D01*
X210854329Y-47505970D01*
X210832150Y-47495480D01*
X210811107Y-47482868D01*
X210791401Y-47468253D01*
X210773223Y-47451777D01*
X210756747Y-47433599D01*
X210742132Y-47413893D01*
X210729520Y-47392850D01*
X210719030Y-47370671D01*
X210710765Y-47347572D01*
X210704804Y-47323773D01*
X210701204Y-47299505D01*
X210700000Y-47275001D01*
X210700000Y-46624999D01*
X210701204Y-46600495D01*
X210704804Y-46576227D01*
X210710765Y-46552428D01*
X210719030Y-46529329D01*
X210729520Y-46507150D01*
X210742132Y-46486107D01*
X210756747Y-46466401D01*
X210773223Y-46448223D01*
X210791401Y-46431747D01*
X210811107Y-46417132D01*
X210832150Y-46404520D01*
X210854329Y-46394030D01*
X210877428Y-46385765D01*
X210901227Y-46379804D01*
X210925495Y-46376204D01*
X210949999Y-46375000D01*
X211850001Y-46375000D01*
X211874505Y-46376204D01*
X211874505Y-46376204D01*
G37*
D11*
G04 #@! TD*
G04 #@! TO.P,C5,1*
G04 #@! TO.N,GND*
X211400000Y-46950000D03*
D10*
G04 #@! TO.N,Net-(C6-Pad1)*
G04 #@! TO.C,C6*
G36*
X237474505Y-74026204D02*
X237498773Y-74029804D01*
X237522572Y-74035765D01*
X237545671Y-74044030D01*
X237567850Y-74054520D01*
X237588893Y-74067132D01*
X237608599Y-74081747D01*
X237626777Y-74098223D01*
X237643253Y-74116401D01*
X237657868Y-74136107D01*
X237670480Y-74157150D01*
X237680970Y-74179329D01*
X237689235Y-74202428D01*
X237695196Y-74226227D01*
X237698796Y-74250495D01*
X237700000Y-74274999D01*
X237700000Y-74925001D01*
X237698796Y-74949505D01*
X237695196Y-74973773D01*
X237689235Y-74997572D01*
X237680970Y-75020671D01*
X237670480Y-75042850D01*
X237657868Y-75063893D01*
X237643253Y-75083599D01*
X237626777Y-75101777D01*
X237608599Y-75118253D01*
X237588893Y-75132868D01*
X237567850Y-75145480D01*
X237545671Y-75155970D01*
X237522572Y-75164235D01*
X237498773Y-75170196D01*
X237474505Y-75173796D01*
X237450001Y-75175000D01*
X236549999Y-75175000D01*
X236525495Y-75173796D01*
X236501227Y-75170196D01*
X236477428Y-75164235D01*
X236454329Y-75155970D01*
X236432150Y-75145480D01*
X236411107Y-75132868D01*
X236391401Y-75118253D01*
X236373223Y-75101777D01*
X236356747Y-75083599D01*
X236342132Y-75063893D01*
X236329520Y-75042850D01*
X236319030Y-75020671D01*
X236310765Y-74997572D01*
X236304804Y-74973773D01*
X236301204Y-74949505D01*
X236300000Y-74925001D01*
X236300000Y-74274999D01*
X236301204Y-74250495D01*
X236304804Y-74226227D01*
X236310765Y-74202428D01*
X236319030Y-74179329D01*
X236329520Y-74157150D01*
X236342132Y-74136107D01*
X236356747Y-74116401D01*
X236373223Y-74098223D01*
X236391401Y-74081747D01*
X236411107Y-74067132D01*
X236432150Y-74054520D01*
X236454329Y-74044030D01*
X236477428Y-74035765D01*
X236501227Y-74029804D01*
X236525495Y-74026204D01*
X236549999Y-74025000D01*
X237450001Y-74025000D01*
X237474505Y-74026204D01*
X237474505Y-74026204D01*
G37*
D11*
G04 #@! TD*
G04 #@! TO.P,C6,1*
G04 #@! TO.N,Net-(C6-Pad1)*
X237000000Y-74600000D03*
D10*
G04 #@! TO.N,Net-(C6-Pad2)*
G04 #@! TO.C,C6*
G36*
X237474505Y-71976204D02*
X237498773Y-71979804D01*
X237522572Y-71985765D01*
X237545671Y-71994030D01*
X237567850Y-72004520D01*
X237588893Y-72017132D01*
X237608599Y-72031747D01*
X237626777Y-72048223D01*
X237643253Y-72066401D01*
X237657868Y-72086107D01*
X237670480Y-72107150D01*
X237680970Y-72129329D01*
X237689235Y-72152428D01*
X237695196Y-72176227D01*
X237698796Y-72200495D01*
X237700000Y-72224999D01*
X237700000Y-72875001D01*
X237698796Y-72899505D01*
X237695196Y-72923773D01*
X237689235Y-72947572D01*
X237680970Y-72970671D01*
X237670480Y-72992850D01*
X237657868Y-73013893D01*
X237643253Y-73033599D01*
X237626777Y-73051777D01*
X237608599Y-73068253D01*
X237588893Y-73082868D01*
X237567850Y-73095480D01*
X237545671Y-73105970D01*
X237522572Y-73114235D01*
X237498773Y-73120196D01*
X237474505Y-73123796D01*
X237450001Y-73125000D01*
X236549999Y-73125000D01*
X236525495Y-73123796D01*
X236501227Y-73120196D01*
X236477428Y-73114235D01*
X236454329Y-73105970D01*
X236432150Y-73095480D01*
X236411107Y-73082868D01*
X236391401Y-73068253D01*
X236373223Y-73051777D01*
X236356747Y-73033599D01*
X236342132Y-73013893D01*
X236329520Y-72992850D01*
X236319030Y-72970671D01*
X236310765Y-72947572D01*
X236304804Y-72923773D01*
X236301204Y-72899505D01*
X236300000Y-72875001D01*
X236300000Y-72224999D01*
X236301204Y-72200495D01*
X236304804Y-72176227D01*
X236310765Y-72152428D01*
X236319030Y-72129329D01*
X236329520Y-72107150D01*
X236342132Y-72086107D01*
X236356747Y-72066401D01*
X236373223Y-72048223D01*
X236391401Y-72031747D01*
X236411107Y-72017132D01*
X236432150Y-72004520D01*
X236454329Y-71994030D01*
X236477428Y-71985765D01*
X236501227Y-71979804D01*
X236525495Y-71976204D01*
X236549999Y-71975000D01*
X237450001Y-71975000D01*
X237474505Y-71976204D01*
X237474505Y-71976204D01*
G37*
D11*
G04 #@! TD*
G04 #@! TO.P,C6,2*
G04 #@! TO.N,Net-(C6-Pad2)*
X237000000Y-72550000D03*
D10*
G04 #@! TO.N,GND*
G04 #@! TO.C,C7*
G36*
X218999505Y-46101204D02*
X219023773Y-46104804D01*
X219047572Y-46110765D01*
X219070671Y-46119030D01*
X219092850Y-46129520D01*
X219113893Y-46142132D01*
X219133599Y-46156747D01*
X219151777Y-46173223D01*
X219168253Y-46191401D01*
X219182868Y-46211107D01*
X219195480Y-46232150D01*
X219205970Y-46254329D01*
X219214235Y-46277428D01*
X219220196Y-46301227D01*
X219223796Y-46325495D01*
X219225000Y-46349999D01*
X219225000Y-47250001D01*
X219223796Y-47274505D01*
X219220196Y-47298773D01*
X219214235Y-47322572D01*
X219205970Y-47345671D01*
X219195480Y-47367850D01*
X219182868Y-47388893D01*
X219168253Y-47408599D01*
X219151777Y-47426777D01*
X219133599Y-47443253D01*
X219113893Y-47457868D01*
X219092850Y-47470480D01*
X219070671Y-47480970D01*
X219047572Y-47489235D01*
X219023773Y-47495196D01*
X218999505Y-47498796D01*
X218975001Y-47500000D01*
X218324999Y-47500000D01*
X218300495Y-47498796D01*
X218276227Y-47495196D01*
X218252428Y-47489235D01*
X218229329Y-47480970D01*
X218207150Y-47470480D01*
X218186107Y-47457868D01*
X218166401Y-47443253D01*
X218148223Y-47426777D01*
X218131747Y-47408599D01*
X218117132Y-47388893D01*
X218104520Y-47367850D01*
X218094030Y-47345671D01*
X218085765Y-47322572D01*
X218079804Y-47298773D01*
X218076204Y-47274505D01*
X218075000Y-47250001D01*
X218075000Y-46349999D01*
X218076204Y-46325495D01*
X218079804Y-46301227D01*
X218085765Y-46277428D01*
X218094030Y-46254329D01*
X218104520Y-46232150D01*
X218117132Y-46211107D01*
X218131747Y-46191401D01*
X218148223Y-46173223D01*
X218166401Y-46156747D01*
X218186107Y-46142132D01*
X218207150Y-46129520D01*
X218229329Y-46119030D01*
X218252428Y-46110765D01*
X218276227Y-46104804D01*
X218300495Y-46101204D01*
X218324999Y-46100000D01*
X218975001Y-46100000D01*
X218999505Y-46101204D01*
X218999505Y-46101204D01*
G37*
D11*
G04 #@! TD*
G04 #@! TO.P,C7,2*
G04 #@! TO.N,GND*
X218650000Y-46800000D03*
D10*
G04 #@! TO.N,Net-(C7-Pad1)*
G04 #@! TO.C,C7*
G36*
X216949505Y-46101204D02*
X216973773Y-46104804D01*
X216997572Y-46110765D01*
X217020671Y-46119030D01*
X217042850Y-46129520D01*
X217063893Y-46142132D01*
X217083599Y-46156747D01*
X217101777Y-46173223D01*
X217118253Y-46191401D01*
X217132868Y-46211107D01*
X217145480Y-46232150D01*
X217155970Y-46254329D01*
X217164235Y-46277428D01*
X217170196Y-46301227D01*
X217173796Y-46325495D01*
X217175000Y-46349999D01*
X217175000Y-47250001D01*
X217173796Y-47274505D01*
X217170196Y-47298773D01*
X217164235Y-47322572D01*
X217155970Y-47345671D01*
X217145480Y-47367850D01*
X217132868Y-47388893D01*
X217118253Y-47408599D01*
X217101777Y-47426777D01*
X217083599Y-47443253D01*
X217063893Y-47457868D01*
X217042850Y-47470480D01*
X217020671Y-47480970D01*
X216997572Y-47489235D01*
X216973773Y-47495196D01*
X216949505Y-47498796D01*
X216925001Y-47500000D01*
X216274999Y-47500000D01*
X216250495Y-47498796D01*
X216226227Y-47495196D01*
X216202428Y-47489235D01*
X216179329Y-47480970D01*
X216157150Y-47470480D01*
X216136107Y-47457868D01*
X216116401Y-47443253D01*
X216098223Y-47426777D01*
X216081747Y-47408599D01*
X216067132Y-47388893D01*
X216054520Y-47367850D01*
X216044030Y-47345671D01*
X216035765Y-47322572D01*
X216029804Y-47298773D01*
X216026204Y-47274505D01*
X216025000Y-47250001D01*
X216025000Y-46349999D01*
X216026204Y-46325495D01*
X216029804Y-46301227D01*
X216035765Y-46277428D01*
X216044030Y-46254329D01*
X216054520Y-46232150D01*
X216067132Y-46211107D01*
X216081747Y-46191401D01*
X216098223Y-46173223D01*
X216116401Y-46156747D01*
X216136107Y-46142132D01*
X216157150Y-46129520D01*
X216179329Y-46119030D01*
X216202428Y-46110765D01*
X216226227Y-46104804D01*
X216250495Y-46101204D01*
X216274999Y-46100000D01*
X216925001Y-46100000D01*
X216949505Y-46101204D01*
X216949505Y-46101204D01*
G37*
D11*
G04 #@! TD*
G04 #@! TO.P,C7,1*
G04 #@! TO.N,Net-(C7-Pad1)*
X216600000Y-46800000D03*
D10*
G04 #@! TO.N,GND*
G04 #@! TO.C,C8*
G36*
X220749505Y-48301204D02*
X220773773Y-48304804D01*
X220797572Y-48310765D01*
X220820671Y-48319030D01*
X220842850Y-48329520D01*
X220863893Y-48342132D01*
X220883599Y-48356747D01*
X220901777Y-48373223D01*
X220918253Y-48391401D01*
X220932868Y-48411107D01*
X220945480Y-48432150D01*
X220955970Y-48454329D01*
X220964235Y-48477428D01*
X220970196Y-48501227D01*
X220973796Y-48525495D01*
X220975000Y-48549999D01*
X220975000Y-49450001D01*
X220973796Y-49474505D01*
X220970196Y-49498773D01*
X220964235Y-49522572D01*
X220955970Y-49545671D01*
X220945480Y-49567850D01*
X220932868Y-49588893D01*
X220918253Y-49608599D01*
X220901777Y-49626777D01*
X220883599Y-49643253D01*
X220863893Y-49657868D01*
X220842850Y-49670480D01*
X220820671Y-49680970D01*
X220797572Y-49689235D01*
X220773773Y-49695196D01*
X220749505Y-49698796D01*
X220725001Y-49700000D01*
X220074999Y-49700000D01*
X220050495Y-49698796D01*
X220026227Y-49695196D01*
X220002428Y-49689235D01*
X219979329Y-49680970D01*
X219957150Y-49670480D01*
X219936107Y-49657868D01*
X219916401Y-49643253D01*
X219898223Y-49626777D01*
X219881747Y-49608599D01*
X219867132Y-49588893D01*
X219854520Y-49567850D01*
X219844030Y-49545671D01*
X219835765Y-49522572D01*
X219829804Y-49498773D01*
X219826204Y-49474505D01*
X219825000Y-49450001D01*
X219825000Y-48549999D01*
X219826204Y-48525495D01*
X219829804Y-48501227D01*
X219835765Y-48477428D01*
X219844030Y-48454329D01*
X219854520Y-48432150D01*
X219867132Y-48411107D01*
X219881747Y-48391401D01*
X219898223Y-48373223D01*
X219916401Y-48356747D01*
X219936107Y-48342132D01*
X219957150Y-48329520D01*
X219979329Y-48319030D01*
X220002428Y-48310765D01*
X220026227Y-48304804D01*
X220050495Y-48301204D01*
X220074999Y-48300000D01*
X220725001Y-48300000D01*
X220749505Y-48301204D01*
X220749505Y-48301204D01*
G37*
D11*
G04 #@! TD*
G04 #@! TO.P,C8,2*
G04 #@! TO.N,GND*
X220400000Y-49000000D03*
D10*
G04 #@! TO.N,Net-(C7-Pad1)*
G04 #@! TO.C,C8*
G36*
X218699505Y-48301204D02*
X218723773Y-48304804D01*
X218747572Y-48310765D01*
X218770671Y-48319030D01*
X218792850Y-48329520D01*
X218813893Y-48342132D01*
X218833599Y-48356747D01*
X218851777Y-48373223D01*
X218868253Y-48391401D01*
X218882868Y-48411107D01*
X218895480Y-48432150D01*
X218905970Y-48454329D01*
X218914235Y-48477428D01*
X218920196Y-48501227D01*
X218923796Y-48525495D01*
X218925000Y-48549999D01*
X218925000Y-49450001D01*
X218923796Y-49474505D01*
X218920196Y-49498773D01*
X218914235Y-49522572D01*
X218905970Y-49545671D01*
X218895480Y-49567850D01*
X218882868Y-49588893D01*
X218868253Y-49608599D01*
X218851777Y-49626777D01*
X218833599Y-49643253D01*
X218813893Y-49657868D01*
X218792850Y-49670480D01*
X218770671Y-49680970D01*
X218747572Y-49689235D01*
X218723773Y-49695196D01*
X218699505Y-49698796D01*
X218675001Y-49700000D01*
X218024999Y-49700000D01*
X218000495Y-49698796D01*
X217976227Y-49695196D01*
X217952428Y-49689235D01*
X217929329Y-49680970D01*
X217907150Y-49670480D01*
X217886107Y-49657868D01*
X217866401Y-49643253D01*
X217848223Y-49626777D01*
X217831747Y-49608599D01*
X217817132Y-49588893D01*
X217804520Y-49567850D01*
X217794030Y-49545671D01*
X217785765Y-49522572D01*
X217779804Y-49498773D01*
X217776204Y-49474505D01*
X217775000Y-49450001D01*
X217775000Y-48549999D01*
X217776204Y-48525495D01*
X217779804Y-48501227D01*
X217785765Y-48477428D01*
X217794030Y-48454329D01*
X217804520Y-48432150D01*
X217817132Y-48411107D01*
X217831747Y-48391401D01*
X217848223Y-48373223D01*
X217866401Y-48356747D01*
X217886107Y-48342132D01*
X217907150Y-48329520D01*
X217929329Y-48319030D01*
X217952428Y-48310765D01*
X217976227Y-48304804D01*
X218000495Y-48301204D01*
X218024999Y-48300000D01*
X218675001Y-48300000D01*
X218699505Y-48301204D01*
X218699505Y-48301204D01*
G37*
D11*
G04 #@! TD*
G04 #@! TO.P,C8,1*
G04 #@! TO.N,Net-(C7-Pad1)*
X218350000Y-49000000D03*
D10*
G04 #@! TO.N,GND*
G04 #@! TO.C,C9*
G36*
X224799505Y-50301204D02*
X224823773Y-50304804D01*
X224847572Y-50310765D01*
X224870671Y-50319030D01*
X224892850Y-50329520D01*
X224913893Y-50342132D01*
X224933599Y-50356747D01*
X224951777Y-50373223D01*
X224968253Y-50391401D01*
X224982868Y-50411107D01*
X224995480Y-50432150D01*
X225005970Y-50454329D01*
X225014235Y-50477428D01*
X225020196Y-50501227D01*
X225023796Y-50525495D01*
X225025000Y-50549999D01*
X225025000Y-51450001D01*
X225023796Y-51474505D01*
X225020196Y-51498773D01*
X225014235Y-51522572D01*
X225005970Y-51545671D01*
X224995480Y-51567850D01*
X224982868Y-51588893D01*
X224968253Y-51608599D01*
X224951777Y-51626777D01*
X224933599Y-51643253D01*
X224913893Y-51657868D01*
X224892850Y-51670480D01*
X224870671Y-51680970D01*
X224847572Y-51689235D01*
X224823773Y-51695196D01*
X224799505Y-51698796D01*
X224775001Y-51700000D01*
X224124999Y-51700000D01*
X224100495Y-51698796D01*
X224076227Y-51695196D01*
X224052428Y-51689235D01*
X224029329Y-51680970D01*
X224007150Y-51670480D01*
X223986107Y-51657868D01*
X223966401Y-51643253D01*
X223948223Y-51626777D01*
X223931747Y-51608599D01*
X223917132Y-51588893D01*
X223904520Y-51567850D01*
X223894030Y-51545671D01*
X223885765Y-51522572D01*
X223879804Y-51498773D01*
X223876204Y-51474505D01*
X223875000Y-51450001D01*
X223875000Y-50549999D01*
X223876204Y-50525495D01*
X223879804Y-50501227D01*
X223885765Y-50477428D01*
X223894030Y-50454329D01*
X223904520Y-50432150D01*
X223917132Y-50411107D01*
X223931747Y-50391401D01*
X223948223Y-50373223D01*
X223966401Y-50356747D01*
X223986107Y-50342132D01*
X224007150Y-50329520D01*
X224029329Y-50319030D01*
X224052428Y-50310765D01*
X224076227Y-50304804D01*
X224100495Y-50301204D01*
X224124999Y-50300000D01*
X224775001Y-50300000D01*
X224799505Y-50301204D01*
X224799505Y-50301204D01*
G37*
D11*
G04 #@! TD*
G04 #@! TO.P,C9,1*
G04 #@! TO.N,GND*
X224450000Y-51000000D03*
D10*
G04 #@! TO.N,Net-(C10-Pad2)*
G04 #@! TO.C,C9*
G36*
X222749505Y-50301204D02*
X222773773Y-50304804D01*
X222797572Y-50310765D01*
X222820671Y-50319030D01*
X222842850Y-50329520D01*
X222863893Y-50342132D01*
X222883599Y-50356747D01*
X222901777Y-50373223D01*
X222918253Y-50391401D01*
X222932868Y-50411107D01*
X222945480Y-50432150D01*
X222955970Y-50454329D01*
X222964235Y-50477428D01*
X222970196Y-50501227D01*
X222973796Y-50525495D01*
X222975000Y-50549999D01*
X222975000Y-51450001D01*
X222973796Y-51474505D01*
X222970196Y-51498773D01*
X222964235Y-51522572D01*
X222955970Y-51545671D01*
X222945480Y-51567850D01*
X222932868Y-51588893D01*
X222918253Y-51608599D01*
X222901777Y-51626777D01*
X222883599Y-51643253D01*
X222863893Y-51657868D01*
X222842850Y-51670480D01*
X222820671Y-51680970D01*
X222797572Y-51689235D01*
X222773773Y-51695196D01*
X222749505Y-51698796D01*
X222725001Y-51700000D01*
X222074999Y-51700000D01*
X222050495Y-51698796D01*
X222026227Y-51695196D01*
X222002428Y-51689235D01*
X221979329Y-51680970D01*
X221957150Y-51670480D01*
X221936107Y-51657868D01*
X221916401Y-51643253D01*
X221898223Y-51626777D01*
X221881747Y-51608599D01*
X221867132Y-51588893D01*
X221854520Y-51567850D01*
X221844030Y-51545671D01*
X221835765Y-51522572D01*
X221829804Y-51498773D01*
X221826204Y-51474505D01*
X221825000Y-51450001D01*
X221825000Y-50549999D01*
X221826204Y-50525495D01*
X221829804Y-50501227D01*
X221835765Y-50477428D01*
X221844030Y-50454329D01*
X221854520Y-50432150D01*
X221867132Y-50411107D01*
X221881747Y-50391401D01*
X221898223Y-50373223D01*
X221916401Y-50356747D01*
X221936107Y-50342132D01*
X221957150Y-50329520D01*
X221979329Y-50319030D01*
X222002428Y-50310765D01*
X222026227Y-50304804D01*
X222050495Y-50301204D01*
X222074999Y-50300000D01*
X222725001Y-50300000D01*
X222749505Y-50301204D01*
X222749505Y-50301204D01*
G37*
D11*
G04 #@! TD*
G04 #@! TO.P,C9,2*
G04 #@! TO.N,Net-(C10-Pad2)*
X222400000Y-51000000D03*
D10*
G04 #@! TO.N,Net-(C10-Pad2)*
G04 #@! TO.C,C10*
G36*
X222749505Y-52301204D02*
X222773773Y-52304804D01*
X222797572Y-52310765D01*
X222820671Y-52319030D01*
X222842850Y-52329520D01*
X222863893Y-52342132D01*
X222883599Y-52356747D01*
X222901777Y-52373223D01*
X222918253Y-52391401D01*
X222932868Y-52411107D01*
X222945480Y-52432150D01*
X222955970Y-52454329D01*
X222964235Y-52477428D01*
X222970196Y-52501227D01*
X222973796Y-52525495D01*
X222975000Y-52549999D01*
X222975000Y-53450001D01*
X222973796Y-53474505D01*
X222970196Y-53498773D01*
X222964235Y-53522572D01*
X222955970Y-53545671D01*
X222945480Y-53567850D01*
X222932868Y-53588893D01*
X222918253Y-53608599D01*
X222901777Y-53626777D01*
X222883599Y-53643253D01*
X222863893Y-53657868D01*
X222842850Y-53670480D01*
X222820671Y-53680970D01*
X222797572Y-53689235D01*
X222773773Y-53695196D01*
X222749505Y-53698796D01*
X222725001Y-53700000D01*
X222074999Y-53700000D01*
X222050495Y-53698796D01*
X222026227Y-53695196D01*
X222002428Y-53689235D01*
X221979329Y-53680970D01*
X221957150Y-53670480D01*
X221936107Y-53657868D01*
X221916401Y-53643253D01*
X221898223Y-53626777D01*
X221881747Y-53608599D01*
X221867132Y-53588893D01*
X221854520Y-53567850D01*
X221844030Y-53545671D01*
X221835765Y-53522572D01*
X221829804Y-53498773D01*
X221826204Y-53474505D01*
X221825000Y-53450001D01*
X221825000Y-52549999D01*
X221826204Y-52525495D01*
X221829804Y-52501227D01*
X221835765Y-52477428D01*
X221844030Y-52454329D01*
X221854520Y-52432150D01*
X221867132Y-52411107D01*
X221881747Y-52391401D01*
X221898223Y-52373223D01*
X221916401Y-52356747D01*
X221936107Y-52342132D01*
X221957150Y-52329520D01*
X221979329Y-52319030D01*
X222002428Y-52310765D01*
X222026227Y-52304804D01*
X222050495Y-52301204D01*
X222074999Y-52300000D01*
X222725001Y-52300000D01*
X222749505Y-52301204D01*
X222749505Y-52301204D01*
G37*
D11*
G04 #@! TD*
G04 #@! TO.P,C10,2*
G04 #@! TO.N,Net-(C10-Pad2)*
X222400000Y-53000000D03*
D10*
G04 #@! TO.N,GND*
G04 #@! TO.C,C10*
G36*
X224799505Y-52301204D02*
X224823773Y-52304804D01*
X224847572Y-52310765D01*
X224870671Y-52319030D01*
X224892850Y-52329520D01*
X224913893Y-52342132D01*
X224933599Y-52356747D01*
X224951777Y-52373223D01*
X224968253Y-52391401D01*
X224982868Y-52411107D01*
X224995480Y-52432150D01*
X225005970Y-52454329D01*
X225014235Y-52477428D01*
X225020196Y-52501227D01*
X225023796Y-52525495D01*
X225025000Y-52549999D01*
X225025000Y-53450001D01*
X225023796Y-53474505D01*
X225020196Y-53498773D01*
X225014235Y-53522572D01*
X225005970Y-53545671D01*
X224995480Y-53567850D01*
X224982868Y-53588893D01*
X224968253Y-53608599D01*
X224951777Y-53626777D01*
X224933599Y-53643253D01*
X224913893Y-53657868D01*
X224892850Y-53670480D01*
X224870671Y-53680970D01*
X224847572Y-53689235D01*
X224823773Y-53695196D01*
X224799505Y-53698796D01*
X224775001Y-53700000D01*
X224124999Y-53700000D01*
X224100495Y-53698796D01*
X224076227Y-53695196D01*
X224052428Y-53689235D01*
X224029329Y-53680970D01*
X224007150Y-53670480D01*
X223986107Y-53657868D01*
X223966401Y-53643253D01*
X223948223Y-53626777D01*
X223931747Y-53608599D01*
X223917132Y-53588893D01*
X223904520Y-53567850D01*
X223894030Y-53545671D01*
X223885765Y-53522572D01*
X223879804Y-53498773D01*
X223876204Y-53474505D01*
X223875000Y-53450001D01*
X223875000Y-52549999D01*
X223876204Y-52525495D01*
X223879804Y-52501227D01*
X223885765Y-52477428D01*
X223894030Y-52454329D01*
X223904520Y-52432150D01*
X223917132Y-52411107D01*
X223931747Y-52391401D01*
X223948223Y-52373223D01*
X223966401Y-52356747D01*
X223986107Y-52342132D01*
X224007150Y-52329520D01*
X224029329Y-52319030D01*
X224052428Y-52310765D01*
X224076227Y-52304804D01*
X224100495Y-52301204D01*
X224124999Y-52300000D01*
X224775001Y-52300000D01*
X224799505Y-52301204D01*
X224799505Y-52301204D01*
G37*
D11*
G04 #@! TD*
G04 #@! TO.P,C10,1*
G04 #@! TO.N,GND*
X224450000Y-53000000D03*
D10*
G04 #@! TO.N,Net-(C10-Pad2)*
G04 #@! TO.C,FB1*
G36*
X220749505Y-50301204D02*
X220773773Y-50304804D01*
X220797572Y-50310765D01*
X220820671Y-50319030D01*
X220842850Y-50329520D01*
X220863893Y-50342132D01*
X220883599Y-50356747D01*
X220901777Y-50373223D01*
X220918253Y-50391401D01*
X220932868Y-50411107D01*
X220945480Y-50432150D01*
X220955970Y-50454329D01*
X220964235Y-50477428D01*
X220970196Y-50501227D01*
X220973796Y-50525495D01*
X220975000Y-50549999D01*
X220975000Y-51450001D01*
X220973796Y-51474505D01*
X220970196Y-51498773D01*
X220964235Y-51522572D01*
X220955970Y-51545671D01*
X220945480Y-51567850D01*
X220932868Y-51588893D01*
X220918253Y-51608599D01*
X220901777Y-51626777D01*
X220883599Y-51643253D01*
X220863893Y-51657868D01*
X220842850Y-51670480D01*
X220820671Y-51680970D01*
X220797572Y-51689235D01*
X220773773Y-51695196D01*
X220749505Y-51698796D01*
X220725001Y-51700000D01*
X220074999Y-51700000D01*
X220050495Y-51698796D01*
X220026227Y-51695196D01*
X220002428Y-51689235D01*
X219979329Y-51680970D01*
X219957150Y-51670480D01*
X219936107Y-51657868D01*
X219916401Y-51643253D01*
X219898223Y-51626777D01*
X219881747Y-51608599D01*
X219867132Y-51588893D01*
X219854520Y-51567850D01*
X219844030Y-51545671D01*
X219835765Y-51522572D01*
X219829804Y-51498773D01*
X219826204Y-51474505D01*
X219825000Y-51450001D01*
X219825000Y-50549999D01*
X219826204Y-50525495D01*
X219829804Y-50501227D01*
X219835765Y-50477428D01*
X219844030Y-50454329D01*
X219854520Y-50432150D01*
X219867132Y-50411107D01*
X219881747Y-50391401D01*
X219898223Y-50373223D01*
X219916401Y-50356747D01*
X219936107Y-50342132D01*
X219957150Y-50329520D01*
X219979329Y-50319030D01*
X220002428Y-50310765D01*
X220026227Y-50304804D01*
X220050495Y-50301204D01*
X220074999Y-50300000D01*
X220725001Y-50300000D01*
X220749505Y-50301204D01*
X220749505Y-50301204D01*
G37*
D11*
G04 #@! TD*
G04 #@! TO.P,FB1,1*
G04 #@! TO.N,Net-(C10-Pad2)*
X220400000Y-51000000D03*
D10*
G04 #@! TO.N,Net-(C7-Pad1)*
G04 #@! TO.C,FB1*
G36*
X218699505Y-50301204D02*
X218723773Y-50304804D01*
X218747572Y-50310765D01*
X218770671Y-50319030D01*
X218792850Y-50329520D01*
X218813893Y-50342132D01*
X218833599Y-50356747D01*
X218851777Y-50373223D01*
X218868253Y-50391401D01*
X218882868Y-50411107D01*
X218895480Y-50432150D01*
X218905970Y-50454329D01*
X218914235Y-50477428D01*
X218920196Y-50501227D01*
X218923796Y-50525495D01*
X218925000Y-50549999D01*
X218925000Y-51450001D01*
X218923796Y-51474505D01*
X218920196Y-51498773D01*
X218914235Y-51522572D01*
X218905970Y-51545671D01*
X218895480Y-51567850D01*
X218882868Y-51588893D01*
X218868253Y-51608599D01*
X218851777Y-51626777D01*
X218833599Y-51643253D01*
X218813893Y-51657868D01*
X218792850Y-51670480D01*
X218770671Y-51680970D01*
X218747572Y-51689235D01*
X218723773Y-51695196D01*
X218699505Y-51698796D01*
X218675001Y-51700000D01*
X218024999Y-51700000D01*
X218000495Y-51698796D01*
X217976227Y-51695196D01*
X217952428Y-51689235D01*
X217929329Y-51680970D01*
X217907150Y-51670480D01*
X217886107Y-51657868D01*
X217866401Y-51643253D01*
X217848223Y-51626777D01*
X217831747Y-51608599D01*
X217817132Y-51588893D01*
X217804520Y-51567850D01*
X217794030Y-51545671D01*
X217785765Y-51522572D01*
X217779804Y-51498773D01*
X217776204Y-51474505D01*
X217775000Y-51450001D01*
X217775000Y-50549999D01*
X217776204Y-50525495D01*
X217779804Y-50501227D01*
X217785765Y-50477428D01*
X217794030Y-50454329D01*
X217804520Y-50432150D01*
X217817132Y-50411107D01*
X217831747Y-50391401D01*
X217848223Y-50373223D01*
X217866401Y-50356747D01*
X217886107Y-50342132D01*
X217907150Y-50329520D01*
X217929329Y-50319030D01*
X217952428Y-50310765D01*
X217976227Y-50304804D01*
X218000495Y-50301204D01*
X218024999Y-50300000D01*
X218675001Y-50300000D01*
X218699505Y-50301204D01*
X218699505Y-50301204D01*
G37*
D11*
G04 #@! TD*
G04 #@! TO.P,FB1,2*
G04 #@! TO.N,Net-(C7-Pad1)*
X218350000Y-51000000D03*
D10*
G04 #@! TO.N,Net-(J1-Pad1)*
G04 #@! TO.C,J1*
G36*
X200874505Y-52911204D02*
X200898773Y-52914804D01*
X200922572Y-52920765D01*
X200945671Y-52929030D01*
X200967850Y-52939520D01*
X200988893Y-52952132D01*
X201008599Y-52966747D01*
X201026777Y-52983223D01*
X201043253Y-53001401D01*
X201057868Y-53021107D01*
X201070480Y-53042150D01*
X201080970Y-53064329D01*
X201089235Y-53087428D01*
X201095196Y-53111227D01*
X201098796Y-53135495D01*
X201100000Y-53159999D01*
X201100000Y-54400001D01*
X201098796Y-54424505D01*
X201095196Y-54448773D01*
X201089235Y-54472572D01*
X201080970Y-54495671D01*
X201070480Y-54517850D01*
X201057868Y-54538893D01*
X201043253Y-54558599D01*
X201026777Y-54576777D01*
X201008599Y-54593253D01*
X200988893Y-54607868D01*
X200967850Y-54620480D01*
X200945671Y-54630970D01*
X200922572Y-54639235D01*
X200898773Y-54645196D01*
X200874505Y-54648796D01*
X200850001Y-54650000D01*
X199149999Y-54650000D01*
X199125495Y-54648796D01*
X199101227Y-54645196D01*
X199077428Y-54639235D01*
X199054329Y-54630970D01*
X199032150Y-54620480D01*
X199011107Y-54607868D01*
X198991401Y-54593253D01*
X198973223Y-54576777D01*
X198956747Y-54558599D01*
X198942132Y-54538893D01*
X198929520Y-54517850D01*
X198919030Y-54495671D01*
X198910765Y-54472572D01*
X198904804Y-54448773D01*
X198901204Y-54424505D01*
X198900000Y-54400001D01*
X198900000Y-53159999D01*
X198901204Y-53135495D01*
X198904804Y-53111227D01*
X198910765Y-53087428D01*
X198919030Y-53064329D01*
X198929520Y-53042150D01*
X198942132Y-53021107D01*
X198956747Y-53001401D01*
X198973223Y-52983223D01*
X198991401Y-52966747D01*
X199011107Y-52952132D01*
X199032150Y-52939520D01*
X199054329Y-52929030D01*
X199077428Y-52920765D01*
X199101227Y-52914804D01*
X199125495Y-52911204D01*
X199149999Y-52910000D01*
X200850001Y-52910000D01*
X200874505Y-52911204D01*
X200874505Y-52911204D01*
G37*
D12*
G04 #@! TD*
G04 #@! TO.P,J1,1*
G04 #@! TO.N,Net-(J1-Pad1)*
X200000000Y-53780000D03*
D13*
G04 #@! TO.P,J1,2*
G04 #@! TO.N,/TXD*
X200000000Y-56320000D03*
G04 #@! TO.P,J1,3*
G04 #@! TO.N,/RXD*
X200000000Y-58860000D03*
G04 #@! TO.P,J1,4*
G04 #@! TO.N,/BATT*
X200000000Y-61400000D03*
G04 #@! TO.P,J1,5*
G04 #@! TO.N,GND*
X200000000Y-63940000D03*
G04 #@! TO.P,J1,6*
G04 #@! TO.N,Net-(J1-Pad6)*
X200000000Y-66480000D03*
G04 #@! TD*
D10*
G04 #@! TO.N,/SCLE*
G04 #@! TO.C,J2*
G36*
X209074505Y-64811204D02*
X209098773Y-64814804D01*
X209122572Y-64820765D01*
X209145671Y-64829030D01*
X209167850Y-64839520D01*
X209188893Y-64852132D01*
X209208599Y-64866747D01*
X209226777Y-64883223D01*
X209243253Y-64901401D01*
X209257868Y-64921107D01*
X209270480Y-64942150D01*
X209280970Y-64964329D01*
X209289235Y-64987428D01*
X209295196Y-65011227D01*
X209298796Y-65035495D01*
X209300000Y-65059999D01*
X209300000Y-66300001D01*
X209298796Y-66324505D01*
X209295196Y-66348773D01*
X209289235Y-66372572D01*
X209280970Y-66395671D01*
X209270480Y-66417850D01*
X209257868Y-66438893D01*
X209243253Y-66458599D01*
X209226777Y-66476777D01*
X209208599Y-66493253D01*
X209188893Y-66507868D01*
X209167850Y-66520480D01*
X209145671Y-66530970D01*
X209122572Y-66539235D01*
X209098773Y-66545196D01*
X209074505Y-66548796D01*
X209050001Y-66550000D01*
X207349999Y-66550000D01*
X207325495Y-66548796D01*
X207301227Y-66545196D01*
X207277428Y-66539235D01*
X207254329Y-66530970D01*
X207232150Y-66520480D01*
X207211107Y-66507868D01*
X207191401Y-66493253D01*
X207173223Y-66476777D01*
X207156747Y-66458599D01*
X207142132Y-66438893D01*
X207129520Y-66417850D01*
X207119030Y-66395671D01*
X207110765Y-66372572D01*
X207104804Y-66348773D01*
X207101204Y-66324505D01*
X207100000Y-66300001D01*
X207100000Y-65059999D01*
X207101204Y-65035495D01*
X207104804Y-65011227D01*
X207110765Y-64987428D01*
X207119030Y-64964329D01*
X207129520Y-64942150D01*
X207142132Y-64921107D01*
X207156747Y-64901401D01*
X207173223Y-64883223D01*
X207191401Y-64866747D01*
X207211107Y-64852132D01*
X207232150Y-64839520D01*
X207254329Y-64829030D01*
X207277428Y-64820765D01*
X207301227Y-64814804D01*
X207325495Y-64811204D01*
X207349999Y-64810000D01*
X209050001Y-64810000D01*
X209074505Y-64811204D01*
X209074505Y-64811204D01*
G37*
D12*
G04 #@! TD*
G04 #@! TO.P,J2,1*
G04 #@! TO.N,/SCLE*
X208200000Y-65680000D03*
D13*
G04 #@! TO.P,J2,2*
G04 #@! TO.N,/SDAD*
X208200000Y-63140000D03*
G04 #@! TO.P,J2,3*
G04 #@! TO.N,/+2.8V*
X208200000Y-60600000D03*
G04 #@! TO.P,J2,4*
G04 #@! TO.N,GND*
X208200000Y-58060000D03*
G04 #@! TD*
D10*
G04 #@! TO.N,GND*
G04 #@! TO.C,J3*
G36*
X241474505Y-64871204D02*
X241498773Y-64874804D01*
X241522572Y-64880765D01*
X241545671Y-64889030D01*
X241567850Y-64899520D01*
X241588893Y-64912132D01*
X241608599Y-64926747D01*
X241626777Y-64943223D01*
X241643253Y-64961401D01*
X241657868Y-64981107D01*
X241670480Y-65002150D01*
X241680970Y-65024329D01*
X241689235Y-65047428D01*
X241695196Y-65071227D01*
X241698796Y-65095495D01*
X241700000Y-65119999D01*
X241700000Y-66360001D01*
X241698796Y-66384505D01*
X241695196Y-66408773D01*
X241689235Y-66432572D01*
X241680970Y-66455671D01*
X241670480Y-66477850D01*
X241657868Y-66498893D01*
X241643253Y-66518599D01*
X241626777Y-66536777D01*
X241608599Y-66553253D01*
X241588893Y-66567868D01*
X241567850Y-66580480D01*
X241545671Y-66590970D01*
X241522572Y-66599235D01*
X241498773Y-66605196D01*
X241474505Y-66608796D01*
X241450001Y-66610000D01*
X239749999Y-66610000D01*
X239725495Y-66608796D01*
X239701227Y-66605196D01*
X239677428Y-66599235D01*
X239654329Y-66590970D01*
X239632150Y-66580480D01*
X239611107Y-66567868D01*
X239591401Y-66553253D01*
X239573223Y-66536777D01*
X239556747Y-66518599D01*
X239542132Y-66498893D01*
X239529520Y-66477850D01*
X239519030Y-66455671D01*
X239510765Y-66432572D01*
X239504804Y-66408773D01*
X239501204Y-66384505D01*
X239500000Y-66360001D01*
X239500000Y-65119999D01*
X239501204Y-65095495D01*
X239504804Y-65071227D01*
X239510765Y-65047428D01*
X239519030Y-65024329D01*
X239529520Y-65002150D01*
X239542132Y-64981107D01*
X239556747Y-64961401D01*
X239573223Y-64943223D01*
X239591401Y-64926747D01*
X239611107Y-64912132D01*
X239632150Y-64899520D01*
X239654329Y-64889030D01*
X239677428Y-64880765D01*
X239701227Y-64874804D01*
X239725495Y-64871204D01*
X239749999Y-64870000D01*
X241450001Y-64870000D01*
X241474505Y-64871204D01*
X241474505Y-64871204D01*
G37*
D12*
G04 #@! TD*
G04 #@! TO.P,J3,1*
G04 #@! TO.N,GND*
X240600000Y-65740000D03*
D13*
G04 #@! TO.P,J3,2*
G04 #@! TO.N,/S1*
X240600000Y-63200000D03*
G04 #@! TD*
D10*
G04 #@! TO.N,Net-(C7-Pad1)*
G04 #@! TO.C,L1*
G36*
X216949505Y-48301204D02*
X216973773Y-48304804D01*
X216997572Y-48310765D01*
X217020671Y-48319030D01*
X217042850Y-48329520D01*
X217063893Y-48342132D01*
X217083599Y-48356747D01*
X217101777Y-48373223D01*
X217118253Y-48391401D01*
X217132868Y-48411107D01*
X217145480Y-48432150D01*
X217155970Y-48454329D01*
X217164235Y-48477428D01*
X217170196Y-48501227D01*
X217173796Y-48525495D01*
X217175000Y-48549999D01*
X217175000Y-49450001D01*
X217173796Y-49474505D01*
X217170196Y-49498773D01*
X217164235Y-49522572D01*
X217155970Y-49545671D01*
X217145480Y-49567850D01*
X217132868Y-49588893D01*
X217118253Y-49608599D01*
X217101777Y-49626777D01*
X217083599Y-49643253D01*
X217063893Y-49657868D01*
X217042850Y-49670480D01*
X217020671Y-49680970D01*
X216997572Y-49689235D01*
X216973773Y-49695196D01*
X216949505Y-49698796D01*
X216925001Y-49700000D01*
X216274999Y-49700000D01*
X216250495Y-49698796D01*
X216226227Y-49695196D01*
X216202428Y-49689235D01*
X216179329Y-49680970D01*
X216157150Y-49670480D01*
X216136107Y-49657868D01*
X216116401Y-49643253D01*
X216098223Y-49626777D01*
X216081747Y-49608599D01*
X216067132Y-49588893D01*
X216054520Y-49567850D01*
X216044030Y-49545671D01*
X216035765Y-49522572D01*
X216029804Y-49498773D01*
X216026204Y-49474505D01*
X216025000Y-49450001D01*
X216025000Y-48549999D01*
X216026204Y-48525495D01*
X216029804Y-48501227D01*
X216035765Y-48477428D01*
X216044030Y-48454329D01*
X216054520Y-48432150D01*
X216067132Y-48411107D01*
X216081747Y-48391401D01*
X216098223Y-48373223D01*
X216116401Y-48356747D01*
X216136107Y-48342132D01*
X216157150Y-48329520D01*
X216179329Y-48319030D01*
X216202428Y-48310765D01*
X216226227Y-48304804D01*
X216250495Y-48301204D01*
X216274999Y-48300000D01*
X216925001Y-48300000D01*
X216949505Y-48301204D01*
X216949505Y-48301204D01*
G37*
D11*
G04 #@! TD*
G04 #@! TO.P,L1,2*
G04 #@! TO.N,Net-(C7-Pad1)*
X216600000Y-49000000D03*
D10*
G04 #@! TO.N,/+2.8V*
G04 #@! TO.C,L1*
G36*
X214899505Y-48301204D02*
X214923773Y-48304804D01*
X214947572Y-48310765D01*
X214970671Y-48319030D01*
X214992850Y-48329520D01*
X215013893Y-48342132D01*
X215033599Y-48356747D01*
X215051777Y-48373223D01*
X215068253Y-48391401D01*
X215082868Y-48411107D01*
X215095480Y-48432150D01*
X215105970Y-48454329D01*
X215114235Y-48477428D01*
X215120196Y-48501227D01*
X215123796Y-48525495D01*
X215125000Y-48549999D01*
X215125000Y-49450001D01*
X215123796Y-49474505D01*
X215120196Y-49498773D01*
X215114235Y-49522572D01*
X215105970Y-49545671D01*
X215095480Y-49567850D01*
X215082868Y-49588893D01*
X215068253Y-49608599D01*
X215051777Y-49626777D01*
X215033599Y-49643253D01*
X215013893Y-49657868D01*
X214992850Y-49670480D01*
X214970671Y-49680970D01*
X214947572Y-49689235D01*
X214923773Y-49695196D01*
X214899505Y-49698796D01*
X214875001Y-49700000D01*
X214224999Y-49700000D01*
X214200495Y-49698796D01*
X214176227Y-49695196D01*
X214152428Y-49689235D01*
X214129329Y-49680970D01*
X214107150Y-49670480D01*
X214086107Y-49657868D01*
X214066401Y-49643253D01*
X214048223Y-49626777D01*
X214031747Y-49608599D01*
X214017132Y-49588893D01*
X214004520Y-49567850D01*
X213994030Y-49545671D01*
X213985765Y-49522572D01*
X213979804Y-49498773D01*
X213976204Y-49474505D01*
X213975000Y-49450001D01*
X213975000Y-48549999D01*
X213976204Y-48525495D01*
X213979804Y-48501227D01*
X213985765Y-48477428D01*
X213994030Y-48454329D01*
X214004520Y-48432150D01*
X214017132Y-48411107D01*
X214031747Y-48391401D01*
X214048223Y-48373223D01*
X214066401Y-48356747D01*
X214086107Y-48342132D01*
X214107150Y-48329520D01*
X214129329Y-48319030D01*
X214152428Y-48310765D01*
X214176227Y-48304804D01*
X214200495Y-48301204D01*
X214224999Y-48300000D01*
X214875001Y-48300000D01*
X214899505Y-48301204D01*
X214899505Y-48301204D01*
G37*
D11*
G04 #@! TD*
G04 #@! TO.P,L1,1*
G04 #@! TO.N,/+2.8V*
X214550000Y-49000000D03*
D14*
G04 #@! TO.P,M1,+*
G04 #@! TO.N,/BATT*
X200549200Y-42250000D03*
G04 #@! TO.P,M1,-*
G04 #@! TO.N,GND*
X238649200Y-42250000D03*
D15*
G04 #@! TO.P,M1,P$4*
G04 #@! TO.N,N/C*
X206848400Y-42250000D03*
G04 #@! TO.P,M1,P$5*
X232350000Y-42250000D03*
G04 #@! TD*
D10*
G04 #@! TO.N,/S1*
G04 #@! TO.C,R2*
G36*
X232949505Y-63101204D02*
X232973773Y-63104804D01*
X232997572Y-63110765D01*
X233020671Y-63119030D01*
X233042850Y-63129520D01*
X233063893Y-63142132D01*
X233083599Y-63156747D01*
X233101777Y-63173223D01*
X233118253Y-63191401D01*
X233132868Y-63211107D01*
X233145480Y-63232150D01*
X233155970Y-63254329D01*
X233164235Y-63277428D01*
X233170196Y-63301227D01*
X233173796Y-63325495D01*
X233175000Y-63349999D01*
X233175000Y-64250001D01*
X233173796Y-64274505D01*
X233170196Y-64298773D01*
X233164235Y-64322572D01*
X233155970Y-64345671D01*
X233145480Y-64367850D01*
X233132868Y-64388893D01*
X233118253Y-64408599D01*
X233101777Y-64426777D01*
X233083599Y-64443253D01*
X233063893Y-64457868D01*
X233042850Y-64470480D01*
X233020671Y-64480970D01*
X232997572Y-64489235D01*
X232973773Y-64495196D01*
X232949505Y-64498796D01*
X232925001Y-64500000D01*
X232274999Y-64500000D01*
X232250495Y-64498796D01*
X232226227Y-64495196D01*
X232202428Y-64489235D01*
X232179329Y-64480970D01*
X232157150Y-64470480D01*
X232136107Y-64457868D01*
X232116401Y-64443253D01*
X232098223Y-64426777D01*
X232081747Y-64408599D01*
X232067132Y-64388893D01*
X232054520Y-64367850D01*
X232044030Y-64345671D01*
X232035765Y-64322572D01*
X232029804Y-64298773D01*
X232026204Y-64274505D01*
X232025000Y-64250001D01*
X232025000Y-63349999D01*
X232026204Y-63325495D01*
X232029804Y-63301227D01*
X232035765Y-63277428D01*
X232044030Y-63254329D01*
X232054520Y-63232150D01*
X232067132Y-63211107D01*
X232081747Y-63191401D01*
X232098223Y-63173223D01*
X232116401Y-63156747D01*
X232136107Y-63142132D01*
X232157150Y-63129520D01*
X232179329Y-63119030D01*
X232202428Y-63110765D01*
X232226227Y-63104804D01*
X232250495Y-63101204D01*
X232274999Y-63100000D01*
X232925001Y-63100000D01*
X232949505Y-63101204D01*
X232949505Y-63101204D01*
G37*
D11*
G04 #@! TD*
G04 #@! TO.P,R2,2*
G04 #@! TO.N,/S1*
X232600000Y-63800000D03*
D10*
G04 #@! TO.N,Net-(C3-Pad1)*
G04 #@! TO.C,R2*
G36*
X230899505Y-63101204D02*
X230923773Y-63104804D01*
X230947572Y-63110765D01*
X230970671Y-63119030D01*
X230992850Y-63129520D01*
X231013893Y-63142132D01*
X231033599Y-63156747D01*
X231051777Y-63173223D01*
X231068253Y-63191401D01*
X231082868Y-63211107D01*
X231095480Y-63232150D01*
X231105970Y-63254329D01*
X231114235Y-63277428D01*
X231120196Y-63301227D01*
X231123796Y-63325495D01*
X231125000Y-63349999D01*
X231125000Y-64250001D01*
X231123796Y-64274505D01*
X231120196Y-64298773D01*
X231114235Y-64322572D01*
X231105970Y-64345671D01*
X231095480Y-64367850D01*
X231082868Y-64388893D01*
X231068253Y-64408599D01*
X231051777Y-64426777D01*
X231033599Y-64443253D01*
X231013893Y-64457868D01*
X230992850Y-64470480D01*
X230970671Y-64480970D01*
X230947572Y-64489235D01*
X230923773Y-64495196D01*
X230899505Y-64498796D01*
X230875001Y-64500000D01*
X230224999Y-64500000D01*
X230200495Y-64498796D01*
X230176227Y-64495196D01*
X230152428Y-64489235D01*
X230129329Y-64480970D01*
X230107150Y-64470480D01*
X230086107Y-64457868D01*
X230066401Y-64443253D01*
X230048223Y-64426777D01*
X230031747Y-64408599D01*
X230017132Y-64388893D01*
X230004520Y-64367850D01*
X229994030Y-64345671D01*
X229985765Y-64322572D01*
X229979804Y-64298773D01*
X229976204Y-64274505D01*
X229975000Y-64250001D01*
X229975000Y-63349999D01*
X229976204Y-63325495D01*
X229979804Y-63301227D01*
X229985765Y-63277428D01*
X229994030Y-63254329D01*
X230004520Y-63232150D01*
X230017132Y-63211107D01*
X230031747Y-63191401D01*
X230048223Y-63173223D01*
X230066401Y-63156747D01*
X230086107Y-63142132D01*
X230107150Y-63129520D01*
X230129329Y-63119030D01*
X230152428Y-63110765D01*
X230176227Y-63104804D01*
X230200495Y-63101204D01*
X230224999Y-63100000D01*
X230875001Y-63100000D01*
X230899505Y-63101204D01*
X230899505Y-63101204D01*
G37*
D11*
G04 #@! TD*
G04 #@! TO.P,R2,1*
G04 #@! TO.N,Net-(C3-Pad1)*
X230550000Y-63800000D03*
D10*
G04 #@! TO.N,Net-(R3-Pad1)*
G04 #@! TO.C,R3*
G36*
X232074505Y-68451204D02*
X232098773Y-68454804D01*
X232122572Y-68460765D01*
X232145671Y-68469030D01*
X232167850Y-68479520D01*
X232188893Y-68492132D01*
X232208599Y-68506747D01*
X232226777Y-68523223D01*
X232243253Y-68541401D01*
X232257868Y-68561107D01*
X232270480Y-68582150D01*
X232280970Y-68604329D01*
X232289235Y-68627428D01*
X232295196Y-68651227D01*
X232298796Y-68675495D01*
X232300000Y-68699999D01*
X232300000Y-69350001D01*
X232298796Y-69374505D01*
X232295196Y-69398773D01*
X232289235Y-69422572D01*
X232280970Y-69445671D01*
X232270480Y-69467850D01*
X232257868Y-69488893D01*
X232243253Y-69508599D01*
X232226777Y-69526777D01*
X232208599Y-69543253D01*
X232188893Y-69557868D01*
X232167850Y-69570480D01*
X232145671Y-69580970D01*
X232122572Y-69589235D01*
X232098773Y-69595196D01*
X232074505Y-69598796D01*
X232050001Y-69600000D01*
X231149999Y-69600000D01*
X231125495Y-69598796D01*
X231101227Y-69595196D01*
X231077428Y-69589235D01*
X231054329Y-69580970D01*
X231032150Y-69570480D01*
X231011107Y-69557868D01*
X230991401Y-69543253D01*
X230973223Y-69526777D01*
X230956747Y-69508599D01*
X230942132Y-69488893D01*
X230929520Y-69467850D01*
X230919030Y-69445671D01*
X230910765Y-69422572D01*
X230904804Y-69398773D01*
X230901204Y-69374505D01*
X230900000Y-69350001D01*
X230900000Y-68699999D01*
X230901204Y-68675495D01*
X230904804Y-68651227D01*
X230910765Y-68627428D01*
X230919030Y-68604329D01*
X230929520Y-68582150D01*
X230942132Y-68561107D01*
X230956747Y-68541401D01*
X230973223Y-68523223D01*
X230991401Y-68506747D01*
X231011107Y-68492132D01*
X231032150Y-68479520D01*
X231054329Y-68469030D01*
X231077428Y-68460765D01*
X231101227Y-68454804D01*
X231125495Y-68451204D01*
X231149999Y-68450000D01*
X232050001Y-68450000D01*
X232074505Y-68451204D01*
X232074505Y-68451204D01*
G37*
D11*
G04 #@! TD*
G04 #@! TO.P,R3,1*
G04 #@! TO.N,Net-(R3-Pad1)*
X231600000Y-69025000D03*
D10*
G04 #@! TO.N,Net-(C3-Pad1)*
G04 #@! TO.C,R3*
G36*
X232074505Y-66401204D02*
X232098773Y-66404804D01*
X232122572Y-66410765D01*
X232145671Y-66419030D01*
X232167850Y-66429520D01*
X232188893Y-66442132D01*
X232208599Y-66456747D01*
X232226777Y-66473223D01*
X232243253Y-66491401D01*
X232257868Y-66511107D01*
X232270480Y-66532150D01*
X232280970Y-66554329D01*
X232289235Y-66577428D01*
X232295196Y-66601227D01*
X232298796Y-66625495D01*
X232300000Y-66649999D01*
X232300000Y-67300001D01*
X232298796Y-67324505D01*
X232295196Y-67348773D01*
X232289235Y-67372572D01*
X232280970Y-67395671D01*
X232270480Y-67417850D01*
X232257868Y-67438893D01*
X232243253Y-67458599D01*
X232226777Y-67476777D01*
X232208599Y-67493253D01*
X232188893Y-67507868D01*
X232167850Y-67520480D01*
X232145671Y-67530970D01*
X232122572Y-67539235D01*
X232098773Y-67545196D01*
X232074505Y-67548796D01*
X232050001Y-67550000D01*
X231149999Y-67550000D01*
X231125495Y-67548796D01*
X231101227Y-67545196D01*
X231077428Y-67539235D01*
X231054329Y-67530970D01*
X231032150Y-67520480D01*
X231011107Y-67507868D01*
X230991401Y-67493253D01*
X230973223Y-67476777D01*
X230956747Y-67458599D01*
X230942132Y-67438893D01*
X230929520Y-67417850D01*
X230919030Y-67395671D01*
X230910765Y-67372572D01*
X230904804Y-67348773D01*
X230901204Y-67324505D01*
X230900000Y-67300001D01*
X230900000Y-66649999D01*
X230901204Y-66625495D01*
X230904804Y-66601227D01*
X230910765Y-66577428D01*
X230919030Y-66554329D01*
X230929520Y-66532150D01*
X230942132Y-66511107D01*
X230956747Y-66491401D01*
X230973223Y-66473223D01*
X230991401Y-66456747D01*
X231011107Y-66442132D01*
X231032150Y-66429520D01*
X231054329Y-66419030D01*
X231077428Y-66410765D01*
X231101227Y-66404804D01*
X231125495Y-66401204D01*
X231149999Y-66400000D01*
X232050001Y-66400000D01*
X232074505Y-66401204D01*
X232074505Y-66401204D01*
G37*
D11*
G04 #@! TD*
G04 #@! TO.P,R3,2*
G04 #@! TO.N,Net-(C3-Pad1)*
X231600000Y-66975000D03*
D10*
G04 #@! TO.N,/-2.8V*
G04 #@! TO.C,R4*
G36*
X232074505Y-73226204D02*
X232098773Y-73229804D01*
X232122572Y-73235765D01*
X232145671Y-73244030D01*
X232167850Y-73254520D01*
X232188893Y-73267132D01*
X232208599Y-73281747D01*
X232226777Y-73298223D01*
X232243253Y-73316401D01*
X232257868Y-73336107D01*
X232270480Y-73357150D01*
X232280970Y-73379329D01*
X232289235Y-73402428D01*
X232295196Y-73426227D01*
X232298796Y-73450495D01*
X232300000Y-73474999D01*
X232300000Y-74125001D01*
X232298796Y-74149505D01*
X232295196Y-74173773D01*
X232289235Y-74197572D01*
X232280970Y-74220671D01*
X232270480Y-74242850D01*
X232257868Y-74263893D01*
X232243253Y-74283599D01*
X232226777Y-74301777D01*
X232208599Y-74318253D01*
X232188893Y-74332868D01*
X232167850Y-74345480D01*
X232145671Y-74355970D01*
X232122572Y-74364235D01*
X232098773Y-74370196D01*
X232074505Y-74373796D01*
X232050001Y-74375000D01*
X231149999Y-74375000D01*
X231125495Y-74373796D01*
X231101227Y-74370196D01*
X231077428Y-74364235D01*
X231054329Y-74355970D01*
X231032150Y-74345480D01*
X231011107Y-74332868D01*
X230991401Y-74318253D01*
X230973223Y-74301777D01*
X230956747Y-74283599D01*
X230942132Y-74263893D01*
X230929520Y-74242850D01*
X230919030Y-74220671D01*
X230910765Y-74197572D01*
X230904804Y-74173773D01*
X230901204Y-74149505D01*
X230900000Y-74125001D01*
X230900000Y-73474999D01*
X230901204Y-73450495D01*
X230904804Y-73426227D01*
X230910765Y-73402428D01*
X230919030Y-73379329D01*
X230929520Y-73357150D01*
X230942132Y-73336107D01*
X230956747Y-73316401D01*
X230973223Y-73298223D01*
X230991401Y-73281747D01*
X231011107Y-73267132D01*
X231032150Y-73254520D01*
X231054329Y-73244030D01*
X231077428Y-73235765D01*
X231101227Y-73229804D01*
X231125495Y-73226204D01*
X231149999Y-73225000D01*
X232050001Y-73225000D01*
X232074505Y-73226204D01*
X232074505Y-73226204D01*
G37*
D11*
G04 #@! TD*
G04 #@! TO.P,R4,2*
G04 #@! TO.N,/-2.8V*
X231600000Y-73800000D03*
D10*
G04 #@! TO.N,Net-(R3-Pad1)*
G04 #@! TO.C,R4*
G36*
X232074505Y-71176204D02*
X232098773Y-71179804D01*
X232122572Y-71185765D01*
X232145671Y-71194030D01*
X232167850Y-71204520D01*
X232188893Y-71217132D01*
X232208599Y-71231747D01*
X232226777Y-71248223D01*
X232243253Y-71266401D01*
X232257868Y-71286107D01*
X232270480Y-71307150D01*
X232280970Y-71329329D01*
X232289235Y-71352428D01*
X232295196Y-71376227D01*
X232298796Y-71400495D01*
X232300000Y-71424999D01*
X232300000Y-72075001D01*
X232298796Y-72099505D01*
X232295196Y-72123773D01*
X232289235Y-72147572D01*
X232280970Y-72170671D01*
X232270480Y-72192850D01*
X232257868Y-72213893D01*
X232243253Y-72233599D01*
X232226777Y-72251777D01*
X232208599Y-72268253D01*
X232188893Y-72282868D01*
X232167850Y-72295480D01*
X232145671Y-72305970D01*
X232122572Y-72314235D01*
X232098773Y-72320196D01*
X232074505Y-72323796D01*
X232050001Y-72325000D01*
X231149999Y-72325000D01*
X231125495Y-72323796D01*
X231101227Y-72320196D01*
X231077428Y-72314235D01*
X231054329Y-72305970D01*
X231032150Y-72295480D01*
X231011107Y-72282868D01*
X230991401Y-72268253D01*
X230973223Y-72251777D01*
X230956747Y-72233599D01*
X230942132Y-72213893D01*
X230929520Y-72192850D01*
X230919030Y-72170671D01*
X230910765Y-72147572D01*
X230904804Y-72123773D01*
X230901204Y-72099505D01*
X230900000Y-72075001D01*
X230900000Y-71424999D01*
X230901204Y-71400495D01*
X230904804Y-71376227D01*
X230910765Y-71352428D01*
X230919030Y-71329329D01*
X230929520Y-71307150D01*
X230942132Y-71286107D01*
X230956747Y-71266401D01*
X230973223Y-71248223D01*
X230991401Y-71231747D01*
X231011107Y-71217132D01*
X231032150Y-71204520D01*
X231054329Y-71194030D01*
X231077428Y-71185765D01*
X231101227Y-71179804D01*
X231125495Y-71176204D01*
X231149999Y-71175000D01*
X232050001Y-71175000D01*
X232074505Y-71176204D01*
X232074505Y-71176204D01*
G37*
D11*
G04 #@! TD*
G04 #@! TO.P,R4,1*
G04 #@! TO.N,Net-(R3-Pad1)*
X231600000Y-71750000D03*
D10*
G04 #@! TO.N,/PDI-CLK*
G04 #@! TO.C,R6*
G36*
X237274505Y-58876204D02*
X237298773Y-58879804D01*
X237322572Y-58885765D01*
X237345671Y-58894030D01*
X237367850Y-58904520D01*
X237388893Y-58917132D01*
X237408599Y-58931747D01*
X237426777Y-58948223D01*
X237443253Y-58966401D01*
X237457868Y-58986107D01*
X237470480Y-59007150D01*
X237480970Y-59029329D01*
X237489235Y-59052428D01*
X237495196Y-59076227D01*
X237498796Y-59100495D01*
X237500000Y-59124999D01*
X237500000Y-59775001D01*
X237498796Y-59799505D01*
X237495196Y-59823773D01*
X237489235Y-59847572D01*
X237480970Y-59870671D01*
X237470480Y-59892850D01*
X237457868Y-59913893D01*
X237443253Y-59933599D01*
X237426777Y-59951777D01*
X237408599Y-59968253D01*
X237388893Y-59982868D01*
X237367850Y-59995480D01*
X237345671Y-60005970D01*
X237322572Y-60014235D01*
X237298773Y-60020196D01*
X237274505Y-60023796D01*
X237250001Y-60025000D01*
X236349999Y-60025000D01*
X236325495Y-60023796D01*
X236301227Y-60020196D01*
X236277428Y-60014235D01*
X236254329Y-60005970D01*
X236232150Y-59995480D01*
X236211107Y-59982868D01*
X236191401Y-59968253D01*
X236173223Y-59951777D01*
X236156747Y-59933599D01*
X236142132Y-59913893D01*
X236129520Y-59892850D01*
X236119030Y-59870671D01*
X236110765Y-59847572D01*
X236104804Y-59823773D01*
X236101204Y-59799505D01*
X236100000Y-59775001D01*
X236100000Y-59124999D01*
X236101204Y-59100495D01*
X236104804Y-59076227D01*
X236110765Y-59052428D01*
X236119030Y-59029329D01*
X236129520Y-59007150D01*
X236142132Y-58986107D01*
X236156747Y-58966401D01*
X236173223Y-58948223D01*
X236191401Y-58931747D01*
X236211107Y-58917132D01*
X236232150Y-58904520D01*
X236254329Y-58894030D01*
X236277428Y-58885765D01*
X236301227Y-58879804D01*
X236325495Y-58876204D01*
X236349999Y-58875000D01*
X237250001Y-58875000D01*
X237274505Y-58876204D01*
X237274505Y-58876204D01*
G37*
D11*
G04 #@! TD*
G04 #@! TO.P,R6,2*
G04 #@! TO.N,/PDI-CLK*
X236800000Y-59450000D03*
D10*
G04 #@! TO.N,/+2.8V*
G04 #@! TO.C,R6*
G36*
X237274505Y-56826204D02*
X237298773Y-56829804D01*
X237322572Y-56835765D01*
X237345671Y-56844030D01*
X237367850Y-56854520D01*
X237388893Y-56867132D01*
X237408599Y-56881747D01*
X237426777Y-56898223D01*
X237443253Y-56916401D01*
X237457868Y-56936107D01*
X237470480Y-56957150D01*
X237480970Y-56979329D01*
X237489235Y-57002428D01*
X237495196Y-57026227D01*
X237498796Y-57050495D01*
X237500000Y-57074999D01*
X237500000Y-57725001D01*
X237498796Y-57749505D01*
X237495196Y-57773773D01*
X237489235Y-57797572D01*
X237480970Y-57820671D01*
X237470480Y-57842850D01*
X237457868Y-57863893D01*
X237443253Y-57883599D01*
X237426777Y-57901777D01*
X237408599Y-57918253D01*
X237388893Y-57932868D01*
X237367850Y-57945480D01*
X237345671Y-57955970D01*
X237322572Y-57964235D01*
X237298773Y-57970196D01*
X237274505Y-57973796D01*
X237250001Y-57975000D01*
X236349999Y-57975000D01*
X236325495Y-57973796D01*
X236301227Y-57970196D01*
X236277428Y-57964235D01*
X236254329Y-57955970D01*
X236232150Y-57945480D01*
X236211107Y-57932868D01*
X236191401Y-57918253D01*
X236173223Y-57901777D01*
X236156747Y-57883599D01*
X236142132Y-57863893D01*
X236129520Y-57842850D01*
X236119030Y-57820671D01*
X236110765Y-57797572D01*
X236104804Y-57773773D01*
X236101204Y-57749505D01*
X236100000Y-57725001D01*
X236100000Y-57074999D01*
X236101204Y-57050495D01*
X236104804Y-57026227D01*
X236110765Y-57002428D01*
X236119030Y-56979329D01*
X236129520Y-56957150D01*
X236142132Y-56936107D01*
X236156747Y-56916401D01*
X236173223Y-56898223D01*
X236191401Y-56881747D01*
X236211107Y-56867132D01*
X236232150Y-56854520D01*
X236254329Y-56844030D01*
X236277428Y-56835765D01*
X236301227Y-56829804D01*
X236325495Y-56826204D01*
X236349999Y-56825000D01*
X237250001Y-56825000D01*
X237274505Y-56826204D01*
X237274505Y-56826204D01*
G37*
D11*
G04 #@! TD*
G04 #@! TO.P,R6,1*
G04 #@! TO.N,/+2.8V*
X236800000Y-57400000D03*
D16*
G04 #@! TO.P,U1,1*
G04 #@! TO.N,/-2.8V*
X238899998Y-70800000D03*
G04 #@! TO.P,U1,2*
G04 #@! TO.N,/+2.8V*
X239849999Y-70800000D03*
G04 #@! TO.P,U1,3*
G04 #@! TO.N,Net-(C6-Pad2)*
X240800000Y-70800000D03*
G04 #@! TO.P,U1,4*
G04 #@! TO.N,GND*
X240800000Y-73035200D03*
G04 #@! TO.P,U1,5*
G04 #@! TO.N,Net-(C6-Pad1)*
X238899998Y-73035200D03*
G04 #@! TD*
D17*
G04 #@! TO.P,U4,2*
G04 #@! TO.N,GND*
X207400000Y-47000000D03*
D18*
G04 #@! TO.P,U4,4*
G04 #@! TO.N,/BATT*
X206462500Y-47550000D03*
G04 #@! TO.P,U4,6*
X206462500Y-46450000D03*
G04 #@! TO.P,U4,3*
G04 #@! TO.N,/+2.8V*
X208337500Y-47550000D03*
G04 #@! TO.P,U4,1*
G04 #@! TO.N,Net-(U4-Pad1)*
X208337500Y-46450000D03*
G04 #@! TO.P,U4,2*
G04 #@! TO.N,GND*
X208337500Y-47000000D03*
G04 #@! TO.P,U4,5*
X206462500Y-47000000D03*
D19*
G04 #@! TO.P,U4,7*
G04 #@! TO.N,Net-(U4-Pad1)*
X207400000Y-45725000D03*
G04 #@! TO.P,U4,8*
G04 #@! TO.N,/+2.8V*
X207400000Y-48275000D03*
G04 #@! TD*
D20*
G04 #@! TO.P,J4,1*
G04 #@! TO.N,/PDI-DATA*
X239460000Y-54400000D03*
D21*
G04 #@! TO.P,J4,2*
G04 #@! TO.N,/+2.8V*
X242000000Y-54400000D03*
G04 #@! TO.P,J4,3*
G04 #@! TO.N,Net-(J4-Pad3)*
X239460000Y-56940000D03*
G04 #@! TO.P,J4,4*
G04 #@! TO.N,Net-(J4-Pad4)*
X242000000Y-56940000D03*
G04 #@! TO.P,J4,5*
G04 #@! TO.N,/PDI-CLK*
X239460000Y-59480000D03*
G04 #@! TO.P,J4,6*
G04 #@! TO.N,GND*
X242000000Y-59480000D03*
G04 #@! TD*
D22*
G04 #@! TO.N,/-2.8V*
X238000000Y-69800000D03*
G04 #@! TO.N,GND*
X236400000Y-64000000D03*
X199600000Y-48600000D03*
X214400000Y-41600000D03*
X236400000Y-66600000D03*
X221600000Y-56800000D03*
X221800000Y-59000000D03*
X217000000Y-63800000D03*
X216000000Y-60200000D03*
G04 #@! TO.N,/+2.8V*
X226000000Y-71540000D03*
X226600000Y-68800000D03*
G04 #@! TO.N,Net-(C3-Pad1)*
X231600000Y-65400000D03*
G04 #@! TO.N,Net-(C7-Pad1)*
X217600000Y-52600000D03*
G04 #@! TO.N,Net-(C10-Pad2)*
X219400000Y-64000000D03*
G04 #@! TO.N,/RXD*
X203200000Y-55000000D03*
G04 #@! TO.N,/PDI-DATA*
X215600000Y-68000000D03*
G04 #@! TO.N,/PDI-CLK*
X216800000Y-68000000D03*
G04 #@! TO.N,Net-(R3-Pad1)*
X231600000Y-70400000D03*
G04 #@! TD*
D23*
G04 #@! TO.N,/-2.8V*
X236800000Y-70800000D02*
X236600000Y-70600000D01*
X238899998Y-70800000D02*
X236800000Y-70800000D01*
X236600000Y-70600000D02*
X237200000Y-70600000D01*
X237200000Y-70600000D02*
X238000000Y-69800000D01*
X234075000Y-73800000D02*
X232400000Y-73800000D01*
X232400000Y-73800000D02*
X231600000Y-73800000D01*
X236600000Y-71275000D02*
X234075000Y-73800000D01*
X236600000Y-70600000D02*
X236600000Y-71275000D01*
G04 #@! TO.N,GND*
X206462500Y-47000000D02*
X207400000Y-47000000D01*
X207400000Y-47000000D02*
X208337500Y-47000000D01*
X221600000Y-56800000D02*
X221600000Y-58800000D01*
X221600000Y-58800000D02*
X221800000Y-59000000D01*
X217000000Y-63800000D02*
X217000000Y-61200000D01*
X217000000Y-61200000D02*
X216000000Y-60200000D01*
X208387500Y-46950000D02*
X208337500Y-47000000D01*
X211400000Y-46950000D02*
X208387500Y-46950000D01*
G04 #@! TO.N,/+2.8V*
X209950000Y-47550000D02*
X211400000Y-49000000D01*
X208337500Y-47550000D02*
X209950000Y-47550000D01*
X207700000Y-49000000D02*
X207400000Y-48700000D01*
X211400000Y-49000000D02*
X207700000Y-49000000D01*
X211400000Y-49000000D02*
X212449999Y-47950001D01*
X206850000Y-60600000D02*
X204800000Y-58550000D01*
X208200000Y-60600000D02*
X206850000Y-60600000D01*
X204800000Y-51300000D02*
X204800000Y-58550000D01*
X207400000Y-48700000D02*
X204800000Y-51300000D01*
X207400000Y-48275000D02*
X207400000Y-48700000D01*
X242849999Y-53550001D02*
X242849999Y-39849999D01*
X242000000Y-54400000D02*
X242849999Y-53550001D01*
X242849999Y-39849999D02*
X241400000Y-38400000D01*
X241400000Y-38400000D02*
X220000000Y-38400000D01*
X237423372Y-58023372D02*
X236800000Y-57400000D01*
X237515001Y-58115001D02*
X237423372Y-58023372D01*
X240024001Y-58115001D02*
X237515001Y-58115001D01*
X240824999Y-55575001D02*
X240824999Y-57314003D01*
X242000000Y-54400000D02*
X240824999Y-55575001D01*
X220000000Y-40400000D02*
X212449999Y-47950001D01*
X220000000Y-38400000D02*
X220000000Y-40400000D01*
X240600000Y-57539002D02*
X240024001Y-58115001D01*
X240600000Y-57539002D02*
X240600000Y-58880998D01*
X240824999Y-57314003D02*
X240600000Y-57539002D01*
X240635001Y-60235001D02*
X243000000Y-62600000D01*
X240635001Y-58915999D02*
X240635001Y-60235001D01*
X240600000Y-58880998D02*
X240635001Y-58915999D01*
X243000000Y-66000000D02*
X240600000Y-68400000D01*
X243000000Y-62600000D02*
X243000000Y-66000000D01*
X239849999Y-69150001D02*
X240600000Y-68400000D01*
X239849999Y-70800000D02*
X239849999Y-69150001D01*
X211400000Y-49000000D02*
X214550000Y-49000000D01*
X226000000Y-71540000D02*
X226000000Y-69400000D01*
X226000000Y-69400000D02*
X226600000Y-68800000D01*
G04 #@! TO.N,Net-(C3-Pad1)*
X230550000Y-61800000D02*
X230550000Y-63800000D01*
X230550000Y-63800000D02*
X230550000Y-64350000D01*
X230550000Y-64350000D02*
X231600000Y-65400000D01*
X231600000Y-65400000D02*
X231600000Y-66975000D01*
G04 #@! TO.N,/S1*
X233200000Y-63200000D02*
X232600000Y-63800000D01*
X240600000Y-63200000D02*
X233200000Y-63200000D01*
X232600000Y-63800000D02*
X232600000Y-61800000D01*
G04 #@! TO.N,/BATT*
X204749200Y-46450000D02*
X206462500Y-46450000D01*
X204749200Y-46450000D02*
X204749200Y-46749200D01*
X205550000Y-47550000D02*
X206462500Y-47550000D01*
X204749200Y-46749200D02*
X205550000Y-47550000D01*
X203400000Y-45100800D02*
X203299200Y-45000000D01*
X203400000Y-46750000D02*
X203400000Y-45100800D01*
X200549200Y-42250000D02*
X203299200Y-45000000D01*
X203299200Y-45000000D02*
X204749200Y-46450000D01*
X199424201Y-43374999D02*
X199424201Y-43375799D01*
X200549200Y-42250000D02*
X199424201Y-43374999D01*
X199424201Y-43375799D02*
X196600000Y-46200000D01*
X196600000Y-46200000D02*
X196600000Y-60000000D01*
X198000000Y-61400000D02*
X200000000Y-61400000D01*
X196600000Y-60000000D02*
X198000000Y-61400000D01*
G04 #@! TO.N,Net-(C6-Pad1)*
X237792398Y-74600000D02*
X237000000Y-74600000D01*
X238899998Y-73492400D02*
X237792398Y-74600000D01*
X238899998Y-73035200D02*
X238899998Y-73492400D01*
G04 #@! TO.N,Net-(C6-Pad2)*
X237623372Y-71926628D02*
X237000000Y-72550000D01*
X240800000Y-71451001D02*
X240324373Y-71926628D01*
X240324373Y-71926628D02*
X237623372Y-71926628D01*
X240800000Y-70800000D02*
X240800000Y-71451001D01*
G04 #@! TO.N,Net-(C7-Pad1)*
X216600000Y-49000000D02*
X216600000Y-46800000D01*
X216600000Y-49000000D02*
X218350000Y-49000000D01*
X218350000Y-49000000D02*
X218350000Y-51000000D01*
X218350000Y-51000000D02*
X218350000Y-51850000D01*
X218350000Y-51850000D02*
X217600000Y-52600000D01*
G04 #@! TO.N,Net-(C10-Pad2)*
X220400000Y-51000000D02*
X222400000Y-51000000D01*
X222400000Y-51000000D02*
X222400000Y-53000000D01*
X218000000Y-62600000D02*
X219400000Y-64000000D01*
X218000000Y-53800000D02*
X218000000Y-62600000D01*
X222400000Y-53000000D02*
X218800000Y-53000000D01*
X218800000Y-53000000D02*
X218000000Y-53800000D01*
G04 #@! TO.N,/RXD*
X203200000Y-55660000D02*
X203200000Y-55000000D01*
X203200000Y-55890000D02*
X203200000Y-55660000D01*
X200000000Y-58860000D02*
X200230000Y-58860000D01*
X200230000Y-58860000D02*
X203200000Y-55890000D01*
G04 #@! TO.N,/PDI-DATA*
X237400000Y-54400000D02*
X239460000Y-54400000D01*
X216600000Y-67000000D02*
X226000000Y-67000000D01*
X226000000Y-67000000D02*
X226800000Y-66200000D01*
X226800000Y-66200000D02*
X226800000Y-62000000D01*
X215600000Y-68000000D02*
X216600000Y-67000000D01*
X226800000Y-62000000D02*
X230600000Y-58200000D01*
X230600000Y-58200000D02*
X233600000Y-58200000D01*
X233600000Y-58200000D02*
X237400000Y-54400000D01*
G04 #@! TO.N,/PDI-CLK*
X239430000Y-59450000D02*
X239460000Y-59480000D01*
X236800000Y-59450000D02*
X239430000Y-59450000D01*
X236800000Y-59450000D02*
X236176628Y-58826628D01*
X227400000Y-62400000D02*
X227400000Y-66400000D01*
X227400000Y-66400000D02*
X225800000Y-68000000D01*
X225800000Y-68000000D02*
X216800000Y-68000000D01*
X230973372Y-58826628D02*
X227400000Y-62400000D01*
X236176628Y-58826628D02*
X230973372Y-58826628D01*
G04 #@! TO.N,Net-(R3-Pad1)*
X231600000Y-71750000D02*
X231600000Y-70400000D01*
X231600000Y-69025000D02*
X231600000Y-70400000D01*
G04 #@! TO.N,Net-(U4-Pad1)*
X208037500Y-45725000D02*
X207400000Y-45725000D01*
X208337500Y-46025000D02*
X208037500Y-45725000D01*
X208337500Y-46450000D02*
X208337500Y-46025000D01*
G04 #@! TD*
D24*
G04 #@! TO.N,GND*
G36*
X243490000Y-39439865D02*
X243397928Y-39302070D01*
X243334472Y-39259670D01*
X241990331Y-37915530D01*
X241947929Y-37852071D01*
X241696537Y-37684096D01*
X241474852Y-37640000D01*
X241474847Y-37640000D01*
X241400000Y-37625112D01*
X241325153Y-37640000D01*
X220074852Y-37640000D01*
X220000000Y-37625111D01*
X219925148Y-37640000D01*
X219703463Y-37684096D01*
X219452071Y-37852071D01*
X219284096Y-38103463D01*
X219225111Y-38400000D01*
X219240000Y-38474852D01*
X219240001Y-40085197D01*
X212735000Y-46590199D01*
X212735000Y-46248691D01*
X212638327Y-46015302D01*
X212459699Y-45836673D01*
X212226310Y-45740000D01*
X211685750Y-45740000D01*
X211527000Y-45898750D01*
X211527000Y-46823000D01*
X211547000Y-46823000D01*
X211547000Y-47077000D01*
X211527000Y-47077000D01*
X211527000Y-47097000D01*
X211273000Y-47097000D01*
X211273000Y-47077000D01*
X211253000Y-47077000D01*
X211253000Y-46823000D01*
X211273000Y-46823000D01*
X211273000Y-45898750D01*
X211114250Y-45740000D01*
X210573690Y-45740000D01*
X210340301Y-45836673D01*
X210161673Y-46015302D01*
X210065000Y-46248691D01*
X210065000Y-46664250D01*
X210223748Y-46822998D01*
X210190744Y-46822998D01*
X210024852Y-46790000D01*
X210024847Y-46790000D01*
X209950000Y-46775112D01*
X209875153Y-46790000D01*
X209139620Y-46790000D01*
X209143560Y-46770190D01*
X209160000Y-46753750D01*
X209160000Y-46698690D01*
X209158502Y-46695073D01*
X209172440Y-46625000D01*
X209172440Y-46275000D01*
X209123157Y-46027235D01*
X209108457Y-46005234D01*
X209097500Y-45950152D01*
X209097500Y-45950149D01*
X209092482Y-45924924D01*
X209097440Y-45900000D01*
X209097440Y-45550000D01*
X209048157Y-45302235D01*
X208907809Y-45092191D01*
X208697765Y-44951843D01*
X208450000Y-44902560D01*
X207612358Y-44902560D01*
X208402185Y-44575403D01*
X209173803Y-43803785D01*
X209591400Y-42795617D01*
X209591400Y-41704383D01*
X209173803Y-40696215D01*
X208402185Y-39924597D01*
X207394017Y-39507000D01*
X206302783Y-39507000D01*
X205294615Y-39924597D01*
X204522997Y-40696215D01*
X204105400Y-41704383D01*
X204105400Y-42795617D01*
X204522997Y-43803785D01*
X205294615Y-44575403D01*
X206170594Y-44938246D01*
X206102235Y-44951843D01*
X205892191Y-45092191D01*
X205751843Y-45302235D01*
X205702560Y-45550000D01*
X205702560Y-45690000D01*
X205064002Y-45690000D01*
X203990331Y-44616330D01*
X203947929Y-44552871D01*
X203884476Y-44510473D01*
X202211048Y-42837046D01*
X202309200Y-42600086D01*
X202309200Y-41899914D01*
X202041256Y-41253040D01*
X201546160Y-40757944D01*
X200899286Y-40490000D01*
X200199114Y-40490000D01*
X199552240Y-40757944D01*
X199057144Y-41253040D01*
X198789200Y-41899914D01*
X198789200Y-42600086D01*
X198881714Y-42823434D01*
X198876272Y-42827070D01*
X198832263Y-42892934D01*
X196115530Y-45609669D01*
X196052071Y-45652071D01*
X195884096Y-45903464D01*
X195840000Y-46125149D01*
X195840000Y-46125153D01*
X195825112Y-46200000D01*
X195840000Y-46274847D01*
X195840001Y-59925148D01*
X195825112Y-60000000D01*
X195884097Y-60296537D01*
X195929843Y-60365000D01*
X196052072Y-60547929D01*
X196115528Y-60590329D01*
X197409671Y-61884473D01*
X197452071Y-61947929D01*
X197703463Y-62115904D01*
X197925148Y-62160000D01*
X197925153Y-62160000D01*
X198000000Y-62174888D01*
X198074847Y-62160000D01*
X198467769Y-62160000D01*
X198684956Y-62485044D01*
X198972477Y-62677160D01*
X198609467Y-62969509D01*
X198326416Y-63487500D01*
X198308698Y-63579969D01*
X198429754Y-63813000D01*
X199873000Y-63813000D01*
X199873000Y-63793000D01*
X200127000Y-63793000D01*
X200127000Y-63813000D01*
X201570246Y-63813000D01*
X201691302Y-63579969D01*
X201673584Y-63487500D01*
X201390533Y-62969509D01*
X201027523Y-62677160D01*
X201315044Y-62485044D01*
X201647678Y-61987222D01*
X201764484Y-61400000D01*
X201647678Y-60812778D01*
X201315044Y-60314956D01*
X201038238Y-60130000D01*
X201315044Y-59945044D01*
X201647678Y-59447222D01*
X201764484Y-58860000D01*
X201688218Y-58476584D01*
X203684473Y-56480329D01*
X203747929Y-56437929D01*
X203915904Y-56186537D01*
X203960000Y-55964852D01*
X203960000Y-55964848D01*
X203974888Y-55890001D01*
X203960000Y-55815154D01*
X203960000Y-55703711D01*
X204040001Y-55623710D01*
X204040001Y-58475148D01*
X204025112Y-58550000D01*
X204084097Y-58846537D01*
X204169859Y-58974888D01*
X204252072Y-59097929D01*
X204315528Y-59140329D01*
X206259671Y-61084473D01*
X206302071Y-61147929D01*
X206365527Y-61190329D01*
X206553462Y-61315904D01*
X206601605Y-61325480D01*
X206651309Y-61335367D01*
X206884956Y-61685044D01*
X207161762Y-61870000D01*
X206884956Y-62054956D01*
X206552322Y-62552778D01*
X206435516Y-63140000D01*
X206552322Y-63727222D01*
X206884956Y-64225044D01*
X206950122Y-64268587D01*
X206715414Y-64425414D01*
X206520873Y-64716564D01*
X206452560Y-65059999D01*
X206452560Y-66300001D01*
X206520873Y-66643436D01*
X206715414Y-66934586D01*
X207006564Y-67129127D01*
X207349999Y-67197440D01*
X209050001Y-67197440D01*
X209393436Y-67129127D01*
X209684586Y-66934586D01*
X209879127Y-66643436D01*
X209947440Y-66300001D01*
X209947440Y-65059999D01*
X209879127Y-64716564D01*
X209684586Y-64425414D01*
X209449878Y-64268587D01*
X209515044Y-64225044D01*
X209847678Y-63727222D01*
X209964484Y-63140000D01*
X209847678Y-62552778D01*
X209515044Y-62054956D01*
X209238238Y-61870000D01*
X209515044Y-61685044D01*
X209847678Y-61187222D01*
X209964484Y-60600000D01*
X209847678Y-60012778D01*
X209515044Y-59514956D01*
X209227523Y-59322840D01*
X209590533Y-59030491D01*
X209873584Y-58512500D01*
X209891302Y-58420031D01*
X209770246Y-58187000D01*
X208327000Y-58187000D01*
X208327000Y-58207000D01*
X208073000Y-58207000D01*
X208073000Y-58187000D01*
X206629754Y-58187000D01*
X206508698Y-58420031D01*
X206526416Y-58512500D01*
X206809467Y-59030491D01*
X207172477Y-59322840D01*
X206884956Y-59514956D01*
X206866852Y-59542050D01*
X205560000Y-58235199D01*
X205560000Y-57699969D01*
X206508698Y-57699969D01*
X206629754Y-57933000D01*
X208073000Y-57933000D01*
X208073000Y-56709418D01*
X208327000Y-56709418D01*
X208327000Y-57933000D01*
X209770246Y-57933000D01*
X209891302Y-57699969D01*
X209873584Y-57607500D01*
X209590533Y-57089509D01*
X209130802Y-56719266D01*
X208564380Y-56553138D01*
X208327000Y-56709418D01*
X208073000Y-56709418D01*
X207835620Y-56553138D01*
X207269198Y-56719266D01*
X206809467Y-57089509D01*
X206526416Y-57607500D01*
X206508698Y-57699969D01*
X205560000Y-57699969D01*
X205560000Y-51614801D01*
X207449701Y-49725101D01*
X207625148Y-49760000D01*
X207625152Y-49760000D01*
X207699999Y-49774888D01*
X207774846Y-49760000D01*
X210182054Y-49760000D01*
X210315414Y-49959586D01*
X210606564Y-50154127D01*
X210949999Y-50222440D01*
X211850001Y-50222440D01*
X212193436Y-50154127D01*
X212484586Y-49959586D01*
X212617946Y-49760000D01*
X213389222Y-49760000D01*
X213395873Y-49793436D01*
X213590414Y-50084586D01*
X213881564Y-50279127D01*
X214224999Y-50347440D01*
X214875001Y-50347440D01*
X215218436Y-50279127D01*
X215509586Y-50084586D01*
X215575000Y-49986687D01*
X215640414Y-50084586D01*
X215931564Y-50279127D01*
X216274999Y-50347440D01*
X216925001Y-50347440D01*
X217177856Y-50297144D01*
X217127560Y-50549999D01*
X217127560Y-51450001D01*
X217168984Y-51658257D01*
X217013720Y-51722569D01*
X216722569Y-52013720D01*
X216565000Y-52394126D01*
X216565000Y-52805874D01*
X216722569Y-53186280D01*
X217013720Y-53477431D01*
X217268299Y-53582881D01*
X217240000Y-53725149D01*
X217240000Y-53725153D01*
X217225112Y-53800000D01*
X217240000Y-53874847D01*
X217240001Y-62525148D01*
X217225112Y-62600000D01*
X217284097Y-62896537D01*
X217370008Y-63025111D01*
X217452072Y-63147929D01*
X217515528Y-63190329D01*
X218365000Y-64039802D01*
X218365000Y-64205874D01*
X218522569Y-64586280D01*
X218813720Y-64877431D01*
X219194126Y-65035000D01*
X219605874Y-65035000D01*
X219986280Y-64877431D01*
X220277431Y-64586280D01*
X220435000Y-64205874D01*
X220435000Y-63794126D01*
X220277431Y-63413720D01*
X219986280Y-63122569D01*
X219605874Y-62965000D01*
X219439802Y-62965000D01*
X218760000Y-62285199D01*
X218760000Y-54114801D01*
X219114802Y-53760000D01*
X221239222Y-53760000D01*
X221245873Y-53793436D01*
X221440414Y-54084586D01*
X221731564Y-54279127D01*
X222074999Y-54347440D01*
X222725001Y-54347440D01*
X223068436Y-54279127D01*
X223359586Y-54084586D01*
X223360377Y-54083403D01*
X223515302Y-54238327D01*
X223748691Y-54335000D01*
X224164250Y-54335000D01*
X224323000Y-54176250D01*
X224323000Y-53127000D01*
X224577000Y-53127000D01*
X224577000Y-54176250D01*
X224735750Y-54335000D01*
X225151309Y-54335000D01*
X225384698Y-54238327D01*
X225563327Y-54059699D01*
X225660000Y-53826310D01*
X225660000Y-53285750D01*
X225501250Y-53127000D01*
X224577000Y-53127000D01*
X224323000Y-53127000D01*
X224303000Y-53127000D01*
X224303000Y-52873000D01*
X224323000Y-52873000D01*
X224323000Y-51127000D01*
X224577000Y-51127000D01*
X224577000Y-52873000D01*
X225501250Y-52873000D01*
X225660000Y-52714250D01*
X225660000Y-52173690D01*
X225588055Y-52000000D01*
X225660000Y-51826310D01*
X225660000Y-51285750D01*
X225501250Y-51127000D01*
X224577000Y-51127000D01*
X224323000Y-51127000D01*
X224303000Y-51127000D01*
X224303000Y-50873000D01*
X224323000Y-50873000D01*
X224323000Y-49823750D01*
X224577000Y-49823750D01*
X224577000Y-50873000D01*
X225501250Y-50873000D01*
X225660000Y-50714250D01*
X225660000Y-50173690D01*
X225563327Y-49940301D01*
X225384698Y-49761673D01*
X225151309Y-49665000D01*
X224735750Y-49665000D01*
X224577000Y-49823750D01*
X224323000Y-49823750D01*
X224164250Y-49665000D01*
X223748691Y-49665000D01*
X223515302Y-49761673D01*
X223360377Y-49916597D01*
X223359586Y-49915414D01*
X223068436Y-49720873D01*
X222725001Y-49652560D01*
X222074999Y-49652560D01*
X221731564Y-49720873D01*
X221610000Y-49802100D01*
X221610000Y-49285750D01*
X221451250Y-49127000D01*
X220527000Y-49127000D01*
X220527000Y-49147000D01*
X220273000Y-49147000D01*
X220273000Y-49127000D01*
X220253000Y-49127000D01*
X220253000Y-48873000D01*
X220273000Y-48873000D01*
X220273000Y-47823750D01*
X220527000Y-47823750D01*
X220527000Y-48873000D01*
X221451250Y-48873000D01*
X221610000Y-48714250D01*
X221610000Y-48173690D01*
X221513327Y-47940301D01*
X221334698Y-47761673D01*
X221101309Y-47665000D01*
X220685750Y-47665000D01*
X220527000Y-47823750D01*
X220273000Y-47823750D01*
X220114250Y-47665000D01*
X219843974Y-47665000D01*
X219860000Y-47626310D01*
X219860000Y-47085750D01*
X219701250Y-46927000D01*
X218777000Y-46927000D01*
X218777000Y-46947000D01*
X218523000Y-46947000D01*
X218523000Y-46927000D01*
X218503000Y-46927000D01*
X218503000Y-46673000D01*
X218523000Y-46673000D01*
X218523000Y-45623750D01*
X218777000Y-45623750D01*
X218777000Y-46673000D01*
X219701250Y-46673000D01*
X219860000Y-46514250D01*
X219860000Y-45973690D01*
X219763327Y-45740301D01*
X219584698Y-45561673D01*
X219351309Y-45465000D01*
X218935750Y-45465000D01*
X218777000Y-45623750D01*
X218523000Y-45623750D01*
X218364250Y-45465000D01*
X217948691Y-45465000D01*
X217715302Y-45561673D01*
X217560377Y-45716597D01*
X217559586Y-45715414D01*
X217268436Y-45520873D01*
X216925001Y-45452560D01*
X216274999Y-45452560D01*
X215959481Y-45515320D01*
X219770418Y-41704383D01*
X229607000Y-41704383D01*
X229607000Y-42795617D01*
X230024597Y-43803785D01*
X230796215Y-44575403D01*
X231804383Y-44993000D01*
X232895617Y-44993000D01*
X233903785Y-44575403D01*
X234675403Y-43803785D01*
X234804156Y-43492947D01*
X237585858Y-43492947D01*
X237699821Y-43772773D01*
X238354829Y-44020170D01*
X239054651Y-43998075D01*
X239598579Y-43772773D01*
X239712542Y-43492947D01*
X238649200Y-42429605D01*
X237585858Y-43492947D01*
X234804156Y-43492947D01*
X235093000Y-42795617D01*
X235093000Y-41955629D01*
X236879030Y-41955629D01*
X236901125Y-42655451D01*
X237126427Y-43199379D01*
X237406253Y-43313342D01*
X238469595Y-42250000D01*
X238828805Y-42250000D01*
X239892147Y-43313342D01*
X240171973Y-43199379D01*
X240419370Y-42544371D01*
X240397275Y-41844549D01*
X240171973Y-41300621D01*
X239892147Y-41186658D01*
X238828805Y-42250000D01*
X238469595Y-42250000D01*
X237406253Y-41186658D01*
X237126427Y-41300621D01*
X236879030Y-41955629D01*
X235093000Y-41955629D01*
X235093000Y-41704383D01*
X234804157Y-41007053D01*
X237585858Y-41007053D01*
X238649200Y-42070395D01*
X239712542Y-41007053D01*
X239598579Y-40727227D01*
X238943571Y-40479830D01*
X238243749Y-40501925D01*
X237699821Y-40727227D01*
X237585858Y-41007053D01*
X234804157Y-41007053D01*
X234675403Y-40696215D01*
X233903785Y-39924597D01*
X232895617Y-39507000D01*
X231804383Y-39507000D01*
X230796215Y-39924597D01*
X230024597Y-40696215D01*
X229607000Y-41704383D01*
X219770418Y-41704383D01*
X220484473Y-40990329D01*
X220547929Y-40947929D01*
X220590924Y-40883582D01*
X220715904Y-40696538D01*
X220741889Y-40565902D01*
X220760000Y-40474852D01*
X220760000Y-40474848D01*
X220774888Y-40400000D01*
X220760000Y-40325152D01*
X220760000Y-39160000D01*
X241085199Y-39160000D01*
X242090000Y-40164802D01*
X242089999Y-52915000D01*
X241853744Y-52915000D01*
X241420582Y-53001161D01*
X240929375Y-53329375D01*
X240917184Y-53347619D01*
X240908157Y-53302235D01*
X240767809Y-53092191D01*
X240557765Y-52951843D01*
X240310000Y-52902560D01*
X238610000Y-52902560D01*
X238362235Y-52951843D01*
X238152191Y-53092191D01*
X238011843Y-53302235D01*
X237962560Y-53550000D01*
X237962560Y-53640000D01*
X237474848Y-53640000D01*
X237400000Y-53625112D01*
X237325152Y-53640000D01*
X237325148Y-53640000D01*
X237103463Y-53684096D01*
X236852071Y-53852071D01*
X236809671Y-53915527D01*
X233285199Y-57440000D01*
X230674848Y-57440000D01*
X230600000Y-57425112D01*
X230525152Y-57440000D01*
X230525148Y-57440000D01*
X230303463Y-57484096D01*
X230052071Y-57652071D01*
X230009671Y-57715527D01*
X226315528Y-61409671D01*
X226252072Y-61452071D01*
X226209672Y-61515527D01*
X226209671Y-61515528D01*
X226084097Y-61703463D01*
X226025112Y-62000000D01*
X226040001Y-62074852D01*
X226040000Y-65885198D01*
X225685199Y-66240000D01*
X216674848Y-66240000D01*
X216600000Y-66225112D01*
X216525152Y-66240000D01*
X216525148Y-66240000D01*
X216303463Y-66284096D01*
X216052071Y-66452071D01*
X216009671Y-66515527D01*
X215560199Y-66965000D01*
X215394126Y-66965000D01*
X215013720Y-67122569D01*
X214722569Y-67413720D01*
X214565000Y-67794126D01*
X214565000Y-68205874D01*
X214722569Y-68586280D01*
X215013720Y-68877431D01*
X215394126Y-69035000D01*
X215805874Y-69035000D01*
X216186280Y-68877431D01*
X216200000Y-68863711D01*
X216213720Y-68877431D01*
X216594126Y-69035000D01*
X217005874Y-69035000D01*
X217386280Y-68877431D01*
X217503711Y-68760000D01*
X225565000Y-68760000D01*
X225565000Y-68760199D01*
X225515528Y-68809671D01*
X225452072Y-68852071D01*
X225409672Y-68915527D01*
X225409671Y-68915528D01*
X225284097Y-69103463D01*
X225225112Y-69400000D01*
X225240001Y-69474852D01*
X225240000Y-70836289D01*
X225122569Y-70953720D01*
X224965000Y-71334126D01*
X224965000Y-71745874D01*
X225122569Y-72126280D01*
X225413720Y-72417431D01*
X225794126Y-72575000D01*
X226205874Y-72575000D01*
X226586280Y-72417431D01*
X226877431Y-72126280D01*
X227035000Y-71745874D01*
X227035000Y-71334126D01*
X226877431Y-70953720D01*
X226760000Y-70836289D01*
X226760000Y-69835000D01*
X226805874Y-69835000D01*
X227186280Y-69677431D01*
X227477431Y-69386280D01*
X227635000Y-69005874D01*
X227635000Y-68594126D01*
X227477431Y-68213720D01*
X227186280Y-67922569D01*
X227020783Y-67854018D01*
X227884473Y-66990329D01*
X227947929Y-66947929D01*
X228081565Y-66747929D01*
X228115904Y-66696538D01*
X228145464Y-66547929D01*
X228160000Y-66474852D01*
X228160000Y-66474848D01*
X228174888Y-66400000D01*
X228160000Y-66325152D01*
X228160000Y-62714801D01*
X229327560Y-61547241D01*
X229327560Y-62250001D01*
X229395873Y-62593436D01*
X229533895Y-62800000D01*
X229395873Y-63006564D01*
X229327560Y-63349999D01*
X229327560Y-64250001D01*
X229395873Y-64593436D01*
X229590414Y-64884586D01*
X229881564Y-65079127D01*
X230224999Y-65147440D01*
X230272639Y-65147440D01*
X230565000Y-65439802D01*
X230565000Y-65605874D01*
X230687115Y-65900687D01*
X230515414Y-66015414D01*
X230320873Y-66306564D01*
X230252560Y-66649999D01*
X230252560Y-67300001D01*
X230320873Y-67643436D01*
X230515414Y-67934586D01*
X230613313Y-68000000D01*
X230515414Y-68065414D01*
X230320873Y-68356564D01*
X230252560Y-68699999D01*
X230252560Y-69350001D01*
X230320873Y-69693436D01*
X230515414Y-69984586D01*
X230622231Y-70055959D01*
X230565000Y-70194126D01*
X230565000Y-70605874D01*
X230614120Y-70724460D01*
X230515414Y-70790414D01*
X230320873Y-71081564D01*
X230252560Y-71424999D01*
X230252560Y-72075001D01*
X230320873Y-72418436D01*
X230515414Y-72709586D01*
X230613313Y-72775000D01*
X230515414Y-72840414D01*
X230320873Y-73131564D01*
X230252560Y-73474999D01*
X230252560Y-74125001D01*
X230320873Y-74468436D01*
X230515414Y-74759586D01*
X230806564Y-74954127D01*
X231149999Y-75022440D01*
X232050001Y-75022440D01*
X232393436Y-74954127D01*
X232684586Y-74759586D01*
X232817946Y-74560000D01*
X234000153Y-74560000D01*
X234075000Y-74574888D01*
X234149847Y-74560000D01*
X234149852Y-74560000D01*
X234371537Y-74515904D01*
X234622929Y-74347929D01*
X234665331Y-74284470D01*
X235725076Y-73224726D01*
X235915414Y-73509586D01*
X236013313Y-73575000D01*
X235915414Y-73640414D01*
X235720873Y-73931564D01*
X235652560Y-74274999D01*
X235652560Y-74925001D01*
X235720873Y-75268436D01*
X235915414Y-75559586D01*
X236206564Y-75754127D01*
X236549999Y-75822440D01*
X237450001Y-75822440D01*
X237793436Y-75754127D01*
X238084586Y-75559586D01*
X238279127Y-75268436D01*
X238297391Y-75176618D01*
X238340327Y-75147929D01*
X238382729Y-75084470D01*
X239047960Y-74419240D01*
X239179398Y-74419240D01*
X239427163Y-74369957D01*
X239637207Y-74229609D01*
X239777555Y-74019565D01*
X239826838Y-73771800D01*
X239826838Y-73320950D01*
X239885600Y-73320950D01*
X239885600Y-73898109D01*
X239982273Y-74131498D01*
X240160901Y-74310127D01*
X240394290Y-74406800D01*
X240514250Y-74406800D01*
X240673000Y-74248050D01*
X240673000Y-73162200D01*
X240927000Y-73162200D01*
X240927000Y-74248050D01*
X241085750Y-74406800D01*
X241205710Y-74406800D01*
X241439099Y-74310127D01*
X241617727Y-74131498D01*
X241714400Y-73898109D01*
X241714400Y-73320950D01*
X241555650Y-73162200D01*
X240927000Y-73162200D01*
X240673000Y-73162200D01*
X240044350Y-73162200D01*
X239885600Y-73320950D01*
X239826838Y-73320950D01*
X239826838Y-72686628D01*
X239885600Y-72686628D01*
X239885600Y-72749450D01*
X240044350Y-72908200D01*
X240673000Y-72908200D01*
X240673000Y-72888200D01*
X240927000Y-72888200D01*
X240927000Y-72908200D01*
X241555650Y-72908200D01*
X241714400Y-72749450D01*
X241714400Y-72172291D01*
X241617727Y-71938902D01*
X241591693Y-71912868D01*
X241677557Y-71784365D01*
X241726840Y-71536600D01*
X241726840Y-70063400D01*
X241677557Y-69815635D01*
X241537209Y-69605591D01*
X241457850Y-69552564D01*
X241559586Y-69484586D01*
X241754127Y-69193436D01*
X241822440Y-68850001D01*
X241822440Y-68252361D01*
X243484473Y-66590329D01*
X243490001Y-66586636D01*
X243490001Y-80873071D01*
X243369664Y-80582552D01*
X242417448Y-79630336D01*
X241173318Y-79115000D01*
X239826682Y-79115000D01*
X238582552Y-79630336D01*
X237630336Y-80582552D01*
X237115000Y-81826682D01*
X237115000Y-83173318D01*
X237630336Y-84417448D01*
X238582552Y-85369664D01*
X239826682Y-85885000D01*
X241173318Y-85885000D01*
X242417448Y-85369664D01*
X243369664Y-84417448D01*
X243490001Y-84126929D01*
X243490001Y-86301925D01*
X243465000Y-86427613D01*
X243465001Y-89290000D01*
X195735000Y-89290000D01*
X195735000Y-86427612D01*
X195710000Y-86301929D01*
X195710000Y-83402668D01*
X196130336Y-84417448D01*
X197082552Y-85369664D01*
X198326682Y-85885000D01*
X199673318Y-85885000D01*
X200917448Y-85369664D01*
X201869664Y-84417448D01*
X202385000Y-83173318D01*
X202385000Y-81826682D01*
X216615000Y-81826682D01*
X216615000Y-83173318D01*
X217130336Y-84417448D01*
X218082552Y-85369664D01*
X219326682Y-85885000D01*
X220673318Y-85885000D01*
X221917448Y-85369664D01*
X222869664Y-84417448D01*
X223385000Y-83173318D01*
X223385000Y-81826682D01*
X222869664Y-80582552D01*
X221917448Y-79630336D01*
X220673318Y-79115000D01*
X219326682Y-79115000D01*
X218082552Y-79630336D01*
X217130336Y-80582552D01*
X216615000Y-81826682D01*
X202385000Y-81826682D01*
X201869664Y-80582552D01*
X200917448Y-79630336D01*
X199673318Y-79115000D01*
X198326682Y-79115000D01*
X197082552Y-79630336D01*
X196130336Y-80582552D01*
X195710000Y-81597332D01*
X195710000Y-66480000D01*
X198235516Y-66480000D01*
X198352322Y-67067222D01*
X198684956Y-67565044D01*
X199182778Y-67897678D01*
X199621774Y-67985000D01*
X200378226Y-67985000D01*
X200817222Y-67897678D01*
X201315044Y-67565044D01*
X201647678Y-67067222D01*
X201764484Y-66480000D01*
X201647678Y-65892778D01*
X201315044Y-65394956D01*
X201027523Y-65202840D01*
X201390533Y-64910491D01*
X201673584Y-64392500D01*
X201691302Y-64300031D01*
X201570246Y-64067000D01*
X200127000Y-64067000D01*
X200127000Y-64087000D01*
X199873000Y-64087000D01*
X199873000Y-64067000D01*
X198429754Y-64067000D01*
X198308698Y-64300031D01*
X198326416Y-64392500D01*
X198609467Y-64910491D01*
X198972477Y-65202840D01*
X198684956Y-65394956D01*
X198352322Y-65892778D01*
X198235516Y-66480000D01*
X195710000Y-66480000D01*
X195710000Y-33710000D01*
X243490000Y-33710000D01*
X243490000Y-39439865D01*
X243490000Y-39439865D01*
G37*
X243490000Y-39439865D02*
X243397928Y-39302070D01*
X243334472Y-39259670D01*
X241990331Y-37915530D01*
X241947929Y-37852071D01*
X241696537Y-37684096D01*
X241474852Y-37640000D01*
X241474847Y-37640000D01*
X241400000Y-37625112D01*
X241325153Y-37640000D01*
X220074852Y-37640000D01*
X220000000Y-37625111D01*
X219925148Y-37640000D01*
X219703463Y-37684096D01*
X219452071Y-37852071D01*
X219284096Y-38103463D01*
X219225111Y-38400000D01*
X219240000Y-38474852D01*
X219240001Y-40085197D01*
X212735000Y-46590199D01*
X212735000Y-46248691D01*
X212638327Y-46015302D01*
X212459699Y-45836673D01*
X212226310Y-45740000D01*
X211685750Y-45740000D01*
X211527000Y-45898750D01*
X211527000Y-46823000D01*
X211547000Y-46823000D01*
X211547000Y-47077000D01*
X211527000Y-47077000D01*
X211527000Y-47097000D01*
X211273000Y-47097000D01*
X211273000Y-47077000D01*
X211253000Y-47077000D01*
X211253000Y-46823000D01*
X211273000Y-46823000D01*
X211273000Y-45898750D01*
X211114250Y-45740000D01*
X210573690Y-45740000D01*
X210340301Y-45836673D01*
X210161673Y-46015302D01*
X210065000Y-46248691D01*
X210065000Y-46664250D01*
X210223748Y-46822998D01*
X210190744Y-46822998D01*
X210024852Y-46790000D01*
X210024847Y-46790000D01*
X209950000Y-46775112D01*
X209875153Y-46790000D01*
X209139620Y-46790000D01*
X209143560Y-46770190D01*
X209160000Y-46753750D01*
X209160000Y-46698690D01*
X209158502Y-46695073D01*
X209172440Y-46625000D01*
X209172440Y-46275000D01*
X209123157Y-46027235D01*
X209108457Y-46005234D01*
X209097500Y-45950152D01*
X209097500Y-45950149D01*
X209092482Y-45924924D01*
X209097440Y-45900000D01*
X209097440Y-45550000D01*
X209048157Y-45302235D01*
X208907809Y-45092191D01*
X208697765Y-44951843D01*
X208450000Y-44902560D01*
X207612358Y-44902560D01*
X208402185Y-44575403D01*
X209173803Y-43803785D01*
X209591400Y-42795617D01*
X209591400Y-41704383D01*
X209173803Y-40696215D01*
X208402185Y-39924597D01*
X207394017Y-39507000D01*
X206302783Y-39507000D01*
X205294615Y-39924597D01*
X204522997Y-40696215D01*
X204105400Y-41704383D01*
X204105400Y-42795617D01*
X204522997Y-43803785D01*
X205294615Y-44575403D01*
X206170594Y-44938246D01*
X206102235Y-44951843D01*
X205892191Y-45092191D01*
X205751843Y-45302235D01*
X205702560Y-45550000D01*
X205702560Y-45690000D01*
X205064002Y-45690000D01*
X203990331Y-44616330D01*
X203947929Y-44552871D01*
X203884476Y-44510473D01*
X202211048Y-42837046D01*
X202309200Y-42600086D01*
X202309200Y-41899914D01*
X202041256Y-41253040D01*
X201546160Y-40757944D01*
X200899286Y-40490000D01*
X200199114Y-40490000D01*
X199552240Y-40757944D01*
X199057144Y-41253040D01*
X198789200Y-41899914D01*
X198789200Y-42600086D01*
X198881714Y-42823434D01*
X198876272Y-42827070D01*
X198832263Y-42892934D01*
X196115530Y-45609669D01*
X196052071Y-45652071D01*
X195884096Y-45903464D01*
X195840000Y-46125149D01*
X195840000Y-46125153D01*
X195825112Y-46200000D01*
X195840000Y-46274847D01*
X195840001Y-59925148D01*
X195825112Y-60000000D01*
X195884097Y-60296537D01*
X195929843Y-60365000D01*
X196052072Y-60547929D01*
X196115528Y-60590329D01*
X197409671Y-61884473D01*
X197452071Y-61947929D01*
X197703463Y-62115904D01*
X197925148Y-62160000D01*
X197925153Y-62160000D01*
X198000000Y-62174888D01*
X198074847Y-62160000D01*
X198467769Y-62160000D01*
X198684956Y-62485044D01*
X198972477Y-62677160D01*
X198609467Y-62969509D01*
X198326416Y-63487500D01*
X198308698Y-63579969D01*
X198429754Y-63813000D01*
X199873000Y-63813000D01*
X199873000Y-63793000D01*
X200127000Y-63793000D01*
X200127000Y-63813000D01*
X201570246Y-63813000D01*
X201691302Y-63579969D01*
X201673584Y-63487500D01*
X201390533Y-62969509D01*
X201027523Y-62677160D01*
X201315044Y-62485044D01*
X201647678Y-61987222D01*
X201764484Y-61400000D01*
X201647678Y-60812778D01*
X201315044Y-60314956D01*
X201038238Y-60130000D01*
X201315044Y-59945044D01*
X201647678Y-59447222D01*
X201764484Y-58860000D01*
X201688218Y-58476584D01*
X203684473Y-56480329D01*
X203747929Y-56437929D01*
X203915904Y-56186537D01*
X203960000Y-55964852D01*
X203960000Y-55964848D01*
X203974888Y-55890001D01*
X203960000Y-55815154D01*
X203960000Y-55703711D01*
X204040001Y-55623710D01*
X204040001Y-58475148D01*
X204025112Y-58550000D01*
X204084097Y-58846537D01*
X204169859Y-58974888D01*
X204252072Y-59097929D01*
X204315528Y-59140329D01*
X206259671Y-61084473D01*
X206302071Y-61147929D01*
X206365527Y-61190329D01*
X206553462Y-61315904D01*
X206601605Y-61325480D01*
X206651309Y-61335367D01*
X206884956Y-61685044D01*
X207161762Y-61870000D01*
X206884956Y-62054956D01*
X206552322Y-62552778D01*
X206435516Y-63140000D01*
X206552322Y-63727222D01*
X206884956Y-64225044D01*
X206950122Y-64268587D01*
X206715414Y-64425414D01*
X206520873Y-64716564D01*
X206452560Y-65059999D01*
X206452560Y-66300001D01*
X206520873Y-66643436D01*
X206715414Y-66934586D01*
X207006564Y-67129127D01*
X207349999Y-67197440D01*
X209050001Y-67197440D01*
X209393436Y-67129127D01*
X209684586Y-66934586D01*
X209879127Y-66643436D01*
X209947440Y-66300001D01*
X209947440Y-65059999D01*
X209879127Y-64716564D01*
X209684586Y-64425414D01*
X209449878Y-64268587D01*
X209515044Y-64225044D01*
X209847678Y-63727222D01*
X209964484Y-63140000D01*
X209847678Y-62552778D01*
X209515044Y-62054956D01*
X209238238Y-61870000D01*
X209515044Y-61685044D01*
X209847678Y-61187222D01*
X209964484Y-60600000D01*
X209847678Y-60012778D01*
X209515044Y-59514956D01*
X209227523Y-59322840D01*
X209590533Y-59030491D01*
X209873584Y-58512500D01*
X209891302Y-58420031D01*
X209770246Y-58187000D01*
X208327000Y-58187000D01*
X208327000Y-58207000D01*
X208073000Y-58207000D01*
X208073000Y-58187000D01*
X206629754Y-58187000D01*
X206508698Y-58420031D01*
X206526416Y-58512500D01*
X206809467Y-59030491D01*
X207172477Y-59322840D01*
X206884956Y-59514956D01*
X206866852Y-59542050D01*
X205560000Y-58235199D01*
X205560000Y-57699969D01*
X206508698Y-57699969D01*
X206629754Y-57933000D01*
X208073000Y-57933000D01*
X208073000Y-56709418D01*
X208327000Y-56709418D01*
X208327000Y-57933000D01*
X209770246Y-57933000D01*
X209891302Y-57699969D01*
X209873584Y-57607500D01*
X209590533Y-57089509D01*
X209130802Y-56719266D01*
X208564380Y-56553138D01*
X208327000Y-56709418D01*
X208073000Y-56709418D01*
X207835620Y-56553138D01*
X207269198Y-56719266D01*
X206809467Y-57089509D01*
X206526416Y-57607500D01*
X206508698Y-57699969D01*
X205560000Y-57699969D01*
X205560000Y-51614801D01*
X207449701Y-49725101D01*
X207625148Y-49760000D01*
X207625152Y-49760000D01*
X207699999Y-49774888D01*
X207774846Y-49760000D01*
X210182054Y-49760000D01*
X210315414Y-49959586D01*
X210606564Y-50154127D01*
X210949999Y-50222440D01*
X211850001Y-50222440D01*
X212193436Y-50154127D01*
X212484586Y-49959586D01*
X212617946Y-49760000D01*
X213389222Y-49760000D01*
X213395873Y-49793436D01*
X213590414Y-50084586D01*
X213881564Y-50279127D01*
X214224999Y-50347440D01*
X214875001Y-50347440D01*
X215218436Y-50279127D01*
X215509586Y-50084586D01*
X215575000Y-49986687D01*
X215640414Y-50084586D01*
X215931564Y-50279127D01*
X216274999Y-50347440D01*
X216925001Y-50347440D01*
X217177856Y-50297144D01*
X217127560Y-50549999D01*
X217127560Y-51450001D01*
X217168984Y-51658257D01*
X217013720Y-51722569D01*
X216722569Y-52013720D01*
X216565000Y-52394126D01*
X216565000Y-52805874D01*
X216722569Y-53186280D01*
X217013720Y-53477431D01*
X217268299Y-53582881D01*
X217240000Y-53725149D01*
X217240000Y-53725153D01*
X217225112Y-53800000D01*
X217240000Y-53874847D01*
X217240001Y-62525148D01*
X217225112Y-62600000D01*
X217284097Y-62896537D01*
X217370008Y-63025111D01*
X217452072Y-63147929D01*
X217515528Y-63190329D01*
X218365000Y-64039802D01*
X218365000Y-64205874D01*
X218522569Y-64586280D01*
X218813720Y-64877431D01*
X219194126Y-65035000D01*
X219605874Y-65035000D01*
X219986280Y-64877431D01*
X220277431Y-64586280D01*
X220435000Y-64205874D01*
X220435000Y-63794126D01*
X220277431Y-63413720D01*
X219986280Y-63122569D01*
X219605874Y-62965000D01*
X219439802Y-62965000D01*
X218760000Y-62285199D01*
X218760000Y-54114801D01*
X219114802Y-53760000D01*
X221239222Y-53760000D01*
X221245873Y-53793436D01*
X221440414Y-54084586D01*
X221731564Y-54279127D01*
X222074999Y-54347440D01*
X222725001Y-54347440D01*
X223068436Y-54279127D01*
X223359586Y-54084586D01*
X223360377Y-54083403D01*
X223515302Y-54238327D01*
X223748691Y-54335000D01*
X224164250Y-54335000D01*
X224323000Y-54176250D01*
X224323000Y-53127000D01*
X224577000Y-53127000D01*
X224577000Y-54176250D01*
X224735750Y-54335000D01*
X225151309Y-54335000D01*
X225384698Y-54238327D01*
X225563327Y-54059699D01*
X225660000Y-53826310D01*
X225660000Y-53285750D01*
X225501250Y-53127000D01*
X224577000Y-53127000D01*
X224323000Y-53127000D01*
X224303000Y-53127000D01*
X224303000Y-52873000D01*
X224323000Y-52873000D01*
X224323000Y-51127000D01*
X224577000Y-51127000D01*
X224577000Y-52873000D01*
X225501250Y-52873000D01*
X225660000Y-52714250D01*
X225660000Y-52173690D01*
X225588055Y-52000000D01*
X225660000Y-51826310D01*
X225660000Y-51285750D01*
X225501250Y-51127000D01*
X224577000Y-51127000D01*
X224323000Y-51127000D01*
X224303000Y-51127000D01*
X224303000Y-50873000D01*
X224323000Y-50873000D01*
X224323000Y-49823750D01*
X224577000Y-49823750D01*
X224577000Y-50873000D01*
X225501250Y-50873000D01*
X225660000Y-50714250D01*
X225660000Y-50173690D01*
X225563327Y-49940301D01*
X225384698Y-49761673D01*
X225151309Y-49665000D01*
X224735750Y-49665000D01*
X224577000Y-49823750D01*
X224323000Y-49823750D01*
X224164250Y-49665000D01*
X223748691Y-49665000D01*
X223515302Y-49761673D01*
X223360377Y-49916597D01*
X223359586Y-49915414D01*
X223068436Y-49720873D01*
X222725001Y-49652560D01*
X222074999Y-49652560D01*
X221731564Y-49720873D01*
X221610000Y-49802100D01*
X221610000Y-49285750D01*
X221451250Y-49127000D01*
X220527000Y-49127000D01*
X220527000Y-49147000D01*
X220273000Y-49147000D01*
X220273000Y-49127000D01*
X220253000Y-49127000D01*
X220253000Y-48873000D01*
X220273000Y-48873000D01*
X220273000Y-47823750D01*
X220527000Y-47823750D01*
X220527000Y-48873000D01*
X221451250Y-48873000D01*
X221610000Y-48714250D01*
X221610000Y-48173690D01*
X221513327Y-47940301D01*
X221334698Y-47761673D01*
X221101309Y-47665000D01*
X220685750Y-47665000D01*
X220527000Y-47823750D01*
X220273000Y-47823750D01*
X220114250Y-47665000D01*
X219843974Y-47665000D01*
X219860000Y-47626310D01*
X219860000Y-47085750D01*
X219701250Y-46927000D01*
X218777000Y-46927000D01*
X218777000Y-46947000D01*
X218523000Y-46947000D01*
X218523000Y-46927000D01*
X218503000Y-46927000D01*
X218503000Y-46673000D01*
X218523000Y-46673000D01*
X218523000Y-45623750D01*
X218777000Y-45623750D01*
X218777000Y-46673000D01*
X219701250Y-46673000D01*
X219860000Y-46514250D01*
X219860000Y-45973690D01*
X219763327Y-45740301D01*
X219584698Y-45561673D01*
X219351309Y-45465000D01*
X218935750Y-45465000D01*
X218777000Y-45623750D01*
X218523000Y-45623750D01*
X218364250Y-45465000D01*
X217948691Y-45465000D01*
X217715302Y-45561673D01*
X217560377Y-45716597D01*
X217559586Y-45715414D01*
X217268436Y-45520873D01*
X216925001Y-45452560D01*
X216274999Y-45452560D01*
X215959481Y-45515320D01*
X219770418Y-41704383D01*
X229607000Y-41704383D01*
X229607000Y-42795617D01*
X230024597Y-43803785D01*
X230796215Y-44575403D01*
X231804383Y-44993000D01*
X232895617Y-44993000D01*
X233903785Y-44575403D01*
X234675403Y-43803785D01*
X234804156Y-43492947D01*
X237585858Y-43492947D01*
X237699821Y-43772773D01*
X238354829Y-44020170D01*
X239054651Y-43998075D01*
X239598579Y-43772773D01*
X239712542Y-43492947D01*
X238649200Y-42429605D01*
X237585858Y-43492947D01*
X234804156Y-43492947D01*
X235093000Y-42795617D01*
X235093000Y-41955629D01*
X236879030Y-41955629D01*
X236901125Y-42655451D01*
X237126427Y-43199379D01*
X237406253Y-43313342D01*
X238469595Y-42250000D01*
X238828805Y-42250000D01*
X239892147Y-43313342D01*
X240171973Y-43199379D01*
X240419370Y-42544371D01*
X240397275Y-41844549D01*
X240171973Y-41300621D01*
X239892147Y-41186658D01*
X238828805Y-42250000D01*
X238469595Y-42250000D01*
X237406253Y-41186658D01*
X237126427Y-41300621D01*
X236879030Y-41955629D01*
X235093000Y-41955629D01*
X235093000Y-41704383D01*
X234804157Y-41007053D01*
X237585858Y-41007053D01*
X238649200Y-42070395D01*
X239712542Y-41007053D01*
X239598579Y-40727227D01*
X238943571Y-40479830D01*
X238243749Y-40501925D01*
X237699821Y-40727227D01*
X237585858Y-41007053D01*
X234804157Y-41007053D01*
X234675403Y-40696215D01*
X233903785Y-39924597D01*
X232895617Y-39507000D01*
X231804383Y-39507000D01*
X230796215Y-39924597D01*
X230024597Y-40696215D01*
X229607000Y-41704383D01*
X219770418Y-41704383D01*
X220484473Y-40990329D01*
X220547929Y-40947929D01*
X220590924Y-40883582D01*
X220715904Y-40696538D01*
X220741889Y-40565902D01*
X220760000Y-40474852D01*
X220760000Y-40474848D01*
X220774888Y-40400000D01*
X220760000Y-40325152D01*
X220760000Y-39160000D01*
X241085199Y-39160000D01*
X242090000Y-40164802D01*
X242089999Y-52915000D01*
X241853744Y-52915000D01*
X241420582Y-53001161D01*
X240929375Y-53329375D01*
X240917184Y-53347619D01*
X240908157Y-53302235D01*
X240767809Y-53092191D01*
X240557765Y-52951843D01*
X240310000Y-52902560D01*
X238610000Y-52902560D01*
X238362235Y-52951843D01*
X238152191Y-53092191D01*
X238011843Y-53302235D01*
X237962560Y-53550000D01*
X237962560Y-53640000D01*
X237474848Y-53640000D01*
X237400000Y-53625112D01*
X237325152Y-53640000D01*
X237325148Y-53640000D01*
X237103463Y-53684096D01*
X236852071Y-53852071D01*
X236809671Y-53915527D01*
X233285199Y-57440000D01*
X230674848Y-57440000D01*
X230600000Y-57425112D01*
X230525152Y-57440000D01*
X230525148Y-57440000D01*
X230303463Y-57484096D01*
X230052071Y-57652071D01*
X230009671Y-57715527D01*
X226315528Y-61409671D01*
X226252072Y-61452071D01*
X226209672Y-61515527D01*
X226209671Y-61515528D01*
X226084097Y-61703463D01*
X226025112Y-62000000D01*
X226040001Y-62074852D01*
X226040000Y-65885198D01*
X225685199Y-66240000D01*
X216674848Y-66240000D01*
X216600000Y-66225112D01*
X216525152Y-66240000D01*
X216525148Y-66240000D01*
X216303463Y-66284096D01*
X216052071Y-66452071D01*
X216009671Y-66515527D01*
X215560199Y-66965000D01*
X215394126Y-66965000D01*
X215013720Y-67122569D01*
X214722569Y-67413720D01*
X214565000Y-67794126D01*
X214565000Y-68205874D01*
X214722569Y-68586280D01*
X215013720Y-68877431D01*
X215394126Y-69035000D01*
X215805874Y-69035000D01*
X216186280Y-68877431D01*
X216200000Y-68863711D01*
X216213720Y-68877431D01*
X216594126Y-69035000D01*
X217005874Y-69035000D01*
X217386280Y-68877431D01*
X217503711Y-68760000D01*
X225565000Y-68760000D01*
X225565000Y-68760199D01*
X225515528Y-68809671D01*
X225452072Y-68852071D01*
X225409672Y-68915527D01*
X225409671Y-68915528D01*
X225284097Y-69103463D01*
X225225112Y-69400000D01*
X225240001Y-69474852D01*
X225240000Y-70836289D01*
X225122569Y-70953720D01*
X224965000Y-71334126D01*
X224965000Y-71745874D01*
X225122569Y-72126280D01*
X225413720Y-72417431D01*
X225794126Y-72575000D01*
X226205874Y-72575000D01*
X226586280Y-72417431D01*
X226877431Y-72126280D01*
X227035000Y-71745874D01*
X227035000Y-71334126D01*
X226877431Y-70953720D01*
X226760000Y-70836289D01*
X226760000Y-69835000D01*
X226805874Y-69835000D01*
X227186280Y-69677431D01*
X227477431Y-69386280D01*
X227635000Y-69005874D01*
X227635000Y-68594126D01*
X227477431Y-68213720D01*
X227186280Y-67922569D01*
X227020783Y-67854018D01*
X227884473Y-66990329D01*
X227947929Y-66947929D01*
X228081565Y-66747929D01*
X228115904Y-66696538D01*
X228145464Y-66547929D01*
X228160000Y-66474852D01*
X228160000Y-66474848D01*
X228174888Y-66400000D01*
X228160000Y-66325152D01*
X228160000Y-62714801D01*
X229327560Y-61547241D01*
X229327560Y-62250001D01*
X229395873Y-62593436D01*
X229533895Y-62800000D01*
X229395873Y-63006564D01*
X229327560Y-63349999D01*
X229327560Y-64250001D01*
X229395873Y-64593436D01*
X229590414Y-64884586D01*
X229881564Y-65079127D01*
X230224999Y-65147440D01*
X230272639Y-65147440D01*
X230565000Y-65439802D01*
X230565000Y-65605874D01*
X230687115Y-65900687D01*
X230515414Y-66015414D01*
X230320873Y-66306564D01*
X230252560Y-66649999D01*
X230252560Y-67300001D01*
X230320873Y-67643436D01*
X230515414Y-67934586D01*
X230613313Y-68000000D01*
X230515414Y-68065414D01*
X230320873Y-68356564D01*
X230252560Y-68699999D01*
X230252560Y-69350001D01*
X230320873Y-69693436D01*
X230515414Y-69984586D01*
X230622231Y-70055959D01*
X230565000Y-70194126D01*
X230565000Y-70605874D01*
X230614120Y-70724460D01*
X230515414Y-70790414D01*
X230320873Y-71081564D01*
X230252560Y-71424999D01*
X230252560Y-72075001D01*
X230320873Y-72418436D01*
X230515414Y-72709586D01*
X230613313Y-72775000D01*
X230515414Y-72840414D01*
X230320873Y-73131564D01*
X230252560Y-73474999D01*
X230252560Y-74125001D01*
X230320873Y-74468436D01*
X230515414Y-74759586D01*
X230806564Y-74954127D01*
X231149999Y-75022440D01*
X232050001Y-75022440D01*
X232393436Y-74954127D01*
X232684586Y-74759586D01*
X232817946Y-74560000D01*
X234000153Y-74560000D01*
X234075000Y-74574888D01*
X234149847Y-74560000D01*
X234149852Y-74560000D01*
X234371537Y-74515904D01*
X234622929Y-74347929D01*
X234665331Y-74284470D01*
X235725076Y-73224726D01*
X235915414Y-73509586D01*
X236013313Y-73575000D01*
X235915414Y-73640414D01*
X235720873Y-73931564D01*
X235652560Y-74274999D01*
X235652560Y-74925001D01*
X235720873Y-75268436D01*
X235915414Y-75559586D01*
X236206564Y-75754127D01*
X236549999Y-75822440D01*
X237450001Y-75822440D01*
X237793436Y-75754127D01*
X238084586Y-75559586D01*
X238279127Y-75268436D01*
X238297391Y-75176618D01*
X238340327Y-75147929D01*
X238382729Y-75084470D01*
X239047960Y-74419240D01*
X239179398Y-74419240D01*
X239427163Y-74369957D01*
X239637207Y-74229609D01*
X239777555Y-74019565D01*
X239826838Y-73771800D01*
X239826838Y-73320950D01*
X239885600Y-73320950D01*
X239885600Y-73898109D01*
X239982273Y-74131498D01*
X240160901Y-74310127D01*
X240394290Y-74406800D01*
X240514250Y-74406800D01*
X240673000Y-74248050D01*
X240673000Y-73162200D01*
X240927000Y-73162200D01*
X240927000Y-74248050D01*
X241085750Y-74406800D01*
X241205710Y-74406800D01*
X241439099Y-74310127D01*
X241617727Y-74131498D01*
X241714400Y-73898109D01*
X241714400Y-73320950D01*
X241555650Y-73162200D01*
X240927000Y-73162200D01*
X240673000Y-73162200D01*
X240044350Y-73162200D01*
X239885600Y-73320950D01*
X239826838Y-73320950D01*
X239826838Y-72686628D01*
X239885600Y-72686628D01*
X239885600Y-72749450D01*
X240044350Y-72908200D01*
X240673000Y-72908200D01*
X240673000Y-72888200D01*
X240927000Y-72888200D01*
X240927000Y-72908200D01*
X241555650Y-72908200D01*
X241714400Y-72749450D01*
X241714400Y-72172291D01*
X241617727Y-71938902D01*
X241591693Y-71912868D01*
X241677557Y-71784365D01*
X241726840Y-71536600D01*
X241726840Y-70063400D01*
X241677557Y-69815635D01*
X241537209Y-69605591D01*
X241457850Y-69552564D01*
X241559586Y-69484586D01*
X241754127Y-69193436D01*
X241822440Y-68850001D01*
X241822440Y-68252361D01*
X243484473Y-66590329D01*
X243490001Y-66586636D01*
X243490001Y-80873071D01*
X243369664Y-80582552D01*
X242417448Y-79630336D01*
X241173318Y-79115000D01*
X239826682Y-79115000D01*
X238582552Y-79630336D01*
X237630336Y-80582552D01*
X237115000Y-81826682D01*
X237115000Y-83173318D01*
X237630336Y-84417448D01*
X238582552Y-85369664D01*
X239826682Y-85885000D01*
X241173318Y-85885000D01*
X242417448Y-85369664D01*
X243369664Y-84417448D01*
X243490001Y-84126929D01*
X243490001Y-86301925D01*
X243465000Y-86427613D01*
X243465001Y-89290000D01*
X195735000Y-89290000D01*
X195735000Y-86427612D01*
X195710000Y-86301929D01*
X195710000Y-83402668D01*
X196130336Y-84417448D01*
X197082552Y-85369664D01*
X198326682Y-85885000D01*
X199673318Y-85885000D01*
X200917448Y-85369664D01*
X201869664Y-84417448D01*
X202385000Y-83173318D01*
X202385000Y-81826682D01*
X216615000Y-81826682D01*
X216615000Y-83173318D01*
X217130336Y-84417448D01*
X218082552Y-85369664D01*
X219326682Y-85885000D01*
X220673318Y-85885000D01*
X221917448Y-85369664D01*
X222869664Y-84417448D01*
X223385000Y-83173318D01*
X223385000Y-81826682D01*
X222869664Y-80582552D01*
X221917448Y-79630336D01*
X220673318Y-79115000D01*
X219326682Y-79115000D01*
X218082552Y-79630336D01*
X217130336Y-80582552D01*
X216615000Y-81826682D01*
X202385000Y-81826682D01*
X201869664Y-80582552D01*
X200917448Y-79630336D01*
X199673318Y-79115000D01*
X198326682Y-79115000D01*
X197082552Y-79630336D01*
X196130336Y-80582552D01*
X195710000Y-81597332D01*
X195710000Y-66480000D01*
X198235516Y-66480000D01*
X198352322Y-67067222D01*
X198684956Y-67565044D01*
X199182778Y-67897678D01*
X199621774Y-67985000D01*
X200378226Y-67985000D01*
X200817222Y-67897678D01*
X201315044Y-67565044D01*
X201647678Y-67067222D01*
X201764484Y-66480000D01*
X201647678Y-65892778D01*
X201315044Y-65394956D01*
X201027523Y-65202840D01*
X201390533Y-64910491D01*
X201673584Y-64392500D01*
X201691302Y-64300031D01*
X201570246Y-64067000D01*
X200127000Y-64067000D01*
X200127000Y-64087000D01*
X199873000Y-64087000D01*
X199873000Y-64067000D01*
X198429754Y-64067000D01*
X198308698Y-64300031D01*
X198326416Y-64392500D01*
X198609467Y-64910491D01*
X198972477Y-65202840D01*
X198684956Y-65394956D01*
X198352322Y-65892778D01*
X198235516Y-66480000D01*
X195710000Y-66480000D01*
X195710000Y-33710000D01*
X243490000Y-33710000D01*
X243490000Y-39439865D01*
G36*
X239278001Y-64274636D02*
X239140301Y-64331673D01*
X238961673Y-64510302D01*
X238865000Y-64743691D01*
X238865000Y-65454250D01*
X239023750Y-65613000D01*
X240473000Y-65613000D01*
X240473000Y-65593000D01*
X240727000Y-65593000D01*
X240727000Y-65613000D01*
X240747000Y-65613000D01*
X240747000Y-65867000D01*
X240727000Y-65867000D01*
X240727000Y-65887000D01*
X240473000Y-65887000D01*
X240473000Y-65867000D01*
X239023750Y-65867000D01*
X238865000Y-66025750D01*
X238865000Y-66736309D01*
X238961673Y-66969698D01*
X239056974Y-67065000D01*
X238835750Y-67065000D01*
X238677000Y-67223750D01*
X238677000Y-68273000D01*
X238697000Y-68273000D01*
X238697000Y-68527000D01*
X238677000Y-68527000D01*
X238677000Y-68547000D01*
X238423000Y-68547000D01*
X238423000Y-68527000D01*
X238403000Y-68527000D01*
X238403000Y-68273000D01*
X238423000Y-68273000D01*
X238423000Y-67223750D01*
X238264250Y-67065000D01*
X237848691Y-67065000D01*
X237615302Y-67161673D01*
X237436673Y-67340301D01*
X237435262Y-67343708D01*
X237426310Y-67340000D01*
X236885750Y-67340000D01*
X236727000Y-67498750D01*
X236727000Y-68423000D01*
X236747000Y-68423000D01*
X236747000Y-68677000D01*
X236727000Y-68677000D01*
X236727000Y-68697000D01*
X236473000Y-68697000D01*
X236473000Y-68677000D01*
X235423750Y-68677000D01*
X235265000Y-68835750D01*
X235265000Y-69251309D01*
X235361673Y-69484698D01*
X235516597Y-69639623D01*
X235515414Y-69640414D01*
X235320873Y-69931564D01*
X235252560Y-70274999D01*
X235252560Y-70925001D01*
X235320873Y-71268436D01*
X235405344Y-71394855D01*
X233760199Y-73040000D01*
X232817946Y-73040000D01*
X232684586Y-72840414D01*
X232586687Y-72775000D01*
X232684586Y-72709586D01*
X232879127Y-72418436D01*
X232947440Y-72075001D01*
X232947440Y-71424999D01*
X232879127Y-71081564D01*
X232684586Y-70790414D01*
X232585880Y-70724460D01*
X232635000Y-70605874D01*
X232635000Y-70194126D01*
X232577769Y-70055959D01*
X232684586Y-69984586D01*
X232879127Y-69693436D01*
X232947440Y-69350001D01*
X232947440Y-68699999D01*
X232879127Y-68356564D01*
X232684586Y-68065414D01*
X232586687Y-68000000D01*
X232684586Y-67934586D01*
X232741979Y-67848691D01*
X235265000Y-67848691D01*
X235265000Y-68264250D01*
X235423750Y-68423000D01*
X236473000Y-68423000D01*
X236473000Y-67498750D01*
X236314250Y-67340000D01*
X235773690Y-67340000D01*
X235540301Y-67436673D01*
X235361673Y-67615302D01*
X235265000Y-67848691D01*
X232741979Y-67848691D01*
X232879127Y-67643436D01*
X232947440Y-67300001D01*
X232947440Y-66649999D01*
X232879127Y-66306564D01*
X232684586Y-66015414D01*
X232512885Y-65900687D01*
X232635000Y-65605874D01*
X232635000Y-65194126D01*
X232615662Y-65147440D01*
X232925001Y-65147440D01*
X233268436Y-65079127D01*
X233559586Y-64884586D01*
X233754127Y-64593436D01*
X233822440Y-64250001D01*
X233822440Y-63960000D01*
X239067769Y-63960000D01*
X239278001Y-64274636D01*
X239278001Y-64274636D01*
G37*
X239278001Y-64274636D02*
X239140301Y-64331673D01*
X238961673Y-64510302D01*
X238865000Y-64743691D01*
X238865000Y-65454250D01*
X239023750Y-65613000D01*
X240473000Y-65613000D01*
X240473000Y-65593000D01*
X240727000Y-65593000D01*
X240727000Y-65613000D01*
X240747000Y-65613000D01*
X240747000Y-65867000D01*
X240727000Y-65867000D01*
X240727000Y-65887000D01*
X240473000Y-65887000D01*
X240473000Y-65867000D01*
X239023750Y-65867000D01*
X238865000Y-66025750D01*
X238865000Y-66736309D01*
X238961673Y-66969698D01*
X239056974Y-67065000D01*
X238835750Y-67065000D01*
X238677000Y-67223750D01*
X238677000Y-68273000D01*
X238697000Y-68273000D01*
X238697000Y-68527000D01*
X238677000Y-68527000D01*
X238677000Y-68547000D01*
X238423000Y-68547000D01*
X238423000Y-68527000D01*
X238403000Y-68527000D01*
X238403000Y-68273000D01*
X238423000Y-68273000D01*
X238423000Y-67223750D01*
X238264250Y-67065000D01*
X237848691Y-67065000D01*
X237615302Y-67161673D01*
X237436673Y-67340301D01*
X237435262Y-67343708D01*
X237426310Y-67340000D01*
X236885750Y-67340000D01*
X236727000Y-67498750D01*
X236727000Y-68423000D01*
X236747000Y-68423000D01*
X236747000Y-68677000D01*
X236727000Y-68677000D01*
X236727000Y-68697000D01*
X236473000Y-68697000D01*
X236473000Y-68677000D01*
X235423750Y-68677000D01*
X235265000Y-68835750D01*
X235265000Y-69251309D01*
X235361673Y-69484698D01*
X235516597Y-69639623D01*
X235515414Y-69640414D01*
X235320873Y-69931564D01*
X235252560Y-70274999D01*
X235252560Y-70925001D01*
X235320873Y-71268436D01*
X235405344Y-71394855D01*
X233760199Y-73040000D01*
X232817946Y-73040000D01*
X232684586Y-72840414D01*
X232586687Y-72775000D01*
X232684586Y-72709586D01*
X232879127Y-72418436D01*
X232947440Y-72075001D01*
X232947440Y-71424999D01*
X232879127Y-71081564D01*
X232684586Y-70790414D01*
X232585880Y-70724460D01*
X232635000Y-70605874D01*
X232635000Y-70194126D01*
X232577769Y-70055959D01*
X232684586Y-69984586D01*
X232879127Y-69693436D01*
X232947440Y-69350001D01*
X232947440Y-68699999D01*
X232879127Y-68356564D01*
X232684586Y-68065414D01*
X232586687Y-68000000D01*
X232684586Y-67934586D01*
X232741979Y-67848691D01*
X235265000Y-67848691D01*
X235265000Y-68264250D01*
X235423750Y-68423000D01*
X236473000Y-68423000D01*
X236473000Y-67498750D01*
X236314250Y-67340000D01*
X235773690Y-67340000D01*
X235540301Y-67436673D01*
X235361673Y-67615302D01*
X235265000Y-67848691D01*
X232741979Y-67848691D01*
X232879127Y-67643436D01*
X232947440Y-67300001D01*
X232947440Y-66649999D01*
X232879127Y-66306564D01*
X232684586Y-66015414D01*
X232512885Y-65900687D01*
X232635000Y-65605874D01*
X232635000Y-65194126D01*
X232615662Y-65147440D01*
X232925001Y-65147440D01*
X233268436Y-65079127D01*
X233559586Y-64884586D01*
X233754127Y-64593436D01*
X233822440Y-64250001D01*
X233822440Y-63960000D01*
X239067769Y-63960000D01*
X239278001Y-64274636D01*
G36*
X243490001Y-62013365D02*
X243484473Y-62009671D01*
X242383698Y-60908897D01*
X242881358Y-60675183D01*
X243271645Y-60246924D01*
X243441476Y-59836890D01*
X243320155Y-59607000D01*
X242127000Y-59607000D01*
X242127000Y-59627000D01*
X241873000Y-59627000D01*
X241873000Y-59607000D01*
X241853000Y-59607000D01*
X241853000Y-59353000D01*
X241873000Y-59353000D01*
X241873000Y-59333000D01*
X242127000Y-59333000D01*
X242127000Y-59353000D01*
X243320155Y-59353000D01*
X243441476Y-59123110D01*
X243271645Y-58713076D01*
X242881358Y-58284817D01*
X242751522Y-58223843D01*
X243070625Y-58010625D01*
X243398839Y-57519418D01*
X243490000Y-57061117D01*
X243490001Y-62013365D01*
X243490001Y-62013365D01*
G37*
X243490001Y-62013365D02*
X243484473Y-62009671D01*
X242383698Y-60908897D01*
X242881358Y-60675183D01*
X243271645Y-60246924D01*
X243441476Y-59836890D01*
X243320155Y-59607000D01*
X242127000Y-59607000D01*
X242127000Y-59627000D01*
X241873000Y-59627000D01*
X241873000Y-59607000D01*
X241853000Y-59607000D01*
X241853000Y-59353000D01*
X241873000Y-59353000D01*
X241873000Y-59333000D01*
X242127000Y-59333000D01*
X242127000Y-59353000D01*
X243320155Y-59353000D01*
X243441476Y-59123110D01*
X243271645Y-58713076D01*
X242881358Y-58284817D01*
X242751522Y-58223843D01*
X243070625Y-58010625D01*
X243398839Y-57519418D01*
X243490000Y-57061117D01*
X243490001Y-62013365D01*
G36*
X202640001Y-45415604D02*
X202640001Y-45589222D01*
X202606564Y-45595873D01*
X202315414Y-45790414D01*
X202120873Y-46081564D01*
X202052560Y-46424999D01*
X202052560Y-47075001D01*
X202120873Y-47418436D01*
X202315414Y-47709586D01*
X202316597Y-47710377D01*
X202161673Y-47865302D01*
X202065000Y-48098691D01*
X202065000Y-48514250D01*
X202223750Y-48673000D01*
X203273000Y-48673000D01*
X203273000Y-48653000D01*
X203527000Y-48653000D01*
X203527000Y-48673000D01*
X204576250Y-48673000D01*
X204735000Y-48514250D01*
X204735000Y-48098691D01*
X204638327Y-47865302D01*
X204483403Y-47710377D01*
X204484586Y-47709586D01*
X204544747Y-47619549D01*
X204959670Y-48034472D01*
X205002071Y-48097929D01*
X205253463Y-48265904D01*
X205475148Y-48310000D01*
X205475152Y-48310000D01*
X205549999Y-48324888D01*
X205624846Y-48310000D01*
X205702560Y-48310000D01*
X205702560Y-48450000D01*
X205751843Y-48697765D01*
X205892191Y-48907809D01*
X206027187Y-48998011D01*
X204315530Y-50709669D01*
X204252071Y-50752071D01*
X204084096Y-51003464D01*
X204040000Y-51225149D01*
X204040000Y-51225153D01*
X204025112Y-51300000D01*
X204040000Y-51374847D01*
X204040000Y-54376289D01*
X203786280Y-54122569D01*
X203405874Y-53965000D01*
X202994126Y-53965000D01*
X202613720Y-54122569D01*
X202322569Y-54413720D01*
X202165000Y-54794126D01*
X202165000Y-55205874D01*
X202322569Y-55586280D01*
X202375744Y-55639455D01*
X201752989Y-56262210D01*
X201647678Y-55732778D01*
X201315044Y-55234956D01*
X201249878Y-55191413D01*
X201484586Y-55034586D01*
X201679127Y-54743436D01*
X201747440Y-54400001D01*
X201747440Y-53159999D01*
X201679127Y-52816564D01*
X201484586Y-52525414D01*
X201193436Y-52330873D01*
X200850001Y-52262560D01*
X199149999Y-52262560D01*
X198806564Y-52330873D01*
X198515414Y-52525414D01*
X198320873Y-52816564D01*
X198252560Y-53159999D01*
X198252560Y-54400001D01*
X198320873Y-54743436D01*
X198515414Y-55034586D01*
X198750122Y-55191413D01*
X198684956Y-55234956D01*
X198352322Y-55732778D01*
X198235516Y-56320000D01*
X198352322Y-56907222D01*
X198684956Y-57405044D01*
X198961762Y-57590000D01*
X198684956Y-57774956D01*
X198352322Y-58272778D01*
X198235516Y-58860000D01*
X198352322Y-59447222D01*
X198684956Y-59945044D01*
X198961762Y-60130000D01*
X198684956Y-60314956D01*
X198467769Y-60640000D01*
X198314802Y-60640000D01*
X197360000Y-59685199D01*
X197360000Y-49085750D01*
X202065000Y-49085750D01*
X202065000Y-49501309D01*
X202161673Y-49734698D01*
X202340301Y-49913327D01*
X202573690Y-50010000D01*
X203114250Y-50010000D01*
X203273000Y-49851250D01*
X203273000Y-48927000D01*
X203527000Y-48927000D01*
X203527000Y-49851250D01*
X203685750Y-50010000D01*
X204226310Y-50010000D01*
X204459699Y-49913327D01*
X204638327Y-49734698D01*
X204735000Y-49501309D01*
X204735000Y-49085750D01*
X204576250Y-48927000D01*
X203527000Y-48927000D01*
X203273000Y-48927000D01*
X202223750Y-48927000D01*
X202065000Y-49085750D01*
X197360000Y-49085750D01*
X197360000Y-46514801D01*
X199908677Y-43966126D01*
X199972130Y-43923728D01*
X199976185Y-43917660D01*
X200199114Y-44010000D01*
X200899286Y-44010000D01*
X201136246Y-43911848D01*
X202640001Y-45415604D01*
X202640001Y-45415604D01*
G37*
X202640001Y-45415604D02*
X202640001Y-45589222D01*
X202606564Y-45595873D01*
X202315414Y-45790414D01*
X202120873Y-46081564D01*
X202052560Y-46424999D01*
X202052560Y-47075001D01*
X202120873Y-47418436D01*
X202315414Y-47709586D01*
X202316597Y-47710377D01*
X202161673Y-47865302D01*
X202065000Y-48098691D01*
X202065000Y-48514250D01*
X202223750Y-48673000D01*
X203273000Y-48673000D01*
X203273000Y-48653000D01*
X203527000Y-48653000D01*
X203527000Y-48673000D01*
X204576250Y-48673000D01*
X204735000Y-48514250D01*
X204735000Y-48098691D01*
X204638327Y-47865302D01*
X204483403Y-47710377D01*
X204484586Y-47709586D01*
X204544747Y-47619549D01*
X204959670Y-48034472D01*
X205002071Y-48097929D01*
X205253463Y-48265904D01*
X205475148Y-48310000D01*
X205475152Y-48310000D01*
X205549999Y-48324888D01*
X205624846Y-48310000D01*
X205702560Y-48310000D01*
X205702560Y-48450000D01*
X205751843Y-48697765D01*
X205892191Y-48907809D01*
X206027187Y-48998011D01*
X204315530Y-50709669D01*
X204252071Y-50752071D01*
X204084096Y-51003464D01*
X204040000Y-51225149D01*
X204040000Y-51225153D01*
X204025112Y-51300000D01*
X204040000Y-51374847D01*
X204040000Y-54376289D01*
X203786280Y-54122569D01*
X203405874Y-53965000D01*
X202994126Y-53965000D01*
X202613720Y-54122569D01*
X202322569Y-54413720D01*
X202165000Y-54794126D01*
X202165000Y-55205874D01*
X202322569Y-55586280D01*
X202375744Y-55639455D01*
X201752989Y-56262210D01*
X201647678Y-55732778D01*
X201315044Y-55234956D01*
X201249878Y-55191413D01*
X201484586Y-55034586D01*
X201679127Y-54743436D01*
X201747440Y-54400001D01*
X201747440Y-53159999D01*
X201679127Y-52816564D01*
X201484586Y-52525414D01*
X201193436Y-52330873D01*
X200850001Y-52262560D01*
X199149999Y-52262560D01*
X198806564Y-52330873D01*
X198515414Y-52525414D01*
X198320873Y-52816564D01*
X198252560Y-53159999D01*
X198252560Y-54400001D01*
X198320873Y-54743436D01*
X198515414Y-55034586D01*
X198750122Y-55191413D01*
X198684956Y-55234956D01*
X198352322Y-55732778D01*
X198235516Y-56320000D01*
X198352322Y-56907222D01*
X198684956Y-57405044D01*
X198961762Y-57590000D01*
X198684956Y-57774956D01*
X198352322Y-58272778D01*
X198235516Y-58860000D01*
X198352322Y-59447222D01*
X198684956Y-59945044D01*
X198961762Y-60130000D01*
X198684956Y-60314956D01*
X198467769Y-60640000D01*
X198314802Y-60640000D01*
X197360000Y-59685199D01*
X197360000Y-49085750D01*
X202065000Y-49085750D01*
X202065000Y-49501309D01*
X202161673Y-49734698D01*
X202340301Y-49913327D01*
X202573690Y-50010000D01*
X203114250Y-50010000D01*
X203273000Y-49851250D01*
X203273000Y-48927000D01*
X203527000Y-48927000D01*
X203527000Y-49851250D01*
X203685750Y-50010000D01*
X204226310Y-50010000D01*
X204459699Y-49913327D01*
X204638327Y-49734698D01*
X204735000Y-49501309D01*
X204735000Y-49085750D01*
X204576250Y-48927000D01*
X203527000Y-48927000D01*
X203273000Y-48927000D01*
X202223750Y-48927000D01*
X202065000Y-49085750D01*
X197360000Y-49085750D01*
X197360000Y-46514801D01*
X199908677Y-43966126D01*
X199972130Y-43923728D01*
X199976185Y-43917660D01*
X200199114Y-44010000D01*
X200899286Y-44010000D01*
X201136246Y-43911848D01*
X202640001Y-45415604D01*
G36*
X207527000Y-46873000D02*
X207547000Y-46873000D01*
X207547000Y-47127000D01*
X207527000Y-47127000D01*
X207527000Y-47147000D01*
X207273000Y-47147000D01*
X207273000Y-47127000D01*
X207253000Y-47127000D01*
X207253000Y-46873000D01*
X207273000Y-46873000D01*
X207273000Y-46853000D01*
X207527000Y-46853000D01*
X207527000Y-46873000D01*
X207527000Y-46873000D01*
G37*
X207527000Y-46873000D02*
X207547000Y-46873000D01*
X207547000Y-47127000D01*
X207527000Y-47127000D01*
X207527000Y-47147000D01*
X207273000Y-47147000D01*
X207273000Y-47127000D01*
X207253000Y-47127000D01*
X207253000Y-46873000D01*
X207273000Y-46873000D01*
X207273000Y-46853000D01*
X207527000Y-46853000D01*
X207527000Y-46873000D01*
G04 #@! TD*
M02*
