G04 #@! TF.GenerationSoftware,KiCad,Pcbnew,5.0.1*
G04 #@! TF.CreationDate,2019-02-12T17:29:54-06:00*
G04 #@! TF.ProjectId,EFM,45464D2E6B696361645F706362000000,rev?*
G04 #@! TF.SameCoordinates,Original*
G04 #@! TF.FileFunction,Copper,L1,Top,Signal*
G04 #@! TF.FilePolarity,Positive*
%FSLAX46Y46*%
G04 Gerber Fmt 4.6, Leading zero omitted, Abs format (unit mm)*
G04 Created by KiCad (PCBNEW 5.0.1) date Tue 12 Feb 2019 05:29:54 PM CST*
%MOMM*%
%LPD*%
G01*
G04 APERTURE LIST*
G04 #@! TA.AperFunction,Conductor*
%ADD10C,0.100000*%
G04 #@! TD*
G04 #@! TA.AperFunction,SMDPad,CuDef*
%ADD11C,0.975000*%
G04 #@! TD*
G04 #@! TA.AperFunction,ComponentPad*
%ADD12C,1.740000*%
G04 #@! TD*
G04 #@! TA.AperFunction,ComponentPad*
%ADD13O,2.200000X1.740000*%
G04 #@! TD*
G04 #@! TA.AperFunction,ComponentPad*
%ADD14C,2.250000*%
G04 #@! TD*
G04 #@! TA.AperFunction,ComponentPad*
%ADD15C,4.216000*%
G04 #@! TD*
G04 #@! TA.AperFunction,SMDPad,CuDef*
%ADD16C,1.150000*%
G04 #@! TD*
G04 #@! TA.AperFunction,SMDPad,CuDef*
%ADD17R,1.550000X0.600000*%
G04 #@! TD*
G04 #@! TA.AperFunction,SMDPad,CuDef*
%ADD18R,1.500000X0.550000*%
G04 #@! TD*
G04 #@! TA.AperFunction,SMDPad,CuDef*
%ADD19R,0.550000X1.500000*%
G04 #@! TD*
G04 #@! TA.AperFunction,ComponentPad*
%ADD20R,1.700000X1.700000*%
G04 #@! TD*
G04 #@! TA.AperFunction,ComponentPad*
%ADD21O,1.700000X1.700000*%
G04 #@! TD*
G04 #@! TA.AperFunction,ViaPad*
%ADD22C,0.800000*%
G04 #@! TD*
G04 #@! TA.AperFunction,Conductor*
%ADD23C,0.250000*%
G04 #@! TD*
G04 #@! TA.AperFunction,Conductor*
%ADD24C,0.254000*%
G04 #@! TD*
G04 APERTURE END LIST*
D10*
G04 #@! TO.N,GND*
G04 #@! TO.C,D1*
G36*
X233280142Y-54788674D02*
X233303803Y-54792184D01*
X233327007Y-54797996D01*
X233349529Y-54806054D01*
X233371153Y-54816282D01*
X233391670Y-54828579D01*
X233410883Y-54842829D01*
X233428607Y-54858893D01*
X233444671Y-54876617D01*
X233458921Y-54895830D01*
X233471218Y-54916347D01*
X233481446Y-54937971D01*
X233489504Y-54960493D01*
X233495316Y-54983697D01*
X233498826Y-55007358D01*
X233500000Y-55031250D01*
X233500000Y-55518750D01*
X233498826Y-55542642D01*
X233495316Y-55566303D01*
X233489504Y-55589507D01*
X233481446Y-55612029D01*
X233471218Y-55633653D01*
X233458921Y-55654170D01*
X233444671Y-55673383D01*
X233428607Y-55691107D01*
X233410883Y-55707171D01*
X233391670Y-55721421D01*
X233371153Y-55733718D01*
X233349529Y-55743946D01*
X233327007Y-55752004D01*
X233303803Y-55757816D01*
X233280142Y-55761326D01*
X233256250Y-55762500D01*
X232343750Y-55762500D01*
X232319858Y-55761326D01*
X232296197Y-55757816D01*
X232272993Y-55752004D01*
X232250471Y-55743946D01*
X232228847Y-55733718D01*
X232208330Y-55721421D01*
X232189117Y-55707171D01*
X232171393Y-55691107D01*
X232155329Y-55673383D01*
X232141079Y-55654170D01*
X232128782Y-55633653D01*
X232118554Y-55612029D01*
X232110496Y-55589507D01*
X232104684Y-55566303D01*
X232101174Y-55542642D01*
X232100000Y-55518750D01*
X232100000Y-55031250D01*
X232101174Y-55007358D01*
X232104684Y-54983697D01*
X232110496Y-54960493D01*
X232118554Y-54937971D01*
X232128782Y-54916347D01*
X232141079Y-54895830D01*
X232155329Y-54876617D01*
X232171393Y-54858893D01*
X232189117Y-54842829D01*
X232208330Y-54828579D01*
X232228847Y-54816282D01*
X232250471Y-54806054D01*
X232272993Y-54797996D01*
X232296197Y-54792184D01*
X232319858Y-54788674D01*
X232343750Y-54787500D01*
X233256250Y-54787500D01*
X233280142Y-54788674D01*
X233280142Y-54788674D01*
G37*
D11*
G04 #@! TD*
G04 #@! TO.P,D1,1*
G04 #@! TO.N,GND*
X232800000Y-55275000D03*
D10*
G04 #@! TO.N,Net-(D1-Pad2)*
G04 #@! TO.C,D1*
G36*
X233280142Y-52913674D02*
X233303803Y-52917184D01*
X233327007Y-52922996D01*
X233349529Y-52931054D01*
X233371153Y-52941282D01*
X233391670Y-52953579D01*
X233410883Y-52967829D01*
X233428607Y-52983893D01*
X233444671Y-53001617D01*
X233458921Y-53020830D01*
X233471218Y-53041347D01*
X233481446Y-53062971D01*
X233489504Y-53085493D01*
X233495316Y-53108697D01*
X233498826Y-53132358D01*
X233500000Y-53156250D01*
X233500000Y-53643750D01*
X233498826Y-53667642D01*
X233495316Y-53691303D01*
X233489504Y-53714507D01*
X233481446Y-53737029D01*
X233471218Y-53758653D01*
X233458921Y-53779170D01*
X233444671Y-53798383D01*
X233428607Y-53816107D01*
X233410883Y-53832171D01*
X233391670Y-53846421D01*
X233371153Y-53858718D01*
X233349529Y-53868946D01*
X233327007Y-53877004D01*
X233303803Y-53882816D01*
X233280142Y-53886326D01*
X233256250Y-53887500D01*
X232343750Y-53887500D01*
X232319858Y-53886326D01*
X232296197Y-53882816D01*
X232272993Y-53877004D01*
X232250471Y-53868946D01*
X232228847Y-53858718D01*
X232208330Y-53846421D01*
X232189117Y-53832171D01*
X232171393Y-53816107D01*
X232155329Y-53798383D01*
X232141079Y-53779170D01*
X232128782Y-53758653D01*
X232118554Y-53737029D01*
X232110496Y-53714507D01*
X232104684Y-53691303D01*
X232101174Y-53667642D01*
X232100000Y-53643750D01*
X232100000Y-53156250D01*
X232101174Y-53132358D01*
X232104684Y-53108697D01*
X232110496Y-53085493D01*
X232118554Y-53062971D01*
X232128782Y-53041347D01*
X232141079Y-53020830D01*
X232155329Y-53001617D01*
X232171393Y-52983893D01*
X232189117Y-52967829D01*
X232208330Y-52953579D01*
X232228847Y-52941282D01*
X232250471Y-52931054D01*
X232272993Y-52922996D01*
X232296197Y-52917184D01*
X232319858Y-52913674D01*
X232343750Y-52912500D01*
X233256250Y-52912500D01*
X233280142Y-52913674D01*
X233280142Y-52913674D01*
G37*
D11*
G04 #@! TD*
G04 #@! TO.P,D1,2*
G04 #@! TO.N,Net-(D1-Pad2)*
X232800000Y-53400000D03*
D10*
G04 #@! TO.N,Net-(J1-Pad1)*
G04 #@! TO.C,J1*
G36*
X200874505Y-52911204D02*
X200898773Y-52914804D01*
X200922572Y-52920765D01*
X200945671Y-52929030D01*
X200967850Y-52939520D01*
X200988893Y-52952132D01*
X201008599Y-52966747D01*
X201026777Y-52983223D01*
X201043253Y-53001401D01*
X201057868Y-53021107D01*
X201070480Y-53042150D01*
X201080970Y-53064329D01*
X201089235Y-53087428D01*
X201095196Y-53111227D01*
X201098796Y-53135495D01*
X201100000Y-53159999D01*
X201100000Y-54400001D01*
X201098796Y-54424505D01*
X201095196Y-54448773D01*
X201089235Y-54472572D01*
X201080970Y-54495671D01*
X201070480Y-54517850D01*
X201057868Y-54538893D01*
X201043253Y-54558599D01*
X201026777Y-54576777D01*
X201008599Y-54593253D01*
X200988893Y-54607868D01*
X200967850Y-54620480D01*
X200945671Y-54630970D01*
X200922572Y-54639235D01*
X200898773Y-54645196D01*
X200874505Y-54648796D01*
X200850001Y-54650000D01*
X199149999Y-54650000D01*
X199125495Y-54648796D01*
X199101227Y-54645196D01*
X199077428Y-54639235D01*
X199054329Y-54630970D01*
X199032150Y-54620480D01*
X199011107Y-54607868D01*
X198991401Y-54593253D01*
X198973223Y-54576777D01*
X198956747Y-54558599D01*
X198942132Y-54538893D01*
X198929520Y-54517850D01*
X198919030Y-54495671D01*
X198910765Y-54472572D01*
X198904804Y-54448773D01*
X198901204Y-54424505D01*
X198900000Y-54400001D01*
X198900000Y-53159999D01*
X198901204Y-53135495D01*
X198904804Y-53111227D01*
X198910765Y-53087428D01*
X198919030Y-53064329D01*
X198929520Y-53042150D01*
X198942132Y-53021107D01*
X198956747Y-53001401D01*
X198973223Y-52983223D01*
X198991401Y-52966747D01*
X199011107Y-52952132D01*
X199032150Y-52939520D01*
X199054329Y-52929030D01*
X199077428Y-52920765D01*
X199101227Y-52914804D01*
X199125495Y-52911204D01*
X199149999Y-52910000D01*
X200850001Y-52910000D01*
X200874505Y-52911204D01*
X200874505Y-52911204D01*
G37*
D12*
G04 #@! TD*
G04 #@! TO.P,J1,1*
G04 #@! TO.N,Net-(J1-Pad1)*
X200000000Y-53780000D03*
D13*
G04 #@! TO.P,J1,2*
G04 #@! TO.N,/TXD*
X200000000Y-56320000D03*
G04 #@! TO.P,J1,3*
G04 #@! TO.N,/RXD*
X200000000Y-58860000D03*
G04 #@! TO.P,J1,4*
G04 #@! TO.N,/BATT*
X200000000Y-61400000D03*
G04 #@! TO.P,J1,5*
G04 #@! TO.N,GND*
X200000000Y-63940000D03*
G04 #@! TO.P,J1,6*
G04 #@! TO.N,Net-(J1-Pad6)*
X200000000Y-66480000D03*
G04 #@! TD*
D10*
G04 #@! TO.N,/SCLE*
G04 #@! TO.C,J2*
G36*
X209074505Y-64811204D02*
X209098773Y-64814804D01*
X209122572Y-64820765D01*
X209145671Y-64829030D01*
X209167850Y-64839520D01*
X209188893Y-64852132D01*
X209208599Y-64866747D01*
X209226777Y-64883223D01*
X209243253Y-64901401D01*
X209257868Y-64921107D01*
X209270480Y-64942150D01*
X209280970Y-64964329D01*
X209289235Y-64987428D01*
X209295196Y-65011227D01*
X209298796Y-65035495D01*
X209300000Y-65059999D01*
X209300000Y-66300001D01*
X209298796Y-66324505D01*
X209295196Y-66348773D01*
X209289235Y-66372572D01*
X209280970Y-66395671D01*
X209270480Y-66417850D01*
X209257868Y-66438893D01*
X209243253Y-66458599D01*
X209226777Y-66476777D01*
X209208599Y-66493253D01*
X209188893Y-66507868D01*
X209167850Y-66520480D01*
X209145671Y-66530970D01*
X209122572Y-66539235D01*
X209098773Y-66545196D01*
X209074505Y-66548796D01*
X209050001Y-66550000D01*
X207349999Y-66550000D01*
X207325495Y-66548796D01*
X207301227Y-66545196D01*
X207277428Y-66539235D01*
X207254329Y-66530970D01*
X207232150Y-66520480D01*
X207211107Y-66507868D01*
X207191401Y-66493253D01*
X207173223Y-66476777D01*
X207156747Y-66458599D01*
X207142132Y-66438893D01*
X207129520Y-66417850D01*
X207119030Y-66395671D01*
X207110765Y-66372572D01*
X207104804Y-66348773D01*
X207101204Y-66324505D01*
X207100000Y-66300001D01*
X207100000Y-65059999D01*
X207101204Y-65035495D01*
X207104804Y-65011227D01*
X207110765Y-64987428D01*
X207119030Y-64964329D01*
X207129520Y-64942150D01*
X207142132Y-64921107D01*
X207156747Y-64901401D01*
X207173223Y-64883223D01*
X207191401Y-64866747D01*
X207211107Y-64852132D01*
X207232150Y-64839520D01*
X207254329Y-64829030D01*
X207277428Y-64820765D01*
X207301227Y-64814804D01*
X207325495Y-64811204D01*
X207349999Y-64810000D01*
X209050001Y-64810000D01*
X209074505Y-64811204D01*
X209074505Y-64811204D01*
G37*
D12*
G04 #@! TD*
G04 #@! TO.P,J2,1*
G04 #@! TO.N,/SCLE*
X208200000Y-65680000D03*
D13*
G04 #@! TO.P,J2,2*
G04 #@! TO.N,/SDAD*
X208200000Y-63140000D03*
G04 #@! TO.P,J2,3*
G04 #@! TO.N,/+2.8V*
X208200000Y-60600000D03*
G04 #@! TO.P,J2,4*
G04 #@! TO.N,GND*
X208200000Y-58060000D03*
G04 #@! TD*
D10*
G04 #@! TO.N,GND*
G04 #@! TO.C,J3*
G36*
X241474505Y-64871204D02*
X241498773Y-64874804D01*
X241522572Y-64880765D01*
X241545671Y-64889030D01*
X241567850Y-64899520D01*
X241588893Y-64912132D01*
X241608599Y-64926747D01*
X241626777Y-64943223D01*
X241643253Y-64961401D01*
X241657868Y-64981107D01*
X241670480Y-65002150D01*
X241680970Y-65024329D01*
X241689235Y-65047428D01*
X241695196Y-65071227D01*
X241698796Y-65095495D01*
X241700000Y-65119999D01*
X241700000Y-66360001D01*
X241698796Y-66384505D01*
X241695196Y-66408773D01*
X241689235Y-66432572D01*
X241680970Y-66455671D01*
X241670480Y-66477850D01*
X241657868Y-66498893D01*
X241643253Y-66518599D01*
X241626777Y-66536777D01*
X241608599Y-66553253D01*
X241588893Y-66567868D01*
X241567850Y-66580480D01*
X241545671Y-66590970D01*
X241522572Y-66599235D01*
X241498773Y-66605196D01*
X241474505Y-66608796D01*
X241450001Y-66610000D01*
X239749999Y-66610000D01*
X239725495Y-66608796D01*
X239701227Y-66605196D01*
X239677428Y-66599235D01*
X239654329Y-66590970D01*
X239632150Y-66580480D01*
X239611107Y-66567868D01*
X239591401Y-66553253D01*
X239573223Y-66536777D01*
X239556747Y-66518599D01*
X239542132Y-66498893D01*
X239529520Y-66477850D01*
X239519030Y-66455671D01*
X239510765Y-66432572D01*
X239504804Y-66408773D01*
X239501204Y-66384505D01*
X239500000Y-66360001D01*
X239500000Y-65119999D01*
X239501204Y-65095495D01*
X239504804Y-65071227D01*
X239510765Y-65047428D01*
X239519030Y-65024329D01*
X239529520Y-65002150D01*
X239542132Y-64981107D01*
X239556747Y-64961401D01*
X239573223Y-64943223D01*
X239591401Y-64926747D01*
X239611107Y-64912132D01*
X239632150Y-64899520D01*
X239654329Y-64889030D01*
X239677428Y-64880765D01*
X239701227Y-64874804D01*
X239725495Y-64871204D01*
X239749999Y-64870000D01*
X241450001Y-64870000D01*
X241474505Y-64871204D01*
X241474505Y-64871204D01*
G37*
D12*
G04 #@! TD*
G04 #@! TO.P,J3,1*
G04 #@! TO.N,GND*
X240600000Y-65740000D03*
D13*
G04 #@! TO.P,J3,2*
G04 #@! TO.N,/S1*
X240600000Y-63200000D03*
G04 #@! TD*
D14*
G04 #@! TO.P,M1,+*
G04 #@! TO.N,/BATT*
X200549200Y-42250000D03*
G04 #@! TO.P,M1,-*
G04 #@! TO.N,GND*
X238649200Y-42250000D03*
D15*
G04 #@! TO.P,M1,P$4*
G04 #@! TO.N,N/C*
X206848400Y-42250000D03*
G04 #@! TO.P,M1,P$5*
X232350000Y-42250000D03*
G04 #@! TD*
D10*
G04 #@! TO.N,Net-(D1-Pad2)*
G04 #@! TO.C,R1*
G36*
X230774505Y-51901204D02*
X230798773Y-51904804D01*
X230822572Y-51910765D01*
X230845671Y-51919030D01*
X230867850Y-51929520D01*
X230888893Y-51942132D01*
X230908599Y-51956747D01*
X230926777Y-51973223D01*
X230943253Y-51991401D01*
X230957868Y-52011107D01*
X230970480Y-52032150D01*
X230980970Y-52054329D01*
X230989235Y-52077428D01*
X230995196Y-52101227D01*
X230998796Y-52125495D01*
X231000000Y-52149999D01*
X231000000Y-53050001D01*
X230998796Y-53074505D01*
X230995196Y-53098773D01*
X230989235Y-53122572D01*
X230980970Y-53145671D01*
X230970480Y-53167850D01*
X230957868Y-53188893D01*
X230943253Y-53208599D01*
X230926777Y-53226777D01*
X230908599Y-53243253D01*
X230888893Y-53257868D01*
X230867850Y-53270480D01*
X230845671Y-53280970D01*
X230822572Y-53289235D01*
X230798773Y-53295196D01*
X230774505Y-53298796D01*
X230750001Y-53300000D01*
X230099999Y-53300000D01*
X230075495Y-53298796D01*
X230051227Y-53295196D01*
X230027428Y-53289235D01*
X230004329Y-53280970D01*
X229982150Y-53270480D01*
X229961107Y-53257868D01*
X229941401Y-53243253D01*
X229923223Y-53226777D01*
X229906747Y-53208599D01*
X229892132Y-53188893D01*
X229879520Y-53167850D01*
X229869030Y-53145671D01*
X229860765Y-53122572D01*
X229854804Y-53098773D01*
X229851204Y-53074505D01*
X229850000Y-53050001D01*
X229850000Y-52149999D01*
X229851204Y-52125495D01*
X229854804Y-52101227D01*
X229860765Y-52077428D01*
X229869030Y-52054329D01*
X229879520Y-52032150D01*
X229892132Y-52011107D01*
X229906747Y-51991401D01*
X229923223Y-51973223D01*
X229941401Y-51956747D01*
X229961107Y-51942132D01*
X229982150Y-51929520D01*
X230004329Y-51919030D01*
X230027428Y-51910765D01*
X230051227Y-51904804D01*
X230075495Y-51901204D01*
X230099999Y-51900000D01*
X230750001Y-51900000D01*
X230774505Y-51901204D01*
X230774505Y-51901204D01*
G37*
D16*
G04 #@! TD*
G04 #@! TO.P,R1,1*
G04 #@! TO.N,Net-(D1-Pad2)*
X230425000Y-52600000D03*
D10*
G04 #@! TO.N,/LED*
G04 #@! TO.C,R1*
G36*
X228724505Y-51901204D02*
X228748773Y-51904804D01*
X228772572Y-51910765D01*
X228795671Y-51919030D01*
X228817850Y-51929520D01*
X228838893Y-51942132D01*
X228858599Y-51956747D01*
X228876777Y-51973223D01*
X228893253Y-51991401D01*
X228907868Y-52011107D01*
X228920480Y-52032150D01*
X228930970Y-52054329D01*
X228939235Y-52077428D01*
X228945196Y-52101227D01*
X228948796Y-52125495D01*
X228950000Y-52149999D01*
X228950000Y-53050001D01*
X228948796Y-53074505D01*
X228945196Y-53098773D01*
X228939235Y-53122572D01*
X228930970Y-53145671D01*
X228920480Y-53167850D01*
X228907868Y-53188893D01*
X228893253Y-53208599D01*
X228876777Y-53226777D01*
X228858599Y-53243253D01*
X228838893Y-53257868D01*
X228817850Y-53270480D01*
X228795671Y-53280970D01*
X228772572Y-53289235D01*
X228748773Y-53295196D01*
X228724505Y-53298796D01*
X228700001Y-53300000D01*
X228049999Y-53300000D01*
X228025495Y-53298796D01*
X228001227Y-53295196D01*
X227977428Y-53289235D01*
X227954329Y-53280970D01*
X227932150Y-53270480D01*
X227911107Y-53257868D01*
X227891401Y-53243253D01*
X227873223Y-53226777D01*
X227856747Y-53208599D01*
X227842132Y-53188893D01*
X227829520Y-53167850D01*
X227819030Y-53145671D01*
X227810765Y-53122572D01*
X227804804Y-53098773D01*
X227801204Y-53074505D01*
X227800000Y-53050001D01*
X227800000Y-52149999D01*
X227801204Y-52125495D01*
X227804804Y-52101227D01*
X227810765Y-52077428D01*
X227819030Y-52054329D01*
X227829520Y-52032150D01*
X227842132Y-52011107D01*
X227856747Y-51991401D01*
X227873223Y-51973223D01*
X227891401Y-51956747D01*
X227911107Y-51942132D01*
X227932150Y-51929520D01*
X227954329Y-51919030D01*
X227977428Y-51910765D01*
X228001227Y-51904804D01*
X228025495Y-51901204D01*
X228049999Y-51900000D01*
X228700001Y-51900000D01*
X228724505Y-51901204D01*
X228724505Y-51901204D01*
G37*
D16*
G04 #@! TD*
G04 #@! TO.P,R1,2*
G04 #@! TO.N,/LED*
X228375000Y-52600000D03*
D10*
G04 #@! TO.N,/VOUT*
G04 #@! TO.C,R5*
G36*
X233899505Y-73901204D02*
X233923773Y-73904804D01*
X233947572Y-73910765D01*
X233970671Y-73919030D01*
X233992850Y-73929520D01*
X234013893Y-73942132D01*
X234033599Y-73956747D01*
X234051777Y-73973223D01*
X234068253Y-73991401D01*
X234082868Y-74011107D01*
X234095480Y-74032150D01*
X234105970Y-74054329D01*
X234114235Y-74077428D01*
X234120196Y-74101227D01*
X234123796Y-74125495D01*
X234125000Y-74149999D01*
X234125000Y-75050001D01*
X234123796Y-75074505D01*
X234120196Y-75098773D01*
X234114235Y-75122572D01*
X234105970Y-75145671D01*
X234095480Y-75167850D01*
X234082868Y-75188893D01*
X234068253Y-75208599D01*
X234051777Y-75226777D01*
X234033599Y-75243253D01*
X234013893Y-75257868D01*
X233992850Y-75270480D01*
X233970671Y-75280970D01*
X233947572Y-75289235D01*
X233923773Y-75295196D01*
X233899505Y-75298796D01*
X233875001Y-75300000D01*
X233224999Y-75300000D01*
X233200495Y-75298796D01*
X233176227Y-75295196D01*
X233152428Y-75289235D01*
X233129329Y-75280970D01*
X233107150Y-75270480D01*
X233086107Y-75257868D01*
X233066401Y-75243253D01*
X233048223Y-75226777D01*
X233031747Y-75208599D01*
X233017132Y-75188893D01*
X233004520Y-75167850D01*
X232994030Y-75145671D01*
X232985765Y-75122572D01*
X232979804Y-75098773D01*
X232976204Y-75074505D01*
X232975000Y-75050001D01*
X232975000Y-74149999D01*
X232976204Y-74125495D01*
X232979804Y-74101227D01*
X232985765Y-74077428D01*
X232994030Y-74054329D01*
X233004520Y-74032150D01*
X233017132Y-74011107D01*
X233031747Y-73991401D01*
X233048223Y-73973223D01*
X233066401Y-73956747D01*
X233086107Y-73942132D01*
X233107150Y-73929520D01*
X233129329Y-73919030D01*
X233152428Y-73910765D01*
X233176227Y-73904804D01*
X233200495Y-73901204D01*
X233224999Y-73900000D01*
X233875001Y-73900000D01*
X233899505Y-73901204D01*
X233899505Y-73901204D01*
G37*
D16*
G04 #@! TD*
G04 #@! TO.P,R5,1*
G04 #@! TO.N,/VOUT*
X233550000Y-74600000D03*
D10*
G04 #@! TO.N,Net-(R3-Pad1)*
G04 #@! TO.C,R5*
G36*
X235949505Y-73901204D02*
X235973773Y-73904804D01*
X235997572Y-73910765D01*
X236020671Y-73919030D01*
X236042850Y-73929520D01*
X236063893Y-73942132D01*
X236083599Y-73956747D01*
X236101777Y-73973223D01*
X236118253Y-73991401D01*
X236132868Y-74011107D01*
X236145480Y-74032150D01*
X236155970Y-74054329D01*
X236164235Y-74077428D01*
X236170196Y-74101227D01*
X236173796Y-74125495D01*
X236175000Y-74149999D01*
X236175000Y-75050001D01*
X236173796Y-75074505D01*
X236170196Y-75098773D01*
X236164235Y-75122572D01*
X236155970Y-75145671D01*
X236145480Y-75167850D01*
X236132868Y-75188893D01*
X236118253Y-75208599D01*
X236101777Y-75226777D01*
X236083599Y-75243253D01*
X236063893Y-75257868D01*
X236042850Y-75270480D01*
X236020671Y-75280970D01*
X235997572Y-75289235D01*
X235973773Y-75295196D01*
X235949505Y-75298796D01*
X235925001Y-75300000D01*
X235274999Y-75300000D01*
X235250495Y-75298796D01*
X235226227Y-75295196D01*
X235202428Y-75289235D01*
X235179329Y-75280970D01*
X235157150Y-75270480D01*
X235136107Y-75257868D01*
X235116401Y-75243253D01*
X235098223Y-75226777D01*
X235081747Y-75208599D01*
X235067132Y-75188893D01*
X235054520Y-75167850D01*
X235044030Y-75145671D01*
X235035765Y-75122572D01*
X235029804Y-75098773D01*
X235026204Y-75074505D01*
X235025000Y-75050001D01*
X235025000Y-74149999D01*
X235026204Y-74125495D01*
X235029804Y-74101227D01*
X235035765Y-74077428D01*
X235044030Y-74054329D01*
X235054520Y-74032150D01*
X235067132Y-74011107D01*
X235081747Y-73991401D01*
X235098223Y-73973223D01*
X235116401Y-73956747D01*
X235136107Y-73942132D01*
X235157150Y-73929520D01*
X235179329Y-73919030D01*
X235202428Y-73910765D01*
X235226227Y-73904804D01*
X235250495Y-73901204D01*
X235274999Y-73900000D01*
X235925001Y-73900000D01*
X235949505Y-73901204D01*
X235949505Y-73901204D01*
G37*
D16*
G04 #@! TD*
G04 #@! TO.P,R5,2*
G04 #@! TO.N,Net-(R3-Pad1)*
X235600000Y-74600000D03*
D17*
G04 #@! TO.P,U2,1*
G04 #@! TO.N,Net-(U2-Pad1)*
X234300000Y-65905000D03*
G04 #@! TO.P,U2,2*
G04 #@! TO.N,/S1*
X234300000Y-64635000D03*
G04 #@! TO.P,U2,3*
G04 #@! TO.N,GND*
X234300000Y-63365000D03*
G04 #@! TO.P,U2,4*
G04 #@! TO.N,/-2.8V*
X234300000Y-62095000D03*
G04 #@! TO.P,U2,5*
G04 #@! TO.N,Net-(U2-Pad5)*
X228900000Y-62095000D03*
G04 #@! TO.P,U2,6*
G04 #@! TO.N,Net-(C3-Pad1)*
X228900000Y-63365000D03*
G04 #@! TO.P,U2,7*
G04 #@! TO.N,/+2.8V*
X228900000Y-64635000D03*
G04 #@! TO.P,U2,8*
G04 #@! TO.N,Net-(U2-Pad8)*
X228900000Y-65905000D03*
G04 #@! TD*
G04 #@! TO.P,U3,8*
G04 #@! TO.N,Net-(U3-Pad8)*
X228800000Y-72810000D03*
G04 #@! TO.P,U3,7*
G04 #@! TO.N,/+2.8V*
X228800000Y-71540000D03*
G04 #@! TO.P,U3,6*
G04 #@! TO.N,/VOUT*
X228800000Y-70270000D03*
G04 #@! TO.P,U3,5*
G04 #@! TO.N,Net-(U3-Pad5)*
X228800000Y-69000000D03*
G04 #@! TO.P,U3,4*
G04 #@! TO.N,/-2.8V*
X234200000Y-69000000D03*
G04 #@! TO.P,U3,3*
G04 #@! TO.N,GND*
X234200000Y-70270000D03*
G04 #@! TO.P,U3,2*
G04 #@! TO.N,Net-(R3-Pad1)*
X234200000Y-71540000D03*
G04 #@! TO.P,U3,1*
G04 #@! TO.N,Net-(U3-Pad1)*
X234200000Y-72810000D03*
G04 #@! TD*
D18*
G04 #@! TO.P,U5,1*
G04 #@! TO.N,Net-(U5-Pad1)*
X225300000Y-64500000D03*
G04 #@! TO.P,U5,2*
G04 #@! TO.N,Net-(U5-Pad2)*
X225300000Y-63700000D03*
G04 #@! TO.P,U5,3*
G04 #@! TO.N,Net-(U5-Pad3)*
X225300000Y-62900000D03*
G04 #@! TO.P,U5,4*
G04 #@! TO.N,Net-(U5-Pad4)*
X225300000Y-62100000D03*
G04 #@! TO.P,U5,5*
G04 #@! TO.N,Net-(U5-Pad5)*
X225300000Y-61300000D03*
G04 #@! TO.P,U5,6*
G04 #@! TO.N,Net-(U5-Pad6)*
X225300000Y-60500000D03*
G04 #@! TO.P,U5,7*
G04 #@! TO.N,Net-(U5-Pad7)*
X225300000Y-59700000D03*
G04 #@! TO.P,U5,8*
G04 #@! TO.N,GND*
X225300000Y-58900000D03*
G04 #@! TO.P,U5,9*
G04 #@! TO.N,Net-(C7-Pad1)*
X225300000Y-58100000D03*
G04 #@! TO.P,U5,10*
G04 #@! TO.N,/LED*
X225300000Y-57300000D03*
G04 #@! TO.P,U5,11*
G04 #@! TO.N,Net-(U5-Pad11)*
X225300000Y-56500000D03*
D19*
G04 #@! TO.P,U5,12*
G04 #@! TO.N,Net-(U5-Pad12)*
X223600000Y-54800000D03*
G04 #@! TO.P,U5,13*
G04 #@! TO.N,Net-(U5-Pad13)*
X222800000Y-54800000D03*
G04 #@! TO.P,U5,14*
G04 #@! TO.N,Net-(U5-Pad14)*
X222000000Y-54800000D03*
G04 #@! TO.P,U5,15*
G04 #@! TO.N,Net-(U5-Pad15)*
X221200000Y-54800000D03*
G04 #@! TO.P,U5,16*
G04 #@! TO.N,Net-(U5-Pad16)*
X220400000Y-54800000D03*
G04 #@! TO.P,U5,17*
G04 #@! TO.N,Net-(U5-Pad17)*
X219600000Y-54800000D03*
G04 #@! TO.P,U5,18*
G04 #@! TO.N,GND*
X218800000Y-54800000D03*
G04 #@! TO.P,U5,19*
G04 #@! TO.N,Net-(C7-Pad1)*
X218000000Y-54800000D03*
G04 #@! TO.P,U5,20*
G04 #@! TO.N,Net-(U5-Pad20)*
X217200000Y-54800000D03*
G04 #@! TO.P,U5,21*
G04 #@! TO.N,Net-(U5-Pad21)*
X216400000Y-54800000D03*
G04 #@! TO.P,U5,22*
G04 #@! TO.N,/RXD*
X215600000Y-54800000D03*
D18*
G04 #@! TO.P,U5,23*
G04 #@! TO.N,/TXD*
X213900000Y-56500000D03*
G04 #@! TO.P,U5,24*
G04 #@! TO.N,Net-(U5-Pad24)*
X213900000Y-57300000D03*
G04 #@! TO.P,U5,25*
G04 #@! TO.N,Net-(U5-Pad25)*
X213900000Y-58100000D03*
G04 #@! TO.P,U5,26*
G04 #@! TO.N,Net-(U5-Pad26)*
X213900000Y-58900000D03*
G04 #@! TO.P,U5,27*
G04 #@! TO.N,Net-(U5-Pad27)*
X213900000Y-59700000D03*
G04 #@! TO.P,U5,28*
G04 #@! TO.N,/SDAD*
X213900000Y-60500000D03*
G04 #@! TO.P,U5,29*
G04 #@! TO.N,/SCLE*
X213900000Y-61300000D03*
G04 #@! TO.P,U5,30*
G04 #@! TO.N,GND*
X213900000Y-62100000D03*
G04 #@! TO.P,U5,31*
G04 #@! TO.N,Net-(C7-Pad1)*
X213900000Y-62900000D03*
G04 #@! TO.P,U5,32*
G04 #@! TO.N,Net-(U5-Pad32)*
X213900000Y-63700000D03*
G04 #@! TO.P,U5,33*
G04 #@! TO.N,Net-(U5-Pad33)*
X213900000Y-64500000D03*
D19*
G04 #@! TO.P,U5,34*
G04 #@! TO.N,/PDI-DATA*
X215600000Y-66200000D03*
G04 #@! TO.P,U5,35*
G04 #@! TO.N,/PDI-CLK*
X216400000Y-66200000D03*
G04 #@! TO.P,U5,36*
G04 #@! TO.N,Net-(U5-Pad36)*
X217200000Y-66200000D03*
G04 #@! TO.P,U5,37*
G04 #@! TO.N,Net-(U5-Pad37)*
X218000000Y-66200000D03*
G04 #@! TO.P,U5,38*
G04 #@! TO.N,GND*
X218800000Y-66200000D03*
G04 #@! TO.P,U5,39*
G04 #@! TO.N,Net-(C10-Pad2)*
X219600000Y-66200000D03*
G04 #@! TO.P,U5,40*
G04 #@! TO.N,Net-(U5-Pad40)*
X220400000Y-66200000D03*
G04 #@! TO.P,U5,41*
G04 #@! TO.N,/VOUT*
X221200000Y-66200000D03*
G04 #@! TO.P,U5,42*
G04 #@! TO.N,Net-(U5-Pad42)*
X222000000Y-66200000D03*
G04 #@! TO.P,U5,43*
G04 #@! TO.N,Net-(U5-Pad43)*
X222800000Y-66200000D03*
G04 #@! TO.P,U5,44*
G04 #@! TO.N,Net-(U5-Pad44)*
X223600000Y-66200000D03*
G04 #@! TD*
D20*
G04 #@! TO.P,J4,1*
G04 #@! TO.N,/PDI-DATA*
X239460000Y-54400000D03*
D21*
G04 #@! TO.P,J4,2*
G04 #@! TO.N,/+2.8V*
X242000000Y-54400000D03*
G04 #@! TO.P,J4,3*
G04 #@! TO.N,Net-(J4-Pad3)*
X239460000Y-56940000D03*
G04 #@! TO.P,J4,4*
G04 #@! TO.N,Net-(J4-Pad4)*
X242000000Y-56940000D03*
G04 #@! TO.P,J4,5*
G04 #@! TO.N,/PDI-CLK*
X239460000Y-59480000D03*
G04 #@! TO.P,J4,6*
G04 #@! TO.N,GND*
X242000000Y-59480000D03*
G04 #@! TD*
D22*
G04 #@! TO.N,/-2.8V*
X238000000Y-69800000D03*
G04 #@! TO.N,GND*
X236400000Y-64000000D03*
X199600000Y-48600000D03*
X214400000Y-41600000D03*
X236400000Y-66600000D03*
X221600000Y-56800000D03*
X221800000Y-59000000D03*
X217000000Y-63800000D03*
X216000000Y-60200000D03*
G04 #@! TO.N,/+2.8V*
X226000000Y-71540000D03*
X226600000Y-68800000D03*
G04 #@! TO.N,Net-(C3-Pad1)*
X231600000Y-65400000D03*
G04 #@! TO.N,Net-(C7-Pad1)*
X217600000Y-52600000D03*
G04 #@! TO.N,Net-(C10-Pad2)*
X219400000Y-64000000D03*
G04 #@! TO.N,/RXD*
X203200000Y-55000000D03*
G04 #@! TO.N,/PDI-DATA*
X215600000Y-68000000D03*
G04 #@! TO.N,/PDI-CLK*
X216800000Y-68000000D03*
G04 #@! TO.N,Net-(R3-Pad1)*
X231600000Y-70400000D03*
G04 #@! TD*
D23*
G04 #@! TO.N,/-2.8V*
X238000000Y-69800000D02*
X242800000Y-69800000D01*
X242800000Y-69800000D02*
X243000000Y-69600000D01*
X243000000Y-69600000D02*
X243000000Y-62600000D01*
X235325000Y-62095000D02*
X234300000Y-62095000D01*
X236634315Y-69000000D02*
X235225000Y-69000000D01*
X237434315Y-69800000D02*
X236634315Y-69000000D01*
X235225000Y-69000000D02*
X234200000Y-69000000D01*
X238000000Y-69800000D02*
X237434315Y-69800000D01*
X235620000Y-61800000D02*
X242200000Y-61800000D01*
X242200000Y-61800000D02*
X243000000Y-62600000D01*
X235325000Y-62095000D02*
X235620000Y-61800000D01*
G04 #@! TO.N,GND*
X234300000Y-63365000D02*
X235765000Y-63365000D01*
X235765000Y-63365000D02*
X236400000Y-64000000D01*
X219800000Y-56800000D02*
X221600000Y-56800000D01*
X218800000Y-54800000D02*
X218800000Y-55800000D01*
X218800000Y-55800000D02*
X219800000Y-56800000D01*
X225200000Y-59000000D02*
X225300000Y-58900000D01*
X221800000Y-59000000D02*
X225200000Y-59000000D01*
X217400000Y-63800000D02*
X217000000Y-63800000D01*
X218800000Y-66200000D02*
X218800000Y-65200000D01*
X218800000Y-65200000D02*
X217400000Y-63800000D01*
X214900000Y-62100000D02*
X213900000Y-62100000D01*
X216000000Y-61000000D02*
X214900000Y-62100000D01*
X216000000Y-60200000D02*
X216000000Y-61000000D01*
G04 #@! TO.N,/+2.8V*
X206774990Y-61795010D02*
X206774990Y-68774990D01*
X208200000Y-60600000D02*
X207970000Y-60600000D01*
X207970000Y-60600000D02*
X206774990Y-61795010D01*
X209540000Y-71540000D02*
X226000000Y-71540000D01*
X206774990Y-68774990D02*
X209540000Y-71540000D01*
X226000000Y-71540000D02*
X228800000Y-71540000D01*
X226600000Y-68800000D02*
X226600000Y-65600000D01*
X227565000Y-64635000D02*
X228900000Y-64635000D01*
X226600000Y-65600000D02*
X227565000Y-64635000D01*
G04 #@! TO.N,Net-(C3-Pad1)*
X231600000Y-65400000D02*
X231600000Y-63800000D01*
X231165000Y-63365000D02*
X228900000Y-63365000D01*
X231600000Y-63800000D02*
X231165000Y-63365000D01*
G04 #@! TO.N,/S1*
X239250000Y-63200000D02*
X237450000Y-65000000D01*
X240600000Y-63200000D02*
X239250000Y-63200000D01*
X235325000Y-64635000D02*
X234300000Y-64635000D01*
X235690000Y-65000000D02*
X235325000Y-64635000D01*
X237450000Y-65000000D02*
X235690000Y-65000000D01*
G04 #@! TO.N,Net-(C7-Pad1)*
X218000000Y-53000000D02*
X218000000Y-54800000D01*
X217600000Y-52600000D02*
X218000000Y-53000000D01*
X218000000Y-54800000D02*
X218000000Y-55800000D01*
X214900000Y-62900000D02*
X213900000Y-62900000D01*
X218000000Y-59800000D02*
X214900000Y-62900000D01*
X218000000Y-54800000D02*
X218000000Y-59800000D01*
X219700000Y-58100000D02*
X218000000Y-59800000D01*
X225300000Y-58100000D02*
X219700000Y-58100000D01*
G04 #@! TO.N,Net-(C10-Pad2)*
X219400000Y-66000000D02*
X219600000Y-66200000D01*
X219400000Y-64000000D02*
X219400000Y-66000000D01*
G04 #@! TO.N,Net-(D1-Pad2)*
X232000000Y-52600000D02*
X232800000Y-53400000D01*
X230425000Y-52600000D02*
X232000000Y-52600000D01*
G04 #@! TO.N,/TXD*
X213720000Y-56320000D02*
X213900000Y-56500000D01*
X200000000Y-56320000D02*
X213720000Y-56320000D01*
G04 #@! TO.N,/RXD*
X215400000Y-55000000D02*
X215600000Y-54800000D01*
X203200000Y-55000000D02*
X215400000Y-55000000D01*
G04 #@! TO.N,/SCLE*
X209139773Y-64740227D02*
X209139773Y-64660227D01*
X208200000Y-65680000D02*
X209139773Y-64740227D01*
X212500000Y-61300000D02*
X213900000Y-61300000D01*
X209139773Y-64660227D02*
X212500000Y-61300000D01*
G04 #@! TO.N,/SDAD*
X212900000Y-60500000D02*
X213900000Y-60500000D01*
X211070000Y-60500000D02*
X212900000Y-60500000D01*
X208430000Y-63140000D02*
X211070000Y-60500000D01*
X208200000Y-63140000D02*
X208430000Y-63140000D01*
G04 #@! TO.N,/PDI-DATA*
X215600000Y-68000000D02*
X215600000Y-66200000D01*
G04 #@! TO.N,/PDI-CLK*
X216400000Y-67600000D02*
X216400000Y-66200000D01*
X216800000Y-68000000D02*
X216400000Y-67600000D01*
G04 #@! TO.N,/LED*
X228375000Y-53400000D02*
X228375000Y-52600000D01*
X228375000Y-55225000D02*
X228375000Y-53400000D01*
X226300000Y-57300000D02*
X228375000Y-55225000D01*
X225300000Y-57300000D02*
X226300000Y-57300000D01*
G04 #@! TO.N,Net-(R3-Pad1)*
X232740000Y-71540000D02*
X234200000Y-71540000D01*
X231600000Y-70400000D02*
X232740000Y-71540000D01*
X235600000Y-72465000D02*
X235600000Y-73800000D01*
X234675000Y-71540000D02*
X235600000Y-72465000D01*
X235600000Y-73800000D02*
X235600000Y-74600000D01*
X234200000Y-71540000D02*
X234675000Y-71540000D01*
G04 #@! TO.N,/VOUT*
X229275000Y-70270000D02*
X228800000Y-70270000D01*
X233550000Y-73800000D02*
X230020000Y-70270000D01*
X229825000Y-70270000D02*
X228800000Y-70270000D01*
X230020000Y-70270000D02*
X229825000Y-70270000D01*
X233550000Y-74600000D02*
X233550000Y-73800000D01*
X227775000Y-70270000D02*
X228800000Y-70270000D01*
X224270000Y-70270000D02*
X227775000Y-70270000D01*
X221200000Y-67200000D02*
X224270000Y-70270000D01*
X221200000Y-66200000D02*
X221200000Y-67200000D01*
G04 #@! TD*
D24*
G04 #@! TO.N,GND*
G36*
X243490000Y-54278883D02*
X243398839Y-53820582D01*
X243070625Y-53329375D01*
X242579418Y-53001161D01*
X242146256Y-52915000D01*
X241853744Y-52915000D01*
X241420582Y-53001161D01*
X240929375Y-53329375D01*
X240917184Y-53347619D01*
X240908157Y-53302235D01*
X240767809Y-53092191D01*
X240557765Y-52951843D01*
X240310000Y-52902560D01*
X238610000Y-52902560D01*
X238362235Y-52951843D01*
X238152191Y-53092191D01*
X238011843Y-53302235D01*
X237962560Y-53550000D01*
X237962560Y-55250000D01*
X238011843Y-55497765D01*
X238152191Y-55707809D01*
X238362235Y-55848157D01*
X238407619Y-55857184D01*
X238389375Y-55869375D01*
X238061161Y-56360582D01*
X237945908Y-56940000D01*
X238061161Y-57519418D01*
X238389375Y-58010625D01*
X238687761Y-58210000D01*
X238389375Y-58409375D01*
X238061161Y-58900582D01*
X237945908Y-59480000D01*
X238061161Y-60059418D01*
X238389375Y-60550625D01*
X238880582Y-60878839D01*
X239313744Y-60965000D01*
X239606256Y-60965000D01*
X240039418Y-60878839D01*
X240530625Y-60550625D01*
X240731353Y-60250214D01*
X241118642Y-60675183D01*
X241643108Y-60921486D01*
X241873000Y-60800819D01*
X241873000Y-59607000D01*
X242127000Y-59607000D01*
X242127000Y-60800819D01*
X242356892Y-60921486D01*
X242881358Y-60675183D01*
X243271645Y-60246924D01*
X243441476Y-59836890D01*
X243320155Y-59607000D01*
X242127000Y-59607000D01*
X241873000Y-59607000D01*
X241853000Y-59607000D01*
X241853000Y-59353000D01*
X241873000Y-59353000D01*
X241873000Y-59333000D01*
X242127000Y-59333000D01*
X242127000Y-59353000D01*
X243320155Y-59353000D01*
X243441476Y-59123110D01*
X243271645Y-58713076D01*
X242881358Y-58284817D01*
X242751522Y-58223843D01*
X243070625Y-58010625D01*
X243398839Y-57519418D01*
X243490000Y-57061117D01*
X243490001Y-62013364D01*
X243484473Y-62009671D01*
X242790331Y-61315530D01*
X242747929Y-61252071D01*
X242496537Y-61084096D01*
X242274852Y-61040000D01*
X242274847Y-61040000D01*
X242200000Y-61025112D01*
X242125153Y-61040000D01*
X235694846Y-61040000D01*
X235619999Y-61025112D01*
X235545152Y-61040000D01*
X235545148Y-61040000D01*
X235323463Y-61084096D01*
X235193274Y-61171086D01*
X235075000Y-61147560D01*
X233525000Y-61147560D01*
X233277235Y-61196843D01*
X233067191Y-61337191D01*
X232926843Y-61547235D01*
X232877560Y-61795000D01*
X232877560Y-62395000D01*
X232926843Y-62642765D01*
X232979768Y-62721972D01*
X232890000Y-62938690D01*
X232890000Y-63079250D01*
X233048750Y-63238000D01*
X234173000Y-63238000D01*
X234173000Y-63218000D01*
X234427000Y-63218000D01*
X234427000Y-63238000D01*
X235551250Y-63238000D01*
X235710000Y-63079250D01*
X235710000Y-62938690D01*
X235649367Y-62792309D01*
X235872929Y-62642929D01*
X235915331Y-62579470D01*
X235934801Y-62560000D01*
X238839864Y-62560000D01*
X238765526Y-62609671D01*
X238765524Y-62609673D01*
X238702071Y-62652071D01*
X238659673Y-62715524D01*
X237135199Y-64240000D01*
X236004801Y-64240000D01*
X235915331Y-64150530D01*
X235872929Y-64087071D01*
X235649367Y-63937691D01*
X235710000Y-63791310D01*
X235710000Y-63650750D01*
X235551250Y-63492000D01*
X234427000Y-63492000D01*
X234427000Y-63512000D01*
X234173000Y-63512000D01*
X234173000Y-63492000D01*
X233048750Y-63492000D01*
X232890000Y-63650750D01*
X232890000Y-63791310D01*
X232979768Y-64008028D01*
X232926843Y-64087235D01*
X232877560Y-64335000D01*
X232877560Y-64935000D01*
X232926843Y-65182765D01*
X232985132Y-65270000D01*
X232926843Y-65357235D01*
X232877560Y-65605000D01*
X232877560Y-66205000D01*
X232926843Y-66452765D01*
X233067191Y-66662809D01*
X233277235Y-66803157D01*
X233525000Y-66852440D01*
X235075000Y-66852440D01*
X235322765Y-66803157D01*
X235532809Y-66662809D01*
X235673157Y-66452765D01*
X235722440Y-66205000D01*
X235722440Y-66025750D01*
X238865000Y-66025750D01*
X238865000Y-66736309D01*
X238961673Y-66969698D01*
X239140301Y-67148327D01*
X239373690Y-67245000D01*
X240314250Y-67245000D01*
X240473000Y-67086250D01*
X240473000Y-65867000D01*
X239023750Y-65867000D01*
X238865000Y-66025750D01*
X235722440Y-66025750D01*
X235722440Y-65768435D01*
X235764847Y-65760000D01*
X237375153Y-65760000D01*
X237450000Y-65774888D01*
X237524847Y-65760000D01*
X237524852Y-65760000D01*
X237746537Y-65715904D01*
X237997929Y-65547929D01*
X238040331Y-65484470D01*
X238924319Y-64600483D01*
X238865000Y-64743691D01*
X238865000Y-65454250D01*
X239023750Y-65613000D01*
X240473000Y-65613000D01*
X240473000Y-65593000D01*
X240727000Y-65593000D01*
X240727000Y-65613000D01*
X240747000Y-65613000D01*
X240747000Y-65867000D01*
X240727000Y-65867000D01*
X240727000Y-67086250D01*
X240885750Y-67245000D01*
X241826310Y-67245000D01*
X242059699Y-67148327D01*
X242238327Y-66969698D01*
X242240000Y-66965658D01*
X242240000Y-69040000D01*
X238703711Y-69040000D01*
X238586280Y-68922569D01*
X238205874Y-68765000D01*
X237794126Y-68765000D01*
X237567845Y-68858728D01*
X237224646Y-68515530D01*
X237182244Y-68452071D01*
X236930852Y-68284096D01*
X236709167Y-68240000D01*
X236709162Y-68240000D01*
X236634315Y-68225112D01*
X236559468Y-68240000D01*
X235429530Y-68240000D01*
X235222765Y-68101843D01*
X234975000Y-68052560D01*
X233425000Y-68052560D01*
X233177235Y-68101843D01*
X232967191Y-68242191D01*
X232826843Y-68452235D01*
X232777560Y-68700000D01*
X232777560Y-69300000D01*
X232826843Y-69547765D01*
X232879768Y-69626972D01*
X232790000Y-69843690D01*
X232790000Y-69984250D01*
X232948750Y-70143000D01*
X234073000Y-70143000D01*
X234073000Y-70123000D01*
X234327000Y-70123000D01*
X234327000Y-70143000D01*
X235451250Y-70143000D01*
X235610000Y-69984250D01*
X235610000Y-69843690D01*
X235575334Y-69760000D01*
X236319514Y-69760000D01*
X236843986Y-70284473D01*
X236886386Y-70347929D01*
X236949842Y-70390329D01*
X237137777Y-70515904D01*
X237185920Y-70525480D01*
X237280603Y-70544314D01*
X237413720Y-70677431D01*
X237794126Y-70835000D01*
X238205874Y-70835000D01*
X238586280Y-70677431D01*
X238703711Y-70560000D01*
X242725153Y-70560000D01*
X242800000Y-70574888D01*
X242874847Y-70560000D01*
X242874852Y-70560000D01*
X243096537Y-70515904D01*
X243347929Y-70347929D01*
X243390331Y-70284470D01*
X243484470Y-70190331D01*
X243490001Y-70186635D01*
X243490001Y-80873071D01*
X243369664Y-80582552D01*
X242417448Y-79630336D01*
X241173318Y-79115000D01*
X239826682Y-79115000D01*
X238582552Y-79630336D01*
X237630336Y-80582552D01*
X237115000Y-81826682D01*
X237115000Y-83173318D01*
X237630336Y-84417448D01*
X238582552Y-85369664D01*
X239826682Y-85885000D01*
X241173318Y-85885000D01*
X242417448Y-85369664D01*
X243369664Y-84417448D01*
X243490001Y-84126929D01*
X243490001Y-86301925D01*
X243465000Y-86427613D01*
X243465001Y-89290000D01*
X195735000Y-89290000D01*
X195735000Y-86427612D01*
X195710000Y-86301929D01*
X195710000Y-83402668D01*
X196130336Y-84417448D01*
X197082552Y-85369664D01*
X198326682Y-85885000D01*
X199673318Y-85885000D01*
X200917448Y-85369664D01*
X201869664Y-84417448D01*
X202385000Y-83173318D01*
X202385000Y-81826682D01*
X216615000Y-81826682D01*
X216615000Y-83173318D01*
X217130336Y-84417448D01*
X218082552Y-85369664D01*
X219326682Y-85885000D01*
X220673318Y-85885000D01*
X221917448Y-85369664D01*
X222869664Y-84417448D01*
X223385000Y-83173318D01*
X223385000Y-81826682D01*
X222869664Y-80582552D01*
X221917448Y-79630336D01*
X220673318Y-79115000D01*
X219326682Y-79115000D01*
X218082552Y-79630336D01*
X217130336Y-80582552D01*
X216615000Y-81826682D01*
X202385000Y-81826682D01*
X201869664Y-80582552D01*
X200917448Y-79630336D01*
X199673318Y-79115000D01*
X198326682Y-79115000D01*
X197082552Y-79630336D01*
X196130336Y-80582552D01*
X195710000Y-81597332D01*
X195710000Y-66480000D01*
X198235516Y-66480000D01*
X198352322Y-67067222D01*
X198684956Y-67565044D01*
X199182778Y-67897678D01*
X199621774Y-67985000D01*
X200378226Y-67985000D01*
X200817222Y-67897678D01*
X201315044Y-67565044D01*
X201647678Y-67067222D01*
X201764484Y-66480000D01*
X201647678Y-65892778D01*
X201315044Y-65394956D01*
X201027523Y-65202840D01*
X201390533Y-64910491D01*
X201673584Y-64392500D01*
X201691302Y-64300031D01*
X201570246Y-64067000D01*
X200127000Y-64067000D01*
X200127000Y-64087000D01*
X199873000Y-64087000D01*
X199873000Y-64067000D01*
X198429754Y-64067000D01*
X198308698Y-64300031D01*
X198326416Y-64392500D01*
X198609467Y-64910491D01*
X198972477Y-65202840D01*
X198684956Y-65394956D01*
X198352322Y-65892778D01*
X198235516Y-66480000D01*
X195710000Y-66480000D01*
X195710000Y-56320000D01*
X198235516Y-56320000D01*
X198352322Y-56907222D01*
X198684956Y-57405044D01*
X198961762Y-57590000D01*
X198684956Y-57774956D01*
X198352322Y-58272778D01*
X198235516Y-58860000D01*
X198352322Y-59447222D01*
X198684956Y-59945044D01*
X198961762Y-60130000D01*
X198684956Y-60314956D01*
X198352322Y-60812778D01*
X198235516Y-61400000D01*
X198352322Y-61987222D01*
X198684956Y-62485044D01*
X198972477Y-62677160D01*
X198609467Y-62969509D01*
X198326416Y-63487500D01*
X198308698Y-63579969D01*
X198429754Y-63813000D01*
X199873000Y-63813000D01*
X199873000Y-63793000D01*
X200127000Y-63793000D01*
X200127000Y-63813000D01*
X201570246Y-63813000D01*
X201691302Y-63579969D01*
X201673584Y-63487500D01*
X201390533Y-62969509D01*
X201027523Y-62677160D01*
X201315044Y-62485044D01*
X201647678Y-61987222D01*
X201764484Y-61400000D01*
X201647678Y-60812778D01*
X201315044Y-60314956D01*
X201038238Y-60130000D01*
X201315044Y-59945044D01*
X201647678Y-59447222D01*
X201764484Y-58860000D01*
X201647678Y-58272778D01*
X201315044Y-57774956D01*
X201038238Y-57590000D01*
X201315044Y-57405044D01*
X201532231Y-57080000D01*
X206821274Y-57080000D01*
X206809467Y-57089509D01*
X206526416Y-57607500D01*
X206508698Y-57699969D01*
X206629754Y-57933000D01*
X208073000Y-57933000D01*
X208073000Y-57913000D01*
X208327000Y-57913000D01*
X208327000Y-57933000D01*
X209770246Y-57933000D01*
X209891302Y-57699969D01*
X209873584Y-57607500D01*
X209590533Y-57089509D01*
X209578726Y-57080000D01*
X212502560Y-57080000D01*
X212502560Y-57575000D01*
X212527424Y-57700000D01*
X212502560Y-57825000D01*
X212502560Y-58375000D01*
X212527424Y-58500000D01*
X212502560Y-58625000D01*
X212502560Y-59175000D01*
X212527424Y-59300000D01*
X212502560Y-59425000D01*
X212502560Y-59740000D01*
X211144848Y-59740000D01*
X211070000Y-59725112D01*
X210995152Y-59740000D01*
X210995148Y-59740000D01*
X210828457Y-59773157D01*
X210773462Y-59784096D01*
X210623801Y-59884097D01*
X210522071Y-59952071D01*
X210479671Y-60015527D01*
X209952989Y-60542210D01*
X209847678Y-60012778D01*
X209515044Y-59514956D01*
X209227523Y-59322840D01*
X209590533Y-59030491D01*
X209873584Y-58512500D01*
X209891302Y-58420031D01*
X209770246Y-58187000D01*
X208327000Y-58187000D01*
X208327000Y-58207000D01*
X208073000Y-58207000D01*
X208073000Y-58187000D01*
X206629754Y-58187000D01*
X206508698Y-58420031D01*
X206526416Y-58512500D01*
X206809467Y-59030491D01*
X207172477Y-59322840D01*
X206884956Y-59514956D01*
X206552322Y-60012778D01*
X206435516Y-60600000D01*
X206511782Y-60983416D01*
X206290520Y-61204679D01*
X206227061Y-61247081D01*
X206059086Y-61498474D01*
X206014990Y-61720159D01*
X206014990Y-61720163D01*
X206000102Y-61795010D01*
X206014990Y-61869857D01*
X206014991Y-68700138D01*
X206000102Y-68774990D01*
X206059087Y-69071527D01*
X206179723Y-69252071D01*
X206227062Y-69322919D01*
X206290518Y-69365319D01*
X208949670Y-72024472D01*
X208992071Y-72087929D01*
X209243463Y-72255904D01*
X209465148Y-72300000D01*
X209465152Y-72300000D01*
X209540000Y-72314888D01*
X209614848Y-72300000D01*
X225296289Y-72300000D01*
X225413720Y-72417431D01*
X225794126Y-72575000D01*
X226205874Y-72575000D01*
X226586280Y-72417431D01*
X226703711Y-72300000D01*
X227419331Y-72300000D01*
X227377560Y-72510000D01*
X227377560Y-73110000D01*
X227426843Y-73357765D01*
X227567191Y-73567809D01*
X227777235Y-73708157D01*
X228025000Y-73757440D01*
X229575000Y-73757440D01*
X229822765Y-73708157D01*
X230032809Y-73567809D01*
X230173157Y-73357765D01*
X230222440Y-73110000D01*
X230222440Y-72510000D01*
X230173157Y-72262235D01*
X230114868Y-72175000D01*
X230173157Y-72087765D01*
X230222440Y-71840000D01*
X230222440Y-71547241D01*
X232430275Y-73755077D01*
X232395873Y-73806564D01*
X232327560Y-74149999D01*
X232327560Y-75050001D01*
X232395873Y-75393436D01*
X232590414Y-75684586D01*
X232881564Y-75879127D01*
X233224999Y-75947440D01*
X233875001Y-75947440D01*
X234218436Y-75879127D01*
X234509586Y-75684586D01*
X234575000Y-75586687D01*
X234640414Y-75684586D01*
X234931564Y-75879127D01*
X235274999Y-75947440D01*
X235925001Y-75947440D01*
X236268436Y-75879127D01*
X236559586Y-75684586D01*
X236754127Y-75393436D01*
X236822440Y-75050001D01*
X236822440Y-74149999D01*
X236754127Y-73806564D01*
X236559586Y-73515414D01*
X236360000Y-73382054D01*
X236360000Y-72539848D01*
X236374888Y-72465000D01*
X236360000Y-72390152D01*
X236360000Y-72390148D01*
X236315904Y-72168463D01*
X236147929Y-71917071D01*
X236084473Y-71874671D01*
X235622440Y-71412639D01*
X235622440Y-71240000D01*
X235573157Y-70992235D01*
X235520232Y-70913028D01*
X235610000Y-70696310D01*
X235610000Y-70555750D01*
X235451250Y-70397000D01*
X234327000Y-70397000D01*
X234327000Y-70417000D01*
X234073000Y-70417000D01*
X234073000Y-70397000D01*
X232948750Y-70397000D01*
X232810276Y-70535474D01*
X232635000Y-70360198D01*
X232635000Y-70194126D01*
X232477431Y-69813720D01*
X232186280Y-69522569D01*
X231805874Y-69365000D01*
X231394126Y-69365000D01*
X231013720Y-69522569D01*
X230722569Y-69813720D01*
X230697952Y-69873151D01*
X230610331Y-69785530D01*
X230567929Y-69722071D01*
X230316537Y-69554096D01*
X230177403Y-69526420D01*
X230222440Y-69300000D01*
X230222440Y-68700000D01*
X230173157Y-68452235D01*
X230032809Y-68242191D01*
X229822765Y-68101843D01*
X229575000Y-68052560D01*
X228025000Y-68052560D01*
X227777235Y-68101843D01*
X227567191Y-68242191D01*
X227519061Y-68314223D01*
X227477431Y-68213720D01*
X227360000Y-68096289D01*
X227360000Y-65914801D01*
X227477560Y-65797241D01*
X227477560Y-66205000D01*
X227526843Y-66452765D01*
X227667191Y-66662809D01*
X227877235Y-66803157D01*
X228125000Y-66852440D01*
X229675000Y-66852440D01*
X229922765Y-66803157D01*
X230132809Y-66662809D01*
X230273157Y-66452765D01*
X230322440Y-66205000D01*
X230322440Y-65605000D01*
X230273157Y-65357235D01*
X230214868Y-65270000D01*
X230273157Y-65182765D01*
X230322440Y-64935000D01*
X230322440Y-64335000D01*
X230280669Y-64125000D01*
X230840001Y-64125000D01*
X230840000Y-64696289D01*
X230722569Y-64813720D01*
X230565000Y-65194126D01*
X230565000Y-65605874D01*
X230722569Y-65986280D01*
X231013720Y-66277431D01*
X231394126Y-66435000D01*
X231805874Y-66435000D01*
X232186280Y-66277431D01*
X232477431Y-65986280D01*
X232635000Y-65605874D01*
X232635000Y-65194126D01*
X232477431Y-64813720D01*
X232360000Y-64696289D01*
X232360000Y-63874847D01*
X232374888Y-63800000D01*
X232360000Y-63725153D01*
X232360000Y-63725148D01*
X232315904Y-63503463D01*
X232147929Y-63252071D01*
X232084470Y-63209669D01*
X231755331Y-62880530D01*
X231712929Y-62817071D01*
X231461537Y-62649096D01*
X231239852Y-62605000D01*
X231239847Y-62605000D01*
X231165000Y-62590112D01*
X231090153Y-62605000D01*
X230280669Y-62605000D01*
X230322440Y-62395000D01*
X230322440Y-61795000D01*
X230273157Y-61547235D01*
X230132809Y-61337191D01*
X229922765Y-61196843D01*
X229675000Y-61147560D01*
X228125000Y-61147560D01*
X227877235Y-61196843D01*
X227667191Y-61337191D01*
X227526843Y-61547235D01*
X227477560Y-61795000D01*
X227477560Y-62395000D01*
X227526843Y-62642765D01*
X227585132Y-62730000D01*
X227526843Y-62817235D01*
X227477560Y-63065000D01*
X227477560Y-63665000D01*
X227518221Y-63869417D01*
X227490152Y-63875000D01*
X227490148Y-63875000D01*
X227268463Y-63919096D01*
X227017071Y-64087071D01*
X226974671Y-64150527D01*
X226697440Y-64427758D01*
X226697440Y-64225000D01*
X226672576Y-64100000D01*
X226697440Y-63975000D01*
X226697440Y-63425000D01*
X226672576Y-63300000D01*
X226697440Y-63175000D01*
X226697440Y-62625000D01*
X226672576Y-62500000D01*
X226697440Y-62375000D01*
X226697440Y-61825000D01*
X226672576Y-61700000D01*
X226697440Y-61575000D01*
X226697440Y-61025000D01*
X226672576Y-60900000D01*
X226697440Y-60775000D01*
X226697440Y-60225000D01*
X226672576Y-60100000D01*
X226697440Y-59975000D01*
X226697440Y-59425000D01*
X226676783Y-59321148D01*
X226685000Y-59301310D01*
X226685000Y-59185750D01*
X226591112Y-59091862D01*
X226507809Y-58967191D01*
X226407251Y-58900000D01*
X226507809Y-58832809D01*
X226591112Y-58708138D01*
X226685000Y-58614250D01*
X226685000Y-58498690D01*
X226676783Y-58478852D01*
X226697440Y-58375000D01*
X226697440Y-57948483D01*
X226847929Y-57847929D01*
X226890331Y-57784470D01*
X228859473Y-55815329D01*
X228922929Y-55772929D01*
X229064702Y-55560750D01*
X231465000Y-55560750D01*
X231465000Y-55888809D01*
X231561673Y-56122198D01*
X231740301Y-56300827D01*
X231973690Y-56397500D01*
X232514250Y-56397500D01*
X232673000Y-56238750D01*
X232673000Y-55402000D01*
X232927000Y-55402000D01*
X232927000Y-56238750D01*
X233085750Y-56397500D01*
X233626310Y-56397500D01*
X233859699Y-56300827D01*
X234038327Y-56122198D01*
X234135000Y-55888809D01*
X234135000Y-55560750D01*
X233976250Y-55402000D01*
X232927000Y-55402000D01*
X232673000Y-55402000D01*
X231623750Y-55402000D01*
X231465000Y-55560750D01*
X229064702Y-55560750D01*
X229090904Y-55521537D01*
X229135000Y-55299852D01*
X229135000Y-55299848D01*
X229149888Y-55225001D01*
X229135000Y-55150154D01*
X229135000Y-53817946D01*
X229334586Y-53684586D01*
X229400000Y-53586687D01*
X229465414Y-53684586D01*
X229756564Y-53879127D01*
X230099999Y-53947440D01*
X230750001Y-53947440D01*
X231093436Y-53879127D01*
X231384586Y-53684586D01*
X231452560Y-53582856D01*
X231452560Y-53643750D01*
X231520398Y-53984794D01*
X231713584Y-54273916D01*
X231714767Y-54274707D01*
X231561673Y-54427802D01*
X231465000Y-54661191D01*
X231465000Y-54989250D01*
X231623750Y-55148000D01*
X232673000Y-55148000D01*
X232673000Y-55128000D01*
X232927000Y-55128000D01*
X232927000Y-55148000D01*
X233976250Y-55148000D01*
X234135000Y-54989250D01*
X234135000Y-54661191D01*
X234038327Y-54427802D01*
X233885233Y-54274707D01*
X233886416Y-54273916D01*
X234079602Y-53984794D01*
X234147440Y-53643750D01*
X234147440Y-53156250D01*
X234079602Y-52815206D01*
X233886416Y-52526084D01*
X233597294Y-52332898D01*
X233256250Y-52265060D01*
X232739861Y-52265060D01*
X232590331Y-52115530D01*
X232547929Y-52052071D01*
X232296537Y-51884096D01*
X232074852Y-51840000D01*
X232074847Y-51840000D01*
X232000000Y-51825112D01*
X231925153Y-51840000D01*
X231585778Y-51840000D01*
X231579127Y-51806564D01*
X231384586Y-51515414D01*
X231093436Y-51320873D01*
X230750001Y-51252560D01*
X230099999Y-51252560D01*
X229756564Y-51320873D01*
X229465414Y-51515414D01*
X229400000Y-51613313D01*
X229334586Y-51515414D01*
X229043436Y-51320873D01*
X228700001Y-51252560D01*
X228049999Y-51252560D01*
X227706564Y-51320873D01*
X227415414Y-51515414D01*
X227220873Y-51806564D01*
X227152560Y-52149999D01*
X227152560Y-53050001D01*
X227220873Y-53393436D01*
X227415414Y-53684586D01*
X227615001Y-53817946D01*
X227615000Y-54910198D01*
X226608025Y-55917174D01*
X226507809Y-55767191D01*
X226297765Y-55626843D01*
X226050000Y-55577560D01*
X224550000Y-55577560D01*
X224515597Y-55584403D01*
X224522440Y-55550000D01*
X224522440Y-54050000D01*
X224473157Y-53802235D01*
X224332809Y-53592191D01*
X224122765Y-53451843D01*
X223875000Y-53402560D01*
X223325000Y-53402560D01*
X223200000Y-53427424D01*
X223075000Y-53402560D01*
X222525000Y-53402560D01*
X222400000Y-53427424D01*
X222275000Y-53402560D01*
X221725000Y-53402560D01*
X221600000Y-53427424D01*
X221475000Y-53402560D01*
X220925000Y-53402560D01*
X220800000Y-53427424D01*
X220675000Y-53402560D01*
X220125000Y-53402560D01*
X220000000Y-53427424D01*
X219875000Y-53402560D01*
X219325000Y-53402560D01*
X219221148Y-53423217D01*
X219201310Y-53415000D01*
X219085750Y-53415000D01*
X218991862Y-53508888D01*
X218867191Y-53592191D01*
X218800000Y-53692749D01*
X218760000Y-53632885D01*
X218760000Y-53074846D01*
X218774888Y-52999999D01*
X218760000Y-52925152D01*
X218760000Y-52925148D01*
X218715904Y-52703463D01*
X218635000Y-52582382D01*
X218635000Y-52394126D01*
X218477431Y-52013720D01*
X218186280Y-51722569D01*
X217805874Y-51565000D01*
X217394126Y-51565000D01*
X217013720Y-51722569D01*
X216722569Y-52013720D01*
X216565000Y-52394126D01*
X216565000Y-52805874D01*
X216722569Y-53186280D01*
X216938849Y-53402560D01*
X216925000Y-53402560D01*
X216800000Y-53427424D01*
X216675000Y-53402560D01*
X216125000Y-53402560D01*
X216000000Y-53427424D01*
X215875000Y-53402560D01*
X215325000Y-53402560D01*
X215077235Y-53451843D01*
X214867191Y-53592191D01*
X214726843Y-53802235D01*
X214677560Y-54050000D01*
X214677560Y-54240000D01*
X203903711Y-54240000D01*
X203786280Y-54122569D01*
X203405874Y-53965000D01*
X202994126Y-53965000D01*
X202613720Y-54122569D01*
X202322569Y-54413720D01*
X202165000Y-54794126D01*
X202165000Y-55205874D01*
X202311683Y-55560000D01*
X201532231Y-55560000D01*
X201315044Y-55234956D01*
X201249878Y-55191413D01*
X201484586Y-55034586D01*
X201679127Y-54743436D01*
X201747440Y-54400001D01*
X201747440Y-53159999D01*
X201679127Y-52816564D01*
X201484586Y-52525414D01*
X201193436Y-52330873D01*
X200850001Y-52262560D01*
X199149999Y-52262560D01*
X198806564Y-52330873D01*
X198515414Y-52525414D01*
X198320873Y-52816564D01*
X198252560Y-53159999D01*
X198252560Y-54400001D01*
X198320873Y-54743436D01*
X198515414Y-55034586D01*
X198750122Y-55191413D01*
X198684956Y-55234956D01*
X198352322Y-55732778D01*
X198235516Y-56320000D01*
X195710000Y-56320000D01*
X195710000Y-41899914D01*
X198789200Y-41899914D01*
X198789200Y-42600086D01*
X199057144Y-43246960D01*
X199552240Y-43742056D01*
X200199114Y-44010000D01*
X200899286Y-44010000D01*
X201546160Y-43742056D01*
X202041256Y-43246960D01*
X202309200Y-42600086D01*
X202309200Y-41899914D01*
X202228209Y-41704383D01*
X204105400Y-41704383D01*
X204105400Y-42795617D01*
X204522997Y-43803785D01*
X205294615Y-44575403D01*
X206302783Y-44993000D01*
X207394017Y-44993000D01*
X208402185Y-44575403D01*
X209173803Y-43803785D01*
X209591400Y-42795617D01*
X209591400Y-41704383D01*
X229607000Y-41704383D01*
X229607000Y-42795617D01*
X230024597Y-43803785D01*
X230796215Y-44575403D01*
X231804383Y-44993000D01*
X232895617Y-44993000D01*
X233903785Y-44575403D01*
X234675403Y-43803785D01*
X234804156Y-43492947D01*
X237585858Y-43492947D01*
X237699821Y-43772773D01*
X238354829Y-44020170D01*
X239054651Y-43998075D01*
X239598579Y-43772773D01*
X239712542Y-43492947D01*
X238649200Y-42429605D01*
X237585858Y-43492947D01*
X234804156Y-43492947D01*
X235093000Y-42795617D01*
X235093000Y-41955629D01*
X236879030Y-41955629D01*
X236901125Y-42655451D01*
X237126427Y-43199379D01*
X237406253Y-43313342D01*
X238469595Y-42250000D01*
X238828805Y-42250000D01*
X239892147Y-43313342D01*
X240171973Y-43199379D01*
X240419370Y-42544371D01*
X240397275Y-41844549D01*
X240171973Y-41300621D01*
X239892147Y-41186658D01*
X238828805Y-42250000D01*
X238469595Y-42250000D01*
X237406253Y-41186658D01*
X237126427Y-41300621D01*
X236879030Y-41955629D01*
X235093000Y-41955629D01*
X235093000Y-41704383D01*
X234804157Y-41007053D01*
X237585858Y-41007053D01*
X238649200Y-42070395D01*
X239712542Y-41007053D01*
X239598579Y-40727227D01*
X238943571Y-40479830D01*
X238243749Y-40501925D01*
X237699821Y-40727227D01*
X237585858Y-41007053D01*
X234804157Y-41007053D01*
X234675403Y-40696215D01*
X233903785Y-39924597D01*
X232895617Y-39507000D01*
X231804383Y-39507000D01*
X230796215Y-39924597D01*
X230024597Y-40696215D01*
X229607000Y-41704383D01*
X209591400Y-41704383D01*
X209173803Y-40696215D01*
X208402185Y-39924597D01*
X207394017Y-39507000D01*
X206302783Y-39507000D01*
X205294615Y-39924597D01*
X204522997Y-40696215D01*
X204105400Y-41704383D01*
X202228209Y-41704383D01*
X202041256Y-41253040D01*
X201546160Y-40757944D01*
X200899286Y-40490000D01*
X200199114Y-40490000D01*
X199552240Y-40757944D01*
X199057144Y-41253040D01*
X198789200Y-41899914D01*
X195710000Y-41899914D01*
X195710000Y-33710000D01*
X243490000Y-33710000D01*
X243490000Y-54278883D01*
X243490000Y-54278883D01*
G37*
X243490000Y-54278883D02*
X243398839Y-53820582D01*
X243070625Y-53329375D01*
X242579418Y-53001161D01*
X242146256Y-52915000D01*
X241853744Y-52915000D01*
X241420582Y-53001161D01*
X240929375Y-53329375D01*
X240917184Y-53347619D01*
X240908157Y-53302235D01*
X240767809Y-53092191D01*
X240557765Y-52951843D01*
X240310000Y-52902560D01*
X238610000Y-52902560D01*
X238362235Y-52951843D01*
X238152191Y-53092191D01*
X238011843Y-53302235D01*
X237962560Y-53550000D01*
X237962560Y-55250000D01*
X238011843Y-55497765D01*
X238152191Y-55707809D01*
X238362235Y-55848157D01*
X238407619Y-55857184D01*
X238389375Y-55869375D01*
X238061161Y-56360582D01*
X237945908Y-56940000D01*
X238061161Y-57519418D01*
X238389375Y-58010625D01*
X238687761Y-58210000D01*
X238389375Y-58409375D01*
X238061161Y-58900582D01*
X237945908Y-59480000D01*
X238061161Y-60059418D01*
X238389375Y-60550625D01*
X238880582Y-60878839D01*
X239313744Y-60965000D01*
X239606256Y-60965000D01*
X240039418Y-60878839D01*
X240530625Y-60550625D01*
X240731353Y-60250214D01*
X241118642Y-60675183D01*
X241643108Y-60921486D01*
X241873000Y-60800819D01*
X241873000Y-59607000D01*
X242127000Y-59607000D01*
X242127000Y-60800819D01*
X242356892Y-60921486D01*
X242881358Y-60675183D01*
X243271645Y-60246924D01*
X243441476Y-59836890D01*
X243320155Y-59607000D01*
X242127000Y-59607000D01*
X241873000Y-59607000D01*
X241853000Y-59607000D01*
X241853000Y-59353000D01*
X241873000Y-59353000D01*
X241873000Y-59333000D01*
X242127000Y-59333000D01*
X242127000Y-59353000D01*
X243320155Y-59353000D01*
X243441476Y-59123110D01*
X243271645Y-58713076D01*
X242881358Y-58284817D01*
X242751522Y-58223843D01*
X243070625Y-58010625D01*
X243398839Y-57519418D01*
X243490000Y-57061117D01*
X243490001Y-62013364D01*
X243484473Y-62009671D01*
X242790331Y-61315530D01*
X242747929Y-61252071D01*
X242496537Y-61084096D01*
X242274852Y-61040000D01*
X242274847Y-61040000D01*
X242200000Y-61025112D01*
X242125153Y-61040000D01*
X235694846Y-61040000D01*
X235619999Y-61025112D01*
X235545152Y-61040000D01*
X235545148Y-61040000D01*
X235323463Y-61084096D01*
X235193274Y-61171086D01*
X235075000Y-61147560D01*
X233525000Y-61147560D01*
X233277235Y-61196843D01*
X233067191Y-61337191D01*
X232926843Y-61547235D01*
X232877560Y-61795000D01*
X232877560Y-62395000D01*
X232926843Y-62642765D01*
X232979768Y-62721972D01*
X232890000Y-62938690D01*
X232890000Y-63079250D01*
X233048750Y-63238000D01*
X234173000Y-63238000D01*
X234173000Y-63218000D01*
X234427000Y-63218000D01*
X234427000Y-63238000D01*
X235551250Y-63238000D01*
X235710000Y-63079250D01*
X235710000Y-62938690D01*
X235649367Y-62792309D01*
X235872929Y-62642929D01*
X235915331Y-62579470D01*
X235934801Y-62560000D01*
X238839864Y-62560000D01*
X238765526Y-62609671D01*
X238765524Y-62609673D01*
X238702071Y-62652071D01*
X238659673Y-62715524D01*
X237135199Y-64240000D01*
X236004801Y-64240000D01*
X235915331Y-64150530D01*
X235872929Y-64087071D01*
X235649367Y-63937691D01*
X235710000Y-63791310D01*
X235710000Y-63650750D01*
X235551250Y-63492000D01*
X234427000Y-63492000D01*
X234427000Y-63512000D01*
X234173000Y-63512000D01*
X234173000Y-63492000D01*
X233048750Y-63492000D01*
X232890000Y-63650750D01*
X232890000Y-63791310D01*
X232979768Y-64008028D01*
X232926843Y-64087235D01*
X232877560Y-64335000D01*
X232877560Y-64935000D01*
X232926843Y-65182765D01*
X232985132Y-65270000D01*
X232926843Y-65357235D01*
X232877560Y-65605000D01*
X232877560Y-66205000D01*
X232926843Y-66452765D01*
X233067191Y-66662809D01*
X233277235Y-66803157D01*
X233525000Y-66852440D01*
X235075000Y-66852440D01*
X235322765Y-66803157D01*
X235532809Y-66662809D01*
X235673157Y-66452765D01*
X235722440Y-66205000D01*
X235722440Y-66025750D01*
X238865000Y-66025750D01*
X238865000Y-66736309D01*
X238961673Y-66969698D01*
X239140301Y-67148327D01*
X239373690Y-67245000D01*
X240314250Y-67245000D01*
X240473000Y-67086250D01*
X240473000Y-65867000D01*
X239023750Y-65867000D01*
X238865000Y-66025750D01*
X235722440Y-66025750D01*
X235722440Y-65768435D01*
X235764847Y-65760000D01*
X237375153Y-65760000D01*
X237450000Y-65774888D01*
X237524847Y-65760000D01*
X237524852Y-65760000D01*
X237746537Y-65715904D01*
X237997929Y-65547929D01*
X238040331Y-65484470D01*
X238924319Y-64600483D01*
X238865000Y-64743691D01*
X238865000Y-65454250D01*
X239023750Y-65613000D01*
X240473000Y-65613000D01*
X240473000Y-65593000D01*
X240727000Y-65593000D01*
X240727000Y-65613000D01*
X240747000Y-65613000D01*
X240747000Y-65867000D01*
X240727000Y-65867000D01*
X240727000Y-67086250D01*
X240885750Y-67245000D01*
X241826310Y-67245000D01*
X242059699Y-67148327D01*
X242238327Y-66969698D01*
X242240000Y-66965658D01*
X242240000Y-69040000D01*
X238703711Y-69040000D01*
X238586280Y-68922569D01*
X238205874Y-68765000D01*
X237794126Y-68765000D01*
X237567845Y-68858728D01*
X237224646Y-68515530D01*
X237182244Y-68452071D01*
X236930852Y-68284096D01*
X236709167Y-68240000D01*
X236709162Y-68240000D01*
X236634315Y-68225112D01*
X236559468Y-68240000D01*
X235429530Y-68240000D01*
X235222765Y-68101843D01*
X234975000Y-68052560D01*
X233425000Y-68052560D01*
X233177235Y-68101843D01*
X232967191Y-68242191D01*
X232826843Y-68452235D01*
X232777560Y-68700000D01*
X232777560Y-69300000D01*
X232826843Y-69547765D01*
X232879768Y-69626972D01*
X232790000Y-69843690D01*
X232790000Y-69984250D01*
X232948750Y-70143000D01*
X234073000Y-70143000D01*
X234073000Y-70123000D01*
X234327000Y-70123000D01*
X234327000Y-70143000D01*
X235451250Y-70143000D01*
X235610000Y-69984250D01*
X235610000Y-69843690D01*
X235575334Y-69760000D01*
X236319514Y-69760000D01*
X236843986Y-70284473D01*
X236886386Y-70347929D01*
X236949842Y-70390329D01*
X237137777Y-70515904D01*
X237185920Y-70525480D01*
X237280603Y-70544314D01*
X237413720Y-70677431D01*
X237794126Y-70835000D01*
X238205874Y-70835000D01*
X238586280Y-70677431D01*
X238703711Y-70560000D01*
X242725153Y-70560000D01*
X242800000Y-70574888D01*
X242874847Y-70560000D01*
X242874852Y-70560000D01*
X243096537Y-70515904D01*
X243347929Y-70347929D01*
X243390331Y-70284470D01*
X243484470Y-70190331D01*
X243490001Y-70186635D01*
X243490001Y-80873071D01*
X243369664Y-80582552D01*
X242417448Y-79630336D01*
X241173318Y-79115000D01*
X239826682Y-79115000D01*
X238582552Y-79630336D01*
X237630336Y-80582552D01*
X237115000Y-81826682D01*
X237115000Y-83173318D01*
X237630336Y-84417448D01*
X238582552Y-85369664D01*
X239826682Y-85885000D01*
X241173318Y-85885000D01*
X242417448Y-85369664D01*
X243369664Y-84417448D01*
X243490001Y-84126929D01*
X243490001Y-86301925D01*
X243465000Y-86427613D01*
X243465001Y-89290000D01*
X195735000Y-89290000D01*
X195735000Y-86427612D01*
X195710000Y-86301929D01*
X195710000Y-83402668D01*
X196130336Y-84417448D01*
X197082552Y-85369664D01*
X198326682Y-85885000D01*
X199673318Y-85885000D01*
X200917448Y-85369664D01*
X201869664Y-84417448D01*
X202385000Y-83173318D01*
X202385000Y-81826682D01*
X216615000Y-81826682D01*
X216615000Y-83173318D01*
X217130336Y-84417448D01*
X218082552Y-85369664D01*
X219326682Y-85885000D01*
X220673318Y-85885000D01*
X221917448Y-85369664D01*
X222869664Y-84417448D01*
X223385000Y-83173318D01*
X223385000Y-81826682D01*
X222869664Y-80582552D01*
X221917448Y-79630336D01*
X220673318Y-79115000D01*
X219326682Y-79115000D01*
X218082552Y-79630336D01*
X217130336Y-80582552D01*
X216615000Y-81826682D01*
X202385000Y-81826682D01*
X201869664Y-80582552D01*
X200917448Y-79630336D01*
X199673318Y-79115000D01*
X198326682Y-79115000D01*
X197082552Y-79630336D01*
X196130336Y-80582552D01*
X195710000Y-81597332D01*
X195710000Y-66480000D01*
X198235516Y-66480000D01*
X198352322Y-67067222D01*
X198684956Y-67565044D01*
X199182778Y-67897678D01*
X199621774Y-67985000D01*
X200378226Y-67985000D01*
X200817222Y-67897678D01*
X201315044Y-67565044D01*
X201647678Y-67067222D01*
X201764484Y-66480000D01*
X201647678Y-65892778D01*
X201315044Y-65394956D01*
X201027523Y-65202840D01*
X201390533Y-64910491D01*
X201673584Y-64392500D01*
X201691302Y-64300031D01*
X201570246Y-64067000D01*
X200127000Y-64067000D01*
X200127000Y-64087000D01*
X199873000Y-64087000D01*
X199873000Y-64067000D01*
X198429754Y-64067000D01*
X198308698Y-64300031D01*
X198326416Y-64392500D01*
X198609467Y-64910491D01*
X198972477Y-65202840D01*
X198684956Y-65394956D01*
X198352322Y-65892778D01*
X198235516Y-66480000D01*
X195710000Y-66480000D01*
X195710000Y-56320000D01*
X198235516Y-56320000D01*
X198352322Y-56907222D01*
X198684956Y-57405044D01*
X198961762Y-57590000D01*
X198684956Y-57774956D01*
X198352322Y-58272778D01*
X198235516Y-58860000D01*
X198352322Y-59447222D01*
X198684956Y-59945044D01*
X198961762Y-60130000D01*
X198684956Y-60314956D01*
X198352322Y-60812778D01*
X198235516Y-61400000D01*
X198352322Y-61987222D01*
X198684956Y-62485044D01*
X198972477Y-62677160D01*
X198609467Y-62969509D01*
X198326416Y-63487500D01*
X198308698Y-63579969D01*
X198429754Y-63813000D01*
X199873000Y-63813000D01*
X199873000Y-63793000D01*
X200127000Y-63793000D01*
X200127000Y-63813000D01*
X201570246Y-63813000D01*
X201691302Y-63579969D01*
X201673584Y-63487500D01*
X201390533Y-62969509D01*
X201027523Y-62677160D01*
X201315044Y-62485044D01*
X201647678Y-61987222D01*
X201764484Y-61400000D01*
X201647678Y-60812778D01*
X201315044Y-60314956D01*
X201038238Y-60130000D01*
X201315044Y-59945044D01*
X201647678Y-59447222D01*
X201764484Y-58860000D01*
X201647678Y-58272778D01*
X201315044Y-57774956D01*
X201038238Y-57590000D01*
X201315044Y-57405044D01*
X201532231Y-57080000D01*
X206821274Y-57080000D01*
X206809467Y-57089509D01*
X206526416Y-57607500D01*
X206508698Y-57699969D01*
X206629754Y-57933000D01*
X208073000Y-57933000D01*
X208073000Y-57913000D01*
X208327000Y-57913000D01*
X208327000Y-57933000D01*
X209770246Y-57933000D01*
X209891302Y-57699969D01*
X209873584Y-57607500D01*
X209590533Y-57089509D01*
X209578726Y-57080000D01*
X212502560Y-57080000D01*
X212502560Y-57575000D01*
X212527424Y-57700000D01*
X212502560Y-57825000D01*
X212502560Y-58375000D01*
X212527424Y-58500000D01*
X212502560Y-58625000D01*
X212502560Y-59175000D01*
X212527424Y-59300000D01*
X212502560Y-59425000D01*
X212502560Y-59740000D01*
X211144848Y-59740000D01*
X211070000Y-59725112D01*
X210995152Y-59740000D01*
X210995148Y-59740000D01*
X210828457Y-59773157D01*
X210773462Y-59784096D01*
X210623801Y-59884097D01*
X210522071Y-59952071D01*
X210479671Y-60015527D01*
X209952989Y-60542210D01*
X209847678Y-60012778D01*
X209515044Y-59514956D01*
X209227523Y-59322840D01*
X209590533Y-59030491D01*
X209873584Y-58512500D01*
X209891302Y-58420031D01*
X209770246Y-58187000D01*
X208327000Y-58187000D01*
X208327000Y-58207000D01*
X208073000Y-58207000D01*
X208073000Y-58187000D01*
X206629754Y-58187000D01*
X206508698Y-58420031D01*
X206526416Y-58512500D01*
X206809467Y-59030491D01*
X207172477Y-59322840D01*
X206884956Y-59514956D01*
X206552322Y-60012778D01*
X206435516Y-60600000D01*
X206511782Y-60983416D01*
X206290520Y-61204679D01*
X206227061Y-61247081D01*
X206059086Y-61498474D01*
X206014990Y-61720159D01*
X206014990Y-61720163D01*
X206000102Y-61795010D01*
X206014990Y-61869857D01*
X206014991Y-68700138D01*
X206000102Y-68774990D01*
X206059087Y-69071527D01*
X206179723Y-69252071D01*
X206227062Y-69322919D01*
X206290518Y-69365319D01*
X208949670Y-72024472D01*
X208992071Y-72087929D01*
X209243463Y-72255904D01*
X209465148Y-72300000D01*
X209465152Y-72300000D01*
X209540000Y-72314888D01*
X209614848Y-72300000D01*
X225296289Y-72300000D01*
X225413720Y-72417431D01*
X225794126Y-72575000D01*
X226205874Y-72575000D01*
X226586280Y-72417431D01*
X226703711Y-72300000D01*
X227419331Y-72300000D01*
X227377560Y-72510000D01*
X227377560Y-73110000D01*
X227426843Y-73357765D01*
X227567191Y-73567809D01*
X227777235Y-73708157D01*
X228025000Y-73757440D01*
X229575000Y-73757440D01*
X229822765Y-73708157D01*
X230032809Y-73567809D01*
X230173157Y-73357765D01*
X230222440Y-73110000D01*
X230222440Y-72510000D01*
X230173157Y-72262235D01*
X230114868Y-72175000D01*
X230173157Y-72087765D01*
X230222440Y-71840000D01*
X230222440Y-71547241D01*
X232430275Y-73755077D01*
X232395873Y-73806564D01*
X232327560Y-74149999D01*
X232327560Y-75050001D01*
X232395873Y-75393436D01*
X232590414Y-75684586D01*
X232881564Y-75879127D01*
X233224999Y-75947440D01*
X233875001Y-75947440D01*
X234218436Y-75879127D01*
X234509586Y-75684586D01*
X234575000Y-75586687D01*
X234640414Y-75684586D01*
X234931564Y-75879127D01*
X235274999Y-75947440D01*
X235925001Y-75947440D01*
X236268436Y-75879127D01*
X236559586Y-75684586D01*
X236754127Y-75393436D01*
X236822440Y-75050001D01*
X236822440Y-74149999D01*
X236754127Y-73806564D01*
X236559586Y-73515414D01*
X236360000Y-73382054D01*
X236360000Y-72539848D01*
X236374888Y-72465000D01*
X236360000Y-72390152D01*
X236360000Y-72390148D01*
X236315904Y-72168463D01*
X236147929Y-71917071D01*
X236084473Y-71874671D01*
X235622440Y-71412639D01*
X235622440Y-71240000D01*
X235573157Y-70992235D01*
X235520232Y-70913028D01*
X235610000Y-70696310D01*
X235610000Y-70555750D01*
X235451250Y-70397000D01*
X234327000Y-70397000D01*
X234327000Y-70417000D01*
X234073000Y-70417000D01*
X234073000Y-70397000D01*
X232948750Y-70397000D01*
X232810276Y-70535474D01*
X232635000Y-70360198D01*
X232635000Y-70194126D01*
X232477431Y-69813720D01*
X232186280Y-69522569D01*
X231805874Y-69365000D01*
X231394126Y-69365000D01*
X231013720Y-69522569D01*
X230722569Y-69813720D01*
X230697952Y-69873151D01*
X230610331Y-69785530D01*
X230567929Y-69722071D01*
X230316537Y-69554096D01*
X230177403Y-69526420D01*
X230222440Y-69300000D01*
X230222440Y-68700000D01*
X230173157Y-68452235D01*
X230032809Y-68242191D01*
X229822765Y-68101843D01*
X229575000Y-68052560D01*
X228025000Y-68052560D01*
X227777235Y-68101843D01*
X227567191Y-68242191D01*
X227519061Y-68314223D01*
X227477431Y-68213720D01*
X227360000Y-68096289D01*
X227360000Y-65914801D01*
X227477560Y-65797241D01*
X227477560Y-66205000D01*
X227526843Y-66452765D01*
X227667191Y-66662809D01*
X227877235Y-66803157D01*
X228125000Y-66852440D01*
X229675000Y-66852440D01*
X229922765Y-66803157D01*
X230132809Y-66662809D01*
X230273157Y-66452765D01*
X230322440Y-66205000D01*
X230322440Y-65605000D01*
X230273157Y-65357235D01*
X230214868Y-65270000D01*
X230273157Y-65182765D01*
X230322440Y-64935000D01*
X230322440Y-64335000D01*
X230280669Y-64125000D01*
X230840001Y-64125000D01*
X230840000Y-64696289D01*
X230722569Y-64813720D01*
X230565000Y-65194126D01*
X230565000Y-65605874D01*
X230722569Y-65986280D01*
X231013720Y-66277431D01*
X231394126Y-66435000D01*
X231805874Y-66435000D01*
X232186280Y-66277431D01*
X232477431Y-65986280D01*
X232635000Y-65605874D01*
X232635000Y-65194126D01*
X232477431Y-64813720D01*
X232360000Y-64696289D01*
X232360000Y-63874847D01*
X232374888Y-63800000D01*
X232360000Y-63725153D01*
X232360000Y-63725148D01*
X232315904Y-63503463D01*
X232147929Y-63252071D01*
X232084470Y-63209669D01*
X231755331Y-62880530D01*
X231712929Y-62817071D01*
X231461537Y-62649096D01*
X231239852Y-62605000D01*
X231239847Y-62605000D01*
X231165000Y-62590112D01*
X231090153Y-62605000D01*
X230280669Y-62605000D01*
X230322440Y-62395000D01*
X230322440Y-61795000D01*
X230273157Y-61547235D01*
X230132809Y-61337191D01*
X229922765Y-61196843D01*
X229675000Y-61147560D01*
X228125000Y-61147560D01*
X227877235Y-61196843D01*
X227667191Y-61337191D01*
X227526843Y-61547235D01*
X227477560Y-61795000D01*
X227477560Y-62395000D01*
X227526843Y-62642765D01*
X227585132Y-62730000D01*
X227526843Y-62817235D01*
X227477560Y-63065000D01*
X227477560Y-63665000D01*
X227518221Y-63869417D01*
X227490152Y-63875000D01*
X227490148Y-63875000D01*
X227268463Y-63919096D01*
X227017071Y-64087071D01*
X226974671Y-64150527D01*
X226697440Y-64427758D01*
X226697440Y-64225000D01*
X226672576Y-64100000D01*
X226697440Y-63975000D01*
X226697440Y-63425000D01*
X226672576Y-63300000D01*
X226697440Y-63175000D01*
X226697440Y-62625000D01*
X226672576Y-62500000D01*
X226697440Y-62375000D01*
X226697440Y-61825000D01*
X226672576Y-61700000D01*
X226697440Y-61575000D01*
X226697440Y-61025000D01*
X226672576Y-60900000D01*
X226697440Y-60775000D01*
X226697440Y-60225000D01*
X226672576Y-60100000D01*
X226697440Y-59975000D01*
X226697440Y-59425000D01*
X226676783Y-59321148D01*
X226685000Y-59301310D01*
X226685000Y-59185750D01*
X226591112Y-59091862D01*
X226507809Y-58967191D01*
X226407251Y-58900000D01*
X226507809Y-58832809D01*
X226591112Y-58708138D01*
X226685000Y-58614250D01*
X226685000Y-58498690D01*
X226676783Y-58478852D01*
X226697440Y-58375000D01*
X226697440Y-57948483D01*
X226847929Y-57847929D01*
X226890331Y-57784470D01*
X228859473Y-55815329D01*
X228922929Y-55772929D01*
X229064702Y-55560750D01*
X231465000Y-55560750D01*
X231465000Y-55888809D01*
X231561673Y-56122198D01*
X231740301Y-56300827D01*
X231973690Y-56397500D01*
X232514250Y-56397500D01*
X232673000Y-56238750D01*
X232673000Y-55402000D01*
X232927000Y-55402000D01*
X232927000Y-56238750D01*
X233085750Y-56397500D01*
X233626310Y-56397500D01*
X233859699Y-56300827D01*
X234038327Y-56122198D01*
X234135000Y-55888809D01*
X234135000Y-55560750D01*
X233976250Y-55402000D01*
X232927000Y-55402000D01*
X232673000Y-55402000D01*
X231623750Y-55402000D01*
X231465000Y-55560750D01*
X229064702Y-55560750D01*
X229090904Y-55521537D01*
X229135000Y-55299852D01*
X229135000Y-55299848D01*
X229149888Y-55225001D01*
X229135000Y-55150154D01*
X229135000Y-53817946D01*
X229334586Y-53684586D01*
X229400000Y-53586687D01*
X229465414Y-53684586D01*
X229756564Y-53879127D01*
X230099999Y-53947440D01*
X230750001Y-53947440D01*
X231093436Y-53879127D01*
X231384586Y-53684586D01*
X231452560Y-53582856D01*
X231452560Y-53643750D01*
X231520398Y-53984794D01*
X231713584Y-54273916D01*
X231714767Y-54274707D01*
X231561673Y-54427802D01*
X231465000Y-54661191D01*
X231465000Y-54989250D01*
X231623750Y-55148000D01*
X232673000Y-55148000D01*
X232673000Y-55128000D01*
X232927000Y-55128000D01*
X232927000Y-55148000D01*
X233976250Y-55148000D01*
X234135000Y-54989250D01*
X234135000Y-54661191D01*
X234038327Y-54427802D01*
X233885233Y-54274707D01*
X233886416Y-54273916D01*
X234079602Y-53984794D01*
X234147440Y-53643750D01*
X234147440Y-53156250D01*
X234079602Y-52815206D01*
X233886416Y-52526084D01*
X233597294Y-52332898D01*
X233256250Y-52265060D01*
X232739861Y-52265060D01*
X232590331Y-52115530D01*
X232547929Y-52052071D01*
X232296537Y-51884096D01*
X232074852Y-51840000D01*
X232074847Y-51840000D01*
X232000000Y-51825112D01*
X231925153Y-51840000D01*
X231585778Y-51840000D01*
X231579127Y-51806564D01*
X231384586Y-51515414D01*
X231093436Y-51320873D01*
X230750001Y-51252560D01*
X230099999Y-51252560D01*
X229756564Y-51320873D01*
X229465414Y-51515414D01*
X229400000Y-51613313D01*
X229334586Y-51515414D01*
X229043436Y-51320873D01*
X228700001Y-51252560D01*
X228049999Y-51252560D01*
X227706564Y-51320873D01*
X227415414Y-51515414D01*
X227220873Y-51806564D01*
X227152560Y-52149999D01*
X227152560Y-53050001D01*
X227220873Y-53393436D01*
X227415414Y-53684586D01*
X227615001Y-53817946D01*
X227615000Y-54910198D01*
X226608025Y-55917174D01*
X226507809Y-55767191D01*
X226297765Y-55626843D01*
X226050000Y-55577560D01*
X224550000Y-55577560D01*
X224515597Y-55584403D01*
X224522440Y-55550000D01*
X224522440Y-54050000D01*
X224473157Y-53802235D01*
X224332809Y-53592191D01*
X224122765Y-53451843D01*
X223875000Y-53402560D01*
X223325000Y-53402560D01*
X223200000Y-53427424D01*
X223075000Y-53402560D01*
X222525000Y-53402560D01*
X222400000Y-53427424D01*
X222275000Y-53402560D01*
X221725000Y-53402560D01*
X221600000Y-53427424D01*
X221475000Y-53402560D01*
X220925000Y-53402560D01*
X220800000Y-53427424D01*
X220675000Y-53402560D01*
X220125000Y-53402560D01*
X220000000Y-53427424D01*
X219875000Y-53402560D01*
X219325000Y-53402560D01*
X219221148Y-53423217D01*
X219201310Y-53415000D01*
X219085750Y-53415000D01*
X218991862Y-53508888D01*
X218867191Y-53592191D01*
X218800000Y-53692749D01*
X218760000Y-53632885D01*
X218760000Y-53074846D01*
X218774888Y-52999999D01*
X218760000Y-52925152D01*
X218760000Y-52925148D01*
X218715904Y-52703463D01*
X218635000Y-52582382D01*
X218635000Y-52394126D01*
X218477431Y-52013720D01*
X218186280Y-51722569D01*
X217805874Y-51565000D01*
X217394126Y-51565000D01*
X217013720Y-51722569D01*
X216722569Y-52013720D01*
X216565000Y-52394126D01*
X216565000Y-52805874D01*
X216722569Y-53186280D01*
X216938849Y-53402560D01*
X216925000Y-53402560D01*
X216800000Y-53427424D01*
X216675000Y-53402560D01*
X216125000Y-53402560D01*
X216000000Y-53427424D01*
X215875000Y-53402560D01*
X215325000Y-53402560D01*
X215077235Y-53451843D01*
X214867191Y-53592191D01*
X214726843Y-53802235D01*
X214677560Y-54050000D01*
X214677560Y-54240000D01*
X203903711Y-54240000D01*
X203786280Y-54122569D01*
X203405874Y-53965000D01*
X202994126Y-53965000D01*
X202613720Y-54122569D01*
X202322569Y-54413720D01*
X202165000Y-54794126D01*
X202165000Y-55205874D01*
X202311683Y-55560000D01*
X201532231Y-55560000D01*
X201315044Y-55234956D01*
X201249878Y-55191413D01*
X201484586Y-55034586D01*
X201679127Y-54743436D01*
X201747440Y-54400001D01*
X201747440Y-53159999D01*
X201679127Y-52816564D01*
X201484586Y-52525414D01*
X201193436Y-52330873D01*
X200850001Y-52262560D01*
X199149999Y-52262560D01*
X198806564Y-52330873D01*
X198515414Y-52525414D01*
X198320873Y-52816564D01*
X198252560Y-53159999D01*
X198252560Y-54400001D01*
X198320873Y-54743436D01*
X198515414Y-55034586D01*
X198750122Y-55191413D01*
X198684956Y-55234956D01*
X198352322Y-55732778D01*
X198235516Y-56320000D01*
X195710000Y-56320000D01*
X195710000Y-41899914D01*
X198789200Y-41899914D01*
X198789200Y-42600086D01*
X199057144Y-43246960D01*
X199552240Y-43742056D01*
X200199114Y-44010000D01*
X200899286Y-44010000D01*
X201546160Y-43742056D01*
X202041256Y-43246960D01*
X202309200Y-42600086D01*
X202309200Y-41899914D01*
X202228209Y-41704383D01*
X204105400Y-41704383D01*
X204105400Y-42795617D01*
X204522997Y-43803785D01*
X205294615Y-44575403D01*
X206302783Y-44993000D01*
X207394017Y-44993000D01*
X208402185Y-44575403D01*
X209173803Y-43803785D01*
X209591400Y-42795617D01*
X209591400Y-41704383D01*
X229607000Y-41704383D01*
X229607000Y-42795617D01*
X230024597Y-43803785D01*
X230796215Y-44575403D01*
X231804383Y-44993000D01*
X232895617Y-44993000D01*
X233903785Y-44575403D01*
X234675403Y-43803785D01*
X234804156Y-43492947D01*
X237585858Y-43492947D01*
X237699821Y-43772773D01*
X238354829Y-44020170D01*
X239054651Y-43998075D01*
X239598579Y-43772773D01*
X239712542Y-43492947D01*
X238649200Y-42429605D01*
X237585858Y-43492947D01*
X234804156Y-43492947D01*
X235093000Y-42795617D01*
X235093000Y-41955629D01*
X236879030Y-41955629D01*
X236901125Y-42655451D01*
X237126427Y-43199379D01*
X237406253Y-43313342D01*
X238469595Y-42250000D01*
X238828805Y-42250000D01*
X239892147Y-43313342D01*
X240171973Y-43199379D01*
X240419370Y-42544371D01*
X240397275Y-41844549D01*
X240171973Y-41300621D01*
X239892147Y-41186658D01*
X238828805Y-42250000D01*
X238469595Y-42250000D01*
X237406253Y-41186658D01*
X237126427Y-41300621D01*
X236879030Y-41955629D01*
X235093000Y-41955629D01*
X235093000Y-41704383D01*
X234804157Y-41007053D01*
X237585858Y-41007053D01*
X238649200Y-42070395D01*
X239712542Y-41007053D01*
X239598579Y-40727227D01*
X238943571Y-40479830D01*
X238243749Y-40501925D01*
X237699821Y-40727227D01*
X237585858Y-41007053D01*
X234804157Y-41007053D01*
X234675403Y-40696215D01*
X233903785Y-39924597D01*
X232895617Y-39507000D01*
X231804383Y-39507000D01*
X230796215Y-39924597D01*
X230024597Y-40696215D01*
X229607000Y-41704383D01*
X209591400Y-41704383D01*
X209173803Y-40696215D01*
X208402185Y-39924597D01*
X207394017Y-39507000D01*
X206302783Y-39507000D01*
X205294615Y-39924597D01*
X204522997Y-40696215D01*
X204105400Y-41704383D01*
X202228209Y-41704383D01*
X202041256Y-41253040D01*
X201546160Y-40757944D01*
X200899286Y-40490000D01*
X200199114Y-40490000D01*
X199552240Y-40757944D01*
X199057144Y-41253040D01*
X198789200Y-41899914D01*
X195710000Y-41899914D01*
X195710000Y-33710000D01*
X243490000Y-33710000D01*
X243490000Y-54278883D01*
G36*
X224192749Y-58900000D02*
X224092191Y-58967191D01*
X224008888Y-59091862D01*
X223915000Y-59185750D01*
X223915000Y-59301310D01*
X223923217Y-59321148D01*
X223902560Y-59425000D01*
X223902560Y-59975000D01*
X223927424Y-60100000D01*
X223902560Y-60225000D01*
X223902560Y-60775000D01*
X223927424Y-60900000D01*
X223902560Y-61025000D01*
X223902560Y-61575000D01*
X223927424Y-61700000D01*
X223902560Y-61825000D01*
X223902560Y-62375000D01*
X223927424Y-62500000D01*
X223902560Y-62625000D01*
X223902560Y-63175000D01*
X223927424Y-63300000D01*
X223902560Y-63425000D01*
X223902560Y-63975000D01*
X223927424Y-64100000D01*
X223902560Y-64225000D01*
X223902560Y-64775000D01*
X223909403Y-64809403D01*
X223875000Y-64802560D01*
X223325000Y-64802560D01*
X223200000Y-64827424D01*
X223075000Y-64802560D01*
X222525000Y-64802560D01*
X222400000Y-64827424D01*
X222275000Y-64802560D01*
X221725000Y-64802560D01*
X221600000Y-64827424D01*
X221475000Y-64802560D01*
X220925000Y-64802560D01*
X220800000Y-64827424D01*
X220675000Y-64802560D01*
X220160000Y-64802560D01*
X220160000Y-64703711D01*
X220277431Y-64586280D01*
X220435000Y-64205874D01*
X220435000Y-63794126D01*
X220277431Y-63413720D01*
X219986280Y-63122569D01*
X219605874Y-62965000D01*
X219194126Y-62965000D01*
X218813720Y-63122569D01*
X218522569Y-63413720D01*
X218365000Y-63794126D01*
X218365000Y-64205874D01*
X218522569Y-64586280D01*
X218640000Y-64703711D01*
X218640000Y-64930178D01*
X218608138Y-64908888D01*
X218514250Y-64815000D01*
X218398690Y-64815000D01*
X218378852Y-64823217D01*
X218275000Y-64802560D01*
X217725000Y-64802560D01*
X217600000Y-64827424D01*
X217475000Y-64802560D01*
X216925000Y-64802560D01*
X216800000Y-64827424D01*
X216675000Y-64802560D01*
X216125000Y-64802560D01*
X216000000Y-64827424D01*
X215875000Y-64802560D01*
X215325000Y-64802560D01*
X215290597Y-64809403D01*
X215297440Y-64775000D01*
X215297440Y-64225000D01*
X215272576Y-64100000D01*
X215297440Y-63975000D01*
X215297440Y-63548483D01*
X215447929Y-63447929D01*
X215490331Y-63384470D01*
X218484473Y-60390329D01*
X218547929Y-60347929D01*
X218590331Y-60284470D01*
X220014802Y-58860000D01*
X224132885Y-58860000D01*
X224192749Y-58900000D01*
X224192749Y-58900000D01*
G37*
X224192749Y-58900000D02*
X224092191Y-58967191D01*
X224008888Y-59091862D01*
X223915000Y-59185750D01*
X223915000Y-59301310D01*
X223923217Y-59321148D01*
X223902560Y-59425000D01*
X223902560Y-59975000D01*
X223927424Y-60100000D01*
X223902560Y-60225000D01*
X223902560Y-60775000D01*
X223927424Y-60900000D01*
X223902560Y-61025000D01*
X223902560Y-61575000D01*
X223927424Y-61700000D01*
X223902560Y-61825000D01*
X223902560Y-62375000D01*
X223927424Y-62500000D01*
X223902560Y-62625000D01*
X223902560Y-63175000D01*
X223927424Y-63300000D01*
X223902560Y-63425000D01*
X223902560Y-63975000D01*
X223927424Y-64100000D01*
X223902560Y-64225000D01*
X223902560Y-64775000D01*
X223909403Y-64809403D01*
X223875000Y-64802560D01*
X223325000Y-64802560D01*
X223200000Y-64827424D01*
X223075000Y-64802560D01*
X222525000Y-64802560D01*
X222400000Y-64827424D01*
X222275000Y-64802560D01*
X221725000Y-64802560D01*
X221600000Y-64827424D01*
X221475000Y-64802560D01*
X220925000Y-64802560D01*
X220800000Y-64827424D01*
X220675000Y-64802560D01*
X220160000Y-64802560D01*
X220160000Y-64703711D01*
X220277431Y-64586280D01*
X220435000Y-64205874D01*
X220435000Y-63794126D01*
X220277431Y-63413720D01*
X219986280Y-63122569D01*
X219605874Y-62965000D01*
X219194126Y-62965000D01*
X218813720Y-63122569D01*
X218522569Y-63413720D01*
X218365000Y-63794126D01*
X218365000Y-64205874D01*
X218522569Y-64586280D01*
X218640000Y-64703711D01*
X218640000Y-64930178D01*
X218608138Y-64908888D01*
X218514250Y-64815000D01*
X218398690Y-64815000D01*
X218378852Y-64823217D01*
X218275000Y-64802560D01*
X217725000Y-64802560D01*
X217600000Y-64827424D01*
X217475000Y-64802560D01*
X216925000Y-64802560D01*
X216800000Y-64827424D01*
X216675000Y-64802560D01*
X216125000Y-64802560D01*
X216000000Y-64827424D01*
X215875000Y-64802560D01*
X215325000Y-64802560D01*
X215290597Y-64809403D01*
X215297440Y-64775000D01*
X215297440Y-64225000D01*
X215272576Y-64100000D01*
X215297440Y-63975000D01*
X215297440Y-63548483D01*
X215447929Y-63447929D01*
X215490331Y-63384470D01*
X218484473Y-60390329D01*
X218547929Y-60347929D01*
X218590331Y-60284470D01*
X220014802Y-58860000D01*
X224132885Y-58860000D01*
X224192749Y-58900000D01*
G36*
X216925000Y-56197440D02*
X217240000Y-56197440D01*
X217240001Y-59485197D01*
X215297440Y-61427759D01*
X215297440Y-61025000D01*
X215272576Y-60900000D01*
X215297440Y-60775000D01*
X215297440Y-60225000D01*
X215272576Y-60100000D01*
X215297440Y-59975000D01*
X215297440Y-59425000D01*
X215272576Y-59300000D01*
X215297440Y-59175000D01*
X215297440Y-58625000D01*
X215272576Y-58500000D01*
X215297440Y-58375000D01*
X215297440Y-57825000D01*
X215272576Y-57700000D01*
X215297440Y-57575000D01*
X215297440Y-57025000D01*
X215272576Y-56900000D01*
X215297440Y-56775000D01*
X215297440Y-56225000D01*
X215290597Y-56190597D01*
X215325000Y-56197440D01*
X215875000Y-56197440D01*
X216000000Y-56172576D01*
X216125000Y-56197440D01*
X216675000Y-56197440D01*
X216800000Y-56172576D01*
X216925000Y-56197440D01*
X216925000Y-56197440D01*
G37*
X216925000Y-56197440D02*
X217240000Y-56197440D01*
X217240001Y-59485197D01*
X215297440Y-61427759D01*
X215297440Y-61025000D01*
X215272576Y-60900000D01*
X215297440Y-60775000D01*
X215297440Y-60225000D01*
X215272576Y-60100000D01*
X215297440Y-59975000D01*
X215297440Y-59425000D01*
X215272576Y-59300000D01*
X215297440Y-59175000D01*
X215297440Y-58625000D01*
X215272576Y-58500000D01*
X215297440Y-58375000D01*
X215297440Y-57825000D01*
X215272576Y-57700000D01*
X215297440Y-57575000D01*
X215297440Y-57025000D01*
X215272576Y-56900000D01*
X215297440Y-56775000D01*
X215297440Y-56225000D01*
X215290597Y-56190597D01*
X215325000Y-56197440D01*
X215875000Y-56197440D01*
X216000000Y-56172576D01*
X216125000Y-56197440D01*
X216675000Y-56197440D01*
X216800000Y-56172576D01*
X216925000Y-56197440D01*
G36*
X218867191Y-56007809D02*
X218991862Y-56091112D01*
X219085750Y-56185000D01*
X219201310Y-56185000D01*
X219221148Y-56176783D01*
X219325000Y-56197440D01*
X219875000Y-56197440D01*
X220000000Y-56172576D01*
X220125000Y-56197440D01*
X220675000Y-56197440D01*
X220800000Y-56172576D01*
X220925000Y-56197440D01*
X221475000Y-56197440D01*
X221600000Y-56172576D01*
X221725000Y-56197440D01*
X222275000Y-56197440D01*
X222400000Y-56172576D01*
X222525000Y-56197440D01*
X223075000Y-56197440D01*
X223200000Y-56172576D01*
X223325000Y-56197440D01*
X223875000Y-56197440D01*
X223909403Y-56190597D01*
X223902560Y-56225000D01*
X223902560Y-56775000D01*
X223927424Y-56900000D01*
X223902560Y-57025000D01*
X223902560Y-57340000D01*
X219774846Y-57340000D01*
X219699999Y-57325112D01*
X219625152Y-57340000D01*
X219625148Y-57340000D01*
X219403463Y-57384096D01*
X219152071Y-57552071D01*
X219109671Y-57615527D01*
X218760000Y-57965198D01*
X218760000Y-55967115D01*
X218800000Y-55907251D01*
X218867191Y-56007809D01*
X218867191Y-56007809D01*
G37*
X218867191Y-56007809D02*
X218991862Y-56091112D01*
X219085750Y-56185000D01*
X219201310Y-56185000D01*
X219221148Y-56176783D01*
X219325000Y-56197440D01*
X219875000Y-56197440D01*
X220000000Y-56172576D01*
X220125000Y-56197440D01*
X220675000Y-56197440D01*
X220800000Y-56172576D01*
X220925000Y-56197440D01*
X221475000Y-56197440D01*
X221600000Y-56172576D01*
X221725000Y-56197440D01*
X222275000Y-56197440D01*
X222400000Y-56172576D01*
X222525000Y-56197440D01*
X223075000Y-56197440D01*
X223200000Y-56172576D01*
X223325000Y-56197440D01*
X223875000Y-56197440D01*
X223909403Y-56190597D01*
X223902560Y-56225000D01*
X223902560Y-56775000D01*
X223927424Y-56900000D01*
X223902560Y-57025000D01*
X223902560Y-57340000D01*
X219774846Y-57340000D01*
X219699999Y-57325112D01*
X219625152Y-57340000D01*
X219625148Y-57340000D01*
X219403463Y-57384096D01*
X219152071Y-57552071D01*
X219109671Y-57615527D01*
X218760000Y-57965198D01*
X218760000Y-55967115D01*
X218800000Y-55907251D01*
X218867191Y-56007809D01*
G04 #@! TD*
M02*
