G04 #@! TF.GenerationSoftware,KiCad,Pcbnew,5.0.1*
G04 #@! TF.CreationDate,2019-02-12T17:29:55-06:00*
G04 #@! TF.ProjectId,EFM,45464D2E6B696361645F706362000000,rev?*
G04 #@! TF.SameCoordinates,Original*
G04 #@! TF.FileFunction,Soldermask,Top*
G04 #@! TF.FilePolarity,Negative*
%FSLAX46Y46*%
G04 Gerber Fmt 4.6, Leading zero omitted, Abs format (unit mm)*
G04 Created by KiCad (PCBNEW 5.0.1) date Tue 12 Feb 2019 05:29:55 PM CST*
%MOMM*%
%LPD*%
G01*
G04 APERTURE LIST*
%ADD10C,0.100000*%
G04 APERTURE END LIST*
D10*
G36*
X199817021Y-79806640D02*
X200326770Y-80017785D01*
X200326771Y-80017786D01*
X200785534Y-80324321D01*
X201175679Y-80714466D01*
X201380036Y-81020308D01*
X201482215Y-81173230D01*
X201693360Y-81682979D01*
X201801000Y-82224124D01*
X201801000Y-82775876D01*
X201693360Y-83317021D01*
X201482215Y-83826770D01*
X201482214Y-83826771D01*
X201175679Y-84285534D01*
X200785534Y-84675679D01*
X200479692Y-84880036D01*
X200326770Y-84982215D01*
X199817021Y-85193360D01*
X199275876Y-85301000D01*
X198724124Y-85301000D01*
X198182979Y-85193360D01*
X197673230Y-84982215D01*
X197520308Y-84880036D01*
X197214466Y-84675679D01*
X196824321Y-84285534D01*
X196517786Y-83826771D01*
X196517785Y-83826770D01*
X196306640Y-83317021D01*
X196199000Y-82775876D01*
X196199000Y-82224124D01*
X196306640Y-81682979D01*
X196517785Y-81173230D01*
X196619964Y-81020308D01*
X196824321Y-80714466D01*
X197214466Y-80324321D01*
X197673229Y-80017786D01*
X197673230Y-80017785D01*
X198182979Y-79806640D01*
X198724124Y-79699000D01*
X199275876Y-79699000D01*
X199817021Y-79806640D01*
X199817021Y-79806640D01*
G37*
G36*
X220817021Y-79806640D02*
X221326770Y-80017785D01*
X221326771Y-80017786D01*
X221785534Y-80324321D01*
X222175679Y-80714466D01*
X222380036Y-81020308D01*
X222482215Y-81173230D01*
X222693360Y-81682979D01*
X222801000Y-82224124D01*
X222801000Y-82775876D01*
X222693360Y-83317021D01*
X222482215Y-83826770D01*
X222482214Y-83826771D01*
X222175679Y-84285534D01*
X221785534Y-84675679D01*
X221479692Y-84880036D01*
X221326770Y-84982215D01*
X220817021Y-85193360D01*
X220275876Y-85301000D01*
X219724124Y-85301000D01*
X219182979Y-85193360D01*
X218673230Y-84982215D01*
X218520308Y-84880036D01*
X218214466Y-84675679D01*
X217824321Y-84285534D01*
X217517786Y-83826771D01*
X217517785Y-83826770D01*
X217306640Y-83317021D01*
X217199000Y-82775876D01*
X217199000Y-82224124D01*
X217306640Y-81682979D01*
X217517785Y-81173230D01*
X217619964Y-81020308D01*
X217824321Y-80714466D01*
X218214466Y-80324321D01*
X218673229Y-80017786D01*
X218673230Y-80017785D01*
X219182979Y-79806640D01*
X219724124Y-79699000D01*
X220275876Y-79699000D01*
X220817021Y-79806640D01*
X220817021Y-79806640D01*
G37*
G36*
X241317021Y-79806640D02*
X241826770Y-80017785D01*
X241826771Y-80017786D01*
X242285534Y-80324321D01*
X242675679Y-80714466D01*
X242880036Y-81020308D01*
X242982215Y-81173230D01*
X243193360Y-81682979D01*
X243301000Y-82224124D01*
X243301000Y-82775876D01*
X243193360Y-83317021D01*
X242982215Y-83826770D01*
X242982214Y-83826771D01*
X242675679Y-84285534D01*
X242285534Y-84675679D01*
X241979692Y-84880036D01*
X241826770Y-84982215D01*
X241317021Y-85193360D01*
X240775876Y-85301000D01*
X240224124Y-85301000D01*
X239682979Y-85193360D01*
X239173230Y-84982215D01*
X239020308Y-84880036D01*
X238714466Y-84675679D01*
X238324321Y-84285534D01*
X238017786Y-83826771D01*
X238017785Y-83826770D01*
X237806640Y-83317021D01*
X237699000Y-82775876D01*
X237699000Y-82224124D01*
X237806640Y-81682979D01*
X238017785Y-81173230D01*
X238119964Y-81020308D01*
X238324321Y-80714466D01*
X238714466Y-80324321D01*
X239173229Y-80017786D01*
X239173230Y-80017785D01*
X239682979Y-79806640D01*
X240224124Y-79699000D01*
X240775876Y-79699000D01*
X241317021Y-79806640D01*
X241317021Y-79806640D01*
G37*
G36*
X236063677Y-73853465D02*
X236101364Y-73864898D01*
X236136103Y-73883466D01*
X236166548Y-73908452D01*
X236191534Y-73938897D01*
X236210102Y-73973636D01*
X236221535Y-74011323D01*
X236226000Y-74056661D01*
X236226000Y-75143339D01*
X236221535Y-75188677D01*
X236210102Y-75226364D01*
X236191534Y-75261103D01*
X236166548Y-75291548D01*
X236136103Y-75316534D01*
X236101364Y-75335102D01*
X236063677Y-75346535D01*
X236018339Y-75351000D01*
X235181661Y-75351000D01*
X235136323Y-75346535D01*
X235098636Y-75335102D01*
X235063897Y-75316534D01*
X235033452Y-75291548D01*
X235008466Y-75261103D01*
X234989898Y-75226364D01*
X234978465Y-75188677D01*
X234974000Y-75143339D01*
X234974000Y-74056661D01*
X234978465Y-74011323D01*
X234989898Y-73973636D01*
X235008466Y-73938897D01*
X235033452Y-73908452D01*
X235063897Y-73883466D01*
X235098636Y-73864898D01*
X235136323Y-73853465D01*
X235181661Y-73849000D01*
X236018339Y-73849000D01*
X236063677Y-73853465D01*
X236063677Y-73853465D01*
G37*
G36*
X234013677Y-73853465D02*
X234051364Y-73864898D01*
X234086103Y-73883466D01*
X234116548Y-73908452D01*
X234141534Y-73938897D01*
X234160102Y-73973636D01*
X234171535Y-74011323D01*
X234176000Y-74056661D01*
X234176000Y-75143339D01*
X234171535Y-75188677D01*
X234160102Y-75226364D01*
X234141534Y-75261103D01*
X234116548Y-75291548D01*
X234086103Y-75316534D01*
X234051364Y-75335102D01*
X234013677Y-75346535D01*
X233968339Y-75351000D01*
X233131661Y-75351000D01*
X233086323Y-75346535D01*
X233048636Y-75335102D01*
X233013897Y-75316534D01*
X232983452Y-75291548D01*
X232958466Y-75261103D01*
X232939898Y-75226364D01*
X232928465Y-75188677D01*
X232924000Y-75143339D01*
X232924000Y-74056661D01*
X232928465Y-74011323D01*
X232939898Y-73973636D01*
X232958466Y-73938897D01*
X232983452Y-73908452D01*
X233013897Y-73883466D01*
X233048636Y-73864898D01*
X233086323Y-73853465D01*
X233131661Y-73849000D01*
X233968339Y-73849000D01*
X234013677Y-73853465D01*
X234013677Y-73853465D01*
G37*
G36*
X235026000Y-73161000D02*
X233374000Y-73161000D01*
X233374000Y-72459000D01*
X235026000Y-72459000D01*
X235026000Y-73161000D01*
X235026000Y-73161000D01*
G37*
G36*
X229626000Y-73161000D02*
X227974000Y-73161000D01*
X227974000Y-72459000D01*
X229626000Y-72459000D01*
X229626000Y-73161000D01*
X229626000Y-73161000D01*
G37*
G36*
X229626000Y-71891000D02*
X227974000Y-71891000D01*
X227974000Y-71189000D01*
X229626000Y-71189000D01*
X229626000Y-71891000D01*
X229626000Y-71891000D01*
G37*
G36*
X235026000Y-71891000D02*
X233374000Y-71891000D01*
X233374000Y-71189000D01*
X235026000Y-71189000D01*
X235026000Y-71891000D01*
X235026000Y-71891000D01*
G37*
G36*
X235026000Y-70621000D02*
X233374000Y-70621000D01*
X233374000Y-69919000D01*
X235026000Y-69919000D01*
X235026000Y-70621000D01*
X235026000Y-70621000D01*
G37*
G36*
X229626000Y-70621000D02*
X227974000Y-70621000D01*
X227974000Y-69919000D01*
X229626000Y-69919000D01*
X229626000Y-70621000D01*
X229626000Y-70621000D01*
G37*
G36*
X229626000Y-69351000D02*
X227974000Y-69351000D01*
X227974000Y-68649000D01*
X229626000Y-68649000D01*
X229626000Y-69351000D01*
X229626000Y-69351000D01*
G37*
G36*
X235026000Y-69351000D02*
X233374000Y-69351000D01*
X233374000Y-68649000D01*
X235026000Y-68649000D01*
X235026000Y-69351000D01*
X235026000Y-69351000D01*
G37*
G36*
X200320345Y-65563442D02*
X200410548Y-65572326D01*
X200526287Y-65607435D01*
X200584158Y-65624990D01*
X200669679Y-65670702D01*
X200744156Y-65710511D01*
X200744158Y-65710512D01*
X200744157Y-65710512D01*
X200884396Y-65825604D01*
X200999488Y-65965843D01*
X201085010Y-66125842D01*
X201085010Y-66125843D01*
X201137674Y-66299452D01*
X201155456Y-66480000D01*
X201137674Y-66660548D01*
X201102565Y-66776287D01*
X201085010Y-66834158D01*
X201039298Y-66919679D01*
X200999489Y-66994156D01*
X200884396Y-67134396D01*
X200744156Y-67249489D01*
X200669679Y-67289298D01*
X200584158Y-67335010D01*
X200526287Y-67352565D01*
X200410548Y-67387674D01*
X200320345Y-67396558D01*
X200275245Y-67401000D01*
X199724755Y-67401000D01*
X199679655Y-67396558D01*
X199589452Y-67387674D01*
X199473713Y-67352565D01*
X199415842Y-67335010D01*
X199330321Y-67289298D01*
X199255844Y-67249489D01*
X199115604Y-67134396D01*
X199000511Y-66994156D01*
X198960702Y-66919679D01*
X198914990Y-66834158D01*
X198897435Y-66776287D01*
X198862326Y-66660548D01*
X198844544Y-66480000D01*
X198862326Y-66299452D01*
X198914990Y-66125843D01*
X198914990Y-66125842D01*
X199000512Y-65965843D01*
X199115604Y-65825604D01*
X199255843Y-65710512D01*
X199255842Y-65710512D01*
X199255844Y-65710511D01*
X199330321Y-65670702D01*
X199415842Y-65624990D01*
X199473713Y-65607435D01*
X199589452Y-65572326D01*
X199679655Y-65563442D01*
X199724755Y-65559000D01*
X200275245Y-65559000D01*
X200320345Y-65563442D01*
X200320345Y-65563442D01*
G37*
G36*
X223926000Y-67001000D02*
X215274000Y-67001000D01*
X215274000Y-65399000D01*
X223926000Y-65399000D01*
X223926000Y-67001000D01*
X223926000Y-67001000D01*
G37*
G36*
X241609560Y-64822966D02*
X241642383Y-64832923D01*
X241672632Y-64849092D01*
X241699148Y-64870852D01*
X241720908Y-64897368D01*
X241737077Y-64927617D01*
X241747034Y-64960440D01*
X241751000Y-65000712D01*
X241751000Y-66479288D01*
X241747034Y-66519560D01*
X241737077Y-66552383D01*
X241720908Y-66582632D01*
X241699148Y-66609148D01*
X241672632Y-66630908D01*
X241642383Y-66647077D01*
X241609560Y-66657034D01*
X241569288Y-66661000D01*
X239630712Y-66661000D01*
X239590440Y-66657034D01*
X239557617Y-66647077D01*
X239527368Y-66630908D01*
X239500852Y-66609148D01*
X239479092Y-66582632D01*
X239462923Y-66552383D01*
X239452966Y-66519560D01*
X239449000Y-66479288D01*
X239449000Y-65000712D01*
X239452966Y-64960440D01*
X239462923Y-64927617D01*
X239479092Y-64897368D01*
X239500852Y-64870852D01*
X239527368Y-64849092D01*
X239557617Y-64832923D01*
X239590440Y-64822966D01*
X239630712Y-64819000D01*
X241569288Y-64819000D01*
X241609560Y-64822966D01*
X241609560Y-64822966D01*
G37*
G36*
X209209560Y-64762966D02*
X209242383Y-64772923D01*
X209272632Y-64789092D01*
X209299148Y-64810852D01*
X209320908Y-64837368D01*
X209337077Y-64867617D01*
X209347034Y-64900440D01*
X209351000Y-64940712D01*
X209351000Y-66419288D01*
X209347034Y-66459560D01*
X209337077Y-66492383D01*
X209320908Y-66522632D01*
X209299148Y-66549148D01*
X209272632Y-66570908D01*
X209242383Y-66587077D01*
X209209560Y-66597034D01*
X209169288Y-66601000D01*
X207230712Y-66601000D01*
X207190440Y-66597034D01*
X207157617Y-66587077D01*
X207127368Y-66570908D01*
X207100852Y-66549148D01*
X207079092Y-66522632D01*
X207062923Y-66492383D01*
X207052966Y-66459560D01*
X207049000Y-66419288D01*
X207049000Y-64940712D01*
X207052966Y-64900440D01*
X207062923Y-64867617D01*
X207079092Y-64837368D01*
X207100852Y-64810852D01*
X207127368Y-64789092D01*
X207157617Y-64772923D01*
X207190440Y-64762966D01*
X207230712Y-64759000D01*
X209169288Y-64759000D01*
X209209560Y-64762966D01*
X209209560Y-64762966D01*
G37*
G36*
X235126000Y-66256000D02*
X233474000Y-66256000D01*
X233474000Y-65554000D01*
X235126000Y-65554000D01*
X235126000Y-66256000D01*
X235126000Y-66256000D01*
G37*
G36*
X229726000Y-66256000D02*
X228074000Y-66256000D01*
X228074000Y-65554000D01*
X229726000Y-65554000D01*
X229726000Y-66256000D01*
X229726000Y-66256000D01*
G37*
G36*
X235126000Y-64986000D02*
X233474000Y-64986000D01*
X233474000Y-64284000D01*
X235126000Y-64284000D01*
X235126000Y-64986000D01*
X235126000Y-64986000D01*
G37*
G36*
X229726000Y-64986000D02*
X228074000Y-64986000D01*
X228074000Y-64284000D01*
X229726000Y-64284000D01*
X229726000Y-64986000D01*
X229726000Y-64986000D01*
G37*
G36*
X200320345Y-63023442D02*
X200410548Y-63032326D01*
X200526287Y-63067435D01*
X200584158Y-63084990D01*
X200669679Y-63130702D01*
X200744156Y-63170511D01*
X200884396Y-63285604D01*
X200962314Y-63380546D01*
X200999488Y-63425843D01*
X201085010Y-63585842D01*
X201085010Y-63585843D01*
X201137674Y-63759452D01*
X201155456Y-63940000D01*
X201137674Y-64120548D01*
X201121459Y-64174000D01*
X201085010Y-64294158D01*
X201039298Y-64379679D01*
X200999489Y-64454156D01*
X200884396Y-64594396D01*
X200744156Y-64709489D01*
X200669679Y-64749298D01*
X200584158Y-64795010D01*
X200531933Y-64810852D01*
X200410548Y-64847674D01*
X200320345Y-64856558D01*
X200275245Y-64861000D01*
X199724755Y-64861000D01*
X199679655Y-64856558D01*
X199589452Y-64847674D01*
X199468067Y-64810852D01*
X199415842Y-64795010D01*
X199330321Y-64749298D01*
X199255844Y-64709489D01*
X199115604Y-64594396D01*
X199000511Y-64454156D01*
X198960702Y-64379679D01*
X198914990Y-64294158D01*
X198878541Y-64174000D01*
X198862326Y-64120548D01*
X198844544Y-63940000D01*
X198862326Y-63759452D01*
X198914990Y-63585843D01*
X198914990Y-63585842D01*
X199000512Y-63425843D01*
X199037687Y-63380546D01*
X199115604Y-63285604D01*
X199255844Y-63170511D01*
X199330321Y-63130702D01*
X199415842Y-63084990D01*
X199473713Y-63067435D01*
X199589452Y-63032326D01*
X199679655Y-63023442D01*
X199724755Y-63019000D01*
X200275245Y-63019000D01*
X200320345Y-63023442D01*
X200320345Y-63023442D01*
G37*
G36*
X226101000Y-64826000D02*
X224499000Y-64826000D01*
X224499000Y-56174000D01*
X226101000Y-56174000D01*
X226101000Y-64826000D01*
X226101000Y-64826000D01*
G37*
G36*
X214701000Y-64826000D02*
X213099000Y-64826000D01*
X213099000Y-56174000D01*
X214701000Y-56174000D01*
X214701000Y-64826000D01*
X214701000Y-64826000D01*
G37*
G36*
X240920345Y-62283442D02*
X241010548Y-62292326D01*
X241105073Y-62321000D01*
X241184158Y-62344990D01*
X241269679Y-62390702D01*
X241344156Y-62430511D01*
X241344158Y-62430512D01*
X241344157Y-62430512D01*
X241484396Y-62545604D01*
X241599488Y-62685843D01*
X241685010Y-62845842D01*
X241685010Y-62845843D01*
X241737674Y-63019452D01*
X241755456Y-63200000D01*
X241737674Y-63380548D01*
X241703211Y-63494157D01*
X241685010Y-63554158D01*
X241668074Y-63585842D01*
X241599489Y-63714156D01*
X241484396Y-63854396D01*
X241344156Y-63969489D01*
X241296409Y-63995010D01*
X241184158Y-64055010D01*
X241164411Y-64061000D01*
X241010548Y-64107674D01*
X240920345Y-64116558D01*
X240875245Y-64121000D01*
X240324755Y-64121000D01*
X240279655Y-64116558D01*
X240189452Y-64107674D01*
X240035589Y-64061000D01*
X240015842Y-64055010D01*
X239903591Y-63995010D01*
X239855844Y-63969489D01*
X239715604Y-63854396D01*
X239600511Y-63714156D01*
X239531926Y-63585842D01*
X239514990Y-63554158D01*
X239496789Y-63494157D01*
X239462326Y-63380548D01*
X239444544Y-63200000D01*
X239462326Y-63019452D01*
X239514990Y-62845843D01*
X239514990Y-62845842D01*
X239600512Y-62685843D01*
X239715604Y-62545604D01*
X239855843Y-62430512D01*
X239855842Y-62430512D01*
X239855844Y-62430511D01*
X239930321Y-62390702D01*
X240015842Y-62344990D01*
X240094927Y-62321000D01*
X240189452Y-62292326D01*
X240279655Y-62283442D01*
X240324755Y-62279000D01*
X240875245Y-62279000D01*
X240920345Y-62283442D01*
X240920345Y-62283442D01*
G37*
G36*
X208520345Y-62223442D02*
X208610548Y-62232326D01*
X208726287Y-62267435D01*
X208784158Y-62284990D01*
X208826596Y-62307674D01*
X208944156Y-62370511D01*
X209084396Y-62485604D01*
X209199489Y-62625844D01*
X209239298Y-62700321D01*
X209285010Y-62785842D01*
X209285010Y-62785843D01*
X209337674Y-62959452D01*
X209355456Y-63140000D01*
X209337674Y-63320548D01*
X209319473Y-63380548D01*
X209285010Y-63494158D01*
X209252939Y-63554158D01*
X209199489Y-63654156D01*
X209084396Y-63794396D01*
X208944156Y-63909489D01*
X208887074Y-63940000D01*
X208784158Y-63995010D01*
X208726287Y-64012565D01*
X208610548Y-64047674D01*
X208520345Y-64056558D01*
X208475245Y-64061000D01*
X207924755Y-64061000D01*
X207879655Y-64056558D01*
X207789452Y-64047674D01*
X207673713Y-64012565D01*
X207615842Y-63995010D01*
X207512926Y-63940000D01*
X207455844Y-63909489D01*
X207315604Y-63794396D01*
X207200511Y-63654156D01*
X207147061Y-63554158D01*
X207114990Y-63494158D01*
X207080527Y-63380548D01*
X207062326Y-63320548D01*
X207044544Y-63140000D01*
X207062326Y-62959452D01*
X207114990Y-62785843D01*
X207114990Y-62785842D01*
X207160702Y-62700321D01*
X207200511Y-62625844D01*
X207315604Y-62485604D01*
X207455844Y-62370511D01*
X207573404Y-62307674D01*
X207615842Y-62284990D01*
X207673713Y-62267435D01*
X207789452Y-62232326D01*
X207879655Y-62223442D01*
X207924755Y-62219000D01*
X208475245Y-62219000D01*
X208520345Y-62223442D01*
X208520345Y-62223442D01*
G37*
G36*
X229726000Y-63716000D02*
X228074000Y-63716000D01*
X228074000Y-63014000D01*
X229726000Y-63014000D01*
X229726000Y-63716000D01*
X229726000Y-63716000D01*
G37*
G36*
X235126000Y-63716000D02*
X233474000Y-63716000D01*
X233474000Y-63014000D01*
X235126000Y-63014000D01*
X235126000Y-63716000D01*
X235126000Y-63716000D01*
G37*
G36*
X229726000Y-62446000D02*
X228074000Y-62446000D01*
X228074000Y-61744000D01*
X229726000Y-61744000D01*
X229726000Y-62446000D01*
X229726000Y-62446000D01*
G37*
G36*
X235126000Y-62446000D02*
X233474000Y-62446000D01*
X233474000Y-61744000D01*
X235126000Y-61744000D01*
X235126000Y-62446000D01*
X235126000Y-62446000D01*
G37*
G36*
X200320345Y-60483442D02*
X200410548Y-60492326D01*
X200526287Y-60527435D01*
X200584158Y-60544990D01*
X200669679Y-60590702D01*
X200744156Y-60630511D01*
X200744158Y-60630512D01*
X200744157Y-60630512D01*
X200884396Y-60745604D01*
X200999488Y-60885843D01*
X201085010Y-61045842D01*
X201085010Y-61045843D01*
X201137674Y-61219452D01*
X201155456Y-61400000D01*
X201137674Y-61580548D01*
X201123886Y-61626000D01*
X201085010Y-61754158D01*
X201074404Y-61774000D01*
X200999489Y-61914156D01*
X200884396Y-62054396D01*
X200744156Y-62169489D01*
X200669679Y-62209298D01*
X200584158Y-62255010D01*
X200526287Y-62272565D01*
X200410548Y-62307674D01*
X200320345Y-62316558D01*
X200275245Y-62321000D01*
X199724755Y-62321000D01*
X199679655Y-62316558D01*
X199589452Y-62307674D01*
X199473713Y-62272565D01*
X199415842Y-62255010D01*
X199330321Y-62209298D01*
X199255844Y-62169489D01*
X199115604Y-62054396D01*
X199000511Y-61914156D01*
X198925596Y-61774000D01*
X198914990Y-61754158D01*
X198876114Y-61626000D01*
X198862326Y-61580548D01*
X198844544Y-61400000D01*
X198862326Y-61219452D01*
X198914990Y-61045843D01*
X198914990Y-61045842D01*
X199000512Y-60885843D01*
X199115604Y-60745604D01*
X199255843Y-60630512D01*
X199255842Y-60630512D01*
X199255844Y-60630511D01*
X199330321Y-60590702D01*
X199415842Y-60544990D01*
X199473713Y-60527435D01*
X199589452Y-60492326D01*
X199679655Y-60483442D01*
X199724755Y-60479000D01*
X200275245Y-60479000D01*
X200320345Y-60483442D01*
X200320345Y-60483442D01*
G37*
G36*
X208520345Y-59683442D02*
X208610548Y-59692326D01*
X208726287Y-59727435D01*
X208784158Y-59744990D01*
X208826596Y-59767674D01*
X208944156Y-59830511D01*
X209084396Y-59945604D01*
X209199489Y-60085844D01*
X209217845Y-60120186D01*
X209285010Y-60245842D01*
X209285010Y-60245843D01*
X209337674Y-60419452D01*
X209355456Y-60600000D01*
X209337674Y-60780548D01*
X209323886Y-60826000D01*
X209285010Y-60954158D01*
X209274404Y-60974000D01*
X209199489Y-61114156D01*
X209084396Y-61254396D01*
X208944156Y-61369489D01*
X208887074Y-61400000D01*
X208784158Y-61455010D01*
X208726287Y-61472565D01*
X208610548Y-61507674D01*
X208520345Y-61516558D01*
X208475245Y-61521000D01*
X207924755Y-61521000D01*
X207879655Y-61516558D01*
X207789452Y-61507674D01*
X207673713Y-61472565D01*
X207615842Y-61455010D01*
X207512926Y-61400000D01*
X207455844Y-61369489D01*
X207315604Y-61254396D01*
X207200511Y-61114156D01*
X207125596Y-60974000D01*
X207114990Y-60954158D01*
X207076114Y-60826000D01*
X207062326Y-60780548D01*
X207044544Y-60600000D01*
X207062326Y-60419452D01*
X207114990Y-60245843D01*
X207114990Y-60245842D01*
X207182155Y-60120186D01*
X207200511Y-60085844D01*
X207315604Y-59945604D01*
X207455844Y-59830511D01*
X207573404Y-59767674D01*
X207615842Y-59744990D01*
X207673713Y-59727435D01*
X207789452Y-59692326D01*
X207879655Y-59683442D01*
X207924755Y-59679000D01*
X208475245Y-59679000D01*
X208520345Y-59683442D01*
X208520345Y-59683442D01*
G37*
G36*
X239570442Y-58585518D02*
X239636627Y-58592037D01*
X239749853Y-58626384D01*
X239806467Y-58643557D01*
X239938995Y-58714396D01*
X239962991Y-58727222D01*
X239998729Y-58756552D01*
X240100186Y-58839814D01*
X240183448Y-58941271D01*
X240212778Y-58977009D01*
X240212779Y-58977011D01*
X240296443Y-59133533D01*
X240296443Y-59133534D01*
X240347963Y-59303373D01*
X240365359Y-59480000D01*
X240347963Y-59656627D01*
X240321158Y-59744990D01*
X240296443Y-59826467D01*
X240232762Y-59945604D01*
X240212778Y-59982991D01*
X240183448Y-60018729D01*
X240100186Y-60120186D01*
X240034612Y-60174000D01*
X239962991Y-60232778D01*
X239962989Y-60232779D01*
X239806467Y-60316443D01*
X239749853Y-60333616D01*
X239636627Y-60367963D01*
X239570442Y-60374482D01*
X239504260Y-60381000D01*
X239415740Y-60381000D01*
X239349558Y-60374482D01*
X239283373Y-60367963D01*
X239170147Y-60333616D01*
X239113533Y-60316443D01*
X238957011Y-60232779D01*
X238957009Y-60232778D01*
X238885388Y-60174000D01*
X238819814Y-60120186D01*
X238736552Y-60018729D01*
X238707222Y-59982991D01*
X238687238Y-59945604D01*
X238623557Y-59826467D01*
X238598842Y-59744990D01*
X238572037Y-59656627D01*
X238554641Y-59480000D01*
X238572037Y-59303373D01*
X238623557Y-59133534D01*
X238623557Y-59133533D01*
X238707221Y-58977011D01*
X238707222Y-58977009D01*
X238736552Y-58941271D01*
X238819814Y-58839814D01*
X238921271Y-58756552D01*
X238957009Y-58727222D01*
X238981005Y-58714396D01*
X239113533Y-58643557D01*
X239170147Y-58626384D01*
X239283373Y-58592037D01*
X239349558Y-58585518D01*
X239415740Y-58579000D01*
X239504260Y-58579000D01*
X239570442Y-58585518D01*
X239570442Y-58585518D01*
G37*
G36*
X242110442Y-58585518D02*
X242176627Y-58592037D01*
X242289853Y-58626384D01*
X242346467Y-58643557D01*
X242478995Y-58714396D01*
X242502991Y-58727222D01*
X242538729Y-58756552D01*
X242640186Y-58839814D01*
X242723448Y-58941271D01*
X242752778Y-58977009D01*
X242752779Y-58977011D01*
X242836443Y-59133533D01*
X242836443Y-59133534D01*
X242887963Y-59303373D01*
X242905359Y-59480000D01*
X242887963Y-59656627D01*
X242861158Y-59744990D01*
X242836443Y-59826467D01*
X242772762Y-59945604D01*
X242752778Y-59982991D01*
X242723448Y-60018729D01*
X242640186Y-60120186D01*
X242574612Y-60174000D01*
X242502991Y-60232778D01*
X242502989Y-60232779D01*
X242346467Y-60316443D01*
X242289853Y-60333616D01*
X242176627Y-60367963D01*
X242110442Y-60374482D01*
X242044260Y-60381000D01*
X241955740Y-60381000D01*
X241889558Y-60374482D01*
X241823373Y-60367963D01*
X241710147Y-60333616D01*
X241653533Y-60316443D01*
X241497011Y-60232779D01*
X241497009Y-60232778D01*
X241425388Y-60174000D01*
X241359814Y-60120186D01*
X241276552Y-60018729D01*
X241247222Y-59982991D01*
X241227238Y-59945604D01*
X241163557Y-59826467D01*
X241138842Y-59744990D01*
X241112037Y-59656627D01*
X241094641Y-59480000D01*
X241112037Y-59303373D01*
X241163557Y-59133534D01*
X241163557Y-59133533D01*
X241247221Y-58977011D01*
X241247222Y-58977009D01*
X241276552Y-58941271D01*
X241359814Y-58839814D01*
X241461271Y-58756552D01*
X241497009Y-58727222D01*
X241521005Y-58714396D01*
X241653533Y-58643557D01*
X241710147Y-58626384D01*
X241823373Y-58592037D01*
X241889558Y-58585518D01*
X241955740Y-58579000D01*
X242044260Y-58579000D01*
X242110442Y-58585518D01*
X242110442Y-58585518D01*
G37*
G36*
X200320345Y-57943442D02*
X200410548Y-57952326D01*
X200526287Y-57987435D01*
X200584158Y-58004990D01*
X200669679Y-58050702D01*
X200744156Y-58090511D01*
X200744158Y-58090512D01*
X200744157Y-58090512D01*
X200884396Y-58205604D01*
X200999488Y-58345843D01*
X201085010Y-58505842D01*
X201085010Y-58505843D01*
X201137674Y-58679452D01*
X201155456Y-58860000D01*
X201137674Y-59040548D01*
X201109467Y-59133533D01*
X201085010Y-59214158D01*
X201078680Y-59226000D01*
X200999489Y-59374156D01*
X200884396Y-59514396D01*
X200744156Y-59629489D01*
X200693388Y-59656625D01*
X200584158Y-59715010D01*
X200526287Y-59732565D01*
X200410548Y-59767674D01*
X200320345Y-59776558D01*
X200275245Y-59781000D01*
X199724755Y-59781000D01*
X199679655Y-59776558D01*
X199589452Y-59767674D01*
X199473713Y-59732565D01*
X199415842Y-59715010D01*
X199306612Y-59656625D01*
X199255844Y-59629489D01*
X199115604Y-59514396D01*
X199000511Y-59374156D01*
X198921320Y-59226000D01*
X198914990Y-59214158D01*
X198890533Y-59133533D01*
X198862326Y-59040548D01*
X198844544Y-58860000D01*
X198862326Y-58679452D01*
X198914990Y-58505843D01*
X198914990Y-58505842D01*
X199000512Y-58345843D01*
X199115604Y-58205604D01*
X199255843Y-58090512D01*
X199255842Y-58090512D01*
X199255844Y-58090511D01*
X199330321Y-58050702D01*
X199415842Y-58004990D01*
X199473713Y-57987435D01*
X199589452Y-57952326D01*
X199679655Y-57943442D01*
X199724755Y-57939000D01*
X200275245Y-57939000D01*
X200320345Y-57943442D01*
X200320345Y-57943442D01*
G37*
G36*
X208520345Y-57143442D02*
X208610548Y-57152326D01*
X208726287Y-57187435D01*
X208784158Y-57204990D01*
X208826596Y-57227674D01*
X208944156Y-57290511D01*
X209084396Y-57405604D01*
X209199489Y-57545844D01*
X209217845Y-57580186D01*
X209285010Y-57705842D01*
X209285010Y-57705843D01*
X209337674Y-57879452D01*
X209355456Y-58060000D01*
X209337674Y-58240548D01*
X209305733Y-58345843D01*
X209285010Y-58414158D01*
X209278680Y-58426000D01*
X209199489Y-58574156D01*
X209084396Y-58714396D01*
X208944156Y-58829489D01*
X208924839Y-58839814D01*
X208784158Y-58915010D01*
X208726287Y-58932565D01*
X208610548Y-58967674D01*
X208520345Y-58976558D01*
X208475245Y-58981000D01*
X207924755Y-58981000D01*
X207879655Y-58976558D01*
X207789452Y-58967674D01*
X207673713Y-58932565D01*
X207615842Y-58915010D01*
X207475161Y-58839814D01*
X207455844Y-58829489D01*
X207315604Y-58714396D01*
X207200511Y-58574156D01*
X207121320Y-58426000D01*
X207114990Y-58414158D01*
X207094267Y-58345843D01*
X207062326Y-58240548D01*
X207044544Y-58060000D01*
X207062326Y-57879452D01*
X207114990Y-57705843D01*
X207114990Y-57705842D01*
X207182155Y-57580186D01*
X207200511Y-57545844D01*
X207315604Y-57405604D01*
X207455844Y-57290511D01*
X207573404Y-57227674D01*
X207615842Y-57204990D01*
X207673713Y-57187435D01*
X207789452Y-57152326D01*
X207879655Y-57143442D01*
X207924755Y-57139000D01*
X208475245Y-57139000D01*
X208520345Y-57143442D01*
X208520345Y-57143442D01*
G37*
G36*
X242110442Y-56045518D02*
X242176627Y-56052037D01*
X242289853Y-56086384D01*
X242346467Y-56103557D01*
X242478255Y-56174000D01*
X242502991Y-56187222D01*
X242538729Y-56216552D01*
X242640186Y-56299814D01*
X242723448Y-56401271D01*
X242752778Y-56437009D01*
X242752779Y-56437011D01*
X242836443Y-56593533D01*
X242836443Y-56593534D01*
X242887963Y-56763373D01*
X242905359Y-56940000D01*
X242887963Y-57116627D01*
X242861158Y-57204990D01*
X242836443Y-57286467D01*
X242772762Y-57405604D01*
X242752778Y-57442991D01*
X242723448Y-57478729D01*
X242640186Y-57580186D01*
X242538729Y-57663448D01*
X242502991Y-57692778D01*
X242502989Y-57692779D01*
X242346467Y-57776443D01*
X242289853Y-57793616D01*
X242176627Y-57827963D01*
X242110443Y-57834481D01*
X242044260Y-57841000D01*
X241955740Y-57841000D01*
X241889557Y-57834481D01*
X241823373Y-57827963D01*
X241710147Y-57793616D01*
X241653533Y-57776443D01*
X241497011Y-57692779D01*
X241497009Y-57692778D01*
X241461271Y-57663448D01*
X241359814Y-57580186D01*
X241276552Y-57478729D01*
X241247222Y-57442991D01*
X241227238Y-57405604D01*
X241163557Y-57286467D01*
X241138842Y-57204990D01*
X241112037Y-57116627D01*
X241094641Y-56940000D01*
X241112037Y-56763373D01*
X241163557Y-56593534D01*
X241163557Y-56593533D01*
X241247221Y-56437011D01*
X241247222Y-56437009D01*
X241276552Y-56401271D01*
X241359814Y-56299814D01*
X241461271Y-56216552D01*
X241497009Y-56187222D01*
X241521745Y-56174000D01*
X241653533Y-56103557D01*
X241710147Y-56086384D01*
X241823373Y-56052037D01*
X241889558Y-56045518D01*
X241955740Y-56039000D01*
X242044260Y-56039000D01*
X242110442Y-56045518D01*
X242110442Y-56045518D01*
G37*
G36*
X239570442Y-56045518D02*
X239636627Y-56052037D01*
X239749853Y-56086384D01*
X239806467Y-56103557D01*
X239938255Y-56174000D01*
X239962991Y-56187222D01*
X239998729Y-56216552D01*
X240100186Y-56299814D01*
X240183448Y-56401271D01*
X240212778Y-56437009D01*
X240212779Y-56437011D01*
X240296443Y-56593533D01*
X240296443Y-56593534D01*
X240347963Y-56763373D01*
X240365359Y-56940000D01*
X240347963Y-57116627D01*
X240321158Y-57204990D01*
X240296443Y-57286467D01*
X240232762Y-57405604D01*
X240212778Y-57442991D01*
X240183448Y-57478729D01*
X240100186Y-57580186D01*
X239998729Y-57663448D01*
X239962991Y-57692778D01*
X239962989Y-57692779D01*
X239806467Y-57776443D01*
X239749853Y-57793616D01*
X239636627Y-57827963D01*
X239570443Y-57834481D01*
X239504260Y-57841000D01*
X239415740Y-57841000D01*
X239349557Y-57834481D01*
X239283373Y-57827963D01*
X239170147Y-57793616D01*
X239113533Y-57776443D01*
X238957011Y-57692779D01*
X238957009Y-57692778D01*
X238921271Y-57663448D01*
X238819814Y-57580186D01*
X238736552Y-57478729D01*
X238707222Y-57442991D01*
X238687238Y-57405604D01*
X238623557Y-57286467D01*
X238598842Y-57204990D01*
X238572037Y-57116627D01*
X238554641Y-56940000D01*
X238572037Y-56763373D01*
X238623557Y-56593534D01*
X238623557Y-56593533D01*
X238707221Y-56437011D01*
X238707222Y-56437009D01*
X238736552Y-56401271D01*
X238819814Y-56299814D01*
X238921271Y-56216552D01*
X238957009Y-56187222D01*
X238981745Y-56174000D01*
X239113533Y-56103557D01*
X239170147Y-56086384D01*
X239283373Y-56052037D01*
X239349558Y-56045518D01*
X239415740Y-56039000D01*
X239504260Y-56039000D01*
X239570442Y-56045518D01*
X239570442Y-56045518D01*
G37*
G36*
X200320345Y-55403442D02*
X200410548Y-55412326D01*
X200526287Y-55447435D01*
X200584158Y-55464990D01*
X200669679Y-55510702D01*
X200744156Y-55550511D01*
X200884396Y-55665604D01*
X200999489Y-55805844D01*
X201001141Y-55808935D01*
X201085010Y-55965842D01*
X201085010Y-55965843D01*
X201137674Y-56139452D01*
X201155456Y-56320000D01*
X201137674Y-56500548D01*
X201109467Y-56593533D01*
X201085010Y-56674158D01*
X201039298Y-56759679D01*
X200999489Y-56834156D01*
X200884396Y-56974396D01*
X200744156Y-57089489D01*
X200693388Y-57116625D01*
X200584158Y-57175010D01*
X200526287Y-57192565D01*
X200410548Y-57227674D01*
X200320345Y-57236558D01*
X200275245Y-57241000D01*
X199724755Y-57241000D01*
X199679655Y-57236558D01*
X199589452Y-57227674D01*
X199473713Y-57192565D01*
X199415842Y-57175010D01*
X199306612Y-57116625D01*
X199255844Y-57089489D01*
X199115604Y-56974396D01*
X199000511Y-56834156D01*
X198960702Y-56759679D01*
X198914990Y-56674158D01*
X198890533Y-56593533D01*
X198862326Y-56500548D01*
X198844544Y-56320000D01*
X198862326Y-56139452D01*
X198914990Y-55965843D01*
X198914990Y-55965842D01*
X198998859Y-55808935D01*
X199000511Y-55805844D01*
X199115604Y-55665604D01*
X199255844Y-55550511D01*
X199330321Y-55510702D01*
X199415842Y-55464990D01*
X199473713Y-55447435D01*
X199589452Y-55412326D01*
X199679655Y-55403442D01*
X199724755Y-55399000D01*
X200275245Y-55399000D01*
X200320345Y-55403442D01*
X200320345Y-55403442D01*
G37*
G36*
X233384466Y-54741065D02*
X233423137Y-54752796D01*
X233458779Y-54771848D01*
X233490017Y-54797483D01*
X233515652Y-54828721D01*
X233534704Y-54864363D01*
X233546435Y-54903034D01*
X233551000Y-54949388D01*
X233551000Y-55600612D01*
X233546435Y-55646966D01*
X233534704Y-55685637D01*
X233515652Y-55721279D01*
X233490017Y-55752517D01*
X233458779Y-55778152D01*
X233423137Y-55797204D01*
X233384466Y-55808935D01*
X233338112Y-55813500D01*
X232261888Y-55813500D01*
X232215534Y-55808935D01*
X232176863Y-55797204D01*
X232141221Y-55778152D01*
X232109983Y-55752517D01*
X232084348Y-55721279D01*
X232065296Y-55685637D01*
X232053565Y-55646966D01*
X232049000Y-55600612D01*
X232049000Y-54949388D01*
X232053565Y-54903034D01*
X232065296Y-54864363D01*
X232084348Y-54828721D01*
X232109983Y-54797483D01*
X232141221Y-54771848D01*
X232176863Y-54752796D01*
X232215534Y-54741065D01*
X232261888Y-54736500D01*
X233338112Y-54736500D01*
X233384466Y-54741065D01*
X233384466Y-54741065D01*
G37*
G36*
X223926000Y-55601000D02*
X215274000Y-55601000D01*
X215274000Y-53999000D01*
X223926000Y-53999000D01*
X223926000Y-55601000D01*
X223926000Y-55601000D01*
G37*
G36*
X242110443Y-53505519D02*
X242176627Y-53512037D01*
X242289853Y-53546384D01*
X242346467Y-53563557D01*
X242485087Y-53637652D01*
X242502991Y-53647222D01*
X242529832Y-53669250D01*
X242640186Y-53759814D01*
X242711145Y-53846279D01*
X242752778Y-53897009D01*
X242762348Y-53914913D01*
X242836443Y-54053533D01*
X242836443Y-54053534D01*
X242887963Y-54223373D01*
X242905359Y-54400000D01*
X242887963Y-54576627D01*
X242865964Y-54649148D01*
X242836443Y-54746467D01*
X242777808Y-54856163D01*
X242752778Y-54902991D01*
X242723448Y-54938729D01*
X242640186Y-55040186D01*
X242538729Y-55123448D01*
X242502991Y-55152778D01*
X242502989Y-55152779D01*
X242346467Y-55236443D01*
X242289853Y-55253616D01*
X242176627Y-55287963D01*
X242110442Y-55294482D01*
X242044260Y-55301000D01*
X241955740Y-55301000D01*
X241889558Y-55294482D01*
X241823373Y-55287963D01*
X241710147Y-55253616D01*
X241653533Y-55236443D01*
X241497011Y-55152779D01*
X241497009Y-55152778D01*
X241461271Y-55123448D01*
X241359814Y-55040186D01*
X241276552Y-54938729D01*
X241247222Y-54902991D01*
X241222192Y-54856163D01*
X241163557Y-54746467D01*
X241134036Y-54649148D01*
X241112037Y-54576627D01*
X241094641Y-54400000D01*
X241112037Y-54223373D01*
X241163557Y-54053534D01*
X241163557Y-54053533D01*
X241237652Y-53914913D01*
X241247222Y-53897009D01*
X241288855Y-53846279D01*
X241359814Y-53759814D01*
X241470168Y-53669250D01*
X241497009Y-53647222D01*
X241514913Y-53637652D01*
X241653533Y-53563557D01*
X241710147Y-53546384D01*
X241823373Y-53512037D01*
X241889557Y-53505519D01*
X241955740Y-53499000D01*
X242044260Y-53499000D01*
X242110443Y-53505519D01*
X242110443Y-53505519D01*
G37*
G36*
X240361000Y-55301000D02*
X238559000Y-55301000D01*
X238559000Y-53499000D01*
X240361000Y-53499000D01*
X240361000Y-55301000D01*
X240361000Y-55301000D01*
G37*
G36*
X201009560Y-52862966D02*
X201042383Y-52872923D01*
X201072632Y-52889092D01*
X201099148Y-52910852D01*
X201120908Y-52937368D01*
X201137077Y-52967617D01*
X201147034Y-53000440D01*
X201151000Y-53040712D01*
X201151000Y-54519288D01*
X201147034Y-54559560D01*
X201137077Y-54592383D01*
X201120908Y-54622632D01*
X201099148Y-54649148D01*
X201072632Y-54670908D01*
X201042383Y-54687077D01*
X201009560Y-54697034D01*
X200969288Y-54701000D01*
X199030712Y-54701000D01*
X198990440Y-54697034D01*
X198957617Y-54687077D01*
X198927368Y-54670908D01*
X198900852Y-54649148D01*
X198879092Y-54622632D01*
X198862923Y-54592383D01*
X198852966Y-54559560D01*
X198849000Y-54519288D01*
X198849000Y-53040712D01*
X198852966Y-53000440D01*
X198862923Y-52967617D01*
X198879092Y-52937368D01*
X198900852Y-52910852D01*
X198927368Y-52889092D01*
X198957617Y-52872923D01*
X198990440Y-52862966D01*
X199030712Y-52859000D01*
X200969288Y-52859000D01*
X201009560Y-52862966D01*
X201009560Y-52862966D01*
G37*
G36*
X233384466Y-52866065D02*
X233423137Y-52877796D01*
X233458779Y-52896848D01*
X233490017Y-52922483D01*
X233515652Y-52953721D01*
X233534704Y-52989363D01*
X233546435Y-53028034D01*
X233551000Y-53074388D01*
X233551000Y-53725612D01*
X233546435Y-53771966D01*
X233534704Y-53810637D01*
X233515652Y-53846279D01*
X233490017Y-53877517D01*
X233458779Y-53903152D01*
X233423137Y-53922204D01*
X233384466Y-53933935D01*
X233338112Y-53938500D01*
X232261888Y-53938500D01*
X232215534Y-53933935D01*
X232176863Y-53922204D01*
X232141221Y-53903152D01*
X232109983Y-53877517D01*
X232084348Y-53846279D01*
X232065296Y-53810637D01*
X232053565Y-53771966D01*
X232049000Y-53725612D01*
X232049000Y-53074388D01*
X232053565Y-53028034D01*
X232065296Y-52989363D01*
X232084348Y-52953721D01*
X232109983Y-52922483D01*
X232141221Y-52896848D01*
X232176863Y-52877796D01*
X232215534Y-52866065D01*
X232261888Y-52861500D01*
X233338112Y-52861500D01*
X233384466Y-52866065D01*
X233384466Y-52866065D01*
G37*
G36*
X230888677Y-51853465D02*
X230926364Y-51864898D01*
X230961103Y-51883466D01*
X230991548Y-51908452D01*
X231016534Y-51938897D01*
X231035102Y-51973636D01*
X231046535Y-52011323D01*
X231051000Y-52056661D01*
X231051000Y-53143339D01*
X231046535Y-53188677D01*
X231035102Y-53226364D01*
X231016534Y-53261103D01*
X230991548Y-53291548D01*
X230961103Y-53316534D01*
X230926364Y-53335102D01*
X230888677Y-53346535D01*
X230843339Y-53351000D01*
X230006661Y-53351000D01*
X229961323Y-53346535D01*
X229923636Y-53335102D01*
X229888897Y-53316534D01*
X229858452Y-53291548D01*
X229833466Y-53261103D01*
X229814898Y-53226364D01*
X229803465Y-53188677D01*
X229799000Y-53143339D01*
X229799000Y-52056661D01*
X229803465Y-52011323D01*
X229814898Y-51973636D01*
X229833466Y-51938897D01*
X229858452Y-51908452D01*
X229888897Y-51883466D01*
X229923636Y-51864898D01*
X229961323Y-51853465D01*
X230006661Y-51849000D01*
X230843339Y-51849000D01*
X230888677Y-51853465D01*
X230888677Y-51853465D01*
G37*
G36*
X228838677Y-51853465D02*
X228876364Y-51864898D01*
X228911103Y-51883466D01*
X228941548Y-51908452D01*
X228966534Y-51938897D01*
X228985102Y-51973636D01*
X228996535Y-52011323D01*
X229001000Y-52056661D01*
X229001000Y-53143339D01*
X228996535Y-53188677D01*
X228985102Y-53226364D01*
X228966534Y-53261103D01*
X228941548Y-53291548D01*
X228911103Y-53316534D01*
X228876364Y-53335102D01*
X228838677Y-53346535D01*
X228793339Y-53351000D01*
X227956661Y-53351000D01*
X227911323Y-53346535D01*
X227873636Y-53335102D01*
X227838897Y-53316534D01*
X227808452Y-53291548D01*
X227783466Y-53261103D01*
X227764898Y-53226364D01*
X227753465Y-53188677D01*
X227749000Y-53143339D01*
X227749000Y-52056661D01*
X227753465Y-52011323D01*
X227764898Y-51973636D01*
X227783466Y-51938897D01*
X227808452Y-51908452D01*
X227838897Y-51883466D01*
X227873636Y-51864898D01*
X227911323Y-51853465D01*
X227956661Y-51849000D01*
X228793339Y-51849000D01*
X228838677Y-51853465D01*
X228838677Y-51853465D01*
G37*
G36*
X232979756Y-40173969D02*
X233209920Y-40269306D01*
X233372670Y-40336719D01*
X233723896Y-40571402D01*
X233726285Y-40572998D01*
X234027002Y-40873715D01*
X234027004Y-40873718D01*
X234263281Y-41227330D01*
X234263281Y-41227331D01*
X234426031Y-41620244D01*
X234509000Y-42037356D01*
X234509000Y-42462644D01*
X234426031Y-42879756D01*
X234330694Y-43109920D01*
X234263281Y-43272670D01*
X234028598Y-43623896D01*
X234027002Y-43626285D01*
X233726285Y-43927002D01*
X233726282Y-43927004D01*
X233372670Y-44163281D01*
X233209920Y-44230694D01*
X232979756Y-44326031D01*
X232562644Y-44409000D01*
X232137356Y-44409000D01*
X231720244Y-44326031D01*
X231490080Y-44230694D01*
X231327330Y-44163281D01*
X230973718Y-43927004D01*
X230973715Y-43927002D01*
X230672998Y-43626285D01*
X230671402Y-43623896D01*
X230436719Y-43272670D01*
X230369306Y-43109920D01*
X230273969Y-42879756D01*
X230191000Y-42462644D01*
X230191000Y-42037356D01*
X230273969Y-41620244D01*
X230436719Y-41227331D01*
X230436719Y-41227330D01*
X230672996Y-40873718D01*
X230672998Y-40873715D01*
X230973715Y-40572998D01*
X230976104Y-40571402D01*
X231327330Y-40336719D01*
X231490080Y-40269306D01*
X231720244Y-40173969D01*
X232137356Y-40091000D01*
X232562644Y-40091000D01*
X232979756Y-40173969D01*
X232979756Y-40173969D01*
G37*
G36*
X207478156Y-40173969D02*
X207708320Y-40269306D01*
X207871070Y-40336719D01*
X208222296Y-40571402D01*
X208224685Y-40572998D01*
X208525402Y-40873715D01*
X208525404Y-40873718D01*
X208761681Y-41227330D01*
X208761681Y-41227331D01*
X208924431Y-41620244D01*
X209007400Y-42037356D01*
X209007400Y-42462644D01*
X208924431Y-42879756D01*
X208829094Y-43109920D01*
X208761681Y-43272670D01*
X208526998Y-43623896D01*
X208525402Y-43626285D01*
X208224685Y-43927002D01*
X208224682Y-43927004D01*
X207871070Y-44163281D01*
X207708320Y-44230694D01*
X207478156Y-44326031D01*
X207061044Y-44409000D01*
X206635756Y-44409000D01*
X206218644Y-44326031D01*
X205988480Y-44230694D01*
X205825730Y-44163281D01*
X205472118Y-43927004D01*
X205472115Y-43927002D01*
X205171398Y-43626285D01*
X205169802Y-43623896D01*
X204935119Y-43272670D01*
X204867706Y-43109920D01*
X204772369Y-42879756D01*
X204689400Y-42462644D01*
X204689400Y-42037356D01*
X204772369Y-41620244D01*
X204935119Y-41227331D01*
X204935119Y-41227330D01*
X205171396Y-40873718D01*
X205171398Y-40873715D01*
X205472115Y-40572998D01*
X205474504Y-40571402D01*
X205825730Y-40336719D01*
X205988480Y-40269306D01*
X206218644Y-40173969D01*
X206635756Y-40091000D01*
X207061044Y-40091000D01*
X207478156Y-40173969D01*
X207478156Y-40173969D01*
G37*
G36*
X200778627Y-41096597D02*
X200892227Y-41119193D01*
X201106245Y-41207842D01*
X201297558Y-41335674D01*
X201298859Y-41336543D01*
X201462657Y-41500341D01*
X201462659Y-41500344D01*
X201591358Y-41692955D01*
X201680007Y-41906973D01*
X201725200Y-42134174D01*
X201725200Y-42365826D01*
X201680007Y-42593027D01*
X201591358Y-42807045D01*
X201542773Y-42879757D01*
X201462657Y-42999659D01*
X201298859Y-43163457D01*
X201298856Y-43163459D01*
X201106245Y-43292158D01*
X200892227Y-43380807D01*
X200778627Y-43403403D01*
X200665027Y-43426000D01*
X200433373Y-43426000D01*
X200319774Y-43403404D01*
X200206173Y-43380807D01*
X199992155Y-43292158D01*
X199799544Y-43163459D01*
X199799541Y-43163457D01*
X199635743Y-42999659D01*
X199555627Y-42879757D01*
X199507042Y-42807045D01*
X199418393Y-42593027D01*
X199373200Y-42365826D01*
X199373200Y-42134174D01*
X199418393Y-41906973D01*
X199507042Y-41692955D01*
X199635741Y-41500344D01*
X199635743Y-41500341D01*
X199799541Y-41336543D01*
X199800842Y-41335674D01*
X199992155Y-41207842D01*
X200206173Y-41119193D01*
X200319773Y-41096597D01*
X200433373Y-41074000D01*
X200665027Y-41074000D01*
X200778627Y-41096597D01*
X200778627Y-41096597D01*
G37*
G36*
X238878627Y-41096597D02*
X238992227Y-41119193D01*
X239206245Y-41207842D01*
X239397558Y-41335674D01*
X239398859Y-41336543D01*
X239562657Y-41500341D01*
X239562659Y-41500344D01*
X239691358Y-41692955D01*
X239780007Y-41906973D01*
X239825200Y-42134174D01*
X239825200Y-42365826D01*
X239780007Y-42593027D01*
X239691358Y-42807045D01*
X239642773Y-42879757D01*
X239562657Y-42999659D01*
X239398859Y-43163457D01*
X239398856Y-43163459D01*
X239206245Y-43292158D01*
X238992227Y-43380807D01*
X238878627Y-43403403D01*
X238765027Y-43426000D01*
X238533373Y-43426000D01*
X238419774Y-43403404D01*
X238306173Y-43380807D01*
X238092155Y-43292158D01*
X237899544Y-43163459D01*
X237899541Y-43163457D01*
X237735743Y-42999659D01*
X237655627Y-42879757D01*
X237607042Y-42807045D01*
X237518393Y-42593027D01*
X237473200Y-42365826D01*
X237473200Y-42134174D01*
X237518393Y-41906973D01*
X237607042Y-41692955D01*
X237735741Y-41500344D01*
X237735743Y-41500341D01*
X237899541Y-41336543D01*
X237900842Y-41335674D01*
X238092155Y-41207842D01*
X238306173Y-41119193D01*
X238419773Y-41096597D01*
X238533373Y-41074000D01*
X238765027Y-41074000D01*
X238878627Y-41096597D01*
X238878627Y-41096597D01*
G37*
M02*
