M48
;DRILL file {KiCad 5.0.1} date Tue 12 Feb 2019 05:29:57 PM CST
;FORMAT={-:-/ absolute / inch / decimal}
FMAT,2
INCH,TZ
T1C0.0157
T2C0.0394
T3C0.0472
T4C0.0591
T5C0.1260
T6C0.2165
%
G90
G05
M72
T1
X7.8583Y-1.9134
X8.Y-2.1654
X8.4409Y-1.6378
X8.4882Y-2.6772
X8.5039Y-2.3701
X8.5354Y-2.6772
X8.5433Y-2.5118
X8.5669Y-2.0709
X8.6378Y-2.5197
X8.7244Y-2.2362
X8.7323Y-2.3228
X8.8976Y-2.8165
X8.9213Y-2.7087
X9.1181Y-2.5748
X9.1181Y-2.7717
X9.3071Y-2.5197
X9.3071Y-2.622
X9.3701Y-2.748
T2
X9.4276Y-2.1417
X9.4276Y-2.2417
X9.4276Y-2.3417
X9.5276Y-2.1417
X9.5276Y-2.2417
X9.5276Y-2.3417
T3
X7.874Y-2.1173
X7.874Y-2.2173
X7.874Y-2.3173
X7.874Y-2.4173
X7.874Y-2.5173
X7.874Y-2.6173
X8.1969Y-2.2858
X8.1969Y-2.3858
X8.1969Y-2.4858
X8.1969Y-2.5858
X9.4724Y-2.4882
X9.4724Y-2.5882
T4
X7.8956Y-1.6634
X9.3956Y-1.6634
T5
X8.1436Y-1.6634
X9.1476Y-1.6634
T6
X8.6614Y-3.248
X9.4685Y-3.248
X7.8346Y-3.248
T0
M30
