%TF.GenerationSoftware,KiCad,Pcbnew,5.0.1*%
%TF.CreationDate,2019-02-04T17:12:45-06:00*%
%TF.ProjectId,RDP-Environmental,5244502D456E7669726F6E6D656E7461,01*%
%TF.SameCoordinates,Original*%
%TF.FileFunction,Soldermask,Top*%
%TF.FilePolarity,Negative*%
%FSLAX46Y46*%
G04 Gerber Fmt 4.6, Leading zero omitted, Abs format (unit mm)*
G04 Created by KiCad (PCBNEW 5.0.1) date Mon 04 Feb 2019 05:12:45 PM CST*
%MOMM*%
%LPD*%
G01*
G04 APERTURE LIST*
%ADD10C,0.100000*%
G04 APERTURE END LIST*
D10*
G36*
X48440547Y-66426326D02*
X48556286Y-66461435D01*
X48614157Y-66478990D01*
X48635718Y-66490515D01*
X48774155Y-66564511D01*
X48914396Y-66679604D01*
X49029489Y-66819844D01*
X49069298Y-66894321D01*
X49115010Y-66979842D01*
X49124617Y-67011513D01*
X49167674Y-67153452D01*
X49181000Y-67288756D01*
X49181000Y-67839243D01*
X49167674Y-67974548D01*
X49115010Y-68148157D01*
X49029489Y-68308156D01*
X48914396Y-68448396D01*
X48774156Y-68563489D01*
X48755314Y-68573560D01*
X48614158Y-68649010D01*
X48567551Y-68663148D01*
X48440548Y-68701674D01*
X48260000Y-68719456D01*
X48079453Y-68701674D01*
X47952450Y-68663148D01*
X47905843Y-68649010D01*
X47764687Y-68573560D01*
X47745845Y-68563489D01*
X47605605Y-68448396D01*
X47490512Y-68308156D01*
X47450703Y-68233680D01*
X47404990Y-68148158D01*
X47387435Y-68090287D01*
X47352326Y-67974548D01*
X47339000Y-67839244D01*
X47339000Y-67288757D01*
X47352326Y-67153453D01*
X47404990Y-66979844D01*
X47404990Y-66979843D01*
X47436183Y-66921486D01*
X47490511Y-66819845D01*
X47605604Y-66679604D01*
X47745844Y-66564511D01*
X47882685Y-66491368D01*
X47905842Y-66478990D01*
X47963713Y-66461435D01*
X48079452Y-66426326D01*
X48260000Y-66408544D01*
X48440547Y-66426326D01*
X48440547Y-66426326D01*
G37*
G36*
X54790547Y-66426326D02*
X54906286Y-66461435D01*
X54964157Y-66478990D01*
X54985718Y-66490515D01*
X55124155Y-66564511D01*
X55264396Y-66679604D01*
X55379489Y-66819844D01*
X55419298Y-66894321D01*
X55465010Y-66979842D01*
X55474617Y-67011513D01*
X55517674Y-67153452D01*
X55531000Y-67288756D01*
X55531000Y-67839243D01*
X55517674Y-67974548D01*
X55465010Y-68148157D01*
X55379489Y-68308156D01*
X55264396Y-68448396D01*
X55124156Y-68563489D01*
X55105314Y-68573560D01*
X54964158Y-68649010D01*
X54917551Y-68663148D01*
X54790548Y-68701674D01*
X54610000Y-68719456D01*
X54429453Y-68701674D01*
X54302450Y-68663148D01*
X54255843Y-68649010D01*
X54114687Y-68573560D01*
X54095845Y-68563489D01*
X53955605Y-68448396D01*
X53840512Y-68308156D01*
X53800703Y-68233680D01*
X53754990Y-68148158D01*
X53737435Y-68090287D01*
X53702326Y-67974548D01*
X53689000Y-67839244D01*
X53689000Y-67288757D01*
X53702326Y-67153453D01*
X53754990Y-66979844D01*
X53754990Y-66979843D01*
X53786183Y-66921486D01*
X53840511Y-66819845D01*
X53955604Y-66679604D01*
X54095844Y-66564511D01*
X54232685Y-66491368D01*
X54255842Y-66478990D01*
X54313713Y-66461435D01*
X54429452Y-66426326D01*
X54610000Y-66408544D01*
X54790547Y-66426326D01*
X54790547Y-66426326D01*
G37*
G36*
X46499560Y-66416966D02*
X46532383Y-66426923D01*
X46562632Y-66443092D01*
X46589148Y-66464852D01*
X46610908Y-66491368D01*
X46627077Y-66521617D01*
X46637034Y-66554440D01*
X46641000Y-66594712D01*
X46641000Y-68533288D01*
X46637034Y-68573560D01*
X46627077Y-68606383D01*
X46610908Y-68636632D01*
X46589148Y-68663148D01*
X46562632Y-68684908D01*
X46532383Y-68701077D01*
X46499560Y-68711034D01*
X46459288Y-68715000D01*
X44980712Y-68715000D01*
X44940440Y-68711034D01*
X44907617Y-68701077D01*
X44877368Y-68684908D01*
X44850852Y-68663148D01*
X44829092Y-68636632D01*
X44812923Y-68606383D01*
X44802966Y-68573560D01*
X44799000Y-68533288D01*
X44799000Y-66594712D01*
X44802966Y-66554440D01*
X44812923Y-66521617D01*
X44829092Y-66491368D01*
X44850852Y-66464852D01*
X44877368Y-66443092D01*
X44907617Y-66426923D01*
X44940440Y-66416966D01*
X44980712Y-66413000D01*
X46459288Y-66413000D01*
X46499560Y-66416966D01*
X46499560Y-66416966D01*
G37*
G36*
X52849560Y-66416966D02*
X52882383Y-66426923D01*
X52912632Y-66443092D01*
X52939148Y-66464852D01*
X52960908Y-66491368D01*
X52977077Y-66521617D01*
X52987034Y-66554440D01*
X52991000Y-66594712D01*
X52991000Y-68533288D01*
X52987034Y-68573560D01*
X52977077Y-68606383D01*
X52960908Y-68636632D01*
X52939148Y-68663148D01*
X52912632Y-68684908D01*
X52882383Y-68701077D01*
X52849560Y-68711034D01*
X52809288Y-68715000D01*
X51330712Y-68715000D01*
X51290440Y-68711034D01*
X51257617Y-68701077D01*
X51227368Y-68684908D01*
X51200852Y-68663148D01*
X51179092Y-68636632D01*
X51162923Y-68606383D01*
X51152966Y-68573560D01*
X51149000Y-68533288D01*
X51149000Y-66594712D01*
X51152966Y-66554440D01*
X51162923Y-66521617D01*
X51179092Y-66491368D01*
X51200852Y-66464852D01*
X51227368Y-66443092D01*
X51257617Y-66426923D01*
X51290440Y-66416966D01*
X51330712Y-66413000D01*
X52809288Y-66413000D01*
X52849560Y-66416966D01*
X52849560Y-66416966D01*
G37*
G36*
X28538252Y-64067818D02*
X28538254Y-64067819D01*
X28538255Y-64067819D01*
X28911513Y-64222427D01*
X28911514Y-64222428D01*
X29247439Y-64446886D01*
X29533114Y-64732561D01*
X29533116Y-64732564D01*
X29757573Y-65068487D01*
X29912181Y-65441745D01*
X29912182Y-65441748D01*
X29991000Y-65837993D01*
X29991000Y-66242007D01*
X29920843Y-66594712D01*
X29912181Y-66638255D01*
X29757573Y-67011513D01*
X29662731Y-67153454D01*
X29533114Y-67347439D01*
X29247439Y-67633114D01*
X29247436Y-67633116D01*
X28911513Y-67857573D01*
X28538255Y-68012181D01*
X28538254Y-68012181D01*
X28538252Y-68012182D01*
X28142007Y-68091000D01*
X27737993Y-68091000D01*
X27341748Y-68012182D01*
X27341746Y-68012181D01*
X27341745Y-68012181D01*
X26968487Y-67857573D01*
X26632564Y-67633116D01*
X26632561Y-67633114D01*
X26346886Y-67347439D01*
X26217269Y-67153454D01*
X26122427Y-67011513D01*
X25967819Y-66638255D01*
X25959158Y-66594712D01*
X25889000Y-66242007D01*
X25889000Y-65837993D01*
X25967818Y-65441748D01*
X25967819Y-65441745D01*
X26122427Y-65068487D01*
X26346884Y-64732564D01*
X26346886Y-64732561D01*
X26632561Y-64446886D01*
X26968486Y-64222428D01*
X26968487Y-64222427D01*
X27341745Y-64067819D01*
X27341746Y-64067819D01*
X27341748Y-64067818D01*
X27737993Y-63989000D01*
X28142007Y-63989000D01*
X28538252Y-64067818D01*
X28538252Y-64067818D01*
G37*
G36*
X89498252Y-64067818D02*
X89498254Y-64067819D01*
X89498255Y-64067819D01*
X89871513Y-64222427D01*
X89871514Y-64222428D01*
X90207439Y-64446886D01*
X90493114Y-64732561D01*
X90493116Y-64732564D01*
X90717573Y-65068487D01*
X90872181Y-65441745D01*
X90872182Y-65441748D01*
X90951000Y-65837993D01*
X90951000Y-66242007D01*
X90880843Y-66594712D01*
X90872181Y-66638255D01*
X90717573Y-67011513D01*
X90622731Y-67153454D01*
X90493114Y-67347439D01*
X90207439Y-67633114D01*
X90207436Y-67633116D01*
X89871513Y-67857573D01*
X89498255Y-68012181D01*
X89498254Y-68012181D01*
X89498252Y-68012182D01*
X89102007Y-68091000D01*
X88697993Y-68091000D01*
X88301748Y-68012182D01*
X88301746Y-68012181D01*
X88301745Y-68012181D01*
X87928487Y-67857573D01*
X87592564Y-67633116D01*
X87592561Y-67633114D01*
X87306886Y-67347439D01*
X87177269Y-67153454D01*
X87082427Y-67011513D01*
X86927819Y-66638255D01*
X86919158Y-66594712D01*
X86849000Y-66242007D01*
X86849000Y-65837993D01*
X86927818Y-65441748D01*
X86927819Y-65441745D01*
X87082427Y-65068487D01*
X87306884Y-64732564D01*
X87306886Y-64732561D01*
X87592561Y-64446886D01*
X87928486Y-64222428D01*
X87928487Y-64222427D01*
X88301745Y-64067819D01*
X88301746Y-64067819D01*
X88301748Y-64067818D01*
X88697993Y-63989000D01*
X89102007Y-63989000D01*
X89498252Y-64067818D01*
X89498252Y-64067818D01*
G37*
G36*
X85835442Y-59430518D02*
X85901627Y-59437037D01*
X86014853Y-59471384D01*
X86071467Y-59488557D01*
X86210087Y-59562652D01*
X86227991Y-59572222D01*
X86263729Y-59601552D01*
X86365186Y-59684814D01*
X86448448Y-59786271D01*
X86477778Y-59822009D01*
X86477779Y-59822011D01*
X86561443Y-59978533D01*
X86561443Y-59978534D01*
X86612963Y-60148373D01*
X86630359Y-60325000D01*
X86612963Y-60501627D01*
X86578616Y-60614853D01*
X86561443Y-60671467D01*
X86487348Y-60810087D01*
X86477778Y-60827991D01*
X86448448Y-60863729D01*
X86365186Y-60965186D01*
X86263729Y-61048448D01*
X86227991Y-61077778D01*
X86227989Y-61077779D01*
X86071467Y-61161443D01*
X86014853Y-61178616D01*
X85901627Y-61212963D01*
X85835442Y-61219482D01*
X85769260Y-61226000D01*
X85680740Y-61226000D01*
X85614558Y-61219482D01*
X85548373Y-61212963D01*
X85435147Y-61178616D01*
X85378533Y-61161443D01*
X85222011Y-61077779D01*
X85222009Y-61077778D01*
X85186271Y-61048448D01*
X85084814Y-60965186D01*
X85001552Y-60863729D01*
X84972222Y-60827991D01*
X84962652Y-60810087D01*
X84888557Y-60671467D01*
X84871384Y-60614853D01*
X84837037Y-60501627D01*
X84819641Y-60325000D01*
X84837037Y-60148373D01*
X84888557Y-59978534D01*
X84888557Y-59978533D01*
X84972221Y-59822011D01*
X84972222Y-59822009D01*
X85001552Y-59786271D01*
X85084814Y-59684814D01*
X85186271Y-59601552D01*
X85222009Y-59572222D01*
X85239913Y-59562652D01*
X85378533Y-59488557D01*
X85435147Y-59471384D01*
X85548373Y-59437037D01*
X85614558Y-59430518D01*
X85680740Y-59424000D01*
X85769260Y-59424000D01*
X85835442Y-59430518D01*
X85835442Y-59430518D01*
G37*
G36*
X91706000Y-61226000D02*
X89904000Y-61226000D01*
X89904000Y-59424000D01*
X91706000Y-59424000D01*
X91706000Y-61226000D01*
X91706000Y-61226000D01*
G37*
G36*
X88375442Y-59430518D02*
X88441627Y-59437037D01*
X88554853Y-59471384D01*
X88611467Y-59488557D01*
X88750087Y-59562652D01*
X88767991Y-59572222D01*
X88803729Y-59601552D01*
X88905186Y-59684814D01*
X88988448Y-59786271D01*
X89017778Y-59822009D01*
X89017779Y-59822011D01*
X89101443Y-59978533D01*
X89101443Y-59978534D01*
X89152963Y-60148373D01*
X89170359Y-60325000D01*
X89152963Y-60501627D01*
X89118616Y-60614853D01*
X89101443Y-60671467D01*
X89027348Y-60810087D01*
X89017778Y-60827991D01*
X88988448Y-60863729D01*
X88905186Y-60965186D01*
X88803729Y-61048448D01*
X88767991Y-61077778D01*
X88767989Y-61077779D01*
X88611467Y-61161443D01*
X88554853Y-61178616D01*
X88441627Y-61212963D01*
X88375442Y-61219482D01*
X88309260Y-61226000D01*
X88220740Y-61226000D01*
X88154558Y-61219482D01*
X88088373Y-61212963D01*
X87975147Y-61178616D01*
X87918533Y-61161443D01*
X87762011Y-61077779D01*
X87762009Y-61077778D01*
X87726271Y-61048448D01*
X87624814Y-60965186D01*
X87541552Y-60863729D01*
X87512222Y-60827991D01*
X87502652Y-60810087D01*
X87428557Y-60671467D01*
X87411384Y-60614853D01*
X87377037Y-60501627D01*
X87359641Y-60325000D01*
X87377037Y-60148373D01*
X87428557Y-59978534D01*
X87428557Y-59978533D01*
X87512221Y-59822011D01*
X87512222Y-59822009D01*
X87541552Y-59786271D01*
X87624814Y-59684814D01*
X87726271Y-59601552D01*
X87762009Y-59572222D01*
X87779913Y-59562652D01*
X87918533Y-59488557D01*
X87975147Y-59471384D01*
X88088373Y-59437037D01*
X88154558Y-59430518D01*
X88220740Y-59424000D01*
X88309260Y-59424000D01*
X88375442Y-59430518D01*
X88375442Y-59430518D01*
G37*
G36*
X83295442Y-59430518D02*
X83361627Y-59437037D01*
X83474853Y-59471384D01*
X83531467Y-59488557D01*
X83670087Y-59562652D01*
X83687991Y-59572222D01*
X83723729Y-59601552D01*
X83825186Y-59684814D01*
X83908448Y-59786271D01*
X83937778Y-59822009D01*
X83937779Y-59822011D01*
X84021443Y-59978533D01*
X84021443Y-59978534D01*
X84072963Y-60148373D01*
X84090359Y-60325000D01*
X84072963Y-60501627D01*
X84038616Y-60614853D01*
X84021443Y-60671467D01*
X83947348Y-60810087D01*
X83937778Y-60827991D01*
X83908448Y-60863729D01*
X83825186Y-60965186D01*
X83723729Y-61048448D01*
X83687991Y-61077778D01*
X83687989Y-61077779D01*
X83531467Y-61161443D01*
X83474853Y-61178616D01*
X83361627Y-61212963D01*
X83295442Y-61219482D01*
X83229260Y-61226000D01*
X83140740Y-61226000D01*
X83074558Y-61219482D01*
X83008373Y-61212963D01*
X82895147Y-61178616D01*
X82838533Y-61161443D01*
X82682011Y-61077779D01*
X82682009Y-61077778D01*
X82646271Y-61048448D01*
X82544814Y-60965186D01*
X82461552Y-60863729D01*
X82432222Y-60827991D01*
X82422652Y-60810087D01*
X82348557Y-60671467D01*
X82331384Y-60614853D01*
X82297037Y-60501627D01*
X82279641Y-60325000D01*
X82297037Y-60148373D01*
X82348557Y-59978534D01*
X82348557Y-59978533D01*
X82432221Y-59822011D01*
X82432222Y-59822009D01*
X82461552Y-59786271D01*
X82544814Y-59684814D01*
X82646271Y-59601552D01*
X82682009Y-59572222D01*
X82699913Y-59562652D01*
X82838533Y-59488557D01*
X82895147Y-59471384D01*
X83008373Y-59437037D01*
X83074558Y-59430518D01*
X83140740Y-59424000D01*
X83229260Y-59424000D01*
X83295442Y-59430518D01*
X83295442Y-59430518D01*
G37*
G36*
X35670443Y-57525519D02*
X35736627Y-57532037D01*
X35849853Y-57566384D01*
X35906467Y-57583557D01*
X36045087Y-57657652D01*
X36062991Y-57667222D01*
X36098729Y-57696552D01*
X36200186Y-57779814D01*
X36283448Y-57881271D01*
X36312778Y-57917009D01*
X36312779Y-57917011D01*
X36396443Y-58073533D01*
X36404613Y-58100466D01*
X36447963Y-58243373D01*
X36465359Y-58420000D01*
X36447963Y-58596627D01*
X36413616Y-58709853D01*
X36396443Y-58766467D01*
X36322348Y-58905087D01*
X36312778Y-58922991D01*
X36283448Y-58958729D01*
X36200186Y-59060186D01*
X36139073Y-59110339D01*
X36062991Y-59172778D01*
X36062989Y-59172779D01*
X35906467Y-59256443D01*
X35849853Y-59273616D01*
X35736627Y-59307963D01*
X35670442Y-59314482D01*
X35604260Y-59321000D01*
X35515740Y-59321000D01*
X35449558Y-59314482D01*
X35383373Y-59307963D01*
X35270147Y-59273616D01*
X35213533Y-59256443D01*
X35057011Y-59172779D01*
X35057009Y-59172778D01*
X34980927Y-59110339D01*
X34919814Y-59060186D01*
X34836552Y-58958729D01*
X34807222Y-58922991D01*
X34797652Y-58905087D01*
X34723557Y-58766467D01*
X34706384Y-58709853D01*
X34672037Y-58596627D01*
X34654641Y-58420000D01*
X34672037Y-58243373D01*
X34715387Y-58100466D01*
X34723557Y-58073533D01*
X34807221Y-57917011D01*
X34807222Y-57917009D01*
X34836552Y-57881271D01*
X34919814Y-57779814D01*
X35021271Y-57696552D01*
X35057009Y-57667222D01*
X35074913Y-57657652D01*
X35213533Y-57583557D01*
X35270147Y-57566384D01*
X35383373Y-57532037D01*
X35449557Y-57525519D01*
X35515740Y-57519000D01*
X35604260Y-57519000D01*
X35670443Y-57525519D01*
X35670443Y-57525519D01*
G37*
G36*
X31381000Y-59321000D02*
X29579000Y-59321000D01*
X29579000Y-57519000D01*
X31381000Y-57519000D01*
X31381000Y-59321000D01*
X31381000Y-59321000D01*
G37*
G36*
X33130443Y-57525519D02*
X33196627Y-57532037D01*
X33309853Y-57566384D01*
X33366467Y-57583557D01*
X33505087Y-57657652D01*
X33522991Y-57667222D01*
X33558729Y-57696552D01*
X33660186Y-57779814D01*
X33743448Y-57881271D01*
X33772778Y-57917009D01*
X33772779Y-57917011D01*
X33856443Y-58073533D01*
X33864613Y-58100466D01*
X33907963Y-58243373D01*
X33925359Y-58420000D01*
X33907963Y-58596627D01*
X33873616Y-58709853D01*
X33856443Y-58766467D01*
X33782348Y-58905087D01*
X33772778Y-58922991D01*
X33743448Y-58958729D01*
X33660186Y-59060186D01*
X33599073Y-59110339D01*
X33522991Y-59172778D01*
X33522989Y-59172779D01*
X33366467Y-59256443D01*
X33309853Y-59273616D01*
X33196627Y-59307963D01*
X33130442Y-59314482D01*
X33064260Y-59321000D01*
X32975740Y-59321000D01*
X32909558Y-59314482D01*
X32843373Y-59307963D01*
X32730147Y-59273616D01*
X32673533Y-59256443D01*
X32517011Y-59172779D01*
X32517009Y-59172778D01*
X32440927Y-59110339D01*
X32379814Y-59060186D01*
X32296552Y-58958729D01*
X32267222Y-58922991D01*
X32257652Y-58905087D01*
X32183557Y-58766467D01*
X32166384Y-58709853D01*
X32132037Y-58596627D01*
X32114641Y-58420000D01*
X32132037Y-58243373D01*
X32175387Y-58100466D01*
X32183557Y-58073533D01*
X32267221Y-57917011D01*
X32267222Y-57917009D01*
X32296552Y-57881271D01*
X32379814Y-57779814D01*
X32481271Y-57696552D01*
X32517009Y-57667222D01*
X32534913Y-57657652D01*
X32673533Y-57583557D01*
X32730147Y-57566384D01*
X32843373Y-57532037D01*
X32909557Y-57525519D01*
X32975740Y-57519000D01*
X33064260Y-57519000D01*
X33130443Y-57525519D01*
X33130443Y-57525519D01*
G37*
G36*
X38210443Y-57525519D02*
X38276627Y-57532037D01*
X38389853Y-57566384D01*
X38446467Y-57583557D01*
X38585087Y-57657652D01*
X38602991Y-57667222D01*
X38638729Y-57696552D01*
X38740186Y-57779814D01*
X38823448Y-57881271D01*
X38852778Y-57917009D01*
X38852779Y-57917011D01*
X38936443Y-58073533D01*
X38944613Y-58100466D01*
X38987963Y-58243373D01*
X39005359Y-58420000D01*
X38987963Y-58596627D01*
X38953616Y-58709853D01*
X38936443Y-58766467D01*
X38862348Y-58905087D01*
X38852778Y-58922991D01*
X38823448Y-58958729D01*
X38740186Y-59060186D01*
X38679073Y-59110339D01*
X38602991Y-59172778D01*
X38602989Y-59172779D01*
X38446467Y-59256443D01*
X38389853Y-59273616D01*
X38276627Y-59307963D01*
X38210442Y-59314482D01*
X38144260Y-59321000D01*
X38055740Y-59321000D01*
X37989558Y-59314482D01*
X37923373Y-59307963D01*
X37810147Y-59273616D01*
X37753533Y-59256443D01*
X37597011Y-59172779D01*
X37597009Y-59172778D01*
X37520927Y-59110339D01*
X37459814Y-59060186D01*
X37376552Y-58958729D01*
X37347222Y-58922991D01*
X37337652Y-58905087D01*
X37263557Y-58766467D01*
X37246384Y-58709853D01*
X37212037Y-58596627D01*
X37194641Y-58420000D01*
X37212037Y-58243373D01*
X37255387Y-58100466D01*
X37263557Y-58073533D01*
X37347221Y-57917011D01*
X37347222Y-57917009D01*
X37376552Y-57881271D01*
X37459814Y-57779814D01*
X37561271Y-57696552D01*
X37597009Y-57667222D01*
X37614913Y-57657652D01*
X37753533Y-57583557D01*
X37810147Y-57566384D01*
X37923373Y-57532037D01*
X37989557Y-57525519D01*
X38055740Y-57519000D01*
X38144260Y-57519000D01*
X38210443Y-57525519D01*
X38210443Y-57525519D01*
G37*
G36*
X43290443Y-57525519D02*
X43356627Y-57532037D01*
X43469853Y-57566384D01*
X43526467Y-57583557D01*
X43665087Y-57657652D01*
X43682991Y-57667222D01*
X43718729Y-57696552D01*
X43820186Y-57779814D01*
X43903448Y-57881271D01*
X43932778Y-57917009D01*
X43932779Y-57917011D01*
X44016443Y-58073533D01*
X44024613Y-58100466D01*
X44067963Y-58243373D01*
X44085359Y-58420000D01*
X44067963Y-58596627D01*
X44033616Y-58709853D01*
X44016443Y-58766467D01*
X43942348Y-58905087D01*
X43932778Y-58922991D01*
X43903448Y-58958729D01*
X43820186Y-59060186D01*
X43759073Y-59110339D01*
X43682991Y-59172778D01*
X43682989Y-59172779D01*
X43526467Y-59256443D01*
X43469853Y-59273616D01*
X43356627Y-59307963D01*
X43290442Y-59314482D01*
X43224260Y-59321000D01*
X43135740Y-59321000D01*
X43069558Y-59314482D01*
X43003373Y-59307963D01*
X42890147Y-59273616D01*
X42833533Y-59256443D01*
X42677011Y-59172779D01*
X42677009Y-59172778D01*
X42600927Y-59110339D01*
X42539814Y-59060186D01*
X42456552Y-58958729D01*
X42427222Y-58922991D01*
X42417652Y-58905087D01*
X42343557Y-58766467D01*
X42326384Y-58709853D01*
X42292037Y-58596627D01*
X42274641Y-58420000D01*
X42292037Y-58243373D01*
X42335387Y-58100466D01*
X42343557Y-58073533D01*
X42427221Y-57917011D01*
X42427222Y-57917009D01*
X42456552Y-57881271D01*
X42539814Y-57779814D01*
X42641271Y-57696552D01*
X42677009Y-57667222D01*
X42694913Y-57657652D01*
X42833533Y-57583557D01*
X42890147Y-57566384D01*
X43003373Y-57532037D01*
X43069557Y-57525519D01*
X43135740Y-57519000D01*
X43224260Y-57519000D01*
X43290443Y-57525519D01*
X43290443Y-57525519D01*
G37*
G36*
X40750443Y-57525519D02*
X40816627Y-57532037D01*
X40929853Y-57566384D01*
X40986467Y-57583557D01*
X41125087Y-57657652D01*
X41142991Y-57667222D01*
X41178729Y-57696552D01*
X41280186Y-57779814D01*
X41363448Y-57881271D01*
X41392778Y-57917009D01*
X41392779Y-57917011D01*
X41476443Y-58073533D01*
X41484613Y-58100466D01*
X41527963Y-58243373D01*
X41545359Y-58420000D01*
X41527963Y-58596627D01*
X41493616Y-58709853D01*
X41476443Y-58766467D01*
X41402348Y-58905087D01*
X41392778Y-58922991D01*
X41363448Y-58958729D01*
X41280186Y-59060186D01*
X41219073Y-59110339D01*
X41142991Y-59172778D01*
X41142989Y-59172779D01*
X40986467Y-59256443D01*
X40929853Y-59273616D01*
X40816627Y-59307963D01*
X40750442Y-59314482D01*
X40684260Y-59321000D01*
X40595740Y-59321000D01*
X40529558Y-59314482D01*
X40463373Y-59307963D01*
X40350147Y-59273616D01*
X40293533Y-59256443D01*
X40137011Y-59172779D01*
X40137009Y-59172778D01*
X40060927Y-59110339D01*
X39999814Y-59060186D01*
X39916552Y-58958729D01*
X39887222Y-58922991D01*
X39877652Y-58905087D01*
X39803557Y-58766467D01*
X39786384Y-58709853D01*
X39752037Y-58596627D01*
X39734641Y-58420000D01*
X39752037Y-58243373D01*
X39795387Y-58100466D01*
X39803557Y-58073533D01*
X39887221Y-57917011D01*
X39887222Y-57917009D01*
X39916552Y-57881271D01*
X39999814Y-57779814D01*
X40101271Y-57696552D01*
X40137009Y-57667222D01*
X40154913Y-57657652D01*
X40293533Y-57583557D01*
X40350147Y-57566384D01*
X40463373Y-57532037D01*
X40529557Y-57525519D01*
X40595740Y-57519000D01*
X40684260Y-57519000D01*
X40750443Y-57525519D01*
X40750443Y-57525519D01*
G37*
G36*
X59262677Y-58070465D02*
X59300364Y-58081898D01*
X59335103Y-58100466D01*
X59365548Y-58125452D01*
X59390534Y-58155897D01*
X59409102Y-58190636D01*
X59420535Y-58228323D01*
X59425000Y-58273661D01*
X59425000Y-59110339D01*
X59420535Y-59155677D01*
X59409102Y-59193364D01*
X59390534Y-59228103D01*
X59365548Y-59258548D01*
X59335103Y-59283534D01*
X59300364Y-59302102D01*
X59262677Y-59313535D01*
X59217339Y-59318000D01*
X58130661Y-59318000D01*
X58085323Y-59313535D01*
X58047636Y-59302102D01*
X58012897Y-59283534D01*
X57982452Y-59258548D01*
X57957466Y-59228103D01*
X57938898Y-59193364D01*
X57927465Y-59155677D01*
X57923000Y-59110339D01*
X57923000Y-58273661D01*
X57927465Y-58228323D01*
X57938898Y-58190636D01*
X57957466Y-58155897D01*
X57982452Y-58125452D01*
X58012897Y-58100466D01*
X58047636Y-58081898D01*
X58085323Y-58070465D01*
X58130661Y-58066000D01*
X59217339Y-58066000D01*
X59262677Y-58070465D01*
X59262677Y-58070465D01*
G37*
G36*
X59262677Y-56020465D02*
X59300364Y-56031898D01*
X59335103Y-56050466D01*
X59365548Y-56075452D01*
X59390534Y-56105897D01*
X59409102Y-56140636D01*
X59420535Y-56178323D01*
X59425000Y-56223661D01*
X59425000Y-57060339D01*
X59420535Y-57105677D01*
X59409102Y-57143364D01*
X59390534Y-57178103D01*
X59365548Y-57208548D01*
X59335103Y-57233534D01*
X59300364Y-57252102D01*
X59262677Y-57263535D01*
X59217339Y-57268000D01*
X58130661Y-57268000D01*
X58085323Y-57263535D01*
X58047636Y-57252102D01*
X58012897Y-57233534D01*
X57982452Y-57208548D01*
X57957466Y-57178103D01*
X57938898Y-57143364D01*
X57927465Y-57105677D01*
X57923000Y-57060339D01*
X57923000Y-56223661D01*
X57927465Y-56178323D01*
X57938898Y-56140636D01*
X57957466Y-56105897D01*
X57982452Y-56075452D01*
X58012897Y-56050466D01*
X58047636Y-56031898D01*
X58085323Y-56020465D01*
X58130661Y-56016000D01*
X59217339Y-56016000D01*
X59262677Y-56020465D01*
X59262677Y-56020465D01*
G37*
G36*
X60602000Y-54875000D02*
X51950000Y-54875000D01*
X51950000Y-53273000D01*
X60602000Y-53273000D01*
X60602000Y-54875000D01*
X60602000Y-54875000D01*
G37*
G36*
X48848677Y-53244465D02*
X48886364Y-53255898D01*
X48921103Y-53274466D01*
X48951548Y-53299452D01*
X48976534Y-53329897D01*
X48995102Y-53364636D01*
X49006535Y-53402323D01*
X49011000Y-53447661D01*
X49011000Y-54284339D01*
X49006535Y-54329677D01*
X48995102Y-54367364D01*
X48976534Y-54402103D01*
X48951548Y-54432548D01*
X48921103Y-54457534D01*
X48886364Y-54476102D01*
X48848677Y-54487535D01*
X48803339Y-54492000D01*
X47716661Y-54492000D01*
X47671323Y-54487535D01*
X47633636Y-54476102D01*
X47598897Y-54457534D01*
X47568452Y-54432548D01*
X47543466Y-54402103D01*
X47524898Y-54367364D01*
X47513465Y-54329677D01*
X47509000Y-54284339D01*
X47509000Y-53447661D01*
X47513465Y-53402323D01*
X47524898Y-53364636D01*
X47543466Y-53329897D01*
X47568452Y-53299452D01*
X47598897Y-53274466D01*
X47633636Y-53255898D01*
X47671323Y-53244465D01*
X47716661Y-53240000D01*
X48803339Y-53240000D01*
X48848677Y-53244465D01*
X48848677Y-53244465D01*
G37*
G36*
X69315677Y-51831465D02*
X69353364Y-51842898D01*
X69388103Y-51861466D01*
X69418548Y-51886452D01*
X69443534Y-51916897D01*
X69462102Y-51951636D01*
X69473535Y-51989323D01*
X69478000Y-52034661D01*
X69478000Y-53121339D01*
X69473535Y-53166677D01*
X69462102Y-53204364D01*
X69443534Y-53239103D01*
X69418548Y-53269548D01*
X69388103Y-53294534D01*
X69353364Y-53313102D01*
X69315677Y-53324535D01*
X69270339Y-53329000D01*
X68433661Y-53329000D01*
X68388323Y-53324535D01*
X68350636Y-53313102D01*
X68315897Y-53294534D01*
X68285452Y-53269548D01*
X68260466Y-53239103D01*
X68241898Y-53204364D01*
X68230465Y-53166677D01*
X68226000Y-53121339D01*
X68226000Y-52034661D01*
X68230465Y-51989323D01*
X68241898Y-51951636D01*
X68260466Y-51916897D01*
X68285452Y-51886452D01*
X68315897Y-51861466D01*
X68350636Y-51842898D01*
X68388323Y-51831465D01*
X68433661Y-51827000D01*
X69270339Y-51827000D01*
X69315677Y-51831465D01*
X69315677Y-51831465D01*
G37*
G36*
X67265677Y-51831465D02*
X67303364Y-51842898D01*
X67338103Y-51861466D01*
X67368548Y-51886452D01*
X67393534Y-51916897D01*
X67412102Y-51951636D01*
X67423535Y-51989323D01*
X67428000Y-52034661D01*
X67428000Y-53121339D01*
X67423535Y-53166677D01*
X67412102Y-53204364D01*
X67393534Y-53239103D01*
X67368548Y-53269548D01*
X67338103Y-53294534D01*
X67303364Y-53313102D01*
X67265677Y-53324535D01*
X67220339Y-53329000D01*
X66383661Y-53329000D01*
X66338323Y-53324535D01*
X66300636Y-53313102D01*
X66265897Y-53294534D01*
X66235452Y-53269548D01*
X66210466Y-53239103D01*
X66191898Y-53204364D01*
X66180465Y-53166677D01*
X66176000Y-53121339D01*
X66176000Y-52034661D01*
X66180465Y-51989323D01*
X66191898Y-51951636D01*
X66210466Y-51916897D01*
X66235452Y-51886452D01*
X66265897Y-51861466D01*
X66300636Y-51842898D01*
X66338323Y-51831465D01*
X66383661Y-51827000D01*
X67220339Y-51827000D01*
X67265677Y-51831465D01*
X67265677Y-51831465D01*
G37*
G36*
X62777000Y-52700000D02*
X61175000Y-52700000D01*
X61175000Y-44048000D01*
X62777000Y-44048000D01*
X62777000Y-52700000D01*
X62777000Y-52700000D01*
G37*
G36*
X51377000Y-52700000D02*
X49775000Y-52700000D01*
X49775000Y-44048000D01*
X51377000Y-44048000D01*
X51377000Y-52700000D01*
X51377000Y-52700000D01*
G37*
G36*
X48848677Y-51194465D02*
X48886364Y-51205898D01*
X48921103Y-51224466D01*
X48951548Y-51249452D01*
X48976534Y-51279897D01*
X48995102Y-51314636D01*
X49006535Y-51352323D01*
X49011000Y-51397661D01*
X49011000Y-52234339D01*
X49006535Y-52279677D01*
X48995102Y-52317364D01*
X48976534Y-52352103D01*
X48951548Y-52382548D01*
X48921103Y-52407534D01*
X48886364Y-52426102D01*
X48848677Y-52437535D01*
X48803339Y-52442000D01*
X47716661Y-52442000D01*
X47671323Y-52437535D01*
X47633636Y-52426102D01*
X47598897Y-52407534D01*
X47568452Y-52382548D01*
X47543466Y-52352103D01*
X47524898Y-52317364D01*
X47513465Y-52279677D01*
X47509000Y-52234339D01*
X47509000Y-51397661D01*
X47513465Y-51352323D01*
X47524898Y-51314636D01*
X47543466Y-51279897D01*
X47568452Y-51249452D01*
X47598897Y-51224466D01*
X47633636Y-51205898D01*
X47671323Y-51194465D01*
X47716661Y-51190000D01*
X48803339Y-51190000D01*
X48848677Y-51194465D01*
X48848677Y-51194465D01*
G37*
G36*
X65612677Y-50958465D02*
X65650364Y-50969898D01*
X65685103Y-50988466D01*
X65715548Y-51013452D01*
X65740534Y-51043897D01*
X65759102Y-51078636D01*
X65770535Y-51116323D01*
X65775000Y-51161661D01*
X65775000Y-51998339D01*
X65770535Y-52043677D01*
X65759102Y-52081364D01*
X65740534Y-52116103D01*
X65715548Y-52146548D01*
X65685103Y-52171534D01*
X65650364Y-52190102D01*
X65612677Y-52201535D01*
X65567339Y-52206000D01*
X64480661Y-52206000D01*
X64435323Y-52201535D01*
X64397636Y-52190102D01*
X64362897Y-52171534D01*
X64332452Y-52146548D01*
X64307466Y-52116103D01*
X64288898Y-52081364D01*
X64277465Y-52043677D01*
X64273000Y-51998339D01*
X64273000Y-51161661D01*
X64277465Y-51116323D01*
X64288898Y-51078636D01*
X64307466Y-51043897D01*
X64332452Y-51013452D01*
X64362897Y-50988466D01*
X64397636Y-50969898D01*
X64435323Y-50958465D01*
X64480661Y-50954000D01*
X65567339Y-50954000D01*
X65612677Y-50958465D01*
X65612677Y-50958465D01*
G37*
G36*
X44210000Y-50451000D02*
X42798000Y-50451000D01*
X42798000Y-49819000D01*
X44210000Y-49819000D01*
X44210000Y-50451000D01*
X44210000Y-50451000D01*
G37*
G36*
X46610000Y-50451000D02*
X45198000Y-50451000D01*
X45198000Y-49819000D01*
X46610000Y-49819000D01*
X46610000Y-50451000D01*
X46610000Y-50451000D01*
G37*
G36*
X65612677Y-48908465D02*
X65650364Y-48919898D01*
X65685103Y-48938466D01*
X65715548Y-48963452D01*
X65740534Y-48993897D01*
X65759102Y-49028636D01*
X65770535Y-49066323D01*
X65775000Y-49111661D01*
X65775000Y-49948339D01*
X65770535Y-49993677D01*
X65759102Y-50031364D01*
X65740534Y-50066103D01*
X65715548Y-50096548D01*
X65685103Y-50121534D01*
X65650364Y-50140102D01*
X65612677Y-50151535D01*
X65567339Y-50156000D01*
X64480661Y-50156000D01*
X64435323Y-50151535D01*
X64397636Y-50140102D01*
X64362897Y-50121534D01*
X64332452Y-50096548D01*
X64307466Y-50066103D01*
X64288898Y-50031364D01*
X64277465Y-49993677D01*
X64273000Y-49948339D01*
X64273000Y-49111661D01*
X64277465Y-49066323D01*
X64288898Y-49028636D01*
X64307466Y-48993897D01*
X64332452Y-48963452D01*
X64362897Y-48938466D01*
X64397636Y-48919898D01*
X64435323Y-48908465D01*
X64480661Y-48904000D01*
X65567339Y-48904000D01*
X65612677Y-48908465D01*
X65612677Y-48908465D01*
G37*
G36*
X69676677Y-48164465D02*
X69714364Y-48175898D01*
X69749103Y-48194466D01*
X69779548Y-48219452D01*
X69804534Y-48249897D01*
X69823102Y-48284636D01*
X69834535Y-48322323D01*
X69839000Y-48367661D01*
X69839000Y-49204339D01*
X69834535Y-49249677D01*
X69823102Y-49287364D01*
X69804534Y-49322103D01*
X69779548Y-49352548D01*
X69749103Y-49377534D01*
X69714364Y-49396102D01*
X69676677Y-49407535D01*
X69631339Y-49412000D01*
X68544661Y-49412000D01*
X68499323Y-49407535D01*
X68461636Y-49396102D01*
X68426897Y-49377534D01*
X68396452Y-49352548D01*
X68371466Y-49322103D01*
X68352898Y-49287364D01*
X68341465Y-49249677D01*
X68337000Y-49204339D01*
X68337000Y-48367661D01*
X68341465Y-48322323D01*
X68352898Y-48284636D01*
X68371466Y-48249897D01*
X68396452Y-48219452D01*
X68426897Y-48194466D01*
X68461636Y-48175898D01*
X68499323Y-48164465D01*
X68544661Y-48160000D01*
X69631339Y-48160000D01*
X69676677Y-48164465D01*
X69676677Y-48164465D01*
G37*
G36*
X40974677Y-48164465D02*
X41012364Y-48175898D01*
X41047103Y-48194466D01*
X41077548Y-48219452D01*
X41102534Y-48249897D01*
X41121102Y-48284636D01*
X41132535Y-48322323D01*
X41137000Y-48367661D01*
X41137000Y-49204339D01*
X41132535Y-49249677D01*
X41121102Y-49287364D01*
X41102534Y-49322103D01*
X41077548Y-49352548D01*
X41047103Y-49377534D01*
X41012364Y-49396102D01*
X40974677Y-49407535D01*
X40929339Y-49412000D01*
X39842661Y-49412000D01*
X39797323Y-49407535D01*
X39759636Y-49396102D01*
X39724897Y-49377534D01*
X39694452Y-49352548D01*
X39669466Y-49322103D01*
X39650898Y-49287364D01*
X39639465Y-49249677D01*
X39635000Y-49204339D01*
X39635000Y-48367661D01*
X39639465Y-48322323D01*
X39650898Y-48284636D01*
X39669466Y-48249897D01*
X39694452Y-48219452D01*
X39724897Y-48194466D01*
X39759636Y-48175898D01*
X39797323Y-48164465D01*
X39842661Y-48160000D01*
X40929339Y-48160000D01*
X40974677Y-48164465D01*
X40974677Y-48164465D01*
G37*
G36*
X67644677Y-48164465D02*
X67682364Y-48175898D01*
X67717103Y-48194466D01*
X67747548Y-48219452D01*
X67772534Y-48249897D01*
X67791102Y-48284636D01*
X67802535Y-48322323D01*
X67807000Y-48367661D01*
X67807000Y-49204339D01*
X67802535Y-49249677D01*
X67791102Y-49287364D01*
X67772534Y-49322103D01*
X67747548Y-49352548D01*
X67717103Y-49377534D01*
X67682364Y-49396102D01*
X67644677Y-49407535D01*
X67599339Y-49412000D01*
X66512661Y-49412000D01*
X66467323Y-49407535D01*
X66429636Y-49396102D01*
X66394897Y-49377534D01*
X66364452Y-49352548D01*
X66339466Y-49322103D01*
X66320898Y-49287364D01*
X66309465Y-49249677D01*
X66305000Y-49204339D01*
X66305000Y-48367661D01*
X66309465Y-48322323D01*
X66320898Y-48284636D01*
X66339466Y-48249897D01*
X66364452Y-48219452D01*
X66394897Y-48194466D01*
X66429636Y-48175898D01*
X66467323Y-48164465D01*
X66512661Y-48160000D01*
X67599339Y-48160000D01*
X67644677Y-48164465D01*
X67644677Y-48164465D01*
G37*
G36*
X46610000Y-49201000D02*
X45198000Y-49201000D01*
X45198000Y-48569000D01*
X46610000Y-48569000D01*
X46610000Y-49201000D01*
X46610000Y-49201000D01*
G37*
G36*
X44210000Y-49201000D02*
X42798000Y-49201000D01*
X42798000Y-48569000D01*
X44210000Y-48569000D01*
X44210000Y-49201000D01*
X44210000Y-49201000D01*
G37*
G36*
X46610000Y-47951000D02*
X45198000Y-47951000D01*
X45198000Y-47319000D01*
X46610000Y-47319000D01*
X46610000Y-47951000D01*
X46610000Y-47951000D01*
G37*
G36*
X44210000Y-47951000D02*
X42798000Y-47951000D01*
X42798000Y-47319000D01*
X44210000Y-47319000D01*
X44210000Y-47951000D01*
X44210000Y-47951000D01*
G37*
G36*
X30814677Y-46640465D02*
X30852364Y-46651898D01*
X30887103Y-46670466D01*
X30917548Y-46695452D01*
X30942534Y-46725897D01*
X30961102Y-46760636D01*
X30972535Y-46798323D01*
X30977000Y-46843661D01*
X30977000Y-47680339D01*
X30972535Y-47725677D01*
X30961102Y-47763364D01*
X30942534Y-47798103D01*
X30917548Y-47828548D01*
X30887103Y-47853534D01*
X30852364Y-47872102D01*
X30814677Y-47883535D01*
X30769339Y-47888000D01*
X29682661Y-47888000D01*
X29637323Y-47883535D01*
X29599636Y-47872102D01*
X29564897Y-47853534D01*
X29534452Y-47828548D01*
X29509466Y-47798103D01*
X29490898Y-47763364D01*
X29479465Y-47725677D01*
X29475000Y-47680339D01*
X29475000Y-46843661D01*
X29479465Y-46798323D01*
X29490898Y-46760636D01*
X29509466Y-46725897D01*
X29534452Y-46695452D01*
X29564897Y-46670466D01*
X29599636Y-46651898D01*
X29637323Y-46640465D01*
X29682661Y-46636000D01*
X30769339Y-46636000D01*
X30814677Y-46640465D01*
X30814677Y-46640465D01*
G37*
G36*
X40974677Y-46114465D02*
X41012364Y-46125898D01*
X41047103Y-46144466D01*
X41077548Y-46169452D01*
X41102534Y-46199897D01*
X41121102Y-46234636D01*
X41132535Y-46272323D01*
X41137000Y-46317661D01*
X41137000Y-47154339D01*
X41132535Y-47199677D01*
X41121102Y-47237364D01*
X41102534Y-47272103D01*
X41077548Y-47302548D01*
X41047103Y-47327534D01*
X41012364Y-47346102D01*
X40974677Y-47357535D01*
X40929339Y-47362000D01*
X39842661Y-47362000D01*
X39797323Y-47357535D01*
X39759636Y-47346102D01*
X39724897Y-47327534D01*
X39694452Y-47302548D01*
X39669466Y-47272103D01*
X39650898Y-47237364D01*
X39639465Y-47199677D01*
X39635000Y-47154339D01*
X39635000Y-46317661D01*
X39639465Y-46272323D01*
X39650898Y-46234636D01*
X39669466Y-46199897D01*
X39694452Y-46169452D01*
X39724897Y-46144466D01*
X39759636Y-46125898D01*
X39797323Y-46114465D01*
X39842661Y-46110000D01*
X40929339Y-46110000D01*
X40974677Y-46114465D01*
X40974677Y-46114465D01*
G37*
G36*
X67644677Y-46114465D02*
X67682364Y-46125898D01*
X67717103Y-46144466D01*
X67747548Y-46169452D01*
X67772534Y-46199897D01*
X67791102Y-46234636D01*
X67802535Y-46272323D01*
X67807000Y-46317661D01*
X67807000Y-47154339D01*
X67802535Y-47199677D01*
X67791102Y-47237364D01*
X67772534Y-47272103D01*
X67747548Y-47302548D01*
X67717103Y-47327534D01*
X67682364Y-47346102D01*
X67644677Y-47357535D01*
X67599339Y-47362000D01*
X66512661Y-47362000D01*
X66467323Y-47357535D01*
X66429636Y-47346102D01*
X66394897Y-47327534D01*
X66364452Y-47302548D01*
X66339466Y-47272103D01*
X66320898Y-47237364D01*
X66309465Y-47199677D01*
X66305000Y-47154339D01*
X66305000Y-46317661D01*
X66309465Y-46272323D01*
X66320898Y-46234636D01*
X66339466Y-46199897D01*
X66364452Y-46169452D01*
X66394897Y-46144466D01*
X66429636Y-46125898D01*
X66467323Y-46114465D01*
X66512661Y-46110000D01*
X67599339Y-46110000D01*
X67644677Y-46114465D01*
X67644677Y-46114465D01*
G37*
G36*
X69676677Y-46114465D02*
X69714364Y-46125898D01*
X69749103Y-46144466D01*
X69779548Y-46169452D01*
X69804534Y-46199897D01*
X69823102Y-46234636D01*
X69834535Y-46272323D01*
X69839000Y-46317661D01*
X69839000Y-47154339D01*
X69834535Y-47199677D01*
X69823102Y-47237364D01*
X69804534Y-47272103D01*
X69779548Y-47302548D01*
X69749103Y-47327534D01*
X69714364Y-47346102D01*
X69676677Y-47357535D01*
X69631339Y-47362000D01*
X68544661Y-47362000D01*
X68499323Y-47357535D01*
X68461636Y-47346102D01*
X68426897Y-47327534D01*
X68396452Y-47302548D01*
X68371466Y-47272103D01*
X68352898Y-47237364D01*
X68341465Y-47199677D01*
X68337000Y-47154339D01*
X68337000Y-46317661D01*
X68341465Y-46272323D01*
X68352898Y-46234636D01*
X68371466Y-46199897D01*
X68396452Y-46169452D01*
X68426897Y-46144466D01*
X68461636Y-46125898D01*
X68499323Y-46114465D01*
X68544661Y-46110000D01*
X69631339Y-46110000D01*
X69676677Y-46114465D01*
X69676677Y-46114465D01*
G37*
G36*
X44210000Y-46701000D02*
X42798000Y-46701000D01*
X42798000Y-46069000D01*
X44210000Y-46069000D01*
X44210000Y-46701000D01*
X44210000Y-46701000D01*
G37*
G36*
X46610000Y-46701000D02*
X45198000Y-46701000D01*
X45198000Y-46069000D01*
X46610000Y-46069000D01*
X46610000Y-46701000D01*
X46610000Y-46701000D01*
G37*
G36*
X30814677Y-44590465D02*
X30852364Y-44601898D01*
X30887103Y-44620466D01*
X30917548Y-44645452D01*
X30942534Y-44675897D01*
X30961102Y-44710636D01*
X30972535Y-44748323D01*
X30977000Y-44793661D01*
X30977000Y-45630339D01*
X30972535Y-45675677D01*
X30961102Y-45713364D01*
X30942534Y-45748103D01*
X30917548Y-45778548D01*
X30887103Y-45803534D01*
X30852364Y-45822102D01*
X30814677Y-45833535D01*
X30769339Y-45838000D01*
X29682661Y-45838000D01*
X29637323Y-45833535D01*
X29599636Y-45822102D01*
X29564897Y-45803534D01*
X29534452Y-45778548D01*
X29509466Y-45748103D01*
X29490898Y-45713364D01*
X29479465Y-45675677D01*
X29475000Y-45630339D01*
X29475000Y-44793661D01*
X29479465Y-44748323D01*
X29490898Y-44710636D01*
X29509466Y-44675897D01*
X29534452Y-44645452D01*
X29564897Y-44620466D01*
X29599636Y-44601898D01*
X29637323Y-44590465D01*
X29682661Y-44586000D01*
X30769339Y-44586000D01*
X30814677Y-44590465D01*
X30814677Y-44590465D01*
G37*
G36*
X69676677Y-44336465D02*
X69714364Y-44347898D01*
X69749103Y-44366466D01*
X69779548Y-44391452D01*
X69804534Y-44421897D01*
X69823102Y-44456636D01*
X69834535Y-44494323D01*
X69839000Y-44539661D01*
X69839000Y-45376339D01*
X69834535Y-45421677D01*
X69823102Y-45459364D01*
X69804534Y-45494103D01*
X69779548Y-45524548D01*
X69749103Y-45549534D01*
X69714364Y-45568102D01*
X69676677Y-45579535D01*
X69631339Y-45584000D01*
X68544661Y-45584000D01*
X68499323Y-45579535D01*
X68461636Y-45568102D01*
X68426897Y-45549534D01*
X68396452Y-45524548D01*
X68371466Y-45494103D01*
X68352898Y-45459364D01*
X68341465Y-45421677D01*
X68337000Y-45376339D01*
X68337000Y-44539661D01*
X68341465Y-44494323D01*
X68352898Y-44456636D01*
X68371466Y-44421897D01*
X68396452Y-44391452D01*
X68426897Y-44366466D01*
X68461636Y-44347898D01*
X68499323Y-44336465D01*
X68544661Y-44332000D01*
X69631339Y-44332000D01*
X69676677Y-44336465D01*
X69676677Y-44336465D01*
G37*
G36*
X30814677Y-42313465D02*
X30852364Y-42324898D01*
X30887103Y-42343466D01*
X30917548Y-42368452D01*
X30942534Y-42398897D01*
X30961102Y-42433636D01*
X30972535Y-42471323D01*
X30977000Y-42516661D01*
X30977000Y-43353339D01*
X30972535Y-43398677D01*
X30961102Y-43436364D01*
X30942534Y-43471103D01*
X30917548Y-43501548D01*
X30887103Y-43526534D01*
X30852364Y-43545102D01*
X30814677Y-43556535D01*
X30769339Y-43561000D01*
X29682661Y-43561000D01*
X29637323Y-43556535D01*
X29599636Y-43545102D01*
X29564897Y-43526534D01*
X29534452Y-43501548D01*
X29509466Y-43471103D01*
X29490898Y-43436364D01*
X29479465Y-43398677D01*
X29475000Y-43353339D01*
X29475000Y-42516661D01*
X29479465Y-42471323D01*
X29490898Y-42433636D01*
X29509466Y-42398897D01*
X29534452Y-42368452D01*
X29564897Y-42343466D01*
X29599636Y-42324898D01*
X29637323Y-42313465D01*
X29682661Y-42309000D01*
X30769339Y-42309000D01*
X30814677Y-42313465D01*
X30814677Y-42313465D01*
G37*
G36*
X69676677Y-42286465D02*
X69714364Y-42297898D01*
X69749103Y-42316466D01*
X69779548Y-42341452D01*
X69804534Y-42371897D01*
X69823102Y-42406636D01*
X69834535Y-42444323D01*
X69839000Y-42489661D01*
X69839000Y-43326339D01*
X69834535Y-43371677D01*
X69823102Y-43409364D01*
X69804534Y-43444103D01*
X69779548Y-43474548D01*
X69749103Y-43499534D01*
X69714364Y-43518102D01*
X69676677Y-43529535D01*
X69631339Y-43534000D01*
X68544661Y-43534000D01*
X68499323Y-43529535D01*
X68461636Y-43518102D01*
X68426897Y-43499534D01*
X68396452Y-43474548D01*
X68371466Y-43444103D01*
X68352898Y-43409364D01*
X68341465Y-43371677D01*
X68337000Y-43326339D01*
X68337000Y-42489661D01*
X68341465Y-42444323D01*
X68352898Y-42406636D01*
X68371466Y-42371897D01*
X68396452Y-42341452D01*
X68426897Y-42316466D01*
X68461636Y-42297898D01*
X68499323Y-42286465D01*
X68544661Y-42282000D01*
X69631339Y-42282000D01*
X69676677Y-42286465D01*
X69676677Y-42286465D01*
G37*
G36*
X60602000Y-43475000D02*
X51950000Y-43475000D01*
X51950000Y-41873000D01*
X60602000Y-41873000D01*
X60602000Y-43475000D01*
X60602000Y-43475000D01*
G37*
G36*
X33982677Y-41925465D02*
X34020364Y-41936898D01*
X34055103Y-41955466D01*
X34085548Y-41980452D01*
X34110534Y-42010897D01*
X34129102Y-42045636D01*
X34140535Y-42083323D01*
X34145000Y-42128661D01*
X34145000Y-43215339D01*
X34140535Y-43260677D01*
X34129102Y-43298364D01*
X34110534Y-43333103D01*
X34085548Y-43363548D01*
X34055103Y-43388534D01*
X34020364Y-43407102D01*
X33982677Y-43418535D01*
X33937339Y-43423000D01*
X33100661Y-43423000D01*
X33055323Y-43418535D01*
X33017636Y-43407102D01*
X32982897Y-43388534D01*
X32952452Y-43363548D01*
X32927466Y-43333103D01*
X32908898Y-43298364D01*
X32897465Y-43260677D01*
X32893000Y-43215339D01*
X32893000Y-42128661D01*
X32897465Y-42083323D01*
X32908898Y-42045636D01*
X32927466Y-42010897D01*
X32952452Y-41980452D01*
X32982897Y-41955466D01*
X33017636Y-41936898D01*
X33055323Y-41925465D01*
X33100661Y-41921000D01*
X33937339Y-41921000D01*
X33982677Y-41925465D01*
X33982677Y-41925465D01*
G37*
G36*
X36032677Y-41925465D02*
X36070364Y-41936898D01*
X36105103Y-41955466D01*
X36135548Y-41980452D01*
X36160534Y-42010897D01*
X36179102Y-42045636D01*
X36190535Y-42083323D01*
X36195000Y-42128661D01*
X36195000Y-43215339D01*
X36190535Y-43260677D01*
X36179102Y-43298364D01*
X36160534Y-43333103D01*
X36135548Y-43363548D01*
X36105103Y-43388534D01*
X36070364Y-43407102D01*
X36032677Y-43418535D01*
X35987339Y-43423000D01*
X35150661Y-43423000D01*
X35105323Y-43418535D01*
X35067636Y-43407102D01*
X35032897Y-43388534D01*
X35002452Y-43363548D01*
X34977466Y-43333103D01*
X34958898Y-43298364D01*
X34947465Y-43260677D01*
X34943000Y-43215339D01*
X34943000Y-42128661D01*
X34947465Y-42083323D01*
X34958898Y-42045636D01*
X34977466Y-42010897D01*
X35002452Y-41980452D01*
X35032897Y-41955466D01*
X35067636Y-41936898D01*
X35105323Y-41925465D01*
X35150661Y-41921000D01*
X35987339Y-41921000D01*
X36032677Y-41925465D01*
X36032677Y-41925465D01*
G37*
G36*
X40350677Y-40655465D02*
X40388364Y-40666898D01*
X40423103Y-40685466D01*
X40453548Y-40710452D01*
X40478534Y-40740897D01*
X40497102Y-40775636D01*
X40508535Y-40813323D01*
X40513000Y-40858661D01*
X40513000Y-41945339D01*
X40508535Y-41990677D01*
X40497102Y-42028364D01*
X40478534Y-42063103D01*
X40453548Y-42093548D01*
X40423103Y-42118534D01*
X40388364Y-42137102D01*
X40350677Y-42148535D01*
X40305339Y-42153000D01*
X39468661Y-42153000D01*
X39423323Y-42148535D01*
X39385636Y-42137102D01*
X39350897Y-42118534D01*
X39320452Y-42093548D01*
X39295466Y-42063103D01*
X39276898Y-42028364D01*
X39265465Y-41990677D01*
X39261000Y-41945339D01*
X39261000Y-40858661D01*
X39265465Y-40813323D01*
X39276898Y-40775636D01*
X39295466Y-40740897D01*
X39320452Y-40710452D01*
X39350897Y-40685466D01*
X39385636Y-40666898D01*
X39423323Y-40655465D01*
X39468661Y-40651000D01*
X40305339Y-40651000D01*
X40350677Y-40655465D01*
X40350677Y-40655465D01*
G37*
G36*
X38300677Y-40655465D02*
X38338364Y-40666898D01*
X38373103Y-40685466D01*
X38403548Y-40710452D01*
X38428534Y-40740897D01*
X38447102Y-40775636D01*
X38458535Y-40813323D01*
X38463000Y-40858661D01*
X38463000Y-41945339D01*
X38458535Y-41990677D01*
X38447102Y-42028364D01*
X38428534Y-42063103D01*
X38403548Y-42093548D01*
X38373103Y-42118534D01*
X38338364Y-42137102D01*
X38300677Y-42148535D01*
X38255339Y-42153000D01*
X37418661Y-42153000D01*
X37373323Y-42148535D01*
X37335636Y-42137102D01*
X37300897Y-42118534D01*
X37270452Y-42093548D01*
X37245466Y-42063103D01*
X37226898Y-42028364D01*
X37215465Y-41990677D01*
X37211000Y-41945339D01*
X37211000Y-40858661D01*
X37215465Y-40813323D01*
X37226898Y-40775636D01*
X37245466Y-40740897D01*
X37270452Y-40710452D01*
X37300897Y-40685466D01*
X37335636Y-40666898D01*
X37373323Y-40655465D01*
X37418661Y-40651000D01*
X38255339Y-40651000D01*
X38300677Y-40655465D01*
X38300677Y-40655465D01*
G37*
G36*
X30814677Y-40263465D02*
X30852364Y-40274898D01*
X30887103Y-40293466D01*
X30917548Y-40318452D01*
X30942534Y-40348897D01*
X30961102Y-40383636D01*
X30972535Y-40421323D01*
X30977000Y-40466661D01*
X30977000Y-41303339D01*
X30972535Y-41348677D01*
X30961102Y-41386364D01*
X30942534Y-41421103D01*
X30917548Y-41451548D01*
X30887103Y-41476534D01*
X30852364Y-41495102D01*
X30814677Y-41506535D01*
X30769339Y-41511000D01*
X29682661Y-41511000D01*
X29637323Y-41506535D01*
X29599636Y-41495102D01*
X29564897Y-41476534D01*
X29534452Y-41451548D01*
X29509466Y-41421103D01*
X29490898Y-41386364D01*
X29479465Y-41348677D01*
X29475000Y-41303339D01*
X29475000Y-40466661D01*
X29479465Y-40421323D01*
X29490898Y-40383636D01*
X29509466Y-40348897D01*
X29534452Y-40318452D01*
X29564897Y-40293466D01*
X29599636Y-40274898D01*
X29637323Y-40263465D01*
X29682661Y-40259000D01*
X30769339Y-40259000D01*
X30814677Y-40263465D01*
X30814677Y-40263465D01*
G37*
G36*
X33973677Y-39893465D02*
X34011364Y-39904898D01*
X34046103Y-39923466D01*
X34076548Y-39948452D01*
X34101534Y-39978897D01*
X34120102Y-40013636D01*
X34131535Y-40051323D01*
X34136000Y-40096661D01*
X34136000Y-41183339D01*
X34131535Y-41228677D01*
X34120102Y-41266364D01*
X34101534Y-41301103D01*
X34076548Y-41331548D01*
X34046103Y-41356534D01*
X34011364Y-41375102D01*
X33973677Y-41386535D01*
X33928339Y-41391000D01*
X33091661Y-41391000D01*
X33046323Y-41386535D01*
X33008636Y-41375102D01*
X32973897Y-41356534D01*
X32943452Y-41331548D01*
X32918466Y-41301103D01*
X32899898Y-41266364D01*
X32888465Y-41228677D01*
X32884000Y-41183339D01*
X32884000Y-40096661D01*
X32888465Y-40051323D01*
X32899898Y-40013636D01*
X32918466Y-39978897D01*
X32943452Y-39948452D01*
X32973897Y-39923466D01*
X33008636Y-39904898D01*
X33046323Y-39893465D01*
X33091661Y-39889000D01*
X33928339Y-39889000D01*
X33973677Y-39893465D01*
X33973677Y-39893465D01*
G37*
G36*
X36023677Y-39893465D02*
X36061364Y-39904898D01*
X36096103Y-39923466D01*
X36126548Y-39948452D01*
X36151534Y-39978897D01*
X36170102Y-40013636D01*
X36181535Y-40051323D01*
X36186000Y-40096661D01*
X36186000Y-41183339D01*
X36181535Y-41228677D01*
X36170102Y-41266364D01*
X36151534Y-41301103D01*
X36126548Y-41331548D01*
X36096103Y-41356534D01*
X36061364Y-41375102D01*
X36023677Y-41386535D01*
X35978339Y-41391000D01*
X35141661Y-41391000D01*
X35096323Y-41386535D01*
X35058636Y-41375102D01*
X35023897Y-41356534D01*
X34993452Y-41331548D01*
X34968466Y-41301103D01*
X34949898Y-41266364D01*
X34938465Y-41228677D01*
X34934000Y-41183339D01*
X34934000Y-40096661D01*
X34938465Y-40051323D01*
X34949898Y-40013636D01*
X34968466Y-39978897D01*
X34993452Y-39948452D01*
X35023897Y-39923466D01*
X35058636Y-39904898D01*
X35096323Y-39893465D01*
X35141661Y-39889000D01*
X35978339Y-39889000D01*
X36023677Y-39893465D01*
X36023677Y-39893465D01*
G37*
G36*
X55817677Y-39131465D02*
X55855364Y-39142898D01*
X55890103Y-39161466D01*
X55920548Y-39186452D01*
X55945534Y-39216897D01*
X55964102Y-39251636D01*
X55975535Y-39289323D01*
X55980000Y-39334661D01*
X55980000Y-40421339D01*
X55975535Y-40466677D01*
X55964102Y-40504364D01*
X55945534Y-40539103D01*
X55920548Y-40569548D01*
X55890103Y-40594534D01*
X55855364Y-40613102D01*
X55817677Y-40624535D01*
X55772339Y-40629000D01*
X54935661Y-40629000D01*
X54890323Y-40624535D01*
X54852636Y-40613102D01*
X54817897Y-40594534D01*
X54787452Y-40569548D01*
X54762466Y-40539103D01*
X54743898Y-40504364D01*
X54732465Y-40466677D01*
X54728000Y-40421339D01*
X54728000Y-39334661D01*
X54732465Y-39289323D01*
X54743898Y-39251636D01*
X54762466Y-39216897D01*
X54787452Y-39186452D01*
X54817897Y-39161466D01*
X54852636Y-39142898D01*
X54890323Y-39131465D01*
X54935661Y-39127000D01*
X55772339Y-39127000D01*
X55817677Y-39131465D01*
X55817677Y-39131465D01*
G37*
G36*
X57867677Y-39131465D02*
X57905364Y-39142898D01*
X57940103Y-39161466D01*
X57970548Y-39186452D01*
X57995534Y-39216897D01*
X58014102Y-39251636D01*
X58025535Y-39289323D01*
X58030000Y-39334661D01*
X58030000Y-40421339D01*
X58025535Y-40466677D01*
X58014102Y-40504364D01*
X57995534Y-40539103D01*
X57970548Y-40569548D01*
X57940103Y-40594534D01*
X57905364Y-40613102D01*
X57867677Y-40624535D01*
X57822339Y-40629000D01*
X56985661Y-40629000D01*
X56940323Y-40624535D01*
X56902636Y-40613102D01*
X56867897Y-40594534D01*
X56837452Y-40569548D01*
X56812466Y-40539103D01*
X56793898Y-40504364D01*
X56782465Y-40466677D01*
X56778000Y-40421339D01*
X56778000Y-39334661D01*
X56782465Y-39289323D01*
X56793898Y-39251636D01*
X56812466Y-39216897D01*
X56837452Y-39186452D01*
X56867897Y-39161466D01*
X56902636Y-39142898D01*
X56940323Y-39131465D01*
X56985661Y-39127000D01*
X57822339Y-39127000D01*
X57867677Y-39131465D01*
X57867677Y-39131465D01*
G37*
G36*
X52912677Y-39020465D02*
X52950364Y-39031898D01*
X52985103Y-39050466D01*
X53015548Y-39075452D01*
X53040534Y-39105897D01*
X53059102Y-39140636D01*
X53070535Y-39178323D01*
X53075000Y-39223661D01*
X53075000Y-40060339D01*
X53070535Y-40105677D01*
X53059102Y-40143364D01*
X53040534Y-40178103D01*
X53015548Y-40208548D01*
X52985103Y-40233534D01*
X52950364Y-40252102D01*
X52912677Y-40263535D01*
X52867339Y-40268000D01*
X51780661Y-40268000D01*
X51735323Y-40263535D01*
X51697636Y-40252102D01*
X51662897Y-40233534D01*
X51632452Y-40208548D01*
X51607466Y-40178103D01*
X51588898Y-40143364D01*
X51577465Y-40105677D01*
X51573000Y-40060339D01*
X51573000Y-39223661D01*
X51577465Y-39178323D01*
X51588898Y-39140636D01*
X51607466Y-39105897D01*
X51632452Y-39075452D01*
X51662897Y-39050466D01*
X51697636Y-39031898D01*
X51735323Y-39020465D01*
X51780661Y-39016000D01*
X52867339Y-39016000D01*
X52912677Y-39020465D01*
X52912677Y-39020465D01*
G37*
G36*
X40350677Y-38623465D02*
X40388364Y-38634898D01*
X40423103Y-38653466D01*
X40453548Y-38678452D01*
X40478534Y-38708897D01*
X40497102Y-38743636D01*
X40508535Y-38781323D01*
X40513000Y-38826661D01*
X40513000Y-39913339D01*
X40508535Y-39958677D01*
X40497102Y-39996364D01*
X40478534Y-40031103D01*
X40453548Y-40061548D01*
X40423103Y-40086534D01*
X40388364Y-40105102D01*
X40350677Y-40116535D01*
X40305339Y-40121000D01*
X39468661Y-40121000D01*
X39423323Y-40116535D01*
X39385636Y-40105102D01*
X39350897Y-40086534D01*
X39320452Y-40061548D01*
X39295466Y-40031103D01*
X39276898Y-39996364D01*
X39265465Y-39958677D01*
X39261000Y-39913339D01*
X39261000Y-38826661D01*
X39265465Y-38781323D01*
X39276898Y-38743636D01*
X39295466Y-38708897D01*
X39320452Y-38678452D01*
X39350897Y-38653466D01*
X39385636Y-38634898D01*
X39423323Y-38623465D01*
X39468661Y-38619000D01*
X40305339Y-38619000D01*
X40350677Y-38623465D01*
X40350677Y-38623465D01*
G37*
G36*
X38300677Y-38623465D02*
X38338364Y-38634898D01*
X38373103Y-38653466D01*
X38403548Y-38678452D01*
X38428534Y-38708897D01*
X38447102Y-38743636D01*
X38458535Y-38781323D01*
X38463000Y-38826661D01*
X38463000Y-39913339D01*
X38458535Y-39958677D01*
X38447102Y-39996364D01*
X38428534Y-40031103D01*
X38403548Y-40061548D01*
X38373103Y-40086534D01*
X38338364Y-40105102D01*
X38300677Y-40116535D01*
X38255339Y-40121000D01*
X37418661Y-40121000D01*
X37373323Y-40116535D01*
X37335636Y-40105102D01*
X37300897Y-40086534D01*
X37270452Y-40061548D01*
X37245466Y-40031103D01*
X37226898Y-39996364D01*
X37215465Y-39958677D01*
X37211000Y-39913339D01*
X37211000Y-38826661D01*
X37215465Y-38781323D01*
X37226898Y-38743636D01*
X37245466Y-38708897D01*
X37270452Y-38678452D01*
X37300897Y-38653466D01*
X37335636Y-38634898D01*
X37373323Y-38623465D01*
X37418661Y-38619000D01*
X38255339Y-38619000D01*
X38300677Y-38623465D01*
X38300677Y-38623465D01*
G37*
G36*
X83197000Y-39763000D02*
X81395000Y-39763000D01*
X81395000Y-37961000D01*
X83197000Y-37961000D01*
X83197000Y-39763000D01*
X83197000Y-39763000D01*
G37*
G36*
X79866442Y-37967518D02*
X79932627Y-37974037D01*
X80045853Y-38008384D01*
X80102467Y-38025557D01*
X80229323Y-38093364D01*
X80258991Y-38109222D01*
X80281997Y-38128103D01*
X80396186Y-38221814D01*
X80479448Y-38323271D01*
X80508778Y-38359009D01*
X80508779Y-38359011D01*
X80592443Y-38515533D01*
X80592443Y-38515534D01*
X80643963Y-38685373D01*
X80661359Y-38862000D01*
X80643963Y-39038627D01*
X80623557Y-39105897D01*
X80592443Y-39208467D01*
X80549224Y-39289323D01*
X80508778Y-39364991D01*
X80480725Y-39399173D01*
X80396186Y-39502186D01*
X80294729Y-39585448D01*
X80258991Y-39614778D01*
X80258989Y-39614779D01*
X80102467Y-39698443D01*
X80045853Y-39715616D01*
X79932627Y-39749963D01*
X79866442Y-39756482D01*
X79800260Y-39763000D01*
X79711740Y-39763000D01*
X79645558Y-39756482D01*
X79579373Y-39749963D01*
X79466147Y-39715616D01*
X79409533Y-39698443D01*
X79253011Y-39614779D01*
X79253009Y-39614778D01*
X79217271Y-39585448D01*
X79115814Y-39502186D01*
X79031275Y-39399173D01*
X79003222Y-39364991D01*
X78962776Y-39289323D01*
X78919557Y-39208467D01*
X78888443Y-39105897D01*
X78868037Y-39038627D01*
X78850641Y-38862000D01*
X78868037Y-38685373D01*
X78919557Y-38515534D01*
X78919557Y-38515533D01*
X79003221Y-38359011D01*
X79003222Y-38359009D01*
X79032552Y-38323271D01*
X79115814Y-38221814D01*
X79230003Y-38128103D01*
X79253009Y-38109222D01*
X79282677Y-38093364D01*
X79409533Y-38025557D01*
X79466147Y-38008384D01*
X79579373Y-37974037D01*
X79645558Y-37967518D01*
X79711740Y-37961000D01*
X79800260Y-37961000D01*
X79866442Y-37967518D01*
X79866442Y-37967518D01*
G37*
G36*
X52912677Y-36970465D02*
X52950364Y-36981898D01*
X52985103Y-37000466D01*
X53015548Y-37025452D01*
X53040534Y-37055897D01*
X53059102Y-37090636D01*
X53070535Y-37128323D01*
X53075000Y-37173661D01*
X53075000Y-38010339D01*
X53070535Y-38055677D01*
X53059102Y-38093364D01*
X53040534Y-38128103D01*
X53015548Y-38158548D01*
X52985103Y-38183534D01*
X52950364Y-38202102D01*
X52912677Y-38213535D01*
X52867339Y-38218000D01*
X51780661Y-38218000D01*
X51735323Y-38213535D01*
X51697636Y-38202102D01*
X51662897Y-38183534D01*
X51632452Y-38158548D01*
X51607466Y-38128103D01*
X51588898Y-38093364D01*
X51577465Y-38055677D01*
X51573000Y-38010339D01*
X51573000Y-37173661D01*
X51577465Y-37128323D01*
X51588898Y-37090636D01*
X51607466Y-37055897D01*
X51632452Y-37025452D01*
X51662897Y-37000466D01*
X51697636Y-36981898D01*
X51735323Y-36970465D01*
X51780661Y-36966000D01*
X52867339Y-36966000D01*
X52912677Y-36970465D01*
X52912677Y-36970465D01*
G37*
G36*
X79866443Y-35427519D02*
X79932627Y-35434037D01*
X80045853Y-35468384D01*
X80102467Y-35485557D01*
X80236125Y-35557000D01*
X80258991Y-35569222D01*
X80273641Y-35581245D01*
X80396186Y-35681814D01*
X80479448Y-35783271D01*
X80508778Y-35819009D01*
X80508779Y-35819011D01*
X80592443Y-35975533D01*
X80592443Y-35975534D01*
X80643963Y-36145373D01*
X80661359Y-36322000D01*
X80643963Y-36498627D01*
X80609616Y-36611853D01*
X80592443Y-36668467D01*
X80545120Y-36757000D01*
X80508778Y-36824991D01*
X80479448Y-36860729D01*
X80396186Y-36962186D01*
X80294729Y-37045448D01*
X80258991Y-37074778D01*
X80258989Y-37074779D01*
X80102467Y-37158443D01*
X80052299Y-37173661D01*
X79932627Y-37209963D01*
X79866442Y-37216482D01*
X79800260Y-37223000D01*
X79711740Y-37223000D01*
X79645558Y-37216482D01*
X79579373Y-37209963D01*
X79459701Y-37173661D01*
X79409533Y-37158443D01*
X79253011Y-37074779D01*
X79253009Y-37074778D01*
X79217271Y-37045448D01*
X79115814Y-36962186D01*
X79032552Y-36860729D01*
X79003222Y-36824991D01*
X78966880Y-36757000D01*
X78919557Y-36668467D01*
X78902384Y-36611853D01*
X78868037Y-36498627D01*
X78850641Y-36322000D01*
X78868037Y-36145373D01*
X78919557Y-35975534D01*
X78919557Y-35975533D01*
X79003221Y-35819011D01*
X79003222Y-35819009D01*
X79032552Y-35783271D01*
X79115814Y-35681814D01*
X79238359Y-35581245D01*
X79253009Y-35569222D01*
X79275875Y-35557000D01*
X79409533Y-35485557D01*
X79466147Y-35468384D01*
X79579373Y-35434037D01*
X79645557Y-35427519D01*
X79711740Y-35421000D01*
X79800260Y-35421000D01*
X79866443Y-35427519D01*
X79866443Y-35427519D01*
G37*
G36*
X82406443Y-35427519D02*
X82472627Y-35434037D01*
X82585853Y-35468384D01*
X82642467Y-35485557D01*
X82776125Y-35557000D01*
X82798991Y-35569222D01*
X82813641Y-35581245D01*
X82936186Y-35681814D01*
X83019448Y-35783271D01*
X83048778Y-35819009D01*
X83048779Y-35819011D01*
X83132443Y-35975533D01*
X83132443Y-35975534D01*
X83183963Y-36145373D01*
X83201359Y-36322000D01*
X83183963Y-36498627D01*
X83149616Y-36611853D01*
X83132443Y-36668467D01*
X83085120Y-36757000D01*
X83048778Y-36824991D01*
X83019448Y-36860729D01*
X82936186Y-36962186D01*
X82834729Y-37045448D01*
X82798991Y-37074778D01*
X82798989Y-37074779D01*
X82642467Y-37158443D01*
X82592299Y-37173661D01*
X82472627Y-37209963D01*
X82406442Y-37216482D01*
X82340260Y-37223000D01*
X82251740Y-37223000D01*
X82185558Y-37216482D01*
X82119373Y-37209963D01*
X81999701Y-37173661D01*
X81949533Y-37158443D01*
X81793011Y-37074779D01*
X81793009Y-37074778D01*
X81757271Y-37045448D01*
X81655814Y-36962186D01*
X81572552Y-36860729D01*
X81543222Y-36824991D01*
X81506880Y-36757000D01*
X81459557Y-36668467D01*
X81442384Y-36611853D01*
X81408037Y-36498627D01*
X81390641Y-36322000D01*
X81408037Y-36145373D01*
X81459557Y-35975534D01*
X81459557Y-35975533D01*
X81543221Y-35819011D01*
X81543222Y-35819009D01*
X81572552Y-35783271D01*
X81655814Y-35681814D01*
X81778359Y-35581245D01*
X81793009Y-35569222D01*
X81815875Y-35557000D01*
X81949533Y-35485557D01*
X82006147Y-35468384D01*
X82119373Y-35434037D01*
X82185557Y-35427519D01*
X82251740Y-35421000D01*
X82340260Y-35421000D01*
X82406443Y-35427519D01*
X82406443Y-35427519D01*
G37*
G36*
X38895000Y-36757000D02*
X34093000Y-36757000D01*
X34093000Y-35155000D01*
X38895000Y-35155000D01*
X38895000Y-36757000D01*
X38895000Y-36757000D01*
G37*
G36*
X66728548Y-34168326D02*
X66844287Y-34203435D01*
X66902158Y-34220990D01*
X66925315Y-34233368D01*
X67062156Y-34306511D01*
X67202396Y-34421604D01*
X67317489Y-34561844D01*
X67403010Y-34721843D01*
X67455674Y-34895452D01*
X67469000Y-35030757D01*
X67469000Y-35581244D01*
X67455674Y-35716548D01*
X67424593Y-35819009D01*
X67403010Y-35890158D01*
X67357376Y-35975533D01*
X67317489Y-36050156D01*
X67202396Y-36190396D01*
X67062155Y-36305489D01*
X66960514Y-36359817D01*
X66902157Y-36391010D01*
X66855550Y-36405148D01*
X66728547Y-36443674D01*
X66548000Y-36461456D01*
X66367452Y-36443674D01*
X66240449Y-36405148D01*
X66193842Y-36391010D01*
X66097250Y-36339380D01*
X66033844Y-36305489D01*
X65893604Y-36190396D01*
X65778511Y-36050155D01*
X65692991Y-35890158D01*
X65692990Y-35890157D01*
X65671408Y-35819009D01*
X65640326Y-35716547D01*
X65627000Y-35581243D01*
X65627000Y-35030756D01*
X65640326Y-34895452D01*
X65692990Y-34721843D01*
X65692990Y-34721842D01*
X65778513Y-34561843D01*
X65782488Y-34557000D01*
X65893605Y-34421604D01*
X66033845Y-34306511D01*
X66170686Y-34233368D01*
X66193843Y-34220990D01*
X66251714Y-34203435D01*
X66367453Y-34168326D01*
X66548000Y-34150544D01*
X66728548Y-34168326D01*
X66728548Y-34168326D01*
G37*
G36*
X73332548Y-34168326D02*
X73448287Y-34203435D01*
X73506158Y-34220990D01*
X73529315Y-34233368D01*
X73666156Y-34306511D01*
X73806396Y-34421604D01*
X73921489Y-34561844D01*
X74007010Y-34721843D01*
X74059674Y-34895452D01*
X74073000Y-35030757D01*
X74073000Y-35581244D01*
X74059674Y-35716548D01*
X74028593Y-35819009D01*
X74007010Y-35890158D01*
X73961376Y-35975533D01*
X73921489Y-36050156D01*
X73806396Y-36190396D01*
X73666155Y-36305489D01*
X73564514Y-36359817D01*
X73506157Y-36391010D01*
X73459550Y-36405148D01*
X73332547Y-36443674D01*
X73152000Y-36461456D01*
X72971452Y-36443674D01*
X72844449Y-36405148D01*
X72797842Y-36391010D01*
X72701250Y-36339380D01*
X72637844Y-36305489D01*
X72497604Y-36190396D01*
X72382511Y-36050155D01*
X72296991Y-35890158D01*
X72296990Y-35890157D01*
X72275408Y-35819009D01*
X72244326Y-35716547D01*
X72231000Y-35581243D01*
X72231000Y-35030756D01*
X72244326Y-34895452D01*
X72296990Y-34721843D01*
X72296990Y-34721842D01*
X72382513Y-34561843D01*
X72386488Y-34557000D01*
X72497605Y-34421604D01*
X72637845Y-34306511D01*
X72774686Y-34233368D01*
X72797843Y-34220990D01*
X72855714Y-34203435D01*
X72971453Y-34168326D01*
X73152000Y-34150544D01*
X73332548Y-34168326D01*
X73332548Y-34168326D01*
G37*
G36*
X69867560Y-34158966D02*
X69900383Y-34168923D01*
X69930632Y-34185092D01*
X69957148Y-34206852D01*
X69978908Y-34233368D01*
X69995077Y-34263617D01*
X70005034Y-34296440D01*
X70009000Y-34336712D01*
X70009000Y-36275288D01*
X70005034Y-36315560D01*
X69995077Y-36348383D01*
X69978908Y-36378632D01*
X69957148Y-36405148D01*
X69930632Y-36426908D01*
X69900383Y-36443077D01*
X69867560Y-36453034D01*
X69827288Y-36457000D01*
X68348712Y-36457000D01*
X68308440Y-36453034D01*
X68275617Y-36443077D01*
X68245368Y-36426908D01*
X68218852Y-36405148D01*
X68197092Y-36378632D01*
X68180923Y-36348383D01*
X68170966Y-36315560D01*
X68167000Y-36275288D01*
X68167000Y-34336712D01*
X68170966Y-34296440D01*
X68180923Y-34263617D01*
X68197092Y-34233368D01*
X68218852Y-34206852D01*
X68245368Y-34185092D01*
X68275617Y-34168923D01*
X68308440Y-34158966D01*
X68348712Y-34155000D01*
X69827288Y-34155000D01*
X69867560Y-34158966D01*
X69867560Y-34158966D01*
G37*
G36*
X76471560Y-34158966D02*
X76504383Y-34168923D01*
X76534632Y-34185092D01*
X76561148Y-34206852D01*
X76582908Y-34233368D01*
X76599077Y-34263617D01*
X76609034Y-34296440D01*
X76613000Y-34336712D01*
X76613000Y-36275288D01*
X76609034Y-36315560D01*
X76599077Y-36348383D01*
X76582908Y-36378632D01*
X76561148Y-36405148D01*
X76534632Y-36426908D01*
X76504383Y-36443077D01*
X76471560Y-36453034D01*
X76431288Y-36457000D01*
X74952712Y-36457000D01*
X74912440Y-36453034D01*
X74879617Y-36443077D01*
X74849368Y-36426908D01*
X74822852Y-36405148D01*
X74801092Y-36378632D01*
X74784923Y-36348383D01*
X74774966Y-36315560D01*
X74771000Y-36275288D01*
X74771000Y-34336712D01*
X74774966Y-34296440D01*
X74784923Y-34263617D01*
X74801092Y-34233368D01*
X74822852Y-34206852D01*
X74849368Y-34185092D01*
X74879617Y-34168923D01*
X74912440Y-34158966D01*
X74952712Y-34155000D01*
X76431288Y-34155000D01*
X76471560Y-34158966D01*
X76471560Y-34158966D01*
G37*
G36*
X32895000Y-35557000D02*
X31293000Y-35557000D01*
X31293000Y-22455000D01*
X32895000Y-22455000D01*
X32895000Y-35557000D01*
X32895000Y-35557000D01*
G37*
G36*
X41695000Y-35557000D02*
X40093000Y-35557000D01*
X40093000Y-22455000D01*
X41695000Y-22455000D01*
X41695000Y-35557000D01*
X41695000Y-35557000D01*
G37*
G36*
X55765091Y-33768085D02*
X55799069Y-33778393D01*
X55830387Y-33795133D01*
X55857839Y-33817661D01*
X55880367Y-33845113D01*
X55897107Y-33876431D01*
X55907415Y-33910409D01*
X55911500Y-33951890D01*
X55911500Y-34628110D01*
X55907415Y-34669591D01*
X55897107Y-34703569D01*
X55880367Y-34734887D01*
X55857839Y-34762339D01*
X55830387Y-34784867D01*
X55799069Y-34801607D01*
X55765091Y-34811915D01*
X55723610Y-34816000D01*
X55122390Y-34816000D01*
X55080909Y-34811915D01*
X55046931Y-34801607D01*
X55015613Y-34784867D01*
X54988161Y-34762339D01*
X54965633Y-34734887D01*
X54948893Y-34703569D01*
X54938585Y-34669591D01*
X54934500Y-34628110D01*
X54934500Y-33951890D01*
X54938585Y-33910409D01*
X54948893Y-33876431D01*
X54965633Y-33845113D01*
X54988161Y-33817661D01*
X55015613Y-33795133D01*
X55046931Y-33778393D01*
X55080909Y-33768085D01*
X55122390Y-33764000D01*
X55723610Y-33764000D01*
X55765091Y-33768085D01*
X55765091Y-33768085D01*
G37*
G36*
X54190091Y-33768085D02*
X54224069Y-33778393D01*
X54255387Y-33795133D01*
X54282839Y-33817661D01*
X54305367Y-33845113D01*
X54322107Y-33876431D01*
X54332415Y-33910409D01*
X54336500Y-33951890D01*
X54336500Y-34628110D01*
X54332415Y-34669591D01*
X54322107Y-34703569D01*
X54305367Y-34734887D01*
X54282839Y-34762339D01*
X54255387Y-34784867D01*
X54224069Y-34801607D01*
X54190091Y-34811915D01*
X54148610Y-34816000D01*
X53547390Y-34816000D01*
X53505909Y-34811915D01*
X53471931Y-34801607D01*
X53440613Y-34784867D01*
X53413161Y-34762339D01*
X53390633Y-34734887D01*
X53373893Y-34703569D01*
X53363585Y-34669591D01*
X53359500Y-34628110D01*
X53359500Y-33951890D01*
X53363585Y-33910409D01*
X53373893Y-33876431D01*
X53390633Y-33845113D01*
X53413161Y-33817661D01*
X53440613Y-33795133D01*
X53471931Y-33778393D01*
X53505909Y-33768085D01*
X53547390Y-33764000D01*
X54148610Y-33764000D01*
X54190091Y-33768085D01*
X54190091Y-33768085D01*
G37*
G36*
X82406442Y-32887518D02*
X82472627Y-32894037D01*
X82585853Y-32928384D01*
X82642467Y-32945557D01*
X82781087Y-33019652D01*
X82798991Y-33029222D01*
X82834729Y-33058552D01*
X82936186Y-33141814D01*
X83019448Y-33243271D01*
X83048778Y-33279009D01*
X83048779Y-33279011D01*
X83132443Y-33435533D01*
X83132443Y-33435534D01*
X83183963Y-33605373D01*
X83201359Y-33782000D01*
X83183963Y-33958627D01*
X83168910Y-34008250D01*
X83132443Y-34128467D01*
X83082988Y-34220990D01*
X83048778Y-34284991D01*
X83039382Y-34296440D01*
X82936186Y-34422186D01*
X82834729Y-34505448D01*
X82798991Y-34534778D01*
X82798989Y-34534779D01*
X82642467Y-34618443D01*
X82585853Y-34635616D01*
X82472627Y-34669963D01*
X82406442Y-34676482D01*
X82340260Y-34683000D01*
X82251740Y-34683000D01*
X82185558Y-34676482D01*
X82119373Y-34669963D01*
X82006147Y-34635616D01*
X81949533Y-34618443D01*
X81793011Y-34534779D01*
X81793009Y-34534778D01*
X81757271Y-34505448D01*
X81655814Y-34422186D01*
X81552618Y-34296440D01*
X81543222Y-34284991D01*
X81509012Y-34220990D01*
X81459557Y-34128467D01*
X81423090Y-34008250D01*
X81408037Y-33958627D01*
X81390641Y-33782000D01*
X81408037Y-33605373D01*
X81459557Y-33435534D01*
X81459557Y-33435533D01*
X81543221Y-33279011D01*
X81543222Y-33279009D01*
X81572552Y-33243271D01*
X81655814Y-33141814D01*
X81757271Y-33058552D01*
X81793009Y-33029222D01*
X81810913Y-33019652D01*
X81949533Y-32945557D01*
X82006147Y-32928384D01*
X82119373Y-32894037D01*
X82185558Y-32887518D01*
X82251740Y-32881000D01*
X82340260Y-32881000D01*
X82406442Y-32887518D01*
X82406442Y-32887518D01*
G37*
G36*
X79866442Y-32887518D02*
X79932627Y-32894037D01*
X80045853Y-32928384D01*
X80102467Y-32945557D01*
X80241087Y-33019652D01*
X80258991Y-33029222D01*
X80294729Y-33058552D01*
X80396186Y-33141814D01*
X80479448Y-33243271D01*
X80508778Y-33279009D01*
X80508779Y-33279011D01*
X80592443Y-33435533D01*
X80592443Y-33435534D01*
X80643963Y-33605373D01*
X80661359Y-33782000D01*
X80643963Y-33958627D01*
X80628910Y-34008250D01*
X80592443Y-34128467D01*
X80542988Y-34220990D01*
X80508778Y-34284991D01*
X80499382Y-34296440D01*
X80396186Y-34422186D01*
X80294729Y-34505448D01*
X80258991Y-34534778D01*
X80258989Y-34534779D01*
X80102467Y-34618443D01*
X80045853Y-34635616D01*
X79932627Y-34669963D01*
X79866442Y-34676482D01*
X79800260Y-34683000D01*
X79711740Y-34683000D01*
X79645558Y-34676482D01*
X79579373Y-34669963D01*
X79466147Y-34635616D01*
X79409533Y-34618443D01*
X79253011Y-34534779D01*
X79253009Y-34534778D01*
X79217271Y-34505448D01*
X79115814Y-34422186D01*
X79012618Y-34296440D01*
X79003222Y-34284991D01*
X78969012Y-34220990D01*
X78919557Y-34128467D01*
X78883090Y-34008250D01*
X78868037Y-33958627D01*
X78850641Y-33782000D01*
X78868037Y-33605373D01*
X78919557Y-33435534D01*
X78919557Y-33435533D01*
X79003221Y-33279011D01*
X79003222Y-33279009D01*
X79032552Y-33243271D01*
X79115814Y-33141814D01*
X79217271Y-33058552D01*
X79253009Y-33029222D01*
X79270913Y-33019652D01*
X79409533Y-32945557D01*
X79466147Y-32928384D01*
X79579373Y-32894037D01*
X79645558Y-32887518D01*
X79711740Y-32881000D01*
X79800260Y-32881000D01*
X79866442Y-32887518D01*
X79866442Y-32887518D01*
G37*
G36*
X75872547Y-27056326D02*
X75988286Y-27091435D01*
X76046157Y-27108990D01*
X76067718Y-27120515D01*
X76206155Y-27194511D01*
X76346396Y-27309604D01*
X76461489Y-27449844D01*
X76501298Y-27524321D01*
X76547010Y-27609842D01*
X76564565Y-27667713D01*
X76599674Y-27783452D01*
X76613000Y-27918756D01*
X76613000Y-28469243D01*
X76599674Y-28604548D01*
X76547010Y-28778157D01*
X76461489Y-28938156D01*
X76346396Y-29078396D01*
X76206156Y-29193489D01*
X76187314Y-29203560D01*
X76046158Y-29279010D01*
X75999551Y-29293148D01*
X75872548Y-29331674D01*
X75692000Y-29349456D01*
X75511453Y-29331674D01*
X75384450Y-29293148D01*
X75337843Y-29279010D01*
X75196687Y-29203560D01*
X75177845Y-29193489D01*
X75037605Y-29078396D01*
X74922512Y-28938156D01*
X74882703Y-28863680D01*
X74836990Y-28778158D01*
X74819435Y-28720287D01*
X74784326Y-28604548D01*
X74771000Y-28469244D01*
X74771000Y-27918757D01*
X74784326Y-27783453D01*
X74836990Y-27609844D01*
X74836990Y-27609843D01*
X74868183Y-27551486D01*
X74922511Y-27449845D01*
X75037604Y-27309604D01*
X75177844Y-27194511D01*
X75314685Y-27121368D01*
X75337842Y-27108990D01*
X75395713Y-27091435D01*
X75511452Y-27056326D01*
X75692000Y-27038544D01*
X75872547Y-27056326D01*
X75872547Y-27056326D01*
G37*
G36*
X69268547Y-27056326D02*
X69384286Y-27091435D01*
X69442157Y-27108990D01*
X69463718Y-27120515D01*
X69602155Y-27194511D01*
X69742396Y-27309604D01*
X69857489Y-27449844D01*
X69897298Y-27524321D01*
X69943010Y-27609842D01*
X69960565Y-27667713D01*
X69995674Y-27783452D01*
X70009000Y-27918756D01*
X70009000Y-28469243D01*
X69995674Y-28604548D01*
X69943010Y-28778157D01*
X69857489Y-28938156D01*
X69742396Y-29078396D01*
X69602156Y-29193489D01*
X69583314Y-29203560D01*
X69442158Y-29279010D01*
X69395551Y-29293148D01*
X69268548Y-29331674D01*
X69088000Y-29349456D01*
X68907453Y-29331674D01*
X68780450Y-29293148D01*
X68733843Y-29279010D01*
X68592687Y-29203560D01*
X68573845Y-29193489D01*
X68433605Y-29078396D01*
X68318512Y-28938156D01*
X68278703Y-28863680D01*
X68232990Y-28778158D01*
X68215435Y-28720287D01*
X68180326Y-28604548D01*
X68167000Y-28469244D01*
X68167000Y-27918757D01*
X68180326Y-27783453D01*
X68232990Y-27609844D01*
X68232990Y-27609843D01*
X68264183Y-27551486D01*
X68318511Y-27449845D01*
X68433604Y-27309604D01*
X68573844Y-27194511D01*
X68710685Y-27121368D01*
X68733842Y-27108990D01*
X68791713Y-27091435D01*
X68907452Y-27056326D01*
X69088000Y-27038544D01*
X69268547Y-27056326D01*
X69268547Y-27056326D01*
G37*
G36*
X82476547Y-27056326D02*
X82592286Y-27091435D01*
X82650157Y-27108990D01*
X82671718Y-27120515D01*
X82810155Y-27194511D01*
X82950396Y-27309604D01*
X83065489Y-27449844D01*
X83105298Y-27524321D01*
X83151010Y-27609842D01*
X83168565Y-27667713D01*
X83203674Y-27783452D01*
X83217000Y-27918756D01*
X83217000Y-28469243D01*
X83203674Y-28604548D01*
X83151010Y-28778157D01*
X83065489Y-28938156D01*
X82950396Y-29078396D01*
X82810156Y-29193489D01*
X82791314Y-29203560D01*
X82650158Y-29279010D01*
X82603551Y-29293148D01*
X82476548Y-29331674D01*
X82296000Y-29349456D01*
X82115453Y-29331674D01*
X81988450Y-29293148D01*
X81941843Y-29279010D01*
X81800687Y-29203560D01*
X81781845Y-29193489D01*
X81641605Y-29078396D01*
X81526512Y-28938156D01*
X81486703Y-28863680D01*
X81440990Y-28778158D01*
X81423435Y-28720287D01*
X81388326Y-28604548D01*
X81375000Y-28469244D01*
X81375000Y-27918757D01*
X81388326Y-27783453D01*
X81440990Y-27609844D01*
X81440990Y-27609843D01*
X81472183Y-27551486D01*
X81526511Y-27449845D01*
X81641604Y-27309604D01*
X81781844Y-27194511D01*
X81918685Y-27121368D01*
X81941842Y-27108990D01*
X81999713Y-27091435D01*
X82115452Y-27056326D01*
X82296000Y-27038544D01*
X82476547Y-27056326D01*
X82476547Y-27056326D01*
G37*
G36*
X80535560Y-27046966D02*
X80568383Y-27056923D01*
X80598632Y-27073092D01*
X80625148Y-27094852D01*
X80646908Y-27121368D01*
X80663077Y-27151617D01*
X80673034Y-27184440D01*
X80677000Y-27224712D01*
X80677000Y-29163288D01*
X80673034Y-29203560D01*
X80663077Y-29236383D01*
X80646908Y-29266632D01*
X80625148Y-29293148D01*
X80598632Y-29314908D01*
X80568383Y-29331077D01*
X80535560Y-29341034D01*
X80495288Y-29345000D01*
X79016712Y-29345000D01*
X78976440Y-29341034D01*
X78943617Y-29331077D01*
X78913368Y-29314908D01*
X78886852Y-29293148D01*
X78865092Y-29266632D01*
X78848923Y-29236383D01*
X78838966Y-29203560D01*
X78835000Y-29163288D01*
X78835000Y-27224712D01*
X78838966Y-27184440D01*
X78848923Y-27151617D01*
X78865092Y-27121368D01*
X78886852Y-27094852D01*
X78913368Y-27073092D01*
X78943617Y-27056923D01*
X78976440Y-27046966D01*
X79016712Y-27043000D01*
X80495288Y-27043000D01*
X80535560Y-27046966D01*
X80535560Y-27046966D01*
G37*
G36*
X73931560Y-27046966D02*
X73964383Y-27056923D01*
X73994632Y-27073092D01*
X74021148Y-27094852D01*
X74042908Y-27121368D01*
X74059077Y-27151617D01*
X74069034Y-27184440D01*
X74073000Y-27224712D01*
X74073000Y-29163288D01*
X74069034Y-29203560D01*
X74059077Y-29236383D01*
X74042908Y-29266632D01*
X74021148Y-29293148D01*
X73994632Y-29314908D01*
X73964383Y-29331077D01*
X73931560Y-29341034D01*
X73891288Y-29345000D01*
X72412712Y-29345000D01*
X72372440Y-29341034D01*
X72339617Y-29331077D01*
X72309368Y-29314908D01*
X72282852Y-29293148D01*
X72261092Y-29266632D01*
X72244923Y-29236383D01*
X72234966Y-29203560D01*
X72231000Y-29163288D01*
X72231000Y-27224712D01*
X72234966Y-27184440D01*
X72244923Y-27151617D01*
X72261092Y-27121368D01*
X72282852Y-27094852D01*
X72309368Y-27073092D01*
X72339617Y-27056923D01*
X72372440Y-27046966D01*
X72412712Y-27043000D01*
X73891288Y-27043000D01*
X73931560Y-27046966D01*
X73931560Y-27046966D01*
G37*
G36*
X67327560Y-27046966D02*
X67360383Y-27056923D01*
X67390632Y-27073092D01*
X67417148Y-27094852D01*
X67438908Y-27121368D01*
X67455077Y-27151617D01*
X67465034Y-27184440D01*
X67469000Y-27224712D01*
X67469000Y-29163288D01*
X67465034Y-29203560D01*
X67455077Y-29236383D01*
X67438908Y-29266632D01*
X67417148Y-29293148D01*
X67390632Y-29314908D01*
X67360383Y-29331077D01*
X67327560Y-29341034D01*
X67287288Y-29345000D01*
X65808712Y-29345000D01*
X65768440Y-29341034D01*
X65735617Y-29331077D01*
X65705368Y-29314908D01*
X65678852Y-29293148D01*
X65657092Y-29266632D01*
X65640923Y-29236383D01*
X65630966Y-29203560D01*
X65627000Y-29163288D01*
X65627000Y-27224712D01*
X65630966Y-27184440D01*
X65640923Y-27151617D01*
X65657092Y-27121368D01*
X65678852Y-27094852D01*
X65705368Y-27073092D01*
X65735617Y-27056923D01*
X65768440Y-27046966D01*
X65808712Y-27043000D01*
X67287288Y-27043000D01*
X67327560Y-27046966D01*
X67327560Y-27046966D01*
G37*
G36*
X89498252Y-23427818D02*
X89498254Y-23427819D01*
X89498255Y-23427819D01*
X89871513Y-23582427D01*
X90129671Y-23754923D01*
X90207439Y-23806886D01*
X90493114Y-24092561D01*
X90493116Y-24092564D01*
X90717573Y-24428487D01*
X90872181Y-24801745D01*
X90872182Y-24801748D01*
X90951000Y-25197993D01*
X90951000Y-25602007D01*
X90878700Y-25965485D01*
X90872181Y-25998255D01*
X90717573Y-26371513D01*
X90717572Y-26371514D01*
X90493114Y-26707439D01*
X90207439Y-26993114D01*
X90207436Y-26993116D01*
X89871513Y-27217573D01*
X89498255Y-27372181D01*
X89498254Y-27372181D01*
X89498252Y-27372182D01*
X89102007Y-27451000D01*
X88697993Y-27451000D01*
X88301748Y-27372182D01*
X88301746Y-27372181D01*
X88301745Y-27372181D01*
X87928487Y-27217573D01*
X87592564Y-26993116D01*
X87592561Y-26993114D01*
X87306886Y-26707439D01*
X87082428Y-26371514D01*
X87082427Y-26371513D01*
X86927819Y-25998255D01*
X86921301Y-25965485D01*
X86849000Y-25602007D01*
X86849000Y-25197993D01*
X86927818Y-24801748D01*
X86927819Y-24801745D01*
X87082427Y-24428487D01*
X87306884Y-24092564D01*
X87306886Y-24092561D01*
X87592561Y-23806886D01*
X87670329Y-23754923D01*
X87928487Y-23582427D01*
X88301745Y-23427819D01*
X88301746Y-23427819D01*
X88301748Y-23427818D01*
X88697993Y-23349000D01*
X89102007Y-23349000D01*
X89498252Y-23427818D01*
X89498252Y-23427818D01*
G37*
G36*
X61558252Y-23427818D02*
X61558254Y-23427819D01*
X61558255Y-23427819D01*
X61931513Y-23582427D01*
X62189671Y-23754923D01*
X62267439Y-23806886D01*
X62553114Y-24092561D01*
X62553116Y-24092564D01*
X62777573Y-24428487D01*
X62932181Y-24801745D01*
X62932182Y-24801748D01*
X63011000Y-25197993D01*
X63011000Y-25602007D01*
X62938700Y-25965485D01*
X62932181Y-25998255D01*
X62777573Y-26371513D01*
X62777572Y-26371514D01*
X62553114Y-26707439D01*
X62267439Y-26993114D01*
X62267436Y-26993116D01*
X61931513Y-27217573D01*
X61558255Y-27372181D01*
X61558254Y-27372181D01*
X61558252Y-27372182D01*
X61162007Y-27451000D01*
X60757993Y-27451000D01*
X60361748Y-27372182D01*
X60361746Y-27372181D01*
X60361745Y-27372181D01*
X59988487Y-27217573D01*
X59652564Y-26993116D01*
X59652561Y-26993114D01*
X59366886Y-26707439D01*
X59142428Y-26371514D01*
X59142427Y-26371513D01*
X58987819Y-25998255D01*
X58981301Y-25965485D01*
X58909000Y-25602007D01*
X58909000Y-25197993D01*
X58987818Y-24801748D01*
X58987819Y-24801745D01*
X59142427Y-24428487D01*
X59366884Y-24092564D01*
X59366886Y-24092561D01*
X59652561Y-23806886D01*
X59730329Y-23754923D01*
X59988487Y-23582427D01*
X60361745Y-23427819D01*
X60361746Y-23427819D01*
X60361748Y-23427818D01*
X60757993Y-23349000D01*
X61162007Y-23349000D01*
X61558252Y-23427818D01*
X61558252Y-23427818D01*
G37*
G36*
X50218548Y-23754326D02*
X50334287Y-23789435D01*
X50392158Y-23806990D01*
X50415315Y-23819368D01*
X50552156Y-23892511D01*
X50692396Y-24007604D01*
X50807489Y-24147844D01*
X50893010Y-24307843D01*
X50945674Y-24481452D01*
X50959000Y-24616757D01*
X50959000Y-25167244D01*
X50945674Y-25302548D01*
X50910565Y-25418287D01*
X50893010Y-25476158D01*
X50849799Y-25557000D01*
X50807489Y-25636156D01*
X50692396Y-25776396D01*
X50552155Y-25891489D01*
X50450514Y-25945817D01*
X50392157Y-25977010D01*
X50345550Y-25991148D01*
X50218547Y-26029674D01*
X50038000Y-26047456D01*
X49857452Y-26029674D01*
X49730449Y-25991148D01*
X49683842Y-25977010D01*
X49542686Y-25901560D01*
X49523844Y-25891489D01*
X49383604Y-25776396D01*
X49268511Y-25636155D01*
X49182991Y-25476158D01*
X49182990Y-25476157D01*
X49165435Y-25418286D01*
X49130326Y-25302547D01*
X49117000Y-25167243D01*
X49117000Y-24616756D01*
X49130326Y-24481452D01*
X49182990Y-24307843D01*
X49182990Y-24307842D01*
X49268513Y-24147843D01*
X49383605Y-24007604D01*
X49523844Y-23892512D01*
X49523843Y-23892512D01*
X49523845Y-23892511D01*
X49660686Y-23819368D01*
X49683843Y-23806990D01*
X49741714Y-23789435D01*
X49857453Y-23754326D01*
X50038000Y-23736544D01*
X50218548Y-23754326D01*
X50218548Y-23754326D01*
G37*
G36*
X47678548Y-23754326D02*
X47794287Y-23789435D01*
X47852158Y-23806990D01*
X47875315Y-23819368D01*
X48012156Y-23892511D01*
X48152396Y-24007604D01*
X48267489Y-24147844D01*
X48353010Y-24307843D01*
X48405674Y-24481452D01*
X48419000Y-24616757D01*
X48419000Y-25167244D01*
X48405674Y-25302548D01*
X48370565Y-25418287D01*
X48353010Y-25476158D01*
X48309799Y-25557000D01*
X48267489Y-25636156D01*
X48152396Y-25776396D01*
X48012155Y-25891489D01*
X47910514Y-25945817D01*
X47852157Y-25977010D01*
X47805550Y-25991148D01*
X47678547Y-26029674D01*
X47498000Y-26047456D01*
X47317452Y-26029674D01*
X47190449Y-25991148D01*
X47143842Y-25977010D01*
X47002686Y-25901560D01*
X46983844Y-25891489D01*
X46843604Y-25776396D01*
X46728511Y-25636155D01*
X46642991Y-25476158D01*
X46642990Y-25476157D01*
X46625435Y-25418286D01*
X46590326Y-25302547D01*
X46577000Y-25167243D01*
X46577000Y-24616756D01*
X46590326Y-24481452D01*
X46642990Y-24307843D01*
X46642990Y-24307842D01*
X46728513Y-24147843D01*
X46843605Y-24007604D01*
X46983844Y-23892512D01*
X46983843Y-23892512D01*
X46983845Y-23892511D01*
X47120686Y-23819368D01*
X47143843Y-23806990D01*
X47201714Y-23789435D01*
X47317453Y-23754326D01*
X47498000Y-23736544D01*
X47678548Y-23754326D01*
X47678548Y-23754326D01*
G37*
G36*
X45138548Y-23754326D02*
X45254287Y-23789435D01*
X45312158Y-23806990D01*
X45335315Y-23819368D01*
X45472156Y-23892511D01*
X45612396Y-24007604D01*
X45727489Y-24147844D01*
X45813010Y-24307843D01*
X45865674Y-24481452D01*
X45879000Y-24616757D01*
X45879000Y-25167244D01*
X45865674Y-25302548D01*
X45830565Y-25418287D01*
X45813010Y-25476158D01*
X45769799Y-25557000D01*
X45727489Y-25636156D01*
X45612396Y-25776396D01*
X45472155Y-25891489D01*
X45370514Y-25945817D01*
X45312157Y-25977010D01*
X45265550Y-25991148D01*
X45138547Y-26029674D01*
X44958000Y-26047456D01*
X44777452Y-26029674D01*
X44650449Y-25991148D01*
X44603842Y-25977010D01*
X44462686Y-25901560D01*
X44443844Y-25891489D01*
X44303604Y-25776396D01*
X44188511Y-25636155D01*
X44102991Y-25476158D01*
X44102990Y-25476157D01*
X44085435Y-25418286D01*
X44050326Y-25302547D01*
X44037000Y-25167243D01*
X44037000Y-24616756D01*
X44050326Y-24481452D01*
X44102990Y-24307843D01*
X44102990Y-24307842D01*
X44188513Y-24147843D01*
X44303605Y-24007604D01*
X44443844Y-23892512D01*
X44443843Y-23892512D01*
X44443845Y-23892511D01*
X44580686Y-23819368D01*
X44603843Y-23806990D01*
X44661714Y-23789435D01*
X44777453Y-23754326D01*
X44958000Y-23736544D01*
X45138548Y-23754326D01*
X45138548Y-23754326D01*
G37*
G36*
X53357560Y-23744966D02*
X53390383Y-23754923D01*
X53420632Y-23771092D01*
X53447148Y-23792852D01*
X53468908Y-23819368D01*
X53485077Y-23849617D01*
X53495034Y-23882440D01*
X53499000Y-23922712D01*
X53499000Y-25861288D01*
X53495034Y-25901560D01*
X53485077Y-25934383D01*
X53468908Y-25964632D01*
X53447148Y-25991148D01*
X53420632Y-26012908D01*
X53390383Y-26029077D01*
X53357560Y-26039034D01*
X53317288Y-26043000D01*
X51838712Y-26043000D01*
X51798440Y-26039034D01*
X51765617Y-26029077D01*
X51735368Y-26012908D01*
X51708852Y-25991148D01*
X51687092Y-25964632D01*
X51670923Y-25934383D01*
X51660966Y-25901560D01*
X51657000Y-25861288D01*
X51657000Y-23922712D01*
X51660966Y-23882440D01*
X51670923Y-23849617D01*
X51687092Y-23819368D01*
X51708852Y-23792852D01*
X51735368Y-23771092D01*
X51765617Y-23754923D01*
X51798440Y-23744966D01*
X51838712Y-23741000D01*
X53317288Y-23741000D01*
X53357560Y-23744966D01*
X53357560Y-23744966D01*
G37*
M02*
