%TF.GenerationSoftware,KiCad,Pcbnew,5.0.1*%
%TF.CreationDate,2019-02-04T17:12:45-06:00*%
%TF.ProjectId,RDP-Environmental,5244502D456E7669726F6E6D656E7461,01*%
%TF.SameCoordinates,Original*%
%TF.FileFunction,Paste,Bot*%
%TF.FilePolarity,Positive*%
%FSLAX46Y46*%
G04 Gerber Fmt 4.6, Leading zero omitted, Abs format (unit mm)*
G04 Created by KiCad (PCBNEW 5.0.1) date Mon 04 Feb 2019 05:12:45 PM CST*
%MOMM*%
%LPD*%
G01*
G04 APERTURE LIST*
%ADD10C,0.100000*%
%ADD11C,1.150000*%
G04 APERTURE END LIST*
D10*
G36*
X69562505Y-30151204D02*
X69586773Y-30154804D01*
X69610572Y-30160765D01*
X69633671Y-30169030D01*
X69655850Y-30179520D01*
X69676893Y-30192132D01*
X69696599Y-30206747D01*
X69714777Y-30223223D01*
X69731253Y-30241401D01*
X69745868Y-30261107D01*
X69758480Y-30282150D01*
X69768970Y-30304329D01*
X69777235Y-30327428D01*
X69783196Y-30351227D01*
X69786796Y-30375495D01*
X69788000Y-30399999D01*
X69788000Y-31050001D01*
X69786796Y-31074505D01*
X69783196Y-31098773D01*
X69777235Y-31122572D01*
X69768970Y-31145671D01*
X69758480Y-31167850D01*
X69745868Y-31188893D01*
X69731253Y-31208599D01*
X69714777Y-31226777D01*
X69696599Y-31243253D01*
X69676893Y-31257868D01*
X69655850Y-31270480D01*
X69633671Y-31280970D01*
X69610572Y-31289235D01*
X69586773Y-31295196D01*
X69562505Y-31298796D01*
X69538001Y-31300000D01*
X68637999Y-31300000D01*
X68613495Y-31298796D01*
X68589227Y-31295196D01*
X68565428Y-31289235D01*
X68542329Y-31280970D01*
X68520150Y-31270480D01*
X68499107Y-31257868D01*
X68479401Y-31243253D01*
X68461223Y-31226777D01*
X68444747Y-31208599D01*
X68430132Y-31188893D01*
X68417520Y-31167850D01*
X68407030Y-31145671D01*
X68398765Y-31122572D01*
X68392804Y-31098773D01*
X68389204Y-31074505D01*
X68388000Y-31050001D01*
X68388000Y-30399999D01*
X68389204Y-30375495D01*
X68392804Y-30351227D01*
X68398765Y-30327428D01*
X68407030Y-30304329D01*
X68417520Y-30282150D01*
X68430132Y-30261107D01*
X68444747Y-30241401D01*
X68461223Y-30223223D01*
X68479401Y-30206747D01*
X68499107Y-30192132D01*
X68520150Y-30179520D01*
X68542329Y-30169030D01*
X68565428Y-30160765D01*
X68589227Y-30154804D01*
X68613495Y-30151204D01*
X68637999Y-30150000D01*
X69538001Y-30150000D01*
X69562505Y-30151204D01*
X69562505Y-30151204D01*
G37*
D11*
X69088000Y-30725000D03*
D10*
G36*
X69562505Y-32201204D02*
X69586773Y-32204804D01*
X69610572Y-32210765D01*
X69633671Y-32219030D01*
X69655850Y-32229520D01*
X69676893Y-32242132D01*
X69696599Y-32256747D01*
X69714777Y-32273223D01*
X69731253Y-32291401D01*
X69745868Y-32311107D01*
X69758480Y-32332150D01*
X69768970Y-32354329D01*
X69777235Y-32377428D01*
X69783196Y-32401227D01*
X69786796Y-32425495D01*
X69788000Y-32449999D01*
X69788000Y-33100001D01*
X69786796Y-33124505D01*
X69783196Y-33148773D01*
X69777235Y-33172572D01*
X69768970Y-33195671D01*
X69758480Y-33217850D01*
X69745868Y-33238893D01*
X69731253Y-33258599D01*
X69714777Y-33276777D01*
X69696599Y-33293253D01*
X69676893Y-33307868D01*
X69655850Y-33320480D01*
X69633671Y-33330970D01*
X69610572Y-33339235D01*
X69586773Y-33345196D01*
X69562505Y-33348796D01*
X69538001Y-33350000D01*
X68637999Y-33350000D01*
X68613495Y-33348796D01*
X68589227Y-33345196D01*
X68565428Y-33339235D01*
X68542329Y-33330970D01*
X68520150Y-33320480D01*
X68499107Y-33307868D01*
X68479401Y-33293253D01*
X68461223Y-33276777D01*
X68444747Y-33258599D01*
X68430132Y-33238893D01*
X68417520Y-33217850D01*
X68407030Y-33195671D01*
X68398765Y-33172572D01*
X68392804Y-33148773D01*
X68389204Y-33124505D01*
X68388000Y-33100001D01*
X68388000Y-32449999D01*
X68389204Y-32425495D01*
X68392804Y-32401227D01*
X68398765Y-32377428D01*
X68407030Y-32354329D01*
X68417520Y-32332150D01*
X68430132Y-32311107D01*
X68444747Y-32291401D01*
X68461223Y-32273223D01*
X68479401Y-32256747D01*
X68499107Y-32242132D01*
X68520150Y-32229520D01*
X68542329Y-32219030D01*
X68565428Y-32210765D01*
X68589227Y-32204804D01*
X68613495Y-32201204D01*
X68637999Y-32200000D01*
X69538001Y-32200000D01*
X69562505Y-32201204D01*
X69562505Y-32201204D01*
G37*
D11*
X69088000Y-32775000D03*
D10*
G36*
X76166505Y-32210204D02*
X76190773Y-32213804D01*
X76214572Y-32219765D01*
X76237671Y-32228030D01*
X76259850Y-32238520D01*
X76280893Y-32251132D01*
X76300599Y-32265747D01*
X76318777Y-32282223D01*
X76335253Y-32300401D01*
X76349868Y-32320107D01*
X76362480Y-32341150D01*
X76372970Y-32363329D01*
X76381235Y-32386428D01*
X76387196Y-32410227D01*
X76390796Y-32434495D01*
X76392000Y-32458999D01*
X76392000Y-33109001D01*
X76390796Y-33133505D01*
X76387196Y-33157773D01*
X76381235Y-33181572D01*
X76372970Y-33204671D01*
X76362480Y-33226850D01*
X76349868Y-33247893D01*
X76335253Y-33267599D01*
X76318777Y-33285777D01*
X76300599Y-33302253D01*
X76280893Y-33316868D01*
X76259850Y-33329480D01*
X76237671Y-33339970D01*
X76214572Y-33348235D01*
X76190773Y-33354196D01*
X76166505Y-33357796D01*
X76142001Y-33359000D01*
X75241999Y-33359000D01*
X75217495Y-33357796D01*
X75193227Y-33354196D01*
X75169428Y-33348235D01*
X75146329Y-33339970D01*
X75124150Y-33329480D01*
X75103107Y-33316868D01*
X75083401Y-33302253D01*
X75065223Y-33285777D01*
X75048747Y-33267599D01*
X75034132Y-33247893D01*
X75021520Y-33226850D01*
X75011030Y-33204671D01*
X75002765Y-33181572D01*
X74996804Y-33157773D01*
X74993204Y-33133505D01*
X74992000Y-33109001D01*
X74992000Y-32458999D01*
X74993204Y-32434495D01*
X74996804Y-32410227D01*
X75002765Y-32386428D01*
X75011030Y-32363329D01*
X75021520Y-32341150D01*
X75034132Y-32320107D01*
X75048747Y-32300401D01*
X75065223Y-32282223D01*
X75083401Y-32265747D01*
X75103107Y-32251132D01*
X75124150Y-32238520D01*
X75146329Y-32228030D01*
X75169428Y-32219765D01*
X75193227Y-32213804D01*
X75217495Y-32210204D01*
X75241999Y-32209000D01*
X76142001Y-32209000D01*
X76166505Y-32210204D01*
X76166505Y-32210204D01*
G37*
D11*
X75692000Y-32784000D03*
D10*
G36*
X76166910Y-30160202D02*
X76191135Y-30163795D01*
X76214891Y-30169746D01*
X76237949Y-30177996D01*
X76260087Y-30188467D01*
X76281093Y-30201057D01*
X76300763Y-30215645D01*
X76318908Y-30232092D01*
X76335355Y-30250237D01*
X76349943Y-30269907D01*
X76362533Y-30290913D01*
X76373004Y-30313051D01*
X76381254Y-30336109D01*
X76387205Y-30359865D01*
X76390798Y-30384090D01*
X76392000Y-30408550D01*
X76392000Y-31059450D01*
X76390798Y-31083910D01*
X76387205Y-31108135D01*
X76381254Y-31131891D01*
X76373004Y-31154949D01*
X76362533Y-31177087D01*
X76349943Y-31198093D01*
X76335355Y-31217763D01*
X76318908Y-31235908D01*
X76300763Y-31252355D01*
X76281093Y-31266943D01*
X76260087Y-31279533D01*
X76237949Y-31290004D01*
X76214891Y-31298254D01*
X76191135Y-31304205D01*
X76166910Y-31307798D01*
X76142450Y-31309000D01*
X75241550Y-31309000D01*
X75217090Y-31307798D01*
X75192865Y-31304205D01*
X75169109Y-31298254D01*
X75146051Y-31290004D01*
X75123913Y-31279533D01*
X75102907Y-31266943D01*
X75083237Y-31252355D01*
X75065092Y-31235908D01*
X75048645Y-31217763D01*
X75034057Y-31198093D01*
X75021467Y-31177087D01*
X75010996Y-31154949D01*
X75002746Y-31131891D01*
X74996795Y-31108135D01*
X74993202Y-31083910D01*
X74992000Y-31059450D01*
X74992000Y-30408550D01*
X74993202Y-30384090D01*
X74996795Y-30359865D01*
X75002746Y-30336109D01*
X75010996Y-30313051D01*
X75021467Y-30290913D01*
X75034057Y-30269907D01*
X75048645Y-30250237D01*
X75065092Y-30232092D01*
X75083237Y-30215645D01*
X75102907Y-30201057D01*
X75123913Y-30188467D01*
X75146051Y-30177996D01*
X75169109Y-30169746D01*
X75192865Y-30163795D01*
X75217090Y-30160202D01*
X75241550Y-30159000D01*
X76142450Y-30159000D01*
X76166910Y-30160202D01*
X76166910Y-30160202D01*
G37*
D11*
X75692000Y-30734000D03*
D10*
G36*
X69562505Y-37272204D02*
X69586773Y-37275804D01*
X69610572Y-37281765D01*
X69633671Y-37290030D01*
X69655850Y-37300520D01*
X69676893Y-37313132D01*
X69696599Y-37327747D01*
X69714777Y-37344223D01*
X69731253Y-37362401D01*
X69745868Y-37382107D01*
X69758480Y-37403150D01*
X69768970Y-37425329D01*
X69777235Y-37448428D01*
X69783196Y-37472227D01*
X69786796Y-37496495D01*
X69788000Y-37520999D01*
X69788000Y-38171001D01*
X69786796Y-38195505D01*
X69783196Y-38219773D01*
X69777235Y-38243572D01*
X69768970Y-38266671D01*
X69758480Y-38288850D01*
X69745868Y-38309893D01*
X69731253Y-38329599D01*
X69714777Y-38347777D01*
X69696599Y-38364253D01*
X69676893Y-38378868D01*
X69655850Y-38391480D01*
X69633671Y-38401970D01*
X69610572Y-38410235D01*
X69586773Y-38416196D01*
X69562505Y-38419796D01*
X69538001Y-38421000D01*
X68637999Y-38421000D01*
X68613495Y-38419796D01*
X68589227Y-38416196D01*
X68565428Y-38410235D01*
X68542329Y-38401970D01*
X68520150Y-38391480D01*
X68499107Y-38378868D01*
X68479401Y-38364253D01*
X68461223Y-38347777D01*
X68444747Y-38329599D01*
X68430132Y-38309893D01*
X68417520Y-38288850D01*
X68407030Y-38266671D01*
X68398765Y-38243572D01*
X68392804Y-38219773D01*
X68389204Y-38195505D01*
X68388000Y-38171001D01*
X68388000Y-37520999D01*
X68389204Y-37496495D01*
X68392804Y-37472227D01*
X68398765Y-37448428D01*
X68407030Y-37425329D01*
X68417520Y-37403150D01*
X68430132Y-37382107D01*
X68444747Y-37362401D01*
X68461223Y-37344223D01*
X68479401Y-37327747D01*
X68499107Y-37313132D01*
X68520150Y-37300520D01*
X68542329Y-37290030D01*
X68565428Y-37281765D01*
X68589227Y-37275804D01*
X68613495Y-37272204D01*
X68637999Y-37271000D01*
X69538001Y-37271000D01*
X69562505Y-37272204D01*
X69562505Y-37272204D01*
G37*
D11*
X69088000Y-37846000D03*
D10*
G36*
X69562505Y-39322204D02*
X69586773Y-39325804D01*
X69610572Y-39331765D01*
X69633671Y-39340030D01*
X69655850Y-39350520D01*
X69676893Y-39363132D01*
X69696599Y-39377747D01*
X69714777Y-39394223D01*
X69731253Y-39412401D01*
X69745868Y-39432107D01*
X69758480Y-39453150D01*
X69768970Y-39475329D01*
X69777235Y-39498428D01*
X69783196Y-39522227D01*
X69786796Y-39546495D01*
X69788000Y-39570999D01*
X69788000Y-40221001D01*
X69786796Y-40245505D01*
X69783196Y-40269773D01*
X69777235Y-40293572D01*
X69768970Y-40316671D01*
X69758480Y-40338850D01*
X69745868Y-40359893D01*
X69731253Y-40379599D01*
X69714777Y-40397777D01*
X69696599Y-40414253D01*
X69676893Y-40428868D01*
X69655850Y-40441480D01*
X69633671Y-40451970D01*
X69610572Y-40460235D01*
X69586773Y-40466196D01*
X69562505Y-40469796D01*
X69538001Y-40471000D01*
X68637999Y-40471000D01*
X68613495Y-40469796D01*
X68589227Y-40466196D01*
X68565428Y-40460235D01*
X68542329Y-40451970D01*
X68520150Y-40441480D01*
X68499107Y-40428868D01*
X68479401Y-40414253D01*
X68461223Y-40397777D01*
X68444747Y-40379599D01*
X68430132Y-40359893D01*
X68417520Y-40338850D01*
X68407030Y-40316671D01*
X68398765Y-40293572D01*
X68392804Y-40269773D01*
X68389204Y-40245505D01*
X68388000Y-40221001D01*
X68388000Y-39570999D01*
X68389204Y-39546495D01*
X68392804Y-39522227D01*
X68398765Y-39498428D01*
X68407030Y-39475329D01*
X68417520Y-39453150D01*
X68430132Y-39432107D01*
X68444747Y-39412401D01*
X68461223Y-39394223D01*
X68479401Y-39377747D01*
X68499107Y-39363132D01*
X68520150Y-39350520D01*
X68542329Y-39340030D01*
X68565428Y-39331765D01*
X68589227Y-39325804D01*
X68613495Y-39322204D01*
X68637999Y-39321000D01*
X69538001Y-39321000D01*
X69562505Y-39322204D01*
X69562505Y-39322204D01*
G37*
D11*
X69088000Y-39896000D03*
D10*
G36*
X73626505Y-39313204D02*
X73650773Y-39316804D01*
X73674572Y-39322765D01*
X73697671Y-39331030D01*
X73719850Y-39341520D01*
X73740893Y-39354132D01*
X73760599Y-39368747D01*
X73778777Y-39385223D01*
X73795253Y-39403401D01*
X73809868Y-39423107D01*
X73822480Y-39444150D01*
X73832970Y-39466329D01*
X73841235Y-39489428D01*
X73847196Y-39513227D01*
X73850796Y-39537495D01*
X73852000Y-39561999D01*
X73852000Y-40212001D01*
X73850796Y-40236505D01*
X73847196Y-40260773D01*
X73841235Y-40284572D01*
X73832970Y-40307671D01*
X73822480Y-40329850D01*
X73809868Y-40350893D01*
X73795253Y-40370599D01*
X73778777Y-40388777D01*
X73760599Y-40405253D01*
X73740893Y-40419868D01*
X73719850Y-40432480D01*
X73697671Y-40442970D01*
X73674572Y-40451235D01*
X73650773Y-40457196D01*
X73626505Y-40460796D01*
X73602001Y-40462000D01*
X72701999Y-40462000D01*
X72677495Y-40460796D01*
X72653227Y-40457196D01*
X72629428Y-40451235D01*
X72606329Y-40442970D01*
X72584150Y-40432480D01*
X72563107Y-40419868D01*
X72543401Y-40405253D01*
X72525223Y-40388777D01*
X72508747Y-40370599D01*
X72494132Y-40350893D01*
X72481520Y-40329850D01*
X72471030Y-40307671D01*
X72462765Y-40284572D01*
X72456804Y-40260773D01*
X72453204Y-40236505D01*
X72452000Y-40212001D01*
X72452000Y-39561999D01*
X72453204Y-39537495D01*
X72456804Y-39513227D01*
X72462765Y-39489428D01*
X72471030Y-39466329D01*
X72481520Y-39444150D01*
X72494132Y-39423107D01*
X72508747Y-39403401D01*
X72525223Y-39385223D01*
X72543401Y-39368747D01*
X72563107Y-39354132D01*
X72584150Y-39341520D01*
X72606329Y-39331030D01*
X72629428Y-39322765D01*
X72653227Y-39316804D01*
X72677495Y-39313204D01*
X72701999Y-39312000D01*
X73602001Y-39312000D01*
X73626505Y-39313204D01*
X73626505Y-39313204D01*
G37*
D11*
X73152000Y-39887000D03*
D10*
G36*
X73626505Y-37263204D02*
X73650773Y-37266804D01*
X73674572Y-37272765D01*
X73697671Y-37281030D01*
X73719850Y-37291520D01*
X73740893Y-37304132D01*
X73760599Y-37318747D01*
X73778777Y-37335223D01*
X73795253Y-37353401D01*
X73809868Y-37373107D01*
X73822480Y-37394150D01*
X73832970Y-37416329D01*
X73841235Y-37439428D01*
X73847196Y-37463227D01*
X73850796Y-37487495D01*
X73852000Y-37511999D01*
X73852000Y-38162001D01*
X73850796Y-38186505D01*
X73847196Y-38210773D01*
X73841235Y-38234572D01*
X73832970Y-38257671D01*
X73822480Y-38279850D01*
X73809868Y-38300893D01*
X73795253Y-38320599D01*
X73778777Y-38338777D01*
X73760599Y-38355253D01*
X73740893Y-38369868D01*
X73719850Y-38382480D01*
X73697671Y-38392970D01*
X73674572Y-38401235D01*
X73650773Y-38407196D01*
X73626505Y-38410796D01*
X73602001Y-38412000D01*
X72701999Y-38412000D01*
X72677495Y-38410796D01*
X72653227Y-38407196D01*
X72629428Y-38401235D01*
X72606329Y-38392970D01*
X72584150Y-38382480D01*
X72563107Y-38369868D01*
X72543401Y-38355253D01*
X72525223Y-38338777D01*
X72508747Y-38320599D01*
X72494132Y-38300893D01*
X72481520Y-38279850D01*
X72471030Y-38257671D01*
X72462765Y-38234572D01*
X72456804Y-38210773D01*
X72453204Y-38186505D01*
X72452000Y-38162001D01*
X72452000Y-37511999D01*
X72453204Y-37487495D01*
X72456804Y-37463227D01*
X72462765Y-37439428D01*
X72471030Y-37416329D01*
X72481520Y-37394150D01*
X72494132Y-37373107D01*
X72508747Y-37353401D01*
X72525223Y-37335223D01*
X72543401Y-37318747D01*
X72563107Y-37304132D01*
X72584150Y-37291520D01*
X72606329Y-37281030D01*
X72629428Y-37272765D01*
X72653227Y-37266804D01*
X72677495Y-37263204D01*
X72701999Y-37262000D01*
X73602001Y-37262000D01*
X73626505Y-37263204D01*
X73626505Y-37263204D01*
G37*
D11*
X73152000Y-37837000D03*
D10*
G36*
X85564505Y-31439204D02*
X85588773Y-31442804D01*
X85612572Y-31448765D01*
X85635671Y-31457030D01*
X85657850Y-31467520D01*
X85678893Y-31480132D01*
X85698599Y-31494747D01*
X85716777Y-31511223D01*
X85733253Y-31529401D01*
X85747868Y-31549107D01*
X85760480Y-31570150D01*
X85770970Y-31592329D01*
X85779235Y-31615428D01*
X85785196Y-31639227D01*
X85788796Y-31663495D01*
X85790000Y-31687999D01*
X85790000Y-32338001D01*
X85788796Y-32362505D01*
X85785196Y-32386773D01*
X85779235Y-32410572D01*
X85770970Y-32433671D01*
X85760480Y-32455850D01*
X85747868Y-32476893D01*
X85733253Y-32496599D01*
X85716777Y-32514777D01*
X85698599Y-32531253D01*
X85678893Y-32545868D01*
X85657850Y-32558480D01*
X85635671Y-32568970D01*
X85612572Y-32577235D01*
X85588773Y-32583196D01*
X85564505Y-32586796D01*
X85540001Y-32588000D01*
X84639999Y-32588000D01*
X84615495Y-32586796D01*
X84591227Y-32583196D01*
X84567428Y-32577235D01*
X84544329Y-32568970D01*
X84522150Y-32558480D01*
X84501107Y-32545868D01*
X84481401Y-32531253D01*
X84463223Y-32514777D01*
X84446747Y-32496599D01*
X84432132Y-32476893D01*
X84419520Y-32455850D01*
X84409030Y-32433671D01*
X84400765Y-32410572D01*
X84394804Y-32386773D01*
X84391204Y-32362505D01*
X84390000Y-32338001D01*
X84390000Y-31687999D01*
X84391204Y-31663495D01*
X84394804Y-31639227D01*
X84400765Y-31615428D01*
X84409030Y-31592329D01*
X84419520Y-31570150D01*
X84432132Y-31549107D01*
X84446747Y-31529401D01*
X84463223Y-31511223D01*
X84481401Y-31494747D01*
X84501107Y-31480132D01*
X84522150Y-31467520D01*
X84544329Y-31457030D01*
X84567428Y-31448765D01*
X84591227Y-31442804D01*
X84615495Y-31439204D01*
X84639999Y-31438000D01*
X85540001Y-31438000D01*
X85564505Y-31439204D01*
X85564505Y-31439204D01*
G37*
D11*
X85090000Y-32013000D03*
D10*
G36*
X85564505Y-29389204D02*
X85588773Y-29392804D01*
X85612572Y-29398765D01*
X85635671Y-29407030D01*
X85657850Y-29417520D01*
X85678893Y-29430132D01*
X85698599Y-29444747D01*
X85716777Y-29461223D01*
X85733253Y-29479401D01*
X85747868Y-29499107D01*
X85760480Y-29520150D01*
X85770970Y-29542329D01*
X85779235Y-29565428D01*
X85785196Y-29589227D01*
X85788796Y-29613495D01*
X85790000Y-29637999D01*
X85790000Y-30288001D01*
X85788796Y-30312505D01*
X85785196Y-30336773D01*
X85779235Y-30360572D01*
X85770970Y-30383671D01*
X85760480Y-30405850D01*
X85747868Y-30426893D01*
X85733253Y-30446599D01*
X85716777Y-30464777D01*
X85698599Y-30481253D01*
X85678893Y-30495868D01*
X85657850Y-30508480D01*
X85635671Y-30518970D01*
X85612572Y-30527235D01*
X85588773Y-30533196D01*
X85564505Y-30536796D01*
X85540001Y-30538000D01*
X84639999Y-30538000D01*
X84615495Y-30536796D01*
X84591227Y-30533196D01*
X84567428Y-30527235D01*
X84544329Y-30518970D01*
X84522150Y-30508480D01*
X84501107Y-30495868D01*
X84481401Y-30481253D01*
X84463223Y-30464777D01*
X84446747Y-30446599D01*
X84432132Y-30426893D01*
X84419520Y-30405850D01*
X84409030Y-30383671D01*
X84400765Y-30360572D01*
X84394804Y-30336773D01*
X84391204Y-30312505D01*
X84390000Y-30288001D01*
X84390000Y-29637999D01*
X84391204Y-29613495D01*
X84394804Y-29589227D01*
X84400765Y-29565428D01*
X84409030Y-29542329D01*
X84419520Y-29520150D01*
X84432132Y-29499107D01*
X84446747Y-29479401D01*
X84463223Y-29461223D01*
X84481401Y-29444747D01*
X84501107Y-29430132D01*
X84522150Y-29417520D01*
X84544329Y-29407030D01*
X84567428Y-29398765D01*
X84591227Y-29392804D01*
X84615495Y-29389204D01*
X84639999Y-29388000D01*
X85540001Y-29388000D01*
X85564505Y-29389204D01*
X85564505Y-29389204D01*
G37*
D11*
X85090000Y-29963000D03*
D10*
G36*
X53671505Y-62293204D02*
X53695773Y-62296804D01*
X53719572Y-62302765D01*
X53742671Y-62311030D01*
X53764850Y-62321520D01*
X53785893Y-62334132D01*
X53805599Y-62348747D01*
X53823777Y-62365223D01*
X53840253Y-62383401D01*
X53854868Y-62403107D01*
X53867480Y-62424150D01*
X53877970Y-62446329D01*
X53886235Y-62469428D01*
X53892196Y-62493227D01*
X53895796Y-62517495D01*
X53897000Y-62541999D01*
X53897000Y-63442001D01*
X53895796Y-63466505D01*
X53892196Y-63490773D01*
X53886235Y-63514572D01*
X53877970Y-63537671D01*
X53867480Y-63559850D01*
X53854868Y-63580893D01*
X53840253Y-63600599D01*
X53823777Y-63618777D01*
X53805599Y-63635253D01*
X53785893Y-63649868D01*
X53764850Y-63662480D01*
X53742671Y-63672970D01*
X53719572Y-63681235D01*
X53695773Y-63687196D01*
X53671505Y-63690796D01*
X53647001Y-63692000D01*
X52996999Y-63692000D01*
X52972495Y-63690796D01*
X52948227Y-63687196D01*
X52924428Y-63681235D01*
X52901329Y-63672970D01*
X52879150Y-63662480D01*
X52858107Y-63649868D01*
X52838401Y-63635253D01*
X52820223Y-63618777D01*
X52803747Y-63600599D01*
X52789132Y-63580893D01*
X52776520Y-63559850D01*
X52766030Y-63537671D01*
X52757765Y-63514572D01*
X52751804Y-63490773D01*
X52748204Y-63466505D01*
X52747000Y-63442001D01*
X52747000Y-62541999D01*
X52748204Y-62517495D01*
X52751804Y-62493227D01*
X52757765Y-62469428D01*
X52766030Y-62446329D01*
X52776520Y-62424150D01*
X52789132Y-62403107D01*
X52803747Y-62383401D01*
X52820223Y-62365223D01*
X52838401Y-62348747D01*
X52858107Y-62334132D01*
X52879150Y-62321520D01*
X52901329Y-62311030D01*
X52924428Y-62302765D01*
X52948227Y-62296804D01*
X52972495Y-62293204D01*
X52996999Y-62292000D01*
X53647001Y-62292000D01*
X53671505Y-62293204D01*
X53671505Y-62293204D01*
G37*
D11*
X53322000Y-62992000D03*
D10*
G36*
X55721505Y-62293204D02*
X55745773Y-62296804D01*
X55769572Y-62302765D01*
X55792671Y-62311030D01*
X55814850Y-62321520D01*
X55835893Y-62334132D01*
X55855599Y-62348747D01*
X55873777Y-62365223D01*
X55890253Y-62383401D01*
X55904868Y-62403107D01*
X55917480Y-62424150D01*
X55927970Y-62446329D01*
X55936235Y-62469428D01*
X55942196Y-62493227D01*
X55945796Y-62517495D01*
X55947000Y-62541999D01*
X55947000Y-63442001D01*
X55945796Y-63466505D01*
X55942196Y-63490773D01*
X55936235Y-63514572D01*
X55927970Y-63537671D01*
X55917480Y-63559850D01*
X55904868Y-63580893D01*
X55890253Y-63600599D01*
X55873777Y-63618777D01*
X55855599Y-63635253D01*
X55835893Y-63649868D01*
X55814850Y-63662480D01*
X55792671Y-63672970D01*
X55769572Y-63681235D01*
X55745773Y-63687196D01*
X55721505Y-63690796D01*
X55697001Y-63692000D01*
X55046999Y-63692000D01*
X55022495Y-63690796D01*
X54998227Y-63687196D01*
X54974428Y-63681235D01*
X54951329Y-63672970D01*
X54929150Y-63662480D01*
X54908107Y-63649868D01*
X54888401Y-63635253D01*
X54870223Y-63618777D01*
X54853747Y-63600599D01*
X54839132Y-63580893D01*
X54826520Y-63559850D01*
X54816030Y-63537671D01*
X54807765Y-63514572D01*
X54801804Y-63490773D01*
X54798204Y-63466505D01*
X54797000Y-63442001D01*
X54797000Y-62541999D01*
X54798204Y-62517495D01*
X54801804Y-62493227D01*
X54807765Y-62469428D01*
X54816030Y-62446329D01*
X54826520Y-62424150D01*
X54839132Y-62403107D01*
X54853747Y-62383401D01*
X54870223Y-62365223D01*
X54888401Y-62348747D01*
X54908107Y-62334132D01*
X54929150Y-62321520D01*
X54951329Y-62311030D01*
X54974428Y-62302765D01*
X54998227Y-62296804D01*
X55022495Y-62293204D01*
X55046999Y-62292000D01*
X55697001Y-62292000D01*
X55721505Y-62293204D01*
X55721505Y-62293204D01*
G37*
D11*
X55372000Y-62992000D03*
D10*
G36*
X50405505Y-62293204D02*
X50429773Y-62296804D01*
X50453572Y-62302765D01*
X50476671Y-62311030D01*
X50498850Y-62321520D01*
X50519893Y-62334132D01*
X50539599Y-62348747D01*
X50557777Y-62365223D01*
X50574253Y-62383401D01*
X50588868Y-62403107D01*
X50601480Y-62424150D01*
X50611970Y-62446329D01*
X50620235Y-62469428D01*
X50626196Y-62493227D01*
X50629796Y-62517495D01*
X50631000Y-62541999D01*
X50631000Y-63442001D01*
X50629796Y-63466505D01*
X50626196Y-63490773D01*
X50620235Y-63514572D01*
X50611970Y-63537671D01*
X50601480Y-63559850D01*
X50588868Y-63580893D01*
X50574253Y-63600599D01*
X50557777Y-63618777D01*
X50539599Y-63635253D01*
X50519893Y-63649868D01*
X50498850Y-63662480D01*
X50476671Y-63672970D01*
X50453572Y-63681235D01*
X50429773Y-63687196D01*
X50405505Y-63690796D01*
X50381001Y-63692000D01*
X49730999Y-63692000D01*
X49706495Y-63690796D01*
X49682227Y-63687196D01*
X49658428Y-63681235D01*
X49635329Y-63672970D01*
X49613150Y-63662480D01*
X49592107Y-63649868D01*
X49572401Y-63635253D01*
X49554223Y-63618777D01*
X49537747Y-63600599D01*
X49523132Y-63580893D01*
X49510520Y-63559850D01*
X49500030Y-63537671D01*
X49491765Y-63514572D01*
X49485804Y-63490773D01*
X49482204Y-63466505D01*
X49481000Y-63442001D01*
X49481000Y-62541999D01*
X49482204Y-62517495D01*
X49485804Y-62493227D01*
X49491765Y-62469428D01*
X49500030Y-62446329D01*
X49510520Y-62424150D01*
X49523132Y-62403107D01*
X49537747Y-62383401D01*
X49554223Y-62365223D01*
X49572401Y-62348747D01*
X49592107Y-62334132D01*
X49613150Y-62321520D01*
X49635329Y-62311030D01*
X49658428Y-62302765D01*
X49682227Y-62296804D01*
X49706495Y-62293204D01*
X49730999Y-62292000D01*
X50381001Y-62292000D01*
X50405505Y-62293204D01*
X50405505Y-62293204D01*
G37*
D11*
X50056000Y-62992000D03*
D10*
G36*
X48355505Y-62293204D02*
X48379773Y-62296804D01*
X48403572Y-62302765D01*
X48426671Y-62311030D01*
X48448850Y-62321520D01*
X48469893Y-62334132D01*
X48489599Y-62348747D01*
X48507777Y-62365223D01*
X48524253Y-62383401D01*
X48538868Y-62403107D01*
X48551480Y-62424150D01*
X48561970Y-62446329D01*
X48570235Y-62469428D01*
X48576196Y-62493227D01*
X48579796Y-62517495D01*
X48581000Y-62541999D01*
X48581000Y-63442001D01*
X48579796Y-63466505D01*
X48576196Y-63490773D01*
X48570235Y-63514572D01*
X48561970Y-63537671D01*
X48551480Y-63559850D01*
X48538868Y-63580893D01*
X48524253Y-63600599D01*
X48507777Y-63618777D01*
X48489599Y-63635253D01*
X48469893Y-63649868D01*
X48448850Y-63662480D01*
X48426671Y-63672970D01*
X48403572Y-63681235D01*
X48379773Y-63687196D01*
X48355505Y-63690796D01*
X48331001Y-63692000D01*
X47680999Y-63692000D01*
X47656495Y-63690796D01*
X47632227Y-63687196D01*
X47608428Y-63681235D01*
X47585329Y-63672970D01*
X47563150Y-63662480D01*
X47542107Y-63649868D01*
X47522401Y-63635253D01*
X47504223Y-63618777D01*
X47487747Y-63600599D01*
X47473132Y-63580893D01*
X47460520Y-63559850D01*
X47450030Y-63537671D01*
X47441765Y-63514572D01*
X47435804Y-63490773D01*
X47432204Y-63466505D01*
X47431000Y-63442001D01*
X47431000Y-62541999D01*
X47432204Y-62517495D01*
X47435804Y-62493227D01*
X47441765Y-62469428D01*
X47450030Y-62446329D01*
X47460520Y-62424150D01*
X47473132Y-62403107D01*
X47487747Y-62383401D01*
X47504223Y-62365223D01*
X47522401Y-62348747D01*
X47542107Y-62334132D01*
X47563150Y-62321520D01*
X47585329Y-62311030D01*
X47608428Y-62302765D01*
X47632227Y-62296804D01*
X47656495Y-62293204D01*
X47680999Y-62292000D01*
X48331001Y-62292000D01*
X48355505Y-62293204D01*
X48355505Y-62293204D01*
G37*
D11*
X48006000Y-62992000D03*
M02*
