M48
;DRILL file {KiCad 5.0.1} date Mon 04 Feb 2019 05:12:47 PM CST
;FORMAT={-:-/ absolute / inch / decimal}
FMAT,2
INCH,TZ
T1C0.0157
T2C0.0394
T3C0.0472
T4C0.0969
%
G90
G05
M72
T1
X1.25Y-1.78
X1.5Y-1.84
X1.52Y-1.749
X1.6Y-1.48
X1.62Y-1.63
X1.64Y-1.71
X1.66Y-1.45
X1.71Y-1.68
X1.72Y-1.7785
X1.7263Y-1.4163
X1.76Y-2.08
X1.84Y-2.14
X1.87Y-1.81
X1.8996Y-1.2904
X1.92Y-1.808
X1.92Y-1.9025
X2.0518Y-2.2318
X2.07Y-2.02
X2.19Y-1.78
X2.2Y-2.2
X2.22Y-2.4
X2.24Y-2.28
X2.25Y-1.78
X2.25Y-2.2
X2.28Y-1.5
X2.34Y-1.936
X2.44Y-2.17
X2.44Y-2.29
X2.5Y-2.16
X2.64Y-1.75
X2.72Y-1.63
X3.01Y-1.97
X3.14Y-1.84
T2
X3.275Y-2.375
X3.375Y-2.375
X3.475Y-2.375
X3.575Y-2.375
X1.2Y-2.3
X1.3Y-2.3
X1.4Y-2.3
X1.5Y-2.3
X1.6Y-2.3
X1.7Y-2.3
X3.14Y-1.33
X3.14Y-1.43
X3.14Y-1.53
X3.24Y-1.33
X3.24Y-1.43
X3.24Y-1.53
T3
X1.8Y-2.66
X1.9Y-2.66
X2.05Y-2.66
X2.15Y-2.66
X2.88Y-1.39
X2.98Y-1.39
X2.88Y-1.11
X2.98Y-1.11
X2.62Y-1.39
X2.72Y-1.39
X3.14Y-1.11
X3.24Y-1.11
X2.62Y-1.11
X2.72Y-1.11
X1.77Y-0.98
X1.87Y-0.98
X1.97Y-0.98
X2.07Y-0.98
T4
X3.5Y-1.
X1.1Y-2.6
X2.4Y-1.
X3.5Y-2.6
T0
M30
