%TF.GenerationSoftware,KiCad,Pcbnew,5.0.1*%
%TF.CreationDate,2019-02-04T17:12:45-06:00*%
%TF.ProjectId,RDP-Environmental,5244502D456E7669726F6E6D656E7461,01*%
%TF.SameCoordinates,Original*%
%TF.FileFunction,Copper,L1,Top,Signal*%
%TF.FilePolarity,Positive*%
%FSLAX46Y46*%
G04 Gerber Fmt 4.6, Leading zero omitted, Abs format (unit mm)*
G04 Created by KiCad (PCBNEW 5.0.1) date Mon 04 Feb 2019 05:12:45 PM CST*
%MOMM*%
%LPD*%
G01*
G04 APERTURE LIST*
%ADD10C,0.100000*%
%ADD11C,1.150000*%
%ADD12C,0.875000*%
%ADD13R,1.700000X1.700000*%
%ADD14O,1.700000X1.700000*%
%ADD15O,1.740000X2.200000*%
%ADD16C,1.740000*%
%ADD17R,1.310000X0.530000*%
%ADD18R,0.550000X1.500000*%
%ADD19R,1.500000X0.550000*%
%ADD20R,1.500000X0.700000*%
%ADD21R,1.500000X1.000000*%
%ADD22R,0.700000X1.500000*%
%ADD23C,4.000000*%
%ADD24C,0.800000*%
%ADD25C,0.300000*%
%ADD26C,0.500000*%
%ADD27C,0.254000*%
G04 APERTURE END LIST*
D10*
G36*
X65498505Y-48956204D02*
X65522773Y-48959804D01*
X65546572Y-48965765D01*
X65569671Y-48974030D01*
X65591850Y-48984520D01*
X65612893Y-48997132D01*
X65632599Y-49011747D01*
X65650777Y-49028223D01*
X65667253Y-49046401D01*
X65681868Y-49066107D01*
X65694480Y-49087150D01*
X65704970Y-49109329D01*
X65713235Y-49132428D01*
X65719196Y-49156227D01*
X65722796Y-49180495D01*
X65724000Y-49204999D01*
X65724000Y-49855001D01*
X65722796Y-49879505D01*
X65719196Y-49903773D01*
X65713235Y-49927572D01*
X65704970Y-49950671D01*
X65694480Y-49972850D01*
X65681868Y-49993893D01*
X65667253Y-50013599D01*
X65650777Y-50031777D01*
X65632599Y-50048253D01*
X65612893Y-50062868D01*
X65591850Y-50075480D01*
X65569671Y-50085970D01*
X65546572Y-50094235D01*
X65522773Y-50100196D01*
X65498505Y-50103796D01*
X65474001Y-50105000D01*
X64573999Y-50105000D01*
X64549495Y-50103796D01*
X64525227Y-50100196D01*
X64501428Y-50094235D01*
X64478329Y-50085970D01*
X64456150Y-50075480D01*
X64435107Y-50062868D01*
X64415401Y-50048253D01*
X64397223Y-50031777D01*
X64380747Y-50013599D01*
X64366132Y-49993893D01*
X64353520Y-49972850D01*
X64343030Y-49950671D01*
X64334765Y-49927572D01*
X64328804Y-49903773D01*
X64325204Y-49879505D01*
X64324000Y-49855001D01*
X64324000Y-49204999D01*
X64325204Y-49180495D01*
X64328804Y-49156227D01*
X64334765Y-49132428D01*
X64343030Y-49109329D01*
X64353520Y-49087150D01*
X64366132Y-49066107D01*
X64380747Y-49046401D01*
X64397223Y-49028223D01*
X64415401Y-49011747D01*
X64435107Y-48997132D01*
X64456150Y-48984520D01*
X64478329Y-48974030D01*
X64501428Y-48965765D01*
X64525227Y-48959804D01*
X64549495Y-48956204D01*
X64573999Y-48955000D01*
X65474001Y-48955000D01*
X65498505Y-48956204D01*
X65498505Y-48956204D01*
G37*
D11*
X65024000Y-49530000D03*
D10*
G36*
X65498505Y-51006204D02*
X65522773Y-51009804D01*
X65546572Y-51015765D01*
X65569671Y-51024030D01*
X65591850Y-51034520D01*
X65612893Y-51047132D01*
X65632599Y-51061747D01*
X65650777Y-51078223D01*
X65667253Y-51096401D01*
X65681868Y-51116107D01*
X65694480Y-51137150D01*
X65704970Y-51159329D01*
X65713235Y-51182428D01*
X65719196Y-51206227D01*
X65722796Y-51230495D01*
X65724000Y-51254999D01*
X65724000Y-51905001D01*
X65722796Y-51929505D01*
X65719196Y-51953773D01*
X65713235Y-51977572D01*
X65704970Y-52000671D01*
X65694480Y-52022850D01*
X65681868Y-52043893D01*
X65667253Y-52063599D01*
X65650777Y-52081777D01*
X65632599Y-52098253D01*
X65612893Y-52112868D01*
X65591850Y-52125480D01*
X65569671Y-52135970D01*
X65546572Y-52144235D01*
X65522773Y-52150196D01*
X65498505Y-52153796D01*
X65474001Y-52155000D01*
X64573999Y-52155000D01*
X64549495Y-52153796D01*
X64525227Y-52150196D01*
X64501428Y-52144235D01*
X64478329Y-52135970D01*
X64456150Y-52125480D01*
X64435107Y-52112868D01*
X64415401Y-52098253D01*
X64397223Y-52081777D01*
X64380747Y-52063599D01*
X64366132Y-52043893D01*
X64353520Y-52022850D01*
X64343030Y-52000671D01*
X64334765Y-51977572D01*
X64328804Y-51953773D01*
X64325204Y-51929505D01*
X64324000Y-51905001D01*
X64324000Y-51254999D01*
X64325204Y-51230495D01*
X64328804Y-51206227D01*
X64334765Y-51182428D01*
X64343030Y-51159329D01*
X64353520Y-51137150D01*
X64366132Y-51116107D01*
X64380747Y-51096401D01*
X64397223Y-51078223D01*
X64415401Y-51061747D01*
X64435107Y-51047132D01*
X64456150Y-51034520D01*
X64478329Y-51024030D01*
X64501428Y-51015765D01*
X64525227Y-51009804D01*
X64549495Y-51006204D01*
X64573999Y-51005000D01*
X65474001Y-51005000D01*
X65498505Y-51006204D01*
X65498505Y-51006204D01*
G37*
D11*
X65024000Y-51580000D03*
D10*
G36*
X57753505Y-39179204D02*
X57777773Y-39182804D01*
X57801572Y-39188765D01*
X57824671Y-39197030D01*
X57846850Y-39207520D01*
X57867893Y-39220132D01*
X57887599Y-39234747D01*
X57905777Y-39251223D01*
X57922253Y-39269401D01*
X57936868Y-39289107D01*
X57949480Y-39310150D01*
X57959970Y-39332329D01*
X57968235Y-39355428D01*
X57974196Y-39379227D01*
X57977796Y-39403495D01*
X57979000Y-39427999D01*
X57979000Y-40328001D01*
X57977796Y-40352505D01*
X57974196Y-40376773D01*
X57968235Y-40400572D01*
X57959970Y-40423671D01*
X57949480Y-40445850D01*
X57936868Y-40466893D01*
X57922253Y-40486599D01*
X57905777Y-40504777D01*
X57887599Y-40521253D01*
X57867893Y-40535868D01*
X57846850Y-40548480D01*
X57824671Y-40558970D01*
X57801572Y-40567235D01*
X57777773Y-40573196D01*
X57753505Y-40576796D01*
X57729001Y-40578000D01*
X57078999Y-40578000D01*
X57054495Y-40576796D01*
X57030227Y-40573196D01*
X57006428Y-40567235D01*
X56983329Y-40558970D01*
X56961150Y-40548480D01*
X56940107Y-40535868D01*
X56920401Y-40521253D01*
X56902223Y-40504777D01*
X56885747Y-40486599D01*
X56871132Y-40466893D01*
X56858520Y-40445850D01*
X56848030Y-40423671D01*
X56839765Y-40400572D01*
X56833804Y-40376773D01*
X56830204Y-40352505D01*
X56829000Y-40328001D01*
X56829000Y-39427999D01*
X56830204Y-39403495D01*
X56833804Y-39379227D01*
X56839765Y-39355428D01*
X56848030Y-39332329D01*
X56858520Y-39310150D01*
X56871132Y-39289107D01*
X56885747Y-39269401D01*
X56902223Y-39251223D01*
X56920401Y-39234747D01*
X56940107Y-39220132D01*
X56961150Y-39207520D01*
X56983329Y-39197030D01*
X57006428Y-39188765D01*
X57030227Y-39182804D01*
X57054495Y-39179204D01*
X57078999Y-39178000D01*
X57729001Y-39178000D01*
X57753505Y-39179204D01*
X57753505Y-39179204D01*
G37*
D11*
X57404000Y-39878000D03*
D10*
G36*
X55703505Y-39179204D02*
X55727773Y-39182804D01*
X55751572Y-39188765D01*
X55774671Y-39197030D01*
X55796850Y-39207520D01*
X55817893Y-39220132D01*
X55837599Y-39234747D01*
X55855777Y-39251223D01*
X55872253Y-39269401D01*
X55886868Y-39289107D01*
X55899480Y-39310150D01*
X55909970Y-39332329D01*
X55918235Y-39355428D01*
X55924196Y-39379227D01*
X55927796Y-39403495D01*
X55929000Y-39427999D01*
X55929000Y-40328001D01*
X55927796Y-40352505D01*
X55924196Y-40376773D01*
X55918235Y-40400572D01*
X55909970Y-40423671D01*
X55899480Y-40445850D01*
X55886868Y-40466893D01*
X55872253Y-40486599D01*
X55855777Y-40504777D01*
X55837599Y-40521253D01*
X55817893Y-40535868D01*
X55796850Y-40548480D01*
X55774671Y-40558970D01*
X55751572Y-40567235D01*
X55727773Y-40573196D01*
X55703505Y-40576796D01*
X55679001Y-40578000D01*
X55028999Y-40578000D01*
X55004495Y-40576796D01*
X54980227Y-40573196D01*
X54956428Y-40567235D01*
X54933329Y-40558970D01*
X54911150Y-40548480D01*
X54890107Y-40535868D01*
X54870401Y-40521253D01*
X54852223Y-40504777D01*
X54835747Y-40486599D01*
X54821132Y-40466893D01*
X54808520Y-40445850D01*
X54798030Y-40423671D01*
X54789765Y-40400572D01*
X54783804Y-40376773D01*
X54780204Y-40352505D01*
X54779000Y-40328001D01*
X54779000Y-39427999D01*
X54780204Y-39403495D01*
X54783804Y-39379227D01*
X54789765Y-39355428D01*
X54798030Y-39332329D01*
X54808520Y-39310150D01*
X54821132Y-39289107D01*
X54835747Y-39269401D01*
X54852223Y-39251223D01*
X54870401Y-39234747D01*
X54890107Y-39220132D01*
X54911150Y-39207520D01*
X54933329Y-39197030D01*
X54956428Y-39188765D01*
X54980227Y-39182804D01*
X55004495Y-39179204D01*
X55028999Y-39178000D01*
X55679001Y-39178000D01*
X55703505Y-39179204D01*
X55703505Y-39179204D01*
G37*
D11*
X55354000Y-39878000D03*
D10*
G36*
X48734505Y-51242204D02*
X48758773Y-51245804D01*
X48782572Y-51251765D01*
X48805671Y-51260030D01*
X48827850Y-51270520D01*
X48848893Y-51283132D01*
X48868599Y-51297747D01*
X48886777Y-51314223D01*
X48903253Y-51332401D01*
X48917868Y-51352107D01*
X48930480Y-51373150D01*
X48940970Y-51395329D01*
X48949235Y-51418428D01*
X48955196Y-51442227D01*
X48958796Y-51466495D01*
X48960000Y-51490999D01*
X48960000Y-52141001D01*
X48958796Y-52165505D01*
X48955196Y-52189773D01*
X48949235Y-52213572D01*
X48940970Y-52236671D01*
X48930480Y-52258850D01*
X48917868Y-52279893D01*
X48903253Y-52299599D01*
X48886777Y-52317777D01*
X48868599Y-52334253D01*
X48848893Y-52348868D01*
X48827850Y-52361480D01*
X48805671Y-52371970D01*
X48782572Y-52380235D01*
X48758773Y-52386196D01*
X48734505Y-52389796D01*
X48710001Y-52391000D01*
X47809999Y-52391000D01*
X47785495Y-52389796D01*
X47761227Y-52386196D01*
X47737428Y-52380235D01*
X47714329Y-52371970D01*
X47692150Y-52361480D01*
X47671107Y-52348868D01*
X47651401Y-52334253D01*
X47633223Y-52317777D01*
X47616747Y-52299599D01*
X47602132Y-52279893D01*
X47589520Y-52258850D01*
X47579030Y-52236671D01*
X47570765Y-52213572D01*
X47564804Y-52189773D01*
X47561204Y-52165505D01*
X47560000Y-52141001D01*
X47560000Y-51490999D01*
X47561204Y-51466495D01*
X47564804Y-51442227D01*
X47570765Y-51418428D01*
X47579030Y-51395329D01*
X47589520Y-51373150D01*
X47602132Y-51352107D01*
X47616747Y-51332401D01*
X47633223Y-51314223D01*
X47651401Y-51297747D01*
X47671107Y-51283132D01*
X47692150Y-51270520D01*
X47714329Y-51260030D01*
X47737428Y-51251765D01*
X47761227Y-51245804D01*
X47785495Y-51242204D01*
X47809999Y-51241000D01*
X48710001Y-51241000D01*
X48734505Y-51242204D01*
X48734505Y-51242204D01*
G37*
D11*
X48260000Y-51816000D03*
D10*
G36*
X48734505Y-53292204D02*
X48758773Y-53295804D01*
X48782572Y-53301765D01*
X48805671Y-53310030D01*
X48827850Y-53320520D01*
X48848893Y-53333132D01*
X48868599Y-53347747D01*
X48886777Y-53364223D01*
X48903253Y-53382401D01*
X48917868Y-53402107D01*
X48930480Y-53423150D01*
X48940970Y-53445329D01*
X48949235Y-53468428D01*
X48955196Y-53492227D01*
X48958796Y-53516495D01*
X48960000Y-53540999D01*
X48960000Y-54191001D01*
X48958796Y-54215505D01*
X48955196Y-54239773D01*
X48949235Y-54263572D01*
X48940970Y-54286671D01*
X48930480Y-54308850D01*
X48917868Y-54329893D01*
X48903253Y-54349599D01*
X48886777Y-54367777D01*
X48868599Y-54384253D01*
X48848893Y-54398868D01*
X48827850Y-54411480D01*
X48805671Y-54421970D01*
X48782572Y-54430235D01*
X48758773Y-54436196D01*
X48734505Y-54439796D01*
X48710001Y-54441000D01*
X47809999Y-54441000D01*
X47785495Y-54439796D01*
X47761227Y-54436196D01*
X47737428Y-54430235D01*
X47714329Y-54421970D01*
X47692150Y-54411480D01*
X47671107Y-54398868D01*
X47651401Y-54384253D01*
X47633223Y-54367777D01*
X47616747Y-54349599D01*
X47602132Y-54329893D01*
X47589520Y-54308850D01*
X47579030Y-54286671D01*
X47570765Y-54263572D01*
X47564804Y-54239773D01*
X47561204Y-54215505D01*
X47560000Y-54191001D01*
X47560000Y-53540999D01*
X47561204Y-53516495D01*
X47564804Y-53492227D01*
X47570765Y-53468428D01*
X47579030Y-53445329D01*
X47589520Y-53423150D01*
X47602132Y-53402107D01*
X47616747Y-53382401D01*
X47633223Y-53364223D01*
X47651401Y-53347747D01*
X47671107Y-53333132D01*
X47692150Y-53320520D01*
X47714329Y-53310030D01*
X47737428Y-53301765D01*
X47761227Y-53295804D01*
X47785495Y-53292204D01*
X47809999Y-53291000D01*
X48710001Y-53291000D01*
X48734505Y-53292204D01*
X48734505Y-53292204D01*
G37*
D11*
X48260000Y-53866000D03*
D10*
G36*
X69562505Y-48212204D02*
X69586773Y-48215804D01*
X69610572Y-48221765D01*
X69633671Y-48230030D01*
X69655850Y-48240520D01*
X69676893Y-48253132D01*
X69696599Y-48267747D01*
X69714777Y-48284223D01*
X69731253Y-48302401D01*
X69745868Y-48322107D01*
X69758480Y-48343150D01*
X69768970Y-48365329D01*
X69777235Y-48388428D01*
X69783196Y-48412227D01*
X69786796Y-48436495D01*
X69788000Y-48460999D01*
X69788000Y-49111001D01*
X69786796Y-49135505D01*
X69783196Y-49159773D01*
X69777235Y-49183572D01*
X69768970Y-49206671D01*
X69758480Y-49228850D01*
X69745868Y-49249893D01*
X69731253Y-49269599D01*
X69714777Y-49287777D01*
X69696599Y-49304253D01*
X69676893Y-49318868D01*
X69655850Y-49331480D01*
X69633671Y-49341970D01*
X69610572Y-49350235D01*
X69586773Y-49356196D01*
X69562505Y-49359796D01*
X69538001Y-49361000D01*
X68637999Y-49361000D01*
X68613495Y-49359796D01*
X68589227Y-49356196D01*
X68565428Y-49350235D01*
X68542329Y-49341970D01*
X68520150Y-49331480D01*
X68499107Y-49318868D01*
X68479401Y-49304253D01*
X68461223Y-49287777D01*
X68444747Y-49269599D01*
X68430132Y-49249893D01*
X68417520Y-49228850D01*
X68407030Y-49206671D01*
X68398765Y-49183572D01*
X68392804Y-49159773D01*
X68389204Y-49135505D01*
X68388000Y-49111001D01*
X68388000Y-48460999D01*
X68389204Y-48436495D01*
X68392804Y-48412227D01*
X68398765Y-48388428D01*
X68407030Y-48365329D01*
X68417520Y-48343150D01*
X68430132Y-48322107D01*
X68444747Y-48302401D01*
X68461223Y-48284223D01*
X68479401Y-48267747D01*
X68499107Y-48253132D01*
X68520150Y-48240520D01*
X68542329Y-48230030D01*
X68565428Y-48221765D01*
X68589227Y-48215804D01*
X68613495Y-48212204D01*
X68637999Y-48211000D01*
X69538001Y-48211000D01*
X69562505Y-48212204D01*
X69562505Y-48212204D01*
G37*
D11*
X69088000Y-48786000D03*
D10*
G36*
X69562505Y-46162204D02*
X69586773Y-46165804D01*
X69610572Y-46171765D01*
X69633671Y-46180030D01*
X69655850Y-46190520D01*
X69676893Y-46203132D01*
X69696599Y-46217747D01*
X69714777Y-46234223D01*
X69731253Y-46252401D01*
X69745868Y-46272107D01*
X69758480Y-46293150D01*
X69768970Y-46315329D01*
X69777235Y-46338428D01*
X69783196Y-46362227D01*
X69786796Y-46386495D01*
X69788000Y-46410999D01*
X69788000Y-47061001D01*
X69786796Y-47085505D01*
X69783196Y-47109773D01*
X69777235Y-47133572D01*
X69768970Y-47156671D01*
X69758480Y-47178850D01*
X69745868Y-47199893D01*
X69731253Y-47219599D01*
X69714777Y-47237777D01*
X69696599Y-47254253D01*
X69676893Y-47268868D01*
X69655850Y-47281480D01*
X69633671Y-47291970D01*
X69610572Y-47300235D01*
X69586773Y-47306196D01*
X69562505Y-47309796D01*
X69538001Y-47311000D01*
X68637999Y-47311000D01*
X68613495Y-47309796D01*
X68589227Y-47306196D01*
X68565428Y-47300235D01*
X68542329Y-47291970D01*
X68520150Y-47281480D01*
X68499107Y-47268868D01*
X68479401Y-47254253D01*
X68461223Y-47237777D01*
X68444747Y-47219599D01*
X68430132Y-47199893D01*
X68417520Y-47178850D01*
X68407030Y-47156671D01*
X68398765Y-47133572D01*
X68392804Y-47109773D01*
X68389204Y-47085505D01*
X68388000Y-47061001D01*
X68388000Y-46410999D01*
X68389204Y-46386495D01*
X68392804Y-46362227D01*
X68398765Y-46338428D01*
X68407030Y-46315329D01*
X68417520Y-46293150D01*
X68430132Y-46272107D01*
X68444747Y-46252401D01*
X68461223Y-46234223D01*
X68479401Y-46217747D01*
X68499107Y-46203132D01*
X68520150Y-46190520D01*
X68542329Y-46180030D01*
X68565428Y-46171765D01*
X68589227Y-46165804D01*
X68613495Y-46162204D01*
X68637999Y-46161000D01*
X69538001Y-46161000D01*
X69562505Y-46162204D01*
X69562505Y-46162204D01*
G37*
D11*
X69088000Y-46736000D03*
D10*
G36*
X59148505Y-56068204D02*
X59172773Y-56071804D01*
X59196572Y-56077765D01*
X59219671Y-56086030D01*
X59241850Y-56096520D01*
X59262893Y-56109132D01*
X59282599Y-56123747D01*
X59300777Y-56140223D01*
X59317253Y-56158401D01*
X59331868Y-56178107D01*
X59344480Y-56199150D01*
X59354970Y-56221329D01*
X59363235Y-56244428D01*
X59369196Y-56268227D01*
X59372796Y-56292495D01*
X59374000Y-56316999D01*
X59374000Y-56967001D01*
X59372796Y-56991505D01*
X59369196Y-57015773D01*
X59363235Y-57039572D01*
X59354970Y-57062671D01*
X59344480Y-57084850D01*
X59331868Y-57105893D01*
X59317253Y-57125599D01*
X59300777Y-57143777D01*
X59282599Y-57160253D01*
X59262893Y-57174868D01*
X59241850Y-57187480D01*
X59219671Y-57197970D01*
X59196572Y-57206235D01*
X59172773Y-57212196D01*
X59148505Y-57215796D01*
X59124001Y-57217000D01*
X58223999Y-57217000D01*
X58199495Y-57215796D01*
X58175227Y-57212196D01*
X58151428Y-57206235D01*
X58128329Y-57197970D01*
X58106150Y-57187480D01*
X58085107Y-57174868D01*
X58065401Y-57160253D01*
X58047223Y-57143777D01*
X58030747Y-57125599D01*
X58016132Y-57105893D01*
X58003520Y-57084850D01*
X57993030Y-57062671D01*
X57984765Y-57039572D01*
X57978804Y-57015773D01*
X57975204Y-56991505D01*
X57974000Y-56967001D01*
X57974000Y-56316999D01*
X57975204Y-56292495D01*
X57978804Y-56268227D01*
X57984765Y-56244428D01*
X57993030Y-56221329D01*
X58003520Y-56199150D01*
X58016132Y-56178107D01*
X58030747Y-56158401D01*
X58047223Y-56140223D01*
X58065401Y-56123747D01*
X58085107Y-56109132D01*
X58106150Y-56096520D01*
X58128329Y-56086030D01*
X58151428Y-56077765D01*
X58175227Y-56071804D01*
X58199495Y-56068204D01*
X58223999Y-56067000D01*
X59124001Y-56067000D01*
X59148505Y-56068204D01*
X59148505Y-56068204D01*
G37*
D11*
X58674000Y-56642000D03*
D10*
G36*
X59148505Y-58118204D02*
X59172773Y-58121804D01*
X59196572Y-58127765D01*
X59219671Y-58136030D01*
X59241850Y-58146520D01*
X59262893Y-58159132D01*
X59282599Y-58173747D01*
X59300777Y-58190223D01*
X59317253Y-58208401D01*
X59331868Y-58228107D01*
X59344480Y-58249150D01*
X59354970Y-58271329D01*
X59363235Y-58294428D01*
X59369196Y-58318227D01*
X59372796Y-58342495D01*
X59374000Y-58366999D01*
X59374000Y-59017001D01*
X59372796Y-59041505D01*
X59369196Y-59065773D01*
X59363235Y-59089572D01*
X59354970Y-59112671D01*
X59344480Y-59134850D01*
X59331868Y-59155893D01*
X59317253Y-59175599D01*
X59300777Y-59193777D01*
X59282599Y-59210253D01*
X59262893Y-59224868D01*
X59241850Y-59237480D01*
X59219671Y-59247970D01*
X59196572Y-59256235D01*
X59172773Y-59262196D01*
X59148505Y-59265796D01*
X59124001Y-59267000D01*
X58223999Y-59267000D01*
X58199495Y-59265796D01*
X58175227Y-59262196D01*
X58151428Y-59256235D01*
X58128329Y-59247970D01*
X58106150Y-59237480D01*
X58085107Y-59224868D01*
X58065401Y-59210253D01*
X58047223Y-59193777D01*
X58030747Y-59175599D01*
X58016132Y-59155893D01*
X58003520Y-59134850D01*
X57993030Y-59112671D01*
X57984765Y-59089572D01*
X57978804Y-59065773D01*
X57975204Y-59041505D01*
X57974000Y-59017001D01*
X57974000Y-58366999D01*
X57975204Y-58342495D01*
X57978804Y-58318227D01*
X57984765Y-58294428D01*
X57993030Y-58271329D01*
X58003520Y-58249150D01*
X58016132Y-58228107D01*
X58030747Y-58208401D01*
X58047223Y-58190223D01*
X58065401Y-58173747D01*
X58085107Y-58159132D01*
X58106150Y-58146520D01*
X58128329Y-58136030D01*
X58151428Y-58127765D01*
X58175227Y-58121804D01*
X58199495Y-58118204D01*
X58223999Y-58117000D01*
X59124001Y-58117000D01*
X59148505Y-58118204D01*
X59148505Y-58118204D01*
G37*
D11*
X58674000Y-58692000D03*
D10*
G36*
X67151505Y-51879204D02*
X67175773Y-51882804D01*
X67199572Y-51888765D01*
X67222671Y-51897030D01*
X67244850Y-51907520D01*
X67265893Y-51920132D01*
X67285599Y-51934747D01*
X67303777Y-51951223D01*
X67320253Y-51969401D01*
X67334868Y-51989107D01*
X67347480Y-52010150D01*
X67357970Y-52032329D01*
X67366235Y-52055428D01*
X67372196Y-52079227D01*
X67375796Y-52103495D01*
X67377000Y-52127999D01*
X67377000Y-53028001D01*
X67375796Y-53052505D01*
X67372196Y-53076773D01*
X67366235Y-53100572D01*
X67357970Y-53123671D01*
X67347480Y-53145850D01*
X67334868Y-53166893D01*
X67320253Y-53186599D01*
X67303777Y-53204777D01*
X67285599Y-53221253D01*
X67265893Y-53235868D01*
X67244850Y-53248480D01*
X67222671Y-53258970D01*
X67199572Y-53267235D01*
X67175773Y-53273196D01*
X67151505Y-53276796D01*
X67127001Y-53278000D01*
X66476999Y-53278000D01*
X66452495Y-53276796D01*
X66428227Y-53273196D01*
X66404428Y-53267235D01*
X66381329Y-53258970D01*
X66359150Y-53248480D01*
X66338107Y-53235868D01*
X66318401Y-53221253D01*
X66300223Y-53204777D01*
X66283747Y-53186599D01*
X66269132Y-53166893D01*
X66256520Y-53145850D01*
X66246030Y-53123671D01*
X66237765Y-53100572D01*
X66231804Y-53076773D01*
X66228204Y-53052505D01*
X66227000Y-53028001D01*
X66227000Y-52127999D01*
X66228204Y-52103495D01*
X66231804Y-52079227D01*
X66237765Y-52055428D01*
X66246030Y-52032329D01*
X66256520Y-52010150D01*
X66269132Y-51989107D01*
X66283747Y-51969401D01*
X66300223Y-51951223D01*
X66318401Y-51934747D01*
X66338107Y-51920132D01*
X66359150Y-51907520D01*
X66381329Y-51897030D01*
X66404428Y-51888765D01*
X66428227Y-51882804D01*
X66452495Y-51879204D01*
X66476999Y-51878000D01*
X67127001Y-51878000D01*
X67151505Y-51879204D01*
X67151505Y-51879204D01*
G37*
D11*
X66802000Y-52578000D03*
D10*
G36*
X69201505Y-51879204D02*
X69225773Y-51882804D01*
X69249572Y-51888765D01*
X69272671Y-51897030D01*
X69294850Y-51907520D01*
X69315893Y-51920132D01*
X69335599Y-51934747D01*
X69353777Y-51951223D01*
X69370253Y-51969401D01*
X69384868Y-51989107D01*
X69397480Y-52010150D01*
X69407970Y-52032329D01*
X69416235Y-52055428D01*
X69422196Y-52079227D01*
X69425796Y-52103495D01*
X69427000Y-52127999D01*
X69427000Y-53028001D01*
X69425796Y-53052505D01*
X69422196Y-53076773D01*
X69416235Y-53100572D01*
X69407970Y-53123671D01*
X69397480Y-53145850D01*
X69384868Y-53166893D01*
X69370253Y-53186599D01*
X69353777Y-53204777D01*
X69335599Y-53221253D01*
X69315893Y-53235868D01*
X69294850Y-53248480D01*
X69272671Y-53258970D01*
X69249572Y-53267235D01*
X69225773Y-53273196D01*
X69201505Y-53276796D01*
X69177001Y-53278000D01*
X68526999Y-53278000D01*
X68502495Y-53276796D01*
X68478227Y-53273196D01*
X68454428Y-53267235D01*
X68431329Y-53258970D01*
X68409150Y-53248480D01*
X68388107Y-53235868D01*
X68368401Y-53221253D01*
X68350223Y-53204777D01*
X68333747Y-53186599D01*
X68319132Y-53166893D01*
X68306520Y-53145850D01*
X68296030Y-53123671D01*
X68287765Y-53100572D01*
X68281804Y-53076773D01*
X68278204Y-53052505D01*
X68277000Y-53028001D01*
X68277000Y-52127999D01*
X68278204Y-52103495D01*
X68281804Y-52079227D01*
X68287765Y-52055428D01*
X68296030Y-52032329D01*
X68306520Y-52010150D01*
X68319132Y-51989107D01*
X68333747Y-51969401D01*
X68350223Y-51951223D01*
X68368401Y-51934747D01*
X68388107Y-51920132D01*
X68409150Y-51907520D01*
X68431329Y-51897030D01*
X68454428Y-51888765D01*
X68478227Y-51882804D01*
X68502495Y-51879204D01*
X68526999Y-51878000D01*
X69177001Y-51878000D01*
X69201505Y-51879204D01*
X69201505Y-51879204D01*
G37*
D11*
X68852000Y-52578000D03*
D10*
G36*
X40860505Y-48212204D02*
X40884773Y-48215804D01*
X40908572Y-48221765D01*
X40931671Y-48230030D01*
X40953850Y-48240520D01*
X40974893Y-48253132D01*
X40994599Y-48267747D01*
X41012777Y-48284223D01*
X41029253Y-48302401D01*
X41043868Y-48322107D01*
X41056480Y-48343150D01*
X41066970Y-48365329D01*
X41075235Y-48388428D01*
X41081196Y-48412227D01*
X41084796Y-48436495D01*
X41086000Y-48460999D01*
X41086000Y-49111001D01*
X41084796Y-49135505D01*
X41081196Y-49159773D01*
X41075235Y-49183572D01*
X41066970Y-49206671D01*
X41056480Y-49228850D01*
X41043868Y-49249893D01*
X41029253Y-49269599D01*
X41012777Y-49287777D01*
X40994599Y-49304253D01*
X40974893Y-49318868D01*
X40953850Y-49331480D01*
X40931671Y-49341970D01*
X40908572Y-49350235D01*
X40884773Y-49356196D01*
X40860505Y-49359796D01*
X40836001Y-49361000D01*
X39935999Y-49361000D01*
X39911495Y-49359796D01*
X39887227Y-49356196D01*
X39863428Y-49350235D01*
X39840329Y-49341970D01*
X39818150Y-49331480D01*
X39797107Y-49318868D01*
X39777401Y-49304253D01*
X39759223Y-49287777D01*
X39742747Y-49269599D01*
X39728132Y-49249893D01*
X39715520Y-49228850D01*
X39705030Y-49206671D01*
X39696765Y-49183572D01*
X39690804Y-49159773D01*
X39687204Y-49135505D01*
X39686000Y-49111001D01*
X39686000Y-48460999D01*
X39687204Y-48436495D01*
X39690804Y-48412227D01*
X39696765Y-48388428D01*
X39705030Y-48365329D01*
X39715520Y-48343150D01*
X39728132Y-48322107D01*
X39742747Y-48302401D01*
X39759223Y-48284223D01*
X39777401Y-48267747D01*
X39797107Y-48253132D01*
X39818150Y-48240520D01*
X39840329Y-48230030D01*
X39863428Y-48221765D01*
X39887227Y-48215804D01*
X39911495Y-48212204D01*
X39935999Y-48211000D01*
X40836001Y-48211000D01*
X40860505Y-48212204D01*
X40860505Y-48212204D01*
G37*
D11*
X40386000Y-48786000D03*
D10*
G36*
X40860505Y-46162204D02*
X40884773Y-46165804D01*
X40908572Y-46171765D01*
X40931671Y-46180030D01*
X40953850Y-46190520D01*
X40974893Y-46203132D01*
X40994599Y-46217747D01*
X41012777Y-46234223D01*
X41029253Y-46252401D01*
X41043868Y-46272107D01*
X41056480Y-46293150D01*
X41066970Y-46315329D01*
X41075235Y-46338428D01*
X41081196Y-46362227D01*
X41084796Y-46386495D01*
X41086000Y-46410999D01*
X41086000Y-47061001D01*
X41084796Y-47085505D01*
X41081196Y-47109773D01*
X41075235Y-47133572D01*
X41066970Y-47156671D01*
X41056480Y-47178850D01*
X41043868Y-47199893D01*
X41029253Y-47219599D01*
X41012777Y-47237777D01*
X40994599Y-47254253D01*
X40974893Y-47268868D01*
X40953850Y-47281480D01*
X40931671Y-47291970D01*
X40908572Y-47300235D01*
X40884773Y-47306196D01*
X40860505Y-47309796D01*
X40836001Y-47311000D01*
X39935999Y-47311000D01*
X39911495Y-47309796D01*
X39887227Y-47306196D01*
X39863428Y-47300235D01*
X39840329Y-47291970D01*
X39818150Y-47281480D01*
X39797107Y-47268868D01*
X39777401Y-47254253D01*
X39759223Y-47237777D01*
X39742747Y-47219599D01*
X39728132Y-47199893D01*
X39715520Y-47178850D01*
X39705030Y-47156671D01*
X39696765Y-47133572D01*
X39690804Y-47109773D01*
X39687204Y-47085505D01*
X39686000Y-47061001D01*
X39686000Y-46410999D01*
X39687204Y-46386495D01*
X39690804Y-46362227D01*
X39696765Y-46338428D01*
X39705030Y-46315329D01*
X39715520Y-46293150D01*
X39728132Y-46272107D01*
X39742747Y-46252401D01*
X39759223Y-46234223D01*
X39777401Y-46217747D01*
X39797107Y-46203132D01*
X39818150Y-46190520D01*
X39840329Y-46180030D01*
X39863428Y-46171765D01*
X39887227Y-46165804D01*
X39911495Y-46162204D01*
X39935999Y-46161000D01*
X40836001Y-46161000D01*
X40860505Y-46162204D01*
X40860505Y-46162204D01*
G37*
D11*
X40386000Y-46736000D03*
D10*
G36*
X30700505Y-46688204D02*
X30724773Y-46691804D01*
X30748572Y-46697765D01*
X30771671Y-46706030D01*
X30793850Y-46716520D01*
X30814893Y-46729132D01*
X30834599Y-46743747D01*
X30852777Y-46760223D01*
X30869253Y-46778401D01*
X30883868Y-46798107D01*
X30896480Y-46819150D01*
X30906970Y-46841329D01*
X30915235Y-46864428D01*
X30921196Y-46888227D01*
X30924796Y-46912495D01*
X30926000Y-46936999D01*
X30926000Y-47587001D01*
X30924796Y-47611505D01*
X30921196Y-47635773D01*
X30915235Y-47659572D01*
X30906970Y-47682671D01*
X30896480Y-47704850D01*
X30883868Y-47725893D01*
X30869253Y-47745599D01*
X30852777Y-47763777D01*
X30834599Y-47780253D01*
X30814893Y-47794868D01*
X30793850Y-47807480D01*
X30771671Y-47817970D01*
X30748572Y-47826235D01*
X30724773Y-47832196D01*
X30700505Y-47835796D01*
X30676001Y-47837000D01*
X29775999Y-47837000D01*
X29751495Y-47835796D01*
X29727227Y-47832196D01*
X29703428Y-47826235D01*
X29680329Y-47817970D01*
X29658150Y-47807480D01*
X29637107Y-47794868D01*
X29617401Y-47780253D01*
X29599223Y-47763777D01*
X29582747Y-47745599D01*
X29568132Y-47725893D01*
X29555520Y-47704850D01*
X29545030Y-47682671D01*
X29536765Y-47659572D01*
X29530804Y-47635773D01*
X29527204Y-47611505D01*
X29526000Y-47587001D01*
X29526000Y-46936999D01*
X29527204Y-46912495D01*
X29530804Y-46888227D01*
X29536765Y-46864428D01*
X29545030Y-46841329D01*
X29555520Y-46819150D01*
X29568132Y-46798107D01*
X29582747Y-46778401D01*
X29599223Y-46760223D01*
X29617401Y-46743747D01*
X29637107Y-46729132D01*
X29658150Y-46716520D01*
X29680329Y-46706030D01*
X29703428Y-46697765D01*
X29727227Y-46691804D01*
X29751495Y-46688204D01*
X29775999Y-46687000D01*
X30676001Y-46687000D01*
X30700505Y-46688204D01*
X30700505Y-46688204D01*
G37*
D11*
X30226000Y-47262000D03*
D10*
G36*
X30700505Y-44638204D02*
X30724773Y-44641804D01*
X30748572Y-44647765D01*
X30771671Y-44656030D01*
X30793850Y-44666520D01*
X30814893Y-44679132D01*
X30834599Y-44693747D01*
X30852777Y-44710223D01*
X30869253Y-44728401D01*
X30883868Y-44748107D01*
X30896480Y-44769150D01*
X30906970Y-44791329D01*
X30915235Y-44814428D01*
X30921196Y-44838227D01*
X30924796Y-44862495D01*
X30926000Y-44886999D01*
X30926000Y-45537001D01*
X30924796Y-45561505D01*
X30921196Y-45585773D01*
X30915235Y-45609572D01*
X30906970Y-45632671D01*
X30896480Y-45654850D01*
X30883868Y-45675893D01*
X30869253Y-45695599D01*
X30852777Y-45713777D01*
X30834599Y-45730253D01*
X30814893Y-45744868D01*
X30793850Y-45757480D01*
X30771671Y-45767970D01*
X30748572Y-45776235D01*
X30724773Y-45782196D01*
X30700505Y-45785796D01*
X30676001Y-45787000D01*
X29775999Y-45787000D01*
X29751495Y-45785796D01*
X29727227Y-45782196D01*
X29703428Y-45776235D01*
X29680329Y-45767970D01*
X29658150Y-45757480D01*
X29637107Y-45744868D01*
X29617401Y-45730253D01*
X29599223Y-45713777D01*
X29582747Y-45695599D01*
X29568132Y-45675893D01*
X29555520Y-45654850D01*
X29545030Y-45632671D01*
X29536765Y-45609572D01*
X29530804Y-45585773D01*
X29527204Y-45561505D01*
X29526000Y-45537001D01*
X29526000Y-44886999D01*
X29527204Y-44862495D01*
X29530804Y-44838227D01*
X29536765Y-44814428D01*
X29545030Y-44791329D01*
X29555520Y-44769150D01*
X29568132Y-44748107D01*
X29582747Y-44728401D01*
X29599223Y-44710223D01*
X29617401Y-44693747D01*
X29637107Y-44679132D01*
X29658150Y-44666520D01*
X29680329Y-44656030D01*
X29703428Y-44647765D01*
X29727227Y-44641804D01*
X29751495Y-44638204D01*
X29775999Y-44637000D01*
X30676001Y-44637000D01*
X30700505Y-44638204D01*
X30700505Y-44638204D01*
G37*
D11*
X30226000Y-45212000D03*
D10*
G36*
X35918505Y-41973204D02*
X35942773Y-41976804D01*
X35966572Y-41982765D01*
X35989671Y-41991030D01*
X36011850Y-42001520D01*
X36032893Y-42014132D01*
X36052599Y-42028747D01*
X36070777Y-42045223D01*
X36087253Y-42063401D01*
X36101868Y-42083107D01*
X36114480Y-42104150D01*
X36124970Y-42126329D01*
X36133235Y-42149428D01*
X36139196Y-42173227D01*
X36142796Y-42197495D01*
X36144000Y-42221999D01*
X36144000Y-43122001D01*
X36142796Y-43146505D01*
X36139196Y-43170773D01*
X36133235Y-43194572D01*
X36124970Y-43217671D01*
X36114480Y-43239850D01*
X36101868Y-43260893D01*
X36087253Y-43280599D01*
X36070777Y-43298777D01*
X36052599Y-43315253D01*
X36032893Y-43329868D01*
X36011850Y-43342480D01*
X35989671Y-43352970D01*
X35966572Y-43361235D01*
X35942773Y-43367196D01*
X35918505Y-43370796D01*
X35894001Y-43372000D01*
X35243999Y-43372000D01*
X35219495Y-43370796D01*
X35195227Y-43367196D01*
X35171428Y-43361235D01*
X35148329Y-43352970D01*
X35126150Y-43342480D01*
X35105107Y-43329868D01*
X35085401Y-43315253D01*
X35067223Y-43298777D01*
X35050747Y-43280599D01*
X35036132Y-43260893D01*
X35023520Y-43239850D01*
X35013030Y-43217671D01*
X35004765Y-43194572D01*
X34998804Y-43170773D01*
X34995204Y-43146505D01*
X34994000Y-43122001D01*
X34994000Y-42221999D01*
X34995204Y-42197495D01*
X34998804Y-42173227D01*
X35004765Y-42149428D01*
X35013030Y-42126329D01*
X35023520Y-42104150D01*
X35036132Y-42083107D01*
X35050747Y-42063401D01*
X35067223Y-42045223D01*
X35085401Y-42028747D01*
X35105107Y-42014132D01*
X35126150Y-42001520D01*
X35148329Y-41991030D01*
X35171428Y-41982765D01*
X35195227Y-41976804D01*
X35219495Y-41973204D01*
X35243999Y-41972000D01*
X35894001Y-41972000D01*
X35918505Y-41973204D01*
X35918505Y-41973204D01*
G37*
D11*
X35569000Y-42672000D03*
D10*
G36*
X33868505Y-41973204D02*
X33892773Y-41976804D01*
X33916572Y-41982765D01*
X33939671Y-41991030D01*
X33961850Y-42001520D01*
X33982893Y-42014132D01*
X34002599Y-42028747D01*
X34020777Y-42045223D01*
X34037253Y-42063401D01*
X34051868Y-42083107D01*
X34064480Y-42104150D01*
X34074970Y-42126329D01*
X34083235Y-42149428D01*
X34089196Y-42173227D01*
X34092796Y-42197495D01*
X34094000Y-42221999D01*
X34094000Y-43122001D01*
X34092796Y-43146505D01*
X34089196Y-43170773D01*
X34083235Y-43194572D01*
X34074970Y-43217671D01*
X34064480Y-43239850D01*
X34051868Y-43260893D01*
X34037253Y-43280599D01*
X34020777Y-43298777D01*
X34002599Y-43315253D01*
X33982893Y-43329868D01*
X33961850Y-43342480D01*
X33939671Y-43352970D01*
X33916572Y-43361235D01*
X33892773Y-43367196D01*
X33868505Y-43370796D01*
X33844001Y-43372000D01*
X33193999Y-43372000D01*
X33169495Y-43370796D01*
X33145227Y-43367196D01*
X33121428Y-43361235D01*
X33098329Y-43352970D01*
X33076150Y-43342480D01*
X33055107Y-43329868D01*
X33035401Y-43315253D01*
X33017223Y-43298777D01*
X33000747Y-43280599D01*
X32986132Y-43260893D01*
X32973520Y-43239850D01*
X32963030Y-43217671D01*
X32954765Y-43194572D01*
X32948804Y-43170773D01*
X32945204Y-43146505D01*
X32944000Y-43122001D01*
X32944000Y-42221999D01*
X32945204Y-42197495D01*
X32948804Y-42173227D01*
X32954765Y-42149428D01*
X32963030Y-42126329D01*
X32973520Y-42104150D01*
X32986132Y-42083107D01*
X33000747Y-42063401D01*
X33017223Y-42045223D01*
X33035401Y-42028747D01*
X33055107Y-42014132D01*
X33076150Y-42001520D01*
X33098329Y-41991030D01*
X33121428Y-41982765D01*
X33145227Y-41976804D01*
X33169495Y-41973204D01*
X33193999Y-41972000D01*
X33844001Y-41972000D01*
X33868505Y-41973204D01*
X33868505Y-41973204D01*
G37*
D11*
X33519000Y-42672000D03*
D10*
G36*
X38186505Y-40703204D02*
X38210773Y-40706804D01*
X38234572Y-40712765D01*
X38257671Y-40721030D01*
X38279850Y-40731520D01*
X38300893Y-40744132D01*
X38320599Y-40758747D01*
X38338777Y-40775223D01*
X38355253Y-40793401D01*
X38369868Y-40813107D01*
X38382480Y-40834150D01*
X38392970Y-40856329D01*
X38401235Y-40879428D01*
X38407196Y-40903227D01*
X38410796Y-40927495D01*
X38412000Y-40951999D01*
X38412000Y-41852001D01*
X38410796Y-41876505D01*
X38407196Y-41900773D01*
X38401235Y-41924572D01*
X38392970Y-41947671D01*
X38382480Y-41969850D01*
X38369868Y-41990893D01*
X38355253Y-42010599D01*
X38338777Y-42028777D01*
X38320599Y-42045253D01*
X38300893Y-42059868D01*
X38279850Y-42072480D01*
X38257671Y-42082970D01*
X38234572Y-42091235D01*
X38210773Y-42097196D01*
X38186505Y-42100796D01*
X38162001Y-42102000D01*
X37511999Y-42102000D01*
X37487495Y-42100796D01*
X37463227Y-42097196D01*
X37439428Y-42091235D01*
X37416329Y-42082970D01*
X37394150Y-42072480D01*
X37373107Y-42059868D01*
X37353401Y-42045253D01*
X37335223Y-42028777D01*
X37318747Y-42010599D01*
X37304132Y-41990893D01*
X37291520Y-41969850D01*
X37281030Y-41947671D01*
X37272765Y-41924572D01*
X37266804Y-41900773D01*
X37263204Y-41876505D01*
X37262000Y-41852001D01*
X37262000Y-40951999D01*
X37263204Y-40927495D01*
X37266804Y-40903227D01*
X37272765Y-40879428D01*
X37281030Y-40856329D01*
X37291520Y-40834150D01*
X37304132Y-40813107D01*
X37318747Y-40793401D01*
X37335223Y-40775223D01*
X37353401Y-40758747D01*
X37373107Y-40744132D01*
X37394150Y-40731520D01*
X37416329Y-40721030D01*
X37439428Y-40712765D01*
X37463227Y-40706804D01*
X37487495Y-40703204D01*
X37511999Y-40702000D01*
X38162001Y-40702000D01*
X38186505Y-40703204D01*
X38186505Y-40703204D01*
G37*
D11*
X37837000Y-41402000D03*
D10*
G36*
X40236505Y-40703204D02*
X40260773Y-40706804D01*
X40284572Y-40712765D01*
X40307671Y-40721030D01*
X40329850Y-40731520D01*
X40350893Y-40744132D01*
X40370599Y-40758747D01*
X40388777Y-40775223D01*
X40405253Y-40793401D01*
X40419868Y-40813107D01*
X40432480Y-40834150D01*
X40442970Y-40856329D01*
X40451235Y-40879428D01*
X40457196Y-40903227D01*
X40460796Y-40927495D01*
X40462000Y-40951999D01*
X40462000Y-41852001D01*
X40460796Y-41876505D01*
X40457196Y-41900773D01*
X40451235Y-41924572D01*
X40442970Y-41947671D01*
X40432480Y-41969850D01*
X40419868Y-41990893D01*
X40405253Y-42010599D01*
X40388777Y-42028777D01*
X40370599Y-42045253D01*
X40350893Y-42059868D01*
X40329850Y-42072480D01*
X40307671Y-42082970D01*
X40284572Y-42091235D01*
X40260773Y-42097196D01*
X40236505Y-42100796D01*
X40212001Y-42102000D01*
X39561999Y-42102000D01*
X39537495Y-42100796D01*
X39513227Y-42097196D01*
X39489428Y-42091235D01*
X39466329Y-42082970D01*
X39444150Y-42072480D01*
X39423107Y-42059868D01*
X39403401Y-42045253D01*
X39385223Y-42028777D01*
X39368747Y-42010599D01*
X39354132Y-41990893D01*
X39341520Y-41969850D01*
X39331030Y-41947671D01*
X39322765Y-41924572D01*
X39316804Y-41900773D01*
X39313204Y-41876505D01*
X39312000Y-41852001D01*
X39312000Y-40951999D01*
X39313204Y-40927495D01*
X39316804Y-40903227D01*
X39322765Y-40879428D01*
X39331030Y-40856329D01*
X39341520Y-40834150D01*
X39354132Y-40813107D01*
X39368747Y-40793401D01*
X39385223Y-40775223D01*
X39403401Y-40758747D01*
X39423107Y-40744132D01*
X39444150Y-40731520D01*
X39466329Y-40721030D01*
X39489428Y-40712765D01*
X39513227Y-40706804D01*
X39537495Y-40703204D01*
X39561999Y-40702000D01*
X40212001Y-40702000D01*
X40236505Y-40703204D01*
X40236505Y-40703204D01*
G37*
D11*
X39887000Y-41402000D03*
D10*
G36*
X55663191Y-33816053D02*
X55684426Y-33819203D01*
X55705250Y-33824419D01*
X55725462Y-33831651D01*
X55744868Y-33840830D01*
X55763281Y-33851866D01*
X55780524Y-33864654D01*
X55796430Y-33879070D01*
X55810846Y-33894976D01*
X55823634Y-33912219D01*
X55834670Y-33930632D01*
X55843849Y-33950038D01*
X55851081Y-33970250D01*
X55856297Y-33991074D01*
X55859447Y-34012309D01*
X55860500Y-34033750D01*
X55860500Y-34546250D01*
X55859447Y-34567691D01*
X55856297Y-34588926D01*
X55851081Y-34609750D01*
X55843849Y-34629962D01*
X55834670Y-34649368D01*
X55823634Y-34667781D01*
X55810846Y-34685024D01*
X55796430Y-34700930D01*
X55780524Y-34715346D01*
X55763281Y-34728134D01*
X55744868Y-34739170D01*
X55725462Y-34748349D01*
X55705250Y-34755581D01*
X55684426Y-34760797D01*
X55663191Y-34763947D01*
X55641750Y-34765000D01*
X55204250Y-34765000D01*
X55182809Y-34763947D01*
X55161574Y-34760797D01*
X55140750Y-34755581D01*
X55120538Y-34748349D01*
X55101132Y-34739170D01*
X55082719Y-34728134D01*
X55065476Y-34715346D01*
X55049570Y-34700930D01*
X55035154Y-34685024D01*
X55022366Y-34667781D01*
X55011330Y-34649368D01*
X55002151Y-34629962D01*
X54994919Y-34609750D01*
X54989703Y-34588926D01*
X54986553Y-34567691D01*
X54985500Y-34546250D01*
X54985500Y-34033750D01*
X54986553Y-34012309D01*
X54989703Y-33991074D01*
X54994919Y-33970250D01*
X55002151Y-33950038D01*
X55011330Y-33930632D01*
X55022366Y-33912219D01*
X55035154Y-33894976D01*
X55049570Y-33879070D01*
X55065476Y-33864654D01*
X55082719Y-33851866D01*
X55101132Y-33840830D01*
X55120538Y-33831651D01*
X55140750Y-33824419D01*
X55161574Y-33819203D01*
X55182809Y-33816053D01*
X55204250Y-33815000D01*
X55641750Y-33815000D01*
X55663191Y-33816053D01*
X55663191Y-33816053D01*
G37*
D12*
X55423000Y-34290000D03*
D10*
G36*
X54088191Y-33816053D02*
X54109426Y-33819203D01*
X54130250Y-33824419D01*
X54150462Y-33831651D01*
X54169868Y-33840830D01*
X54188281Y-33851866D01*
X54205524Y-33864654D01*
X54221430Y-33879070D01*
X54235846Y-33894976D01*
X54248634Y-33912219D01*
X54259670Y-33930632D01*
X54268849Y-33950038D01*
X54276081Y-33970250D01*
X54281297Y-33991074D01*
X54284447Y-34012309D01*
X54285500Y-34033750D01*
X54285500Y-34546250D01*
X54284447Y-34567691D01*
X54281297Y-34588926D01*
X54276081Y-34609750D01*
X54268849Y-34629962D01*
X54259670Y-34649368D01*
X54248634Y-34667781D01*
X54235846Y-34685024D01*
X54221430Y-34700930D01*
X54205524Y-34715346D01*
X54188281Y-34728134D01*
X54169868Y-34739170D01*
X54150462Y-34748349D01*
X54130250Y-34755581D01*
X54109426Y-34760797D01*
X54088191Y-34763947D01*
X54066750Y-34765000D01*
X53629250Y-34765000D01*
X53607809Y-34763947D01*
X53586574Y-34760797D01*
X53565750Y-34755581D01*
X53545538Y-34748349D01*
X53526132Y-34739170D01*
X53507719Y-34728134D01*
X53490476Y-34715346D01*
X53474570Y-34700930D01*
X53460154Y-34685024D01*
X53447366Y-34667781D01*
X53436330Y-34649368D01*
X53427151Y-34629962D01*
X53419919Y-34609750D01*
X53414703Y-34588926D01*
X53411553Y-34567691D01*
X53410500Y-34546250D01*
X53410500Y-34033750D01*
X53411553Y-34012309D01*
X53414703Y-33991074D01*
X53419919Y-33970250D01*
X53427151Y-33950038D01*
X53436330Y-33930632D01*
X53447366Y-33912219D01*
X53460154Y-33894976D01*
X53474570Y-33879070D01*
X53490476Y-33864654D01*
X53507719Y-33851866D01*
X53526132Y-33840830D01*
X53545538Y-33831651D01*
X53565750Y-33824419D01*
X53586574Y-33819203D01*
X53607809Y-33816053D01*
X53629250Y-33815000D01*
X54066750Y-33815000D01*
X54088191Y-33816053D01*
X54088191Y-33816053D01*
G37*
D12*
X53848000Y-34290000D03*
D13*
X30480000Y-58420000D03*
D14*
X33020000Y-58420000D03*
X35560000Y-58420000D03*
X38100000Y-58420000D03*
X40640000Y-58420000D03*
X43180000Y-58420000D03*
D13*
X90805000Y-60325000D03*
D14*
X88265000Y-60325000D03*
X85725000Y-60325000D03*
X83185000Y-60325000D03*
D15*
X69088000Y-28194000D03*
D10*
G36*
X67192505Y-27095204D02*
X67216773Y-27098804D01*
X67240572Y-27104765D01*
X67263671Y-27113030D01*
X67285850Y-27123520D01*
X67306893Y-27136132D01*
X67326599Y-27150747D01*
X67344777Y-27167223D01*
X67361253Y-27185401D01*
X67375868Y-27205107D01*
X67388480Y-27226150D01*
X67398970Y-27248329D01*
X67407235Y-27271428D01*
X67413196Y-27295227D01*
X67416796Y-27319495D01*
X67418000Y-27343999D01*
X67418000Y-29044001D01*
X67416796Y-29068505D01*
X67413196Y-29092773D01*
X67407235Y-29116572D01*
X67398970Y-29139671D01*
X67388480Y-29161850D01*
X67375868Y-29182893D01*
X67361253Y-29202599D01*
X67344777Y-29220777D01*
X67326599Y-29237253D01*
X67306893Y-29251868D01*
X67285850Y-29264480D01*
X67263671Y-29274970D01*
X67240572Y-29283235D01*
X67216773Y-29289196D01*
X67192505Y-29292796D01*
X67168001Y-29294000D01*
X65927999Y-29294000D01*
X65903495Y-29292796D01*
X65879227Y-29289196D01*
X65855428Y-29283235D01*
X65832329Y-29274970D01*
X65810150Y-29264480D01*
X65789107Y-29251868D01*
X65769401Y-29237253D01*
X65751223Y-29220777D01*
X65734747Y-29202599D01*
X65720132Y-29182893D01*
X65707520Y-29161850D01*
X65697030Y-29139671D01*
X65688765Y-29116572D01*
X65682804Y-29092773D01*
X65679204Y-29068505D01*
X65678000Y-29044001D01*
X65678000Y-27343999D01*
X65679204Y-27319495D01*
X65682804Y-27295227D01*
X65688765Y-27271428D01*
X65697030Y-27248329D01*
X65707520Y-27226150D01*
X65720132Y-27205107D01*
X65734747Y-27185401D01*
X65751223Y-27167223D01*
X65769401Y-27150747D01*
X65789107Y-27136132D01*
X65810150Y-27123520D01*
X65832329Y-27113030D01*
X65855428Y-27104765D01*
X65879227Y-27098804D01*
X65903495Y-27095204D01*
X65927999Y-27094000D01*
X67168001Y-27094000D01*
X67192505Y-27095204D01*
X67192505Y-27095204D01*
G37*
D16*
X66548000Y-28194000D03*
D10*
G36*
X73796505Y-27095204D02*
X73820773Y-27098804D01*
X73844572Y-27104765D01*
X73867671Y-27113030D01*
X73889850Y-27123520D01*
X73910893Y-27136132D01*
X73930599Y-27150747D01*
X73948777Y-27167223D01*
X73965253Y-27185401D01*
X73979868Y-27205107D01*
X73992480Y-27226150D01*
X74002970Y-27248329D01*
X74011235Y-27271428D01*
X74017196Y-27295227D01*
X74020796Y-27319495D01*
X74022000Y-27343999D01*
X74022000Y-29044001D01*
X74020796Y-29068505D01*
X74017196Y-29092773D01*
X74011235Y-29116572D01*
X74002970Y-29139671D01*
X73992480Y-29161850D01*
X73979868Y-29182893D01*
X73965253Y-29202599D01*
X73948777Y-29220777D01*
X73930599Y-29237253D01*
X73910893Y-29251868D01*
X73889850Y-29264480D01*
X73867671Y-29274970D01*
X73844572Y-29283235D01*
X73820773Y-29289196D01*
X73796505Y-29292796D01*
X73772001Y-29294000D01*
X72531999Y-29294000D01*
X72507495Y-29292796D01*
X72483227Y-29289196D01*
X72459428Y-29283235D01*
X72436329Y-29274970D01*
X72414150Y-29264480D01*
X72393107Y-29251868D01*
X72373401Y-29237253D01*
X72355223Y-29220777D01*
X72338747Y-29202599D01*
X72324132Y-29182893D01*
X72311520Y-29161850D01*
X72301030Y-29139671D01*
X72292765Y-29116572D01*
X72286804Y-29092773D01*
X72283204Y-29068505D01*
X72282000Y-29044001D01*
X72282000Y-27343999D01*
X72283204Y-27319495D01*
X72286804Y-27295227D01*
X72292765Y-27271428D01*
X72301030Y-27248329D01*
X72311520Y-27226150D01*
X72324132Y-27205107D01*
X72338747Y-27185401D01*
X72355223Y-27167223D01*
X72373401Y-27150747D01*
X72393107Y-27136132D01*
X72414150Y-27123520D01*
X72436329Y-27113030D01*
X72459428Y-27104765D01*
X72483227Y-27098804D01*
X72507495Y-27095204D01*
X72531999Y-27094000D01*
X73772001Y-27094000D01*
X73796505Y-27095204D01*
X73796505Y-27095204D01*
G37*
D16*
X73152000Y-28194000D03*
D15*
X75692000Y-28194000D03*
X66548000Y-35306000D03*
D10*
G36*
X69732505Y-34207204D02*
X69756773Y-34210804D01*
X69780572Y-34216765D01*
X69803671Y-34225030D01*
X69825850Y-34235520D01*
X69846893Y-34248132D01*
X69866599Y-34262747D01*
X69884777Y-34279223D01*
X69901253Y-34297401D01*
X69915868Y-34317107D01*
X69928480Y-34338150D01*
X69938970Y-34360329D01*
X69947235Y-34383428D01*
X69953196Y-34407227D01*
X69956796Y-34431495D01*
X69958000Y-34455999D01*
X69958000Y-36156001D01*
X69956796Y-36180505D01*
X69953196Y-36204773D01*
X69947235Y-36228572D01*
X69938970Y-36251671D01*
X69928480Y-36273850D01*
X69915868Y-36294893D01*
X69901253Y-36314599D01*
X69884777Y-36332777D01*
X69866599Y-36349253D01*
X69846893Y-36363868D01*
X69825850Y-36376480D01*
X69803671Y-36386970D01*
X69780572Y-36395235D01*
X69756773Y-36401196D01*
X69732505Y-36404796D01*
X69708001Y-36406000D01*
X68467999Y-36406000D01*
X68443495Y-36404796D01*
X68419227Y-36401196D01*
X68395428Y-36395235D01*
X68372329Y-36386970D01*
X68350150Y-36376480D01*
X68329107Y-36363868D01*
X68309401Y-36349253D01*
X68291223Y-36332777D01*
X68274747Y-36314599D01*
X68260132Y-36294893D01*
X68247520Y-36273850D01*
X68237030Y-36251671D01*
X68228765Y-36228572D01*
X68222804Y-36204773D01*
X68219204Y-36180505D01*
X68218000Y-36156001D01*
X68218000Y-34455999D01*
X68219204Y-34431495D01*
X68222804Y-34407227D01*
X68228765Y-34383428D01*
X68237030Y-34360329D01*
X68247520Y-34338150D01*
X68260132Y-34317107D01*
X68274747Y-34297401D01*
X68291223Y-34279223D01*
X68309401Y-34262747D01*
X68329107Y-34248132D01*
X68350150Y-34235520D01*
X68372329Y-34225030D01*
X68395428Y-34216765D01*
X68419227Y-34210804D01*
X68443495Y-34207204D01*
X68467999Y-34206000D01*
X69708001Y-34206000D01*
X69732505Y-34207204D01*
X69732505Y-34207204D01*
G37*
D16*
X69088000Y-35306000D03*
D10*
G36*
X76336505Y-34207204D02*
X76360773Y-34210804D01*
X76384572Y-34216765D01*
X76407671Y-34225030D01*
X76429850Y-34235520D01*
X76450893Y-34248132D01*
X76470599Y-34262747D01*
X76488777Y-34279223D01*
X76505253Y-34297401D01*
X76519868Y-34317107D01*
X76532480Y-34338150D01*
X76542970Y-34360329D01*
X76551235Y-34383428D01*
X76557196Y-34407227D01*
X76560796Y-34431495D01*
X76562000Y-34455999D01*
X76562000Y-36156001D01*
X76560796Y-36180505D01*
X76557196Y-36204773D01*
X76551235Y-36228572D01*
X76542970Y-36251671D01*
X76532480Y-36273850D01*
X76519868Y-36294893D01*
X76505253Y-36314599D01*
X76488777Y-36332777D01*
X76470599Y-36349253D01*
X76450893Y-36363868D01*
X76429850Y-36376480D01*
X76407671Y-36386970D01*
X76384572Y-36395235D01*
X76360773Y-36401196D01*
X76336505Y-36404796D01*
X76312001Y-36406000D01*
X75071999Y-36406000D01*
X75047495Y-36404796D01*
X75023227Y-36401196D01*
X74999428Y-36395235D01*
X74976329Y-36386970D01*
X74954150Y-36376480D01*
X74933107Y-36363868D01*
X74913401Y-36349253D01*
X74895223Y-36332777D01*
X74878747Y-36314599D01*
X74864132Y-36294893D01*
X74851520Y-36273850D01*
X74841030Y-36251671D01*
X74832765Y-36228572D01*
X74826804Y-36204773D01*
X74823204Y-36180505D01*
X74822000Y-36156001D01*
X74822000Y-34455999D01*
X74823204Y-34431495D01*
X74826804Y-34407227D01*
X74832765Y-34383428D01*
X74841030Y-34360329D01*
X74851520Y-34338150D01*
X74864132Y-34317107D01*
X74878747Y-34297401D01*
X74895223Y-34279223D01*
X74913401Y-34262747D01*
X74933107Y-34248132D01*
X74954150Y-34235520D01*
X74976329Y-34225030D01*
X74999428Y-34216765D01*
X75023227Y-34210804D01*
X75047495Y-34207204D01*
X75071999Y-34206000D01*
X76312001Y-34206000D01*
X76336505Y-34207204D01*
X76336505Y-34207204D01*
G37*
D16*
X75692000Y-35306000D03*
D15*
X73152000Y-35306000D03*
D10*
G36*
X80400505Y-27095204D02*
X80424773Y-27098804D01*
X80448572Y-27104765D01*
X80471671Y-27113030D01*
X80493850Y-27123520D01*
X80514893Y-27136132D01*
X80534599Y-27150747D01*
X80552777Y-27167223D01*
X80569253Y-27185401D01*
X80583868Y-27205107D01*
X80596480Y-27226150D01*
X80606970Y-27248329D01*
X80615235Y-27271428D01*
X80621196Y-27295227D01*
X80624796Y-27319495D01*
X80626000Y-27343999D01*
X80626000Y-29044001D01*
X80624796Y-29068505D01*
X80621196Y-29092773D01*
X80615235Y-29116572D01*
X80606970Y-29139671D01*
X80596480Y-29161850D01*
X80583868Y-29182893D01*
X80569253Y-29202599D01*
X80552777Y-29220777D01*
X80534599Y-29237253D01*
X80514893Y-29251868D01*
X80493850Y-29264480D01*
X80471671Y-29274970D01*
X80448572Y-29283235D01*
X80424773Y-29289196D01*
X80400505Y-29292796D01*
X80376001Y-29294000D01*
X79135999Y-29294000D01*
X79111495Y-29292796D01*
X79087227Y-29289196D01*
X79063428Y-29283235D01*
X79040329Y-29274970D01*
X79018150Y-29264480D01*
X78997107Y-29251868D01*
X78977401Y-29237253D01*
X78959223Y-29220777D01*
X78942747Y-29202599D01*
X78928132Y-29182893D01*
X78915520Y-29161850D01*
X78905030Y-29139671D01*
X78896765Y-29116572D01*
X78890804Y-29092773D01*
X78887204Y-29068505D01*
X78886000Y-29044001D01*
X78886000Y-27343999D01*
X78887204Y-27319495D01*
X78890804Y-27295227D01*
X78896765Y-27271428D01*
X78905030Y-27248329D01*
X78915520Y-27226150D01*
X78928132Y-27205107D01*
X78942747Y-27185401D01*
X78959223Y-27167223D01*
X78977401Y-27150747D01*
X78997107Y-27136132D01*
X79018150Y-27123520D01*
X79040329Y-27113030D01*
X79063428Y-27104765D01*
X79087227Y-27098804D01*
X79111495Y-27095204D01*
X79135999Y-27094000D01*
X80376001Y-27094000D01*
X80400505Y-27095204D01*
X80400505Y-27095204D01*
G37*
D16*
X79756000Y-28194000D03*
D15*
X82296000Y-28194000D03*
D13*
X82296000Y-38862000D03*
D14*
X79756000Y-38862000D03*
X82296000Y-36322000D03*
X79756000Y-36322000D03*
X82296000Y-33782000D03*
X79756000Y-33782000D03*
D10*
G36*
X69562505Y-44384204D02*
X69586773Y-44387804D01*
X69610572Y-44393765D01*
X69633671Y-44402030D01*
X69655850Y-44412520D01*
X69676893Y-44425132D01*
X69696599Y-44439747D01*
X69714777Y-44456223D01*
X69731253Y-44474401D01*
X69745868Y-44494107D01*
X69758480Y-44515150D01*
X69768970Y-44537329D01*
X69777235Y-44560428D01*
X69783196Y-44584227D01*
X69786796Y-44608495D01*
X69788000Y-44632999D01*
X69788000Y-45283001D01*
X69786796Y-45307505D01*
X69783196Y-45331773D01*
X69777235Y-45355572D01*
X69768970Y-45378671D01*
X69758480Y-45400850D01*
X69745868Y-45421893D01*
X69731253Y-45441599D01*
X69714777Y-45459777D01*
X69696599Y-45476253D01*
X69676893Y-45490868D01*
X69655850Y-45503480D01*
X69633671Y-45513970D01*
X69610572Y-45522235D01*
X69586773Y-45528196D01*
X69562505Y-45531796D01*
X69538001Y-45533000D01*
X68637999Y-45533000D01*
X68613495Y-45531796D01*
X68589227Y-45528196D01*
X68565428Y-45522235D01*
X68542329Y-45513970D01*
X68520150Y-45503480D01*
X68499107Y-45490868D01*
X68479401Y-45476253D01*
X68461223Y-45459777D01*
X68444747Y-45441599D01*
X68430132Y-45421893D01*
X68417520Y-45400850D01*
X68407030Y-45378671D01*
X68398765Y-45355572D01*
X68392804Y-45331773D01*
X68389204Y-45307505D01*
X68388000Y-45283001D01*
X68388000Y-44632999D01*
X68389204Y-44608495D01*
X68392804Y-44584227D01*
X68398765Y-44560428D01*
X68407030Y-44537329D01*
X68417520Y-44515150D01*
X68430132Y-44494107D01*
X68444747Y-44474401D01*
X68461223Y-44456223D01*
X68479401Y-44439747D01*
X68499107Y-44425132D01*
X68520150Y-44412520D01*
X68542329Y-44402030D01*
X68565428Y-44393765D01*
X68589227Y-44387804D01*
X68613495Y-44384204D01*
X68637999Y-44383000D01*
X69538001Y-44383000D01*
X69562505Y-44384204D01*
X69562505Y-44384204D01*
G37*
D11*
X69088000Y-44958000D03*
D10*
G36*
X69562505Y-42334204D02*
X69586773Y-42337804D01*
X69610572Y-42343765D01*
X69633671Y-42352030D01*
X69655850Y-42362520D01*
X69676893Y-42375132D01*
X69696599Y-42389747D01*
X69714777Y-42406223D01*
X69731253Y-42424401D01*
X69745868Y-42444107D01*
X69758480Y-42465150D01*
X69768970Y-42487329D01*
X69777235Y-42510428D01*
X69783196Y-42534227D01*
X69786796Y-42558495D01*
X69788000Y-42582999D01*
X69788000Y-43233001D01*
X69786796Y-43257505D01*
X69783196Y-43281773D01*
X69777235Y-43305572D01*
X69768970Y-43328671D01*
X69758480Y-43350850D01*
X69745868Y-43371893D01*
X69731253Y-43391599D01*
X69714777Y-43409777D01*
X69696599Y-43426253D01*
X69676893Y-43440868D01*
X69655850Y-43453480D01*
X69633671Y-43463970D01*
X69610572Y-43472235D01*
X69586773Y-43478196D01*
X69562505Y-43481796D01*
X69538001Y-43483000D01*
X68637999Y-43483000D01*
X68613495Y-43481796D01*
X68589227Y-43478196D01*
X68565428Y-43472235D01*
X68542329Y-43463970D01*
X68520150Y-43453480D01*
X68499107Y-43440868D01*
X68479401Y-43426253D01*
X68461223Y-43409777D01*
X68444747Y-43391599D01*
X68430132Y-43371893D01*
X68417520Y-43350850D01*
X68407030Y-43328671D01*
X68398765Y-43305572D01*
X68392804Y-43281773D01*
X68389204Y-43257505D01*
X68388000Y-43233001D01*
X68388000Y-42582999D01*
X68389204Y-42558495D01*
X68392804Y-42534227D01*
X68398765Y-42510428D01*
X68407030Y-42487329D01*
X68417520Y-42465150D01*
X68430132Y-42444107D01*
X68444747Y-42424401D01*
X68461223Y-42406223D01*
X68479401Y-42389747D01*
X68499107Y-42375132D01*
X68520150Y-42362520D01*
X68542329Y-42352030D01*
X68565428Y-42343765D01*
X68589227Y-42337804D01*
X68613495Y-42334204D01*
X68637999Y-42333000D01*
X69538001Y-42333000D01*
X69562505Y-42334204D01*
X69562505Y-42334204D01*
G37*
D11*
X69088000Y-42908000D03*
D10*
G36*
X67530505Y-46162204D02*
X67554773Y-46165804D01*
X67578572Y-46171765D01*
X67601671Y-46180030D01*
X67623850Y-46190520D01*
X67644893Y-46203132D01*
X67664599Y-46217747D01*
X67682777Y-46234223D01*
X67699253Y-46252401D01*
X67713868Y-46272107D01*
X67726480Y-46293150D01*
X67736970Y-46315329D01*
X67745235Y-46338428D01*
X67751196Y-46362227D01*
X67754796Y-46386495D01*
X67756000Y-46410999D01*
X67756000Y-47061001D01*
X67754796Y-47085505D01*
X67751196Y-47109773D01*
X67745235Y-47133572D01*
X67736970Y-47156671D01*
X67726480Y-47178850D01*
X67713868Y-47199893D01*
X67699253Y-47219599D01*
X67682777Y-47237777D01*
X67664599Y-47254253D01*
X67644893Y-47268868D01*
X67623850Y-47281480D01*
X67601671Y-47291970D01*
X67578572Y-47300235D01*
X67554773Y-47306196D01*
X67530505Y-47309796D01*
X67506001Y-47311000D01*
X66605999Y-47311000D01*
X66581495Y-47309796D01*
X66557227Y-47306196D01*
X66533428Y-47300235D01*
X66510329Y-47291970D01*
X66488150Y-47281480D01*
X66467107Y-47268868D01*
X66447401Y-47254253D01*
X66429223Y-47237777D01*
X66412747Y-47219599D01*
X66398132Y-47199893D01*
X66385520Y-47178850D01*
X66375030Y-47156671D01*
X66366765Y-47133572D01*
X66360804Y-47109773D01*
X66357204Y-47085505D01*
X66356000Y-47061001D01*
X66356000Y-46410999D01*
X66357204Y-46386495D01*
X66360804Y-46362227D01*
X66366765Y-46338428D01*
X66375030Y-46315329D01*
X66385520Y-46293150D01*
X66398132Y-46272107D01*
X66412747Y-46252401D01*
X66429223Y-46234223D01*
X66447401Y-46217747D01*
X66467107Y-46203132D01*
X66488150Y-46190520D01*
X66510329Y-46180030D01*
X66533428Y-46171765D01*
X66557227Y-46165804D01*
X66581495Y-46162204D01*
X66605999Y-46161000D01*
X67506001Y-46161000D01*
X67530505Y-46162204D01*
X67530505Y-46162204D01*
G37*
D11*
X67056000Y-46736000D03*
D10*
G36*
X67530505Y-48212204D02*
X67554773Y-48215804D01*
X67578572Y-48221765D01*
X67601671Y-48230030D01*
X67623850Y-48240520D01*
X67644893Y-48253132D01*
X67664599Y-48267747D01*
X67682777Y-48284223D01*
X67699253Y-48302401D01*
X67713868Y-48322107D01*
X67726480Y-48343150D01*
X67736970Y-48365329D01*
X67745235Y-48388428D01*
X67751196Y-48412227D01*
X67754796Y-48436495D01*
X67756000Y-48460999D01*
X67756000Y-49111001D01*
X67754796Y-49135505D01*
X67751196Y-49159773D01*
X67745235Y-49183572D01*
X67736970Y-49206671D01*
X67726480Y-49228850D01*
X67713868Y-49249893D01*
X67699253Y-49269599D01*
X67682777Y-49287777D01*
X67664599Y-49304253D01*
X67644893Y-49318868D01*
X67623850Y-49331480D01*
X67601671Y-49341970D01*
X67578572Y-49350235D01*
X67554773Y-49356196D01*
X67530505Y-49359796D01*
X67506001Y-49361000D01*
X66605999Y-49361000D01*
X66581495Y-49359796D01*
X66557227Y-49356196D01*
X66533428Y-49350235D01*
X66510329Y-49341970D01*
X66488150Y-49331480D01*
X66467107Y-49318868D01*
X66447401Y-49304253D01*
X66429223Y-49287777D01*
X66412747Y-49269599D01*
X66398132Y-49249893D01*
X66385520Y-49228850D01*
X66375030Y-49206671D01*
X66366765Y-49183572D01*
X66360804Y-49159773D01*
X66357204Y-49135505D01*
X66356000Y-49111001D01*
X66356000Y-48460999D01*
X66357204Y-48436495D01*
X66360804Y-48412227D01*
X66366765Y-48388428D01*
X66375030Y-48365329D01*
X66385520Y-48343150D01*
X66398132Y-48322107D01*
X66412747Y-48302401D01*
X66429223Y-48284223D01*
X66447401Y-48267747D01*
X66467107Y-48253132D01*
X66488150Y-48240520D01*
X66510329Y-48230030D01*
X66533428Y-48221765D01*
X66557227Y-48215804D01*
X66581495Y-48212204D01*
X66605999Y-48211000D01*
X67506001Y-48211000D01*
X67530505Y-48212204D01*
X67530505Y-48212204D01*
G37*
D11*
X67056000Y-48786000D03*
D10*
G36*
X30700505Y-40311204D02*
X30724773Y-40314804D01*
X30748572Y-40320765D01*
X30771671Y-40329030D01*
X30793850Y-40339520D01*
X30814893Y-40352132D01*
X30834599Y-40366747D01*
X30852777Y-40383223D01*
X30869253Y-40401401D01*
X30883868Y-40421107D01*
X30896480Y-40442150D01*
X30906970Y-40464329D01*
X30915235Y-40487428D01*
X30921196Y-40511227D01*
X30924796Y-40535495D01*
X30926000Y-40559999D01*
X30926000Y-41210001D01*
X30924796Y-41234505D01*
X30921196Y-41258773D01*
X30915235Y-41282572D01*
X30906970Y-41305671D01*
X30896480Y-41327850D01*
X30883868Y-41348893D01*
X30869253Y-41368599D01*
X30852777Y-41386777D01*
X30834599Y-41403253D01*
X30814893Y-41417868D01*
X30793850Y-41430480D01*
X30771671Y-41440970D01*
X30748572Y-41449235D01*
X30724773Y-41455196D01*
X30700505Y-41458796D01*
X30676001Y-41460000D01*
X29775999Y-41460000D01*
X29751495Y-41458796D01*
X29727227Y-41455196D01*
X29703428Y-41449235D01*
X29680329Y-41440970D01*
X29658150Y-41430480D01*
X29637107Y-41417868D01*
X29617401Y-41403253D01*
X29599223Y-41386777D01*
X29582747Y-41368599D01*
X29568132Y-41348893D01*
X29555520Y-41327850D01*
X29545030Y-41305671D01*
X29536765Y-41282572D01*
X29530804Y-41258773D01*
X29527204Y-41234505D01*
X29526000Y-41210001D01*
X29526000Y-40559999D01*
X29527204Y-40535495D01*
X29530804Y-40511227D01*
X29536765Y-40487428D01*
X29545030Y-40464329D01*
X29555520Y-40442150D01*
X29568132Y-40421107D01*
X29582747Y-40401401D01*
X29599223Y-40383223D01*
X29617401Y-40366747D01*
X29637107Y-40352132D01*
X29658150Y-40339520D01*
X29680329Y-40329030D01*
X29703428Y-40320765D01*
X29727227Y-40314804D01*
X29751495Y-40311204D01*
X29775999Y-40310000D01*
X30676001Y-40310000D01*
X30700505Y-40311204D01*
X30700505Y-40311204D01*
G37*
D11*
X30226000Y-40885000D03*
D10*
G36*
X30700505Y-42361204D02*
X30724773Y-42364804D01*
X30748572Y-42370765D01*
X30771671Y-42379030D01*
X30793850Y-42389520D01*
X30814893Y-42402132D01*
X30834599Y-42416747D01*
X30852777Y-42433223D01*
X30869253Y-42451401D01*
X30883868Y-42471107D01*
X30896480Y-42492150D01*
X30906970Y-42514329D01*
X30915235Y-42537428D01*
X30921196Y-42561227D01*
X30924796Y-42585495D01*
X30926000Y-42609999D01*
X30926000Y-43260001D01*
X30924796Y-43284505D01*
X30921196Y-43308773D01*
X30915235Y-43332572D01*
X30906970Y-43355671D01*
X30896480Y-43377850D01*
X30883868Y-43398893D01*
X30869253Y-43418599D01*
X30852777Y-43436777D01*
X30834599Y-43453253D01*
X30814893Y-43467868D01*
X30793850Y-43480480D01*
X30771671Y-43490970D01*
X30748572Y-43499235D01*
X30724773Y-43505196D01*
X30700505Y-43508796D01*
X30676001Y-43510000D01*
X29775999Y-43510000D01*
X29751495Y-43508796D01*
X29727227Y-43505196D01*
X29703428Y-43499235D01*
X29680329Y-43490970D01*
X29658150Y-43480480D01*
X29637107Y-43467868D01*
X29617401Y-43453253D01*
X29599223Y-43436777D01*
X29582747Y-43418599D01*
X29568132Y-43398893D01*
X29555520Y-43377850D01*
X29545030Y-43355671D01*
X29536765Y-43332572D01*
X29530804Y-43308773D01*
X29527204Y-43284505D01*
X29526000Y-43260001D01*
X29526000Y-42609999D01*
X29527204Y-42585495D01*
X29530804Y-42561227D01*
X29536765Y-42537428D01*
X29545030Y-42514329D01*
X29555520Y-42492150D01*
X29568132Y-42471107D01*
X29582747Y-42451401D01*
X29599223Y-42433223D01*
X29617401Y-42416747D01*
X29637107Y-42402132D01*
X29658150Y-42389520D01*
X29680329Y-42379030D01*
X29703428Y-42370765D01*
X29727227Y-42364804D01*
X29751495Y-42361204D01*
X29775999Y-42360000D01*
X30676001Y-42360000D01*
X30700505Y-42361204D01*
X30700505Y-42361204D01*
G37*
D11*
X30226000Y-42935000D03*
D10*
G36*
X33859505Y-39941204D02*
X33883773Y-39944804D01*
X33907572Y-39950765D01*
X33930671Y-39959030D01*
X33952850Y-39969520D01*
X33973893Y-39982132D01*
X33993599Y-39996747D01*
X34011777Y-40013223D01*
X34028253Y-40031401D01*
X34042868Y-40051107D01*
X34055480Y-40072150D01*
X34065970Y-40094329D01*
X34074235Y-40117428D01*
X34080196Y-40141227D01*
X34083796Y-40165495D01*
X34085000Y-40189999D01*
X34085000Y-41090001D01*
X34083796Y-41114505D01*
X34080196Y-41138773D01*
X34074235Y-41162572D01*
X34065970Y-41185671D01*
X34055480Y-41207850D01*
X34042868Y-41228893D01*
X34028253Y-41248599D01*
X34011777Y-41266777D01*
X33993599Y-41283253D01*
X33973893Y-41297868D01*
X33952850Y-41310480D01*
X33930671Y-41320970D01*
X33907572Y-41329235D01*
X33883773Y-41335196D01*
X33859505Y-41338796D01*
X33835001Y-41340000D01*
X33184999Y-41340000D01*
X33160495Y-41338796D01*
X33136227Y-41335196D01*
X33112428Y-41329235D01*
X33089329Y-41320970D01*
X33067150Y-41310480D01*
X33046107Y-41297868D01*
X33026401Y-41283253D01*
X33008223Y-41266777D01*
X32991747Y-41248599D01*
X32977132Y-41228893D01*
X32964520Y-41207850D01*
X32954030Y-41185671D01*
X32945765Y-41162572D01*
X32939804Y-41138773D01*
X32936204Y-41114505D01*
X32935000Y-41090001D01*
X32935000Y-40189999D01*
X32936204Y-40165495D01*
X32939804Y-40141227D01*
X32945765Y-40117428D01*
X32954030Y-40094329D01*
X32964520Y-40072150D01*
X32977132Y-40051107D01*
X32991747Y-40031401D01*
X33008223Y-40013223D01*
X33026401Y-39996747D01*
X33046107Y-39982132D01*
X33067150Y-39969520D01*
X33089329Y-39959030D01*
X33112428Y-39950765D01*
X33136227Y-39944804D01*
X33160495Y-39941204D01*
X33184999Y-39940000D01*
X33835001Y-39940000D01*
X33859505Y-39941204D01*
X33859505Y-39941204D01*
G37*
D11*
X33510000Y-40640000D03*
D10*
G36*
X35909505Y-39941204D02*
X35933773Y-39944804D01*
X35957572Y-39950765D01*
X35980671Y-39959030D01*
X36002850Y-39969520D01*
X36023893Y-39982132D01*
X36043599Y-39996747D01*
X36061777Y-40013223D01*
X36078253Y-40031401D01*
X36092868Y-40051107D01*
X36105480Y-40072150D01*
X36115970Y-40094329D01*
X36124235Y-40117428D01*
X36130196Y-40141227D01*
X36133796Y-40165495D01*
X36135000Y-40189999D01*
X36135000Y-41090001D01*
X36133796Y-41114505D01*
X36130196Y-41138773D01*
X36124235Y-41162572D01*
X36115970Y-41185671D01*
X36105480Y-41207850D01*
X36092868Y-41228893D01*
X36078253Y-41248599D01*
X36061777Y-41266777D01*
X36043599Y-41283253D01*
X36023893Y-41297868D01*
X36002850Y-41310480D01*
X35980671Y-41320970D01*
X35957572Y-41329235D01*
X35933773Y-41335196D01*
X35909505Y-41338796D01*
X35885001Y-41340000D01*
X35234999Y-41340000D01*
X35210495Y-41338796D01*
X35186227Y-41335196D01*
X35162428Y-41329235D01*
X35139329Y-41320970D01*
X35117150Y-41310480D01*
X35096107Y-41297868D01*
X35076401Y-41283253D01*
X35058223Y-41266777D01*
X35041747Y-41248599D01*
X35027132Y-41228893D01*
X35014520Y-41207850D01*
X35004030Y-41185671D01*
X34995765Y-41162572D01*
X34989804Y-41138773D01*
X34986204Y-41114505D01*
X34985000Y-41090001D01*
X34985000Y-40189999D01*
X34986204Y-40165495D01*
X34989804Y-40141227D01*
X34995765Y-40117428D01*
X35004030Y-40094329D01*
X35014520Y-40072150D01*
X35027132Y-40051107D01*
X35041747Y-40031401D01*
X35058223Y-40013223D01*
X35076401Y-39996747D01*
X35096107Y-39982132D01*
X35117150Y-39969520D01*
X35139329Y-39959030D01*
X35162428Y-39950765D01*
X35186227Y-39944804D01*
X35210495Y-39941204D01*
X35234999Y-39940000D01*
X35885001Y-39940000D01*
X35909505Y-39941204D01*
X35909505Y-39941204D01*
G37*
D11*
X35560000Y-40640000D03*
D10*
G36*
X38186505Y-38671204D02*
X38210773Y-38674804D01*
X38234572Y-38680765D01*
X38257671Y-38689030D01*
X38279850Y-38699520D01*
X38300893Y-38712132D01*
X38320599Y-38726747D01*
X38338777Y-38743223D01*
X38355253Y-38761401D01*
X38369868Y-38781107D01*
X38382480Y-38802150D01*
X38392970Y-38824329D01*
X38401235Y-38847428D01*
X38407196Y-38871227D01*
X38410796Y-38895495D01*
X38412000Y-38919999D01*
X38412000Y-39820001D01*
X38410796Y-39844505D01*
X38407196Y-39868773D01*
X38401235Y-39892572D01*
X38392970Y-39915671D01*
X38382480Y-39937850D01*
X38369868Y-39958893D01*
X38355253Y-39978599D01*
X38338777Y-39996777D01*
X38320599Y-40013253D01*
X38300893Y-40027868D01*
X38279850Y-40040480D01*
X38257671Y-40050970D01*
X38234572Y-40059235D01*
X38210773Y-40065196D01*
X38186505Y-40068796D01*
X38162001Y-40070000D01*
X37511999Y-40070000D01*
X37487495Y-40068796D01*
X37463227Y-40065196D01*
X37439428Y-40059235D01*
X37416329Y-40050970D01*
X37394150Y-40040480D01*
X37373107Y-40027868D01*
X37353401Y-40013253D01*
X37335223Y-39996777D01*
X37318747Y-39978599D01*
X37304132Y-39958893D01*
X37291520Y-39937850D01*
X37281030Y-39915671D01*
X37272765Y-39892572D01*
X37266804Y-39868773D01*
X37263204Y-39844505D01*
X37262000Y-39820001D01*
X37262000Y-38919999D01*
X37263204Y-38895495D01*
X37266804Y-38871227D01*
X37272765Y-38847428D01*
X37281030Y-38824329D01*
X37291520Y-38802150D01*
X37304132Y-38781107D01*
X37318747Y-38761401D01*
X37335223Y-38743223D01*
X37353401Y-38726747D01*
X37373107Y-38712132D01*
X37394150Y-38699520D01*
X37416329Y-38689030D01*
X37439428Y-38680765D01*
X37463227Y-38674804D01*
X37487495Y-38671204D01*
X37511999Y-38670000D01*
X38162001Y-38670000D01*
X38186505Y-38671204D01*
X38186505Y-38671204D01*
G37*
D11*
X37837000Y-39370000D03*
D10*
G36*
X40236505Y-38671204D02*
X40260773Y-38674804D01*
X40284572Y-38680765D01*
X40307671Y-38689030D01*
X40329850Y-38699520D01*
X40350893Y-38712132D01*
X40370599Y-38726747D01*
X40388777Y-38743223D01*
X40405253Y-38761401D01*
X40419868Y-38781107D01*
X40432480Y-38802150D01*
X40442970Y-38824329D01*
X40451235Y-38847428D01*
X40457196Y-38871227D01*
X40460796Y-38895495D01*
X40462000Y-38919999D01*
X40462000Y-39820001D01*
X40460796Y-39844505D01*
X40457196Y-39868773D01*
X40451235Y-39892572D01*
X40442970Y-39915671D01*
X40432480Y-39937850D01*
X40419868Y-39958893D01*
X40405253Y-39978599D01*
X40388777Y-39996777D01*
X40370599Y-40013253D01*
X40350893Y-40027868D01*
X40329850Y-40040480D01*
X40307671Y-40050970D01*
X40284572Y-40059235D01*
X40260773Y-40065196D01*
X40236505Y-40068796D01*
X40212001Y-40070000D01*
X39561999Y-40070000D01*
X39537495Y-40068796D01*
X39513227Y-40065196D01*
X39489428Y-40059235D01*
X39466329Y-40050970D01*
X39444150Y-40040480D01*
X39423107Y-40027868D01*
X39403401Y-40013253D01*
X39385223Y-39996777D01*
X39368747Y-39978599D01*
X39354132Y-39958893D01*
X39341520Y-39937850D01*
X39331030Y-39915671D01*
X39322765Y-39892572D01*
X39316804Y-39868773D01*
X39313204Y-39844505D01*
X39312000Y-39820001D01*
X39312000Y-38919999D01*
X39313204Y-38895495D01*
X39316804Y-38871227D01*
X39322765Y-38847428D01*
X39331030Y-38824329D01*
X39341520Y-38802150D01*
X39354132Y-38781107D01*
X39368747Y-38761401D01*
X39385223Y-38743223D01*
X39403401Y-38726747D01*
X39423107Y-38712132D01*
X39444150Y-38699520D01*
X39466329Y-38689030D01*
X39489428Y-38680765D01*
X39513227Y-38674804D01*
X39537495Y-38671204D01*
X39561999Y-38670000D01*
X40212001Y-38670000D01*
X40236505Y-38671204D01*
X40236505Y-38671204D01*
G37*
D11*
X39887000Y-39370000D03*
D10*
G36*
X52798505Y-39068204D02*
X52822773Y-39071804D01*
X52846572Y-39077765D01*
X52869671Y-39086030D01*
X52891850Y-39096520D01*
X52912893Y-39109132D01*
X52932599Y-39123747D01*
X52950777Y-39140223D01*
X52967253Y-39158401D01*
X52981868Y-39178107D01*
X52994480Y-39199150D01*
X53004970Y-39221329D01*
X53013235Y-39244428D01*
X53019196Y-39268227D01*
X53022796Y-39292495D01*
X53024000Y-39316999D01*
X53024000Y-39967001D01*
X53022796Y-39991505D01*
X53019196Y-40015773D01*
X53013235Y-40039572D01*
X53004970Y-40062671D01*
X52994480Y-40084850D01*
X52981868Y-40105893D01*
X52967253Y-40125599D01*
X52950777Y-40143777D01*
X52932599Y-40160253D01*
X52912893Y-40174868D01*
X52891850Y-40187480D01*
X52869671Y-40197970D01*
X52846572Y-40206235D01*
X52822773Y-40212196D01*
X52798505Y-40215796D01*
X52774001Y-40217000D01*
X51873999Y-40217000D01*
X51849495Y-40215796D01*
X51825227Y-40212196D01*
X51801428Y-40206235D01*
X51778329Y-40197970D01*
X51756150Y-40187480D01*
X51735107Y-40174868D01*
X51715401Y-40160253D01*
X51697223Y-40143777D01*
X51680747Y-40125599D01*
X51666132Y-40105893D01*
X51653520Y-40084850D01*
X51643030Y-40062671D01*
X51634765Y-40039572D01*
X51628804Y-40015773D01*
X51625204Y-39991505D01*
X51624000Y-39967001D01*
X51624000Y-39316999D01*
X51625204Y-39292495D01*
X51628804Y-39268227D01*
X51634765Y-39244428D01*
X51643030Y-39221329D01*
X51653520Y-39199150D01*
X51666132Y-39178107D01*
X51680747Y-39158401D01*
X51697223Y-39140223D01*
X51715401Y-39123747D01*
X51735107Y-39109132D01*
X51756150Y-39096520D01*
X51778329Y-39086030D01*
X51801428Y-39077765D01*
X51825227Y-39071804D01*
X51849495Y-39068204D01*
X51873999Y-39067000D01*
X52774001Y-39067000D01*
X52798505Y-39068204D01*
X52798505Y-39068204D01*
G37*
D11*
X52324000Y-39642000D03*
D10*
G36*
X52798505Y-37018204D02*
X52822773Y-37021804D01*
X52846572Y-37027765D01*
X52869671Y-37036030D01*
X52891850Y-37046520D01*
X52912893Y-37059132D01*
X52932599Y-37073747D01*
X52950777Y-37090223D01*
X52967253Y-37108401D01*
X52981868Y-37128107D01*
X52994480Y-37149150D01*
X53004970Y-37171329D01*
X53013235Y-37194428D01*
X53019196Y-37218227D01*
X53022796Y-37242495D01*
X53024000Y-37266999D01*
X53024000Y-37917001D01*
X53022796Y-37941505D01*
X53019196Y-37965773D01*
X53013235Y-37989572D01*
X53004970Y-38012671D01*
X52994480Y-38034850D01*
X52981868Y-38055893D01*
X52967253Y-38075599D01*
X52950777Y-38093777D01*
X52932599Y-38110253D01*
X52912893Y-38124868D01*
X52891850Y-38137480D01*
X52869671Y-38147970D01*
X52846572Y-38156235D01*
X52822773Y-38162196D01*
X52798505Y-38165796D01*
X52774001Y-38167000D01*
X51873999Y-38167000D01*
X51849495Y-38165796D01*
X51825227Y-38162196D01*
X51801428Y-38156235D01*
X51778329Y-38147970D01*
X51756150Y-38137480D01*
X51735107Y-38124868D01*
X51715401Y-38110253D01*
X51697223Y-38093777D01*
X51680747Y-38075599D01*
X51666132Y-38055893D01*
X51653520Y-38034850D01*
X51643030Y-38012671D01*
X51634765Y-37989572D01*
X51628804Y-37965773D01*
X51625204Y-37941505D01*
X51624000Y-37917001D01*
X51624000Y-37266999D01*
X51625204Y-37242495D01*
X51628804Y-37218227D01*
X51634765Y-37194428D01*
X51643030Y-37171329D01*
X51653520Y-37149150D01*
X51666132Y-37128107D01*
X51680747Y-37108401D01*
X51697223Y-37090223D01*
X51715401Y-37073747D01*
X51735107Y-37059132D01*
X51756150Y-37046520D01*
X51778329Y-37036030D01*
X51801428Y-37027765D01*
X51825227Y-37021804D01*
X51849495Y-37018204D01*
X51873999Y-37017000D01*
X52774001Y-37017000D01*
X52798505Y-37018204D01*
X52798505Y-37018204D01*
G37*
D11*
X52324000Y-37592000D03*
D17*
X43504000Y-46385000D03*
X45904000Y-46385000D03*
X43504000Y-47635000D03*
X43504000Y-48885000D03*
X43504000Y-50135000D03*
X45904000Y-50135000D03*
X45904000Y-48885000D03*
X45904000Y-47635000D03*
D18*
X60276000Y-42674000D03*
X59476000Y-42674000D03*
X58676000Y-42674000D03*
X57876000Y-42674000D03*
X57076000Y-42674000D03*
X56276000Y-42674000D03*
X55476000Y-42674000D03*
X54676000Y-42674000D03*
X53876000Y-42674000D03*
X53076000Y-42674000D03*
X52276000Y-42674000D03*
D19*
X50576000Y-44374000D03*
X50576000Y-45174000D03*
X50576000Y-45974000D03*
X50576000Y-46774000D03*
X50576000Y-47574000D03*
X50576000Y-48374000D03*
X50576000Y-49174000D03*
X50576000Y-49974000D03*
X50576000Y-50774000D03*
X50576000Y-51574000D03*
X50576000Y-52374000D03*
D18*
X52276000Y-54074000D03*
X53076000Y-54074000D03*
X53876000Y-54074000D03*
X54676000Y-54074000D03*
X55476000Y-54074000D03*
X56276000Y-54074000D03*
X57076000Y-54074000D03*
X57876000Y-54074000D03*
X58676000Y-54074000D03*
X59476000Y-54074000D03*
X60276000Y-54074000D03*
D19*
X61976000Y-52374000D03*
X61976000Y-51574000D03*
X61976000Y-50774000D03*
X61976000Y-49974000D03*
X61976000Y-49174000D03*
X61976000Y-48374000D03*
X61976000Y-47574000D03*
X61976000Y-46774000D03*
X61976000Y-45974000D03*
X61976000Y-45174000D03*
X61976000Y-44374000D03*
D20*
X40894000Y-35156000D03*
X40894000Y-34156000D03*
X40894000Y-33156000D03*
X40894000Y-32156000D03*
X40894000Y-31156000D03*
X40894000Y-30156000D03*
X40894000Y-29156000D03*
X40894000Y-28156000D03*
X40894000Y-27156000D03*
X40894000Y-26156000D03*
X40894000Y-25156000D03*
X40894000Y-24156000D03*
D21*
X40894000Y-23006000D03*
X32094000Y-23006000D03*
D20*
X32094000Y-24156000D03*
X32094000Y-25156000D03*
X32094000Y-26156000D03*
X32094000Y-27156000D03*
X32094000Y-28156000D03*
X32094000Y-29156000D03*
X32094000Y-30156000D03*
X32094000Y-31156000D03*
X32094000Y-32156000D03*
X32094000Y-33156000D03*
X32094000Y-34156000D03*
X32094000Y-35156000D03*
D22*
X34494000Y-35956000D03*
X35494000Y-35956000D03*
X36494000Y-35956000D03*
X37494000Y-35956000D03*
X38494000Y-35956000D03*
D10*
G36*
X53222505Y-23793204D02*
X53246773Y-23796804D01*
X53270572Y-23802765D01*
X53293671Y-23811030D01*
X53315850Y-23821520D01*
X53336893Y-23834132D01*
X53356599Y-23848747D01*
X53374777Y-23865223D01*
X53391253Y-23883401D01*
X53405868Y-23903107D01*
X53418480Y-23924150D01*
X53428970Y-23946329D01*
X53437235Y-23969428D01*
X53443196Y-23993227D01*
X53446796Y-24017495D01*
X53448000Y-24041999D01*
X53448000Y-25742001D01*
X53446796Y-25766505D01*
X53443196Y-25790773D01*
X53437235Y-25814572D01*
X53428970Y-25837671D01*
X53418480Y-25859850D01*
X53405868Y-25880893D01*
X53391253Y-25900599D01*
X53374777Y-25918777D01*
X53356599Y-25935253D01*
X53336893Y-25949868D01*
X53315850Y-25962480D01*
X53293671Y-25972970D01*
X53270572Y-25981235D01*
X53246773Y-25987196D01*
X53222505Y-25990796D01*
X53198001Y-25992000D01*
X51957999Y-25992000D01*
X51933495Y-25990796D01*
X51909227Y-25987196D01*
X51885428Y-25981235D01*
X51862329Y-25972970D01*
X51840150Y-25962480D01*
X51819107Y-25949868D01*
X51799401Y-25935253D01*
X51781223Y-25918777D01*
X51764747Y-25900599D01*
X51750132Y-25880893D01*
X51737520Y-25859850D01*
X51727030Y-25837671D01*
X51718765Y-25814572D01*
X51712804Y-25790773D01*
X51709204Y-25766505D01*
X51708000Y-25742001D01*
X51708000Y-24041999D01*
X51709204Y-24017495D01*
X51712804Y-23993227D01*
X51718765Y-23969428D01*
X51727030Y-23946329D01*
X51737520Y-23924150D01*
X51750132Y-23903107D01*
X51764747Y-23883401D01*
X51781223Y-23865223D01*
X51799401Y-23848747D01*
X51819107Y-23834132D01*
X51840150Y-23821520D01*
X51862329Y-23811030D01*
X51885428Y-23802765D01*
X51909227Y-23796804D01*
X51933495Y-23793204D01*
X51957999Y-23792000D01*
X53198001Y-23792000D01*
X53222505Y-23793204D01*
X53222505Y-23793204D01*
G37*
D16*
X52578000Y-24892000D03*
D15*
X50038000Y-24892000D03*
X47498000Y-24892000D03*
X44958000Y-24892000D03*
X54610000Y-67564000D03*
D10*
G36*
X52714505Y-66465204D02*
X52738773Y-66468804D01*
X52762572Y-66474765D01*
X52785671Y-66483030D01*
X52807850Y-66493520D01*
X52828893Y-66506132D01*
X52848599Y-66520747D01*
X52866777Y-66537223D01*
X52883253Y-66555401D01*
X52897868Y-66575107D01*
X52910480Y-66596150D01*
X52920970Y-66618329D01*
X52929235Y-66641428D01*
X52935196Y-66665227D01*
X52938796Y-66689495D01*
X52940000Y-66713999D01*
X52940000Y-68414001D01*
X52938796Y-68438505D01*
X52935196Y-68462773D01*
X52929235Y-68486572D01*
X52920970Y-68509671D01*
X52910480Y-68531850D01*
X52897868Y-68552893D01*
X52883253Y-68572599D01*
X52866777Y-68590777D01*
X52848599Y-68607253D01*
X52828893Y-68621868D01*
X52807850Y-68634480D01*
X52785671Y-68644970D01*
X52762572Y-68653235D01*
X52738773Y-68659196D01*
X52714505Y-68662796D01*
X52690001Y-68664000D01*
X51449999Y-68664000D01*
X51425495Y-68662796D01*
X51401227Y-68659196D01*
X51377428Y-68653235D01*
X51354329Y-68644970D01*
X51332150Y-68634480D01*
X51311107Y-68621868D01*
X51291401Y-68607253D01*
X51273223Y-68590777D01*
X51256747Y-68572599D01*
X51242132Y-68552893D01*
X51229520Y-68531850D01*
X51219030Y-68509671D01*
X51210765Y-68486572D01*
X51204804Y-68462773D01*
X51201204Y-68438505D01*
X51200000Y-68414001D01*
X51200000Y-66713999D01*
X51201204Y-66689495D01*
X51204804Y-66665227D01*
X51210765Y-66641428D01*
X51219030Y-66618329D01*
X51229520Y-66596150D01*
X51242132Y-66575107D01*
X51256747Y-66555401D01*
X51273223Y-66537223D01*
X51291401Y-66520747D01*
X51311107Y-66506132D01*
X51332150Y-66493520D01*
X51354329Y-66483030D01*
X51377428Y-66474765D01*
X51401227Y-66468804D01*
X51425495Y-66465204D01*
X51449999Y-66464000D01*
X52690001Y-66464000D01*
X52714505Y-66465204D01*
X52714505Y-66465204D01*
G37*
D16*
X52070000Y-67564000D03*
D10*
G36*
X46364505Y-66465204D02*
X46388773Y-66468804D01*
X46412572Y-66474765D01*
X46435671Y-66483030D01*
X46457850Y-66493520D01*
X46478893Y-66506132D01*
X46498599Y-66520747D01*
X46516777Y-66537223D01*
X46533253Y-66555401D01*
X46547868Y-66575107D01*
X46560480Y-66596150D01*
X46570970Y-66618329D01*
X46579235Y-66641428D01*
X46585196Y-66665227D01*
X46588796Y-66689495D01*
X46590000Y-66713999D01*
X46590000Y-68414001D01*
X46588796Y-68438505D01*
X46585196Y-68462773D01*
X46579235Y-68486572D01*
X46570970Y-68509671D01*
X46560480Y-68531850D01*
X46547868Y-68552893D01*
X46533253Y-68572599D01*
X46516777Y-68590777D01*
X46498599Y-68607253D01*
X46478893Y-68621868D01*
X46457850Y-68634480D01*
X46435671Y-68644970D01*
X46412572Y-68653235D01*
X46388773Y-68659196D01*
X46364505Y-68662796D01*
X46340001Y-68664000D01*
X45099999Y-68664000D01*
X45075495Y-68662796D01*
X45051227Y-68659196D01*
X45027428Y-68653235D01*
X45004329Y-68644970D01*
X44982150Y-68634480D01*
X44961107Y-68621868D01*
X44941401Y-68607253D01*
X44923223Y-68590777D01*
X44906747Y-68572599D01*
X44892132Y-68552893D01*
X44879520Y-68531850D01*
X44869030Y-68509671D01*
X44860765Y-68486572D01*
X44854804Y-68462773D01*
X44851204Y-68438505D01*
X44850000Y-68414001D01*
X44850000Y-66713999D01*
X44851204Y-66689495D01*
X44854804Y-66665227D01*
X44860765Y-66641428D01*
X44869030Y-66618329D01*
X44879520Y-66596150D01*
X44892132Y-66575107D01*
X44906747Y-66555401D01*
X44923223Y-66537223D01*
X44941401Y-66520747D01*
X44961107Y-66506132D01*
X44982150Y-66493520D01*
X45004329Y-66483030D01*
X45027428Y-66474765D01*
X45051227Y-66468804D01*
X45075495Y-66465204D01*
X45099999Y-66464000D01*
X46340001Y-66464000D01*
X46364505Y-66465204D01*
X46364505Y-66465204D01*
G37*
D16*
X45720000Y-67564000D03*
D15*
X48260000Y-67564000D03*
D23*
X27940000Y-66040000D03*
X60960000Y-25400000D03*
X88900000Y-25400000D03*
X88900000Y-66040000D03*
D24*
X41656000Y-43434000D03*
X59436000Y-49174000D03*
X46736000Y-54356000D03*
X67056000Y-44450000D03*
X57912000Y-38100000D03*
X52115041Y-56687041D03*
X38100000Y-46736000D03*
X69088000Y-41402000D03*
X48251000Y-32775000D03*
X31750000Y-45212000D03*
X38608000Y-44424000D03*
X43848959Y-35974959D03*
X42164000Y-36830000D03*
X43688000Y-45174000D03*
X43434000Y-42672000D03*
X52578000Y-51308000D03*
X41148000Y-41402000D03*
X40640000Y-37592000D03*
X56388000Y-60960000D03*
X56896000Y-57912000D03*
X57150000Y-55880000D03*
X55880000Y-55880000D03*
X61976000Y-58166000D03*
X61976000Y-55118000D03*
X79756000Y-46736000D03*
X76454000Y-50038000D03*
X63500000Y-54864000D03*
X47498000Y-45974000D03*
X48768000Y-48324000D03*
X44704000Y-52832000D03*
X48768000Y-45924000D03*
X57150000Y-45212000D03*
X55626000Y-45212000D03*
D25*
X57876000Y-50002000D02*
X56134000Y-48260000D01*
X57876000Y-54074000D02*
X57876000Y-50002000D01*
X58704000Y-49174000D02*
X57876000Y-50002000D01*
X61976000Y-49174000D02*
X59436000Y-49174000D01*
X54676000Y-46802000D02*
X56134000Y-48260000D01*
X54676000Y-42674000D02*
X54676000Y-46802000D01*
X51626000Y-49174000D02*
X50576000Y-49174000D01*
X54654315Y-49174000D02*
X51626000Y-49174000D01*
X55568315Y-48260000D02*
X54654315Y-49174000D01*
X56134000Y-48260000D02*
X55568315Y-48260000D01*
X64026000Y-51580000D02*
X65024000Y-51580000D01*
X63754000Y-51308000D02*
X64026000Y-51580000D01*
X63754000Y-49902000D02*
X63754000Y-51308000D01*
X61976000Y-49174000D02*
X63026000Y-49174000D01*
X63026000Y-49174000D02*
X63754000Y-49902000D01*
X59436000Y-49174000D02*
X58704000Y-49174000D01*
X49526000Y-49974000D02*
X50576000Y-49974000D01*
X49427000Y-49974000D02*
X49526000Y-49974000D01*
X48260000Y-51141000D02*
X49427000Y-49974000D01*
X48260000Y-51816000D02*
X48260000Y-51141000D01*
X58674000Y-54076000D02*
X58676000Y-54074000D01*
X58674000Y-56642000D02*
X58674000Y-54076000D01*
X53876000Y-41356000D02*
X55354000Y-39878000D01*
X53876000Y-42674000D02*
X53876000Y-41356000D01*
D26*
X69088000Y-46736000D02*
X67056000Y-46736000D01*
X69088000Y-44958000D02*
X69088000Y-46736000D01*
D25*
X69088000Y-46736000D02*
X70612000Y-48260000D01*
X70612000Y-48260000D02*
X70612000Y-54102000D01*
X68072000Y-56642000D02*
X58674000Y-56642000D01*
X70612000Y-54102000D02*
X68072000Y-56642000D01*
X58674000Y-56642000D02*
X53594000Y-56642000D01*
X46736000Y-53340000D02*
X48260000Y-51816000D01*
X46736000Y-54356000D02*
X46736000Y-53340000D01*
X67056000Y-46736000D02*
X67056000Y-44450000D01*
X57132000Y-38100000D02*
X55354000Y-39878000D01*
X57912000Y-38100000D02*
X57132000Y-38100000D01*
X53594000Y-56642000D02*
X52160082Y-56642000D01*
X52160082Y-56642000D02*
X52115041Y-56687041D01*
X65768000Y-48786000D02*
X65024000Y-49530000D01*
X67056000Y-48786000D02*
X65768000Y-48786000D01*
X65024000Y-49530000D02*
X63868000Y-48374000D01*
X63868000Y-48374000D02*
X62738000Y-48374000D01*
X63026000Y-48374000D02*
X62738000Y-48374000D01*
X62738000Y-48374000D02*
X61976000Y-48374000D01*
X67056000Y-52324000D02*
X66802000Y-52578000D01*
X67056000Y-48786000D02*
X67056000Y-52324000D01*
D26*
X38100000Y-46736000D02*
X40386000Y-46736000D01*
X40737000Y-46385000D02*
X40386000Y-46736000D01*
X43504000Y-46385000D02*
X40737000Y-46385000D01*
X69088000Y-41402000D02*
X69088000Y-42908000D01*
D25*
X45870000Y-35156000D02*
X48251000Y-32775000D01*
X40894000Y-35156000D02*
X45870000Y-35156000D01*
X48251000Y-32775000D02*
X48251000Y-29709000D01*
X46698000Y-28156000D02*
X40894000Y-28156000D01*
X48251000Y-29709000D02*
X46698000Y-28156000D01*
X48251000Y-29709000D02*
X48251000Y-27677000D01*
X47730000Y-27156000D02*
X40894000Y-27156000D01*
X48251000Y-27677000D02*
X47730000Y-27156000D01*
D26*
X30226000Y-42935000D02*
X30226000Y-45212000D01*
D25*
X30226000Y-45212000D02*
X31750000Y-45212000D01*
X50500000Y-44450000D02*
X50576000Y-44374000D01*
X50526000Y-44424000D02*
X50576000Y-44374000D01*
X44196000Y-44424000D02*
X44196000Y-36322000D01*
X44196000Y-36322000D02*
X43848959Y-35974959D01*
X44196000Y-44424000D02*
X50526000Y-44424000D01*
X38608000Y-44424000D02*
X44196000Y-44424000D01*
X38071000Y-45174000D02*
X38354000Y-45174000D01*
X38354000Y-45174000D02*
X42926000Y-45174000D01*
X36614000Y-45174000D02*
X38354000Y-45174000D01*
X35569000Y-44129000D02*
X36614000Y-45174000D01*
X42926000Y-45174000D02*
X43688000Y-45174000D01*
X35569000Y-44129000D02*
X35569000Y-42672000D01*
X35560000Y-42663000D02*
X35569000Y-42672000D01*
X35560000Y-40640000D02*
X35560000Y-42663000D01*
X43688000Y-45174000D02*
X50576000Y-45174000D01*
X42926000Y-37592000D02*
X42164000Y-36830000D01*
X43434000Y-42672000D02*
X43434000Y-38100000D01*
X43434000Y-38100000D02*
X42926000Y-37592000D01*
D26*
X39887000Y-39370000D02*
X39887000Y-41402000D01*
D25*
X52312000Y-51574000D02*
X50576000Y-51574000D01*
X52578000Y-51308000D02*
X52312000Y-51574000D01*
X39887000Y-41402000D02*
X41148000Y-41402000D01*
X39887000Y-39370000D02*
X39887000Y-38345000D01*
X39887000Y-38345000D02*
X40640000Y-37592000D01*
D26*
X52324000Y-35814000D02*
X53848000Y-34290000D01*
X52324000Y-37592000D02*
X52324000Y-35814000D01*
X38100000Y-57150000D02*
X38100000Y-58420000D01*
X38354000Y-56896000D02*
X38100000Y-57150000D01*
X48768000Y-56896000D02*
X38354000Y-56896000D01*
X50576000Y-52374000D02*
X50576000Y-55088000D01*
X50576000Y-55088000D02*
X48768000Y-56896000D01*
X52276000Y-55324000D02*
X51054000Y-56546000D01*
X52276000Y-54074000D02*
X52276000Y-55324000D01*
X51054000Y-56546000D02*
X51054000Y-58420000D01*
X51054000Y-58420000D02*
X49276000Y-60198000D01*
X42418000Y-60198000D02*
X40640000Y-58420000D01*
X49276000Y-60198000D02*
X42418000Y-60198000D01*
D25*
X56388000Y-60960000D02*
X56388000Y-58420000D01*
X56388000Y-58420000D02*
X56896000Y-57912000D01*
X57150000Y-54148000D02*
X57076000Y-54074000D01*
X57150000Y-55880000D02*
X57150000Y-54148000D01*
X56276000Y-55484000D02*
X56276000Y-54074000D01*
X55880000Y-55880000D02*
X56276000Y-55484000D01*
X63208000Y-46774000D02*
X61976000Y-46774000D01*
X64770000Y-41148000D02*
X64770000Y-45212000D01*
X66040000Y-39878000D02*
X64770000Y-41148000D01*
X69088000Y-28194000D02*
X69088000Y-27964000D01*
X64770000Y-45212000D02*
X63208000Y-46774000D01*
X70890000Y-26162000D02*
X76708000Y-26162000D01*
X77724000Y-27178000D02*
X77724000Y-37029120D01*
X74875120Y-39878000D02*
X66040000Y-39878000D01*
X69088000Y-27964000D02*
X70890000Y-26162000D01*
X76708000Y-26162000D02*
X77724000Y-27178000D01*
X77724000Y-37029120D02*
X74875120Y-39878000D01*
X61976000Y-45974000D02*
X63246000Y-45974000D01*
X63246000Y-45974000D02*
X64254010Y-44965990D01*
X75692000Y-28424000D02*
X77216000Y-29948000D01*
X75692000Y-28194000D02*
X75692000Y-28424000D01*
X77216000Y-29948000D02*
X77216000Y-36830000D01*
X77216000Y-36830000D02*
X74676000Y-39370000D01*
X64254010Y-40393990D02*
X64254010Y-42926000D01*
X74676000Y-39370000D02*
X65278000Y-39370000D01*
X65278000Y-39370000D02*
X64254010Y-40393990D01*
X64254010Y-44965990D02*
X64254010Y-42926000D01*
X64254010Y-42926000D02*
X64254010Y-42425990D01*
X61976000Y-45174000D02*
X63284000Y-45174000D01*
X63284000Y-45174000D02*
X63754000Y-44704000D01*
X65378000Y-35306000D02*
X63754000Y-36930000D01*
X66548000Y-35306000D02*
X65378000Y-35306000D01*
X63754000Y-36930000D02*
X63754000Y-42672000D01*
X63754000Y-44704000D02*
X63754000Y-42672000D01*
X63754000Y-42672000D02*
X63754000Y-42418000D01*
X63026000Y-44374000D02*
X63246000Y-44154000D01*
X61976000Y-44374000D02*
X63026000Y-44374000D01*
X73152000Y-33906000D02*
X72520000Y-33274000D01*
X73152000Y-35306000D02*
X73152000Y-33906000D01*
X63246000Y-36652646D02*
X63246000Y-42672000D01*
X66624646Y-33274000D02*
X63246000Y-36652646D01*
X72520000Y-33274000D02*
X66624646Y-33274000D01*
X63246000Y-44154000D02*
X63246000Y-42672000D01*
X63246000Y-42672000D02*
X63246000Y-42418000D01*
X82296000Y-40012000D02*
X71628000Y-50680000D01*
X82296000Y-38862000D02*
X82296000Y-40012000D01*
X71628000Y-50680000D02*
X71628000Y-54356000D01*
X71628000Y-54356000D02*
X67818000Y-58166000D01*
X67818000Y-58166000D02*
X61976000Y-58166000D01*
X61976000Y-55118000D02*
X61976000Y-52374000D01*
X79756000Y-46736000D02*
X76454000Y-50038000D01*
X63026000Y-51574000D02*
X61976000Y-51574000D01*
X63500000Y-52048000D02*
X63026000Y-51574000D01*
X63500000Y-54864000D02*
X63500000Y-52048000D01*
D26*
X30226000Y-40210000D02*
X30226000Y-40885000D01*
X30226000Y-34774000D02*
X30226000Y-40210000D01*
X30844000Y-34156000D02*
X30226000Y-34774000D01*
X32094000Y-34156000D02*
X30844000Y-34156000D01*
X32094000Y-39224000D02*
X33510000Y-40640000D01*
X32094000Y-35156000D02*
X32094000Y-39224000D01*
X36494000Y-38027000D02*
X37837000Y-39370000D01*
X36494000Y-35956000D02*
X36494000Y-38027000D01*
X53076000Y-40394000D02*
X53076000Y-42674000D01*
X52324000Y-39642000D02*
X53076000Y-40394000D01*
D25*
X45904000Y-46385000D02*
X47087000Y-46385000D01*
X47087000Y-46385000D02*
X47498000Y-45974000D01*
X50526000Y-48324000D02*
X50576000Y-48374000D01*
X48768000Y-48324000D02*
X50526000Y-48324000D01*
X44704000Y-50135000D02*
X44704000Y-52832000D01*
D26*
X44704000Y-50135000D02*
X45904000Y-50135000D01*
X43504000Y-50135000D02*
X44704000Y-50135000D01*
D25*
X50526000Y-45924000D02*
X50576000Y-45974000D01*
X48768000Y-45924000D02*
X50526000Y-45924000D01*
X49526000Y-47574000D02*
X50576000Y-47574000D01*
X48170000Y-47574000D02*
X49526000Y-47574000D01*
X46859000Y-48885000D02*
X48170000Y-47574000D01*
X45904000Y-48885000D02*
X46859000Y-48885000D01*
X49526000Y-46774000D02*
X50576000Y-46774000D01*
X46859000Y-47635000D02*
X47720000Y-46774000D01*
X47720000Y-46774000D02*
X49526000Y-46774000D01*
X45904000Y-47635000D02*
X46859000Y-47635000D01*
X57076000Y-42674000D02*
X57076000Y-45138000D01*
X57076000Y-45138000D02*
X57150000Y-45212000D01*
X56276000Y-42674000D02*
X56276000Y-44562000D01*
X56276000Y-44562000D02*
X55626000Y-45212000D01*
D27*
G36*
X30709000Y-22379691D02*
X30709000Y-22720250D01*
X30867750Y-22879000D01*
X31967000Y-22879000D01*
X31967000Y-22859000D01*
X32221000Y-22859000D01*
X32221000Y-22879000D01*
X32241000Y-22879000D01*
X32241000Y-23133000D01*
X32221000Y-23133000D01*
X32221000Y-24029000D01*
X32241000Y-24029000D01*
X32241000Y-24158560D01*
X31344000Y-24158560D01*
X31096235Y-24207843D01*
X30983755Y-24283000D01*
X30867750Y-24283000D01*
X30709000Y-24441750D01*
X30709000Y-24632309D01*
X30723936Y-24668368D01*
X30696560Y-24806000D01*
X30696560Y-25506000D01*
X30726397Y-25656000D01*
X30696560Y-25806000D01*
X30696560Y-26506000D01*
X30723936Y-26643632D01*
X30709000Y-26679691D01*
X30709000Y-26870250D01*
X30867750Y-27029000D01*
X30983755Y-27029000D01*
X31096235Y-27104157D01*
X31344000Y-27153440D01*
X32844000Y-27153440D01*
X33091765Y-27104157D01*
X33171319Y-27051000D01*
X39496560Y-27051000D01*
X39496560Y-27506000D01*
X39526397Y-27656000D01*
X39496560Y-27806000D01*
X39496560Y-28506000D01*
X39526397Y-28656000D01*
X39496560Y-28806000D01*
X39496560Y-29506000D01*
X39526397Y-29656000D01*
X39496560Y-29806000D01*
X39496560Y-30506000D01*
X39523936Y-30643632D01*
X39509000Y-30679691D01*
X39509000Y-30870250D01*
X39667750Y-31029000D01*
X39783755Y-31029000D01*
X39896235Y-31104157D01*
X40144000Y-31153440D01*
X41644000Y-31153440D01*
X41891765Y-31104157D01*
X42004245Y-31029000D01*
X42120250Y-31029000D01*
X42279000Y-30870250D01*
X42279000Y-30679691D01*
X42264064Y-30643632D01*
X42291440Y-30506000D01*
X42291440Y-29806000D01*
X42261603Y-29656000D01*
X42291440Y-29506000D01*
X42291440Y-28941000D01*
X46372843Y-28941000D01*
X47466001Y-30034158D01*
X47466000Y-32096289D01*
X47373569Y-32188720D01*
X47216000Y-32569126D01*
X47216000Y-32699842D01*
X45544843Y-34371000D01*
X42291440Y-34371000D01*
X42291440Y-33806000D01*
X42261603Y-33656000D01*
X42291440Y-33506000D01*
X42291440Y-32806000D01*
X42264064Y-32668368D01*
X42279000Y-32632309D01*
X42279000Y-32441750D01*
X42120250Y-32283000D01*
X42004245Y-32283000D01*
X41891765Y-32207843D01*
X41644000Y-32158560D01*
X40144000Y-32158560D01*
X39896235Y-32207843D01*
X39783755Y-32283000D01*
X39667750Y-32283000D01*
X39509000Y-32441750D01*
X39509000Y-32632309D01*
X39523936Y-32668368D01*
X39496560Y-32806000D01*
X39496560Y-33506000D01*
X39526397Y-33656000D01*
X39496560Y-33806000D01*
X39496560Y-34506000D01*
X39526397Y-34656000D01*
X39496560Y-34806000D01*
X39496560Y-35506000D01*
X39545843Y-35753765D01*
X39686191Y-35963809D01*
X39896235Y-36104157D01*
X40144000Y-36153440D01*
X41376849Y-36153440D01*
X41286569Y-36243720D01*
X41129000Y-36624126D01*
X41129000Y-36674274D01*
X40845874Y-36557000D01*
X40434126Y-36557000D01*
X40053720Y-36714569D01*
X39762569Y-37005720D01*
X39605000Y-37386126D01*
X39605000Y-37516843D01*
X39386590Y-37735253D01*
X39321048Y-37779047D01*
X39277254Y-37844589D01*
X39277251Y-37844592D01*
X39147546Y-38038709D01*
X39124694Y-38153595D01*
X38927414Y-38285414D01*
X38862000Y-38383313D01*
X38796586Y-38285414D01*
X38505436Y-38090873D01*
X38162001Y-38022560D01*
X37741138Y-38022560D01*
X37379000Y-37660422D01*
X37379000Y-37353440D01*
X37844000Y-37353440D01*
X37981632Y-37326064D01*
X38017691Y-37341000D01*
X38208250Y-37341000D01*
X38367000Y-37182250D01*
X38367000Y-37066245D01*
X38442157Y-36953765D01*
X38491440Y-36706000D01*
X38491440Y-36083000D01*
X38621000Y-36083000D01*
X38621000Y-37182250D01*
X38779750Y-37341000D01*
X38970309Y-37341000D01*
X39203698Y-37244327D01*
X39382327Y-37065699D01*
X39479000Y-36832310D01*
X39479000Y-36241750D01*
X39320250Y-36083000D01*
X38621000Y-36083000D01*
X38491440Y-36083000D01*
X38491440Y-35206000D01*
X38442157Y-34958235D01*
X38367000Y-34845755D01*
X38367000Y-34729750D01*
X38621000Y-34729750D01*
X38621000Y-35829000D01*
X39320250Y-35829000D01*
X39479000Y-35670250D01*
X39479000Y-35079690D01*
X39382327Y-34846301D01*
X39203698Y-34667673D01*
X38970309Y-34571000D01*
X38779750Y-34571000D01*
X38621000Y-34729750D01*
X38367000Y-34729750D01*
X38208250Y-34571000D01*
X38017691Y-34571000D01*
X37981632Y-34585936D01*
X37844000Y-34558560D01*
X37144000Y-34558560D01*
X36994000Y-34588397D01*
X36844000Y-34558560D01*
X36144000Y-34558560D01*
X35994000Y-34588397D01*
X35844000Y-34558560D01*
X35144000Y-34558560D01*
X35006368Y-34585936D01*
X34970309Y-34571000D01*
X34779750Y-34571000D01*
X34621000Y-34729750D01*
X34621000Y-34845755D01*
X34545843Y-34958235D01*
X34496560Y-35206000D01*
X34496560Y-36706000D01*
X34545843Y-36953765D01*
X34621000Y-37066245D01*
X34621000Y-37182250D01*
X34779750Y-37341000D01*
X34970309Y-37341000D01*
X35006368Y-37326064D01*
X35144000Y-37353440D01*
X35609001Y-37353440D01*
X35609001Y-37939835D01*
X35591663Y-38027000D01*
X35660348Y-38372309D01*
X35806576Y-38591154D01*
X35806578Y-38591156D01*
X35855952Y-38665049D01*
X35929845Y-38714423D01*
X36614560Y-39399139D01*
X36614560Y-39697552D01*
X36519586Y-39555414D01*
X36228436Y-39360873D01*
X35885001Y-39292560D01*
X35234999Y-39292560D01*
X34891564Y-39360873D01*
X34600414Y-39555414D01*
X34535000Y-39653313D01*
X34469586Y-39555414D01*
X34178436Y-39360873D01*
X33835001Y-39292560D01*
X33414138Y-39292560D01*
X32979000Y-38857422D01*
X32979000Y-36241750D01*
X33509000Y-36241750D01*
X33509000Y-36832310D01*
X33605673Y-37065699D01*
X33784302Y-37244327D01*
X34017691Y-37341000D01*
X34208250Y-37341000D01*
X34367000Y-37182250D01*
X34367000Y-36083000D01*
X33667750Y-36083000D01*
X33509000Y-36241750D01*
X32979000Y-36241750D01*
X32979000Y-36126587D01*
X33091765Y-36104157D01*
X33301809Y-35963809D01*
X33442157Y-35753765D01*
X33491440Y-35506000D01*
X33491440Y-35079690D01*
X33509000Y-35079690D01*
X33509000Y-35670250D01*
X33667750Y-35829000D01*
X34367000Y-35829000D01*
X34367000Y-34729750D01*
X34208250Y-34571000D01*
X34017691Y-34571000D01*
X33784302Y-34667673D01*
X33605673Y-34846301D01*
X33509000Y-35079690D01*
X33491440Y-35079690D01*
X33491440Y-34806000D01*
X33461603Y-34656000D01*
X33491440Y-34506000D01*
X33491440Y-33806000D01*
X33461603Y-33656000D01*
X33491440Y-33506000D01*
X33491440Y-32806000D01*
X33461603Y-32656000D01*
X33491440Y-32506000D01*
X33491440Y-31806000D01*
X33464064Y-31668368D01*
X33479000Y-31632309D01*
X33479000Y-31441750D01*
X39509000Y-31441750D01*
X39509000Y-31632309D01*
X39518813Y-31656000D01*
X39509000Y-31679691D01*
X39509000Y-31870250D01*
X39667750Y-32029000D01*
X39768974Y-32029000D01*
X39784301Y-32044327D01*
X40017690Y-32141000D01*
X40608250Y-32141000D01*
X40720250Y-32029000D01*
X40767000Y-32029000D01*
X40767000Y-31283000D01*
X41021000Y-31283000D01*
X41021000Y-32029000D01*
X41067750Y-32029000D01*
X41179750Y-32141000D01*
X41770310Y-32141000D01*
X42003699Y-32044327D01*
X42019026Y-32029000D01*
X42120250Y-32029000D01*
X42279000Y-31870250D01*
X42279000Y-31679691D01*
X42269187Y-31656000D01*
X42279000Y-31632309D01*
X42279000Y-31441750D01*
X42120250Y-31283000D01*
X42019026Y-31283000D01*
X42003699Y-31267673D01*
X41770310Y-31171000D01*
X41179750Y-31171000D01*
X41067750Y-31283000D01*
X41021000Y-31283000D01*
X40767000Y-31283000D01*
X40720250Y-31283000D01*
X40608250Y-31171000D01*
X40017690Y-31171000D01*
X39784301Y-31267673D01*
X39768974Y-31283000D01*
X39667750Y-31283000D01*
X39509000Y-31441750D01*
X33479000Y-31441750D01*
X33320250Y-31283000D01*
X33204245Y-31283000D01*
X33091765Y-31207843D01*
X32844000Y-31158560D01*
X31344000Y-31158560D01*
X31096235Y-31207843D01*
X30983755Y-31283000D01*
X30867750Y-31283000D01*
X30709000Y-31441750D01*
X30709000Y-31632309D01*
X30723936Y-31668368D01*
X30696560Y-31806000D01*
X30696560Y-32506000D01*
X30726397Y-32656000D01*
X30696560Y-32806000D01*
X30696560Y-33282989D01*
X30498690Y-33322348D01*
X30279845Y-33468576D01*
X30279844Y-33468577D01*
X30205951Y-33517951D01*
X30156577Y-33591844D01*
X29661846Y-34086575D01*
X29587951Y-34135951D01*
X29392348Y-34428691D01*
X29341000Y-34686836D01*
X29341000Y-34686839D01*
X29323663Y-34774000D01*
X29341000Y-34861161D01*
X29341001Y-39792054D01*
X29141414Y-39925414D01*
X28946873Y-40216564D01*
X28878560Y-40559999D01*
X28878560Y-41210001D01*
X28946873Y-41553436D01*
X29141414Y-41844586D01*
X29239313Y-41910000D01*
X29141414Y-41975414D01*
X28946873Y-42266564D01*
X28878560Y-42609999D01*
X28878560Y-43260001D01*
X28946873Y-43603436D01*
X29141414Y-43894586D01*
X29341000Y-44027946D01*
X29341001Y-44119054D01*
X29141414Y-44252414D01*
X28946873Y-44543564D01*
X28878560Y-44886999D01*
X28878560Y-45537001D01*
X28946873Y-45880436D01*
X29141414Y-46171586D01*
X29142597Y-46172377D01*
X28987673Y-46327302D01*
X28891000Y-46560691D01*
X28891000Y-46976250D01*
X29049750Y-47135000D01*
X30099000Y-47135000D01*
X30099000Y-47115000D01*
X30353000Y-47115000D01*
X30353000Y-47135000D01*
X31402250Y-47135000D01*
X31561000Y-46976250D01*
X31561000Y-46560691D01*
X31464327Y-46327302D01*
X31309403Y-46172377D01*
X31310586Y-46171586D01*
X31321744Y-46154887D01*
X31544126Y-46247000D01*
X31955874Y-46247000D01*
X32336280Y-46089431D01*
X32627431Y-45798280D01*
X32785000Y-45417874D01*
X32785000Y-45006126D01*
X32627431Y-44625720D01*
X32336280Y-44334569D01*
X31955874Y-44177000D01*
X31544126Y-44177000D01*
X31321744Y-44269113D01*
X31310586Y-44252414D01*
X31111000Y-44119054D01*
X31111000Y-44027946D01*
X31310586Y-43894586D01*
X31505127Y-43603436D01*
X31573440Y-43260001D01*
X31573440Y-42957750D01*
X32309000Y-42957750D01*
X32309000Y-43498310D01*
X32405673Y-43731699D01*
X32584302Y-43910327D01*
X32817691Y-44007000D01*
X33233250Y-44007000D01*
X33392000Y-43848250D01*
X33392000Y-42799000D01*
X32467750Y-42799000D01*
X32309000Y-42957750D01*
X31573440Y-42957750D01*
X31573440Y-42609999D01*
X31505127Y-42266564D01*
X31310586Y-41975414D01*
X31212687Y-41910000D01*
X31310586Y-41844586D01*
X31505127Y-41553436D01*
X31573440Y-41210001D01*
X31573440Y-40559999D01*
X31505127Y-40216564D01*
X31310586Y-39925414D01*
X31111000Y-39792054D01*
X31111000Y-36107094D01*
X31209000Y-36126587D01*
X31209001Y-39136835D01*
X31191663Y-39224000D01*
X31260348Y-39569309D01*
X31406576Y-39788154D01*
X31406578Y-39788156D01*
X31455952Y-39862049D01*
X31529845Y-39911423D01*
X32287560Y-40669139D01*
X32287560Y-41090001D01*
X32355873Y-41433436D01*
X32447464Y-41570511D01*
X32405673Y-41612301D01*
X32309000Y-41845690D01*
X32309000Y-42386250D01*
X32467750Y-42545000D01*
X33392000Y-42545000D01*
X33392000Y-42525000D01*
X33646000Y-42525000D01*
X33646000Y-42545000D01*
X33666000Y-42545000D01*
X33666000Y-42799000D01*
X33646000Y-42799000D01*
X33646000Y-43848250D01*
X33804750Y-44007000D01*
X34220309Y-44007000D01*
X34453698Y-43910327D01*
X34608623Y-43755403D01*
X34609414Y-43756586D01*
X34784000Y-43873241D01*
X34784000Y-44051688D01*
X34768622Y-44129000D01*
X34784000Y-44206312D01*
X34784000Y-44206315D01*
X34813822Y-44356241D01*
X34829546Y-44435291D01*
X34846251Y-44460291D01*
X35003047Y-44694953D01*
X35068592Y-44738749D01*
X36004253Y-45674411D01*
X36048047Y-45739953D01*
X36113589Y-45783747D01*
X36113591Y-45783749D01*
X36188625Y-45833885D01*
X36307708Y-45913454D01*
X36536684Y-45959000D01*
X36536688Y-45959000D01*
X36613999Y-45974378D01*
X36691310Y-45959000D01*
X37413289Y-45959000D01*
X37222569Y-46149720D01*
X37065000Y-46530126D01*
X37065000Y-46941874D01*
X37222569Y-47322280D01*
X37513720Y-47613431D01*
X37894126Y-47771000D01*
X38305874Y-47771000D01*
X38668007Y-47621000D01*
X39251577Y-47621000D01*
X39301414Y-47695586D01*
X39302597Y-47696377D01*
X39147673Y-47851302D01*
X39051000Y-48084691D01*
X39051000Y-48500250D01*
X39209750Y-48659000D01*
X40259000Y-48659000D01*
X40259000Y-48639000D01*
X40513000Y-48639000D01*
X40513000Y-48659000D01*
X41562250Y-48659000D01*
X41721000Y-48500250D01*
X41721000Y-48084691D01*
X41653094Y-47920750D01*
X42214000Y-47920750D01*
X42214000Y-48026310D01*
X42310673Y-48259699D01*
X42310974Y-48260000D01*
X42310673Y-48260301D01*
X42214000Y-48493690D01*
X42214000Y-48599250D01*
X42372750Y-48758000D01*
X43377000Y-48758000D01*
X43377000Y-47762000D01*
X42372750Y-47762000D01*
X42214000Y-47920750D01*
X41653094Y-47920750D01*
X41624327Y-47851302D01*
X41469403Y-47696377D01*
X41470586Y-47695586D01*
X41665127Y-47404436D01*
X41691868Y-47270000D01*
X42214000Y-47270000D01*
X42214000Y-47349250D01*
X42372750Y-47508000D01*
X43377000Y-47508000D01*
X43377000Y-47488000D01*
X43631000Y-47488000D01*
X43631000Y-47508000D01*
X43651000Y-47508000D01*
X43651000Y-47762000D01*
X43631000Y-47762000D01*
X43631000Y-48758000D01*
X43651000Y-48758000D01*
X43651000Y-49012000D01*
X43631000Y-49012000D01*
X43631000Y-49032000D01*
X43377000Y-49032000D01*
X43377000Y-49012000D01*
X42372750Y-49012000D01*
X42214000Y-49170750D01*
X42214000Y-49276310D01*
X42310673Y-49509699D01*
X42319883Y-49518909D01*
X42250843Y-49622235D01*
X42201560Y-49870000D01*
X42201560Y-50400000D01*
X42250843Y-50647765D01*
X42391191Y-50857809D01*
X42601235Y-50998157D01*
X42849000Y-51047440D01*
X43919000Y-51047440D01*
X43919001Y-52153288D01*
X43826569Y-52245720D01*
X43669000Y-52626126D01*
X43669000Y-53037874D01*
X43826569Y-53418280D01*
X44117720Y-53709431D01*
X44498126Y-53867000D01*
X44909874Y-53867000D01*
X45290280Y-53709431D01*
X45581431Y-53418280D01*
X45739000Y-53037874D01*
X45739000Y-52626126D01*
X45581431Y-52245720D01*
X45489000Y-52153289D01*
X45489000Y-51047440D01*
X46559000Y-51047440D01*
X46806765Y-50998157D01*
X47016809Y-50857809D01*
X47157157Y-50647765D01*
X47206440Y-50400000D01*
X47206440Y-49870000D01*
X47157891Y-49625926D01*
X47165292Y-49624454D01*
X47424953Y-49450953D01*
X47468749Y-49385408D01*
X47917223Y-48936934D01*
X48181720Y-49201431D01*
X48562126Y-49359000D01*
X48934450Y-49359000D01*
X48926591Y-49364251D01*
X48926589Y-49364253D01*
X48861047Y-49408047D01*
X48817253Y-49473589D01*
X47759590Y-50531253D01*
X47694048Y-50575047D01*
X47662009Y-50622997D01*
X47466564Y-50661873D01*
X47175414Y-50856414D01*
X46980873Y-51147564D01*
X46912560Y-51490999D01*
X46912560Y-52053283D01*
X46235590Y-52730253D01*
X46170048Y-52774047D01*
X46126254Y-52839589D01*
X46126251Y-52839592D01*
X45996546Y-53033709D01*
X45935622Y-53340000D01*
X45951001Y-53417316D01*
X45951001Y-53677288D01*
X45858569Y-53769720D01*
X45701000Y-54150126D01*
X45701000Y-54561874D01*
X45858569Y-54942280D01*
X46149720Y-55233431D01*
X46530126Y-55391000D01*
X46941874Y-55391000D01*
X47322280Y-55233431D01*
X47479711Y-55076000D01*
X47974250Y-55076000D01*
X48133000Y-54917250D01*
X48133000Y-53993000D01*
X48387000Y-53993000D01*
X48387000Y-54917250D01*
X48545750Y-55076000D01*
X49086310Y-55076000D01*
X49319699Y-54979327D01*
X49498327Y-54800698D01*
X49595000Y-54567309D01*
X49595000Y-54151750D01*
X49436250Y-53993000D01*
X48387000Y-53993000D01*
X48133000Y-53993000D01*
X48113000Y-53993000D01*
X48113000Y-53739000D01*
X48133000Y-53739000D01*
X48133000Y-53719000D01*
X48387000Y-53719000D01*
X48387000Y-53739000D01*
X49436250Y-53739000D01*
X49595000Y-53580250D01*
X49595000Y-53250492D01*
X49691000Y-53269587D01*
X49691001Y-54721420D01*
X48401422Y-56011000D01*
X38441159Y-56011000D01*
X38353999Y-55993663D01*
X38266840Y-56011000D01*
X38266835Y-56011000D01*
X38008690Y-56062348D01*
X37715951Y-56257951D01*
X37666576Y-56331846D01*
X37535847Y-56462575D01*
X37461951Y-56511951D01*
X37266348Y-56804691D01*
X37215000Y-57062836D01*
X37215000Y-57062839D01*
X37197663Y-57150000D01*
X37212925Y-57226731D01*
X37029375Y-57349375D01*
X36830000Y-57647761D01*
X36630625Y-57349375D01*
X36139418Y-57021161D01*
X35706256Y-56935000D01*
X35413744Y-56935000D01*
X34980582Y-57021161D01*
X34489375Y-57349375D01*
X34276157Y-57668478D01*
X34215183Y-57538642D01*
X33786924Y-57148355D01*
X33376890Y-56978524D01*
X33147000Y-57099845D01*
X33147000Y-58293000D01*
X33167000Y-58293000D01*
X33167000Y-58547000D01*
X33147000Y-58547000D01*
X33147000Y-59740155D01*
X33376890Y-59861476D01*
X33786924Y-59691645D01*
X34215183Y-59301358D01*
X34276157Y-59171522D01*
X34489375Y-59490625D01*
X34980582Y-59818839D01*
X35413744Y-59905000D01*
X35706256Y-59905000D01*
X36139418Y-59818839D01*
X36630625Y-59490625D01*
X36830000Y-59192239D01*
X37029375Y-59490625D01*
X37520582Y-59818839D01*
X37953744Y-59905000D01*
X38246256Y-59905000D01*
X38679418Y-59818839D01*
X39170625Y-59490625D01*
X39370000Y-59192239D01*
X39569375Y-59490625D01*
X40060582Y-59818839D01*
X40493744Y-59905000D01*
X40786256Y-59905000D01*
X40858960Y-59890538D01*
X41730577Y-60762156D01*
X41779951Y-60836049D01*
X41853844Y-60885423D01*
X41853845Y-60885424D01*
X42072690Y-61031652D01*
X42330835Y-61083000D01*
X42330839Y-61083000D01*
X42418000Y-61100337D01*
X42505161Y-61083000D01*
X49188839Y-61083000D01*
X49276000Y-61100337D01*
X49363161Y-61083000D01*
X49363165Y-61083000D01*
X49621310Y-61031652D01*
X49914049Y-60836049D01*
X49963425Y-60762153D01*
X51618156Y-59107423D01*
X51692049Y-59058049D01*
X51741425Y-58984154D01*
X51887652Y-58765310D01*
X51895413Y-58726291D01*
X51939000Y-58507165D01*
X51939000Y-58507161D01*
X51956337Y-58420000D01*
X51939000Y-58332839D01*
X51939000Y-57722041D01*
X52320915Y-57722041D01*
X52701321Y-57564472D01*
X52838793Y-57427000D01*
X55976618Y-57427000D01*
X55861000Y-57706126D01*
X55861000Y-57828020D01*
X55822048Y-57854047D01*
X55778254Y-57919589D01*
X55778251Y-57919592D01*
X55648546Y-58113709D01*
X55587622Y-58420000D01*
X55603001Y-58497317D01*
X55603000Y-60281289D01*
X55510569Y-60373720D01*
X55353000Y-60754126D01*
X55353000Y-61165874D01*
X55510569Y-61546280D01*
X55801720Y-61837431D01*
X56182126Y-61995000D01*
X56593874Y-61995000D01*
X56974280Y-61837431D01*
X57265431Y-61546280D01*
X57423000Y-61165874D01*
X57423000Y-60754126D01*
X57393080Y-60681892D01*
X81743514Y-60681892D01*
X81989817Y-61206358D01*
X82418076Y-61596645D01*
X82828110Y-61766476D01*
X83058000Y-61645155D01*
X83058000Y-60452000D01*
X81864181Y-60452000D01*
X81743514Y-60681892D01*
X57393080Y-60681892D01*
X57265431Y-60373720D01*
X57173000Y-60281289D01*
X57173000Y-59968108D01*
X81743514Y-59968108D01*
X81864181Y-60198000D01*
X83058000Y-60198000D01*
X83058000Y-59004845D01*
X83312000Y-59004845D01*
X83312000Y-60198000D01*
X83332000Y-60198000D01*
X83332000Y-60452000D01*
X83312000Y-60452000D01*
X83312000Y-61645155D01*
X83541890Y-61766476D01*
X83951924Y-61596645D01*
X84380183Y-61206358D01*
X84441157Y-61076522D01*
X84654375Y-61395625D01*
X85145582Y-61723839D01*
X85578744Y-61810000D01*
X85871256Y-61810000D01*
X86304418Y-61723839D01*
X86795625Y-61395625D01*
X86995000Y-61097239D01*
X87194375Y-61395625D01*
X87685582Y-61723839D01*
X88118744Y-61810000D01*
X88411256Y-61810000D01*
X88844418Y-61723839D01*
X89335625Y-61395625D01*
X89347816Y-61377381D01*
X89356843Y-61422765D01*
X89497191Y-61632809D01*
X89707235Y-61773157D01*
X89955000Y-61822440D01*
X91655000Y-61822440D01*
X91902765Y-61773157D01*
X92112809Y-61632809D01*
X92253157Y-61422765D01*
X92302440Y-61175000D01*
X92302440Y-59475000D01*
X92253157Y-59227235D01*
X92112809Y-59017191D01*
X91902765Y-58876843D01*
X91655000Y-58827560D01*
X89955000Y-58827560D01*
X89707235Y-58876843D01*
X89497191Y-59017191D01*
X89356843Y-59227235D01*
X89347816Y-59272619D01*
X89335625Y-59254375D01*
X88844418Y-58926161D01*
X88411256Y-58840000D01*
X88118744Y-58840000D01*
X87685582Y-58926161D01*
X87194375Y-59254375D01*
X86995000Y-59552761D01*
X86795625Y-59254375D01*
X86304418Y-58926161D01*
X85871256Y-58840000D01*
X85578744Y-58840000D01*
X85145582Y-58926161D01*
X84654375Y-59254375D01*
X84441157Y-59573478D01*
X84380183Y-59443642D01*
X83951924Y-59053355D01*
X83541890Y-58883524D01*
X83312000Y-59004845D01*
X83058000Y-59004845D01*
X82828110Y-58883524D01*
X82418076Y-59053355D01*
X81989817Y-59443642D01*
X81743514Y-59968108D01*
X57173000Y-59968108D01*
X57173000Y-58917539D01*
X57410889Y-58819002D01*
X57497748Y-58819002D01*
X57339000Y-58977750D01*
X57339000Y-59393309D01*
X57435673Y-59626698D01*
X57614301Y-59805327D01*
X57847690Y-59902000D01*
X58388250Y-59902000D01*
X58547000Y-59743250D01*
X58547000Y-58819000D01*
X58801000Y-58819000D01*
X58801000Y-59743250D01*
X58959750Y-59902000D01*
X59500310Y-59902000D01*
X59733699Y-59805327D01*
X59912327Y-59626698D01*
X60009000Y-59393309D01*
X60009000Y-58977750D01*
X59850250Y-58819000D01*
X58801000Y-58819000D01*
X58547000Y-58819000D01*
X58527000Y-58819000D01*
X58527000Y-58565000D01*
X58547000Y-58565000D01*
X58547000Y-58545000D01*
X58801000Y-58545000D01*
X58801000Y-58565000D01*
X59850250Y-58565000D01*
X60009000Y-58406250D01*
X60009000Y-57990691D01*
X59912327Y-57757302D01*
X59757403Y-57602377D01*
X59758586Y-57601586D01*
X59875241Y-57427000D01*
X61251289Y-57427000D01*
X61098569Y-57579720D01*
X60941000Y-57960126D01*
X60941000Y-58371874D01*
X61098569Y-58752280D01*
X61389720Y-59043431D01*
X61770126Y-59201000D01*
X62181874Y-59201000D01*
X62562280Y-59043431D01*
X62654711Y-58951000D01*
X67740688Y-58951000D01*
X67818000Y-58966378D01*
X67895312Y-58951000D01*
X67895316Y-58951000D01*
X68124292Y-58905454D01*
X68383953Y-58731953D01*
X68427749Y-58666408D01*
X72128408Y-54965749D01*
X72193953Y-54921953D01*
X72367454Y-54662292D01*
X72413000Y-54433316D01*
X72413000Y-54433312D01*
X72428378Y-54356000D01*
X72413000Y-54278688D01*
X72413000Y-51005157D01*
X73586031Y-49832126D01*
X75419000Y-49832126D01*
X75419000Y-50243874D01*
X75576569Y-50624280D01*
X75867720Y-50915431D01*
X76248126Y-51073000D01*
X76659874Y-51073000D01*
X77040280Y-50915431D01*
X77331431Y-50624280D01*
X77489000Y-50243874D01*
X77489000Y-50113157D01*
X79831158Y-47771000D01*
X79961874Y-47771000D01*
X80342280Y-47613431D01*
X80633431Y-47322280D01*
X80791000Y-46941874D01*
X80791000Y-46530126D01*
X80633431Y-46149720D01*
X80342280Y-45858569D01*
X79961874Y-45701000D01*
X79550126Y-45701000D01*
X79169720Y-45858569D01*
X78878569Y-46149720D01*
X78721000Y-46530126D01*
X78721000Y-46660842D01*
X76378843Y-49003000D01*
X76248126Y-49003000D01*
X75867720Y-49160569D01*
X75576569Y-49451720D01*
X75419000Y-49832126D01*
X73586031Y-49832126D01*
X82796411Y-40621747D01*
X82861953Y-40577953D01*
X82905747Y-40512411D01*
X82905749Y-40512409D01*
X82984874Y-40393990D01*
X83007960Y-40359440D01*
X83146000Y-40359440D01*
X83393765Y-40310157D01*
X83603809Y-40169809D01*
X83744157Y-39959765D01*
X83793440Y-39712000D01*
X83793440Y-38012000D01*
X83744157Y-37764235D01*
X83603809Y-37554191D01*
X83393765Y-37413843D01*
X83348381Y-37404816D01*
X83366625Y-37392625D01*
X83694839Y-36901418D01*
X83810092Y-36322000D01*
X83694839Y-35742582D01*
X83366625Y-35251375D01*
X83068239Y-35052000D01*
X83366625Y-34852625D01*
X83694839Y-34361418D01*
X83810092Y-33782000D01*
X83694839Y-33202582D01*
X83366625Y-32711375D01*
X82875418Y-32383161D01*
X82442256Y-32297000D01*
X82149744Y-32297000D01*
X81716582Y-32383161D01*
X81225375Y-32711375D01*
X81024647Y-33011786D01*
X80637358Y-32586817D01*
X80112892Y-32340514D01*
X79883000Y-32461181D01*
X79883000Y-33655000D01*
X79903000Y-33655000D01*
X79903000Y-33909000D01*
X79883000Y-33909000D01*
X79883000Y-33929000D01*
X79629000Y-33929000D01*
X79629000Y-33909000D01*
X79609000Y-33909000D01*
X79609000Y-33655000D01*
X79629000Y-33655000D01*
X79629000Y-32461181D01*
X79399108Y-32340514D01*
X78874642Y-32586817D01*
X78509000Y-32988033D01*
X78509000Y-29815025D01*
X78526302Y-29832327D01*
X78759691Y-29929000D01*
X79470250Y-29929000D01*
X79629000Y-29770250D01*
X79629000Y-28321000D01*
X79609000Y-28321000D01*
X79609000Y-28067000D01*
X79629000Y-28067000D01*
X79629000Y-26617750D01*
X79883000Y-26617750D01*
X79883000Y-28067000D01*
X79903000Y-28067000D01*
X79903000Y-28321000D01*
X79883000Y-28321000D01*
X79883000Y-29770250D01*
X80041750Y-29929000D01*
X80752309Y-29929000D01*
X80985698Y-29832327D01*
X81164327Y-29653699D01*
X81221364Y-29515999D01*
X81708779Y-29841678D01*
X82296000Y-29958484D01*
X82883222Y-29841678D01*
X83381044Y-29509044D01*
X83713678Y-29011221D01*
X83801000Y-28572225D01*
X83801000Y-27815774D01*
X83713678Y-27376778D01*
X83381044Y-26878956D01*
X82883221Y-26546322D01*
X82296000Y-26429516D01*
X81708778Y-26546322D01*
X81221364Y-26872001D01*
X81164327Y-26734301D01*
X80985698Y-26555673D01*
X80752309Y-26459000D01*
X80041750Y-26459000D01*
X79883000Y-26617750D01*
X79629000Y-26617750D01*
X79470250Y-26459000D01*
X78759691Y-26459000D01*
X78526302Y-26555673D01*
X78362041Y-26719933D01*
X78333749Y-26677591D01*
X78333747Y-26677589D01*
X78289953Y-26612047D01*
X78224411Y-26568253D01*
X77317749Y-25661592D01*
X77273953Y-25596047D01*
X77014292Y-25422546D01*
X76785316Y-25377000D01*
X76785312Y-25377000D01*
X76708000Y-25361622D01*
X76630688Y-25377000D01*
X70967312Y-25377000D01*
X70890000Y-25361622D01*
X70812688Y-25377000D01*
X70812684Y-25377000D01*
X70583708Y-25422546D01*
X70389591Y-25552251D01*
X70389589Y-25552253D01*
X70324047Y-25596047D01*
X70280253Y-25661589D01*
X69441926Y-26499917D01*
X69088000Y-26429516D01*
X68500778Y-26546322D01*
X68013364Y-26872001D01*
X67956327Y-26734301D01*
X67777698Y-26555673D01*
X67544309Y-26459000D01*
X66833750Y-26459000D01*
X66675000Y-26617750D01*
X66675000Y-28067000D01*
X66695000Y-28067000D01*
X66695000Y-28321000D01*
X66675000Y-28321000D01*
X66675000Y-29770250D01*
X66833750Y-29929000D01*
X67544309Y-29929000D01*
X67777698Y-29832327D01*
X67956327Y-29653699D01*
X68013364Y-29515999D01*
X68500779Y-29841678D01*
X69088000Y-29958484D01*
X69675222Y-29841678D01*
X70173044Y-29509044D01*
X70505678Y-29011221D01*
X70593000Y-28572225D01*
X70593000Y-28479750D01*
X71647000Y-28479750D01*
X71647000Y-29420310D01*
X71743673Y-29653699D01*
X71922302Y-29832327D01*
X72155691Y-29929000D01*
X72866250Y-29929000D01*
X73025000Y-29770250D01*
X73025000Y-28321000D01*
X71805750Y-28321000D01*
X71647000Y-28479750D01*
X70593000Y-28479750D01*
X70593000Y-27815774D01*
X70552084Y-27610074D01*
X71215158Y-26947000D01*
X71655570Y-26947000D01*
X71647000Y-26967690D01*
X71647000Y-27908250D01*
X71805750Y-28067000D01*
X73025000Y-28067000D01*
X73025000Y-28047000D01*
X73279000Y-28047000D01*
X73279000Y-28067000D01*
X73299000Y-28067000D01*
X73299000Y-28321000D01*
X73279000Y-28321000D01*
X73279000Y-29770250D01*
X73437750Y-29929000D01*
X74148309Y-29929000D01*
X74381698Y-29832327D01*
X74560327Y-29653699D01*
X74617364Y-29515999D01*
X75104779Y-29841678D01*
X75692000Y-29958484D01*
X76045926Y-29888084D01*
X76431000Y-30273158D01*
X76431001Y-33571000D01*
X75977750Y-33571000D01*
X75819000Y-33729750D01*
X75819000Y-35179000D01*
X75839000Y-35179000D01*
X75839000Y-35433000D01*
X75819000Y-35433000D01*
X75819000Y-36882250D01*
X75936296Y-36999546D01*
X74350843Y-38585000D01*
X65355312Y-38585000D01*
X65278000Y-38569622D01*
X65200688Y-38585000D01*
X65200684Y-38585000D01*
X64971708Y-38630546D01*
X64712047Y-38804047D01*
X64668251Y-38869592D01*
X64539000Y-38998843D01*
X64539000Y-37255157D01*
X65346862Y-36447296D01*
X65462956Y-36621044D01*
X65960778Y-36953678D01*
X66548000Y-37070484D01*
X67135221Y-36953678D01*
X67622636Y-36627999D01*
X67679673Y-36765699D01*
X67858302Y-36944327D01*
X68091691Y-37041000D01*
X68802250Y-37041000D01*
X68961000Y-36882250D01*
X68961000Y-35433000D01*
X69215000Y-35433000D01*
X69215000Y-36882250D01*
X69373750Y-37041000D01*
X70084309Y-37041000D01*
X70317698Y-36944327D01*
X70496327Y-36765699D01*
X70593000Y-36532310D01*
X70593000Y-35591750D01*
X70434250Y-35433000D01*
X69215000Y-35433000D01*
X68961000Y-35433000D01*
X68941000Y-35433000D01*
X68941000Y-35179000D01*
X68961000Y-35179000D01*
X68961000Y-35159000D01*
X69215000Y-35159000D01*
X69215000Y-35179000D01*
X70434250Y-35179000D01*
X70593000Y-35020250D01*
X70593000Y-34079690D01*
X70584430Y-34059000D01*
X72021490Y-34059000D01*
X71734322Y-34488778D01*
X71647000Y-34927774D01*
X71647000Y-35684225D01*
X71734322Y-36123221D01*
X72066956Y-36621044D01*
X72564778Y-36953678D01*
X73152000Y-37070484D01*
X73739221Y-36953678D01*
X74226636Y-36627999D01*
X74283673Y-36765699D01*
X74462302Y-36944327D01*
X74695691Y-37041000D01*
X75406250Y-37041000D01*
X75565000Y-36882250D01*
X75565000Y-35433000D01*
X75545000Y-35433000D01*
X75545000Y-35179000D01*
X75565000Y-35179000D01*
X75565000Y-33729750D01*
X75406250Y-33571000D01*
X74695691Y-33571000D01*
X74462302Y-33667673D01*
X74283673Y-33846301D01*
X74226636Y-33984001D01*
X73928234Y-33784616D01*
X73891454Y-33599708D01*
X73872272Y-33571000D01*
X73761749Y-33405591D01*
X73761747Y-33405589D01*
X73717953Y-33340047D01*
X73652410Y-33296253D01*
X73129749Y-32773592D01*
X73085953Y-32708047D01*
X72826292Y-32534546D01*
X72597316Y-32489000D01*
X72597312Y-32489000D01*
X72520000Y-32473622D01*
X72442688Y-32489000D01*
X66701958Y-32489000D01*
X66624646Y-32473622D01*
X66547334Y-32489000D01*
X66547330Y-32489000D01*
X66318354Y-32534546D01*
X66124237Y-32664251D01*
X66124235Y-32664253D01*
X66058693Y-32708047D01*
X66014899Y-32773589D01*
X62745592Y-36042897D01*
X62680047Y-36086693D01*
X62636251Y-36152238D01*
X62561543Y-36264047D01*
X62506546Y-36346355D01*
X62461000Y-36575331D01*
X62461000Y-36575334D01*
X62445622Y-36652646D01*
X62461000Y-36729958D01*
X62461001Y-42340679D01*
X62461000Y-42340684D01*
X62461000Y-42749315D01*
X62461001Y-42749320D01*
X62461000Y-43451560D01*
X61226000Y-43451560D01*
X61191597Y-43458403D01*
X61198440Y-43424000D01*
X61198440Y-41924000D01*
X61149157Y-41676235D01*
X61008809Y-41466191D01*
X60798765Y-41325843D01*
X60551000Y-41276560D01*
X60001000Y-41276560D01*
X59876000Y-41301424D01*
X59751000Y-41276560D01*
X59201000Y-41276560D01*
X59076000Y-41301424D01*
X58951000Y-41276560D01*
X58401000Y-41276560D01*
X58276000Y-41301424D01*
X58151000Y-41276560D01*
X57601000Y-41276560D01*
X57476000Y-41301424D01*
X57351000Y-41276560D01*
X56801000Y-41276560D01*
X56676000Y-41301424D01*
X56551000Y-41276560D01*
X56001000Y-41276560D01*
X55876000Y-41301424D01*
X55751000Y-41276560D01*
X55201000Y-41276560D01*
X55097148Y-41297217D01*
X55077310Y-41289000D01*
X55053157Y-41289000D01*
X55116717Y-41225440D01*
X55679001Y-41225440D01*
X56022436Y-41157127D01*
X56313586Y-40962586D01*
X56314377Y-40961403D01*
X56469302Y-41116327D01*
X56702691Y-41213000D01*
X57118250Y-41213000D01*
X57277000Y-41054250D01*
X57277000Y-40005000D01*
X57531000Y-40005000D01*
X57531000Y-41054250D01*
X57689750Y-41213000D01*
X58105309Y-41213000D01*
X58338698Y-41116327D01*
X58517327Y-40937699D01*
X58614000Y-40704310D01*
X58614000Y-40163750D01*
X58455250Y-40005000D01*
X57531000Y-40005000D01*
X57277000Y-40005000D01*
X57257000Y-40005000D01*
X57257000Y-39751000D01*
X57277000Y-39751000D01*
X57277000Y-39731000D01*
X57531000Y-39731000D01*
X57531000Y-39751000D01*
X58455250Y-39751000D01*
X58614000Y-39592250D01*
X58614000Y-39051690D01*
X58558356Y-38917355D01*
X58789431Y-38686280D01*
X58947000Y-38305874D01*
X58947000Y-37894126D01*
X58789431Y-37513720D01*
X58498280Y-37222569D01*
X58117874Y-37065000D01*
X57706126Y-37065000D01*
X57325720Y-37222569D01*
X57233289Y-37315000D01*
X57209312Y-37315000D01*
X57132000Y-37299622D01*
X57054688Y-37315000D01*
X57054684Y-37315000D01*
X56825708Y-37360546D01*
X56566047Y-37534047D01*
X56522252Y-37599591D01*
X55591283Y-38530560D01*
X55028999Y-38530560D01*
X54685564Y-38598873D01*
X54394414Y-38793414D01*
X54199873Y-39084564D01*
X54131560Y-39427999D01*
X54131560Y-39990283D01*
X53936778Y-40185065D01*
X53909652Y-40048690D01*
X53834323Y-39935953D01*
X53763424Y-39829845D01*
X53763423Y-39829844D01*
X53714049Y-39755951D01*
X53671440Y-39727481D01*
X53671440Y-39316999D01*
X53603127Y-38973564D01*
X53408586Y-38682414D01*
X53310687Y-38617000D01*
X53408586Y-38551586D01*
X53603127Y-38260436D01*
X53671440Y-37917001D01*
X53671440Y-37266999D01*
X53603127Y-36923564D01*
X53408586Y-36632414D01*
X53209000Y-36499054D01*
X53209000Y-36180578D01*
X53977139Y-35412440D01*
X54066750Y-35412440D01*
X54398227Y-35346505D01*
X54560531Y-35238057D01*
X54625802Y-35303327D01*
X54859191Y-35400000D01*
X55137250Y-35400000D01*
X55296000Y-35241250D01*
X55296000Y-34417000D01*
X55550000Y-34417000D01*
X55550000Y-35241250D01*
X55708750Y-35400000D01*
X55986809Y-35400000D01*
X56220198Y-35303327D01*
X56398827Y-35124699D01*
X56495500Y-34891310D01*
X56495500Y-34575750D01*
X56336750Y-34417000D01*
X55550000Y-34417000D01*
X55296000Y-34417000D01*
X55276000Y-34417000D01*
X55276000Y-34163000D01*
X55296000Y-34163000D01*
X55296000Y-33338750D01*
X55550000Y-33338750D01*
X55550000Y-34163000D01*
X56336750Y-34163000D01*
X56495500Y-34004250D01*
X56495500Y-33688690D01*
X56398827Y-33455301D01*
X56220198Y-33276673D01*
X55986809Y-33180000D01*
X55708750Y-33180000D01*
X55550000Y-33338750D01*
X55296000Y-33338750D01*
X55137250Y-33180000D01*
X54859191Y-33180000D01*
X54625802Y-33276673D01*
X54560531Y-33341943D01*
X54398227Y-33233495D01*
X54066750Y-33167560D01*
X53629250Y-33167560D01*
X53297773Y-33233495D01*
X53016761Y-33421261D01*
X52828995Y-33702273D01*
X52763060Y-34033750D01*
X52763060Y-34123361D01*
X51759845Y-35126577D01*
X51685952Y-35175951D01*
X51636578Y-35249844D01*
X51636576Y-35249846D01*
X51490348Y-35468691D01*
X51421663Y-35814000D01*
X51439001Y-35901165D01*
X51439001Y-36499054D01*
X51239414Y-36632414D01*
X51044873Y-36923564D01*
X50976560Y-37266999D01*
X50976560Y-37917001D01*
X51044873Y-38260436D01*
X51239414Y-38551586D01*
X51337313Y-38617000D01*
X51239414Y-38682414D01*
X51044873Y-38973564D01*
X50976560Y-39316999D01*
X50976560Y-39967001D01*
X51044873Y-40310436D01*
X51239414Y-40601586D01*
X51530564Y-40796127D01*
X51873999Y-40864440D01*
X52191000Y-40864440D01*
X52191000Y-41276560D01*
X52001000Y-41276560D01*
X51753235Y-41325843D01*
X51543191Y-41466191D01*
X51402843Y-41676235D01*
X51353560Y-41924000D01*
X51353560Y-43424000D01*
X51360403Y-43458403D01*
X51326000Y-43451560D01*
X49826000Y-43451560D01*
X49578235Y-43500843D01*
X49371470Y-43639000D01*
X44981000Y-43639000D01*
X44981000Y-36399311D01*
X44996378Y-36321999D01*
X44981000Y-36244687D01*
X44981000Y-36244684D01*
X44935454Y-36015708D01*
X44885535Y-35941000D01*
X45792688Y-35941000D01*
X45870000Y-35956378D01*
X45947312Y-35941000D01*
X45947316Y-35941000D01*
X46176292Y-35895454D01*
X46435953Y-35721953D01*
X46479749Y-35656408D01*
X48326158Y-33810000D01*
X48456874Y-33810000D01*
X48837280Y-33652431D01*
X49128431Y-33361280D01*
X49286000Y-32980874D01*
X49286000Y-32569126D01*
X49128431Y-32188720D01*
X49036000Y-32096289D01*
X49036000Y-29786312D01*
X49051378Y-29709000D01*
X49036000Y-29631688D01*
X49036000Y-28479750D01*
X65043000Y-28479750D01*
X65043000Y-29420310D01*
X65139673Y-29653699D01*
X65318302Y-29832327D01*
X65551691Y-29929000D01*
X66262250Y-29929000D01*
X66421000Y-29770250D01*
X66421000Y-28321000D01*
X65201750Y-28321000D01*
X65043000Y-28479750D01*
X49036000Y-28479750D01*
X49036000Y-27754310D01*
X49051378Y-27676999D01*
X49036000Y-27599688D01*
X49036000Y-27599684D01*
X48990454Y-27370708D01*
X48892791Y-27224546D01*
X48860749Y-27176591D01*
X48860747Y-27176589D01*
X48816953Y-27111047D01*
X48751410Y-27067253D01*
X48339749Y-26655592D01*
X48295953Y-26590047D01*
X48152896Y-26494459D01*
X48583044Y-26207044D01*
X48768000Y-25930237D01*
X48952956Y-26207044D01*
X49450778Y-26539678D01*
X50038000Y-26656484D01*
X50625221Y-26539678D01*
X51112636Y-26213999D01*
X51169673Y-26351699D01*
X51348302Y-26530327D01*
X51581691Y-26627000D01*
X52292250Y-26627000D01*
X52451000Y-26468250D01*
X52451000Y-25019000D01*
X52705000Y-25019000D01*
X52705000Y-26468250D01*
X52863750Y-26627000D01*
X53574309Y-26627000D01*
X53807698Y-26530327D01*
X53986327Y-26351699D01*
X54083000Y-26118310D01*
X54083000Y-25177750D01*
X53924250Y-25019000D01*
X52705000Y-25019000D01*
X52451000Y-25019000D01*
X52431000Y-25019000D01*
X52431000Y-24875866D01*
X58325000Y-24875866D01*
X58325000Y-25924134D01*
X58726155Y-26892608D01*
X59467392Y-27633845D01*
X60435866Y-28035000D01*
X61484134Y-28035000D01*
X62452608Y-27633845D01*
X63118763Y-26967690D01*
X65043000Y-26967690D01*
X65043000Y-27908250D01*
X65201750Y-28067000D01*
X66421000Y-28067000D01*
X66421000Y-26617750D01*
X66262250Y-26459000D01*
X65551691Y-26459000D01*
X65318302Y-26555673D01*
X65139673Y-26734301D01*
X65043000Y-26967690D01*
X63118763Y-26967690D01*
X63193845Y-26892608D01*
X63595000Y-25924134D01*
X63595000Y-24875866D01*
X86265000Y-24875866D01*
X86265000Y-25924134D01*
X86666155Y-26892608D01*
X87407392Y-27633845D01*
X88375866Y-28035000D01*
X89424134Y-28035000D01*
X90392608Y-27633845D01*
X91133845Y-26892608D01*
X91535000Y-25924134D01*
X91535000Y-24875866D01*
X91133845Y-23907392D01*
X90392608Y-23166155D01*
X89424134Y-22765000D01*
X88375866Y-22765000D01*
X87407392Y-23166155D01*
X86666155Y-23907392D01*
X86265000Y-24875866D01*
X63595000Y-24875866D01*
X63193845Y-23907392D01*
X62452608Y-23166155D01*
X61484134Y-22765000D01*
X60435866Y-22765000D01*
X59467392Y-23166155D01*
X58726155Y-23907392D01*
X58325000Y-24875866D01*
X52431000Y-24875866D01*
X52431000Y-24765000D01*
X52451000Y-24765000D01*
X52451000Y-23315750D01*
X52705000Y-23315750D01*
X52705000Y-24765000D01*
X53924250Y-24765000D01*
X54083000Y-24606250D01*
X54083000Y-23665690D01*
X53986327Y-23432301D01*
X53807698Y-23253673D01*
X53574309Y-23157000D01*
X52863750Y-23157000D01*
X52705000Y-23315750D01*
X52451000Y-23315750D01*
X52292250Y-23157000D01*
X51581691Y-23157000D01*
X51348302Y-23253673D01*
X51169673Y-23432301D01*
X51112636Y-23570001D01*
X50625222Y-23244322D01*
X50038000Y-23127516D01*
X49450779Y-23244322D01*
X48952956Y-23576956D01*
X48768000Y-23853763D01*
X48583044Y-23576956D01*
X48085222Y-23244322D01*
X47498000Y-23127516D01*
X46910779Y-23244322D01*
X46412956Y-23576956D01*
X46228000Y-23853763D01*
X46043044Y-23576956D01*
X45545222Y-23244322D01*
X44958000Y-23127516D01*
X44370779Y-23244322D01*
X43872956Y-23576956D01*
X43540322Y-24074778D01*
X43453000Y-24513774D01*
X43453000Y-25270225D01*
X43540322Y-25709221D01*
X43872956Y-26207044D01*
X44118334Y-26371000D01*
X42208250Y-26371000D01*
X42120250Y-26283000D01*
X42004245Y-26283000D01*
X41891765Y-26207843D01*
X41644000Y-26158560D01*
X40747000Y-26158560D01*
X40747000Y-26029000D01*
X40767000Y-26029000D01*
X40767000Y-25283000D01*
X41021000Y-25283000D01*
X41021000Y-26029000D01*
X41067750Y-26029000D01*
X41179750Y-26141000D01*
X41770310Y-26141000D01*
X42003699Y-26044327D01*
X42019026Y-26029000D01*
X42120250Y-26029000D01*
X42279000Y-25870250D01*
X42279000Y-25679691D01*
X42269187Y-25656000D01*
X42279000Y-25632309D01*
X42279000Y-25441750D01*
X42120250Y-25283000D01*
X42019026Y-25283000D01*
X42003699Y-25267673D01*
X41770310Y-25171000D01*
X41179750Y-25171000D01*
X41067750Y-25283000D01*
X41021000Y-25283000D01*
X40767000Y-25283000D01*
X40747000Y-25283000D01*
X40747000Y-25029000D01*
X40767000Y-25029000D01*
X40767000Y-24283000D01*
X41021000Y-24283000D01*
X41021000Y-25029000D01*
X41067750Y-25029000D01*
X41179750Y-25141000D01*
X41770310Y-25141000D01*
X42003699Y-25044327D01*
X42019026Y-25029000D01*
X42120250Y-25029000D01*
X42279000Y-24870250D01*
X42279000Y-24679691D01*
X42269187Y-24656000D01*
X42279000Y-24632309D01*
X42279000Y-24441750D01*
X42120250Y-24283000D01*
X42019026Y-24283000D01*
X42003699Y-24267673D01*
X41770310Y-24171000D01*
X41179750Y-24171000D01*
X41067750Y-24283000D01*
X41021000Y-24283000D01*
X40767000Y-24283000D01*
X40747000Y-24283000D01*
X40747000Y-24029000D01*
X40767000Y-24029000D01*
X40767000Y-23133000D01*
X41021000Y-23133000D01*
X41021000Y-24029000D01*
X41067750Y-24029000D01*
X41179750Y-24141000D01*
X41770310Y-24141000D01*
X42003699Y-24044327D01*
X42019026Y-24029000D01*
X42120250Y-24029000D01*
X42279000Y-23870250D01*
X42279000Y-23679691D01*
X42269187Y-23656000D01*
X42279000Y-23632309D01*
X42279000Y-23291750D01*
X42120250Y-23133000D01*
X41021000Y-23133000D01*
X40767000Y-23133000D01*
X40747000Y-23133000D01*
X40747000Y-22879000D01*
X40767000Y-22879000D01*
X40767000Y-22859000D01*
X41021000Y-22859000D01*
X41021000Y-22879000D01*
X42120250Y-22879000D01*
X42279000Y-22720250D01*
X42279000Y-22379691D01*
X42256346Y-22325000D01*
X93245001Y-22325000D01*
X93245000Y-70385000D01*
X23595000Y-70385000D01*
X23595000Y-65515866D01*
X25305000Y-65515866D01*
X25305000Y-66564134D01*
X25706155Y-67532608D01*
X26447392Y-68273845D01*
X27415866Y-68675000D01*
X28464134Y-68675000D01*
X29432608Y-68273845D01*
X29856703Y-67849750D01*
X44215000Y-67849750D01*
X44215000Y-68790310D01*
X44311673Y-69023699D01*
X44490302Y-69202327D01*
X44723691Y-69299000D01*
X45434250Y-69299000D01*
X45593000Y-69140250D01*
X45593000Y-67691000D01*
X44373750Y-67691000D01*
X44215000Y-67849750D01*
X29856703Y-67849750D01*
X30173845Y-67532608D01*
X30575000Y-66564134D01*
X30575000Y-66337690D01*
X44215000Y-66337690D01*
X44215000Y-67278250D01*
X44373750Y-67437000D01*
X45593000Y-67437000D01*
X45593000Y-65987750D01*
X45847000Y-65987750D01*
X45847000Y-67437000D01*
X45867000Y-67437000D01*
X45867000Y-67691000D01*
X45847000Y-67691000D01*
X45847000Y-69140250D01*
X46005750Y-69299000D01*
X46716309Y-69299000D01*
X46949698Y-69202327D01*
X47128327Y-69023699D01*
X47185364Y-68885999D01*
X47672779Y-69211678D01*
X48260000Y-69328484D01*
X48847222Y-69211678D01*
X49345044Y-68879044D01*
X49677678Y-68381221D01*
X49765000Y-67942225D01*
X49765000Y-67849750D01*
X50565000Y-67849750D01*
X50565000Y-68790310D01*
X50661673Y-69023699D01*
X50840302Y-69202327D01*
X51073691Y-69299000D01*
X51784250Y-69299000D01*
X51943000Y-69140250D01*
X51943000Y-67691000D01*
X50723750Y-67691000D01*
X50565000Y-67849750D01*
X49765000Y-67849750D01*
X49765000Y-67185774D01*
X49677678Y-66746778D01*
X49404335Y-66337690D01*
X50565000Y-66337690D01*
X50565000Y-67278250D01*
X50723750Y-67437000D01*
X51943000Y-67437000D01*
X51943000Y-65987750D01*
X52197000Y-65987750D01*
X52197000Y-67437000D01*
X52217000Y-67437000D01*
X52217000Y-67691000D01*
X52197000Y-67691000D01*
X52197000Y-69140250D01*
X52355750Y-69299000D01*
X53066309Y-69299000D01*
X53299698Y-69202327D01*
X53478327Y-69023699D01*
X53535364Y-68885999D01*
X54022779Y-69211678D01*
X54610000Y-69328484D01*
X55197222Y-69211678D01*
X55695044Y-68879044D01*
X56027678Y-68381221D01*
X56115000Y-67942225D01*
X56115000Y-67185774D01*
X56027678Y-66746778D01*
X55695044Y-66248956D01*
X55197221Y-65916322D01*
X54610000Y-65799516D01*
X54022778Y-65916322D01*
X53535364Y-66242001D01*
X53478327Y-66104301D01*
X53299698Y-65925673D01*
X53066309Y-65829000D01*
X52355750Y-65829000D01*
X52197000Y-65987750D01*
X51943000Y-65987750D01*
X51784250Y-65829000D01*
X51073691Y-65829000D01*
X50840302Y-65925673D01*
X50661673Y-66104301D01*
X50565000Y-66337690D01*
X49404335Y-66337690D01*
X49345044Y-66248956D01*
X48847221Y-65916322D01*
X48260000Y-65799516D01*
X47672778Y-65916322D01*
X47185364Y-66242001D01*
X47128327Y-66104301D01*
X46949698Y-65925673D01*
X46716309Y-65829000D01*
X46005750Y-65829000D01*
X45847000Y-65987750D01*
X45593000Y-65987750D01*
X45434250Y-65829000D01*
X44723691Y-65829000D01*
X44490302Y-65925673D01*
X44311673Y-66104301D01*
X44215000Y-66337690D01*
X30575000Y-66337690D01*
X30575000Y-65515866D01*
X86265000Y-65515866D01*
X86265000Y-66564134D01*
X86666155Y-67532608D01*
X87407392Y-68273845D01*
X88375866Y-68675000D01*
X89424134Y-68675000D01*
X90392608Y-68273845D01*
X91133845Y-67532608D01*
X91535000Y-66564134D01*
X91535000Y-65515866D01*
X91133845Y-64547392D01*
X90392608Y-63806155D01*
X89424134Y-63405000D01*
X88375866Y-63405000D01*
X87407392Y-63806155D01*
X86666155Y-64547392D01*
X86265000Y-65515866D01*
X30575000Y-65515866D01*
X30173845Y-64547392D01*
X29432608Y-63806155D01*
X28464134Y-63405000D01*
X27415866Y-63405000D01*
X26447392Y-63806155D01*
X25706155Y-64547392D01*
X25305000Y-65515866D01*
X23595000Y-65515866D01*
X23595000Y-57570000D01*
X28982560Y-57570000D01*
X28982560Y-59270000D01*
X29031843Y-59517765D01*
X29172191Y-59727809D01*
X29382235Y-59868157D01*
X29630000Y-59917440D01*
X31330000Y-59917440D01*
X31577765Y-59868157D01*
X31787809Y-59727809D01*
X31928157Y-59517765D01*
X31948739Y-59414292D01*
X32253076Y-59691645D01*
X32663110Y-59861476D01*
X32893000Y-59740155D01*
X32893000Y-58547000D01*
X32873000Y-58547000D01*
X32873000Y-58293000D01*
X32893000Y-58293000D01*
X32893000Y-57099845D01*
X32663110Y-56978524D01*
X32253076Y-57148355D01*
X31948739Y-57425708D01*
X31928157Y-57322235D01*
X31787809Y-57112191D01*
X31577765Y-56971843D01*
X31330000Y-56922560D01*
X29630000Y-56922560D01*
X29382235Y-56971843D01*
X29172191Y-57112191D01*
X29031843Y-57322235D01*
X28982560Y-57570000D01*
X23595000Y-57570000D01*
X23595000Y-49071750D01*
X39051000Y-49071750D01*
X39051000Y-49487309D01*
X39147673Y-49720698D01*
X39326301Y-49899327D01*
X39559690Y-49996000D01*
X40100250Y-49996000D01*
X40259000Y-49837250D01*
X40259000Y-48913000D01*
X40513000Y-48913000D01*
X40513000Y-49837250D01*
X40671750Y-49996000D01*
X41212310Y-49996000D01*
X41445699Y-49899327D01*
X41624327Y-49720698D01*
X41721000Y-49487309D01*
X41721000Y-49071750D01*
X41562250Y-48913000D01*
X40513000Y-48913000D01*
X40259000Y-48913000D01*
X39209750Y-48913000D01*
X39051000Y-49071750D01*
X23595000Y-49071750D01*
X23595000Y-47547750D01*
X28891000Y-47547750D01*
X28891000Y-47963309D01*
X28987673Y-48196698D01*
X29166301Y-48375327D01*
X29399690Y-48472000D01*
X29940250Y-48472000D01*
X30099000Y-48313250D01*
X30099000Y-47389000D01*
X30353000Y-47389000D01*
X30353000Y-48313250D01*
X30511750Y-48472000D01*
X31052310Y-48472000D01*
X31285699Y-48375327D01*
X31464327Y-48196698D01*
X31561000Y-47963309D01*
X31561000Y-47547750D01*
X31402250Y-47389000D01*
X30353000Y-47389000D01*
X30099000Y-47389000D01*
X29049750Y-47389000D01*
X28891000Y-47547750D01*
X23595000Y-47547750D01*
X23595000Y-30441750D01*
X30709000Y-30441750D01*
X30709000Y-30632309D01*
X30718813Y-30656000D01*
X30709000Y-30679691D01*
X30709000Y-30870250D01*
X30867750Y-31029000D01*
X30968974Y-31029000D01*
X30984301Y-31044327D01*
X31217690Y-31141000D01*
X31808250Y-31141000D01*
X31920250Y-31029000D01*
X31967000Y-31029000D01*
X31967000Y-30283000D01*
X32221000Y-30283000D01*
X32221000Y-31029000D01*
X32267750Y-31029000D01*
X32379750Y-31141000D01*
X32970310Y-31141000D01*
X33203699Y-31044327D01*
X33219026Y-31029000D01*
X33320250Y-31029000D01*
X33479000Y-30870250D01*
X33479000Y-30679691D01*
X33469187Y-30656000D01*
X33479000Y-30632309D01*
X33479000Y-30441750D01*
X33320250Y-30283000D01*
X33219026Y-30283000D01*
X33203699Y-30267673D01*
X32970310Y-30171000D01*
X32379750Y-30171000D01*
X32267750Y-30283000D01*
X32221000Y-30283000D01*
X31967000Y-30283000D01*
X31920250Y-30283000D01*
X31808250Y-30171000D01*
X31217690Y-30171000D01*
X30984301Y-30267673D01*
X30968974Y-30283000D01*
X30867750Y-30283000D01*
X30709000Y-30441750D01*
X23595000Y-30441750D01*
X23595000Y-28806000D01*
X30696560Y-28806000D01*
X30696560Y-29506000D01*
X30723936Y-29643632D01*
X30709000Y-29679691D01*
X30709000Y-29870250D01*
X30867750Y-30029000D01*
X30983755Y-30029000D01*
X31096235Y-30104157D01*
X31344000Y-30153440D01*
X32844000Y-30153440D01*
X33091765Y-30104157D01*
X33204245Y-30029000D01*
X33320250Y-30029000D01*
X33479000Y-29870250D01*
X33479000Y-29679691D01*
X33464064Y-29643632D01*
X33491440Y-29506000D01*
X33491440Y-28806000D01*
X33464064Y-28668368D01*
X33479000Y-28632309D01*
X33479000Y-28441750D01*
X33320250Y-28283000D01*
X33204245Y-28283000D01*
X33091765Y-28207843D01*
X32844000Y-28158560D01*
X31344000Y-28158560D01*
X31096235Y-28207843D01*
X30983755Y-28283000D01*
X30867750Y-28283000D01*
X30709000Y-28441750D01*
X30709000Y-28632309D01*
X30723936Y-28668368D01*
X30696560Y-28806000D01*
X23595000Y-28806000D01*
X23595000Y-27441750D01*
X30709000Y-27441750D01*
X30709000Y-27632309D01*
X30718813Y-27656000D01*
X30709000Y-27679691D01*
X30709000Y-27870250D01*
X30867750Y-28029000D01*
X30968974Y-28029000D01*
X30984301Y-28044327D01*
X31217690Y-28141000D01*
X31808250Y-28141000D01*
X31920250Y-28029000D01*
X31967000Y-28029000D01*
X31967000Y-27283000D01*
X32221000Y-27283000D01*
X32221000Y-28029000D01*
X32267750Y-28029000D01*
X32379750Y-28141000D01*
X32970310Y-28141000D01*
X33203699Y-28044327D01*
X33219026Y-28029000D01*
X33320250Y-28029000D01*
X33479000Y-27870250D01*
X33479000Y-27679691D01*
X33469187Y-27656000D01*
X33479000Y-27632309D01*
X33479000Y-27441750D01*
X33320250Y-27283000D01*
X33219026Y-27283000D01*
X33203699Y-27267673D01*
X32970310Y-27171000D01*
X32379750Y-27171000D01*
X32267750Y-27283000D01*
X32221000Y-27283000D01*
X31967000Y-27283000D01*
X31920250Y-27283000D01*
X31808250Y-27171000D01*
X31217690Y-27171000D01*
X30984301Y-27267673D01*
X30968974Y-27283000D01*
X30867750Y-27283000D01*
X30709000Y-27441750D01*
X23595000Y-27441750D01*
X23595000Y-23291750D01*
X30709000Y-23291750D01*
X30709000Y-23632309D01*
X30718813Y-23656000D01*
X30709000Y-23679691D01*
X30709000Y-23870250D01*
X30867750Y-24029000D01*
X30968974Y-24029000D01*
X30984301Y-24044327D01*
X31217690Y-24141000D01*
X31808250Y-24141000D01*
X31920250Y-24029000D01*
X31967000Y-24029000D01*
X31967000Y-23133000D01*
X30867750Y-23133000D01*
X30709000Y-23291750D01*
X23595000Y-23291750D01*
X23595000Y-22325000D01*
X30731654Y-22325000D01*
X30709000Y-22379691D01*
X30709000Y-22379691D01*
G37*
X30709000Y-22379691D02*
X30709000Y-22720250D01*
X30867750Y-22879000D01*
X31967000Y-22879000D01*
X31967000Y-22859000D01*
X32221000Y-22859000D01*
X32221000Y-22879000D01*
X32241000Y-22879000D01*
X32241000Y-23133000D01*
X32221000Y-23133000D01*
X32221000Y-24029000D01*
X32241000Y-24029000D01*
X32241000Y-24158560D01*
X31344000Y-24158560D01*
X31096235Y-24207843D01*
X30983755Y-24283000D01*
X30867750Y-24283000D01*
X30709000Y-24441750D01*
X30709000Y-24632309D01*
X30723936Y-24668368D01*
X30696560Y-24806000D01*
X30696560Y-25506000D01*
X30726397Y-25656000D01*
X30696560Y-25806000D01*
X30696560Y-26506000D01*
X30723936Y-26643632D01*
X30709000Y-26679691D01*
X30709000Y-26870250D01*
X30867750Y-27029000D01*
X30983755Y-27029000D01*
X31096235Y-27104157D01*
X31344000Y-27153440D01*
X32844000Y-27153440D01*
X33091765Y-27104157D01*
X33171319Y-27051000D01*
X39496560Y-27051000D01*
X39496560Y-27506000D01*
X39526397Y-27656000D01*
X39496560Y-27806000D01*
X39496560Y-28506000D01*
X39526397Y-28656000D01*
X39496560Y-28806000D01*
X39496560Y-29506000D01*
X39526397Y-29656000D01*
X39496560Y-29806000D01*
X39496560Y-30506000D01*
X39523936Y-30643632D01*
X39509000Y-30679691D01*
X39509000Y-30870250D01*
X39667750Y-31029000D01*
X39783755Y-31029000D01*
X39896235Y-31104157D01*
X40144000Y-31153440D01*
X41644000Y-31153440D01*
X41891765Y-31104157D01*
X42004245Y-31029000D01*
X42120250Y-31029000D01*
X42279000Y-30870250D01*
X42279000Y-30679691D01*
X42264064Y-30643632D01*
X42291440Y-30506000D01*
X42291440Y-29806000D01*
X42261603Y-29656000D01*
X42291440Y-29506000D01*
X42291440Y-28941000D01*
X46372843Y-28941000D01*
X47466001Y-30034158D01*
X47466000Y-32096289D01*
X47373569Y-32188720D01*
X47216000Y-32569126D01*
X47216000Y-32699842D01*
X45544843Y-34371000D01*
X42291440Y-34371000D01*
X42291440Y-33806000D01*
X42261603Y-33656000D01*
X42291440Y-33506000D01*
X42291440Y-32806000D01*
X42264064Y-32668368D01*
X42279000Y-32632309D01*
X42279000Y-32441750D01*
X42120250Y-32283000D01*
X42004245Y-32283000D01*
X41891765Y-32207843D01*
X41644000Y-32158560D01*
X40144000Y-32158560D01*
X39896235Y-32207843D01*
X39783755Y-32283000D01*
X39667750Y-32283000D01*
X39509000Y-32441750D01*
X39509000Y-32632309D01*
X39523936Y-32668368D01*
X39496560Y-32806000D01*
X39496560Y-33506000D01*
X39526397Y-33656000D01*
X39496560Y-33806000D01*
X39496560Y-34506000D01*
X39526397Y-34656000D01*
X39496560Y-34806000D01*
X39496560Y-35506000D01*
X39545843Y-35753765D01*
X39686191Y-35963809D01*
X39896235Y-36104157D01*
X40144000Y-36153440D01*
X41376849Y-36153440D01*
X41286569Y-36243720D01*
X41129000Y-36624126D01*
X41129000Y-36674274D01*
X40845874Y-36557000D01*
X40434126Y-36557000D01*
X40053720Y-36714569D01*
X39762569Y-37005720D01*
X39605000Y-37386126D01*
X39605000Y-37516843D01*
X39386590Y-37735253D01*
X39321048Y-37779047D01*
X39277254Y-37844589D01*
X39277251Y-37844592D01*
X39147546Y-38038709D01*
X39124694Y-38153595D01*
X38927414Y-38285414D01*
X38862000Y-38383313D01*
X38796586Y-38285414D01*
X38505436Y-38090873D01*
X38162001Y-38022560D01*
X37741138Y-38022560D01*
X37379000Y-37660422D01*
X37379000Y-37353440D01*
X37844000Y-37353440D01*
X37981632Y-37326064D01*
X38017691Y-37341000D01*
X38208250Y-37341000D01*
X38367000Y-37182250D01*
X38367000Y-37066245D01*
X38442157Y-36953765D01*
X38491440Y-36706000D01*
X38491440Y-36083000D01*
X38621000Y-36083000D01*
X38621000Y-37182250D01*
X38779750Y-37341000D01*
X38970309Y-37341000D01*
X39203698Y-37244327D01*
X39382327Y-37065699D01*
X39479000Y-36832310D01*
X39479000Y-36241750D01*
X39320250Y-36083000D01*
X38621000Y-36083000D01*
X38491440Y-36083000D01*
X38491440Y-35206000D01*
X38442157Y-34958235D01*
X38367000Y-34845755D01*
X38367000Y-34729750D01*
X38621000Y-34729750D01*
X38621000Y-35829000D01*
X39320250Y-35829000D01*
X39479000Y-35670250D01*
X39479000Y-35079690D01*
X39382327Y-34846301D01*
X39203698Y-34667673D01*
X38970309Y-34571000D01*
X38779750Y-34571000D01*
X38621000Y-34729750D01*
X38367000Y-34729750D01*
X38208250Y-34571000D01*
X38017691Y-34571000D01*
X37981632Y-34585936D01*
X37844000Y-34558560D01*
X37144000Y-34558560D01*
X36994000Y-34588397D01*
X36844000Y-34558560D01*
X36144000Y-34558560D01*
X35994000Y-34588397D01*
X35844000Y-34558560D01*
X35144000Y-34558560D01*
X35006368Y-34585936D01*
X34970309Y-34571000D01*
X34779750Y-34571000D01*
X34621000Y-34729750D01*
X34621000Y-34845755D01*
X34545843Y-34958235D01*
X34496560Y-35206000D01*
X34496560Y-36706000D01*
X34545843Y-36953765D01*
X34621000Y-37066245D01*
X34621000Y-37182250D01*
X34779750Y-37341000D01*
X34970309Y-37341000D01*
X35006368Y-37326064D01*
X35144000Y-37353440D01*
X35609001Y-37353440D01*
X35609001Y-37939835D01*
X35591663Y-38027000D01*
X35660348Y-38372309D01*
X35806576Y-38591154D01*
X35806578Y-38591156D01*
X35855952Y-38665049D01*
X35929845Y-38714423D01*
X36614560Y-39399139D01*
X36614560Y-39697552D01*
X36519586Y-39555414D01*
X36228436Y-39360873D01*
X35885001Y-39292560D01*
X35234999Y-39292560D01*
X34891564Y-39360873D01*
X34600414Y-39555414D01*
X34535000Y-39653313D01*
X34469586Y-39555414D01*
X34178436Y-39360873D01*
X33835001Y-39292560D01*
X33414138Y-39292560D01*
X32979000Y-38857422D01*
X32979000Y-36241750D01*
X33509000Y-36241750D01*
X33509000Y-36832310D01*
X33605673Y-37065699D01*
X33784302Y-37244327D01*
X34017691Y-37341000D01*
X34208250Y-37341000D01*
X34367000Y-37182250D01*
X34367000Y-36083000D01*
X33667750Y-36083000D01*
X33509000Y-36241750D01*
X32979000Y-36241750D01*
X32979000Y-36126587D01*
X33091765Y-36104157D01*
X33301809Y-35963809D01*
X33442157Y-35753765D01*
X33491440Y-35506000D01*
X33491440Y-35079690D01*
X33509000Y-35079690D01*
X33509000Y-35670250D01*
X33667750Y-35829000D01*
X34367000Y-35829000D01*
X34367000Y-34729750D01*
X34208250Y-34571000D01*
X34017691Y-34571000D01*
X33784302Y-34667673D01*
X33605673Y-34846301D01*
X33509000Y-35079690D01*
X33491440Y-35079690D01*
X33491440Y-34806000D01*
X33461603Y-34656000D01*
X33491440Y-34506000D01*
X33491440Y-33806000D01*
X33461603Y-33656000D01*
X33491440Y-33506000D01*
X33491440Y-32806000D01*
X33461603Y-32656000D01*
X33491440Y-32506000D01*
X33491440Y-31806000D01*
X33464064Y-31668368D01*
X33479000Y-31632309D01*
X33479000Y-31441750D01*
X39509000Y-31441750D01*
X39509000Y-31632309D01*
X39518813Y-31656000D01*
X39509000Y-31679691D01*
X39509000Y-31870250D01*
X39667750Y-32029000D01*
X39768974Y-32029000D01*
X39784301Y-32044327D01*
X40017690Y-32141000D01*
X40608250Y-32141000D01*
X40720250Y-32029000D01*
X40767000Y-32029000D01*
X40767000Y-31283000D01*
X41021000Y-31283000D01*
X41021000Y-32029000D01*
X41067750Y-32029000D01*
X41179750Y-32141000D01*
X41770310Y-32141000D01*
X42003699Y-32044327D01*
X42019026Y-32029000D01*
X42120250Y-32029000D01*
X42279000Y-31870250D01*
X42279000Y-31679691D01*
X42269187Y-31656000D01*
X42279000Y-31632309D01*
X42279000Y-31441750D01*
X42120250Y-31283000D01*
X42019026Y-31283000D01*
X42003699Y-31267673D01*
X41770310Y-31171000D01*
X41179750Y-31171000D01*
X41067750Y-31283000D01*
X41021000Y-31283000D01*
X40767000Y-31283000D01*
X40720250Y-31283000D01*
X40608250Y-31171000D01*
X40017690Y-31171000D01*
X39784301Y-31267673D01*
X39768974Y-31283000D01*
X39667750Y-31283000D01*
X39509000Y-31441750D01*
X33479000Y-31441750D01*
X33320250Y-31283000D01*
X33204245Y-31283000D01*
X33091765Y-31207843D01*
X32844000Y-31158560D01*
X31344000Y-31158560D01*
X31096235Y-31207843D01*
X30983755Y-31283000D01*
X30867750Y-31283000D01*
X30709000Y-31441750D01*
X30709000Y-31632309D01*
X30723936Y-31668368D01*
X30696560Y-31806000D01*
X30696560Y-32506000D01*
X30726397Y-32656000D01*
X30696560Y-32806000D01*
X30696560Y-33282989D01*
X30498690Y-33322348D01*
X30279845Y-33468576D01*
X30279844Y-33468577D01*
X30205951Y-33517951D01*
X30156577Y-33591844D01*
X29661846Y-34086575D01*
X29587951Y-34135951D01*
X29392348Y-34428691D01*
X29341000Y-34686836D01*
X29341000Y-34686839D01*
X29323663Y-34774000D01*
X29341000Y-34861161D01*
X29341001Y-39792054D01*
X29141414Y-39925414D01*
X28946873Y-40216564D01*
X28878560Y-40559999D01*
X28878560Y-41210001D01*
X28946873Y-41553436D01*
X29141414Y-41844586D01*
X29239313Y-41910000D01*
X29141414Y-41975414D01*
X28946873Y-42266564D01*
X28878560Y-42609999D01*
X28878560Y-43260001D01*
X28946873Y-43603436D01*
X29141414Y-43894586D01*
X29341000Y-44027946D01*
X29341001Y-44119054D01*
X29141414Y-44252414D01*
X28946873Y-44543564D01*
X28878560Y-44886999D01*
X28878560Y-45537001D01*
X28946873Y-45880436D01*
X29141414Y-46171586D01*
X29142597Y-46172377D01*
X28987673Y-46327302D01*
X28891000Y-46560691D01*
X28891000Y-46976250D01*
X29049750Y-47135000D01*
X30099000Y-47135000D01*
X30099000Y-47115000D01*
X30353000Y-47115000D01*
X30353000Y-47135000D01*
X31402250Y-47135000D01*
X31561000Y-46976250D01*
X31561000Y-46560691D01*
X31464327Y-46327302D01*
X31309403Y-46172377D01*
X31310586Y-46171586D01*
X31321744Y-46154887D01*
X31544126Y-46247000D01*
X31955874Y-46247000D01*
X32336280Y-46089431D01*
X32627431Y-45798280D01*
X32785000Y-45417874D01*
X32785000Y-45006126D01*
X32627431Y-44625720D01*
X32336280Y-44334569D01*
X31955874Y-44177000D01*
X31544126Y-44177000D01*
X31321744Y-44269113D01*
X31310586Y-44252414D01*
X31111000Y-44119054D01*
X31111000Y-44027946D01*
X31310586Y-43894586D01*
X31505127Y-43603436D01*
X31573440Y-43260001D01*
X31573440Y-42957750D01*
X32309000Y-42957750D01*
X32309000Y-43498310D01*
X32405673Y-43731699D01*
X32584302Y-43910327D01*
X32817691Y-44007000D01*
X33233250Y-44007000D01*
X33392000Y-43848250D01*
X33392000Y-42799000D01*
X32467750Y-42799000D01*
X32309000Y-42957750D01*
X31573440Y-42957750D01*
X31573440Y-42609999D01*
X31505127Y-42266564D01*
X31310586Y-41975414D01*
X31212687Y-41910000D01*
X31310586Y-41844586D01*
X31505127Y-41553436D01*
X31573440Y-41210001D01*
X31573440Y-40559999D01*
X31505127Y-40216564D01*
X31310586Y-39925414D01*
X31111000Y-39792054D01*
X31111000Y-36107094D01*
X31209000Y-36126587D01*
X31209001Y-39136835D01*
X31191663Y-39224000D01*
X31260348Y-39569309D01*
X31406576Y-39788154D01*
X31406578Y-39788156D01*
X31455952Y-39862049D01*
X31529845Y-39911423D01*
X32287560Y-40669139D01*
X32287560Y-41090001D01*
X32355873Y-41433436D01*
X32447464Y-41570511D01*
X32405673Y-41612301D01*
X32309000Y-41845690D01*
X32309000Y-42386250D01*
X32467750Y-42545000D01*
X33392000Y-42545000D01*
X33392000Y-42525000D01*
X33646000Y-42525000D01*
X33646000Y-42545000D01*
X33666000Y-42545000D01*
X33666000Y-42799000D01*
X33646000Y-42799000D01*
X33646000Y-43848250D01*
X33804750Y-44007000D01*
X34220309Y-44007000D01*
X34453698Y-43910327D01*
X34608623Y-43755403D01*
X34609414Y-43756586D01*
X34784000Y-43873241D01*
X34784000Y-44051688D01*
X34768622Y-44129000D01*
X34784000Y-44206312D01*
X34784000Y-44206315D01*
X34813822Y-44356241D01*
X34829546Y-44435291D01*
X34846251Y-44460291D01*
X35003047Y-44694953D01*
X35068592Y-44738749D01*
X36004253Y-45674411D01*
X36048047Y-45739953D01*
X36113589Y-45783747D01*
X36113591Y-45783749D01*
X36188625Y-45833885D01*
X36307708Y-45913454D01*
X36536684Y-45959000D01*
X36536688Y-45959000D01*
X36613999Y-45974378D01*
X36691310Y-45959000D01*
X37413289Y-45959000D01*
X37222569Y-46149720D01*
X37065000Y-46530126D01*
X37065000Y-46941874D01*
X37222569Y-47322280D01*
X37513720Y-47613431D01*
X37894126Y-47771000D01*
X38305874Y-47771000D01*
X38668007Y-47621000D01*
X39251577Y-47621000D01*
X39301414Y-47695586D01*
X39302597Y-47696377D01*
X39147673Y-47851302D01*
X39051000Y-48084691D01*
X39051000Y-48500250D01*
X39209750Y-48659000D01*
X40259000Y-48659000D01*
X40259000Y-48639000D01*
X40513000Y-48639000D01*
X40513000Y-48659000D01*
X41562250Y-48659000D01*
X41721000Y-48500250D01*
X41721000Y-48084691D01*
X41653094Y-47920750D01*
X42214000Y-47920750D01*
X42214000Y-48026310D01*
X42310673Y-48259699D01*
X42310974Y-48260000D01*
X42310673Y-48260301D01*
X42214000Y-48493690D01*
X42214000Y-48599250D01*
X42372750Y-48758000D01*
X43377000Y-48758000D01*
X43377000Y-47762000D01*
X42372750Y-47762000D01*
X42214000Y-47920750D01*
X41653094Y-47920750D01*
X41624327Y-47851302D01*
X41469403Y-47696377D01*
X41470586Y-47695586D01*
X41665127Y-47404436D01*
X41691868Y-47270000D01*
X42214000Y-47270000D01*
X42214000Y-47349250D01*
X42372750Y-47508000D01*
X43377000Y-47508000D01*
X43377000Y-47488000D01*
X43631000Y-47488000D01*
X43631000Y-47508000D01*
X43651000Y-47508000D01*
X43651000Y-47762000D01*
X43631000Y-47762000D01*
X43631000Y-48758000D01*
X43651000Y-48758000D01*
X43651000Y-49012000D01*
X43631000Y-49012000D01*
X43631000Y-49032000D01*
X43377000Y-49032000D01*
X43377000Y-49012000D01*
X42372750Y-49012000D01*
X42214000Y-49170750D01*
X42214000Y-49276310D01*
X42310673Y-49509699D01*
X42319883Y-49518909D01*
X42250843Y-49622235D01*
X42201560Y-49870000D01*
X42201560Y-50400000D01*
X42250843Y-50647765D01*
X42391191Y-50857809D01*
X42601235Y-50998157D01*
X42849000Y-51047440D01*
X43919000Y-51047440D01*
X43919001Y-52153288D01*
X43826569Y-52245720D01*
X43669000Y-52626126D01*
X43669000Y-53037874D01*
X43826569Y-53418280D01*
X44117720Y-53709431D01*
X44498126Y-53867000D01*
X44909874Y-53867000D01*
X45290280Y-53709431D01*
X45581431Y-53418280D01*
X45739000Y-53037874D01*
X45739000Y-52626126D01*
X45581431Y-52245720D01*
X45489000Y-52153289D01*
X45489000Y-51047440D01*
X46559000Y-51047440D01*
X46806765Y-50998157D01*
X47016809Y-50857809D01*
X47157157Y-50647765D01*
X47206440Y-50400000D01*
X47206440Y-49870000D01*
X47157891Y-49625926D01*
X47165292Y-49624454D01*
X47424953Y-49450953D01*
X47468749Y-49385408D01*
X47917223Y-48936934D01*
X48181720Y-49201431D01*
X48562126Y-49359000D01*
X48934450Y-49359000D01*
X48926591Y-49364251D01*
X48926589Y-49364253D01*
X48861047Y-49408047D01*
X48817253Y-49473589D01*
X47759590Y-50531253D01*
X47694048Y-50575047D01*
X47662009Y-50622997D01*
X47466564Y-50661873D01*
X47175414Y-50856414D01*
X46980873Y-51147564D01*
X46912560Y-51490999D01*
X46912560Y-52053283D01*
X46235590Y-52730253D01*
X46170048Y-52774047D01*
X46126254Y-52839589D01*
X46126251Y-52839592D01*
X45996546Y-53033709D01*
X45935622Y-53340000D01*
X45951001Y-53417316D01*
X45951001Y-53677288D01*
X45858569Y-53769720D01*
X45701000Y-54150126D01*
X45701000Y-54561874D01*
X45858569Y-54942280D01*
X46149720Y-55233431D01*
X46530126Y-55391000D01*
X46941874Y-55391000D01*
X47322280Y-55233431D01*
X47479711Y-55076000D01*
X47974250Y-55076000D01*
X48133000Y-54917250D01*
X48133000Y-53993000D01*
X48387000Y-53993000D01*
X48387000Y-54917250D01*
X48545750Y-55076000D01*
X49086310Y-55076000D01*
X49319699Y-54979327D01*
X49498327Y-54800698D01*
X49595000Y-54567309D01*
X49595000Y-54151750D01*
X49436250Y-53993000D01*
X48387000Y-53993000D01*
X48133000Y-53993000D01*
X48113000Y-53993000D01*
X48113000Y-53739000D01*
X48133000Y-53739000D01*
X48133000Y-53719000D01*
X48387000Y-53719000D01*
X48387000Y-53739000D01*
X49436250Y-53739000D01*
X49595000Y-53580250D01*
X49595000Y-53250492D01*
X49691000Y-53269587D01*
X49691001Y-54721420D01*
X48401422Y-56011000D01*
X38441159Y-56011000D01*
X38353999Y-55993663D01*
X38266840Y-56011000D01*
X38266835Y-56011000D01*
X38008690Y-56062348D01*
X37715951Y-56257951D01*
X37666576Y-56331846D01*
X37535847Y-56462575D01*
X37461951Y-56511951D01*
X37266348Y-56804691D01*
X37215000Y-57062836D01*
X37215000Y-57062839D01*
X37197663Y-57150000D01*
X37212925Y-57226731D01*
X37029375Y-57349375D01*
X36830000Y-57647761D01*
X36630625Y-57349375D01*
X36139418Y-57021161D01*
X35706256Y-56935000D01*
X35413744Y-56935000D01*
X34980582Y-57021161D01*
X34489375Y-57349375D01*
X34276157Y-57668478D01*
X34215183Y-57538642D01*
X33786924Y-57148355D01*
X33376890Y-56978524D01*
X33147000Y-57099845D01*
X33147000Y-58293000D01*
X33167000Y-58293000D01*
X33167000Y-58547000D01*
X33147000Y-58547000D01*
X33147000Y-59740155D01*
X33376890Y-59861476D01*
X33786924Y-59691645D01*
X34215183Y-59301358D01*
X34276157Y-59171522D01*
X34489375Y-59490625D01*
X34980582Y-59818839D01*
X35413744Y-59905000D01*
X35706256Y-59905000D01*
X36139418Y-59818839D01*
X36630625Y-59490625D01*
X36830000Y-59192239D01*
X37029375Y-59490625D01*
X37520582Y-59818839D01*
X37953744Y-59905000D01*
X38246256Y-59905000D01*
X38679418Y-59818839D01*
X39170625Y-59490625D01*
X39370000Y-59192239D01*
X39569375Y-59490625D01*
X40060582Y-59818839D01*
X40493744Y-59905000D01*
X40786256Y-59905000D01*
X40858960Y-59890538D01*
X41730577Y-60762156D01*
X41779951Y-60836049D01*
X41853844Y-60885423D01*
X41853845Y-60885424D01*
X42072690Y-61031652D01*
X42330835Y-61083000D01*
X42330839Y-61083000D01*
X42418000Y-61100337D01*
X42505161Y-61083000D01*
X49188839Y-61083000D01*
X49276000Y-61100337D01*
X49363161Y-61083000D01*
X49363165Y-61083000D01*
X49621310Y-61031652D01*
X49914049Y-60836049D01*
X49963425Y-60762153D01*
X51618156Y-59107423D01*
X51692049Y-59058049D01*
X51741425Y-58984154D01*
X51887652Y-58765310D01*
X51895413Y-58726291D01*
X51939000Y-58507165D01*
X51939000Y-58507161D01*
X51956337Y-58420000D01*
X51939000Y-58332839D01*
X51939000Y-57722041D01*
X52320915Y-57722041D01*
X52701321Y-57564472D01*
X52838793Y-57427000D01*
X55976618Y-57427000D01*
X55861000Y-57706126D01*
X55861000Y-57828020D01*
X55822048Y-57854047D01*
X55778254Y-57919589D01*
X55778251Y-57919592D01*
X55648546Y-58113709D01*
X55587622Y-58420000D01*
X55603001Y-58497317D01*
X55603000Y-60281289D01*
X55510569Y-60373720D01*
X55353000Y-60754126D01*
X55353000Y-61165874D01*
X55510569Y-61546280D01*
X55801720Y-61837431D01*
X56182126Y-61995000D01*
X56593874Y-61995000D01*
X56974280Y-61837431D01*
X57265431Y-61546280D01*
X57423000Y-61165874D01*
X57423000Y-60754126D01*
X57393080Y-60681892D01*
X81743514Y-60681892D01*
X81989817Y-61206358D01*
X82418076Y-61596645D01*
X82828110Y-61766476D01*
X83058000Y-61645155D01*
X83058000Y-60452000D01*
X81864181Y-60452000D01*
X81743514Y-60681892D01*
X57393080Y-60681892D01*
X57265431Y-60373720D01*
X57173000Y-60281289D01*
X57173000Y-59968108D01*
X81743514Y-59968108D01*
X81864181Y-60198000D01*
X83058000Y-60198000D01*
X83058000Y-59004845D01*
X83312000Y-59004845D01*
X83312000Y-60198000D01*
X83332000Y-60198000D01*
X83332000Y-60452000D01*
X83312000Y-60452000D01*
X83312000Y-61645155D01*
X83541890Y-61766476D01*
X83951924Y-61596645D01*
X84380183Y-61206358D01*
X84441157Y-61076522D01*
X84654375Y-61395625D01*
X85145582Y-61723839D01*
X85578744Y-61810000D01*
X85871256Y-61810000D01*
X86304418Y-61723839D01*
X86795625Y-61395625D01*
X86995000Y-61097239D01*
X87194375Y-61395625D01*
X87685582Y-61723839D01*
X88118744Y-61810000D01*
X88411256Y-61810000D01*
X88844418Y-61723839D01*
X89335625Y-61395625D01*
X89347816Y-61377381D01*
X89356843Y-61422765D01*
X89497191Y-61632809D01*
X89707235Y-61773157D01*
X89955000Y-61822440D01*
X91655000Y-61822440D01*
X91902765Y-61773157D01*
X92112809Y-61632809D01*
X92253157Y-61422765D01*
X92302440Y-61175000D01*
X92302440Y-59475000D01*
X92253157Y-59227235D01*
X92112809Y-59017191D01*
X91902765Y-58876843D01*
X91655000Y-58827560D01*
X89955000Y-58827560D01*
X89707235Y-58876843D01*
X89497191Y-59017191D01*
X89356843Y-59227235D01*
X89347816Y-59272619D01*
X89335625Y-59254375D01*
X88844418Y-58926161D01*
X88411256Y-58840000D01*
X88118744Y-58840000D01*
X87685582Y-58926161D01*
X87194375Y-59254375D01*
X86995000Y-59552761D01*
X86795625Y-59254375D01*
X86304418Y-58926161D01*
X85871256Y-58840000D01*
X85578744Y-58840000D01*
X85145582Y-58926161D01*
X84654375Y-59254375D01*
X84441157Y-59573478D01*
X84380183Y-59443642D01*
X83951924Y-59053355D01*
X83541890Y-58883524D01*
X83312000Y-59004845D01*
X83058000Y-59004845D01*
X82828110Y-58883524D01*
X82418076Y-59053355D01*
X81989817Y-59443642D01*
X81743514Y-59968108D01*
X57173000Y-59968108D01*
X57173000Y-58917539D01*
X57410889Y-58819002D01*
X57497748Y-58819002D01*
X57339000Y-58977750D01*
X57339000Y-59393309D01*
X57435673Y-59626698D01*
X57614301Y-59805327D01*
X57847690Y-59902000D01*
X58388250Y-59902000D01*
X58547000Y-59743250D01*
X58547000Y-58819000D01*
X58801000Y-58819000D01*
X58801000Y-59743250D01*
X58959750Y-59902000D01*
X59500310Y-59902000D01*
X59733699Y-59805327D01*
X59912327Y-59626698D01*
X60009000Y-59393309D01*
X60009000Y-58977750D01*
X59850250Y-58819000D01*
X58801000Y-58819000D01*
X58547000Y-58819000D01*
X58527000Y-58819000D01*
X58527000Y-58565000D01*
X58547000Y-58565000D01*
X58547000Y-58545000D01*
X58801000Y-58545000D01*
X58801000Y-58565000D01*
X59850250Y-58565000D01*
X60009000Y-58406250D01*
X60009000Y-57990691D01*
X59912327Y-57757302D01*
X59757403Y-57602377D01*
X59758586Y-57601586D01*
X59875241Y-57427000D01*
X61251289Y-57427000D01*
X61098569Y-57579720D01*
X60941000Y-57960126D01*
X60941000Y-58371874D01*
X61098569Y-58752280D01*
X61389720Y-59043431D01*
X61770126Y-59201000D01*
X62181874Y-59201000D01*
X62562280Y-59043431D01*
X62654711Y-58951000D01*
X67740688Y-58951000D01*
X67818000Y-58966378D01*
X67895312Y-58951000D01*
X67895316Y-58951000D01*
X68124292Y-58905454D01*
X68383953Y-58731953D01*
X68427749Y-58666408D01*
X72128408Y-54965749D01*
X72193953Y-54921953D01*
X72367454Y-54662292D01*
X72413000Y-54433316D01*
X72413000Y-54433312D01*
X72428378Y-54356000D01*
X72413000Y-54278688D01*
X72413000Y-51005157D01*
X73586031Y-49832126D01*
X75419000Y-49832126D01*
X75419000Y-50243874D01*
X75576569Y-50624280D01*
X75867720Y-50915431D01*
X76248126Y-51073000D01*
X76659874Y-51073000D01*
X77040280Y-50915431D01*
X77331431Y-50624280D01*
X77489000Y-50243874D01*
X77489000Y-50113157D01*
X79831158Y-47771000D01*
X79961874Y-47771000D01*
X80342280Y-47613431D01*
X80633431Y-47322280D01*
X80791000Y-46941874D01*
X80791000Y-46530126D01*
X80633431Y-46149720D01*
X80342280Y-45858569D01*
X79961874Y-45701000D01*
X79550126Y-45701000D01*
X79169720Y-45858569D01*
X78878569Y-46149720D01*
X78721000Y-46530126D01*
X78721000Y-46660842D01*
X76378843Y-49003000D01*
X76248126Y-49003000D01*
X75867720Y-49160569D01*
X75576569Y-49451720D01*
X75419000Y-49832126D01*
X73586031Y-49832126D01*
X82796411Y-40621747D01*
X82861953Y-40577953D01*
X82905747Y-40512411D01*
X82905749Y-40512409D01*
X82984874Y-40393990D01*
X83007960Y-40359440D01*
X83146000Y-40359440D01*
X83393765Y-40310157D01*
X83603809Y-40169809D01*
X83744157Y-39959765D01*
X83793440Y-39712000D01*
X83793440Y-38012000D01*
X83744157Y-37764235D01*
X83603809Y-37554191D01*
X83393765Y-37413843D01*
X83348381Y-37404816D01*
X83366625Y-37392625D01*
X83694839Y-36901418D01*
X83810092Y-36322000D01*
X83694839Y-35742582D01*
X83366625Y-35251375D01*
X83068239Y-35052000D01*
X83366625Y-34852625D01*
X83694839Y-34361418D01*
X83810092Y-33782000D01*
X83694839Y-33202582D01*
X83366625Y-32711375D01*
X82875418Y-32383161D01*
X82442256Y-32297000D01*
X82149744Y-32297000D01*
X81716582Y-32383161D01*
X81225375Y-32711375D01*
X81024647Y-33011786D01*
X80637358Y-32586817D01*
X80112892Y-32340514D01*
X79883000Y-32461181D01*
X79883000Y-33655000D01*
X79903000Y-33655000D01*
X79903000Y-33909000D01*
X79883000Y-33909000D01*
X79883000Y-33929000D01*
X79629000Y-33929000D01*
X79629000Y-33909000D01*
X79609000Y-33909000D01*
X79609000Y-33655000D01*
X79629000Y-33655000D01*
X79629000Y-32461181D01*
X79399108Y-32340514D01*
X78874642Y-32586817D01*
X78509000Y-32988033D01*
X78509000Y-29815025D01*
X78526302Y-29832327D01*
X78759691Y-29929000D01*
X79470250Y-29929000D01*
X79629000Y-29770250D01*
X79629000Y-28321000D01*
X79609000Y-28321000D01*
X79609000Y-28067000D01*
X79629000Y-28067000D01*
X79629000Y-26617750D01*
X79883000Y-26617750D01*
X79883000Y-28067000D01*
X79903000Y-28067000D01*
X79903000Y-28321000D01*
X79883000Y-28321000D01*
X79883000Y-29770250D01*
X80041750Y-29929000D01*
X80752309Y-29929000D01*
X80985698Y-29832327D01*
X81164327Y-29653699D01*
X81221364Y-29515999D01*
X81708779Y-29841678D01*
X82296000Y-29958484D01*
X82883222Y-29841678D01*
X83381044Y-29509044D01*
X83713678Y-29011221D01*
X83801000Y-28572225D01*
X83801000Y-27815774D01*
X83713678Y-27376778D01*
X83381044Y-26878956D01*
X82883221Y-26546322D01*
X82296000Y-26429516D01*
X81708778Y-26546322D01*
X81221364Y-26872001D01*
X81164327Y-26734301D01*
X80985698Y-26555673D01*
X80752309Y-26459000D01*
X80041750Y-26459000D01*
X79883000Y-26617750D01*
X79629000Y-26617750D01*
X79470250Y-26459000D01*
X78759691Y-26459000D01*
X78526302Y-26555673D01*
X78362041Y-26719933D01*
X78333749Y-26677591D01*
X78333747Y-26677589D01*
X78289953Y-26612047D01*
X78224411Y-26568253D01*
X77317749Y-25661592D01*
X77273953Y-25596047D01*
X77014292Y-25422546D01*
X76785316Y-25377000D01*
X76785312Y-25377000D01*
X76708000Y-25361622D01*
X76630688Y-25377000D01*
X70967312Y-25377000D01*
X70890000Y-25361622D01*
X70812688Y-25377000D01*
X70812684Y-25377000D01*
X70583708Y-25422546D01*
X70389591Y-25552251D01*
X70389589Y-25552253D01*
X70324047Y-25596047D01*
X70280253Y-25661589D01*
X69441926Y-26499917D01*
X69088000Y-26429516D01*
X68500778Y-26546322D01*
X68013364Y-26872001D01*
X67956327Y-26734301D01*
X67777698Y-26555673D01*
X67544309Y-26459000D01*
X66833750Y-26459000D01*
X66675000Y-26617750D01*
X66675000Y-28067000D01*
X66695000Y-28067000D01*
X66695000Y-28321000D01*
X66675000Y-28321000D01*
X66675000Y-29770250D01*
X66833750Y-29929000D01*
X67544309Y-29929000D01*
X67777698Y-29832327D01*
X67956327Y-29653699D01*
X68013364Y-29515999D01*
X68500779Y-29841678D01*
X69088000Y-29958484D01*
X69675222Y-29841678D01*
X70173044Y-29509044D01*
X70505678Y-29011221D01*
X70593000Y-28572225D01*
X70593000Y-28479750D01*
X71647000Y-28479750D01*
X71647000Y-29420310D01*
X71743673Y-29653699D01*
X71922302Y-29832327D01*
X72155691Y-29929000D01*
X72866250Y-29929000D01*
X73025000Y-29770250D01*
X73025000Y-28321000D01*
X71805750Y-28321000D01*
X71647000Y-28479750D01*
X70593000Y-28479750D01*
X70593000Y-27815774D01*
X70552084Y-27610074D01*
X71215158Y-26947000D01*
X71655570Y-26947000D01*
X71647000Y-26967690D01*
X71647000Y-27908250D01*
X71805750Y-28067000D01*
X73025000Y-28067000D01*
X73025000Y-28047000D01*
X73279000Y-28047000D01*
X73279000Y-28067000D01*
X73299000Y-28067000D01*
X73299000Y-28321000D01*
X73279000Y-28321000D01*
X73279000Y-29770250D01*
X73437750Y-29929000D01*
X74148309Y-29929000D01*
X74381698Y-29832327D01*
X74560327Y-29653699D01*
X74617364Y-29515999D01*
X75104779Y-29841678D01*
X75692000Y-29958484D01*
X76045926Y-29888084D01*
X76431000Y-30273158D01*
X76431001Y-33571000D01*
X75977750Y-33571000D01*
X75819000Y-33729750D01*
X75819000Y-35179000D01*
X75839000Y-35179000D01*
X75839000Y-35433000D01*
X75819000Y-35433000D01*
X75819000Y-36882250D01*
X75936296Y-36999546D01*
X74350843Y-38585000D01*
X65355312Y-38585000D01*
X65278000Y-38569622D01*
X65200688Y-38585000D01*
X65200684Y-38585000D01*
X64971708Y-38630546D01*
X64712047Y-38804047D01*
X64668251Y-38869592D01*
X64539000Y-38998843D01*
X64539000Y-37255157D01*
X65346862Y-36447296D01*
X65462956Y-36621044D01*
X65960778Y-36953678D01*
X66548000Y-37070484D01*
X67135221Y-36953678D01*
X67622636Y-36627999D01*
X67679673Y-36765699D01*
X67858302Y-36944327D01*
X68091691Y-37041000D01*
X68802250Y-37041000D01*
X68961000Y-36882250D01*
X68961000Y-35433000D01*
X69215000Y-35433000D01*
X69215000Y-36882250D01*
X69373750Y-37041000D01*
X70084309Y-37041000D01*
X70317698Y-36944327D01*
X70496327Y-36765699D01*
X70593000Y-36532310D01*
X70593000Y-35591750D01*
X70434250Y-35433000D01*
X69215000Y-35433000D01*
X68961000Y-35433000D01*
X68941000Y-35433000D01*
X68941000Y-35179000D01*
X68961000Y-35179000D01*
X68961000Y-35159000D01*
X69215000Y-35159000D01*
X69215000Y-35179000D01*
X70434250Y-35179000D01*
X70593000Y-35020250D01*
X70593000Y-34079690D01*
X70584430Y-34059000D01*
X72021490Y-34059000D01*
X71734322Y-34488778D01*
X71647000Y-34927774D01*
X71647000Y-35684225D01*
X71734322Y-36123221D01*
X72066956Y-36621044D01*
X72564778Y-36953678D01*
X73152000Y-37070484D01*
X73739221Y-36953678D01*
X74226636Y-36627999D01*
X74283673Y-36765699D01*
X74462302Y-36944327D01*
X74695691Y-37041000D01*
X75406250Y-37041000D01*
X75565000Y-36882250D01*
X75565000Y-35433000D01*
X75545000Y-35433000D01*
X75545000Y-35179000D01*
X75565000Y-35179000D01*
X75565000Y-33729750D01*
X75406250Y-33571000D01*
X74695691Y-33571000D01*
X74462302Y-33667673D01*
X74283673Y-33846301D01*
X74226636Y-33984001D01*
X73928234Y-33784616D01*
X73891454Y-33599708D01*
X73872272Y-33571000D01*
X73761749Y-33405591D01*
X73761747Y-33405589D01*
X73717953Y-33340047D01*
X73652410Y-33296253D01*
X73129749Y-32773592D01*
X73085953Y-32708047D01*
X72826292Y-32534546D01*
X72597316Y-32489000D01*
X72597312Y-32489000D01*
X72520000Y-32473622D01*
X72442688Y-32489000D01*
X66701958Y-32489000D01*
X66624646Y-32473622D01*
X66547334Y-32489000D01*
X66547330Y-32489000D01*
X66318354Y-32534546D01*
X66124237Y-32664251D01*
X66124235Y-32664253D01*
X66058693Y-32708047D01*
X66014899Y-32773589D01*
X62745592Y-36042897D01*
X62680047Y-36086693D01*
X62636251Y-36152238D01*
X62561543Y-36264047D01*
X62506546Y-36346355D01*
X62461000Y-36575331D01*
X62461000Y-36575334D01*
X62445622Y-36652646D01*
X62461000Y-36729958D01*
X62461001Y-42340679D01*
X62461000Y-42340684D01*
X62461000Y-42749315D01*
X62461001Y-42749320D01*
X62461000Y-43451560D01*
X61226000Y-43451560D01*
X61191597Y-43458403D01*
X61198440Y-43424000D01*
X61198440Y-41924000D01*
X61149157Y-41676235D01*
X61008809Y-41466191D01*
X60798765Y-41325843D01*
X60551000Y-41276560D01*
X60001000Y-41276560D01*
X59876000Y-41301424D01*
X59751000Y-41276560D01*
X59201000Y-41276560D01*
X59076000Y-41301424D01*
X58951000Y-41276560D01*
X58401000Y-41276560D01*
X58276000Y-41301424D01*
X58151000Y-41276560D01*
X57601000Y-41276560D01*
X57476000Y-41301424D01*
X57351000Y-41276560D01*
X56801000Y-41276560D01*
X56676000Y-41301424D01*
X56551000Y-41276560D01*
X56001000Y-41276560D01*
X55876000Y-41301424D01*
X55751000Y-41276560D01*
X55201000Y-41276560D01*
X55097148Y-41297217D01*
X55077310Y-41289000D01*
X55053157Y-41289000D01*
X55116717Y-41225440D01*
X55679001Y-41225440D01*
X56022436Y-41157127D01*
X56313586Y-40962586D01*
X56314377Y-40961403D01*
X56469302Y-41116327D01*
X56702691Y-41213000D01*
X57118250Y-41213000D01*
X57277000Y-41054250D01*
X57277000Y-40005000D01*
X57531000Y-40005000D01*
X57531000Y-41054250D01*
X57689750Y-41213000D01*
X58105309Y-41213000D01*
X58338698Y-41116327D01*
X58517327Y-40937699D01*
X58614000Y-40704310D01*
X58614000Y-40163750D01*
X58455250Y-40005000D01*
X57531000Y-40005000D01*
X57277000Y-40005000D01*
X57257000Y-40005000D01*
X57257000Y-39751000D01*
X57277000Y-39751000D01*
X57277000Y-39731000D01*
X57531000Y-39731000D01*
X57531000Y-39751000D01*
X58455250Y-39751000D01*
X58614000Y-39592250D01*
X58614000Y-39051690D01*
X58558356Y-38917355D01*
X58789431Y-38686280D01*
X58947000Y-38305874D01*
X58947000Y-37894126D01*
X58789431Y-37513720D01*
X58498280Y-37222569D01*
X58117874Y-37065000D01*
X57706126Y-37065000D01*
X57325720Y-37222569D01*
X57233289Y-37315000D01*
X57209312Y-37315000D01*
X57132000Y-37299622D01*
X57054688Y-37315000D01*
X57054684Y-37315000D01*
X56825708Y-37360546D01*
X56566047Y-37534047D01*
X56522252Y-37599591D01*
X55591283Y-38530560D01*
X55028999Y-38530560D01*
X54685564Y-38598873D01*
X54394414Y-38793414D01*
X54199873Y-39084564D01*
X54131560Y-39427999D01*
X54131560Y-39990283D01*
X53936778Y-40185065D01*
X53909652Y-40048690D01*
X53834323Y-39935953D01*
X53763424Y-39829845D01*
X53763423Y-39829844D01*
X53714049Y-39755951D01*
X53671440Y-39727481D01*
X53671440Y-39316999D01*
X53603127Y-38973564D01*
X53408586Y-38682414D01*
X53310687Y-38617000D01*
X53408586Y-38551586D01*
X53603127Y-38260436D01*
X53671440Y-37917001D01*
X53671440Y-37266999D01*
X53603127Y-36923564D01*
X53408586Y-36632414D01*
X53209000Y-36499054D01*
X53209000Y-36180578D01*
X53977139Y-35412440D01*
X54066750Y-35412440D01*
X54398227Y-35346505D01*
X54560531Y-35238057D01*
X54625802Y-35303327D01*
X54859191Y-35400000D01*
X55137250Y-35400000D01*
X55296000Y-35241250D01*
X55296000Y-34417000D01*
X55550000Y-34417000D01*
X55550000Y-35241250D01*
X55708750Y-35400000D01*
X55986809Y-35400000D01*
X56220198Y-35303327D01*
X56398827Y-35124699D01*
X56495500Y-34891310D01*
X56495500Y-34575750D01*
X56336750Y-34417000D01*
X55550000Y-34417000D01*
X55296000Y-34417000D01*
X55276000Y-34417000D01*
X55276000Y-34163000D01*
X55296000Y-34163000D01*
X55296000Y-33338750D01*
X55550000Y-33338750D01*
X55550000Y-34163000D01*
X56336750Y-34163000D01*
X56495500Y-34004250D01*
X56495500Y-33688690D01*
X56398827Y-33455301D01*
X56220198Y-33276673D01*
X55986809Y-33180000D01*
X55708750Y-33180000D01*
X55550000Y-33338750D01*
X55296000Y-33338750D01*
X55137250Y-33180000D01*
X54859191Y-33180000D01*
X54625802Y-33276673D01*
X54560531Y-33341943D01*
X54398227Y-33233495D01*
X54066750Y-33167560D01*
X53629250Y-33167560D01*
X53297773Y-33233495D01*
X53016761Y-33421261D01*
X52828995Y-33702273D01*
X52763060Y-34033750D01*
X52763060Y-34123361D01*
X51759845Y-35126577D01*
X51685952Y-35175951D01*
X51636578Y-35249844D01*
X51636576Y-35249846D01*
X51490348Y-35468691D01*
X51421663Y-35814000D01*
X51439001Y-35901165D01*
X51439001Y-36499054D01*
X51239414Y-36632414D01*
X51044873Y-36923564D01*
X50976560Y-37266999D01*
X50976560Y-37917001D01*
X51044873Y-38260436D01*
X51239414Y-38551586D01*
X51337313Y-38617000D01*
X51239414Y-38682414D01*
X51044873Y-38973564D01*
X50976560Y-39316999D01*
X50976560Y-39967001D01*
X51044873Y-40310436D01*
X51239414Y-40601586D01*
X51530564Y-40796127D01*
X51873999Y-40864440D01*
X52191000Y-40864440D01*
X52191000Y-41276560D01*
X52001000Y-41276560D01*
X51753235Y-41325843D01*
X51543191Y-41466191D01*
X51402843Y-41676235D01*
X51353560Y-41924000D01*
X51353560Y-43424000D01*
X51360403Y-43458403D01*
X51326000Y-43451560D01*
X49826000Y-43451560D01*
X49578235Y-43500843D01*
X49371470Y-43639000D01*
X44981000Y-43639000D01*
X44981000Y-36399311D01*
X44996378Y-36321999D01*
X44981000Y-36244687D01*
X44981000Y-36244684D01*
X44935454Y-36015708D01*
X44885535Y-35941000D01*
X45792688Y-35941000D01*
X45870000Y-35956378D01*
X45947312Y-35941000D01*
X45947316Y-35941000D01*
X46176292Y-35895454D01*
X46435953Y-35721953D01*
X46479749Y-35656408D01*
X48326158Y-33810000D01*
X48456874Y-33810000D01*
X48837280Y-33652431D01*
X49128431Y-33361280D01*
X49286000Y-32980874D01*
X49286000Y-32569126D01*
X49128431Y-32188720D01*
X49036000Y-32096289D01*
X49036000Y-29786312D01*
X49051378Y-29709000D01*
X49036000Y-29631688D01*
X49036000Y-28479750D01*
X65043000Y-28479750D01*
X65043000Y-29420310D01*
X65139673Y-29653699D01*
X65318302Y-29832327D01*
X65551691Y-29929000D01*
X66262250Y-29929000D01*
X66421000Y-29770250D01*
X66421000Y-28321000D01*
X65201750Y-28321000D01*
X65043000Y-28479750D01*
X49036000Y-28479750D01*
X49036000Y-27754310D01*
X49051378Y-27676999D01*
X49036000Y-27599688D01*
X49036000Y-27599684D01*
X48990454Y-27370708D01*
X48892791Y-27224546D01*
X48860749Y-27176591D01*
X48860747Y-27176589D01*
X48816953Y-27111047D01*
X48751410Y-27067253D01*
X48339749Y-26655592D01*
X48295953Y-26590047D01*
X48152896Y-26494459D01*
X48583044Y-26207044D01*
X48768000Y-25930237D01*
X48952956Y-26207044D01*
X49450778Y-26539678D01*
X50038000Y-26656484D01*
X50625221Y-26539678D01*
X51112636Y-26213999D01*
X51169673Y-26351699D01*
X51348302Y-26530327D01*
X51581691Y-26627000D01*
X52292250Y-26627000D01*
X52451000Y-26468250D01*
X52451000Y-25019000D01*
X52705000Y-25019000D01*
X52705000Y-26468250D01*
X52863750Y-26627000D01*
X53574309Y-26627000D01*
X53807698Y-26530327D01*
X53986327Y-26351699D01*
X54083000Y-26118310D01*
X54083000Y-25177750D01*
X53924250Y-25019000D01*
X52705000Y-25019000D01*
X52451000Y-25019000D01*
X52431000Y-25019000D01*
X52431000Y-24875866D01*
X58325000Y-24875866D01*
X58325000Y-25924134D01*
X58726155Y-26892608D01*
X59467392Y-27633845D01*
X60435866Y-28035000D01*
X61484134Y-28035000D01*
X62452608Y-27633845D01*
X63118763Y-26967690D01*
X65043000Y-26967690D01*
X65043000Y-27908250D01*
X65201750Y-28067000D01*
X66421000Y-28067000D01*
X66421000Y-26617750D01*
X66262250Y-26459000D01*
X65551691Y-26459000D01*
X65318302Y-26555673D01*
X65139673Y-26734301D01*
X65043000Y-26967690D01*
X63118763Y-26967690D01*
X63193845Y-26892608D01*
X63595000Y-25924134D01*
X63595000Y-24875866D01*
X86265000Y-24875866D01*
X86265000Y-25924134D01*
X86666155Y-26892608D01*
X87407392Y-27633845D01*
X88375866Y-28035000D01*
X89424134Y-28035000D01*
X90392608Y-27633845D01*
X91133845Y-26892608D01*
X91535000Y-25924134D01*
X91535000Y-24875866D01*
X91133845Y-23907392D01*
X90392608Y-23166155D01*
X89424134Y-22765000D01*
X88375866Y-22765000D01*
X87407392Y-23166155D01*
X86666155Y-23907392D01*
X86265000Y-24875866D01*
X63595000Y-24875866D01*
X63193845Y-23907392D01*
X62452608Y-23166155D01*
X61484134Y-22765000D01*
X60435866Y-22765000D01*
X59467392Y-23166155D01*
X58726155Y-23907392D01*
X58325000Y-24875866D01*
X52431000Y-24875866D01*
X52431000Y-24765000D01*
X52451000Y-24765000D01*
X52451000Y-23315750D01*
X52705000Y-23315750D01*
X52705000Y-24765000D01*
X53924250Y-24765000D01*
X54083000Y-24606250D01*
X54083000Y-23665690D01*
X53986327Y-23432301D01*
X53807698Y-23253673D01*
X53574309Y-23157000D01*
X52863750Y-23157000D01*
X52705000Y-23315750D01*
X52451000Y-23315750D01*
X52292250Y-23157000D01*
X51581691Y-23157000D01*
X51348302Y-23253673D01*
X51169673Y-23432301D01*
X51112636Y-23570001D01*
X50625222Y-23244322D01*
X50038000Y-23127516D01*
X49450779Y-23244322D01*
X48952956Y-23576956D01*
X48768000Y-23853763D01*
X48583044Y-23576956D01*
X48085222Y-23244322D01*
X47498000Y-23127516D01*
X46910779Y-23244322D01*
X46412956Y-23576956D01*
X46228000Y-23853763D01*
X46043044Y-23576956D01*
X45545222Y-23244322D01*
X44958000Y-23127516D01*
X44370779Y-23244322D01*
X43872956Y-23576956D01*
X43540322Y-24074778D01*
X43453000Y-24513774D01*
X43453000Y-25270225D01*
X43540322Y-25709221D01*
X43872956Y-26207044D01*
X44118334Y-26371000D01*
X42208250Y-26371000D01*
X42120250Y-26283000D01*
X42004245Y-26283000D01*
X41891765Y-26207843D01*
X41644000Y-26158560D01*
X40747000Y-26158560D01*
X40747000Y-26029000D01*
X40767000Y-26029000D01*
X40767000Y-25283000D01*
X41021000Y-25283000D01*
X41021000Y-26029000D01*
X41067750Y-26029000D01*
X41179750Y-26141000D01*
X41770310Y-26141000D01*
X42003699Y-26044327D01*
X42019026Y-26029000D01*
X42120250Y-26029000D01*
X42279000Y-25870250D01*
X42279000Y-25679691D01*
X42269187Y-25656000D01*
X42279000Y-25632309D01*
X42279000Y-25441750D01*
X42120250Y-25283000D01*
X42019026Y-25283000D01*
X42003699Y-25267673D01*
X41770310Y-25171000D01*
X41179750Y-25171000D01*
X41067750Y-25283000D01*
X41021000Y-25283000D01*
X40767000Y-25283000D01*
X40747000Y-25283000D01*
X40747000Y-25029000D01*
X40767000Y-25029000D01*
X40767000Y-24283000D01*
X41021000Y-24283000D01*
X41021000Y-25029000D01*
X41067750Y-25029000D01*
X41179750Y-25141000D01*
X41770310Y-25141000D01*
X42003699Y-25044327D01*
X42019026Y-25029000D01*
X42120250Y-25029000D01*
X42279000Y-24870250D01*
X42279000Y-24679691D01*
X42269187Y-24656000D01*
X42279000Y-24632309D01*
X42279000Y-24441750D01*
X42120250Y-24283000D01*
X42019026Y-24283000D01*
X42003699Y-24267673D01*
X41770310Y-24171000D01*
X41179750Y-24171000D01*
X41067750Y-24283000D01*
X41021000Y-24283000D01*
X40767000Y-24283000D01*
X40747000Y-24283000D01*
X40747000Y-24029000D01*
X40767000Y-24029000D01*
X40767000Y-23133000D01*
X41021000Y-23133000D01*
X41021000Y-24029000D01*
X41067750Y-24029000D01*
X41179750Y-24141000D01*
X41770310Y-24141000D01*
X42003699Y-24044327D01*
X42019026Y-24029000D01*
X42120250Y-24029000D01*
X42279000Y-23870250D01*
X42279000Y-23679691D01*
X42269187Y-23656000D01*
X42279000Y-23632309D01*
X42279000Y-23291750D01*
X42120250Y-23133000D01*
X41021000Y-23133000D01*
X40767000Y-23133000D01*
X40747000Y-23133000D01*
X40747000Y-22879000D01*
X40767000Y-22879000D01*
X40767000Y-22859000D01*
X41021000Y-22859000D01*
X41021000Y-22879000D01*
X42120250Y-22879000D01*
X42279000Y-22720250D01*
X42279000Y-22379691D01*
X42256346Y-22325000D01*
X93245001Y-22325000D01*
X93245000Y-70385000D01*
X23595000Y-70385000D01*
X23595000Y-65515866D01*
X25305000Y-65515866D01*
X25305000Y-66564134D01*
X25706155Y-67532608D01*
X26447392Y-68273845D01*
X27415866Y-68675000D01*
X28464134Y-68675000D01*
X29432608Y-68273845D01*
X29856703Y-67849750D01*
X44215000Y-67849750D01*
X44215000Y-68790310D01*
X44311673Y-69023699D01*
X44490302Y-69202327D01*
X44723691Y-69299000D01*
X45434250Y-69299000D01*
X45593000Y-69140250D01*
X45593000Y-67691000D01*
X44373750Y-67691000D01*
X44215000Y-67849750D01*
X29856703Y-67849750D01*
X30173845Y-67532608D01*
X30575000Y-66564134D01*
X30575000Y-66337690D01*
X44215000Y-66337690D01*
X44215000Y-67278250D01*
X44373750Y-67437000D01*
X45593000Y-67437000D01*
X45593000Y-65987750D01*
X45847000Y-65987750D01*
X45847000Y-67437000D01*
X45867000Y-67437000D01*
X45867000Y-67691000D01*
X45847000Y-67691000D01*
X45847000Y-69140250D01*
X46005750Y-69299000D01*
X46716309Y-69299000D01*
X46949698Y-69202327D01*
X47128327Y-69023699D01*
X47185364Y-68885999D01*
X47672779Y-69211678D01*
X48260000Y-69328484D01*
X48847222Y-69211678D01*
X49345044Y-68879044D01*
X49677678Y-68381221D01*
X49765000Y-67942225D01*
X49765000Y-67849750D01*
X50565000Y-67849750D01*
X50565000Y-68790310D01*
X50661673Y-69023699D01*
X50840302Y-69202327D01*
X51073691Y-69299000D01*
X51784250Y-69299000D01*
X51943000Y-69140250D01*
X51943000Y-67691000D01*
X50723750Y-67691000D01*
X50565000Y-67849750D01*
X49765000Y-67849750D01*
X49765000Y-67185774D01*
X49677678Y-66746778D01*
X49404335Y-66337690D01*
X50565000Y-66337690D01*
X50565000Y-67278250D01*
X50723750Y-67437000D01*
X51943000Y-67437000D01*
X51943000Y-65987750D01*
X52197000Y-65987750D01*
X52197000Y-67437000D01*
X52217000Y-67437000D01*
X52217000Y-67691000D01*
X52197000Y-67691000D01*
X52197000Y-69140250D01*
X52355750Y-69299000D01*
X53066309Y-69299000D01*
X53299698Y-69202327D01*
X53478327Y-69023699D01*
X53535364Y-68885999D01*
X54022779Y-69211678D01*
X54610000Y-69328484D01*
X55197222Y-69211678D01*
X55695044Y-68879044D01*
X56027678Y-68381221D01*
X56115000Y-67942225D01*
X56115000Y-67185774D01*
X56027678Y-66746778D01*
X55695044Y-66248956D01*
X55197221Y-65916322D01*
X54610000Y-65799516D01*
X54022778Y-65916322D01*
X53535364Y-66242001D01*
X53478327Y-66104301D01*
X53299698Y-65925673D01*
X53066309Y-65829000D01*
X52355750Y-65829000D01*
X52197000Y-65987750D01*
X51943000Y-65987750D01*
X51784250Y-65829000D01*
X51073691Y-65829000D01*
X50840302Y-65925673D01*
X50661673Y-66104301D01*
X50565000Y-66337690D01*
X49404335Y-66337690D01*
X49345044Y-66248956D01*
X48847221Y-65916322D01*
X48260000Y-65799516D01*
X47672778Y-65916322D01*
X47185364Y-66242001D01*
X47128327Y-66104301D01*
X46949698Y-65925673D01*
X46716309Y-65829000D01*
X46005750Y-65829000D01*
X45847000Y-65987750D01*
X45593000Y-65987750D01*
X45434250Y-65829000D01*
X44723691Y-65829000D01*
X44490302Y-65925673D01*
X44311673Y-66104301D01*
X44215000Y-66337690D01*
X30575000Y-66337690D01*
X30575000Y-65515866D01*
X86265000Y-65515866D01*
X86265000Y-66564134D01*
X86666155Y-67532608D01*
X87407392Y-68273845D01*
X88375866Y-68675000D01*
X89424134Y-68675000D01*
X90392608Y-68273845D01*
X91133845Y-67532608D01*
X91535000Y-66564134D01*
X91535000Y-65515866D01*
X91133845Y-64547392D01*
X90392608Y-63806155D01*
X89424134Y-63405000D01*
X88375866Y-63405000D01*
X87407392Y-63806155D01*
X86666155Y-64547392D01*
X86265000Y-65515866D01*
X30575000Y-65515866D01*
X30173845Y-64547392D01*
X29432608Y-63806155D01*
X28464134Y-63405000D01*
X27415866Y-63405000D01*
X26447392Y-63806155D01*
X25706155Y-64547392D01*
X25305000Y-65515866D01*
X23595000Y-65515866D01*
X23595000Y-57570000D01*
X28982560Y-57570000D01*
X28982560Y-59270000D01*
X29031843Y-59517765D01*
X29172191Y-59727809D01*
X29382235Y-59868157D01*
X29630000Y-59917440D01*
X31330000Y-59917440D01*
X31577765Y-59868157D01*
X31787809Y-59727809D01*
X31928157Y-59517765D01*
X31948739Y-59414292D01*
X32253076Y-59691645D01*
X32663110Y-59861476D01*
X32893000Y-59740155D01*
X32893000Y-58547000D01*
X32873000Y-58547000D01*
X32873000Y-58293000D01*
X32893000Y-58293000D01*
X32893000Y-57099845D01*
X32663110Y-56978524D01*
X32253076Y-57148355D01*
X31948739Y-57425708D01*
X31928157Y-57322235D01*
X31787809Y-57112191D01*
X31577765Y-56971843D01*
X31330000Y-56922560D01*
X29630000Y-56922560D01*
X29382235Y-56971843D01*
X29172191Y-57112191D01*
X29031843Y-57322235D01*
X28982560Y-57570000D01*
X23595000Y-57570000D01*
X23595000Y-49071750D01*
X39051000Y-49071750D01*
X39051000Y-49487309D01*
X39147673Y-49720698D01*
X39326301Y-49899327D01*
X39559690Y-49996000D01*
X40100250Y-49996000D01*
X40259000Y-49837250D01*
X40259000Y-48913000D01*
X40513000Y-48913000D01*
X40513000Y-49837250D01*
X40671750Y-49996000D01*
X41212310Y-49996000D01*
X41445699Y-49899327D01*
X41624327Y-49720698D01*
X41721000Y-49487309D01*
X41721000Y-49071750D01*
X41562250Y-48913000D01*
X40513000Y-48913000D01*
X40259000Y-48913000D01*
X39209750Y-48913000D01*
X39051000Y-49071750D01*
X23595000Y-49071750D01*
X23595000Y-47547750D01*
X28891000Y-47547750D01*
X28891000Y-47963309D01*
X28987673Y-48196698D01*
X29166301Y-48375327D01*
X29399690Y-48472000D01*
X29940250Y-48472000D01*
X30099000Y-48313250D01*
X30099000Y-47389000D01*
X30353000Y-47389000D01*
X30353000Y-48313250D01*
X30511750Y-48472000D01*
X31052310Y-48472000D01*
X31285699Y-48375327D01*
X31464327Y-48196698D01*
X31561000Y-47963309D01*
X31561000Y-47547750D01*
X31402250Y-47389000D01*
X30353000Y-47389000D01*
X30099000Y-47389000D01*
X29049750Y-47389000D01*
X28891000Y-47547750D01*
X23595000Y-47547750D01*
X23595000Y-30441750D01*
X30709000Y-30441750D01*
X30709000Y-30632309D01*
X30718813Y-30656000D01*
X30709000Y-30679691D01*
X30709000Y-30870250D01*
X30867750Y-31029000D01*
X30968974Y-31029000D01*
X30984301Y-31044327D01*
X31217690Y-31141000D01*
X31808250Y-31141000D01*
X31920250Y-31029000D01*
X31967000Y-31029000D01*
X31967000Y-30283000D01*
X32221000Y-30283000D01*
X32221000Y-31029000D01*
X32267750Y-31029000D01*
X32379750Y-31141000D01*
X32970310Y-31141000D01*
X33203699Y-31044327D01*
X33219026Y-31029000D01*
X33320250Y-31029000D01*
X33479000Y-30870250D01*
X33479000Y-30679691D01*
X33469187Y-30656000D01*
X33479000Y-30632309D01*
X33479000Y-30441750D01*
X33320250Y-30283000D01*
X33219026Y-30283000D01*
X33203699Y-30267673D01*
X32970310Y-30171000D01*
X32379750Y-30171000D01*
X32267750Y-30283000D01*
X32221000Y-30283000D01*
X31967000Y-30283000D01*
X31920250Y-30283000D01*
X31808250Y-30171000D01*
X31217690Y-30171000D01*
X30984301Y-30267673D01*
X30968974Y-30283000D01*
X30867750Y-30283000D01*
X30709000Y-30441750D01*
X23595000Y-30441750D01*
X23595000Y-28806000D01*
X30696560Y-28806000D01*
X30696560Y-29506000D01*
X30723936Y-29643632D01*
X30709000Y-29679691D01*
X30709000Y-29870250D01*
X30867750Y-30029000D01*
X30983755Y-30029000D01*
X31096235Y-30104157D01*
X31344000Y-30153440D01*
X32844000Y-30153440D01*
X33091765Y-30104157D01*
X33204245Y-30029000D01*
X33320250Y-30029000D01*
X33479000Y-29870250D01*
X33479000Y-29679691D01*
X33464064Y-29643632D01*
X33491440Y-29506000D01*
X33491440Y-28806000D01*
X33464064Y-28668368D01*
X33479000Y-28632309D01*
X33479000Y-28441750D01*
X33320250Y-28283000D01*
X33204245Y-28283000D01*
X33091765Y-28207843D01*
X32844000Y-28158560D01*
X31344000Y-28158560D01*
X31096235Y-28207843D01*
X30983755Y-28283000D01*
X30867750Y-28283000D01*
X30709000Y-28441750D01*
X30709000Y-28632309D01*
X30723936Y-28668368D01*
X30696560Y-28806000D01*
X23595000Y-28806000D01*
X23595000Y-27441750D01*
X30709000Y-27441750D01*
X30709000Y-27632309D01*
X30718813Y-27656000D01*
X30709000Y-27679691D01*
X30709000Y-27870250D01*
X30867750Y-28029000D01*
X30968974Y-28029000D01*
X30984301Y-28044327D01*
X31217690Y-28141000D01*
X31808250Y-28141000D01*
X31920250Y-28029000D01*
X31967000Y-28029000D01*
X31967000Y-27283000D01*
X32221000Y-27283000D01*
X32221000Y-28029000D01*
X32267750Y-28029000D01*
X32379750Y-28141000D01*
X32970310Y-28141000D01*
X33203699Y-28044327D01*
X33219026Y-28029000D01*
X33320250Y-28029000D01*
X33479000Y-27870250D01*
X33479000Y-27679691D01*
X33469187Y-27656000D01*
X33479000Y-27632309D01*
X33479000Y-27441750D01*
X33320250Y-27283000D01*
X33219026Y-27283000D01*
X33203699Y-27267673D01*
X32970310Y-27171000D01*
X32379750Y-27171000D01*
X32267750Y-27283000D01*
X32221000Y-27283000D01*
X31967000Y-27283000D01*
X31920250Y-27283000D01*
X31808250Y-27171000D01*
X31217690Y-27171000D01*
X30984301Y-27267673D01*
X30968974Y-27283000D01*
X30867750Y-27283000D01*
X30709000Y-27441750D01*
X23595000Y-27441750D01*
X23595000Y-23291750D01*
X30709000Y-23291750D01*
X30709000Y-23632309D01*
X30718813Y-23656000D01*
X30709000Y-23679691D01*
X30709000Y-23870250D01*
X30867750Y-24029000D01*
X30968974Y-24029000D01*
X30984301Y-24044327D01*
X31217690Y-24141000D01*
X31808250Y-24141000D01*
X31920250Y-24029000D01*
X31967000Y-24029000D01*
X31967000Y-23133000D01*
X30867750Y-23133000D01*
X30709000Y-23291750D01*
X23595000Y-23291750D01*
X23595000Y-22325000D01*
X30731654Y-22325000D01*
X30709000Y-22379691D01*
G36*
X69215000Y-48659000D02*
X69235000Y-48659000D01*
X69235000Y-48913000D01*
X69215000Y-48913000D01*
X69215000Y-49837250D01*
X69373750Y-49996000D01*
X69827000Y-49996000D01*
X69827001Y-51379975D01*
X69786698Y-51339673D01*
X69553309Y-51243000D01*
X69137750Y-51243000D01*
X68979000Y-51401750D01*
X68979000Y-52451000D01*
X68999000Y-52451000D01*
X68999000Y-52705000D01*
X68979000Y-52705000D01*
X68979000Y-53754250D01*
X69137750Y-53913000D01*
X69553309Y-53913000D01*
X69786698Y-53816327D01*
X69827001Y-53776024D01*
X69827001Y-53776841D01*
X67746843Y-55857000D01*
X63807271Y-55857000D01*
X64086280Y-55741431D01*
X64377431Y-55450280D01*
X64535000Y-55069874D01*
X64535000Y-54658126D01*
X64377431Y-54277720D01*
X64285000Y-54185289D01*
X64285000Y-52790000D01*
X64738250Y-52790000D01*
X64897000Y-52631250D01*
X64897000Y-51707000D01*
X64877000Y-51707000D01*
X64877000Y-51453000D01*
X64897000Y-51453000D01*
X64897000Y-51433000D01*
X65151000Y-51433000D01*
X65151000Y-51453000D01*
X65171000Y-51453000D01*
X65171000Y-51707000D01*
X65151000Y-51707000D01*
X65151000Y-52631250D01*
X65309750Y-52790000D01*
X65579560Y-52790000D01*
X65579560Y-53028001D01*
X65647873Y-53371436D01*
X65842414Y-53662586D01*
X66133564Y-53857127D01*
X66476999Y-53925440D01*
X67127001Y-53925440D01*
X67470436Y-53857127D01*
X67761586Y-53662586D01*
X67762377Y-53661403D01*
X67917302Y-53816327D01*
X68150691Y-53913000D01*
X68566250Y-53913000D01*
X68725000Y-53754250D01*
X68725000Y-52705000D01*
X68705000Y-52705000D01*
X68705000Y-52451000D01*
X68725000Y-52451000D01*
X68725000Y-51401750D01*
X68566250Y-51243000D01*
X68150691Y-51243000D01*
X67917302Y-51339673D01*
X67841000Y-51415975D01*
X67841000Y-49941805D01*
X67849436Y-49940127D01*
X67981115Y-49852141D01*
X68028301Y-49899327D01*
X68261690Y-49996000D01*
X68802250Y-49996000D01*
X68961000Y-49837250D01*
X68961000Y-48913000D01*
X68941000Y-48913000D01*
X68941000Y-48659000D01*
X68961000Y-48659000D01*
X68961000Y-48639000D01*
X69215000Y-48639000D01*
X69215000Y-48659000D01*
X69215000Y-48659000D01*
G37*
X69215000Y-48659000D02*
X69235000Y-48659000D01*
X69235000Y-48913000D01*
X69215000Y-48913000D01*
X69215000Y-49837250D01*
X69373750Y-49996000D01*
X69827000Y-49996000D01*
X69827001Y-51379975D01*
X69786698Y-51339673D01*
X69553309Y-51243000D01*
X69137750Y-51243000D01*
X68979000Y-51401750D01*
X68979000Y-52451000D01*
X68999000Y-52451000D01*
X68999000Y-52705000D01*
X68979000Y-52705000D01*
X68979000Y-53754250D01*
X69137750Y-53913000D01*
X69553309Y-53913000D01*
X69786698Y-53816327D01*
X69827001Y-53776024D01*
X69827001Y-53776841D01*
X67746843Y-55857000D01*
X63807271Y-55857000D01*
X64086280Y-55741431D01*
X64377431Y-55450280D01*
X64535000Y-55069874D01*
X64535000Y-54658126D01*
X64377431Y-54277720D01*
X64285000Y-54185289D01*
X64285000Y-52790000D01*
X64738250Y-52790000D01*
X64897000Y-52631250D01*
X64897000Y-51707000D01*
X64877000Y-51707000D01*
X64877000Y-51453000D01*
X64897000Y-51453000D01*
X64897000Y-51433000D01*
X65151000Y-51433000D01*
X65151000Y-51453000D01*
X65171000Y-51453000D01*
X65171000Y-51707000D01*
X65151000Y-51707000D01*
X65151000Y-52631250D01*
X65309750Y-52790000D01*
X65579560Y-52790000D01*
X65579560Y-53028001D01*
X65647873Y-53371436D01*
X65842414Y-53662586D01*
X66133564Y-53857127D01*
X66476999Y-53925440D01*
X67127001Y-53925440D01*
X67470436Y-53857127D01*
X67761586Y-53662586D01*
X67762377Y-53661403D01*
X67917302Y-53816327D01*
X68150691Y-53913000D01*
X68566250Y-53913000D01*
X68725000Y-53754250D01*
X68725000Y-52705000D01*
X68705000Y-52705000D01*
X68705000Y-52451000D01*
X68725000Y-52451000D01*
X68725000Y-51401750D01*
X68566250Y-51243000D01*
X68150691Y-51243000D01*
X67917302Y-51339673D01*
X67841000Y-51415975D01*
X67841000Y-49941805D01*
X67849436Y-49940127D01*
X67981115Y-49852141D01*
X68028301Y-49899327D01*
X68261690Y-49996000D01*
X68802250Y-49996000D01*
X68961000Y-49837250D01*
X68961000Y-48913000D01*
X68941000Y-48913000D01*
X68941000Y-48659000D01*
X68961000Y-48659000D01*
X68961000Y-48639000D01*
X69215000Y-48639000D01*
X69215000Y-48659000D01*
G36*
X54743191Y-43881809D02*
X54867862Y-43965112D01*
X54961750Y-44059000D01*
X55077310Y-44059000D01*
X55097148Y-44050783D01*
X55201000Y-44071440D01*
X55491001Y-44071440D01*
X55491001Y-44177000D01*
X55420126Y-44177000D01*
X55039720Y-44334569D01*
X54748569Y-44625720D01*
X54591000Y-45006126D01*
X54591000Y-45417874D01*
X54748569Y-45798280D01*
X55039720Y-46089431D01*
X55420126Y-46247000D01*
X55831874Y-46247000D01*
X56212280Y-46089431D01*
X56388000Y-45913711D01*
X56563720Y-46089431D01*
X56944126Y-46247000D01*
X57355874Y-46247000D01*
X57736280Y-46089431D01*
X58027431Y-45798280D01*
X58185000Y-45417874D01*
X58185000Y-45006126D01*
X58027431Y-44625720D01*
X57861000Y-44459289D01*
X57861000Y-44071440D01*
X58151000Y-44071440D01*
X58276000Y-44046576D01*
X58401000Y-44071440D01*
X58951000Y-44071440D01*
X59076000Y-44046576D01*
X59201000Y-44071440D01*
X59751000Y-44071440D01*
X59876000Y-44046576D01*
X60001000Y-44071440D01*
X60551000Y-44071440D01*
X60585403Y-44064597D01*
X60578560Y-44099000D01*
X60578560Y-44649000D01*
X60603424Y-44774000D01*
X60578560Y-44899000D01*
X60578560Y-45449000D01*
X60603424Y-45574000D01*
X60578560Y-45699000D01*
X60578560Y-46249000D01*
X60603424Y-46374000D01*
X60578560Y-46499000D01*
X60578560Y-47049000D01*
X60603424Y-47174000D01*
X60578560Y-47299000D01*
X60578560Y-47849000D01*
X60603424Y-47974000D01*
X60578560Y-48099000D01*
X60578560Y-48649000D01*
X60599217Y-48752852D01*
X60591000Y-48772690D01*
X60591000Y-48888250D01*
X60684888Y-48982138D01*
X60768191Y-49106809D01*
X60868749Y-49174000D01*
X60768191Y-49241191D01*
X60684888Y-49365862D01*
X60591000Y-49459750D01*
X60591000Y-49575310D01*
X60599217Y-49595148D01*
X60578560Y-49699000D01*
X60578560Y-50249000D01*
X60603424Y-50374000D01*
X60578560Y-50499000D01*
X60578560Y-51049000D01*
X60603424Y-51174000D01*
X60578560Y-51299000D01*
X60578560Y-51849000D01*
X60603424Y-51974000D01*
X60578560Y-52099000D01*
X60578560Y-52649000D01*
X60585403Y-52683403D01*
X60551000Y-52676560D01*
X60001000Y-52676560D01*
X59876000Y-52701424D01*
X59751000Y-52676560D01*
X59201000Y-52676560D01*
X59076000Y-52701424D01*
X58951000Y-52676560D01*
X58401000Y-52676560D01*
X58297148Y-52697217D01*
X58277310Y-52689000D01*
X58161750Y-52689000D01*
X58067862Y-52782888D01*
X57943191Y-52866191D01*
X57876000Y-52966749D01*
X57808809Y-52866191D01*
X57684138Y-52782888D01*
X57590250Y-52689000D01*
X57474690Y-52689000D01*
X57454852Y-52697217D01*
X57351000Y-52676560D01*
X56801000Y-52676560D01*
X56676000Y-52701424D01*
X56551000Y-52676560D01*
X56001000Y-52676560D01*
X55876000Y-52701424D01*
X55751000Y-52676560D01*
X55201000Y-52676560D01*
X55076000Y-52701424D01*
X54951000Y-52676560D01*
X54401000Y-52676560D01*
X54276000Y-52701424D01*
X54151000Y-52676560D01*
X53601000Y-52676560D01*
X53476000Y-52701424D01*
X53351000Y-52676560D01*
X52801000Y-52676560D01*
X52676000Y-52701424D01*
X52551000Y-52676560D01*
X52001000Y-52676560D01*
X51966597Y-52683403D01*
X51973440Y-52649000D01*
X51973440Y-52359000D01*
X52234688Y-52359000D01*
X52312000Y-52374378D01*
X52389312Y-52359000D01*
X52389316Y-52359000D01*
X52469754Y-52343000D01*
X52783874Y-52343000D01*
X53164280Y-52185431D01*
X53455431Y-51894280D01*
X53613000Y-51513874D01*
X53613000Y-51102126D01*
X53455431Y-50721720D01*
X53164280Y-50430569D01*
X52783874Y-50273000D01*
X52372126Y-50273000D01*
X51991720Y-50430569D01*
X51965119Y-50457170D01*
X51948576Y-50374000D01*
X51973440Y-50249000D01*
X51973440Y-49699000D01*
X51952783Y-49595148D01*
X51961000Y-49575310D01*
X51961000Y-49459750D01*
X51867112Y-49365862D01*
X51783809Y-49241191D01*
X51683251Y-49174000D01*
X51783809Y-49106809D01*
X51867112Y-48982138D01*
X51961000Y-48888250D01*
X51961000Y-48772690D01*
X51952783Y-48752852D01*
X51973440Y-48649000D01*
X51973440Y-48099000D01*
X51948576Y-47974000D01*
X51973440Y-47849000D01*
X51973440Y-47299000D01*
X51948576Y-47174000D01*
X51973440Y-47049000D01*
X51973440Y-46499000D01*
X51948576Y-46374000D01*
X51973440Y-46249000D01*
X51973440Y-45699000D01*
X51948576Y-45574000D01*
X51973440Y-45449000D01*
X51973440Y-44899000D01*
X51948576Y-44774000D01*
X51973440Y-44649000D01*
X51973440Y-44099000D01*
X51966597Y-44064597D01*
X52001000Y-44071440D01*
X52551000Y-44071440D01*
X52676000Y-44046576D01*
X52801000Y-44071440D01*
X53351000Y-44071440D01*
X53476000Y-44046576D01*
X53601000Y-44071440D01*
X54151000Y-44071440D01*
X54254852Y-44050783D01*
X54274690Y-44059000D01*
X54390250Y-44059000D01*
X54484138Y-43965112D01*
X54608809Y-43881809D01*
X54676000Y-43781251D01*
X54743191Y-43881809D01*
X54743191Y-43881809D01*
G37*
X54743191Y-43881809D02*
X54867862Y-43965112D01*
X54961750Y-44059000D01*
X55077310Y-44059000D01*
X55097148Y-44050783D01*
X55201000Y-44071440D01*
X55491001Y-44071440D01*
X55491001Y-44177000D01*
X55420126Y-44177000D01*
X55039720Y-44334569D01*
X54748569Y-44625720D01*
X54591000Y-45006126D01*
X54591000Y-45417874D01*
X54748569Y-45798280D01*
X55039720Y-46089431D01*
X55420126Y-46247000D01*
X55831874Y-46247000D01*
X56212280Y-46089431D01*
X56388000Y-45913711D01*
X56563720Y-46089431D01*
X56944126Y-46247000D01*
X57355874Y-46247000D01*
X57736280Y-46089431D01*
X58027431Y-45798280D01*
X58185000Y-45417874D01*
X58185000Y-45006126D01*
X58027431Y-44625720D01*
X57861000Y-44459289D01*
X57861000Y-44071440D01*
X58151000Y-44071440D01*
X58276000Y-44046576D01*
X58401000Y-44071440D01*
X58951000Y-44071440D01*
X59076000Y-44046576D01*
X59201000Y-44071440D01*
X59751000Y-44071440D01*
X59876000Y-44046576D01*
X60001000Y-44071440D01*
X60551000Y-44071440D01*
X60585403Y-44064597D01*
X60578560Y-44099000D01*
X60578560Y-44649000D01*
X60603424Y-44774000D01*
X60578560Y-44899000D01*
X60578560Y-45449000D01*
X60603424Y-45574000D01*
X60578560Y-45699000D01*
X60578560Y-46249000D01*
X60603424Y-46374000D01*
X60578560Y-46499000D01*
X60578560Y-47049000D01*
X60603424Y-47174000D01*
X60578560Y-47299000D01*
X60578560Y-47849000D01*
X60603424Y-47974000D01*
X60578560Y-48099000D01*
X60578560Y-48649000D01*
X60599217Y-48752852D01*
X60591000Y-48772690D01*
X60591000Y-48888250D01*
X60684888Y-48982138D01*
X60768191Y-49106809D01*
X60868749Y-49174000D01*
X60768191Y-49241191D01*
X60684888Y-49365862D01*
X60591000Y-49459750D01*
X60591000Y-49575310D01*
X60599217Y-49595148D01*
X60578560Y-49699000D01*
X60578560Y-50249000D01*
X60603424Y-50374000D01*
X60578560Y-50499000D01*
X60578560Y-51049000D01*
X60603424Y-51174000D01*
X60578560Y-51299000D01*
X60578560Y-51849000D01*
X60603424Y-51974000D01*
X60578560Y-52099000D01*
X60578560Y-52649000D01*
X60585403Y-52683403D01*
X60551000Y-52676560D01*
X60001000Y-52676560D01*
X59876000Y-52701424D01*
X59751000Y-52676560D01*
X59201000Y-52676560D01*
X59076000Y-52701424D01*
X58951000Y-52676560D01*
X58401000Y-52676560D01*
X58297148Y-52697217D01*
X58277310Y-52689000D01*
X58161750Y-52689000D01*
X58067862Y-52782888D01*
X57943191Y-52866191D01*
X57876000Y-52966749D01*
X57808809Y-52866191D01*
X57684138Y-52782888D01*
X57590250Y-52689000D01*
X57474690Y-52689000D01*
X57454852Y-52697217D01*
X57351000Y-52676560D01*
X56801000Y-52676560D01*
X56676000Y-52701424D01*
X56551000Y-52676560D01*
X56001000Y-52676560D01*
X55876000Y-52701424D01*
X55751000Y-52676560D01*
X55201000Y-52676560D01*
X55076000Y-52701424D01*
X54951000Y-52676560D01*
X54401000Y-52676560D01*
X54276000Y-52701424D01*
X54151000Y-52676560D01*
X53601000Y-52676560D01*
X53476000Y-52701424D01*
X53351000Y-52676560D01*
X52801000Y-52676560D01*
X52676000Y-52701424D01*
X52551000Y-52676560D01*
X52001000Y-52676560D01*
X51966597Y-52683403D01*
X51973440Y-52649000D01*
X51973440Y-52359000D01*
X52234688Y-52359000D01*
X52312000Y-52374378D01*
X52389312Y-52359000D01*
X52389316Y-52359000D01*
X52469754Y-52343000D01*
X52783874Y-52343000D01*
X53164280Y-52185431D01*
X53455431Y-51894280D01*
X53613000Y-51513874D01*
X53613000Y-51102126D01*
X53455431Y-50721720D01*
X53164280Y-50430569D01*
X52783874Y-50273000D01*
X52372126Y-50273000D01*
X51991720Y-50430569D01*
X51965119Y-50457170D01*
X51948576Y-50374000D01*
X51973440Y-50249000D01*
X51973440Y-49699000D01*
X51952783Y-49595148D01*
X51961000Y-49575310D01*
X51961000Y-49459750D01*
X51867112Y-49365862D01*
X51783809Y-49241191D01*
X51683251Y-49174000D01*
X51783809Y-49106809D01*
X51867112Y-48982138D01*
X51961000Y-48888250D01*
X51961000Y-48772690D01*
X51952783Y-48752852D01*
X51973440Y-48649000D01*
X51973440Y-48099000D01*
X51948576Y-47974000D01*
X51973440Y-47849000D01*
X51973440Y-47299000D01*
X51948576Y-47174000D01*
X51973440Y-47049000D01*
X51973440Y-46499000D01*
X51948576Y-46374000D01*
X51973440Y-46249000D01*
X51973440Y-45699000D01*
X51948576Y-45574000D01*
X51973440Y-45449000D01*
X51973440Y-44899000D01*
X51948576Y-44774000D01*
X51973440Y-44649000D01*
X51973440Y-44099000D01*
X51966597Y-44064597D01*
X52001000Y-44071440D01*
X52551000Y-44071440D01*
X52676000Y-44046576D01*
X52801000Y-44071440D01*
X53351000Y-44071440D01*
X53476000Y-44046576D01*
X53601000Y-44071440D01*
X54151000Y-44071440D01*
X54254852Y-44050783D01*
X54274690Y-44059000D01*
X54390250Y-44059000D01*
X54484138Y-43965112D01*
X54608809Y-43881809D01*
X54676000Y-43781251D01*
X54743191Y-43881809D01*
G36*
X63676560Y-49292717D02*
X63676560Y-49855001D01*
X63744873Y-50198436D01*
X63939414Y-50489586D01*
X63940597Y-50490377D01*
X63785673Y-50645302D01*
X63689000Y-50878691D01*
X63689000Y-51126843D01*
X63635749Y-51073592D01*
X63591953Y-51008047D01*
X63373440Y-50862040D01*
X63373440Y-50499000D01*
X63348576Y-50374000D01*
X63373440Y-50249000D01*
X63373440Y-49699000D01*
X63352783Y-49595148D01*
X63361000Y-49575310D01*
X63361000Y-49459750D01*
X63267112Y-49365862D01*
X63183809Y-49241191D01*
X63083251Y-49174000D01*
X63105700Y-49159000D01*
X63542843Y-49159000D01*
X63676560Y-49292717D01*
X63676560Y-49292717D01*
G37*
X63676560Y-49292717D02*
X63676560Y-49855001D01*
X63744873Y-50198436D01*
X63939414Y-50489586D01*
X63940597Y-50490377D01*
X63785673Y-50645302D01*
X63689000Y-50878691D01*
X63689000Y-51126843D01*
X63635749Y-51073592D01*
X63591953Y-51008047D01*
X63373440Y-50862040D01*
X63373440Y-50499000D01*
X63348576Y-50374000D01*
X63373440Y-50249000D01*
X63373440Y-49699000D01*
X63352783Y-49595148D01*
X63361000Y-49575310D01*
X63361000Y-49459750D01*
X63267112Y-49365862D01*
X63183809Y-49241191D01*
X63083251Y-49174000D01*
X63105700Y-49159000D01*
X63542843Y-49159000D01*
X63676560Y-49292717D01*
G36*
X41958126Y-37865000D02*
X42088843Y-37865000D01*
X42649001Y-38425158D01*
X42649000Y-41993289D01*
X42556569Y-42085720D01*
X42399000Y-42466126D01*
X42399000Y-42877874D01*
X42556569Y-43258280D01*
X42847720Y-43549431D01*
X43063959Y-43639000D01*
X39286711Y-43639000D01*
X39194280Y-43546569D01*
X38813874Y-43389000D01*
X38402126Y-43389000D01*
X38021720Y-43546569D01*
X37730569Y-43837720D01*
X37573000Y-44218126D01*
X37573000Y-44389000D01*
X36939158Y-44389000D01*
X36395601Y-43845444D01*
X36528586Y-43756586D01*
X36723127Y-43465436D01*
X36791440Y-43122001D01*
X36791440Y-42529466D01*
X36902302Y-42640327D01*
X37135691Y-42737000D01*
X37551250Y-42737000D01*
X37710000Y-42578250D01*
X37710000Y-41529000D01*
X37690000Y-41529000D01*
X37690000Y-41275000D01*
X37710000Y-41275000D01*
X37710000Y-41255000D01*
X37964000Y-41255000D01*
X37964000Y-41275000D01*
X37984000Y-41275000D01*
X37984000Y-41529000D01*
X37964000Y-41529000D01*
X37964000Y-42578250D01*
X38122750Y-42737000D01*
X38538309Y-42737000D01*
X38771698Y-42640327D01*
X38926623Y-42485403D01*
X38927414Y-42486586D01*
X39218564Y-42681127D01*
X39561999Y-42749440D01*
X40212001Y-42749440D01*
X40555436Y-42681127D01*
X40846586Y-42486586D01*
X40893247Y-42416754D01*
X40942126Y-42437000D01*
X41353874Y-42437000D01*
X41734280Y-42279431D01*
X42025431Y-41988280D01*
X42183000Y-41607874D01*
X42183000Y-41196126D01*
X42025431Y-40815720D01*
X41734280Y-40524569D01*
X41353874Y-40367000D01*
X40942126Y-40367000D01*
X40893247Y-40387246D01*
X40892414Y-40386000D01*
X41041127Y-40163436D01*
X41109440Y-39820001D01*
X41109440Y-38919999D01*
X41041127Y-38576564D01*
X41025196Y-38552722D01*
X41226280Y-38469431D01*
X41517431Y-38178280D01*
X41675000Y-37797874D01*
X41675000Y-37747726D01*
X41958126Y-37865000D01*
X41958126Y-37865000D01*
G37*
X41958126Y-37865000D02*
X42088843Y-37865000D01*
X42649001Y-38425158D01*
X42649000Y-41993289D01*
X42556569Y-42085720D01*
X42399000Y-42466126D01*
X42399000Y-42877874D01*
X42556569Y-43258280D01*
X42847720Y-43549431D01*
X43063959Y-43639000D01*
X39286711Y-43639000D01*
X39194280Y-43546569D01*
X38813874Y-43389000D01*
X38402126Y-43389000D01*
X38021720Y-43546569D01*
X37730569Y-43837720D01*
X37573000Y-44218126D01*
X37573000Y-44389000D01*
X36939158Y-44389000D01*
X36395601Y-43845444D01*
X36528586Y-43756586D01*
X36723127Y-43465436D01*
X36791440Y-43122001D01*
X36791440Y-42529466D01*
X36902302Y-42640327D01*
X37135691Y-42737000D01*
X37551250Y-42737000D01*
X37710000Y-42578250D01*
X37710000Y-41529000D01*
X37690000Y-41529000D01*
X37690000Y-41275000D01*
X37710000Y-41275000D01*
X37710000Y-41255000D01*
X37964000Y-41255000D01*
X37964000Y-41275000D01*
X37984000Y-41275000D01*
X37984000Y-41529000D01*
X37964000Y-41529000D01*
X37964000Y-42578250D01*
X38122750Y-42737000D01*
X38538309Y-42737000D01*
X38771698Y-42640327D01*
X38926623Y-42485403D01*
X38927414Y-42486586D01*
X39218564Y-42681127D01*
X39561999Y-42749440D01*
X40212001Y-42749440D01*
X40555436Y-42681127D01*
X40846586Y-42486586D01*
X40893247Y-42416754D01*
X40942126Y-42437000D01*
X41353874Y-42437000D01*
X41734280Y-42279431D01*
X42025431Y-41988280D01*
X42183000Y-41607874D01*
X42183000Y-41196126D01*
X42025431Y-40815720D01*
X41734280Y-40524569D01*
X41353874Y-40367000D01*
X40942126Y-40367000D01*
X40893247Y-40387246D01*
X40892414Y-40386000D01*
X41041127Y-40163436D01*
X41109440Y-39820001D01*
X41109440Y-38919999D01*
X41041127Y-38576564D01*
X41025196Y-38552722D01*
X41226280Y-38469431D01*
X41517431Y-38178280D01*
X41675000Y-37797874D01*
X41675000Y-37747726D01*
X41958126Y-37865000D01*
M02*
