%TF.GenerationSoftware,KiCad,Pcbnew,5.0.1*%
%TF.CreationDate,2019-02-04T17:12:45-06:00*%
%TF.ProjectId,RDP-Environmental,5244502D456E7669726F6E6D656E7461,01*%
%TF.SameCoordinates,Original*%
%TF.FileFunction,Copper,L2,Bot,Signal*%
%TF.FilePolarity,Positive*%
%FSLAX46Y46*%
G04 Gerber Fmt 4.6, Leading zero omitted, Abs format (unit mm)*
G04 Created by KiCad (PCBNEW 5.0.1) date Mon 04 Feb 2019 05:12:45 PM CST*
%MOMM*%
%LPD*%
G01*
G04 APERTURE LIST*
%ADD10R,1.700000X1.700000*%
%ADD11O,1.700000X1.700000*%
%ADD12O,1.740000X2.200000*%
%ADD13C,0.100000*%
%ADD14C,1.740000*%
%ADD15C,1.150000*%
%ADD16C,4.000000*%
%ADD17C,0.800000*%
%ADD18C,0.300000*%
%ADD19C,0.500000*%
%ADD20C,0.254000*%
G04 APERTURE END LIST*
D10*
X30480000Y-58420000D03*
D11*
X33020000Y-58420000D03*
X35560000Y-58420000D03*
X38100000Y-58420000D03*
X40640000Y-58420000D03*
X43180000Y-58420000D03*
D10*
X90805000Y-60325000D03*
D11*
X88265000Y-60325000D03*
X85725000Y-60325000D03*
X83185000Y-60325000D03*
D12*
X69088000Y-28194000D03*
D13*
G36*
X67192505Y-27095204D02*
X67216773Y-27098804D01*
X67240572Y-27104765D01*
X67263671Y-27113030D01*
X67285850Y-27123520D01*
X67306893Y-27136132D01*
X67326599Y-27150747D01*
X67344777Y-27167223D01*
X67361253Y-27185401D01*
X67375868Y-27205107D01*
X67388480Y-27226150D01*
X67398970Y-27248329D01*
X67407235Y-27271428D01*
X67413196Y-27295227D01*
X67416796Y-27319495D01*
X67418000Y-27343999D01*
X67418000Y-29044001D01*
X67416796Y-29068505D01*
X67413196Y-29092773D01*
X67407235Y-29116572D01*
X67398970Y-29139671D01*
X67388480Y-29161850D01*
X67375868Y-29182893D01*
X67361253Y-29202599D01*
X67344777Y-29220777D01*
X67326599Y-29237253D01*
X67306893Y-29251868D01*
X67285850Y-29264480D01*
X67263671Y-29274970D01*
X67240572Y-29283235D01*
X67216773Y-29289196D01*
X67192505Y-29292796D01*
X67168001Y-29294000D01*
X65927999Y-29294000D01*
X65903495Y-29292796D01*
X65879227Y-29289196D01*
X65855428Y-29283235D01*
X65832329Y-29274970D01*
X65810150Y-29264480D01*
X65789107Y-29251868D01*
X65769401Y-29237253D01*
X65751223Y-29220777D01*
X65734747Y-29202599D01*
X65720132Y-29182893D01*
X65707520Y-29161850D01*
X65697030Y-29139671D01*
X65688765Y-29116572D01*
X65682804Y-29092773D01*
X65679204Y-29068505D01*
X65678000Y-29044001D01*
X65678000Y-27343999D01*
X65679204Y-27319495D01*
X65682804Y-27295227D01*
X65688765Y-27271428D01*
X65697030Y-27248329D01*
X65707520Y-27226150D01*
X65720132Y-27205107D01*
X65734747Y-27185401D01*
X65751223Y-27167223D01*
X65769401Y-27150747D01*
X65789107Y-27136132D01*
X65810150Y-27123520D01*
X65832329Y-27113030D01*
X65855428Y-27104765D01*
X65879227Y-27098804D01*
X65903495Y-27095204D01*
X65927999Y-27094000D01*
X67168001Y-27094000D01*
X67192505Y-27095204D01*
X67192505Y-27095204D01*
G37*
D14*
X66548000Y-28194000D03*
D13*
G36*
X73796505Y-27095204D02*
X73820773Y-27098804D01*
X73844572Y-27104765D01*
X73867671Y-27113030D01*
X73889850Y-27123520D01*
X73910893Y-27136132D01*
X73930599Y-27150747D01*
X73948777Y-27167223D01*
X73965253Y-27185401D01*
X73979868Y-27205107D01*
X73992480Y-27226150D01*
X74002970Y-27248329D01*
X74011235Y-27271428D01*
X74017196Y-27295227D01*
X74020796Y-27319495D01*
X74022000Y-27343999D01*
X74022000Y-29044001D01*
X74020796Y-29068505D01*
X74017196Y-29092773D01*
X74011235Y-29116572D01*
X74002970Y-29139671D01*
X73992480Y-29161850D01*
X73979868Y-29182893D01*
X73965253Y-29202599D01*
X73948777Y-29220777D01*
X73930599Y-29237253D01*
X73910893Y-29251868D01*
X73889850Y-29264480D01*
X73867671Y-29274970D01*
X73844572Y-29283235D01*
X73820773Y-29289196D01*
X73796505Y-29292796D01*
X73772001Y-29294000D01*
X72531999Y-29294000D01*
X72507495Y-29292796D01*
X72483227Y-29289196D01*
X72459428Y-29283235D01*
X72436329Y-29274970D01*
X72414150Y-29264480D01*
X72393107Y-29251868D01*
X72373401Y-29237253D01*
X72355223Y-29220777D01*
X72338747Y-29202599D01*
X72324132Y-29182893D01*
X72311520Y-29161850D01*
X72301030Y-29139671D01*
X72292765Y-29116572D01*
X72286804Y-29092773D01*
X72283204Y-29068505D01*
X72282000Y-29044001D01*
X72282000Y-27343999D01*
X72283204Y-27319495D01*
X72286804Y-27295227D01*
X72292765Y-27271428D01*
X72301030Y-27248329D01*
X72311520Y-27226150D01*
X72324132Y-27205107D01*
X72338747Y-27185401D01*
X72355223Y-27167223D01*
X72373401Y-27150747D01*
X72393107Y-27136132D01*
X72414150Y-27123520D01*
X72436329Y-27113030D01*
X72459428Y-27104765D01*
X72483227Y-27098804D01*
X72507495Y-27095204D01*
X72531999Y-27094000D01*
X73772001Y-27094000D01*
X73796505Y-27095204D01*
X73796505Y-27095204D01*
G37*
D14*
X73152000Y-28194000D03*
D12*
X75692000Y-28194000D03*
X66548000Y-35306000D03*
D13*
G36*
X69732505Y-34207204D02*
X69756773Y-34210804D01*
X69780572Y-34216765D01*
X69803671Y-34225030D01*
X69825850Y-34235520D01*
X69846893Y-34248132D01*
X69866599Y-34262747D01*
X69884777Y-34279223D01*
X69901253Y-34297401D01*
X69915868Y-34317107D01*
X69928480Y-34338150D01*
X69938970Y-34360329D01*
X69947235Y-34383428D01*
X69953196Y-34407227D01*
X69956796Y-34431495D01*
X69958000Y-34455999D01*
X69958000Y-36156001D01*
X69956796Y-36180505D01*
X69953196Y-36204773D01*
X69947235Y-36228572D01*
X69938970Y-36251671D01*
X69928480Y-36273850D01*
X69915868Y-36294893D01*
X69901253Y-36314599D01*
X69884777Y-36332777D01*
X69866599Y-36349253D01*
X69846893Y-36363868D01*
X69825850Y-36376480D01*
X69803671Y-36386970D01*
X69780572Y-36395235D01*
X69756773Y-36401196D01*
X69732505Y-36404796D01*
X69708001Y-36406000D01*
X68467999Y-36406000D01*
X68443495Y-36404796D01*
X68419227Y-36401196D01*
X68395428Y-36395235D01*
X68372329Y-36386970D01*
X68350150Y-36376480D01*
X68329107Y-36363868D01*
X68309401Y-36349253D01*
X68291223Y-36332777D01*
X68274747Y-36314599D01*
X68260132Y-36294893D01*
X68247520Y-36273850D01*
X68237030Y-36251671D01*
X68228765Y-36228572D01*
X68222804Y-36204773D01*
X68219204Y-36180505D01*
X68218000Y-36156001D01*
X68218000Y-34455999D01*
X68219204Y-34431495D01*
X68222804Y-34407227D01*
X68228765Y-34383428D01*
X68237030Y-34360329D01*
X68247520Y-34338150D01*
X68260132Y-34317107D01*
X68274747Y-34297401D01*
X68291223Y-34279223D01*
X68309401Y-34262747D01*
X68329107Y-34248132D01*
X68350150Y-34235520D01*
X68372329Y-34225030D01*
X68395428Y-34216765D01*
X68419227Y-34210804D01*
X68443495Y-34207204D01*
X68467999Y-34206000D01*
X69708001Y-34206000D01*
X69732505Y-34207204D01*
X69732505Y-34207204D01*
G37*
D14*
X69088000Y-35306000D03*
D13*
G36*
X76336505Y-34207204D02*
X76360773Y-34210804D01*
X76384572Y-34216765D01*
X76407671Y-34225030D01*
X76429850Y-34235520D01*
X76450893Y-34248132D01*
X76470599Y-34262747D01*
X76488777Y-34279223D01*
X76505253Y-34297401D01*
X76519868Y-34317107D01*
X76532480Y-34338150D01*
X76542970Y-34360329D01*
X76551235Y-34383428D01*
X76557196Y-34407227D01*
X76560796Y-34431495D01*
X76562000Y-34455999D01*
X76562000Y-36156001D01*
X76560796Y-36180505D01*
X76557196Y-36204773D01*
X76551235Y-36228572D01*
X76542970Y-36251671D01*
X76532480Y-36273850D01*
X76519868Y-36294893D01*
X76505253Y-36314599D01*
X76488777Y-36332777D01*
X76470599Y-36349253D01*
X76450893Y-36363868D01*
X76429850Y-36376480D01*
X76407671Y-36386970D01*
X76384572Y-36395235D01*
X76360773Y-36401196D01*
X76336505Y-36404796D01*
X76312001Y-36406000D01*
X75071999Y-36406000D01*
X75047495Y-36404796D01*
X75023227Y-36401196D01*
X74999428Y-36395235D01*
X74976329Y-36386970D01*
X74954150Y-36376480D01*
X74933107Y-36363868D01*
X74913401Y-36349253D01*
X74895223Y-36332777D01*
X74878747Y-36314599D01*
X74864132Y-36294893D01*
X74851520Y-36273850D01*
X74841030Y-36251671D01*
X74832765Y-36228572D01*
X74826804Y-36204773D01*
X74823204Y-36180505D01*
X74822000Y-36156001D01*
X74822000Y-34455999D01*
X74823204Y-34431495D01*
X74826804Y-34407227D01*
X74832765Y-34383428D01*
X74841030Y-34360329D01*
X74851520Y-34338150D01*
X74864132Y-34317107D01*
X74878747Y-34297401D01*
X74895223Y-34279223D01*
X74913401Y-34262747D01*
X74933107Y-34248132D01*
X74954150Y-34235520D01*
X74976329Y-34225030D01*
X74999428Y-34216765D01*
X75023227Y-34210804D01*
X75047495Y-34207204D01*
X75071999Y-34206000D01*
X76312001Y-34206000D01*
X76336505Y-34207204D01*
X76336505Y-34207204D01*
G37*
D14*
X75692000Y-35306000D03*
D12*
X73152000Y-35306000D03*
D13*
G36*
X80400505Y-27095204D02*
X80424773Y-27098804D01*
X80448572Y-27104765D01*
X80471671Y-27113030D01*
X80493850Y-27123520D01*
X80514893Y-27136132D01*
X80534599Y-27150747D01*
X80552777Y-27167223D01*
X80569253Y-27185401D01*
X80583868Y-27205107D01*
X80596480Y-27226150D01*
X80606970Y-27248329D01*
X80615235Y-27271428D01*
X80621196Y-27295227D01*
X80624796Y-27319495D01*
X80626000Y-27343999D01*
X80626000Y-29044001D01*
X80624796Y-29068505D01*
X80621196Y-29092773D01*
X80615235Y-29116572D01*
X80606970Y-29139671D01*
X80596480Y-29161850D01*
X80583868Y-29182893D01*
X80569253Y-29202599D01*
X80552777Y-29220777D01*
X80534599Y-29237253D01*
X80514893Y-29251868D01*
X80493850Y-29264480D01*
X80471671Y-29274970D01*
X80448572Y-29283235D01*
X80424773Y-29289196D01*
X80400505Y-29292796D01*
X80376001Y-29294000D01*
X79135999Y-29294000D01*
X79111495Y-29292796D01*
X79087227Y-29289196D01*
X79063428Y-29283235D01*
X79040329Y-29274970D01*
X79018150Y-29264480D01*
X78997107Y-29251868D01*
X78977401Y-29237253D01*
X78959223Y-29220777D01*
X78942747Y-29202599D01*
X78928132Y-29182893D01*
X78915520Y-29161850D01*
X78905030Y-29139671D01*
X78896765Y-29116572D01*
X78890804Y-29092773D01*
X78887204Y-29068505D01*
X78886000Y-29044001D01*
X78886000Y-27343999D01*
X78887204Y-27319495D01*
X78890804Y-27295227D01*
X78896765Y-27271428D01*
X78905030Y-27248329D01*
X78915520Y-27226150D01*
X78928132Y-27205107D01*
X78942747Y-27185401D01*
X78959223Y-27167223D01*
X78977401Y-27150747D01*
X78997107Y-27136132D01*
X79018150Y-27123520D01*
X79040329Y-27113030D01*
X79063428Y-27104765D01*
X79087227Y-27098804D01*
X79111495Y-27095204D01*
X79135999Y-27094000D01*
X80376001Y-27094000D01*
X80400505Y-27095204D01*
X80400505Y-27095204D01*
G37*
D14*
X79756000Y-28194000D03*
D12*
X82296000Y-28194000D03*
D10*
X82296000Y-38862000D03*
D11*
X79756000Y-38862000D03*
X82296000Y-36322000D03*
X79756000Y-36322000D03*
X82296000Y-33782000D03*
X79756000Y-33782000D03*
D13*
G36*
X69562505Y-30151204D02*
X69586773Y-30154804D01*
X69610572Y-30160765D01*
X69633671Y-30169030D01*
X69655850Y-30179520D01*
X69676893Y-30192132D01*
X69696599Y-30206747D01*
X69714777Y-30223223D01*
X69731253Y-30241401D01*
X69745868Y-30261107D01*
X69758480Y-30282150D01*
X69768970Y-30304329D01*
X69777235Y-30327428D01*
X69783196Y-30351227D01*
X69786796Y-30375495D01*
X69788000Y-30399999D01*
X69788000Y-31050001D01*
X69786796Y-31074505D01*
X69783196Y-31098773D01*
X69777235Y-31122572D01*
X69768970Y-31145671D01*
X69758480Y-31167850D01*
X69745868Y-31188893D01*
X69731253Y-31208599D01*
X69714777Y-31226777D01*
X69696599Y-31243253D01*
X69676893Y-31257868D01*
X69655850Y-31270480D01*
X69633671Y-31280970D01*
X69610572Y-31289235D01*
X69586773Y-31295196D01*
X69562505Y-31298796D01*
X69538001Y-31300000D01*
X68637999Y-31300000D01*
X68613495Y-31298796D01*
X68589227Y-31295196D01*
X68565428Y-31289235D01*
X68542329Y-31280970D01*
X68520150Y-31270480D01*
X68499107Y-31257868D01*
X68479401Y-31243253D01*
X68461223Y-31226777D01*
X68444747Y-31208599D01*
X68430132Y-31188893D01*
X68417520Y-31167850D01*
X68407030Y-31145671D01*
X68398765Y-31122572D01*
X68392804Y-31098773D01*
X68389204Y-31074505D01*
X68388000Y-31050001D01*
X68388000Y-30399999D01*
X68389204Y-30375495D01*
X68392804Y-30351227D01*
X68398765Y-30327428D01*
X68407030Y-30304329D01*
X68417520Y-30282150D01*
X68430132Y-30261107D01*
X68444747Y-30241401D01*
X68461223Y-30223223D01*
X68479401Y-30206747D01*
X68499107Y-30192132D01*
X68520150Y-30179520D01*
X68542329Y-30169030D01*
X68565428Y-30160765D01*
X68589227Y-30154804D01*
X68613495Y-30151204D01*
X68637999Y-30150000D01*
X69538001Y-30150000D01*
X69562505Y-30151204D01*
X69562505Y-30151204D01*
G37*
D15*
X69088000Y-30725000D03*
D13*
G36*
X69562505Y-32201204D02*
X69586773Y-32204804D01*
X69610572Y-32210765D01*
X69633671Y-32219030D01*
X69655850Y-32229520D01*
X69676893Y-32242132D01*
X69696599Y-32256747D01*
X69714777Y-32273223D01*
X69731253Y-32291401D01*
X69745868Y-32311107D01*
X69758480Y-32332150D01*
X69768970Y-32354329D01*
X69777235Y-32377428D01*
X69783196Y-32401227D01*
X69786796Y-32425495D01*
X69788000Y-32449999D01*
X69788000Y-33100001D01*
X69786796Y-33124505D01*
X69783196Y-33148773D01*
X69777235Y-33172572D01*
X69768970Y-33195671D01*
X69758480Y-33217850D01*
X69745868Y-33238893D01*
X69731253Y-33258599D01*
X69714777Y-33276777D01*
X69696599Y-33293253D01*
X69676893Y-33307868D01*
X69655850Y-33320480D01*
X69633671Y-33330970D01*
X69610572Y-33339235D01*
X69586773Y-33345196D01*
X69562505Y-33348796D01*
X69538001Y-33350000D01*
X68637999Y-33350000D01*
X68613495Y-33348796D01*
X68589227Y-33345196D01*
X68565428Y-33339235D01*
X68542329Y-33330970D01*
X68520150Y-33320480D01*
X68499107Y-33307868D01*
X68479401Y-33293253D01*
X68461223Y-33276777D01*
X68444747Y-33258599D01*
X68430132Y-33238893D01*
X68417520Y-33217850D01*
X68407030Y-33195671D01*
X68398765Y-33172572D01*
X68392804Y-33148773D01*
X68389204Y-33124505D01*
X68388000Y-33100001D01*
X68388000Y-32449999D01*
X68389204Y-32425495D01*
X68392804Y-32401227D01*
X68398765Y-32377428D01*
X68407030Y-32354329D01*
X68417520Y-32332150D01*
X68430132Y-32311107D01*
X68444747Y-32291401D01*
X68461223Y-32273223D01*
X68479401Y-32256747D01*
X68499107Y-32242132D01*
X68520150Y-32229520D01*
X68542329Y-32219030D01*
X68565428Y-32210765D01*
X68589227Y-32204804D01*
X68613495Y-32201204D01*
X68637999Y-32200000D01*
X69538001Y-32200000D01*
X69562505Y-32201204D01*
X69562505Y-32201204D01*
G37*
D15*
X69088000Y-32775000D03*
D13*
G36*
X76166505Y-32210204D02*
X76190773Y-32213804D01*
X76214572Y-32219765D01*
X76237671Y-32228030D01*
X76259850Y-32238520D01*
X76280893Y-32251132D01*
X76300599Y-32265747D01*
X76318777Y-32282223D01*
X76335253Y-32300401D01*
X76349868Y-32320107D01*
X76362480Y-32341150D01*
X76372970Y-32363329D01*
X76381235Y-32386428D01*
X76387196Y-32410227D01*
X76390796Y-32434495D01*
X76392000Y-32458999D01*
X76392000Y-33109001D01*
X76390796Y-33133505D01*
X76387196Y-33157773D01*
X76381235Y-33181572D01*
X76372970Y-33204671D01*
X76362480Y-33226850D01*
X76349868Y-33247893D01*
X76335253Y-33267599D01*
X76318777Y-33285777D01*
X76300599Y-33302253D01*
X76280893Y-33316868D01*
X76259850Y-33329480D01*
X76237671Y-33339970D01*
X76214572Y-33348235D01*
X76190773Y-33354196D01*
X76166505Y-33357796D01*
X76142001Y-33359000D01*
X75241999Y-33359000D01*
X75217495Y-33357796D01*
X75193227Y-33354196D01*
X75169428Y-33348235D01*
X75146329Y-33339970D01*
X75124150Y-33329480D01*
X75103107Y-33316868D01*
X75083401Y-33302253D01*
X75065223Y-33285777D01*
X75048747Y-33267599D01*
X75034132Y-33247893D01*
X75021520Y-33226850D01*
X75011030Y-33204671D01*
X75002765Y-33181572D01*
X74996804Y-33157773D01*
X74993204Y-33133505D01*
X74992000Y-33109001D01*
X74992000Y-32458999D01*
X74993204Y-32434495D01*
X74996804Y-32410227D01*
X75002765Y-32386428D01*
X75011030Y-32363329D01*
X75021520Y-32341150D01*
X75034132Y-32320107D01*
X75048747Y-32300401D01*
X75065223Y-32282223D01*
X75083401Y-32265747D01*
X75103107Y-32251132D01*
X75124150Y-32238520D01*
X75146329Y-32228030D01*
X75169428Y-32219765D01*
X75193227Y-32213804D01*
X75217495Y-32210204D01*
X75241999Y-32209000D01*
X76142001Y-32209000D01*
X76166505Y-32210204D01*
X76166505Y-32210204D01*
G37*
D15*
X75692000Y-32784000D03*
D13*
G36*
X76166910Y-30160202D02*
X76191135Y-30163795D01*
X76214891Y-30169746D01*
X76237949Y-30177996D01*
X76260087Y-30188467D01*
X76281093Y-30201057D01*
X76300763Y-30215645D01*
X76318908Y-30232092D01*
X76335355Y-30250237D01*
X76349943Y-30269907D01*
X76362533Y-30290913D01*
X76373004Y-30313051D01*
X76381254Y-30336109D01*
X76387205Y-30359865D01*
X76390798Y-30384090D01*
X76392000Y-30408550D01*
X76392000Y-31059450D01*
X76390798Y-31083910D01*
X76387205Y-31108135D01*
X76381254Y-31131891D01*
X76373004Y-31154949D01*
X76362533Y-31177087D01*
X76349943Y-31198093D01*
X76335355Y-31217763D01*
X76318908Y-31235908D01*
X76300763Y-31252355D01*
X76281093Y-31266943D01*
X76260087Y-31279533D01*
X76237949Y-31290004D01*
X76214891Y-31298254D01*
X76191135Y-31304205D01*
X76166910Y-31307798D01*
X76142450Y-31309000D01*
X75241550Y-31309000D01*
X75217090Y-31307798D01*
X75192865Y-31304205D01*
X75169109Y-31298254D01*
X75146051Y-31290004D01*
X75123913Y-31279533D01*
X75102907Y-31266943D01*
X75083237Y-31252355D01*
X75065092Y-31235908D01*
X75048645Y-31217763D01*
X75034057Y-31198093D01*
X75021467Y-31177087D01*
X75010996Y-31154949D01*
X75002746Y-31131891D01*
X74996795Y-31108135D01*
X74993202Y-31083910D01*
X74992000Y-31059450D01*
X74992000Y-30408550D01*
X74993202Y-30384090D01*
X74996795Y-30359865D01*
X75002746Y-30336109D01*
X75010996Y-30313051D01*
X75021467Y-30290913D01*
X75034057Y-30269907D01*
X75048645Y-30250237D01*
X75065092Y-30232092D01*
X75083237Y-30215645D01*
X75102907Y-30201057D01*
X75123913Y-30188467D01*
X75146051Y-30177996D01*
X75169109Y-30169746D01*
X75192865Y-30163795D01*
X75217090Y-30160202D01*
X75241550Y-30159000D01*
X76142450Y-30159000D01*
X76166910Y-30160202D01*
X76166910Y-30160202D01*
G37*
D15*
X75692000Y-30734000D03*
D13*
G36*
X69562505Y-37272204D02*
X69586773Y-37275804D01*
X69610572Y-37281765D01*
X69633671Y-37290030D01*
X69655850Y-37300520D01*
X69676893Y-37313132D01*
X69696599Y-37327747D01*
X69714777Y-37344223D01*
X69731253Y-37362401D01*
X69745868Y-37382107D01*
X69758480Y-37403150D01*
X69768970Y-37425329D01*
X69777235Y-37448428D01*
X69783196Y-37472227D01*
X69786796Y-37496495D01*
X69788000Y-37520999D01*
X69788000Y-38171001D01*
X69786796Y-38195505D01*
X69783196Y-38219773D01*
X69777235Y-38243572D01*
X69768970Y-38266671D01*
X69758480Y-38288850D01*
X69745868Y-38309893D01*
X69731253Y-38329599D01*
X69714777Y-38347777D01*
X69696599Y-38364253D01*
X69676893Y-38378868D01*
X69655850Y-38391480D01*
X69633671Y-38401970D01*
X69610572Y-38410235D01*
X69586773Y-38416196D01*
X69562505Y-38419796D01*
X69538001Y-38421000D01*
X68637999Y-38421000D01*
X68613495Y-38419796D01*
X68589227Y-38416196D01*
X68565428Y-38410235D01*
X68542329Y-38401970D01*
X68520150Y-38391480D01*
X68499107Y-38378868D01*
X68479401Y-38364253D01*
X68461223Y-38347777D01*
X68444747Y-38329599D01*
X68430132Y-38309893D01*
X68417520Y-38288850D01*
X68407030Y-38266671D01*
X68398765Y-38243572D01*
X68392804Y-38219773D01*
X68389204Y-38195505D01*
X68388000Y-38171001D01*
X68388000Y-37520999D01*
X68389204Y-37496495D01*
X68392804Y-37472227D01*
X68398765Y-37448428D01*
X68407030Y-37425329D01*
X68417520Y-37403150D01*
X68430132Y-37382107D01*
X68444747Y-37362401D01*
X68461223Y-37344223D01*
X68479401Y-37327747D01*
X68499107Y-37313132D01*
X68520150Y-37300520D01*
X68542329Y-37290030D01*
X68565428Y-37281765D01*
X68589227Y-37275804D01*
X68613495Y-37272204D01*
X68637999Y-37271000D01*
X69538001Y-37271000D01*
X69562505Y-37272204D01*
X69562505Y-37272204D01*
G37*
D15*
X69088000Y-37846000D03*
D13*
G36*
X69562505Y-39322204D02*
X69586773Y-39325804D01*
X69610572Y-39331765D01*
X69633671Y-39340030D01*
X69655850Y-39350520D01*
X69676893Y-39363132D01*
X69696599Y-39377747D01*
X69714777Y-39394223D01*
X69731253Y-39412401D01*
X69745868Y-39432107D01*
X69758480Y-39453150D01*
X69768970Y-39475329D01*
X69777235Y-39498428D01*
X69783196Y-39522227D01*
X69786796Y-39546495D01*
X69788000Y-39570999D01*
X69788000Y-40221001D01*
X69786796Y-40245505D01*
X69783196Y-40269773D01*
X69777235Y-40293572D01*
X69768970Y-40316671D01*
X69758480Y-40338850D01*
X69745868Y-40359893D01*
X69731253Y-40379599D01*
X69714777Y-40397777D01*
X69696599Y-40414253D01*
X69676893Y-40428868D01*
X69655850Y-40441480D01*
X69633671Y-40451970D01*
X69610572Y-40460235D01*
X69586773Y-40466196D01*
X69562505Y-40469796D01*
X69538001Y-40471000D01*
X68637999Y-40471000D01*
X68613495Y-40469796D01*
X68589227Y-40466196D01*
X68565428Y-40460235D01*
X68542329Y-40451970D01*
X68520150Y-40441480D01*
X68499107Y-40428868D01*
X68479401Y-40414253D01*
X68461223Y-40397777D01*
X68444747Y-40379599D01*
X68430132Y-40359893D01*
X68417520Y-40338850D01*
X68407030Y-40316671D01*
X68398765Y-40293572D01*
X68392804Y-40269773D01*
X68389204Y-40245505D01*
X68388000Y-40221001D01*
X68388000Y-39570999D01*
X68389204Y-39546495D01*
X68392804Y-39522227D01*
X68398765Y-39498428D01*
X68407030Y-39475329D01*
X68417520Y-39453150D01*
X68430132Y-39432107D01*
X68444747Y-39412401D01*
X68461223Y-39394223D01*
X68479401Y-39377747D01*
X68499107Y-39363132D01*
X68520150Y-39350520D01*
X68542329Y-39340030D01*
X68565428Y-39331765D01*
X68589227Y-39325804D01*
X68613495Y-39322204D01*
X68637999Y-39321000D01*
X69538001Y-39321000D01*
X69562505Y-39322204D01*
X69562505Y-39322204D01*
G37*
D15*
X69088000Y-39896000D03*
D13*
G36*
X73626505Y-39313204D02*
X73650773Y-39316804D01*
X73674572Y-39322765D01*
X73697671Y-39331030D01*
X73719850Y-39341520D01*
X73740893Y-39354132D01*
X73760599Y-39368747D01*
X73778777Y-39385223D01*
X73795253Y-39403401D01*
X73809868Y-39423107D01*
X73822480Y-39444150D01*
X73832970Y-39466329D01*
X73841235Y-39489428D01*
X73847196Y-39513227D01*
X73850796Y-39537495D01*
X73852000Y-39561999D01*
X73852000Y-40212001D01*
X73850796Y-40236505D01*
X73847196Y-40260773D01*
X73841235Y-40284572D01*
X73832970Y-40307671D01*
X73822480Y-40329850D01*
X73809868Y-40350893D01*
X73795253Y-40370599D01*
X73778777Y-40388777D01*
X73760599Y-40405253D01*
X73740893Y-40419868D01*
X73719850Y-40432480D01*
X73697671Y-40442970D01*
X73674572Y-40451235D01*
X73650773Y-40457196D01*
X73626505Y-40460796D01*
X73602001Y-40462000D01*
X72701999Y-40462000D01*
X72677495Y-40460796D01*
X72653227Y-40457196D01*
X72629428Y-40451235D01*
X72606329Y-40442970D01*
X72584150Y-40432480D01*
X72563107Y-40419868D01*
X72543401Y-40405253D01*
X72525223Y-40388777D01*
X72508747Y-40370599D01*
X72494132Y-40350893D01*
X72481520Y-40329850D01*
X72471030Y-40307671D01*
X72462765Y-40284572D01*
X72456804Y-40260773D01*
X72453204Y-40236505D01*
X72452000Y-40212001D01*
X72452000Y-39561999D01*
X72453204Y-39537495D01*
X72456804Y-39513227D01*
X72462765Y-39489428D01*
X72471030Y-39466329D01*
X72481520Y-39444150D01*
X72494132Y-39423107D01*
X72508747Y-39403401D01*
X72525223Y-39385223D01*
X72543401Y-39368747D01*
X72563107Y-39354132D01*
X72584150Y-39341520D01*
X72606329Y-39331030D01*
X72629428Y-39322765D01*
X72653227Y-39316804D01*
X72677495Y-39313204D01*
X72701999Y-39312000D01*
X73602001Y-39312000D01*
X73626505Y-39313204D01*
X73626505Y-39313204D01*
G37*
D15*
X73152000Y-39887000D03*
D13*
G36*
X73626505Y-37263204D02*
X73650773Y-37266804D01*
X73674572Y-37272765D01*
X73697671Y-37281030D01*
X73719850Y-37291520D01*
X73740893Y-37304132D01*
X73760599Y-37318747D01*
X73778777Y-37335223D01*
X73795253Y-37353401D01*
X73809868Y-37373107D01*
X73822480Y-37394150D01*
X73832970Y-37416329D01*
X73841235Y-37439428D01*
X73847196Y-37463227D01*
X73850796Y-37487495D01*
X73852000Y-37511999D01*
X73852000Y-38162001D01*
X73850796Y-38186505D01*
X73847196Y-38210773D01*
X73841235Y-38234572D01*
X73832970Y-38257671D01*
X73822480Y-38279850D01*
X73809868Y-38300893D01*
X73795253Y-38320599D01*
X73778777Y-38338777D01*
X73760599Y-38355253D01*
X73740893Y-38369868D01*
X73719850Y-38382480D01*
X73697671Y-38392970D01*
X73674572Y-38401235D01*
X73650773Y-38407196D01*
X73626505Y-38410796D01*
X73602001Y-38412000D01*
X72701999Y-38412000D01*
X72677495Y-38410796D01*
X72653227Y-38407196D01*
X72629428Y-38401235D01*
X72606329Y-38392970D01*
X72584150Y-38382480D01*
X72563107Y-38369868D01*
X72543401Y-38355253D01*
X72525223Y-38338777D01*
X72508747Y-38320599D01*
X72494132Y-38300893D01*
X72481520Y-38279850D01*
X72471030Y-38257671D01*
X72462765Y-38234572D01*
X72456804Y-38210773D01*
X72453204Y-38186505D01*
X72452000Y-38162001D01*
X72452000Y-37511999D01*
X72453204Y-37487495D01*
X72456804Y-37463227D01*
X72462765Y-37439428D01*
X72471030Y-37416329D01*
X72481520Y-37394150D01*
X72494132Y-37373107D01*
X72508747Y-37353401D01*
X72525223Y-37335223D01*
X72543401Y-37318747D01*
X72563107Y-37304132D01*
X72584150Y-37291520D01*
X72606329Y-37281030D01*
X72629428Y-37272765D01*
X72653227Y-37266804D01*
X72677495Y-37263204D01*
X72701999Y-37262000D01*
X73602001Y-37262000D01*
X73626505Y-37263204D01*
X73626505Y-37263204D01*
G37*
D15*
X73152000Y-37837000D03*
D13*
G36*
X85564505Y-31439204D02*
X85588773Y-31442804D01*
X85612572Y-31448765D01*
X85635671Y-31457030D01*
X85657850Y-31467520D01*
X85678893Y-31480132D01*
X85698599Y-31494747D01*
X85716777Y-31511223D01*
X85733253Y-31529401D01*
X85747868Y-31549107D01*
X85760480Y-31570150D01*
X85770970Y-31592329D01*
X85779235Y-31615428D01*
X85785196Y-31639227D01*
X85788796Y-31663495D01*
X85790000Y-31687999D01*
X85790000Y-32338001D01*
X85788796Y-32362505D01*
X85785196Y-32386773D01*
X85779235Y-32410572D01*
X85770970Y-32433671D01*
X85760480Y-32455850D01*
X85747868Y-32476893D01*
X85733253Y-32496599D01*
X85716777Y-32514777D01*
X85698599Y-32531253D01*
X85678893Y-32545868D01*
X85657850Y-32558480D01*
X85635671Y-32568970D01*
X85612572Y-32577235D01*
X85588773Y-32583196D01*
X85564505Y-32586796D01*
X85540001Y-32588000D01*
X84639999Y-32588000D01*
X84615495Y-32586796D01*
X84591227Y-32583196D01*
X84567428Y-32577235D01*
X84544329Y-32568970D01*
X84522150Y-32558480D01*
X84501107Y-32545868D01*
X84481401Y-32531253D01*
X84463223Y-32514777D01*
X84446747Y-32496599D01*
X84432132Y-32476893D01*
X84419520Y-32455850D01*
X84409030Y-32433671D01*
X84400765Y-32410572D01*
X84394804Y-32386773D01*
X84391204Y-32362505D01*
X84390000Y-32338001D01*
X84390000Y-31687999D01*
X84391204Y-31663495D01*
X84394804Y-31639227D01*
X84400765Y-31615428D01*
X84409030Y-31592329D01*
X84419520Y-31570150D01*
X84432132Y-31549107D01*
X84446747Y-31529401D01*
X84463223Y-31511223D01*
X84481401Y-31494747D01*
X84501107Y-31480132D01*
X84522150Y-31467520D01*
X84544329Y-31457030D01*
X84567428Y-31448765D01*
X84591227Y-31442804D01*
X84615495Y-31439204D01*
X84639999Y-31438000D01*
X85540001Y-31438000D01*
X85564505Y-31439204D01*
X85564505Y-31439204D01*
G37*
D15*
X85090000Y-32013000D03*
D13*
G36*
X85564505Y-29389204D02*
X85588773Y-29392804D01*
X85612572Y-29398765D01*
X85635671Y-29407030D01*
X85657850Y-29417520D01*
X85678893Y-29430132D01*
X85698599Y-29444747D01*
X85716777Y-29461223D01*
X85733253Y-29479401D01*
X85747868Y-29499107D01*
X85760480Y-29520150D01*
X85770970Y-29542329D01*
X85779235Y-29565428D01*
X85785196Y-29589227D01*
X85788796Y-29613495D01*
X85790000Y-29637999D01*
X85790000Y-30288001D01*
X85788796Y-30312505D01*
X85785196Y-30336773D01*
X85779235Y-30360572D01*
X85770970Y-30383671D01*
X85760480Y-30405850D01*
X85747868Y-30426893D01*
X85733253Y-30446599D01*
X85716777Y-30464777D01*
X85698599Y-30481253D01*
X85678893Y-30495868D01*
X85657850Y-30508480D01*
X85635671Y-30518970D01*
X85612572Y-30527235D01*
X85588773Y-30533196D01*
X85564505Y-30536796D01*
X85540001Y-30538000D01*
X84639999Y-30538000D01*
X84615495Y-30536796D01*
X84591227Y-30533196D01*
X84567428Y-30527235D01*
X84544329Y-30518970D01*
X84522150Y-30508480D01*
X84501107Y-30495868D01*
X84481401Y-30481253D01*
X84463223Y-30464777D01*
X84446747Y-30446599D01*
X84432132Y-30426893D01*
X84419520Y-30405850D01*
X84409030Y-30383671D01*
X84400765Y-30360572D01*
X84394804Y-30336773D01*
X84391204Y-30312505D01*
X84390000Y-30288001D01*
X84390000Y-29637999D01*
X84391204Y-29613495D01*
X84394804Y-29589227D01*
X84400765Y-29565428D01*
X84409030Y-29542329D01*
X84419520Y-29520150D01*
X84432132Y-29499107D01*
X84446747Y-29479401D01*
X84463223Y-29461223D01*
X84481401Y-29444747D01*
X84501107Y-29430132D01*
X84522150Y-29417520D01*
X84544329Y-29407030D01*
X84567428Y-29398765D01*
X84591227Y-29392804D01*
X84615495Y-29389204D01*
X84639999Y-29388000D01*
X85540001Y-29388000D01*
X85564505Y-29389204D01*
X85564505Y-29389204D01*
G37*
D15*
X85090000Y-29963000D03*
D13*
G36*
X53222505Y-23793204D02*
X53246773Y-23796804D01*
X53270572Y-23802765D01*
X53293671Y-23811030D01*
X53315850Y-23821520D01*
X53336893Y-23834132D01*
X53356599Y-23848747D01*
X53374777Y-23865223D01*
X53391253Y-23883401D01*
X53405868Y-23903107D01*
X53418480Y-23924150D01*
X53428970Y-23946329D01*
X53437235Y-23969428D01*
X53443196Y-23993227D01*
X53446796Y-24017495D01*
X53448000Y-24041999D01*
X53448000Y-25742001D01*
X53446796Y-25766505D01*
X53443196Y-25790773D01*
X53437235Y-25814572D01*
X53428970Y-25837671D01*
X53418480Y-25859850D01*
X53405868Y-25880893D01*
X53391253Y-25900599D01*
X53374777Y-25918777D01*
X53356599Y-25935253D01*
X53336893Y-25949868D01*
X53315850Y-25962480D01*
X53293671Y-25972970D01*
X53270572Y-25981235D01*
X53246773Y-25987196D01*
X53222505Y-25990796D01*
X53198001Y-25992000D01*
X51957999Y-25992000D01*
X51933495Y-25990796D01*
X51909227Y-25987196D01*
X51885428Y-25981235D01*
X51862329Y-25972970D01*
X51840150Y-25962480D01*
X51819107Y-25949868D01*
X51799401Y-25935253D01*
X51781223Y-25918777D01*
X51764747Y-25900599D01*
X51750132Y-25880893D01*
X51737520Y-25859850D01*
X51727030Y-25837671D01*
X51718765Y-25814572D01*
X51712804Y-25790773D01*
X51709204Y-25766505D01*
X51708000Y-25742001D01*
X51708000Y-24041999D01*
X51709204Y-24017495D01*
X51712804Y-23993227D01*
X51718765Y-23969428D01*
X51727030Y-23946329D01*
X51737520Y-23924150D01*
X51750132Y-23903107D01*
X51764747Y-23883401D01*
X51781223Y-23865223D01*
X51799401Y-23848747D01*
X51819107Y-23834132D01*
X51840150Y-23821520D01*
X51862329Y-23811030D01*
X51885428Y-23802765D01*
X51909227Y-23796804D01*
X51933495Y-23793204D01*
X51957999Y-23792000D01*
X53198001Y-23792000D01*
X53222505Y-23793204D01*
X53222505Y-23793204D01*
G37*
D14*
X52578000Y-24892000D03*
D12*
X50038000Y-24892000D03*
X47498000Y-24892000D03*
X44958000Y-24892000D03*
X54610000Y-67564000D03*
D13*
G36*
X52714505Y-66465204D02*
X52738773Y-66468804D01*
X52762572Y-66474765D01*
X52785671Y-66483030D01*
X52807850Y-66493520D01*
X52828893Y-66506132D01*
X52848599Y-66520747D01*
X52866777Y-66537223D01*
X52883253Y-66555401D01*
X52897868Y-66575107D01*
X52910480Y-66596150D01*
X52920970Y-66618329D01*
X52929235Y-66641428D01*
X52935196Y-66665227D01*
X52938796Y-66689495D01*
X52940000Y-66713999D01*
X52940000Y-68414001D01*
X52938796Y-68438505D01*
X52935196Y-68462773D01*
X52929235Y-68486572D01*
X52920970Y-68509671D01*
X52910480Y-68531850D01*
X52897868Y-68552893D01*
X52883253Y-68572599D01*
X52866777Y-68590777D01*
X52848599Y-68607253D01*
X52828893Y-68621868D01*
X52807850Y-68634480D01*
X52785671Y-68644970D01*
X52762572Y-68653235D01*
X52738773Y-68659196D01*
X52714505Y-68662796D01*
X52690001Y-68664000D01*
X51449999Y-68664000D01*
X51425495Y-68662796D01*
X51401227Y-68659196D01*
X51377428Y-68653235D01*
X51354329Y-68644970D01*
X51332150Y-68634480D01*
X51311107Y-68621868D01*
X51291401Y-68607253D01*
X51273223Y-68590777D01*
X51256747Y-68572599D01*
X51242132Y-68552893D01*
X51229520Y-68531850D01*
X51219030Y-68509671D01*
X51210765Y-68486572D01*
X51204804Y-68462773D01*
X51201204Y-68438505D01*
X51200000Y-68414001D01*
X51200000Y-66713999D01*
X51201204Y-66689495D01*
X51204804Y-66665227D01*
X51210765Y-66641428D01*
X51219030Y-66618329D01*
X51229520Y-66596150D01*
X51242132Y-66575107D01*
X51256747Y-66555401D01*
X51273223Y-66537223D01*
X51291401Y-66520747D01*
X51311107Y-66506132D01*
X51332150Y-66493520D01*
X51354329Y-66483030D01*
X51377428Y-66474765D01*
X51401227Y-66468804D01*
X51425495Y-66465204D01*
X51449999Y-66464000D01*
X52690001Y-66464000D01*
X52714505Y-66465204D01*
X52714505Y-66465204D01*
G37*
D14*
X52070000Y-67564000D03*
D13*
G36*
X46364505Y-66465204D02*
X46388773Y-66468804D01*
X46412572Y-66474765D01*
X46435671Y-66483030D01*
X46457850Y-66493520D01*
X46478893Y-66506132D01*
X46498599Y-66520747D01*
X46516777Y-66537223D01*
X46533253Y-66555401D01*
X46547868Y-66575107D01*
X46560480Y-66596150D01*
X46570970Y-66618329D01*
X46579235Y-66641428D01*
X46585196Y-66665227D01*
X46588796Y-66689495D01*
X46590000Y-66713999D01*
X46590000Y-68414001D01*
X46588796Y-68438505D01*
X46585196Y-68462773D01*
X46579235Y-68486572D01*
X46570970Y-68509671D01*
X46560480Y-68531850D01*
X46547868Y-68552893D01*
X46533253Y-68572599D01*
X46516777Y-68590777D01*
X46498599Y-68607253D01*
X46478893Y-68621868D01*
X46457850Y-68634480D01*
X46435671Y-68644970D01*
X46412572Y-68653235D01*
X46388773Y-68659196D01*
X46364505Y-68662796D01*
X46340001Y-68664000D01*
X45099999Y-68664000D01*
X45075495Y-68662796D01*
X45051227Y-68659196D01*
X45027428Y-68653235D01*
X45004329Y-68644970D01*
X44982150Y-68634480D01*
X44961107Y-68621868D01*
X44941401Y-68607253D01*
X44923223Y-68590777D01*
X44906747Y-68572599D01*
X44892132Y-68552893D01*
X44879520Y-68531850D01*
X44869030Y-68509671D01*
X44860765Y-68486572D01*
X44854804Y-68462773D01*
X44851204Y-68438505D01*
X44850000Y-68414001D01*
X44850000Y-66713999D01*
X44851204Y-66689495D01*
X44854804Y-66665227D01*
X44860765Y-66641428D01*
X44869030Y-66618329D01*
X44879520Y-66596150D01*
X44892132Y-66575107D01*
X44906747Y-66555401D01*
X44923223Y-66537223D01*
X44941401Y-66520747D01*
X44961107Y-66506132D01*
X44982150Y-66493520D01*
X45004329Y-66483030D01*
X45027428Y-66474765D01*
X45051227Y-66468804D01*
X45075495Y-66465204D01*
X45099999Y-66464000D01*
X46340001Y-66464000D01*
X46364505Y-66465204D01*
X46364505Y-66465204D01*
G37*
D14*
X45720000Y-67564000D03*
D12*
X48260000Y-67564000D03*
D13*
G36*
X53671505Y-62293204D02*
X53695773Y-62296804D01*
X53719572Y-62302765D01*
X53742671Y-62311030D01*
X53764850Y-62321520D01*
X53785893Y-62334132D01*
X53805599Y-62348747D01*
X53823777Y-62365223D01*
X53840253Y-62383401D01*
X53854868Y-62403107D01*
X53867480Y-62424150D01*
X53877970Y-62446329D01*
X53886235Y-62469428D01*
X53892196Y-62493227D01*
X53895796Y-62517495D01*
X53897000Y-62541999D01*
X53897000Y-63442001D01*
X53895796Y-63466505D01*
X53892196Y-63490773D01*
X53886235Y-63514572D01*
X53877970Y-63537671D01*
X53867480Y-63559850D01*
X53854868Y-63580893D01*
X53840253Y-63600599D01*
X53823777Y-63618777D01*
X53805599Y-63635253D01*
X53785893Y-63649868D01*
X53764850Y-63662480D01*
X53742671Y-63672970D01*
X53719572Y-63681235D01*
X53695773Y-63687196D01*
X53671505Y-63690796D01*
X53647001Y-63692000D01*
X52996999Y-63692000D01*
X52972495Y-63690796D01*
X52948227Y-63687196D01*
X52924428Y-63681235D01*
X52901329Y-63672970D01*
X52879150Y-63662480D01*
X52858107Y-63649868D01*
X52838401Y-63635253D01*
X52820223Y-63618777D01*
X52803747Y-63600599D01*
X52789132Y-63580893D01*
X52776520Y-63559850D01*
X52766030Y-63537671D01*
X52757765Y-63514572D01*
X52751804Y-63490773D01*
X52748204Y-63466505D01*
X52747000Y-63442001D01*
X52747000Y-62541999D01*
X52748204Y-62517495D01*
X52751804Y-62493227D01*
X52757765Y-62469428D01*
X52766030Y-62446329D01*
X52776520Y-62424150D01*
X52789132Y-62403107D01*
X52803747Y-62383401D01*
X52820223Y-62365223D01*
X52838401Y-62348747D01*
X52858107Y-62334132D01*
X52879150Y-62321520D01*
X52901329Y-62311030D01*
X52924428Y-62302765D01*
X52948227Y-62296804D01*
X52972495Y-62293204D01*
X52996999Y-62292000D01*
X53647001Y-62292000D01*
X53671505Y-62293204D01*
X53671505Y-62293204D01*
G37*
D15*
X53322000Y-62992000D03*
D13*
G36*
X55721505Y-62293204D02*
X55745773Y-62296804D01*
X55769572Y-62302765D01*
X55792671Y-62311030D01*
X55814850Y-62321520D01*
X55835893Y-62334132D01*
X55855599Y-62348747D01*
X55873777Y-62365223D01*
X55890253Y-62383401D01*
X55904868Y-62403107D01*
X55917480Y-62424150D01*
X55927970Y-62446329D01*
X55936235Y-62469428D01*
X55942196Y-62493227D01*
X55945796Y-62517495D01*
X55947000Y-62541999D01*
X55947000Y-63442001D01*
X55945796Y-63466505D01*
X55942196Y-63490773D01*
X55936235Y-63514572D01*
X55927970Y-63537671D01*
X55917480Y-63559850D01*
X55904868Y-63580893D01*
X55890253Y-63600599D01*
X55873777Y-63618777D01*
X55855599Y-63635253D01*
X55835893Y-63649868D01*
X55814850Y-63662480D01*
X55792671Y-63672970D01*
X55769572Y-63681235D01*
X55745773Y-63687196D01*
X55721505Y-63690796D01*
X55697001Y-63692000D01*
X55046999Y-63692000D01*
X55022495Y-63690796D01*
X54998227Y-63687196D01*
X54974428Y-63681235D01*
X54951329Y-63672970D01*
X54929150Y-63662480D01*
X54908107Y-63649868D01*
X54888401Y-63635253D01*
X54870223Y-63618777D01*
X54853747Y-63600599D01*
X54839132Y-63580893D01*
X54826520Y-63559850D01*
X54816030Y-63537671D01*
X54807765Y-63514572D01*
X54801804Y-63490773D01*
X54798204Y-63466505D01*
X54797000Y-63442001D01*
X54797000Y-62541999D01*
X54798204Y-62517495D01*
X54801804Y-62493227D01*
X54807765Y-62469428D01*
X54816030Y-62446329D01*
X54826520Y-62424150D01*
X54839132Y-62403107D01*
X54853747Y-62383401D01*
X54870223Y-62365223D01*
X54888401Y-62348747D01*
X54908107Y-62334132D01*
X54929150Y-62321520D01*
X54951329Y-62311030D01*
X54974428Y-62302765D01*
X54998227Y-62296804D01*
X55022495Y-62293204D01*
X55046999Y-62292000D01*
X55697001Y-62292000D01*
X55721505Y-62293204D01*
X55721505Y-62293204D01*
G37*
D15*
X55372000Y-62992000D03*
D13*
G36*
X50405505Y-62293204D02*
X50429773Y-62296804D01*
X50453572Y-62302765D01*
X50476671Y-62311030D01*
X50498850Y-62321520D01*
X50519893Y-62334132D01*
X50539599Y-62348747D01*
X50557777Y-62365223D01*
X50574253Y-62383401D01*
X50588868Y-62403107D01*
X50601480Y-62424150D01*
X50611970Y-62446329D01*
X50620235Y-62469428D01*
X50626196Y-62493227D01*
X50629796Y-62517495D01*
X50631000Y-62541999D01*
X50631000Y-63442001D01*
X50629796Y-63466505D01*
X50626196Y-63490773D01*
X50620235Y-63514572D01*
X50611970Y-63537671D01*
X50601480Y-63559850D01*
X50588868Y-63580893D01*
X50574253Y-63600599D01*
X50557777Y-63618777D01*
X50539599Y-63635253D01*
X50519893Y-63649868D01*
X50498850Y-63662480D01*
X50476671Y-63672970D01*
X50453572Y-63681235D01*
X50429773Y-63687196D01*
X50405505Y-63690796D01*
X50381001Y-63692000D01*
X49730999Y-63692000D01*
X49706495Y-63690796D01*
X49682227Y-63687196D01*
X49658428Y-63681235D01*
X49635329Y-63672970D01*
X49613150Y-63662480D01*
X49592107Y-63649868D01*
X49572401Y-63635253D01*
X49554223Y-63618777D01*
X49537747Y-63600599D01*
X49523132Y-63580893D01*
X49510520Y-63559850D01*
X49500030Y-63537671D01*
X49491765Y-63514572D01*
X49485804Y-63490773D01*
X49482204Y-63466505D01*
X49481000Y-63442001D01*
X49481000Y-62541999D01*
X49482204Y-62517495D01*
X49485804Y-62493227D01*
X49491765Y-62469428D01*
X49500030Y-62446329D01*
X49510520Y-62424150D01*
X49523132Y-62403107D01*
X49537747Y-62383401D01*
X49554223Y-62365223D01*
X49572401Y-62348747D01*
X49592107Y-62334132D01*
X49613150Y-62321520D01*
X49635329Y-62311030D01*
X49658428Y-62302765D01*
X49682227Y-62296804D01*
X49706495Y-62293204D01*
X49730999Y-62292000D01*
X50381001Y-62292000D01*
X50405505Y-62293204D01*
X50405505Y-62293204D01*
G37*
D15*
X50056000Y-62992000D03*
D13*
G36*
X48355505Y-62293204D02*
X48379773Y-62296804D01*
X48403572Y-62302765D01*
X48426671Y-62311030D01*
X48448850Y-62321520D01*
X48469893Y-62334132D01*
X48489599Y-62348747D01*
X48507777Y-62365223D01*
X48524253Y-62383401D01*
X48538868Y-62403107D01*
X48551480Y-62424150D01*
X48561970Y-62446329D01*
X48570235Y-62469428D01*
X48576196Y-62493227D01*
X48579796Y-62517495D01*
X48581000Y-62541999D01*
X48581000Y-63442001D01*
X48579796Y-63466505D01*
X48576196Y-63490773D01*
X48570235Y-63514572D01*
X48561970Y-63537671D01*
X48551480Y-63559850D01*
X48538868Y-63580893D01*
X48524253Y-63600599D01*
X48507777Y-63618777D01*
X48489599Y-63635253D01*
X48469893Y-63649868D01*
X48448850Y-63662480D01*
X48426671Y-63672970D01*
X48403572Y-63681235D01*
X48379773Y-63687196D01*
X48355505Y-63690796D01*
X48331001Y-63692000D01*
X47680999Y-63692000D01*
X47656495Y-63690796D01*
X47632227Y-63687196D01*
X47608428Y-63681235D01*
X47585329Y-63672970D01*
X47563150Y-63662480D01*
X47542107Y-63649868D01*
X47522401Y-63635253D01*
X47504223Y-63618777D01*
X47487747Y-63600599D01*
X47473132Y-63580893D01*
X47460520Y-63559850D01*
X47450030Y-63537671D01*
X47441765Y-63514572D01*
X47435804Y-63490773D01*
X47432204Y-63466505D01*
X47431000Y-63442001D01*
X47431000Y-62541999D01*
X47432204Y-62517495D01*
X47435804Y-62493227D01*
X47441765Y-62469428D01*
X47450030Y-62446329D01*
X47460520Y-62424150D01*
X47473132Y-62403107D01*
X47487747Y-62383401D01*
X47504223Y-62365223D01*
X47522401Y-62348747D01*
X47542107Y-62334132D01*
X47563150Y-62321520D01*
X47585329Y-62311030D01*
X47608428Y-62302765D01*
X47632227Y-62296804D01*
X47656495Y-62293204D01*
X47680999Y-62292000D01*
X48331001Y-62292000D01*
X48355505Y-62293204D01*
X48355505Y-62293204D01*
G37*
D15*
X48006000Y-62992000D03*
D16*
X27940000Y-66040000D03*
X60960000Y-25400000D03*
X88900000Y-25400000D03*
X88900000Y-66040000D03*
D17*
X41656000Y-43434000D03*
X59436000Y-49174000D03*
X46736000Y-54356000D03*
X67056000Y-44450000D03*
X57912000Y-38100000D03*
X52115041Y-56687041D03*
X38100000Y-46736000D03*
X69088000Y-41402000D03*
X48251000Y-32775000D03*
X31750000Y-45212000D03*
X38608000Y-44424000D03*
X43848959Y-35974959D03*
X42164000Y-36830000D03*
X43688000Y-45174000D03*
X43434000Y-42672000D03*
X52578000Y-51308000D03*
X41148000Y-41402000D03*
X40640000Y-37592000D03*
X56388000Y-60960000D03*
X56896000Y-57912000D03*
X57150000Y-55880000D03*
X55880000Y-55880000D03*
X61976000Y-58166000D03*
X61976000Y-55118000D03*
X79756000Y-46736000D03*
X76454000Y-50038000D03*
X63500000Y-54864000D03*
X47498000Y-45974000D03*
X48768000Y-48324000D03*
X44704000Y-52832000D03*
X48768000Y-45924000D03*
X57150000Y-45212000D03*
X55626000Y-45212000D03*
D18*
X67056000Y-44450000D02*
X64262000Y-44450000D01*
X64262000Y-44450000D02*
X57912000Y-38100000D01*
X49067041Y-56687041D02*
X52115041Y-56687041D01*
X46736000Y-54356000D02*
X49067041Y-56687041D01*
D19*
X76492000Y-32784000D02*
X75692000Y-32784000D01*
X77936000Y-32784000D02*
X76492000Y-32784000D01*
X82296000Y-28424000D02*
X77936000Y-32784000D01*
X82296000Y-28194000D02*
X82296000Y-28424000D01*
X69097000Y-32784000D02*
X69088000Y-32775000D01*
X72898000Y-32784000D02*
X72626000Y-32784000D01*
X72898000Y-32784000D02*
X69097000Y-32784000D01*
X75692000Y-32784000D02*
X72898000Y-32784000D01*
X77936000Y-37042000D02*
X79756000Y-38862000D01*
X77936000Y-32784000D02*
X77936000Y-37042000D01*
X78731000Y-39887000D02*
X73152000Y-39887000D01*
X79756000Y-38862000D02*
X78731000Y-39887000D01*
X69097000Y-39887000D02*
X69088000Y-39896000D01*
X73152000Y-39887000D02*
X69097000Y-39887000D01*
X84065000Y-29963000D02*
X82296000Y-28194000D01*
X85090000Y-29963000D02*
X84065000Y-29963000D01*
X69088000Y-32775000D02*
X48251000Y-32775000D01*
X48251000Y-32775000D02*
X39878000Y-41148000D01*
X39878000Y-41148000D02*
X39878000Y-44958000D01*
X39878000Y-44958000D02*
X38100000Y-46736000D01*
X38100000Y-46736000D02*
X35560000Y-49276000D01*
X69088000Y-39896000D02*
X69088000Y-41402000D01*
X79756000Y-38862000D02*
X78232000Y-40386000D01*
X78232000Y-52832000D02*
X85725000Y-60325000D01*
X78232000Y-40386000D02*
X78232000Y-52832000D01*
X35560000Y-49276000D02*
X35560000Y-58420000D01*
D18*
X32258000Y-44704000D02*
X31750000Y-45212000D01*
X32258000Y-44704000D02*
X38328000Y-44704000D01*
X38328000Y-44704000D02*
X38608000Y-44424000D01*
X43848959Y-35974959D02*
X43848959Y-34637041D01*
X50038000Y-28448000D02*
X50038000Y-24892000D01*
X43848959Y-34637041D02*
X50038000Y-28448000D01*
X43688000Y-45174000D02*
X43688000Y-42926000D01*
X43688000Y-42926000D02*
X43434000Y-42672000D01*
X42563999Y-36430001D02*
X42563999Y-33382001D01*
X42164000Y-36830000D02*
X42563999Y-36430001D01*
X47498000Y-28448000D02*
X47498000Y-24892000D01*
X42563999Y-33382001D02*
X47498000Y-28448000D01*
X52578000Y-46482000D02*
X52578000Y-51308000D01*
X47897999Y-41801999D02*
X52578000Y-46482000D01*
X41547999Y-41801999D02*
X47897999Y-41801999D01*
X41148000Y-41402000D02*
X41547999Y-41801999D01*
X40640000Y-32766000D02*
X44958000Y-28448000D01*
X40640000Y-37592000D02*
X40640000Y-32766000D01*
X44958000Y-28448000D02*
X44958000Y-24892000D01*
X56896000Y-57912000D02*
X56896000Y-56134000D01*
X56896000Y-56134000D02*
X57150000Y-55880000D01*
X90805000Y-61475000D02*
X90805000Y-60325000D01*
X80645000Y-62865000D02*
X89415000Y-62865000D01*
X78740000Y-60960000D02*
X80645000Y-62865000D01*
X89415000Y-62865000D02*
X90805000Y-61475000D01*
X56388000Y-60960000D02*
X78740000Y-60960000D01*
X88265000Y-60325000D02*
X88265000Y-61527081D01*
X88265000Y-61527081D02*
X87562081Y-62230000D01*
X55880000Y-58928000D02*
X55880000Y-55880000D01*
X87562081Y-62230000D02*
X81280000Y-62230000D01*
X81280000Y-62230000D02*
X79248000Y-60198000D01*
X79248000Y-60198000D02*
X57150000Y-60198000D01*
X57150000Y-60198000D02*
X55880000Y-58928000D01*
D19*
X69088000Y-30725000D02*
X69088000Y-28194000D01*
X75692000Y-30734000D02*
X75692000Y-28194000D01*
X66548000Y-36906000D02*
X66548000Y-35306000D01*
X67488000Y-37846000D02*
X66548000Y-36906000D01*
X69088000Y-37846000D02*
X67488000Y-37846000D01*
X73152000Y-37837000D02*
X73152000Y-35306000D01*
D18*
X61976000Y-58166000D02*
X61976000Y-55118000D01*
D19*
X84065000Y-32013000D02*
X82296000Y-33782000D01*
X85090000Y-32013000D02*
X84065000Y-32013000D01*
D18*
X85090000Y-32013000D02*
X85090000Y-32688000D01*
X85090000Y-32688000D02*
X85090000Y-41402000D01*
X85090000Y-41402000D02*
X79756000Y-46736000D01*
X76454000Y-50038000D02*
X71628000Y-54864000D01*
X71628000Y-54864000D02*
X63500000Y-54864000D01*
X47498000Y-45974000D02*
X47498000Y-47054000D01*
X47498000Y-47054000D02*
X48768000Y-48324000D01*
X44704000Y-52832000D02*
X44704000Y-45720000D01*
X48067999Y-45223999D02*
X48768000Y-45924000D01*
X44704000Y-45720000D02*
X45200001Y-45223999D01*
X45200001Y-45223999D02*
X48067999Y-45223999D01*
X55372000Y-66802000D02*
X54610000Y-67564000D01*
X55372000Y-62992000D02*
X55372000Y-66802000D01*
X48006000Y-67310000D02*
X48260000Y-67564000D01*
X48006000Y-62992000D02*
X48006000Y-67310000D01*
X54864000Y-61450000D02*
X53322000Y-62992000D01*
X54864000Y-53594000D02*
X54864000Y-61450000D01*
X57150000Y-45212000D02*
X57150000Y-51308000D01*
X57150000Y-51308000D02*
X54864000Y-53594000D01*
X53594000Y-60198000D02*
X53594000Y-53340000D01*
X53594000Y-53340000D02*
X55226001Y-51707999D01*
X50056000Y-62992000D02*
X50800000Y-62992000D01*
X55226001Y-45611999D02*
X55626000Y-45212000D01*
X55226001Y-51707999D02*
X55226001Y-45611999D01*
X50800000Y-62992000D02*
X53594000Y-60198000D01*
D20*
G36*
X32639000Y-26924000D02*
X32648667Y-26972601D01*
X32676197Y-27013803D01*
X32717399Y-27041333D01*
X32766000Y-27051000D01*
X40132000Y-27051000D01*
X40180601Y-27041333D01*
X40221803Y-27013803D01*
X40249333Y-26972601D01*
X40259000Y-26924000D01*
X40259000Y-22325000D01*
X93245001Y-22325000D01*
X93245000Y-70385000D01*
X23595000Y-70385000D01*
X23595000Y-65515866D01*
X25305000Y-65515866D01*
X25305000Y-66564134D01*
X25706155Y-67532608D01*
X26447392Y-68273845D01*
X27415866Y-68675000D01*
X28464134Y-68675000D01*
X29432608Y-68273845D01*
X29856703Y-67849750D01*
X44215000Y-67849750D01*
X44215000Y-68790310D01*
X44311673Y-69023699D01*
X44490302Y-69202327D01*
X44723691Y-69299000D01*
X45434250Y-69299000D01*
X45593000Y-69140250D01*
X45593000Y-67691000D01*
X44373750Y-67691000D01*
X44215000Y-67849750D01*
X29856703Y-67849750D01*
X30173845Y-67532608D01*
X30575000Y-66564134D01*
X30575000Y-66337690D01*
X44215000Y-66337690D01*
X44215000Y-67278250D01*
X44373750Y-67437000D01*
X45593000Y-67437000D01*
X45593000Y-65987750D01*
X45434250Y-65829000D01*
X44723691Y-65829000D01*
X44490302Y-65925673D01*
X44311673Y-66104301D01*
X44215000Y-66337690D01*
X30575000Y-66337690D01*
X30575000Y-65515866D01*
X30173845Y-64547392D01*
X29432608Y-63806155D01*
X28464134Y-63405000D01*
X27415866Y-63405000D01*
X26447392Y-63806155D01*
X25706155Y-64547392D01*
X25305000Y-65515866D01*
X23595000Y-65515866D01*
X23595000Y-57570000D01*
X28982560Y-57570000D01*
X28982560Y-59270000D01*
X29031843Y-59517765D01*
X29172191Y-59727809D01*
X29382235Y-59868157D01*
X29630000Y-59917440D01*
X31330000Y-59917440D01*
X31577765Y-59868157D01*
X31787809Y-59727809D01*
X31928157Y-59517765D01*
X31948739Y-59414292D01*
X32253076Y-59691645D01*
X32663110Y-59861476D01*
X32893000Y-59740155D01*
X32893000Y-58547000D01*
X32873000Y-58547000D01*
X32873000Y-58293000D01*
X32893000Y-58293000D01*
X32893000Y-57099845D01*
X32663110Y-56978524D01*
X32253076Y-57148355D01*
X31948739Y-57425708D01*
X31928157Y-57322235D01*
X31787809Y-57112191D01*
X31577765Y-56971843D01*
X31330000Y-56922560D01*
X29630000Y-56922560D01*
X29382235Y-56971843D01*
X29172191Y-57112191D01*
X29031843Y-57322235D01*
X28982560Y-57570000D01*
X23595000Y-57570000D01*
X23595000Y-45006126D01*
X30715000Y-45006126D01*
X30715000Y-45417874D01*
X30872569Y-45798280D01*
X31163720Y-46089431D01*
X31544126Y-46247000D01*
X31955874Y-46247000D01*
X32336280Y-46089431D01*
X32627431Y-45798280D01*
X32755539Y-45489000D01*
X38095422Y-45489000D01*
X37875853Y-45708569D01*
X37513720Y-45858569D01*
X37222569Y-46149720D01*
X37072569Y-46511852D01*
X34995847Y-48588575D01*
X34921951Y-48637951D01*
X34726348Y-48930691D01*
X34675000Y-49188836D01*
X34675000Y-49188839D01*
X34657663Y-49276000D01*
X34675000Y-49363161D01*
X34675001Y-57225344D01*
X34489375Y-57349375D01*
X34276157Y-57668478D01*
X34215183Y-57538642D01*
X33786924Y-57148355D01*
X33376890Y-56978524D01*
X33147000Y-57099845D01*
X33147000Y-58293000D01*
X33167000Y-58293000D01*
X33167000Y-58547000D01*
X33147000Y-58547000D01*
X33147000Y-59740155D01*
X33376890Y-59861476D01*
X33786924Y-59691645D01*
X34215183Y-59301358D01*
X34276157Y-59171522D01*
X34489375Y-59490625D01*
X34980582Y-59818839D01*
X35413744Y-59905000D01*
X35706256Y-59905000D01*
X36139418Y-59818839D01*
X36630625Y-59490625D01*
X36830000Y-59192239D01*
X37029375Y-59490625D01*
X37520582Y-59818839D01*
X37953744Y-59905000D01*
X38246256Y-59905000D01*
X38679418Y-59818839D01*
X39170625Y-59490625D01*
X39370000Y-59192239D01*
X39569375Y-59490625D01*
X40060582Y-59818839D01*
X40493744Y-59905000D01*
X40786256Y-59905000D01*
X41219418Y-59818839D01*
X41710625Y-59490625D01*
X41910000Y-59192239D01*
X42109375Y-59490625D01*
X42600582Y-59818839D01*
X43033744Y-59905000D01*
X43326256Y-59905000D01*
X43759418Y-59818839D01*
X44250625Y-59490625D01*
X44578839Y-58999418D01*
X44694092Y-58420000D01*
X44578839Y-57840582D01*
X44250625Y-57349375D01*
X43759418Y-57021161D01*
X43326256Y-56935000D01*
X43033744Y-56935000D01*
X42600582Y-57021161D01*
X42109375Y-57349375D01*
X41910000Y-57647761D01*
X41710625Y-57349375D01*
X41219418Y-57021161D01*
X40786256Y-56935000D01*
X40493744Y-56935000D01*
X40060582Y-57021161D01*
X39569375Y-57349375D01*
X39370000Y-57647761D01*
X39170625Y-57349375D01*
X38679418Y-57021161D01*
X38246256Y-56935000D01*
X37953744Y-56935000D01*
X37520582Y-57021161D01*
X37029375Y-57349375D01*
X36830000Y-57647761D01*
X36630625Y-57349375D01*
X36445000Y-57225344D01*
X36445000Y-49642578D01*
X38324148Y-47763431D01*
X38686280Y-47613431D01*
X38977431Y-47322280D01*
X39127431Y-46960147D01*
X40442156Y-45645423D01*
X40516049Y-45596049D01*
X40587578Y-45489000D01*
X40711652Y-45303310D01*
X40722181Y-45250378D01*
X40763000Y-45045165D01*
X40763000Y-45045161D01*
X40780337Y-44958000D01*
X40763000Y-44870839D01*
X40763000Y-42362804D01*
X40942126Y-42437000D01*
X41085383Y-42437000D01*
X41241707Y-42541453D01*
X41470683Y-42586999D01*
X41470686Y-42586999D01*
X41547998Y-42602377D01*
X41625310Y-42586999D01*
X42399000Y-42586999D01*
X42399000Y-42877874D01*
X42556569Y-43258280D01*
X42847720Y-43549431D01*
X42903001Y-43572329D01*
X42903000Y-44495289D01*
X42810569Y-44587720D01*
X42653000Y-44968126D01*
X42653000Y-45379874D01*
X42810569Y-45760280D01*
X43101720Y-46051431D01*
X43482126Y-46209000D01*
X43893874Y-46209000D01*
X43919001Y-46198592D01*
X43919000Y-52153289D01*
X43826569Y-52245720D01*
X43669000Y-52626126D01*
X43669000Y-53037874D01*
X43826569Y-53418280D01*
X44117720Y-53709431D01*
X44498126Y-53867000D01*
X44909874Y-53867000D01*
X45290280Y-53709431D01*
X45581431Y-53418280D01*
X45739000Y-53037874D01*
X45739000Y-52626126D01*
X45581431Y-52245720D01*
X45489000Y-52153289D01*
X45489000Y-46045157D01*
X45525158Y-46008999D01*
X46463000Y-46008999D01*
X46463000Y-46179874D01*
X46620569Y-46560280D01*
X46713001Y-46652712D01*
X46713001Y-46976684D01*
X46697622Y-47054000D01*
X46758546Y-47360291D01*
X46888251Y-47554408D01*
X46888254Y-47554411D01*
X46932048Y-47619953D01*
X46997590Y-47663747D01*
X47733000Y-48399158D01*
X47733000Y-48529874D01*
X47890569Y-48910280D01*
X48181720Y-49201431D01*
X48562126Y-49359000D01*
X48973874Y-49359000D01*
X49354280Y-49201431D01*
X49645431Y-48910280D01*
X49803000Y-48529874D01*
X49803000Y-48118126D01*
X49645431Y-47737720D01*
X49354280Y-47446569D01*
X48973874Y-47289000D01*
X48843158Y-47289000D01*
X48478531Y-46924374D01*
X48562126Y-46959000D01*
X48973874Y-46959000D01*
X49354280Y-46801431D01*
X49645431Y-46510280D01*
X49803000Y-46129874D01*
X49803000Y-45718126D01*
X49645431Y-45337720D01*
X49354280Y-45046569D01*
X48973874Y-44889000D01*
X48843157Y-44889000D01*
X48677748Y-44723591D01*
X48633952Y-44658046D01*
X48374291Y-44484545D01*
X48145315Y-44438999D01*
X48145311Y-44438999D01*
X48067999Y-44423621D01*
X47990687Y-44438999D01*
X45277311Y-44438999D01*
X45200000Y-44423621D01*
X45122689Y-44438999D01*
X45122685Y-44438999D01*
X44893709Y-44484545D01*
X44634048Y-44658046D01*
X44609672Y-44694527D01*
X44565431Y-44587720D01*
X44473000Y-44495289D01*
X44473000Y-43003310D01*
X44488378Y-42925999D01*
X44473000Y-42848689D01*
X44473000Y-42848684D01*
X44469000Y-42828575D01*
X44469000Y-42586999D01*
X47572842Y-42586999D01*
X51793000Y-46807158D01*
X51793001Y-50629288D01*
X51700569Y-50721720D01*
X51543000Y-51102126D01*
X51543000Y-51513874D01*
X51700569Y-51894280D01*
X51991720Y-52185431D01*
X52372126Y-52343000D01*
X52783874Y-52343000D01*
X53164280Y-52185431D01*
X53455431Y-51894280D01*
X53613000Y-51513874D01*
X53613000Y-51102126D01*
X53455431Y-50721720D01*
X53363000Y-50629289D01*
X53363000Y-46559312D01*
X53378378Y-46482000D01*
X53363000Y-46404688D01*
X53363000Y-46404684D01*
X53317454Y-46175708D01*
X53259805Y-46089431D01*
X53187749Y-45981591D01*
X53187747Y-45981589D01*
X53143953Y-45916047D01*
X53078411Y-45872253D01*
X48507748Y-41301591D01*
X48463952Y-41236046D01*
X48204291Y-41062545D01*
X47975315Y-41016999D01*
X47975311Y-41016999D01*
X47897999Y-41001621D01*
X47820687Y-41016999D01*
X42108803Y-41016999D01*
X42025431Y-40815720D01*
X41743645Y-40533934D01*
X44383452Y-37894126D01*
X56877000Y-37894126D01*
X56877000Y-38305874D01*
X57034569Y-38686280D01*
X57325720Y-38977431D01*
X57706126Y-39135000D01*
X57836843Y-39135000D01*
X63652253Y-44950411D01*
X63696047Y-45015953D01*
X63761589Y-45059747D01*
X63761591Y-45059749D01*
X63873739Y-45134684D01*
X63955708Y-45189454D01*
X64184684Y-45235000D01*
X64184687Y-45235000D01*
X64261999Y-45250378D01*
X64339311Y-45235000D01*
X66377289Y-45235000D01*
X66469720Y-45327431D01*
X66850126Y-45485000D01*
X67261874Y-45485000D01*
X67642280Y-45327431D01*
X67933431Y-45036280D01*
X68091000Y-44655874D01*
X68091000Y-44244126D01*
X67933431Y-43863720D01*
X67642280Y-43572569D01*
X67261874Y-43415000D01*
X66850126Y-43415000D01*
X66469720Y-43572569D01*
X66377289Y-43665000D01*
X64587158Y-43665000D01*
X58947000Y-38024843D01*
X58947000Y-37894126D01*
X58789431Y-37513720D01*
X58498280Y-37222569D01*
X58117874Y-37065000D01*
X57706126Y-37065000D01*
X57325720Y-37222569D01*
X57034569Y-37513720D01*
X56877000Y-37894126D01*
X44383452Y-37894126D01*
X48475148Y-33802430D01*
X48819007Y-33660000D01*
X65958268Y-33660000D01*
X65462956Y-33990956D01*
X65130322Y-34488778D01*
X65043000Y-34927774D01*
X65043000Y-35684225D01*
X65130322Y-36123221D01*
X65462956Y-36621044D01*
X65663000Y-36754709D01*
X65663000Y-36818839D01*
X65645663Y-36906000D01*
X65663000Y-36993161D01*
X65663000Y-36993164D01*
X65714348Y-37251309D01*
X65909951Y-37544049D01*
X65983847Y-37593425D01*
X66800577Y-38410156D01*
X66849951Y-38484049D01*
X66923844Y-38533423D01*
X66923845Y-38533424D01*
X67063891Y-38627000D01*
X67142690Y-38679652D01*
X67400835Y-38731000D01*
X67400839Y-38731000D01*
X67488000Y-38748337D01*
X67575161Y-38731000D01*
X67953577Y-38731000D01*
X68003414Y-38805586D01*
X68101313Y-38871000D01*
X68003414Y-38936414D01*
X67808873Y-39227564D01*
X67740560Y-39570999D01*
X67740560Y-40221001D01*
X67808873Y-40564436D01*
X68003414Y-40855586D01*
X68152730Y-40955356D01*
X68053000Y-41196126D01*
X68053000Y-41607874D01*
X68210569Y-41988280D01*
X68501720Y-42279431D01*
X68882126Y-42437000D01*
X69293874Y-42437000D01*
X69674280Y-42279431D01*
X69965431Y-41988280D01*
X70123000Y-41607874D01*
X70123000Y-41196126D01*
X70023270Y-40955356D01*
X70172586Y-40855586D01*
X70228437Y-40772000D01*
X72017577Y-40772000D01*
X72067414Y-40846586D01*
X72358564Y-41041127D01*
X72701999Y-41109440D01*
X73602001Y-41109440D01*
X73945436Y-41041127D01*
X74236586Y-40846586D01*
X74286423Y-40772000D01*
X77347000Y-40772000D01*
X77347001Y-49489309D01*
X77331431Y-49451720D01*
X77040280Y-49160569D01*
X76659874Y-49003000D01*
X76248126Y-49003000D01*
X75867720Y-49160569D01*
X75576569Y-49451720D01*
X75419000Y-49832126D01*
X75419000Y-49962843D01*
X71302843Y-54079000D01*
X64178711Y-54079000D01*
X64086280Y-53986569D01*
X63705874Y-53829000D01*
X63294126Y-53829000D01*
X62913720Y-53986569D01*
X62622569Y-54277720D01*
X62615792Y-54294081D01*
X62562280Y-54240569D01*
X62181874Y-54083000D01*
X61770126Y-54083000D01*
X61389720Y-54240569D01*
X61098569Y-54531720D01*
X60941000Y-54912126D01*
X60941000Y-55323874D01*
X61098569Y-55704280D01*
X61191001Y-55796712D01*
X61191000Y-57487289D01*
X61098569Y-57579720D01*
X60941000Y-57960126D01*
X60941000Y-58371874D01*
X61098569Y-58752280D01*
X61389720Y-59043431D01*
X61770126Y-59201000D01*
X62181874Y-59201000D01*
X62562280Y-59043431D01*
X62853431Y-58752280D01*
X63011000Y-58371874D01*
X63011000Y-57960126D01*
X62853431Y-57579720D01*
X62761000Y-57487289D01*
X62761000Y-55796711D01*
X62853431Y-55704280D01*
X62860208Y-55687919D01*
X62913720Y-55741431D01*
X63294126Y-55899000D01*
X63705874Y-55899000D01*
X64086280Y-55741431D01*
X64178711Y-55649000D01*
X71550688Y-55649000D01*
X71628000Y-55664378D01*
X71705312Y-55649000D01*
X71705316Y-55649000D01*
X71934292Y-55603454D01*
X72193953Y-55429953D01*
X72237749Y-55364408D01*
X76529157Y-51073000D01*
X76659874Y-51073000D01*
X77040280Y-50915431D01*
X77331431Y-50624280D01*
X77347001Y-50586691D01*
X77347001Y-52744834D01*
X77329663Y-52832000D01*
X77398348Y-53177309D01*
X77544576Y-53396154D01*
X77544578Y-53396156D01*
X77593952Y-53470049D01*
X77667845Y-53519423D01*
X83057998Y-58909577D01*
X83057998Y-59004844D01*
X82828110Y-58883524D01*
X82418076Y-59053355D01*
X81989817Y-59443642D01*
X81743514Y-59968108D01*
X81864181Y-60198000D01*
X83058000Y-60198000D01*
X83058000Y-60178000D01*
X83312000Y-60178000D01*
X83312000Y-60198000D01*
X83332000Y-60198000D01*
X83332000Y-60452000D01*
X83312000Y-60452000D01*
X83312000Y-60472000D01*
X83058000Y-60472000D01*
X83058000Y-60452000D01*
X81864181Y-60452000D01*
X81743514Y-60681892D01*
X81989817Y-61206358D01*
X82251677Y-61445000D01*
X81605158Y-61445000D01*
X79857748Y-59697591D01*
X79813953Y-59632047D01*
X79554292Y-59458546D01*
X79325316Y-59413000D01*
X79325312Y-59413000D01*
X79248000Y-59397622D01*
X79170688Y-59413000D01*
X57475158Y-59413000D01*
X57009157Y-58947000D01*
X57101874Y-58947000D01*
X57482280Y-58789431D01*
X57773431Y-58498280D01*
X57931000Y-58117874D01*
X57931000Y-57706126D01*
X57773431Y-57325720D01*
X57681000Y-57233289D01*
X57681000Y-56780329D01*
X57736280Y-56757431D01*
X58027431Y-56466280D01*
X58185000Y-56085874D01*
X58185000Y-55674126D01*
X58027431Y-55293720D01*
X57736280Y-55002569D01*
X57355874Y-54845000D01*
X56944126Y-54845000D01*
X56563720Y-55002569D01*
X56515000Y-55051289D01*
X56466280Y-55002569D01*
X56085874Y-54845000D01*
X55674126Y-54845000D01*
X55649000Y-54855408D01*
X55649000Y-53919157D01*
X57650411Y-51917747D01*
X57715953Y-51873953D01*
X57759747Y-51808411D01*
X57759749Y-51808409D01*
X57809885Y-51733375D01*
X57889454Y-51614292D01*
X57935000Y-51385316D01*
X57935000Y-51385312D01*
X57950378Y-51308001D01*
X57935000Y-51230690D01*
X57935000Y-45890711D01*
X58027431Y-45798280D01*
X58185000Y-45417874D01*
X58185000Y-45006126D01*
X58027431Y-44625720D01*
X57736280Y-44334569D01*
X57355874Y-44177000D01*
X56944126Y-44177000D01*
X56563720Y-44334569D01*
X56388000Y-44510289D01*
X56212280Y-44334569D01*
X55831874Y-44177000D01*
X55420126Y-44177000D01*
X55039720Y-44334569D01*
X54748569Y-44625720D01*
X54591000Y-45006126D01*
X54591000Y-45149383D01*
X54486547Y-45305708D01*
X54425623Y-45611999D01*
X54441002Y-45689316D01*
X54441001Y-51382841D01*
X53093590Y-52730253D01*
X53028048Y-52774047D01*
X52984254Y-52839589D01*
X52984251Y-52839592D01*
X52854546Y-53033709D01*
X52793622Y-53340000D01*
X52809001Y-53417317D01*
X52809001Y-55917290D01*
X52701321Y-55809610D01*
X52320915Y-55652041D01*
X51909167Y-55652041D01*
X51528761Y-55809610D01*
X51436330Y-55902041D01*
X49392199Y-55902041D01*
X47771000Y-54280843D01*
X47771000Y-54150126D01*
X47613431Y-53769720D01*
X47322280Y-53478569D01*
X46941874Y-53321000D01*
X46530126Y-53321000D01*
X46149720Y-53478569D01*
X45858569Y-53769720D01*
X45701000Y-54150126D01*
X45701000Y-54561874D01*
X45858569Y-54942280D01*
X46149720Y-55233431D01*
X46530126Y-55391000D01*
X46660843Y-55391000D01*
X48457294Y-57187452D01*
X48501088Y-57252994D01*
X48566630Y-57296788D01*
X48566632Y-57296790D01*
X48609929Y-57325720D01*
X48760749Y-57426495D01*
X48989725Y-57472041D01*
X48989729Y-57472041D01*
X49067041Y-57487419D01*
X49144353Y-57472041D01*
X51436330Y-57472041D01*
X51528761Y-57564472D01*
X51909167Y-57722041D01*
X52320915Y-57722041D01*
X52701321Y-57564472D01*
X52809000Y-57456793D01*
X52809000Y-59872843D01*
X50871023Y-61810820D01*
X50724436Y-61712873D01*
X50381001Y-61644560D01*
X49730999Y-61644560D01*
X49387564Y-61712873D01*
X49096414Y-61907414D01*
X49031000Y-62005313D01*
X48965586Y-61907414D01*
X48674436Y-61712873D01*
X48331001Y-61644560D01*
X47680999Y-61644560D01*
X47337564Y-61712873D01*
X47046414Y-61907414D01*
X46851873Y-62198564D01*
X46783560Y-62541999D01*
X46783560Y-63442001D01*
X46851873Y-63785436D01*
X47046414Y-64076586D01*
X47221000Y-64193241D01*
X47221001Y-66218190D01*
X47185364Y-66242001D01*
X47128327Y-66104301D01*
X46949698Y-65925673D01*
X46716309Y-65829000D01*
X46005750Y-65829000D01*
X45847000Y-65987750D01*
X45847000Y-67437000D01*
X45867000Y-67437000D01*
X45867000Y-67691000D01*
X45847000Y-67691000D01*
X45847000Y-69140250D01*
X46005750Y-69299000D01*
X46716309Y-69299000D01*
X46949698Y-69202327D01*
X47128327Y-69023699D01*
X47185364Y-68885999D01*
X47672779Y-69211678D01*
X48260000Y-69328484D01*
X48847222Y-69211678D01*
X49345044Y-68879044D01*
X49677678Y-68381221D01*
X49765000Y-67942225D01*
X49765000Y-67849750D01*
X50565000Y-67849750D01*
X50565000Y-68790310D01*
X50661673Y-69023699D01*
X50840302Y-69202327D01*
X51073691Y-69299000D01*
X51784250Y-69299000D01*
X51943000Y-69140250D01*
X51943000Y-67691000D01*
X50723750Y-67691000D01*
X50565000Y-67849750D01*
X49765000Y-67849750D01*
X49765000Y-67185774D01*
X49677678Y-66746778D01*
X49404335Y-66337690D01*
X50565000Y-66337690D01*
X50565000Y-67278250D01*
X50723750Y-67437000D01*
X51943000Y-67437000D01*
X51943000Y-65987750D01*
X51784250Y-65829000D01*
X51073691Y-65829000D01*
X50840302Y-65925673D01*
X50661673Y-66104301D01*
X50565000Y-66337690D01*
X49404335Y-66337690D01*
X49345044Y-66248956D01*
X48847221Y-65916322D01*
X48791000Y-65905139D01*
X48791000Y-64193241D01*
X48965586Y-64076586D01*
X49031000Y-63978687D01*
X49096414Y-64076586D01*
X49387564Y-64271127D01*
X49730999Y-64339440D01*
X50381001Y-64339440D01*
X50724436Y-64271127D01*
X51015586Y-64076586D01*
X51210127Y-63785436D01*
X51238426Y-63643164D01*
X51365953Y-63557953D01*
X51409749Y-63492408D01*
X52099560Y-62802597D01*
X52099560Y-63442001D01*
X52167873Y-63785436D01*
X52362414Y-64076586D01*
X52653564Y-64271127D01*
X52996999Y-64339440D01*
X53647001Y-64339440D01*
X53990436Y-64271127D01*
X54281586Y-64076586D01*
X54347000Y-63978687D01*
X54412414Y-64076586D01*
X54587000Y-64193241D01*
X54587001Y-65804091D01*
X54022778Y-65916322D01*
X53535364Y-66242001D01*
X53478327Y-66104301D01*
X53299698Y-65925673D01*
X53066309Y-65829000D01*
X52355750Y-65829000D01*
X52197000Y-65987750D01*
X52197000Y-67437000D01*
X52217000Y-67437000D01*
X52217000Y-67691000D01*
X52197000Y-67691000D01*
X52197000Y-69140250D01*
X52355750Y-69299000D01*
X53066309Y-69299000D01*
X53299698Y-69202327D01*
X53478327Y-69023699D01*
X53535364Y-68885999D01*
X54022779Y-69211678D01*
X54610000Y-69328484D01*
X55197222Y-69211678D01*
X55695044Y-68879044D01*
X56027678Y-68381221D01*
X56115000Y-67942225D01*
X56115000Y-67185774D01*
X56102310Y-67121977D01*
X56111454Y-67108292D01*
X56157000Y-66879316D01*
X56157000Y-66879312D01*
X56172378Y-66802000D01*
X56157000Y-66724688D01*
X56157000Y-64193241D01*
X56331586Y-64076586D01*
X56526127Y-63785436D01*
X56594440Y-63442001D01*
X56594440Y-62541999D01*
X56526127Y-62198564D01*
X56390109Y-61995000D01*
X56593874Y-61995000D01*
X56974280Y-61837431D01*
X57066711Y-61745000D01*
X78414843Y-61745000D01*
X80035253Y-63365411D01*
X80079047Y-63430953D01*
X80144589Y-63474747D01*
X80144591Y-63474749D01*
X80334660Y-63601749D01*
X80338708Y-63604454D01*
X80567684Y-63650000D01*
X80567688Y-63650000D01*
X80645000Y-63665378D01*
X80722312Y-63650000D01*
X87784384Y-63650000D01*
X87407392Y-63806155D01*
X86666155Y-64547392D01*
X86265000Y-65515866D01*
X86265000Y-66564134D01*
X86666155Y-67532608D01*
X87407392Y-68273845D01*
X88375866Y-68675000D01*
X89424134Y-68675000D01*
X90392608Y-68273845D01*
X91133845Y-67532608D01*
X91535000Y-66564134D01*
X91535000Y-65515866D01*
X91133845Y-64547392D01*
X90392608Y-63806155D01*
X89791846Y-63557311D01*
X89980953Y-63430953D01*
X90024749Y-63365408D01*
X91305411Y-62084747D01*
X91370953Y-62040953D01*
X91414747Y-61975411D01*
X91414749Y-61975409D01*
X91516960Y-61822440D01*
X91655000Y-61822440D01*
X91902765Y-61773157D01*
X92112809Y-61632809D01*
X92253157Y-61422765D01*
X92302440Y-61175000D01*
X92302440Y-59475000D01*
X92253157Y-59227235D01*
X92112809Y-59017191D01*
X91902765Y-58876843D01*
X91655000Y-58827560D01*
X89955000Y-58827560D01*
X89707235Y-58876843D01*
X89497191Y-59017191D01*
X89356843Y-59227235D01*
X89347816Y-59272619D01*
X89335625Y-59254375D01*
X88844418Y-58926161D01*
X88411256Y-58840000D01*
X88118744Y-58840000D01*
X87685582Y-58926161D01*
X87194375Y-59254375D01*
X86995000Y-59552761D01*
X86795625Y-59254375D01*
X86304418Y-58926161D01*
X85871256Y-58840000D01*
X85578744Y-58840000D01*
X85506040Y-58854462D01*
X79117000Y-52465422D01*
X79117000Y-47560711D01*
X79169720Y-47613431D01*
X79550126Y-47771000D01*
X79961874Y-47771000D01*
X80342280Y-47613431D01*
X80633431Y-47322280D01*
X80791000Y-46941874D01*
X80791000Y-46811157D01*
X85590411Y-42011747D01*
X85655953Y-41967953D01*
X85699747Y-41902411D01*
X85699749Y-41902409D01*
X85749885Y-41827375D01*
X85829454Y-41708292D01*
X85875000Y-41479316D01*
X85875000Y-41479312D01*
X85890378Y-41402001D01*
X85875000Y-41324690D01*
X85875000Y-33168805D01*
X85883436Y-33167127D01*
X86174586Y-32972586D01*
X86369127Y-32681436D01*
X86437440Y-32338001D01*
X86437440Y-31687999D01*
X86369127Y-31344564D01*
X86174586Y-31053414D01*
X86076687Y-30988000D01*
X86174586Y-30922586D01*
X86369127Y-30631436D01*
X86437440Y-30288001D01*
X86437440Y-29637999D01*
X86369127Y-29294564D01*
X86174586Y-29003414D01*
X85883436Y-28808873D01*
X85540001Y-28740560D01*
X84639999Y-28740560D01*
X84296564Y-28808873D01*
X84216170Y-28862591D01*
X83801000Y-28447422D01*
X83801000Y-27815774D01*
X83713678Y-27376778D01*
X83381044Y-26878956D01*
X82883221Y-26546322D01*
X82296000Y-26429516D01*
X81708778Y-26546322D01*
X81221364Y-26872001D01*
X81164327Y-26734301D01*
X80985698Y-26555673D01*
X80752309Y-26459000D01*
X80041750Y-26459000D01*
X79883000Y-26617750D01*
X79883000Y-28067000D01*
X79903000Y-28067000D01*
X79903000Y-28321000D01*
X79883000Y-28321000D01*
X79883000Y-28341000D01*
X79629000Y-28341000D01*
X79629000Y-28321000D01*
X78409750Y-28321000D01*
X78251000Y-28479750D01*
X78251000Y-29420310D01*
X78347673Y-29653699D01*
X78526302Y-29832327D01*
X78759691Y-29929000D01*
X79470250Y-29929000D01*
X79628998Y-29770252D01*
X79628998Y-29839423D01*
X77569422Y-31899000D01*
X76826423Y-31899000D01*
X76776586Y-31824414D01*
X76678852Y-31759110D01*
X76776718Y-31693718D01*
X76971161Y-31402713D01*
X77039440Y-31059450D01*
X77039440Y-30408550D01*
X76971161Y-30065287D01*
X76776718Y-29774282D01*
X76578402Y-29641772D01*
X76777044Y-29509044D01*
X77109678Y-29011221D01*
X77197000Y-28572225D01*
X77197000Y-27815774D01*
X77109678Y-27376778D01*
X76836335Y-26967690D01*
X78251000Y-26967690D01*
X78251000Y-27908250D01*
X78409750Y-28067000D01*
X79629000Y-28067000D01*
X79629000Y-26617750D01*
X79470250Y-26459000D01*
X78759691Y-26459000D01*
X78526302Y-26555673D01*
X78347673Y-26734301D01*
X78251000Y-26967690D01*
X76836335Y-26967690D01*
X76777044Y-26878956D01*
X76279221Y-26546322D01*
X75692000Y-26429516D01*
X75104778Y-26546322D01*
X74617364Y-26872001D01*
X74560327Y-26734301D01*
X74381698Y-26555673D01*
X74148309Y-26459000D01*
X73437750Y-26459000D01*
X73279000Y-26617750D01*
X73279000Y-28067000D01*
X73299000Y-28067000D01*
X73299000Y-28321000D01*
X73279000Y-28321000D01*
X73279000Y-29770250D01*
X73437750Y-29929000D01*
X74148309Y-29929000D01*
X74381698Y-29832327D01*
X74560327Y-29653699D01*
X74617364Y-29515999D01*
X74805598Y-29641772D01*
X74607282Y-29774282D01*
X74412839Y-30065287D01*
X74344560Y-30408550D01*
X74344560Y-31059450D01*
X74412839Y-31402713D01*
X74607282Y-31693718D01*
X74705148Y-31759110D01*
X74607414Y-31824414D01*
X74557577Y-31899000D01*
X70228437Y-31899000D01*
X70172586Y-31815414D01*
X70074687Y-31750000D01*
X70172586Y-31684586D01*
X70367127Y-31393436D01*
X70435440Y-31050001D01*
X70435440Y-30399999D01*
X70367127Y-30056564D01*
X70172586Y-29765414D01*
X69980973Y-29637382D01*
X70173044Y-29509044D01*
X70505678Y-29011221D01*
X70593000Y-28572225D01*
X70593000Y-28479750D01*
X71647000Y-28479750D01*
X71647000Y-29420310D01*
X71743673Y-29653699D01*
X71922302Y-29832327D01*
X72155691Y-29929000D01*
X72866250Y-29929000D01*
X73025000Y-29770250D01*
X73025000Y-28321000D01*
X71805750Y-28321000D01*
X71647000Y-28479750D01*
X70593000Y-28479750D01*
X70593000Y-27815774D01*
X70505678Y-27376778D01*
X70232335Y-26967690D01*
X71647000Y-26967690D01*
X71647000Y-27908250D01*
X71805750Y-28067000D01*
X73025000Y-28067000D01*
X73025000Y-26617750D01*
X72866250Y-26459000D01*
X72155691Y-26459000D01*
X71922302Y-26555673D01*
X71743673Y-26734301D01*
X71647000Y-26967690D01*
X70232335Y-26967690D01*
X70173044Y-26878956D01*
X69675221Y-26546322D01*
X69088000Y-26429516D01*
X68500778Y-26546322D01*
X68013364Y-26872001D01*
X67956327Y-26734301D01*
X67777698Y-26555673D01*
X67544309Y-26459000D01*
X66833750Y-26459000D01*
X66675000Y-26617750D01*
X66675000Y-28067000D01*
X66695000Y-28067000D01*
X66695000Y-28321000D01*
X66675000Y-28321000D01*
X66675000Y-29770250D01*
X66833750Y-29929000D01*
X67544309Y-29929000D01*
X67777698Y-29832327D01*
X67956327Y-29653699D01*
X68013364Y-29515999D01*
X68195027Y-29637382D01*
X68003414Y-29765414D01*
X67808873Y-30056564D01*
X67740560Y-30399999D01*
X67740560Y-31050001D01*
X67808873Y-31393436D01*
X68003414Y-31684586D01*
X68101313Y-31750000D01*
X68003414Y-31815414D01*
X67953577Y-31890000D01*
X48819007Y-31890000D01*
X48456874Y-31740000D01*
X48045126Y-31740000D01*
X47722536Y-31873621D01*
X50538408Y-29057749D01*
X50603953Y-29013953D01*
X50777454Y-28754292D01*
X50823000Y-28525316D01*
X50823000Y-28525312D01*
X50832062Y-28479750D01*
X65043000Y-28479750D01*
X65043000Y-29420310D01*
X65139673Y-29653699D01*
X65318302Y-29832327D01*
X65551691Y-29929000D01*
X66262250Y-29929000D01*
X66421000Y-29770250D01*
X66421000Y-28321000D01*
X65201750Y-28321000D01*
X65043000Y-28479750D01*
X50832062Y-28479750D01*
X50838378Y-28448000D01*
X50823000Y-28370688D01*
X50823000Y-26407527D01*
X51112636Y-26213999D01*
X51169673Y-26351699D01*
X51348302Y-26530327D01*
X51581691Y-26627000D01*
X52292250Y-26627000D01*
X52451000Y-26468250D01*
X52451000Y-25019000D01*
X52705000Y-25019000D01*
X52705000Y-26468250D01*
X52863750Y-26627000D01*
X53574309Y-26627000D01*
X53807698Y-26530327D01*
X53986327Y-26351699D01*
X54083000Y-26118310D01*
X54083000Y-25177750D01*
X53924250Y-25019000D01*
X52705000Y-25019000D01*
X52451000Y-25019000D01*
X52431000Y-25019000D01*
X52431000Y-24875866D01*
X58325000Y-24875866D01*
X58325000Y-25924134D01*
X58726155Y-26892608D01*
X59467392Y-27633845D01*
X60435866Y-28035000D01*
X61484134Y-28035000D01*
X62452608Y-27633845D01*
X63118763Y-26967690D01*
X65043000Y-26967690D01*
X65043000Y-27908250D01*
X65201750Y-28067000D01*
X66421000Y-28067000D01*
X66421000Y-26617750D01*
X66262250Y-26459000D01*
X65551691Y-26459000D01*
X65318302Y-26555673D01*
X65139673Y-26734301D01*
X65043000Y-26967690D01*
X63118763Y-26967690D01*
X63193845Y-26892608D01*
X63595000Y-25924134D01*
X63595000Y-24875866D01*
X86265000Y-24875866D01*
X86265000Y-25924134D01*
X86666155Y-26892608D01*
X87407392Y-27633845D01*
X88375866Y-28035000D01*
X89424134Y-28035000D01*
X90392608Y-27633845D01*
X91133845Y-26892608D01*
X91535000Y-25924134D01*
X91535000Y-24875866D01*
X91133845Y-23907392D01*
X90392608Y-23166155D01*
X89424134Y-22765000D01*
X88375866Y-22765000D01*
X87407392Y-23166155D01*
X86666155Y-23907392D01*
X86265000Y-24875866D01*
X63595000Y-24875866D01*
X63193845Y-23907392D01*
X62452608Y-23166155D01*
X61484134Y-22765000D01*
X60435866Y-22765000D01*
X59467392Y-23166155D01*
X58726155Y-23907392D01*
X58325000Y-24875866D01*
X52431000Y-24875866D01*
X52431000Y-24765000D01*
X52451000Y-24765000D01*
X52451000Y-23315750D01*
X52705000Y-23315750D01*
X52705000Y-24765000D01*
X53924250Y-24765000D01*
X54083000Y-24606250D01*
X54083000Y-23665690D01*
X53986327Y-23432301D01*
X53807698Y-23253673D01*
X53574309Y-23157000D01*
X52863750Y-23157000D01*
X52705000Y-23315750D01*
X52451000Y-23315750D01*
X52292250Y-23157000D01*
X51581691Y-23157000D01*
X51348302Y-23253673D01*
X51169673Y-23432301D01*
X51112636Y-23570001D01*
X50625222Y-23244322D01*
X50038000Y-23127516D01*
X49450779Y-23244322D01*
X48952956Y-23576956D01*
X48768000Y-23853763D01*
X48583044Y-23576956D01*
X48085222Y-23244322D01*
X47498000Y-23127516D01*
X46910779Y-23244322D01*
X46412956Y-23576956D01*
X46228000Y-23853763D01*
X46043044Y-23576956D01*
X45545222Y-23244322D01*
X44958000Y-23127516D01*
X44370779Y-23244322D01*
X43872956Y-23576956D01*
X43540322Y-24074778D01*
X43453000Y-24513774D01*
X43453000Y-25270225D01*
X43540322Y-25709221D01*
X43872956Y-26207044D01*
X44173001Y-26407527D01*
X44173000Y-28122842D01*
X40139590Y-32156253D01*
X40074048Y-32200047D01*
X40030254Y-32265589D01*
X40030251Y-32265592D01*
X39900546Y-32459709D01*
X39839622Y-32766000D01*
X39855001Y-32843317D01*
X39855000Y-36913289D01*
X39762569Y-37005720D01*
X39605000Y-37386126D01*
X39605000Y-37797874D01*
X39762569Y-38178280D01*
X40053720Y-38469431D01*
X40434126Y-38627000D01*
X40845874Y-38627000D01*
X41226280Y-38469431D01*
X41517431Y-38178280D01*
X41675000Y-37797874D01*
X41675000Y-37747726D01*
X41923687Y-37850735D01*
X39313847Y-40460575D01*
X39239951Y-40509951D01*
X39044348Y-40802691D01*
X38993000Y-41060836D01*
X38993000Y-41060839D01*
X38975663Y-41148000D01*
X38993000Y-41235161D01*
X38993001Y-43463197D01*
X38813874Y-43389000D01*
X38402126Y-43389000D01*
X38021720Y-43546569D01*
X37730569Y-43837720D01*
X37696902Y-43919000D01*
X32335310Y-43919000D01*
X32257999Y-43903622D01*
X32180688Y-43919000D01*
X32180684Y-43919000D01*
X31951708Y-43964546D01*
X31951706Y-43964547D01*
X31951707Y-43964547D01*
X31757591Y-44094251D01*
X31757589Y-44094253D01*
X31692047Y-44138047D01*
X31666019Y-44177000D01*
X31544126Y-44177000D01*
X31163720Y-44334569D01*
X30872569Y-44625720D01*
X30715000Y-45006126D01*
X23595000Y-45006126D01*
X23595000Y-22325000D01*
X32639000Y-22325000D01*
X32639000Y-26924000D01*
X32639000Y-26924000D01*
G37*
X32639000Y-26924000D02*
X32648667Y-26972601D01*
X32676197Y-27013803D01*
X32717399Y-27041333D01*
X32766000Y-27051000D01*
X40132000Y-27051000D01*
X40180601Y-27041333D01*
X40221803Y-27013803D01*
X40249333Y-26972601D01*
X40259000Y-26924000D01*
X40259000Y-22325000D01*
X93245001Y-22325000D01*
X93245000Y-70385000D01*
X23595000Y-70385000D01*
X23595000Y-65515866D01*
X25305000Y-65515866D01*
X25305000Y-66564134D01*
X25706155Y-67532608D01*
X26447392Y-68273845D01*
X27415866Y-68675000D01*
X28464134Y-68675000D01*
X29432608Y-68273845D01*
X29856703Y-67849750D01*
X44215000Y-67849750D01*
X44215000Y-68790310D01*
X44311673Y-69023699D01*
X44490302Y-69202327D01*
X44723691Y-69299000D01*
X45434250Y-69299000D01*
X45593000Y-69140250D01*
X45593000Y-67691000D01*
X44373750Y-67691000D01*
X44215000Y-67849750D01*
X29856703Y-67849750D01*
X30173845Y-67532608D01*
X30575000Y-66564134D01*
X30575000Y-66337690D01*
X44215000Y-66337690D01*
X44215000Y-67278250D01*
X44373750Y-67437000D01*
X45593000Y-67437000D01*
X45593000Y-65987750D01*
X45434250Y-65829000D01*
X44723691Y-65829000D01*
X44490302Y-65925673D01*
X44311673Y-66104301D01*
X44215000Y-66337690D01*
X30575000Y-66337690D01*
X30575000Y-65515866D01*
X30173845Y-64547392D01*
X29432608Y-63806155D01*
X28464134Y-63405000D01*
X27415866Y-63405000D01*
X26447392Y-63806155D01*
X25706155Y-64547392D01*
X25305000Y-65515866D01*
X23595000Y-65515866D01*
X23595000Y-57570000D01*
X28982560Y-57570000D01*
X28982560Y-59270000D01*
X29031843Y-59517765D01*
X29172191Y-59727809D01*
X29382235Y-59868157D01*
X29630000Y-59917440D01*
X31330000Y-59917440D01*
X31577765Y-59868157D01*
X31787809Y-59727809D01*
X31928157Y-59517765D01*
X31948739Y-59414292D01*
X32253076Y-59691645D01*
X32663110Y-59861476D01*
X32893000Y-59740155D01*
X32893000Y-58547000D01*
X32873000Y-58547000D01*
X32873000Y-58293000D01*
X32893000Y-58293000D01*
X32893000Y-57099845D01*
X32663110Y-56978524D01*
X32253076Y-57148355D01*
X31948739Y-57425708D01*
X31928157Y-57322235D01*
X31787809Y-57112191D01*
X31577765Y-56971843D01*
X31330000Y-56922560D01*
X29630000Y-56922560D01*
X29382235Y-56971843D01*
X29172191Y-57112191D01*
X29031843Y-57322235D01*
X28982560Y-57570000D01*
X23595000Y-57570000D01*
X23595000Y-45006126D01*
X30715000Y-45006126D01*
X30715000Y-45417874D01*
X30872569Y-45798280D01*
X31163720Y-46089431D01*
X31544126Y-46247000D01*
X31955874Y-46247000D01*
X32336280Y-46089431D01*
X32627431Y-45798280D01*
X32755539Y-45489000D01*
X38095422Y-45489000D01*
X37875853Y-45708569D01*
X37513720Y-45858569D01*
X37222569Y-46149720D01*
X37072569Y-46511852D01*
X34995847Y-48588575D01*
X34921951Y-48637951D01*
X34726348Y-48930691D01*
X34675000Y-49188836D01*
X34675000Y-49188839D01*
X34657663Y-49276000D01*
X34675000Y-49363161D01*
X34675001Y-57225344D01*
X34489375Y-57349375D01*
X34276157Y-57668478D01*
X34215183Y-57538642D01*
X33786924Y-57148355D01*
X33376890Y-56978524D01*
X33147000Y-57099845D01*
X33147000Y-58293000D01*
X33167000Y-58293000D01*
X33167000Y-58547000D01*
X33147000Y-58547000D01*
X33147000Y-59740155D01*
X33376890Y-59861476D01*
X33786924Y-59691645D01*
X34215183Y-59301358D01*
X34276157Y-59171522D01*
X34489375Y-59490625D01*
X34980582Y-59818839D01*
X35413744Y-59905000D01*
X35706256Y-59905000D01*
X36139418Y-59818839D01*
X36630625Y-59490625D01*
X36830000Y-59192239D01*
X37029375Y-59490625D01*
X37520582Y-59818839D01*
X37953744Y-59905000D01*
X38246256Y-59905000D01*
X38679418Y-59818839D01*
X39170625Y-59490625D01*
X39370000Y-59192239D01*
X39569375Y-59490625D01*
X40060582Y-59818839D01*
X40493744Y-59905000D01*
X40786256Y-59905000D01*
X41219418Y-59818839D01*
X41710625Y-59490625D01*
X41910000Y-59192239D01*
X42109375Y-59490625D01*
X42600582Y-59818839D01*
X43033744Y-59905000D01*
X43326256Y-59905000D01*
X43759418Y-59818839D01*
X44250625Y-59490625D01*
X44578839Y-58999418D01*
X44694092Y-58420000D01*
X44578839Y-57840582D01*
X44250625Y-57349375D01*
X43759418Y-57021161D01*
X43326256Y-56935000D01*
X43033744Y-56935000D01*
X42600582Y-57021161D01*
X42109375Y-57349375D01*
X41910000Y-57647761D01*
X41710625Y-57349375D01*
X41219418Y-57021161D01*
X40786256Y-56935000D01*
X40493744Y-56935000D01*
X40060582Y-57021161D01*
X39569375Y-57349375D01*
X39370000Y-57647761D01*
X39170625Y-57349375D01*
X38679418Y-57021161D01*
X38246256Y-56935000D01*
X37953744Y-56935000D01*
X37520582Y-57021161D01*
X37029375Y-57349375D01*
X36830000Y-57647761D01*
X36630625Y-57349375D01*
X36445000Y-57225344D01*
X36445000Y-49642578D01*
X38324148Y-47763431D01*
X38686280Y-47613431D01*
X38977431Y-47322280D01*
X39127431Y-46960147D01*
X40442156Y-45645423D01*
X40516049Y-45596049D01*
X40587578Y-45489000D01*
X40711652Y-45303310D01*
X40722181Y-45250378D01*
X40763000Y-45045165D01*
X40763000Y-45045161D01*
X40780337Y-44958000D01*
X40763000Y-44870839D01*
X40763000Y-42362804D01*
X40942126Y-42437000D01*
X41085383Y-42437000D01*
X41241707Y-42541453D01*
X41470683Y-42586999D01*
X41470686Y-42586999D01*
X41547998Y-42602377D01*
X41625310Y-42586999D01*
X42399000Y-42586999D01*
X42399000Y-42877874D01*
X42556569Y-43258280D01*
X42847720Y-43549431D01*
X42903001Y-43572329D01*
X42903000Y-44495289D01*
X42810569Y-44587720D01*
X42653000Y-44968126D01*
X42653000Y-45379874D01*
X42810569Y-45760280D01*
X43101720Y-46051431D01*
X43482126Y-46209000D01*
X43893874Y-46209000D01*
X43919001Y-46198592D01*
X43919000Y-52153289D01*
X43826569Y-52245720D01*
X43669000Y-52626126D01*
X43669000Y-53037874D01*
X43826569Y-53418280D01*
X44117720Y-53709431D01*
X44498126Y-53867000D01*
X44909874Y-53867000D01*
X45290280Y-53709431D01*
X45581431Y-53418280D01*
X45739000Y-53037874D01*
X45739000Y-52626126D01*
X45581431Y-52245720D01*
X45489000Y-52153289D01*
X45489000Y-46045157D01*
X45525158Y-46008999D01*
X46463000Y-46008999D01*
X46463000Y-46179874D01*
X46620569Y-46560280D01*
X46713001Y-46652712D01*
X46713001Y-46976684D01*
X46697622Y-47054000D01*
X46758546Y-47360291D01*
X46888251Y-47554408D01*
X46888254Y-47554411D01*
X46932048Y-47619953D01*
X46997590Y-47663747D01*
X47733000Y-48399158D01*
X47733000Y-48529874D01*
X47890569Y-48910280D01*
X48181720Y-49201431D01*
X48562126Y-49359000D01*
X48973874Y-49359000D01*
X49354280Y-49201431D01*
X49645431Y-48910280D01*
X49803000Y-48529874D01*
X49803000Y-48118126D01*
X49645431Y-47737720D01*
X49354280Y-47446569D01*
X48973874Y-47289000D01*
X48843158Y-47289000D01*
X48478531Y-46924374D01*
X48562126Y-46959000D01*
X48973874Y-46959000D01*
X49354280Y-46801431D01*
X49645431Y-46510280D01*
X49803000Y-46129874D01*
X49803000Y-45718126D01*
X49645431Y-45337720D01*
X49354280Y-45046569D01*
X48973874Y-44889000D01*
X48843157Y-44889000D01*
X48677748Y-44723591D01*
X48633952Y-44658046D01*
X48374291Y-44484545D01*
X48145315Y-44438999D01*
X48145311Y-44438999D01*
X48067999Y-44423621D01*
X47990687Y-44438999D01*
X45277311Y-44438999D01*
X45200000Y-44423621D01*
X45122689Y-44438999D01*
X45122685Y-44438999D01*
X44893709Y-44484545D01*
X44634048Y-44658046D01*
X44609672Y-44694527D01*
X44565431Y-44587720D01*
X44473000Y-44495289D01*
X44473000Y-43003310D01*
X44488378Y-42925999D01*
X44473000Y-42848689D01*
X44473000Y-42848684D01*
X44469000Y-42828575D01*
X44469000Y-42586999D01*
X47572842Y-42586999D01*
X51793000Y-46807158D01*
X51793001Y-50629288D01*
X51700569Y-50721720D01*
X51543000Y-51102126D01*
X51543000Y-51513874D01*
X51700569Y-51894280D01*
X51991720Y-52185431D01*
X52372126Y-52343000D01*
X52783874Y-52343000D01*
X53164280Y-52185431D01*
X53455431Y-51894280D01*
X53613000Y-51513874D01*
X53613000Y-51102126D01*
X53455431Y-50721720D01*
X53363000Y-50629289D01*
X53363000Y-46559312D01*
X53378378Y-46482000D01*
X53363000Y-46404688D01*
X53363000Y-46404684D01*
X53317454Y-46175708D01*
X53259805Y-46089431D01*
X53187749Y-45981591D01*
X53187747Y-45981589D01*
X53143953Y-45916047D01*
X53078411Y-45872253D01*
X48507748Y-41301591D01*
X48463952Y-41236046D01*
X48204291Y-41062545D01*
X47975315Y-41016999D01*
X47975311Y-41016999D01*
X47897999Y-41001621D01*
X47820687Y-41016999D01*
X42108803Y-41016999D01*
X42025431Y-40815720D01*
X41743645Y-40533934D01*
X44383452Y-37894126D01*
X56877000Y-37894126D01*
X56877000Y-38305874D01*
X57034569Y-38686280D01*
X57325720Y-38977431D01*
X57706126Y-39135000D01*
X57836843Y-39135000D01*
X63652253Y-44950411D01*
X63696047Y-45015953D01*
X63761589Y-45059747D01*
X63761591Y-45059749D01*
X63873739Y-45134684D01*
X63955708Y-45189454D01*
X64184684Y-45235000D01*
X64184687Y-45235000D01*
X64261999Y-45250378D01*
X64339311Y-45235000D01*
X66377289Y-45235000D01*
X66469720Y-45327431D01*
X66850126Y-45485000D01*
X67261874Y-45485000D01*
X67642280Y-45327431D01*
X67933431Y-45036280D01*
X68091000Y-44655874D01*
X68091000Y-44244126D01*
X67933431Y-43863720D01*
X67642280Y-43572569D01*
X67261874Y-43415000D01*
X66850126Y-43415000D01*
X66469720Y-43572569D01*
X66377289Y-43665000D01*
X64587158Y-43665000D01*
X58947000Y-38024843D01*
X58947000Y-37894126D01*
X58789431Y-37513720D01*
X58498280Y-37222569D01*
X58117874Y-37065000D01*
X57706126Y-37065000D01*
X57325720Y-37222569D01*
X57034569Y-37513720D01*
X56877000Y-37894126D01*
X44383452Y-37894126D01*
X48475148Y-33802430D01*
X48819007Y-33660000D01*
X65958268Y-33660000D01*
X65462956Y-33990956D01*
X65130322Y-34488778D01*
X65043000Y-34927774D01*
X65043000Y-35684225D01*
X65130322Y-36123221D01*
X65462956Y-36621044D01*
X65663000Y-36754709D01*
X65663000Y-36818839D01*
X65645663Y-36906000D01*
X65663000Y-36993161D01*
X65663000Y-36993164D01*
X65714348Y-37251309D01*
X65909951Y-37544049D01*
X65983847Y-37593425D01*
X66800577Y-38410156D01*
X66849951Y-38484049D01*
X66923844Y-38533423D01*
X66923845Y-38533424D01*
X67063891Y-38627000D01*
X67142690Y-38679652D01*
X67400835Y-38731000D01*
X67400839Y-38731000D01*
X67488000Y-38748337D01*
X67575161Y-38731000D01*
X67953577Y-38731000D01*
X68003414Y-38805586D01*
X68101313Y-38871000D01*
X68003414Y-38936414D01*
X67808873Y-39227564D01*
X67740560Y-39570999D01*
X67740560Y-40221001D01*
X67808873Y-40564436D01*
X68003414Y-40855586D01*
X68152730Y-40955356D01*
X68053000Y-41196126D01*
X68053000Y-41607874D01*
X68210569Y-41988280D01*
X68501720Y-42279431D01*
X68882126Y-42437000D01*
X69293874Y-42437000D01*
X69674280Y-42279431D01*
X69965431Y-41988280D01*
X70123000Y-41607874D01*
X70123000Y-41196126D01*
X70023270Y-40955356D01*
X70172586Y-40855586D01*
X70228437Y-40772000D01*
X72017577Y-40772000D01*
X72067414Y-40846586D01*
X72358564Y-41041127D01*
X72701999Y-41109440D01*
X73602001Y-41109440D01*
X73945436Y-41041127D01*
X74236586Y-40846586D01*
X74286423Y-40772000D01*
X77347000Y-40772000D01*
X77347001Y-49489309D01*
X77331431Y-49451720D01*
X77040280Y-49160569D01*
X76659874Y-49003000D01*
X76248126Y-49003000D01*
X75867720Y-49160569D01*
X75576569Y-49451720D01*
X75419000Y-49832126D01*
X75419000Y-49962843D01*
X71302843Y-54079000D01*
X64178711Y-54079000D01*
X64086280Y-53986569D01*
X63705874Y-53829000D01*
X63294126Y-53829000D01*
X62913720Y-53986569D01*
X62622569Y-54277720D01*
X62615792Y-54294081D01*
X62562280Y-54240569D01*
X62181874Y-54083000D01*
X61770126Y-54083000D01*
X61389720Y-54240569D01*
X61098569Y-54531720D01*
X60941000Y-54912126D01*
X60941000Y-55323874D01*
X61098569Y-55704280D01*
X61191001Y-55796712D01*
X61191000Y-57487289D01*
X61098569Y-57579720D01*
X60941000Y-57960126D01*
X60941000Y-58371874D01*
X61098569Y-58752280D01*
X61389720Y-59043431D01*
X61770126Y-59201000D01*
X62181874Y-59201000D01*
X62562280Y-59043431D01*
X62853431Y-58752280D01*
X63011000Y-58371874D01*
X63011000Y-57960126D01*
X62853431Y-57579720D01*
X62761000Y-57487289D01*
X62761000Y-55796711D01*
X62853431Y-55704280D01*
X62860208Y-55687919D01*
X62913720Y-55741431D01*
X63294126Y-55899000D01*
X63705874Y-55899000D01*
X64086280Y-55741431D01*
X64178711Y-55649000D01*
X71550688Y-55649000D01*
X71628000Y-55664378D01*
X71705312Y-55649000D01*
X71705316Y-55649000D01*
X71934292Y-55603454D01*
X72193953Y-55429953D01*
X72237749Y-55364408D01*
X76529157Y-51073000D01*
X76659874Y-51073000D01*
X77040280Y-50915431D01*
X77331431Y-50624280D01*
X77347001Y-50586691D01*
X77347001Y-52744834D01*
X77329663Y-52832000D01*
X77398348Y-53177309D01*
X77544576Y-53396154D01*
X77544578Y-53396156D01*
X77593952Y-53470049D01*
X77667845Y-53519423D01*
X83057998Y-58909577D01*
X83057998Y-59004844D01*
X82828110Y-58883524D01*
X82418076Y-59053355D01*
X81989817Y-59443642D01*
X81743514Y-59968108D01*
X81864181Y-60198000D01*
X83058000Y-60198000D01*
X83058000Y-60178000D01*
X83312000Y-60178000D01*
X83312000Y-60198000D01*
X83332000Y-60198000D01*
X83332000Y-60452000D01*
X83312000Y-60452000D01*
X83312000Y-60472000D01*
X83058000Y-60472000D01*
X83058000Y-60452000D01*
X81864181Y-60452000D01*
X81743514Y-60681892D01*
X81989817Y-61206358D01*
X82251677Y-61445000D01*
X81605158Y-61445000D01*
X79857748Y-59697591D01*
X79813953Y-59632047D01*
X79554292Y-59458546D01*
X79325316Y-59413000D01*
X79325312Y-59413000D01*
X79248000Y-59397622D01*
X79170688Y-59413000D01*
X57475158Y-59413000D01*
X57009157Y-58947000D01*
X57101874Y-58947000D01*
X57482280Y-58789431D01*
X57773431Y-58498280D01*
X57931000Y-58117874D01*
X57931000Y-57706126D01*
X57773431Y-57325720D01*
X57681000Y-57233289D01*
X57681000Y-56780329D01*
X57736280Y-56757431D01*
X58027431Y-56466280D01*
X58185000Y-56085874D01*
X58185000Y-55674126D01*
X58027431Y-55293720D01*
X57736280Y-55002569D01*
X57355874Y-54845000D01*
X56944126Y-54845000D01*
X56563720Y-55002569D01*
X56515000Y-55051289D01*
X56466280Y-55002569D01*
X56085874Y-54845000D01*
X55674126Y-54845000D01*
X55649000Y-54855408D01*
X55649000Y-53919157D01*
X57650411Y-51917747D01*
X57715953Y-51873953D01*
X57759747Y-51808411D01*
X57759749Y-51808409D01*
X57809885Y-51733375D01*
X57889454Y-51614292D01*
X57935000Y-51385316D01*
X57935000Y-51385312D01*
X57950378Y-51308001D01*
X57935000Y-51230690D01*
X57935000Y-45890711D01*
X58027431Y-45798280D01*
X58185000Y-45417874D01*
X58185000Y-45006126D01*
X58027431Y-44625720D01*
X57736280Y-44334569D01*
X57355874Y-44177000D01*
X56944126Y-44177000D01*
X56563720Y-44334569D01*
X56388000Y-44510289D01*
X56212280Y-44334569D01*
X55831874Y-44177000D01*
X55420126Y-44177000D01*
X55039720Y-44334569D01*
X54748569Y-44625720D01*
X54591000Y-45006126D01*
X54591000Y-45149383D01*
X54486547Y-45305708D01*
X54425623Y-45611999D01*
X54441002Y-45689316D01*
X54441001Y-51382841D01*
X53093590Y-52730253D01*
X53028048Y-52774047D01*
X52984254Y-52839589D01*
X52984251Y-52839592D01*
X52854546Y-53033709D01*
X52793622Y-53340000D01*
X52809001Y-53417317D01*
X52809001Y-55917290D01*
X52701321Y-55809610D01*
X52320915Y-55652041D01*
X51909167Y-55652041D01*
X51528761Y-55809610D01*
X51436330Y-55902041D01*
X49392199Y-55902041D01*
X47771000Y-54280843D01*
X47771000Y-54150126D01*
X47613431Y-53769720D01*
X47322280Y-53478569D01*
X46941874Y-53321000D01*
X46530126Y-53321000D01*
X46149720Y-53478569D01*
X45858569Y-53769720D01*
X45701000Y-54150126D01*
X45701000Y-54561874D01*
X45858569Y-54942280D01*
X46149720Y-55233431D01*
X46530126Y-55391000D01*
X46660843Y-55391000D01*
X48457294Y-57187452D01*
X48501088Y-57252994D01*
X48566630Y-57296788D01*
X48566632Y-57296790D01*
X48609929Y-57325720D01*
X48760749Y-57426495D01*
X48989725Y-57472041D01*
X48989729Y-57472041D01*
X49067041Y-57487419D01*
X49144353Y-57472041D01*
X51436330Y-57472041D01*
X51528761Y-57564472D01*
X51909167Y-57722041D01*
X52320915Y-57722041D01*
X52701321Y-57564472D01*
X52809000Y-57456793D01*
X52809000Y-59872843D01*
X50871023Y-61810820D01*
X50724436Y-61712873D01*
X50381001Y-61644560D01*
X49730999Y-61644560D01*
X49387564Y-61712873D01*
X49096414Y-61907414D01*
X49031000Y-62005313D01*
X48965586Y-61907414D01*
X48674436Y-61712873D01*
X48331001Y-61644560D01*
X47680999Y-61644560D01*
X47337564Y-61712873D01*
X47046414Y-61907414D01*
X46851873Y-62198564D01*
X46783560Y-62541999D01*
X46783560Y-63442001D01*
X46851873Y-63785436D01*
X47046414Y-64076586D01*
X47221000Y-64193241D01*
X47221001Y-66218190D01*
X47185364Y-66242001D01*
X47128327Y-66104301D01*
X46949698Y-65925673D01*
X46716309Y-65829000D01*
X46005750Y-65829000D01*
X45847000Y-65987750D01*
X45847000Y-67437000D01*
X45867000Y-67437000D01*
X45867000Y-67691000D01*
X45847000Y-67691000D01*
X45847000Y-69140250D01*
X46005750Y-69299000D01*
X46716309Y-69299000D01*
X46949698Y-69202327D01*
X47128327Y-69023699D01*
X47185364Y-68885999D01*
X47672779Y-69211678D01*
X48260000Y-69328484D01*
X48847222Y-69211678D01*
X49345044Y-68879044D01*
X49677678Y-68381221D01*
X49765000Y-67942225D01*
X49765000Y-67849750D01*
X50565000Y-67849750D01*
X50565000Y-68790310D01*
X50661673Y-69023699D01*
X50840302Y-69202327D01*
X51073691Y-69299000D01*
X51784250Y-69299000D01*
X51943000Y-69140250D01*
X51943000Y-67691000D01*
X50723750Y-67691000D01*
X50565000Y-67849750D01*
X49765000Y-67849750D01*
X49765000Y-67185774D01*
X49677678Y-66746778D01*
X49404335Y-66337690D01*
X50565000Y-66337690D01*
X50565000Y-67278250D01*
X50723750Y-67437000D01*
X51943000Y-67437000D01*
X51943000Y-65987750D01*
X51784250Y-65829000D01*
X51073691Y-65829000D01*
X50840302Y-65925673D01*
X50661673Y-66104301D01*
X50565000Y-66337690D01*
X49404335Y-66337690D01*
X49345044Y-66248956D01*
X48847221Y-65916322D01*
X48791000Y-65905139D01*
X48791000Y-64193241D01*
X48965586Y-64076586D01*
X49031000Y-63978687D01*
X49096414Y-64076586D01*
X49387564Y-64271127D01*
X49730999Y-64339440D01*
X50381001Y-64339440D01*
X50724436Y-64271127D01*
X51015586Y-64076586D01*
X51210127Y-63785436D01*
X51238426Y-63643164D01*
X51365953Y-63557953D01*
X51409749Y-63492408D01*
X52099560Y-62802597D01*
X52099560Y-63442001D01*
X52167873Y-63785436D01*
X52362414Y-64076586D01*
X52653564Y-64271127D01*
X52996999Y-64339440D01*
X53647001Y-64339440D01*
X53990436Y-64271127D01*
X54281586Y-64076586D01*
X54347000Y-63978687D01*
X54412414Y-64076586D01*
X54587000Y-64193241D01*
X54587001Y-65804091D01*
X54022778Y-65916322D01*
X53535364Y-66242001D01*
X53478327Y-66104301D01*
X53299698Y-65925673D01*
X53066309Y-65829000D01*
X52355750Y-65829000D01*
X52197000Y-65987750D01*
X52197000Y-67437000D01*
X52217000Y-67437000D01*
X52217000Y-67691000D01*
X52197000Y-67691000D01*
X52197000Y-69140250D01*
X52355750Y-69299000D01*
X53066309Y-69299000D01*
X53299698Y-69202327D01*
X53478327Y-69023699D01*
X53535364Y-68885999D01*
X54022779Y-69211678D01*
X54610000Y-69328484D01*
X55197222Y-69211678D01*
X55695044Y-68879044D01*
X56027678Y-68381221D01*
X56115000Y-67942225D01*
X56115000Y-67185774D01*
X56102310Y-67121977D01*
X56111454Y-67108292D01*
X56157000Y-66879316D01*
X56157000Y-66879312D01*
X56172378Y-66802000D01*
X56157000Y-66724688D01*
X56157000Y-64193241D01*
X56331586Y-64076586D01*
X56526127Y-63785436D01*
X56594440Y-63442001D01*
X56594440Y-62541999D01*
X56526127Y-62198564D01*
X56390109Y-61995000D01*
X56593874Y-61995000D01*
X56974280Y-61837431D01*
X57066711Y-61745000D01*
X78414843Y-61745000D01*
X80035253Y-63365411D01*
X80079047Y-63430953D01*
X80144589Y-63474747D01*
X80144591Y-63474749D01*
X80334660Y-63601749D01*
X80338708Y-63604454D01*
X80567684Y-63650000D01*
X80567688Y-63650000D01*
X80645000Y-63665378D01*
X80722312Y-63650000D01*
X87784384Y-63650000D01*
X87407392Y-63806155D01*
X86666155Y-64547392D01*
X86265000Y-65515866D01*
X86265000Y-66564134D01*
X86666155Y-67532608D01*
X87407392Y-68273845D01*
X88375866Y-68675000D01*
X89424134Y-68675000D01*
X90392608Y-68273845D01*
X91133845Y-67532608D01*
X91535000Y-66564134D01*
X91535000Y-65515866D01*
X91133845Y-64547392D01*
X90392608Y-63806155D01*
X89791846Y-63557311D01*
X89980953Y-63430953D01*
X90024749Y-63365408D01*
X91305411Y-62084747D01*
X91370953Y-62040953D01*
X91414747Y-61975411D01*
X91414749Y-61975409D01*
X91516960Y-61822440D01*
X91655000Y-61822440D01*
X91902765Y-61773157D01*
X92112809Y-61632809D01*
X92253157Y-61422765D01*
X92302440Y-61175000D01*
X92302440Y-59475000D01*
X92253157Y-59227235D01*
X92112809Y-59017191D01*
X91902765Y-58876843D01*
X91655000Y-58827560D01*
X89955000Y-58827560D01*
X89707235Y-58876843D01*
X89497191Y-59017191D01*
X89356843Y-59227235D01*
X89347816Y-59272619D01*
X89335625Y-59254375D01*
X88844418Y-58926161D01*
X88411256Y-58840000D01*
X88118744Y-58840000D01*
X87685582Y-58926161D01*
X87194375Y-59254375D01*
X86995000Y-59552761D01*
X86795625Y-59254375D01*
X86304418Y-58926161D01*
X85871256Y-58840000D01*
X85578744Y-58840000D01*
X85506040Y-58854462D01*
X79117000Y-52465422D01*
X79117000Y-47560711D01*
X79169720Y-47613431D01*
X79550126Y-47771000D01*
X79961874Y-47771000D01*
X80342280Y-47613431D01*
X80633431Y-47322280D01*
X80791000Y-46941874D01*
X80791000Y-46811157D01*
X85590411Y-42011747D01*
X85655953Y-41967953D01*
X85699747Y-41902411D01*
X85699749Y-41902409D01*
X85749885Y-41827375D01*
X85829454Y-41708292D01*
X85875000Y-41479316D01*
X85875000Y-41479312D01*
X85890378Y-41402001D01*
X85875000Y-41324690D01*
X85875000Y-33168805D01*
X85883436Y-33167127D01*
X86174586Y-32972586D01*
X86369127Y-32681436D01*
X86437440Y-32338001D01*
X86437440Y-31687999D01*
X86369127Y-31344564D01*
X86174586Y-31053414D01*
X86076687Y-30988000D01*
X86174586Y-30922586D01*
X86369127Y-30631436D01*
X86437440Y-30288001D01*
X86437440Y-29637999D01*
X86369127Y-29294564D01*
X86174586Y-29003414D01*
X85883436Y-28808873D01*
X85540001Y-28740560D01*
X84639999Y-28740560D01*
X84296564Y-28808873D01*
X84216170Y-28862591D01*
X83801000Y-28447422D01*
X83801000Y-27815774D01*
X83713678Y-27376778D01*
X83381044Y-26878956D01*
X82883221Y-26546322D01*
X82296000Y-26429516D01*
X81708778Y-26546322D01*
X81221364Y-26872001D01*
X81164327Y-26734301D01*
X80985698Y-26555673D01*
X80752309Y-26459000D01*
X80041750Y-26459000D01*
X79883000Y-26617750D01*
X79883000Y-28067000D01*
X79903000Y-28067000D01*
X79903000Y-28321000D01*
X79883000Y-28321000D01*
X79883000Y-28341000D01*
X79629000Y-28341000D01*
X79629000Y-28321000D01*
X78409750Y-28321000D01*
X78251000Y-28479750D01*
X78251000Y-29420310D01*
X78347673Y-29653699D01*
X78526302Y-29832327D01*
X78759691Y-29929000D01*
X79470250Y-29929000D01*
X79628998Y-29770252D01*
X79628998Y-29839423D01*
X77569422Y-31899000D01*
X76826423Y-31899000D01*
X76776586Y-31824414D01*
X76678852Y-31759110D01*
X76776718Y-31693718D01*
X76971161Y-31402713D01*
X77039440Y-31059450D01*
X77039440Y-30408550D01*
X76971161Y-30065287D01*
X76776718Y-29774282D01*
X76578402Y-29641772D01*
X76777044Y-29509044D01*
X77109678Y-29011221D01*
X77197000Y-28572225D01*
X77197000Y-27815774D01*
X77109678Y-27376778D01*
X76836335Y-26967690D01*
X78251000Y-26967690D01*
X78251000Y-27908250D01*
X78409750Y-28067000D01*
X79629000Y-28067000D01*
X79629000Y-26617750D01*
X79470250Y-26459000D01*
X78759691Y-26459000D01*
X78526302Y-26555673D01*
X78347673Y-26734301D01*
X78251000Y-26967690D01*
X76836335Y-26967690D01*
X76777044Y-26878956D01*
X76279221Y-26546322D01*
X75692000Y-26429516D01*
X75104778Y-26546322D01*
X74617364Y-26872001D01*
X74560327Y-26734301D01*
X74381698Y-26555673D01*
X74148309Y-26459000D01*
X73437750Y-26459000D01*
X73279000Y-26617750D01*
X73279000Y-28067000D01*
X73299000Y-28067000D01*
X73299000Y-28321000D01*
X73279000Y-28321000D01*
X73279000Y-29770250D01*
X73437750Y-29929000D01*
X74148309Y-29929000D01*
X74381698Y-29832327D01*
X74560327Y-29653699D01*
X74617364Y-29515999D01*
X74805598Y-29641772D01*
X74607282Y-29774282D01*
X74412839Y-30065287D01*
X74344560Y-30408550D01*
X74344560Y-31059450D01*
X74412839Y-31402713D01*
X74607282Y-31693718D01*
X74705148Y-31759110D01*
X74607414Y-31824414D01*
X74557577Y-31899000D01*
X70228437Y-31899000D01*
X70172586Y-31815414D01*
X70074687Y-31750000D01*
X70172586Y-31684586D01*
X70367127Y-31393436D01*
X70435440Y-31050001D01*
X70435440Y-30399999D01*
X70367127Y-30056564D01*
X70172586Y-29765414D01*
X69980973Y-29637382D01*
X70173044Y-29509044D01*
X70505678Y-29011221D01*
X70593000Y-28572225D01*
X70593000Y-28479750D01*
X71647000Y-28479750D01*
X71647000Y-29420310D01*
X71743673Y-29653699D01*
X71922302Y-29832327D01*
X72155691Y-29929000D01*
X72866250Y-29929000D01*
X73025000Y-29770250D01*
X73025000Y-28321000D01*
X71805750Y-28321000D01*
X71647000Y-28479750D01*
X70593000Y-28479750D01*
X70593000Y-27815774D01*
X70505678Y-27376778D01*
X70232335Y-26967690D01*
X71647000Y-26967690D01*
X71647000Y-27908250D01*
X71805750Y-28067000D01*
X73025000Y-28067000D01*
X73025000Y-26617750D01*
X72866250Y-26459000D01*
X72155691Y-26459000D01*
X71922302Y-26555673D01*
X71743673Y-26734301D01*
X71647000Y-26967690D01*
X70232335Y-26967690D01*
X70173044Y-26878956D01*
X69675221Y-26546322D01*
X69088000Y-26429516D01*
X68500778Y-26546322D01*
X68013364Y-26872001D01*
X67956327Y-26734301D01*
X67777698Y-26555673D01*
X67544309Y-26459000D01*
X66833750Y-26459000D01*
X66675000Y-26617750D01*
X66675000Y-28067000D01*
X66695000Y-28067000D01*
X66695000Y-28321000D01*
X66675000Y-28321000D01*
X66675000Y-29770250D01*
X66833750Y-29929000D01*
X67544309Y-29929000D01*
X67777698Y-29832327D01*
X67956327Y-29653699D01*
X68013364Y-29515999D01*
X68195027Y-29637382D01*
X68003414Y-29765414D01*
X67808873Y-30056564D01*
X67740560Y-30399999D01*
X67740560Y-31050001D01*
X67808873Y-31393436D01*
X68003414Y-31684586D01*
X68101313Y-31750000D01*
X68003414Y-31815414D01*
X67953577Y-31890000D01*
X48819007Y-31890000D01*
X48456874Y-31740000D01*
X48045126Y-31740000D01*
X47722536Y-31873621D01*
X50538408Y-29057749D01*
X50603953Y-29013953D01*
X50777454Y-28754292D01*
X50823000Y-28525316D01*
X50823000Y-28525312D01*
X50832062Y-28479750D01*
X65043000Y-28479750D01*
X65043000Y-29420310D01*
X65139673Y-29653699D01*
X65318302Y-29832327D01*
X65551691Y-29929000D01*
X66262250Y-29929000D01*
X66421000Y-29770250D01*
X66421000Y-28321000D01*
X65201750Y-28321000D01*
X65043000Y-28479750D01*
X50832062Y-28479750D01*
X50838378Y-28448000D01*
X50823000Y-28370688D01*
X50823000Y-26407527D01*
X51112636Y-26213999D01*
X51169673Y-26351699D01*
X51348302Y-26530327D01*
X51581691Y-26627000D01*
X52292250Y-26627000D01*
X52451000Y-26468250D01*
X52451000Y-25019000D01*
X52705000Y-25019000D01*
X52705000Y-26468250D01*
X52863750Y-26627000D01*
X53574309Y-26627000D01*
X53807698Y-26530327D01*
X53986327Y-26351699D01*
X54083000Y-26118310D01*
X54083000Y-25177750D01*
X53924250Y-25019000D01*
X52705000Y-25019000D01*
X52451000Y-25019000D01*
X52431000Y-25019000D01*
X52431000Y-24875866D01*
X58325000Y-24875866D01*
X58325000Y-25924134D01*
X58726155Y-26892608D01*
X59467392Y-27633845D01*
X60435866Y-28035000D01*
X61484134Y-28035000D01*
X62452608Y-27633845D01*
X63118763Y-26967690D01*
X65043000Y-26967690D01*
X65043000Y-27908250D01*
X65201750Y-28067000D01*
X66421000Y-28067000D01*
X66421000Y-26617750D01*
X66262250Y-26459000D01*
X65551691Y-26459000D01*
X65318302Y-26555673D01*
X65139673Y-26734301D01*
X65043000Y-26967690D01*
X63118763Y-26967690D01*
X63193845Y-26892608D01*
X63595000Y-25924134D01*
X63595000Y-24875866D01*
X86265000Y-24875866D01*
X86265000Y-25924134D01*
X86666155Y-26892608D01*
X87407392Y-27633845D01*
X88375866Y-28035000D01*
X89424134Y-28035000D01*
X90392608Y-27633845D01*
X91133845Y-26892608D01*
X91535000Y-25924134D01*
X91535000Y-24875866D01*
X91133845Y-23907392D01*
X90392608Y-23166155D01*
X89424134Y-22765000D01*
X88375866Y-22765000D01*
X87407392Y-23166155D01*
X86666155Y-23907392D01*
X86265000Y-24875866D01*
X63595000Y-24875866D01*
X63193845Y-23907392D01*
X62452608Y-23166155D01*
X61484134Y-22765000D01*
X60435866Y-22765000D01*
X59467392Y-23166155D01*
X58726155Y-23907392D01*
X58325000Y-24875866D01*
X52431000Y-24875866D01*
X52431000Y-24765000D01*
X52451000Y-24765000D01*
X52451000Y-23315750D01*
X52705000Y-23315750D01*
X52705000Y-24765000D01*
X53924250Y-24765000D01*
X54083000Y-24606250D01*
X54083000Y-23665690D01*
X53986327Y-23432301D01*
X53807698Y-23253673D01*
X53574309Y-23157000D01*
X52863750Y-23157000D01*
X52705000Y-23315750D01*
X52451000Y-23315750D01*
X52292250Y-23157000D01*
X51581691Y-23157000D01*
X51348302Y-23253673D01*
X51169673Y-23432301D01*
X51112636Y-23570001D01*
X50625222Y-23244322D01*
X50038000Y-23127516D01*
X49450779Y-23244322D01*
X48952956Y-23576956D01*
X48768000Y-23853763D01*
X48583044Y-23576956D01*
X48085222Y-23244322D01*
X47498000Y-23127516D01*
X46910779Y-23244322D01*
X46412956Y-23576956D01*
X46228000Y-23853763D01*
X46043044Y-23576956D01*
X45545222Y-23244322D01*
X44958000Y-23127516D01*
X44370779Y-23244322D01*
X43872956Y-23576956D01*
X43540322Y-24074778D01*
X43453000Y-24513774D01*
X43453000Y-25270225D01*
X43540322Y-25709221D01*
X43872956Y-26207044D01*
X44173001Y-26407527D01*
X44173000Y-28122842D01*
X40139590Y-32156253D01*
X40074048Y-32200047D01*
X40030254Y-32265589D01*
X40030251Y-32265592D01*
X39900546Y-32459709D01*
X39839622Y-32766000D01*
X39855001Y-32843317D01*
X39855000Y-36913289D01*
X39762569Y-37005720D01*
X39605000Y-37386126D01*
X39605000Y-37797874D01*
X39762569Y-38178280D01*
X40053720Y-38469431D01*
X40434126Y-38627000D01*
X40845874Y-38627000D01*
X41226280Y-38469431D01*
X41517431Y-38178280D01*
X41675000Y-37797874D01*
X41675000Y-37747726D01*
X41923687Y-37850735D01*
X39313847Y-40460575D01*
X39239951Y-40509951D01*
X39044348Y-40802691D01*
X38993000Y-41060836D01*
X38993000Y-41060839D01*
X38975663Y-41148000D01*
X38993000Y-41235161D01*
X38993001Y-43463197D01*
X38813874Y-43389000D01*
X38402126Y-43389000D01*
X38021720Y-43546569D01*
X37730569Y-43837720D01*
X37696902Y-43919000D01*
X32335310Y-43919000D01*
X32257999Y-43903622D01*
X32180688Y-43919000D01*
X32180684Y-43919000D01*
X31951708Y-43964546D01*
X31951706Y-43964547D01*
X31951707Y-43964547D01*
X31757591Y-44094251D01*
X31757589Y-44094253D01*
X31692047Y-44138047D01*
X31666019Y-44177000D01*
X31544126Y-44177000D01*
X31163720Y-44334569D01*
X30872569Y-44625720D01*
X30715000Y-45006126D01*
X23595000Y-45006126D01*
X23595000Y-22325000D01*
X32639000Y-22325000D01*
X32639000Y-26924000D01*
G36*
X75819000Y-35179000D02*
X75839000Y-35179000D01*
X75839000Y-35433000D01*
X75819000Y-35433000D01*
X75819000Y-36882250D01*
X75977750Y-37041000D01*
X76688309Y-37041000D01*
X76921698Y-36944327D01*
X77051001Y-36815025D01*
X77051001Y-36954835D01*
X77033663Y-37042000D01*
X77102348Y-37387309D01*
X77248576Y-37606154D01*
X77248578Y-37606156D01*
X77297952Y-37680049D01*
X77371845Y-37729423D01*
X78285462Y-38643040D01*
X78241908Y-38862000D01*
X78269756Y-39002000D01*
X74286423Y-39002000D01*
X74236586Y-38927414D01*
X74138687Y-38862000D01*
X74236586Y-38796586D01*
X74431127Y-38505436D01*
X74499440Y-38162001D01*
X74499440Y-37511999D01*
X74431127Y-37168564D01*
X74236586Y-36877414D01*
X74044973Y-36749382D01*
X74226636Y-36627999D01*
X74283673Y-36765699D01*
X74462302Y-36944327D01*
X74695691Y-37041000D01*
X75406250Y-37041000D01*
X75565000Y-36882250D01*
X75565000Y-35433000D01*
X75545000Y-35433000D01*
X75545000Y-35179000D01*
X75565000Y-35179000D01*
X75565000Y-35159000D01*
X75819000Y-35159000D01*
X75819000Y-35179000D01*
X75819000Y-35179000D01*
G37*
X75819000Y-35179000D02*
X75839000Y-35179000D01*
X75839000Y-35433000D01*
X75819000Y-35433000D01*
X75819000Y-36882250D01*
X75977750Y-37041000D01*
X76688309Y-37041000D01*
X76921698Y-36944327D01*
X77051001Y-36815025D01*
X77051001Y-36954835D01*
X77033663Y-37042000D01*
X77102348Y-37387309D01*
X77248576Y-37606154D01*
X77248578Y-37606156D01*
X77297952Y-37680049D01*
X77371845Y-37729423D01*
X78285462Y-38643040D01*
X78241908Y-38862000D01*
X78269756Y-39002000D01*
X74286423Y-39002000D01*
X74236586Y-38927414D01*
X74138687Y-38862000D01*
X74236586Y-38796586D01*
X74431127Y-38505436D01*
X74499440Y-38162001D01*
X74499440Y-37511999D01*
X74431127Y-37168564D01*
X74236586Y-36877414D01*
X74044973Y-36749382D01*
X74226636Y-36627999D01*
X74283673Y-36765699D01*
X74462302Y-36944327D01*
X74695691Y-37041000D01*
X75406250Y-37041000D01*
X75565000Y-36882250D01*
X75565000Y-35433000D01*
X75545000Y-35433000D01*
X75545000Y-35179000D01*
X75565000Y-35179000D01*
X75565000Y-35159000D01*
X75819000Y-35159000D01*
X75819000Y-35179000D01*
G36*
X72066956Y-33990956D02*
X71734322Y-34488778D01*
X71647000Y-34927774D01*
X71647000Y-35684225D01*
X71734322Y-36123221D01*
X72066956Y-36621044D01*
X72259027Y-36749382D01*
X72067414Y-36877414D01*
X71872873Y-37168564D01*
X71804560Y-37511999D01*
X71804560Y-38162001D01*
X71872873Y-38505436D01*
X72067414Y-38796586D01*
X72165313Y-38862000D01*
X72067414Y-38927414D01*
X72017577Y-39002000D01*
X70216409Y-39002000D01*
X70172586Y-38936414D01*
X70074687Y-38871000D01*
X70172586Y-38805586D01*
X70367127Y-38514436D01*
X70435440Y-38171001D01*
X70435440Y-37520999D01*
X70367127Y-37177564D01*
X70234350Y-36978851D01*
X70317698Y-36944327D01*
X70496327Y-36765699D01*
X70593000Y-36532310D01*
X70593000Y-35591750D01*
X70434250Y-35433000D01*
X69215000Y-35433000D01*
X69215000Y-35453000D01*
X68961000Y-35453000D01*
X68961000Y-35433000D01*
X68941000Y-35433000D01*
X68941000Y-35179000D01*
X68961000Y-35179000D01*
X68961000Y-35159000D01*
X69215000Y-35159000D01*
X69215000Y-35179000D01*
X70434250Y-35179000D01*
X70593000Y-35020250D01*
X70593000Y-34079690D01*
X70496327Y-33846301D01*
X70319025Y-33669000D01*
X72548798Y-33669000D01*
X72066956Y-33990956D01*
X72066956Y-33990956D01*
G37*
X72066956Y-33990956D02*
X71734322Y-34488778D01*
X71647000Y-34927774D01*
X71647000Y-35684225D01*
X71734322Y-36123221D01*
X72066956Y-36621044D01*
X72259027Y-36749382D01*
X72067414Y-36877414D01*
X71872873Y-37168564D01*
X71804560Y-37511999D01*
X71804560Y-38162001D01*
X71872873Y-38505436D01*
X72067414Y-38796586D01*
X72165313Y-38862000D01*
X72067414Y-38927414D01*
X72017577Y-39002000D01*
X70216409Y-39002000D01*
X70172586Y-38936414D01*
X70074687Y-38871000D01*
X70172586Y-38805586D01*
X70367127Y-38514436D01*
X70435440Y-38171001D01*
X70435440Y-37520999D01*
X70367127Y-37177564D01*
X70234350Y-36978851D01*
X70317698Y-36944327D01*
X70496327Y-36765699D01*
X70593000Y-36532310D01*
X70593000Y-35591750D01*
X70434250Y-35433000D01*
X69215000Y-35433000D01*
X69215000Y-35453000D01*
X68961000Y-35453000D01*
X68961000Y-35433000D01*
X68941000Y-35433000D01*
X68941000Y-35179000D01*
X68961000Y-35179000D01*
X68961000Y-35159000D01*
X69215000Y-35159000D01*
X69215000Y-35179000D01*
X70434250Y-35179000D01*
X70593000Y-35020250D01*
X70593000Y-34079690D01*
X70496327Y-33846301D01*
X70319025Y-33669000D01*
X72548798Y-33669000D01*
X72066956Y-33990956D01*
G36*
X83377577Y-30527156D02*
X83426951Y-30601049D01*
X83500844Y-30650423D01*
X83500845Y-30650424D01*
X83710573Y-30790560D01*
X83719690Y-30796652D01*
X83952165Y-30842894D01*
X84005414Y-30922586D01*
X84103313Y-30988000D01*
X84005414Y-31053414D01*
X83952165Y-31133106D01*
X83719690Y-31179348D01*
X83500845Y-31325576D01*
X83500844Y-31325577D01*
X83426951Y-31374951D01*
X83377577Y-31448844D01*
X82514960Y-32311462D01*
X82442256Y-32297000D01*
X82149744Y-32297000D01*
X81716582Y-32383161D01*
X81225375Y-32711375D01*
X81024647Y-33011786D01*
X80637358Y-32586817D01*
X80112892Y-32340514D01*
X79883000Y-32461181D01*
X79883000Y-33655000D01*
X79903000Y-33655000D01*
X79903000Y-33909000D01*
X79883000Y-33909000D01*
X79883000Y-33929000D01*
X79629000Y-33929000D01*
X79629000Y-33909000D01*
X79609000Y-33909000D01*
X79609000Y-33655000D01*
X79629000Y-33655000D01*
X79629000Y-32461181D01*
X79551222Y-32420356D01*
X82060032Y-29911547D01*
X82296000Y-29958484D01*
X82723809Y-29873387D01*
X83377577Y-30527156D01*
X83377577Y-30527156D01*
G37*
X83377577Y-30527156D02*
X83426951Y-30601049D01*
X83500844Y-30650423D01*
X83500845Y-30650424D01*
X83710573Y-30790560D01*
X83719690Y-30796652D01*
X83952165Y-30842894D01*
X84005414Y-30922586D01*
X84103313Y-30988000D01*
X84005414Y-31053414D01*
X83952165Y-31133106D01*
X83719690Y-31179348D01*
X83500845Y-31325576D01*
X83500844Y-31325577D01*
X83426951Y-31374951D01*
X83377577Y-31448844D01*
X82514960Y-32311462D01*
X82442256Y-32297000D01*
X82149744Y-32297000D01*
X81716582Y-32383161D01*
X81225375Y-32711375D01*
X81024647Y-33011786D01*
X80637358Y-32586817D01*
X80112892Y-32340514D01*
X79883000Y-32461181D01*
X79883000Y-33655000D01*
X79903000Y-33655000D01*
X79903000Y-33909000D01*
X79883000Y-33909000D01*
X79883000Y-33929000D01*
X79629000Y-33929000D01*
X79629000Y-33909000D01*
X79609000Y-33909000D01*
X79609000Y-33655000D01*
X79629000Y-33655000D01*
X79629000Y-32461181D01*
X79551222Y-32420356D01*
X82060032Y-29911547D01*
X82296000Y-29958484D01*
X82723809Y-29873387D01*
X83377577Y-30527156D01*
M02*
