%TF.GenerationSoftware,KiCad,Pcbnew,5.0.1*%
%TF.CreationDate,2019-02-04T17:12:45-06:00*%
%TF.ProjectId,RDP-Environmental,5244502D456E7669726F6E6D656E7461,01*%
%TF.SameCoordinates,Original*%
%TF.FileFunction,Soldermask,Bot*%
%TF.FilePolarity,Negative*%
%FSLAX46Y46*%
G04 Gerber Fmt 4.6, Leading zero omitted, Abs format (unit mm)*
G04 Created by KiCad (PCBNEW 5.0.1) date Mon 04 Feb 2019 05:12:45 PM CST*
%MOMM*%
%LPD*%
G01*
G04 APERTURE LIST*
%ADD10C,0.100000*%
G04 APERTURE END LIST*
D10*
G36*
X48440547Y-66426326D02*
X48556286Y-66461435D01*
X48614157Y-66478990D01*
X48635718Y-66490515D01*
X48774155Y-66564511D01*
X48914396Y-66679604D01*
X49029489Y-66819844D01*
X49069298Y-66894321D01*
X49115010Y-66979842D01*
X49124617Y-67011513D01*
X49167674Y-67153452D01*
X49181000Y-67288756D01*
X49181000Y-67839243D01*
X49167674Y-67974548D01*
X49115010Y-68148157D01*
X49029489Y-68308156D01*
X48914396Y-68448396D01*
X48774156Y-68563489D01*
X48755314Y-68573560D01*
X48614158Y-68649010D01*
X48567551Y-68663148D01*
X48440548Y-68701674D01*
X48260000Y-68719456D01*
X48079453Y-68701674D01*
X47952450Y-68663148D01*
X47905843Y-68649010D01*
X47764687Y-68573560D01*
X47745845Y-68563489D01*
X47605605Y-68448396D01*
X47490512Y-68308156D01*
X47450703Y-68233680D01*
X47404990Y-68148158D01*
X47387435Y-68090287D01*
X47352326Y-67974548D01*
X47339000Y-67839244D01*
X47339000Y-67288757D01*
X47352326Y-67153453D01*
X47404990Y-66979844D01*
X47404990Y-66979843D01*
X47436183Y-66921486D01*
X47490511Y-66819845D01*
X47605604Y-66679604D01*
X47745844Y-66564511D01*
X47882685Y-66491368D01*
X47905842Y-66478990D01*
X47963713Y-66461435D01*
X48079452Y-66426326D01*
X48260000Y-66408544D01*
X48440547Y-66426326D01*
X48440547Y-66426326D01*
G37*
G36*
X54790547Y-66426326D02*
X54906286Y-66461435D01*
X54964157Y-66478990D01*
X54985718Y-66490515D01*
X55124155Y-66564511D01*
X55264396Y-66679604D01*
X55379489Y-66819844D01*
X55419298Y-66894321D01*
X55465010Y-66979842D01*
X55474617Y-67011513D01*
X55517674Y-67153452D01*
X55531000Y-67288756D01*
X55531000Y-67839243D01*
X55517674Y-67974548D01*
X55465010Y-68148157D01*
X55379489Y-68308156D01*
X55264396Y-68448396D01*
X55124156Y-68563489D01*
X55105314Y-68573560D01*
X54964158Y-68649010D01*
X54917551Y-68663148D01*
X54790548Y-68701674D01*
X54610000Y-68719456D01*
X54429453Y-68701674D01*
X54302450Y-68663148D01*
X54255843Y-68649010D01*
X54114687Y-68573560D01*
X54095845Y-68563489D01*
X53955605Y-68448396D01*
X53840512Y-68308156D01*
X53800703Y-68233680D01*
X53754990Y-68148158D01*
X53737435Y-68090287D01*
X53702326Y-67974548D01*
X53689000Y-67839244D01*
X53689000Y-67288757D01*
X53702326Y-67153453D01*
X53754990Y-66979844D01*
X53754990Y-66979843D01*
X53786183Y-66921486D01*
X53840511Y-66819845D01*
X53955604Y-66679604D01*
X54095844Y-66564511D01*
X54232685Y-66491368D01*
X54255842Y-66478990D01*
X54313713Y-66461435D01*
X54429452Y-66426326D01*
X54610000Y-66408544D01*
X54790547Y-66426326D01*
X54790547Y-66426326D01*
G37*
G36*
X46499560Y-66416966D02*
X46532383Y-66426923D01*
X46562632Y-66443092D01*
X46589148Y-66464852D01*
X46610908Y-66491368D01*
X46627077Y-66521617D01*
X46637034Y-66554440D01*
X46641000Y-66594712D01*
X46641000Y-68533288D01*
X46637034Y-68573560D01*
X46627077Y-68606383D01*
X46610908Y-68636632D01*
X46589148Y-68663148D01*
X46562632Y-68684908D01*
X46532383Y-68701077D01*
X46499560Y-68711034D01*
X46459288Y-68715000D01*
X44980712Y-68715000D01*
X44940440Y-68711034D01*
X44907617Y-68701077D01*
X44877368Y-68684908D01*
X44850852Y-68663148D01*
X44829092Y-68636632D01*
X44812923Y-68606383D01*
X44802966Y-68573560D01*
X44799000Y-68533288D01*
X44799000Y-66594712D01*
X44802966Y-66554440D01*
X44812923Y-66521617D01*
X44829092Y-66491368D01*
X44850852Y-66464852D01*
X44877368Y-66443092D01*
X44907617Y-66426923D01*
X44940440Y-66416966D01*
X44980712Y-66413000D01*
X46459288Y-66413000D01*
X46499560Y-66416966D01*
X46499560Y-66416966D01*
G37*
G36*
X52849560Y-66416966D02*
X52882383Y-66426923D01*
X52912632Y-66443092D01*
X52939148Y-66464852D01*
X52960908Y-66491368D01*
X52977077Y-66521617D01*
X52987034Y-66554440D01*
X52991000Y-66594712D01*
X52991000Y-68533288D01*
X52987034Y-68573560D01*
X52977077Y-68606383D01*
X52960908Y-68636632D01*
X52939148Y-68663148D01*
X52912632Y-68684908D01*
X52882383Y-68701077D01*
X52849560Y-68711034D01*
X52809288Y-68715000D01*
X51330712Y-68715000D01*
X51290440Y-68711034D01*
X51257617Y-68701077D01*
X51227368Y-68684908D01*
X51200852Y-68663148D01*
X51179092Y-68636632D01*
X51162923Y-68606383D01*
X51152966Y-68573560D01*
X51149000Y-68533288D01*
X51149000Y-66594712D01*
X51152966Y-66554440D01*
X51162923Y-66521617D01*
X51179092Y-66491368D01*
X51200852Y-66464852D01*
X51227368Y-66443092D01*
X51257617Y-66426923D01*
X51290440Y-66416966D01*
X51330712Y-66413000D01*
X52809288Y-66413000D01*
X52849560Y-66416966D01*
X52849560Y-66416966D01*
G37*
G36*
X89498252Y-64067818D02*
X89498254Y-64067819D01*
X89498255Y-64067819D01*
X89871513Y-64222427D01*
X89871514Y-64222428D01*
X90207439Y-64446886D01*
X90493114Y-64732561D01*
X90493116Y-64732564D01*
X90717573Y-65068487D01*
X90872181Y-65441745D01*
X90872182Y-65441748D01*
X90951000Y-65837993D01*
X90951000Y-66242007D01*
X90880843Y-66594712D01*
X90872181Y-66638255D01*
X90717573Y-67011513D01*
X90622731Y-67153454D01*
X90493114Y-67347439D01*
X90207439Y-67633114D01*
X90207436Y-67633116D01*
X89871513Y-67857573D01*
X89498255Y-68012181D01*
X89498254Y-68012181D01*
X89498252Y-68012182D01*
X89102007Y-68091000D01*
X88697993Y-68091000D01*
X88301748Y-68012182D01*
X88301746Y-68012181D01*
X88301745Y-68012181D01*
X87928487Y-67857573D01*
X87592564Y-67633116D01*
X87592561Y-67633114D01*
X87306886Y-67347439D01*
X87177269Y-67153454D01*
X87082427Y-67011513D01*
X86927819Y-66638255D01*
X86919158Y-66594712D01*
X86849000Y-66242007D01*
X86849000Y-65837993D01*
X86927818Y-65441748D01*
X86927819Y-65441745D01*
X87082427Y-65068487D01*
X87306884Y-64732564D01*
X87306886Y-64732561D01*
X87592561Y-64446886D01*
X87928486Y-64222428D01*
X87928487Y-64222427D01*
X88301745Y-64067819D01*
X88301746Y-64067819D01*
X88301748Y-64067818D01*
X88697993Y-63989000D01*
X89102007Y-63989000D01*
X89498252Y-64067818D01*
X89498252Y-64067818D01*
G37*
G36*
X28538252Y-64067818D02*
X28538254Y-64067819D01*
X28538255Y-64067819D01*
X28911513Y-64222427D01*
X28911514Y-64222428D01*
X29247439Y-64446886D01*
X29533114Y-64732561D01*
X29533116Y-64732564D01*
X29757573Y-65068487D01*
X29912181Y-65441745D01*
X29912182Y-65441748D01*
X29991000Y-65837993D01*
X29991000Y-66242007D01*
X29920843Y-66594712D01*
X29912181Y-66638255D01*
X29757573Y-67011513D01*
X29662731Y-67153454D01*
X29533114Y-67347439D01*
X29247439Y-67633114D01*
X29247436Y-67633116D01*
X28911513Y-67857573D01*
X28538255Y-68012181D01*
X28538254Y-68012181D01*
X28538252Y-68012182D01*
X28142007Y-68091000D01*
X27737993Y-68091000D01*
X27341748Y-68012182D01*
X27341746Y-68012181D01*
X27341745Y-68012181D01*
X26968487Y-67857573D01*
X26632564Y-67633116D01*
X26632561Y-67633114D01*
X26346886Y-67347439D01*
X26217269Y-67153454D01*
X26122427Y-67011513D01*
X25967819Y-66638255D01*
X25959158Y-66594712D01*
X25889000Y-66242007D01*
X25889000Y-65837993D01*
X25967818Y-65441748D01*
X25967819Y-65441745D01*
X26122427Y-65068487D01*
X26346884Y-64732564D01*
X26346886Y-64732561D01*
X26632561Y-64446886D01*
X26968486Y-64222428D01*
X26968487Y-64222427D01*
X27341745Y-64067819D01*
X27341746Y-64067819D01*
X27341748Y-64067818D01*
X27737993Y-63989000D01*
X28142007Y-63989000D01*
X28538252Y-64067818D01*
X28538252Y-64067818D01*
G37*
G36*
X48469677Y-62245465D02*
X48507364Y-62256898D01*
X48542103Y-62275466D01*
X48572548Y-62300452D01*
X48597534Y-62330897D01*
X48616102Y-62365636D01*
X48627535Y-62403323D01*
X48632000Y-62448661D01*
X48632000Y-63535339D01*
X48627535Y-63580677D01*
X48616102Y-63618364D01*
X48597534Y-63653103D01*
X48572548Y-63683548D01*
X48542103Y-63708534D01*
X48507364Y-63727102D01*
X48469677Y-63738535D01*
X48424339Y-63743000D01*
X47587661Y-63743000D01*
X47542323Y-63738535D01*
X47504636Y-63727102D01*
X47469897Y-63708534D01*
X47439452Y-63683548D01*
X47414466Y-63653103D01*
X47395898Y-63618364D01*
X47384465Y-63580677D01*
X47380000Y-63535339D01*
X47380000Y-62448661D01*
X47384465Y-62403323D01*
X47395898Y-62365636D01*
X47414466Y-62330897D01*
X47439452Y-62300452D01*
X47469897Y-62275466D01*
X47504636Y-62256898D01*
X47542323Y-62245465D01*
X47587661Y-62241000D01*
X48424339Y-62241000D01*
X48469677Y-62245465D01*
X48469677Y-62245465D01*
G37*
G36*
X50519677Y-62245465D02*
X50557364Y-62256898D01*
X50592103Y-62275466D01*
X50622548Y-62300452D01*
X50647534Y-62330897D01*
X50666102Y-62365636D01*
X50677535Y-62403323D01*
X50682000Y-62448661D01*
X50682000Y-63535339D01*
X50677535Y-63580677D01*
X50666102Y-63618364D01*
X50647534Y-63653103D01*
X50622548Y-63683548D01*
X50592103Y-63708534D01*
X50557364Y-63727102D01*
X50519677Y-63738535D01*
X50474339Y-63743000D01*
X49637661Y-63743000D01*
X49592323Y-63738535D01*
X49554636Y-63727102D01*
X49519897Y-63708534D01*
X49489452Y-63683548D01*
X49464466Y-63653103D01*
X49445898Y-63618364D01*
X49434465Y-63580677D01*
X49430000Y-63535339D01*
X49430000Y-62448661D01*
X49434465Y-62403323D01*
X49445898Y-62365636D01*
X49464466Y-62330897D01*
X49489452Y-62300452D01*
X49519897Y-62275466D01*
X49554636Y-62256898D01*
X49592323Y-62245465D01*
X49637661Y-62241000D01*
X50474339Y-62241000D01*
X50519677Y-62245465D01*
X50519677Y-62245465D01*
G37*
G36*
X55835677Y-62245465D02*
X55873364Y-62256898D01*
X55908103Y-62275466D01*
X55938548Y-62300452D01*
X55963534Y-62330897D01*
X55982102Y-62365636D01*
X55993535Y-62403323D01*
X55998000Y-62448661D01*
X55998000Y-63535339D01*
X55993535Y-63580677D01*
X55982102Y-63618364D01*
X55963534Y-63653103D01*
X55938548Y-63683548D01*
X55908103Y-63708534D01*
X55873364Y-63727102D01*
X55835677Y-63738535D01*
X55790339Y-63743000D01*
X54953661Y-63743000D01*
X54908323Y-63738535D01*
X54870636Y-63727102D01*
X54835897Y-63708534D01*
X54805452Y-63683548D01*
X54780466Y-63653103D01*
X54761898Y-63618364D01*
X54750465Y-63580677D01*
X54746000Y-63535339D01*
X54746000Y-62448661D01*
X54750465Y-62403323D01*
X54761898Y-62365636D01*
X54780466Y-62330897D01*
X54805452Y-62300452D01*
X54835897Y-62275466D01*
X54870636Y-62256898D01*
X54908323Y-62245465D01*
X54953661Y-62241000D01*
X55790339Y-62241000D01*
X55835677Y-62245465D01*
X55835677Y-62245465D01*
G37*
G36*
X53785677Y-62245465D02*
X53823364Y-62256898D01*
X53858103Y-62275466D01*
X53888548Y-62300452D01*
X53913534Y-62330897D01*
X53932102Y-62365636D01*
X53943535Y-62403323D01*
X53948000Y-62448661D01*
X53948000Y-63535339D01*
X53943535Y-63580677D01*
X53932102Y-63618364D01*
X53913534Y-63653103D01*
X53888548Y-63683548D01*
X53858103Y-63708534D01*
X53823364Y-63727102D01*
X53785677Y-63738535D01*
X53740339Y-63743000D01*
X52903661Y-63743000D01*
X52858323Y-63738535D01*
X52820636Y-63727102D01*
X52785897Y-63708534D01*
X52755452Y-63683548D01*
X52730466Y-63653103D01*
X52711898Y-63618364D01*
X52700465Y-63580677D01*
X52696000Y-63535339D01*
X52696000Y-62448661D01*
X52700465Y-62403323D01*
X52711898Y-62365636D01*
X52730466Y-62330897D01*
X52755452Y-62300452D01*
X52785897Y-62275466D01*
X52820636Y-62256898D01*
X52858323Y-62245465D01*
X52903661Y-62241000D01*
X53740339Y-62241000D01*
X53785677Y-62245465D01*
X53785677Y-62245465D01*
G37*
G36*
X88375442Y-59430518D02*
X88441627Y-59437037D01*
X88554853Y-59471384D01*
X88611467Y-59488557D01*
X88750087Y-59562652D01*
X88767991Y-59572222D01*
X88803729Y-59601552D01*
X88905186Y-59684814D01*
X88988448Y-59786271D01*
X89017778Y-59822009D01*
X89017779Y-59822011D01*
X89101443Y-59978533D01*
X89101443Y-59978534D01*
X89152963Y-60148373D01*
X89170359Y-60325000D01*
X89152963Y-60501627D01*
X89118616Y-60614853D01*
X89101443Y-60671467D01*
X89027348Y-60810087D01*
X89017778Y-60827991D01*
X88988448Y-60863729D01*
X88905186Y-60965186D01*
X88803729Y-61048448D01*
X88767991Y-61077778D01*
X88767989Y-61077779D01*
X88611467Y-61161443D01*
X88554853Y-61178616D01*
X88441627Y-61212963D01*
X88375442Y-61219482D01*
X88309260Y-61226000D01*
X88220740Y-61226000D01*
X88154558Y-61219482D01*
X88088373Y-61212963D01*
X87975147Y-61178616D01*
X87918533Y-61161443D01*
X87762011Y-61077779D01*
X87762009Y-61077778D01*
X87726271Y-61048448D01*
X87624814Y-60965186D01*
X87541552Y-60863729D01*
X87512222Y-60827991D01*
X87502652Y-60810087D01*
X87428557Y-60671467D01*
X87411384Y-60614853D01*
X87377037Y-60501627D01*
X87359641Y-60325000D01*
X87377037Y-60148373D01*
X87428557Y-59978534D01*
X87428557Y-59978533D01*
X87512221Y-59822011D01*
X87512222Y-59822009D01*
X87541552Y-59786271D01*
X87624814Y-59684814D01*
X87726271Y-59601552D01*
X87762009Y-59572222D01*
X87779913Y-59562652D01*
X87918533Y-59488557D01*
X87975147Y-59471384D01*
X88088373Y-59437037D01*
X88154558Y-59430518D01*
X88220740Y-59424000D01*
X88309260Y-59424000D01*
X88375442Y-59430518D01*
X88375442Y-59430518D01*
G37*
G36*
X83295442Y-59430518D02*
X83361627Y-59437037D01*
X83474853Y-59471384D01*
X83531467Y-59488557D01*
X83670087Y-59562652D01*
X83687991Y-59572222D01*
X83723729Y-59601552D01*
X83825186Y-59684814D01*
X83908448Y-59786271D01*
X83937778Y-59822009D01*
X83937779Y-59822011D01*
X84021443Y-59978533D01*
X84021443Y-59978534D01*
X84072963Y-60148373D01*
X84090359Y-60325000D01*
X84072963Y-60501627D01*
X84038616Y-60614853D01*
X84021443Y-60671467D01*
X83947348Y-60810087D01*
X83937778Y-60827991D01*
X83908448Y-60863729D01*
X83825186Y-60965186D01*
X83723729Y-61048448D01*
X83687991Y-61077778D01*
X83687989Y-61077779D01*
X83531467Y-61161443D01*
X83474853Y-61178616D01*
X83361627Y-61212963D01*
X83295442Y-61219482D01*
X83229260Y-61226000D01*
X83140740Y-61226000D01*
X83074558Y-61219482D01*
X83008373Y-61212963D01*
X82895147Y-61178616D01*
X82838533Y-61161443D01*
X82682011Y-61077779D01*
X82682009Y-61077778D01*
X82646271Y-61048448D01*
X82544814Y-60965186D01*
X82461552Y-60863729D01*
X82432222Y-60827991D01*
X82422652Y-60810087D01*
X82348557Y-60671467D01*
X82331384Y-60614853D01*
X82297037Y-60501627D01*
X82279641Y-60325000D01*
X82297037Y-60148373D01*
X82348557Y-59978534D01*
X82348557Y-59978533D01*
X82432221Y-59822011D01*
X82432222Y-59822009D01*
X82461552Y-59786271D01*
X82544814Y-59684814D01*
X82646271Y-59601552D01*
X82682009Y-59572222D01*
X82699913Y-59562652D01*
X82838533Y-59488557D01*
X82895147Y-59471384D01*
X83008373Y-59437037D01*
X83074558Y-59430518D01*
X83140740Y-59424000D01*
X83229260Y-59424000D01*
X83295442Y-59430518D01*
X83295442Y-59430518D01*
G37*
G36*
X85835442Y-59430518D02*
X85901627Y-59437037D01*
X86014853Y-59471384D01*
X86071467Y-59488557D01*
X86210087Y-59562652D01*
X86227991Y-59572222D01*
X86263729Y-59601552D01*
X86365186Y-59684814D01*
X86448448Y-59786271D01*
X86477778Y-59822009D01*
X86477779Y-59822011D01*
X86561443Y-59978533D01*
X86561443Y-59978534D01*
X86612963Y-60148373D01*
X86630359Y-60325000D01*
X86612963Y-60501627D01*
X86578616Y-60614853D01*
X86561443Y-60671467D01*
X86487348Y-60810087D01*
X86477778Y-60827991D01*
X86448448Y-60863729D01*
X86365186Y-60965186D01*
X86263729Y-61048448D01*
X86227991Y-61077778D01*
X86227989Y-61077779D01*
X86071467Y-61161443D01*
X86014853Y-61178616D01*
X85901627Y-61212963D01*
X85835442Y-61219482D01*
X85769260Y-61226000D01*
X85680740Y-61226000D01*
X85614558Y-61219482D01*
X85548373Y-61212963D01*
X85435147Y-61178616D01*
X85378533Y-61161443D01*
X85222011Y-61077779D01*
X85222009Y-61077778D01*
X85186271Y-61048448D01*
X85084814Y-60965186D01*
X85001552Y-60863729D01*
X84972222Y-60827991D01*
X84962652Y-60810087D01*
X84888557Y-60671467D01*
X84871384Y-60614853D01*
X84837037Y-60501627D01*
X84819641Y-60325000D01*
X84837037Y-60148373D01*
X84888557Y-59978534D01*
X84888557Y-59978533D01*
X84972221Y-59822011D01*
X84972222Y-59822009D01*
X85001552Y-59786271D01*
X85084814Y-59684814D01*
X85186271Y-59601552D01*
X85222009Y-59572222D01*
X85239913Y-59562652D01*
X85378533Y-59488557D01*
X85435147Y-59471384D01*
X85548373Y-59437037D01*
X85614558Y-59430518D01*
X85680740Y-59424000D01*
X85769260Y-59424000D01*
X85835442Y-59430518D01*
X85835442Y-59430518D01*
G37*
G36*
X91706000Y-61226000D02*
X89904000Y-61226000D01*
X89904000Y-59424000D01*
X91706000Y-59424000D01*
X91706000Y-61226000D01*
X91706000Y-61226000D01*
G37*
G36*
X33130443Y-57525519D02*
X33196627Y-57532037D01*
X33309853Y-57566384D01*
X33366467Y-57583557D01*
X33505087Y-57657652D01*
X33522991Y-57667222D01*
X33558729Y-57696552D01*
X33660186Y-57779814D01*
X33743448Y-57881271D01*
X33772778Y-57917009D01*
X33772779Y-57917011D01*
X33856443Y-58073533D01*
X33856443Y-58073534D01*
X33907963Y-58243373D01*
X33925359Y-58420000D01*
X33907963Y-58596627D01*
X33873616Y-58709853D01*
X33856443Y-58766467D01*
X33782348Y-58905087D01*
X33772778Y-58922991D01*
X33743448Y-58958729D01*
X33660186Y-59060186D01*
X33558729Y-59143448D01*
X33522991Y-59172778D01*
X33522989Y-59172779D01*
X33366467Y-59256443D01*
X33309853Y-59273616D01*
X33196627Y-59307963D01*
X33130442Y-59314482D01*
X33064260Y-59321000D01*
X32975740Y-59321000D01*
X32909558Y-59314482D01*
X32843373Y-59307963D01*
X32730147Y-59273616D01*
X32673533Y-59256443D01*
X32517011Y-59172779D01*
X32517009Y-59172778D01*
X32481271Y-59143448D01*
X32379814Y-59060186D01*
X32296552Y-58958729D01*
X32267222Y-58922991D01*
X32257652Y-58905087D01*
X32183557Y-58766467D01*
X32166384Y-58709853D01*
X32132037Y-58596627D01*
X32114641Y-58420000D01*
X32132037Y-58243373D01*
X32183557Y-58073534D01*
X32183557Y-58073533D01*
X32267221Y-57917011D01*
X32267222Y-57917009D01*
X32296552Y-57881271D01*
X32379814Y-57779814D01*
X32481271Y-57696552D01*
X32517009Y-57667222D01*
X32534913Y-57657652D01*
X32673533Y-57583557D01*
X32730147Y-57566384D01*
X32843373Y-57532037D01*
X32909557Y-57525519D01*
X32975740Y-57519000D01*
X33064260Y-57519000D01*
X33130443Y-57525519D01*
X33130443Y-57525519D01*
G37*
G36*
X35670443Y-57525519D02*
X35736627Y-57532037D01*
X35849853Y-57566384D01*
X35906467Y-57583557D01*
X36045087Y-57657652D01*
X36062991Y-57667222D01*
X36098729Y-57696552D01*
X36200186Y-57779814D01*
X36283448Y-57881271D01*
X36312778Y-57917009D01*
X36312779Y-57917011D01*
X36396443Y-58073533D01*
X36396443Y-58073534D01*
X36447963Y-58243373D01*
X36465359Y-58420000D01*
X36447963Y-58596627D01*
X36413616Y-58709853D01*
X36396443Y-58766467D01*
X36322348Y-58905087D01*
X36312778Y-58922991D01*
X36283448Y-58958729D01*
X36200186Y-59060186D01*
X36098729Y-59143448D01*
X36062991Y-59172778D01*
X36062989Y-59172779D01*
X35906467Y-59256443D01*
X35849853Y-59273616D01*
X35736627Y-59307963D01*
X35670442Y-59314482D01*
X35604260Y-59321000D01*
X35515740Y-59321000D01*
X35449558Y-59314482D01*
X35383373Y-59307963D01*
X35270147Y-59273616D01*
X35213533Y-59256443D01*
X35057011Y-59172779D01*
X35057009Y-59172778D01*
X35021271Y-59143448D01*
X34919814Y-59060186D01*
X34836552Y-58958729D01*
X34807222Y-58922991D01*
X34797652Y-58905087D01*
X34723557Y-58766467D01*
X34706384Y-58709853D01*
X34672037Y-58596627D01*
X34654641Y-58420000D01*
X34672037Y-58243373D01*
X34723557Y-58073534D01*
X34723557Y-58073533D01*
X34807221Y-57917011D01*
X34807222Y-57917009D01*
X34836552Y-57881271D01*
X34919814Y-57779814D01*
X35021271Y-57696552D01*
X35057009Y-57667222D01*
X35074913Y-57657652D01*
X35213533Y-57583557D01*
X35270147Y-57566384D01*
X35383373Y-57532037D01*
X35449557Y-57525519D01*
X35515740Y-57519000D01*
X35604260Y-57519000D01*
X35670443Y-57525519D01*
X35670443Y-57525519D01*
G37*
G36*
X31381000Y-59321000D02*
X29579000Y-59321000D01*
X29579000Y-57519000D01*
X31381000Y-57519000D01*
X31381000Y-59321000D01*
X31381000Y-59321000D01*
G37*
G36*
X38210443Y-57525519D02*
X38276627Y-57532037D01*
X38389853Y-57566384D01*
X38446467Y-57583557D01*
X38585087Y-57657652D01*
X38602991Y-57667222D01*
X38638729Y-57696552D01*
X38740186Y-57779814D01*
X38823448Y-57881271D01*
X38852778Y-57917009D01*
X38852779Y-57917011D01*
X38936443Y-58073533D01*
X38936443Y-58073534D01*
X38987963Y-58243373D01*
X39005359Y-58420000D01*
X38987963Y-58596627D01*
X38953616Y-58709853D01*
X38936443Y-58766467D01*
X38862348Y-58905087D01*
X38852778Y-58922991D01*
X38823448Y-58958729D01*
X38740186Y-59060186D01*
X38638729Y-59143448D01*
X38602991Y-59172778D01*
X38602989Y-59172779D01*
X38446467Y-59256443D01*
X38389853Y-59273616D01*
X38276627Y-59307963D01*
X38210442Y-59314482D01*
X38144260Y-59321000D01*
X38055740Y-59321000D01*
X37989558Y-59314482D01*
X37923373Y-59307963D01*
X37810147Y-59273616D01*
X37753533Y-59256443D01*
X37597011Y-59172779D01*
X37597009Y-59172778D01*
X37561271Y-59143448D01*
X37459814Y-59060186D01*
X37376552Y-58958729D01*
X37347222Y-58922991D01*
X37337652Y-58905087D01*
X37263557Y-58766467D01*
X37246384Y-58709853D01*
X37212037Y-58596627D01*
X37194641Y-58420000D01*
X37212037Y-58243373D01*
X37263557Y-58073534D01*
X37263557Y-58073533D01*
X37347221Y-57917011D01*
X37347222Y-57917009D01*
X37376552Y-57881271D01*
X37459814Y-57779814D01*
X37561271Y-57696552D01*
X37597009Y-57667222D01*
X37614913Y-57657652D01*
X37753533Y-57583557D01*
X37810147Y-57566384D01*
X37923373Y-57532037D01*
X37989557Y-57525519D01*
X38055740Y-57519000D01*
X38144260Y-57519000D01*
X38210443Y-57525519D01*
X38210443Y-57525519D01*
G37*
G36*
X40750443Y-57525519D02*
X40816627Y-57532037D01*
X40929853Y-57566384D01*
X40986467Y-57583557D01*
X41125087Y-57657652D01*
X41142991Y-57667222D01*
X41178729Y-57696552D01*
X41280186Y-57779814D01*
X41363448Y-57881271D01*
X41392778Y-57917009D01*
X41392779Y-57917011D01*
X41476443Y-58073533D01*
X41476443Y-58073534D01*
X41527963Y-58243373D01*
X41545359Y-58420000D01*
X41527963Y-58596627D01*
X41493616Y-58709853D01*
X41476443Y-58766467D01*
X41402348Y-58905087D01*
X41392778Y-58922991D01*
X41363448Y-58958729D01*
X41280186Y-59060186D01*
X41178729Y-59143448D01*
X41142991Y-59172778D01*
X41142989Y-59172779D01*
X40986467Y-59256443D01*
X40929853Y-59273616D01*
X40816627Y-59307963D01*
X40750442Y-59314482D01*
X40684260Y-59321000D01*
X40595740Y-59321000D01*
X40529558Y-59314482D01*
X40463373Y-59307963D01*
X40350147Y-59273616D01*
X40293533Y-59256443D01*
X40137011Y-59172779D01*
X40137009Y-59172778D01*
X40101271Y-59143448D01*
X39999814Y-59060186D01*
X39916552Y-58958729D01*
X39887222Y-58922991D01*
X39877652Y-58905087D01*
X39803557Y-58766467D01*
X39786384Y-58709853D01*
X39752037Y-58596627D01*
X39734641Y-58420000D01*
X39752037Y-58243373D01*
X39803557Y-58073534D01*
X39803557Y-58073533D01*
X39887221Y-57917011D01*
X39887222Y-57917009D01*
X39916552Y-57881271D01*
X39999814Y-57779814D01*
X40101271Y-57696552D01*
X40137009Y-57667222D01*
X40154913Y-57657652D01*
X40293533Y-57583557D01*
X40350147Y-57566384D01*
X40463373Y-57532037D01*
X40529557Y-57525519D01*
X40595740Y-57519000D01*
X40684260Y-57519000D01*
X40750443Y-57525519D01*
X40750443Y-57525519D01*
G37*
G36*
X43290443Y-57525519D02*
X43356627Y-57532037D01*
X43469853Y-57566384D01*
X43526467Y-57583557D01*
X43665087Y-57657652D01*
X43682991Y-57667222D01*
X43718729Y-57696552D01*
X43820186Y-57779814D01*
X43903448Y-57881271D01*
X43932778Y-57917009D01*
X43932779Y-57917011D01*
X44016443Y-58073533D01*
X44016443Y-58073534D01*
X44067963Y-58243373D01*
X44085359Y-58420000D01*
X44067963Y-58596627D01*
X44033616Y-58709853D01*
X44016443Y-58766467D01*
X43942348Y-58905087D01*
X43932778Y-58922991D01*
X43903448Y-58958729D01*
X43820186Y-59060186D01*
X43718729Y-59143448D01*
X43682991Y-59172778D01*
X43682989Y-59172779D01*
X43526467Y-59256443D01*
X43469853Y-59273616D01*
X43356627Y-59307963D01*
X43290442Y-59314482D01*
X43224260Y-59321000D01*
X43135740Y-59321000D01*
X43069558Y-59314482D01*
X43003373Y-59307963D01*
X42890147Y-59273616D01*
X42833533Y-59256443D01*
X42677011Y-59172779D01*
X42677009Y-59172778D01*
X42641271Y-59143448D01*
X42539814Y-59060186D01*
X42456552Y-58958729D01*
X42427222Y-58922991D01*
X42417652Y-58905087D01*
X42343557Y-58766467D01*
X42326384Y-58709853D01*
X42292037Y-58596627D01*
X42274641Y-58420000D01*
X42292037Y-58243373D01*
X42343557Y-58073534D01*
X42343557Y-58073533D01*
X42427221Y-57917011D01*
X42427222Y-57917009D01*
X42456552Y-57881271D01*
X42539814Y-57779814D01*
X42641271Y-57696552D01*
X42677009Y-57667222D01*
X42694913Y-57657652D01*
X42833533Y-57583557D01*
X42890147Y-57566384D01*
X43003373Y-57532037D01*
X43069557Y-57525519D01*
X43135740Y-57519000D01*
X43224260Y-57519000D01*
X43290443Y-57525519D01*
X43290443Y-57525519D01*
G37*
G36*
X69676677Y-39274465D02*
X69714364Y-39285898D01*
X69749103Y-39304466D01*
X69779548Y-39329452D01*
X69804534Y-39359897D01*
X69823102Y-39394636D01*
X69834535Y-39432323D01*
X69839000Y-39477661D01*
X69839000Y-40314339D01*
X69834535Y-40359677D01*
X69823102Y-40397364D01*
X69804534Y-40432103D01*
X69779548Y-40462548D01*
X69749103Y-40487534D01*
X69714364Y-40506102D01*
X69676677Y-40517535D01*
X69631339Y-40522000D01*
X68544661Y-40522000D01*
X68499323Y-40517535D01*
X68461636Y-40506102D01*
X68426897Y-40487534D01*
X68396452Y-40462548D01*
X68371466Y-40432103D01*
X68352898Y-40397364D01*
X68341465Y-40359677D01*
X68337000Y-40314339D01*
X68337000Y-39477661D01*
X68341465Y-39432323D01*
X68352898Y-39394636D01*
X68371466Y-39359897D01*
X68396452Y-39329452D01*
X68426897Y-39304466D01*
X68461636Y-39285898D01*
X68499323Y-39274465D01*
X68544661Y-39270000D01*
X69631339Y-39270000D01*
X69676677Y-39274465D01*
X69676677Y-39274465D01*
G37*
G36*
X73740677Y-39265465D02*
X73778364Y-39276898D01*
X73813103Y-39295466D01*
X73843548Y-39320452D01*
X73868534Y-39350897D01*
X73887102Y-39385636D01*
X73898535Y-39423323D01*
X73903000Y-39468661D01*
X73903000Y-40305339D01*
X73898535Y-40350677D01*
X73887102Y-40388364D01*
X73868534Y-40423103D01*
X73843548Y-40453548D01*
X73813103Y-40478534D01*
X73778364Y-40497102D01*
X73740677Y-40508535D01*
X73695339Y-40513000D01*
X72608661Y-40513000D01*
X72563323Y-40508535D01*
X72525636Y-40497102D01*
X72490897Y-40478534D01*
X72460452Y-40453548D01*
X72435466Y-40423103D01*
X72416898Y-40388364D01*
X72405465Y-40350677D01*
X72401000Y-40305339D01*
X72401000Y-39468661D01*
X72405465Y-39423323D01*
X72416898Y-39385636D01*
X72435466Y-39350897D01*
X72460452Y-39320452D01*
X72490897Y-39295466D01*
X72525636Y-39276898D01*
X72563323Y-39265465D01*
X72608661Y-39261000D01*
X73695339Y-39261000D01*
X73740677Y-39265465D01*
X73740677Y-39265465D01*
G37*
G36*
X79866442Y-37967518D02*
X79932627Y-37974037D01*
X80045853Y-38008384D01*
X80102467Y-38025557D01*
X80241087Y-38099652D01*
X80258991Y-38109222D01*
X80294729Y-38138552D01*
X80396186Y-38221814D01*
X80456233Y-38294983D01*
X80508778Y-38359009D01*
X80508779Y-38359011D01*
X80592443Y-38515533D01*
X80592443Y-38515534D01*
X80643963Y-38685373D01*
X80661359Y-38862000D01*
X80643963Y-39038627D01*
X80609616Y-39151853D01*
X80592443Y-39208467D01*
X80532585Y-39320452D01*
X80508778Y-39364991D01*
X80494850Y-39381962D01*
X80396186Y-39502186D01*
X80294729Y-39585448D01*
X80258991Y-39614778D01*
X80258989Y-39614779D01*
X80102467Y-39698443D01*
X80045853Y-39715616D01*
X79932627Y-39749963D01*
X79866442Y-39756482D01*
X79800260Y-39763000D01*
X79711740Y-39763000D01*
X79645558Y-39756482D01*
X79579373Y-39749963D01*
X79466147Y-39715616D01*
X79409533Y-39698443D01*
X79253011Y-39614779D01*
X79253009Y-39614778D01*
X79217271Y-39585448D01*
X79115814Y-39502186D01*
X79017150Y-39381962D01*
X79003222Y-39364991D01*
X78979415Y-39320452D01*
X78919557Y-39208467D01*
X78902384Y-39151853D01*
X78868037Y-39038627D01*
X78850641Y-38862000D01*
X78868037Y-38685373D01*
X78919557Y-38515534D01*
X78919557Y-38515533D01*
X79003221Y-38359011D01*
X79003222Y-38359009D01*
X79055767Y-38294983D01*
X79115814Y-38221814D01*
X79217271Y-38138552D01*
X79253009Y-38109222D01*
X79270913Y-38099652D01*
X79409533Y-38025557D01*
X79466147Y-38008384D01*
X79579373Y-37974037D01*
X79645558Y-37967518D01*
X79711740Y-37961000D01*
X79800260Y-37961000D01*
X79866442Y-37967518D01*
X79866442Y-37967518D01*
G37*
G36*
X83197000Y-39763000D02*
X81395000Y-39763000D01*
X81395000Y-37961000D01*
X83197000Y-37961000D01*
X83197000Y-39763000D01*
X83197000Y-39763000D01*
G37*
G36*
X69676677Y-37224465D02*
X69714364Y-37235898D01*
X69749103Y-37254466D01*
X69779548Y-37279452D01*
X69804534Y-37309897D01*
X69823102Y-37344636D01*
X69834535Y-37382323D01*
X69839000Y-37427661D01*
X69839000Y-38264339D01*
X69834535Y-38309677D01*
X69823102Y-38347364D01*
X69804534Y-38382103D01*
X69779548Y-38412548D01*
X69749103Y-38437534D01*
X69714364Y-38456102D01*
X69676677Y-38467535D01*
X69631339Y-38472000D01*
X68544661Y-38472000D01*
X68499323Y-38467535D01*
X68461636Y-38456102D01*
X68426897Y-38437534D01*
X68396452Y-38412548D01*
X68371466Y-38382103D01*
X68352898Y-38347364D01*
X68341465Y-38309677D01*
X68337000Y-38264339D01*
X68337000Y-37427661D01*
X68341465Y-37382323D01*
X68352898Y-37344636D01*
X68371466Y-37309897D01*
X68396452Y-37279452D01*
X68426897Y-37254466D01*
X68461636Y-37235898D01*
X68499323Y-37224465D01*
X68544661Y-37220000D01*
X69631339Y-37220000D01*
X69676677Y-37224465D01*
X69676677Y-37224465D01*
G37*
G36*
X73740677Y-37215465D02*
X73778364Y-37226898D01*
X73813103Y-37245466D01*
X73843548Y-37270452D01*
X73868534Y-37300897D01*
X73887102Y-37335636D01*
X73898535Y-37373323D01*
X73903000Y-37418661D01*
X73903000Y-38255339D01*
X73898535Y-38300677D01*
X73887102Y-38338364D01*
X73868534Y-38373103D01*
X73843548Y-38403548D01*
X73813103Y-38428534D01*
X73778364Y-38447102D01*
X73740677Y-38458535D01*
X73695339Y-38463000D01*
X72608661Y-38463000D01*
X72563323Y-38458535D01*
X72525636Y-38447102D01*
X72490897Y-38428534D01*
X72460452Y-38403548D01*
X72435466Y-38373103D01*
X72416898Y-38338364D01*
X72405465Y-38300677D01*
X72401000Y-38255339D01*
X72401000Y-37418661D01*
X72405465Y-37373323D01*
X72416898Y-37335636D01*
X72435466Y-37300897D01*
X72460452Y-37270452D01*
X72490897Y-37245466D01*
X72525636Y-37226898D01*
X72563323Y-37215465D01*
X72608661Y-37211000D01*
X73695339Y-37211000D01*
X73740677Y-37215465D01*
X73740677Y-37215465D01*
G37*
G36*
X82406443Y-35427519D02*
X82472627Y-35434037D01*
X82585853Y-35468384D01*
X82642467Y-35485557D01*
X82781087Y-35559652D01*
X82798991Y-35569222D01*
X82813641Y-35581245D01*
X82936186Y-35681814D01*
X83019448Y-35783271D01*
X83048778Y-35819009D01*
X83048779Y-35819011D01*
X83132443Y-35975533D01*
X83132443Y-35975534D01*
X83183963Y-36145373D01*
X83201359Y-36322000D01*
X83183963Y-36498627D01*
X83149616Y-36611853D01*
X83132443Y-36668467D01*
X83058348Y-36807087D01*
X83048778Y-36824991D01*
X83019448Y-36860729D01*
X82936186Y-36962186D01*
X82834729Y-37045448D01*
X82798991Y-37074778D01*
X82798989Y-37074779D01*
X82642467Y-37158443D01*
X82585853Y-37175616D01*
X82472627Y-37209963D01*
X82416763Y-37215465D01*
X82340260Y-37223000D01*
X82251740Y-37223000D01*
X82175237Y-37215465D01*
X82119373Y-37209963D01*
X82006147Y-37175616D01*
X81949533Y-37158443D01*
X81793011Y-37074779D01*
X81793009Y-37074778D01*
X81757271Y-37045448D01*
X81655814Y-36962186D01*
X81572552Y-36860729D01*
X81543222Y-36824991D01*
X81533652Y-36807087D01*
X81459557Y-36668467D01*
X81442384Y-36611853D01*
X81408037Y-36498627D01*
X81390641Y-36322000D01*
X81408037Y-36145373D01*
X81459557Y-35975534D01*
X81459557Y-35975533D01*
X81543221Y-35819011D01*
X81543222Y-35819009D01*
X81572552Y-35783271D01*
X81655814Y-35681814D01*
X81778359Y-35581245D01*
X81793009Y-35569222D01*
X81810913Y-35559652D01*
X81949533Y-35485557D01*
X82006147Y-35468384D01*
X82119373Y-35434037D01*
X82185557Y-35427519D01*
X82251740Y-35421000D01*
X82340260Y-35421000D01*
X82406443Y-35427519D01*
X82406443Y-35427519D01*
G37*
G36*
X79866443Y-35427519D02*
X79932627Y-35434037D01*
X80045853Y-35468384D01*
X80102467Y-35485557D01*
X80241087Y-35559652D01*
X80258991Y-35569222D01*
X80273641Y-35581245D01*
X80396186Y-35681814D01*
X80479448Y-35783271D01*
X80508778Y-35819009D01*
X80508779Y-35819011D01*
X80592443Y-35975533D01*
X80592443Y-35975534D01*
X80643963Y-36145373D01*
X80661359Y-36322000D01*
X80643963Y-36498627D01*
X80609616Y-36611853D01*
X80592443Y-36668467D01*
X80518348Y-36807087D01*
X80508778Y-36824991D01*
X80479448Y-36860729D01*
X80396186Y-36962186D01*
X80294729Y-37045448D01*
X80258991Y-37074778D01*
X80258989Y-37074779D01*
X80102467Y-37158443D01*
X80045853Y-37175616D01*
X79932627Y-37209963D01*
X79876763Y-37215465D01*
X79800260Y-37223000D01*
X79711740Y-37223000D01*
X79635237Y-37215465D01*
X79579373Y-37209963D01*
X79466147Y-37175616D01*
X79409533Y-37158443D01*
X79253011Y-37074779D01*
X79253009Y-37074778D01*
X79217271Y-37045448D01*
X79115814Y-36962186D01*
X79032552Y-36860729D01*
X79003222Y-36824991D01*
X78993652Y-36807087D01*
X78919557Y-36668467D01*
X78902384Y-36611853D01*
X78868037Y-36498627D01*
X78850641Y-36322000D01*
X78868037Y-36145373D01*
X78919557Y-35975534D01*
X78919557Y-35975533D01*
X79003221Y-35819011D01*
X79003222Y-35819009D01*
X79032552Y-35783271D01*
X79115814Y-35681814D01*
X79238359Y-35581245D01*
X79253009Y-35569222D01*
X79270913Y-35559652D01*
X79409533Y-35485557D01*
X79466147Y-35468384D01*
X79579373Y-35434037D01*
X79645557Y-35427519D01*
X79711740Y-35421000D01*
X79800260Y-35421000D01*
X79866443Y-35427519D01*
X79866443Y-35427519D01*
G37*
G36*
X66728548Y-34168326D02*
X66844287Y-34203435D01*
X66902158Y-34220990D01*
X66925315Y-34233368D01*
X67062156Y-34306511D01*
X67202396Y-34421604D01*
X67317489Y-34561844D01*
X67403010Y-34721843D01*
X67455674Y-34895452D01*
X67469000Y-35030757D01*
X67469000Y-35581244D01*
X67455674Y-35716548D01*
X67424593Y-35819009D01*
X67403010Y-35890158D01*
X67357376Y-35975533D01*
X67317489Y-36050156D01*
X67202396Y-36190396D01*
X67062155Y-36305489D01*
X66960514Y-36359817D01*
X66902157Y-36391010D01*
X66855550Y-36405148D01*
X66728547Y-36443674D01*
X66548000Y-36461456D01*
X66367452Y-36443674D01*
X66240449Y-36405148D01*
X66193842Y-36391010D01*
X66097250Y-36339380D01*
X66033844Y-36305489D01*
X65893604Y-36190396D01*
X65778511Y-36050155D01*
X65692991Y-35890158D01*
X65692990Y-35890157D01*
X65671408Y-35819009D01*
X65640326Y-35716547D01*
X65627000Y-35581243D01*
X65627000Y-35030756D01*
X65640326Y-34895452D01*
X65692990Y-34721843D01*
X65692990Y-34721842D01*
X65778513Y-34561843D01*
X65893605Y-34421604D01*
X66033844Y-34306512D01*
X66033843Y-34306512D01*
X66033845Y-34306511D01*
X66170686Y-34233368D01*
X66193843Y-34220990D01*
X66251714Y-34203435D01*
X66367453Y-34168326D01*
X66548000Y-34150544D01*
X66728548Y-34168326D01*
X66728548Y-34168326D01*
G37*
G36*
X73332548Y-34168326D02*
X73448287Y-34203435D01*
X73506158Y-34220990D01*
X73529315Y-34233368D01*
X73666156Y-34306511D01*
X73806396Y-34421604D01*
X73921489Y-34561844D01*
X74007010Y-34721843D01*
X74059674Y-34895452D01*
X74073000Y-35030757D01*
X74073000Y-35581244D01*
X74059674Y-35716548D01*
X74028593Y-35819009D01*
X74007010Y-35890158D01*
X73961376Y-35975533D01*
X73921489Y-36050156D01*
X73806396Y-36190396D01*
X73666155Y-36305489D01*
X73564514Y-36359817D01*
X73506157Y-36391010D01*
X73459550Y-36405148D01*
X73332547Y-36443674D01*
X73152000Y-36461456D01*
X72971452Y-36443674D01*
X72844449Y-36405148D01*
X72797842Y-36391010D01*
X72701250Y-36339380D01*
X72637844Y-36305489D01*
X72497604Y-36190396D01*
X72382511Y-36050155D01*
X72296991Y-35890158D01*
X72296990Y-35890157D01*
X72275408Y-35819009D01*
X72244326Y-35716547D01*
X72231000Y-35581243D01*
X72231000Y-35030756D01*
X72244326Y-34895452D01*
X72296990Y-34721843D01*
X72296990Y-34721842D01*
X72382513Y-34561843D01*
X72497605Y-34421604D01*
X72637844Y-34306512D01*
X72637843Y-34306512D01*
X72637845Y-34306511D01*
X72774686Y-34233368D01*
X72797843Y-34220990D01*
X72855714Y-34203435D01*
X72971453Y-34168326D01*
X73152000Y-34150544D01*
X73332548Y-34168326D01*
X73332548Y-34168326D01*
G37*
G36*
X76471560Y-34158966D02*
X76504383Y-34168923D01*
X76534632Y-34185092D01*
X76561148Y-34206852D01*
X76582908Y-34233368D01*
X76599077Y-34263617D01*
X76609034Y-34296440D01*
X76613000Y-34336712D01*
X76613000Y-36275288D01*
X76609034Y-36315560D01*
X76599077Y-36348383D01*
X76582908Y-36378632D01*
X76561148Y-36405148D01*
X76534632Y-36426908D01*
X76504383Y-36443077D01*
X76471560Y-36453034D01*
X76431288Y-36457000D01*
X74952712Y-36457000D01*
X74912440Y-36453034D01*
X74879617Y-36443077D01*
X74849368Y-36426908D01*
X74822852Y-36405148D01*
X74801092Y-36378632D01*
X74784923Y-36348383D01*
X74774966Y-36315560D01*
X74771000Y-36275288D01*
X74771000Y-34336712D01*
X74774966Y-34296440D01*
X74784923Y-34263617D01*
X74801092Y-34233368D01*
X74822852Y-34206852D01*
X74849368Y-34185092D01*
X74879617Y-34168923D01*
X74912440Y-34158966D01*
X74952712Y-34155000D01*
X76431288Y-34155000D01*
X76471560Y-34158966D01*
X76471560Y-34158966D01*
G37*
G36*
X69867560Y-34158966D02*
X69900383Y-34168923D01*
X69930632Y-34185092D01*
X69957148Y-34206852D01*
X69978908Y-34233368D01*
X69995077Y-34263617D01*
X70005034Y-34296440D01*
X70009000Y-34336712D01*
X70009000Y-36275288D01*
X70005034Y-36315560D01*
X69995077Y-36348383D01*
X69978908Y-36378632D01*
X69957148Y-36405148D01*
X69930632Y-36426908D01*
X69900383Y-36443077D01*
X69867560Y-36453034D01*
X69827288Y-36457000D01*
X68348712Y-36457000D01*
X68308440Y-36453034D01*
X68275617Y-36443077D01*
X68245368Y-36426908D01*
X68218852Y-36405148D01*
X68197092Y-36378632D01*
X68180923Y-36348383D01*
X68170966Y-36315560D01*
X68167000Y-36275288D01*
X68167000Y-34336712D01*
X68170966Y-34296440D01*
X68180923Y-34263617D01*
X68197092Y-34233368D01*
X68218852Y-34206852D01*
X68245368Y-34185092D01*
X68275617Y-34168923D01*
X68308440Y-34158966D01*
X68348712Y-34155000D01*
X69827288Y-34155000D01*
X69867560Y-34158966D01*
X69867560Y-34158966D01*
G37*
G36*
X82406442Y-32887518D02*
X82472627Y-32894037D01*
X82585853Y-32928384D01*
X82642467Y-32945557D01*
X82781087Y-33019652D01*
X82798991Y-33029222D01*
X82834729Y-33058552D01*
X82936186Y-33141814D01*
X83011005Y-33232983D01*
X83048778Y-33279009D01*
X83048779Y-33279011D01*
X83132443Y-33435533D01*
X83132443Y-33435534D01*
X83183963Y-33605373D01*
X83201359Y-33782000D01*
X83183963Y-33958627D01*
X83149616Y-34071853D01*
X83132443Y-34128467D01*
X83082988Y-34220990D01*
X83048778Y-34284991D01*
X83039382Y-34296440D01*
X82936186Y-34422186D01*
X82834729Y-34505448D01*
X82798991Y-34534778D01*
X82798989Y-34534779D01*
X82642467Y-34618443D01*
X82585853Y-34635616D01*
X82472627Y-34669963D01*
X82406442Y-34676482D01*
X82340260Y-34683000D01*
X82251740Y-34683000D01*
X82185558Y-34676482D01*
X82119373Y-34669963D01*
X82006147Y-34635616D01*
X81949533Y-34618443D01*
X81793011Y-34534779D01*
X81793009Y-34534778D01*
X81757271Y-34505448D01*
X81655814Y-34422186D01*
X81552618Y-34296440D01*
X81543222Y-34284991D01*
X81509012Y-34220990D01*
X81459557Y-34128467D01*
X81442384Y-34071853D01*
X81408037Y-33958627D01*
X81390641Y-33782000D01*
X81408037Y-33605373D01*
X81459557Y-33435534D01*
X81459557Y-33435533D01*
X81543221Y-33279011D01*
X81543222Y-33279009D01*
X81580995Y-33232983D01*
X81655814Y-33141814D01*
X81757271Y-33058552D01*
X81793009Y-33029222D01*
X81810913Y-33019652D01*
X81949533Y-32945557D01*
X82006147Y-32928384D01*
X82119373Y-32894037D01*
X82185558Y-32887518D01*
X82251740Y-32881000D01*
X82340260Y-32881000D01*
X82406442Y-32887518D01*
X82406442Y-32887518D01*
G37*
G36*
X79866442Y-32887518D02*
X79932627Y-32894037D01*
X80045853Y-32928384D01*
X80102467Y-32945557D01*
X80241087Y-33019652D01*
X80258991Y-33029222D01*
X80294729Y-33058552D01*
X80396186Y-33141814D01*
X80471005Y-33232983D01*
X80508778Y-33279009D01*
X80508779Y-33279011D01*
X80592443Y-33435533D01*
X80592443Y-33435534D01*
X80643963Y-33605373D01*
X80661359Y-33782000D01*
X80643963Y-33958627D01*
X80609616Y-34071853D01*
X80592443Y-34128467D01*
X80542988Y-34220990D01*
X80508778Y-34284991D01*
X80499382Y-34296440D01*
X80396186Y-34422186D01*
X80294729Y-34505448D01*
X80258991Y-34534778D01*
X80258989Y-34534779D01*
X80102467Y-34618443D01*
X80045853Y-34635616D01*
X79932627Y-34669963D01*
X79866442Y-34676482D01*
X79800260Y-34683000D01*
X79711740Y-34683000D01*
X79645558Y-34676482D01*
X79579373Y-34669963D01*
X79466147Y-34635616D01*
X79409533Y-34618443D01*
X79253011Y-34534779D01*
X79253009Y-34534778D01*
X79217271Y-34505448D01*
X79115814Y-34422186D01*
X79012618Y-34296440D01*
X79003222Y-34284991D01*
X78969012Y-34220990D01*
X78919557Y-34128467D01*
X78902384Y-34071853D01*
X78868037Y-33958627D01*
X78850641Y-33782000D01*
X78868037Y-33605373D01*
X78919557Y-33435534D01*
X78919557Y-33435533D01*
X79003221Y-33279011D01*
X79003222Y-33279009D01*
X79040995Y-33232983D01*
X79115814Y-33141814D01*
X79217271Y-33058552D01*
X79253009Y-33029222D01*
X79270913Y-33019652D01*
X79409533Y-32945557D01*
X79466147Y-32928384D01*
X79579373Y-32894037D01*
X79645558Y-32887518D01*
X79711740Y-32881000D01*
X79800260Y-32881000D01*
X79866442Y-32887518D01*
X79866442Y-32887518D01*
G37*
G36*
X76280677Y-32162465D02*
X76318364Y-32173898D01*
X76353103Y-32192466D01*
X76383548Y-32217452D01*
X76408534Y-32247897D01*
X76427102Y-32282636D01*
X76438535Y-32320323D01*
X76443000Y-32365661D01*
X76443000Y-33202339D01*
X76438535Y-33247677D01*
X76427102Y-33285364D01*
X76408534Y-33320103D01*
X76383548Y-33350548D01*
X76353103Y-33375534D01*
X76318364Y-33394102D01*
X76280677Y-33405535D01*
X76235339Y-33410000D01*
X75148661Y-33410000D01*
X75103323Y-33405535D01*
X75065636Y-33394102D01*
X75030897Y-33375534D01*
X75000452Y-33350548D01*
X74975466Y-33320103D01*
X74956898Y-33285364D01*
X74945465Y-33247677D01*
X74941000Y-33202339D01*
X74941000Y-32365661D01*
X74945465Y-32320323D01*
X74956898Y-32282636D01*
X74975466Y-32247897D01*
X75000452Y-32217452D01*
X75030897Y-32192466D01*
X75065636Y-32173898D01*
X75103323Y-32162465D01*
X75148661Y-32158000D01*
X76235339Y-32158000D01*
X76280677Y-32162465D01*
X76280677Y-32162465D01*
G37*
G36*
X69676677Y-32153465D02*
X69714364Y-32164898D01*
X69749103Y-32183466D01*
X69779548Y-32208452D01*
X69804534Y-32238897D01*
X69823102Y-32273636D01*
X69834535Y-32311323D01*
X69839000Y-32356661D01*
X69839000Y-33193339D01*
X69834535Y-33238677D01*
X69823102Y-33276364D01*
X69804534Y-33311103D01*
X69779548Y-33341548D01*
X69749103Y-33366534D01*
X69714364Y-33385102D01*
X69676677Y-33396535D01*
X69631339Y-33401000D01*
X68544661Y-33401000D01*
X68499323Y-33396535D01*
X68461636Y-33385102D01*
X68426897Y-33366534D01*
X68396452Y-33341548D01*
X68371466Y-33311103D01*
X68352898Y-33276364D01*
X68341465Y-33238677D01*
X68337000Y-33193339D01*
X68337000Y-32356661D01*
X68341465Y-32311323D01*
X68352898Y-32273636D01*
X68371466Y-32238897D01*
X68396452Y-32208452D01*
X68426897Y-32183466D01*
X68461636Y-32164898D01*
X68499323Y-32153465D01*
X68544661Y-32149000D01*
X69631339Y-32149000D01*
X69676677Y-32153465D01*
X69676677Y-32153465D01*
G37*
G36*
X85678677Y-31391465D02*
X85716364Y-31402898D01*
X85751103Y-31421466D01*
X85781548Y-31446452D01*
X85806534Y-31476897D01*
X85825102Y-31511636D01*
X85836535Y-31549323D01*
X85841000Y-31594661D01*
X85841000Y-32431339D01*
X85836535Y-32476677D01*
X85825102Y-32514364D01*
X85806534Y-32549103D01*
X85781548Y-32579548D01*
X85751103Y-32604534D01*
X85716364Y-32623102D01*
X85678677Y-32634535D01*
X85633339Y-32639000D01*
X84546661Y-32639000D01*
X84501323Y-32634535D01*
X84463636Y-32623102D01*
X84428897Y-32604534D01*
X84398452Y-32579548D01*
X84373466Y-32549103D01*
X84354898Y-32514364D01*
X84343465Y-32476677D01*
X84339000Y-32431339D01*
X84339000Y-31594661D01*
X84343465Y-31549323D01*
X84354898Y-31511636D01*
X84373466Y-31476897D01*
X84398452Y-31446452D01*
X84428897Y-31421466D01*
X84463636Y-31402898D01*
X84501323Y-31391465D01*
X84546661Y-31387000D01*
X85633339Y-31387000D01*
X85678677Y-31391465D01*
X85678677Y-31391465D01*
G37*
G36*
X76281148Y-30112454D02*
X76318732Y-30123855D01*
X76353362Y-30142366D01*
X76383720Y-30167280D01*
X76408634Y-30197638D01*
X76427145Y-30232268D01*
X76438546Y-30269852D01*
X76443000Y-30315075D01*
X76443000Y-31152925D01*
X76438546Y-31198148D01*
X76427145Y-31235732D01*
X76408634Y-31270362D01*
X76383720Y-31300720D01*
X76353362Y-31325634D01*
X76318732Y-31344145D01*
X76281148Y-31355546D01*
X76235925Y-31360000D01*
X75148075Y-31360000D01*
X75102852Y-31355546D01*
X75065268Y-31344145D01*
X75030638Y-31325634D01*
X75000280Y-31300720D01*
X74975366Y-31270362D01*
X74956855Y-31235732D01*
X74945454Y-31198148D01*
X74941000Y-31152925D01*
X74941000Y-30315075D01*
X74945454Y-30269852D01*
X74956855Y-30232268D01*
X74975366Y-30197638D01*
X75000280Y-30167280D01*
X75030638Y-30142366D01*
X75065268Y-30123855D01*
X75102852Y-30112454D01*
X75148075Y-30108000D01*
X76235925Y-30108000D01*
X76281148Y-30112454D01*
X76281148Y-30112454D01*
G37*
G36*
X69676677Y-30103465D02*
X69714364Y-30114898D01*
X69749103Y-30133466D01*
X69779548Y-30158452D01*
X69804534Y-30188897D01*
X69823102Y-30223636D01*
X69834535Y-30261323D01*
X69839000Y-30306661D01*
X69839000Y-31143339D01*
X69834535Y-31188677D01*
X69823102Y-31226364D01*
X69804534Y-31261103D01*
X69779548Y-31291548D01*
X69749103Y-31316534D01*
X69714364Y-31335102D01*
X69676677Y-31346535D01*
X69631339Y-31351000D01*
X68544661Y-31351000D01*
X68499323Y-31346535D01*
X68461636Y-31335102D01*
X68426897Y-31316534D01*
X68396452Y-31291548D01*
X68371466Y-31261103D01*
X68352898Y-31226364D01*
X68341465Y-31188677D01*
X68337000Y-31143339D01*
X68337000Y-30306661D01*
X68341465Y-30261323D01*
X68352898Y-30223636D01*
X68371466Y-30188897D01*
X68396452Y-30158452D01*
X68426897Y-30133466D01*
X68461636Y-30114898D01*
X68499323Y-30103465D01*
X68544661Y-30099000D01*
X69631339Y-30099000D01*
X69676677Y-30103465D01*
X69676677Y-30103465D01*
G37*
G36*
X85678677Y-29341465D02*
X85716364Y-29352898D01*
X85751103Y-29371466D01*
X85781548Y-29396452D01*
X85806534Y-29426897D01*
X85825102Y-29461636D01*
X85836535Y-29499323D01*
X85841000Y-29544661D01*
X85841000Y-30381339D01*
X85836535Y-30426677D01*
X85825102Y-30464364D01*
X85806534Y-30499103D01*
X85781548Y-30529548D01*
X85751103Y-30554534D01*
X85716364Y-30573102D01*
X85678677Y-30584535D01*
X85633339Y-30589000D01*
X84546661Y-30589000D01*
X84501323Y-30584535D01*
X84463636Y-30573102D01*
X84428897Y-30554534D01*
X84398452Y-30529548D01*
X84373466Y-30499103D01*
X84354898Y-30464364D01*
X84343465Y-30426677D01*
X84339000Y-30381339D01*
X84339000Y-29544661D01*
X84343465Y-29499323D01*
X84354898Y-29461636D01*
X84373466Y-29426897D01*
X84398452Y-29396452D01*
X84428897Y-29371466D01*
X84463636Y-29352898D01*
X84501323Y-29341465D01*
X84546661Y-29337000D01*
X85633339Y-29337000D01*
X85678677Y-29341465D01*
X85678677Y-29341465D01*
G37*
G36*
X82476547Y-27056326D02*
X82592286Y-27091435D01*
X82650157Y-27108990D01*
X82671718Y-27120515D01*
X82810155Y-27194511D01*
X82950396Y-27309604D01*
X83065489Y-27449844D01*
X83105298Y-27524321D01*
X83151010Y-27609842D01*
X83168565Y-27667713D01*
X83203674Y-27783452D01*
X83217000Y-27918756D01*
X83217000Y-28469243D01*
X83203674Y-28604548D01*
X83151010Y-28778157D01*
X83065489Y-28938156D01*
X82950396Y-29078396D01*
X82810156Y-29193489D01*
X82791314Y-29203560D01*
X82650158Y-29279010D01*
X82603551Y-29293148D01*
X82476548Y-29331674D01*
X82296000Y-29349456D01*
X82115453Y-29331674D01*
X81988450Y-29293148D01*
X81941843Y-29279010D01*
X81800687Y-29203560D01*
X81781845Y-29193489D01*
X81641605Y-29078396D01*
X81526512Y-28938156D01*
X81486703Y-28863680D01*
X81440990Y-28778158D01*
X81423435Y-28720287D01*
X81388326Y-28604548D01*
X81375000Y-28469244D01*
X81375000Y-27918757D01*
X81388326Y-27783453D01*
X81440990Y-27609844D01*
X81440990Y-27609843D01*
X81472183Y-27551486D01*
X81526511Y-27449845D01*
X81641604Y-27309604D01*
X81781844Y-27194511D01*
X81918685Y-27121368D01*
X81941842Y-27108990D01*
X81999713Y-27091435D01*
X82115452Y-27056326D01*
X82296000Y-27038544D01*
X82476547Y-27056326D01*
X82476547Y-27056326D01*
G37*
G36*
X69268547Y-27056326D02*
X69384286Y-27091435D01*
X69442157Y-27108990D01*
X69463718Y-27120515D01*
X69602155Y-27194511D01*
X69742396Y-27309604D01*
X69857489Y-27449844D01*
X69897298Y-27524321D01*
X69943010Y-27609842D01*
X69960565Y-27667713D01*
X69995674Y-27783452D01*
X70009000Y-27918756D01*
X70009000Y-28469243D01*
X69995674Y-28604548D01*
X69943010Y-28778157D01*
X69857489Y-28938156D01*
X69742396Y-29078396D01*
X69602156Y-29193489D01*
X69583314Y-29203560D01*
X69442158Y-29279010D01*
X69395551Y-29293148D01*
X69268548Y-29331674D01*
X69088000Y-29349456D01*
X68907453Y-29331674D01*
X68780450Y-29293148D01*
X68733843Y-29279010D01*
X68592687Y-29203560D01*
X68573845Y-29193489D01*
X68433605Y-29078396D01*
X68318512Y-28938156D01*
X68278703Y-28863680D01*
X68232990Y-28778158D01*
X68215435Y-28720287D01*
X68180326Y-28604548D01*
X68167000Y-28469244D01*
X68167000Y-27918757D01*
X68180326Y-27783453D01*
X68232990Y-27609844D01*
X68232990Y-27609843D01*
X68264183Y-27551486D01*
X68318511Y-27449845D01*
X68433604Y-27309604D01*
X68573844Y-27194511D01*
X68710685Y-27121368D01*
X68733842Y-27108990D01*
X68791713Y-27091435D01*
X68907452Y-27056326D01*
X69088000Y-27038544D01*
X69268547Y-27056326D01*
X69268547Y-27056326D01*
G37*
G36*
X75872547Y-27056326D02*
X75988286Y-27091435D01*
X76046157Y-27108990D01*
X76067718Y-27120515D01*
X76206155Y-27194511D01*
X76346396Y-27309604D01*
X76461489Y-27449844D01*
X76501298Y-27524321D01*
X76547010Y-27609842D01*
X76564565Y-27667713D01*
X76599674Y-27783452D01*
X76613000Y-27918756D01*
X76613000Y-28469243D01*
X76599674Y-28604548D01*
X76547010Y-28778157D01*
X76461489Y-28938156D01*
X76346396Y-29078396D01*
X76206156Y-29193489D01*
X76187314Y-29203560D01*
X76046158Y-29279010D01*
X75999551Y-29293148D01*
X75872548Y-29331674D01*
X75692000Y-29349456D01*
X75511453Y-29331674D01*
X75384450Y-29293148D01*
X75337843Y-29279010D01*
X75196687Y-29203560D01*
X75177845Y-29193489D01*
X75037605Y-29078396D01*
X74922512Y-28938156D01*
X74882703Y-28863680D01*
X74836990Y-28778158D01*
X74819435Y-28720287D01*
X74784326Y-28604548D01*
X74771000Y-28469244D01*
X74771000Y-27918757D01*
X74784326Y-27783453D01*
X74836990Y-27609844D01*
X74836990Y-27609843D01*
X74868183Y-27551486D01*
X74922511Y-27449845D01*
X75037604Y-27309604D01*
X75177844Y-27194511D01*
X75314685Y-27121368D01*
X75337842Y-27108990D01*
X75395713Y-27091435D01*
X75511452Y-27056326D01*
X75692000Y-27038544D01*
X75872547Y-27056326D01*
X75872547Y-27056326D01*
G37*
G36*
X67327560Y-27046966D02*
X67360383Y-27056923D01*
X67390632Y-27073092D01*
X67417148Y-27094852D01*
X67438908Y-27121368D01*
X67455077Y-27151617D01*
X67465034Y-27184440D01*
X67469000Y-27224712D01*
X67469000Y-29163288D01*
X67465034Y-29203560D01*
X67455077Y-29236383D01*
X67438908Y-29266632D01*
X67417148Y-29293148D01*
X67390632Y-29314908D01*
X67360383Y-29331077D01*
X67327560Y-29341034D01*
X67287288Y-29345000D01*
X65808712Y-29345000D01*
X65768440Y-29341034D01*
X65735617Y-29331077D01*
X65705368Y-29314908D01*
X65678852Y-29293148D01*
X65657092Y-29266632D01*
X65640923Y-29236383D01*
X65630966Y-29203560D01*
X65627000Y-29163288D01*
X65627000Y-27224712D01*
X65630966Y-27184440D01*
X65640923Y-27151617D01*
X65657092Y-27121368D01*
X65678852Y-27094852D01*
X65705368Y-27073092D01*
X65735617Y-27056923D01*
X65768440Y-27046966D01*
X65808712Y-27043000D01*
X67287288Y-27043000D01*
X67327560Y-27046966D01*
X67327560Y-27046966D01*
G37*
G36*
X80535560Y-27046966D02*
X80568383Y-27056923D01*
X80598632Y-27073092D01*
X80625148Y-27094852D01*
X80646908Y-27121368D01*
X80663077Y-27151617D01*
X80673034Y-27184440D01*
X80677000Y-27224712D01*
X80677000Y-29163288D01*
X80673034Y-29203560D01*
X80663077Y-29236383D01*
X80646908Y-29266632D01*
X80625148Y-29293148D01*
X80598632Y-29314908D01*
X80568383Y-29331077D01*
X80535560Y-29341034D01*
X80495288Y-29345000D01*
X79016712Y-29345000D01*
X78976440Y-29341034D01*
X78943617Y-29331077D01*
X78913368Y-29314908D01*
X78886852Y-29293148D01*
X78865092Y-29266632D01*
X78848923Y-29236383D01*
X78838966Y-29203560D01*
X78835000Y-29163288D01*
X78835000Y-27224712D01*
X78838966Y-27184440D01*
X78848923Y-27151617D01*
X78865092Y-27121368D01*
X78886852Y-27094852D01*
X78913368Y-27073092D01*
X78943617Y-27056923D01*
X78976440Y-27046966D01*
X79016712Y-27043000D01*
X80495288Y-27043000D01*
X80535560Y-27046966D01*
X80535560Y-27046966D01*
G37*
G36*
X73931560Y-27046966D02*
X73964383Y-27056923D01*
X73994632Y-27073092D01*
X74021148Y-27094852D01*
X74042908Y-27121368D01*
X74059077Y-27151617D01*
X74069034Y-27184440D01*
X74073000Y-27224712D01*
X74073000Y-29163288D01*
X74069034Y-29203560D01*
X74059077Y-29236383D01*
X74042908Y-29266632D01*
X74021148Y-29293148D01*
X73994632Y-29314908D01*
X73964383Y-29331077D01*
X73931560Y-29341034D01*
X73891288Y-29345000D01*
X72412712Y-29345000D01*
X72372440Y-29341034D01*
X72339617Y-29331077D01*
X72309368Y-29314908D01*
X72282852Y-29293148D01*
X72261092Y-29266632D01*
X72244923Y-29236383D01*
X72234966Y-29203560D01*
X72231000Y-29163288D01*
X72231000Y-27224712D01*
X72234966Y-27184440D01*
X72244923Y-27151617D01*
X72261092Y-27121368D01*
X72282852Y-27094852D01*
X72309368Y-27073092D01*
X72339617Y-27056923D01*
X72372440Y-27046966D01*
X72412712Y-27043000D01*
X73891288Y-27043000D01*
X73931560Y-27046966D01*
X73931560Y-27046966D01*
G37*
G36*
X61558252Y-23427818D02*
X61558254Y-23427819D01*
X61558255Y-23427819D01*
X61931513Y-23582427D01*
X62189671Y-23754923D01*
X62267439Y-23806886D01*
X62553114Y-24092561D01*
X62553116Y-24092564D01*
X62777573Y-24428487D01*
X62932181Y-24801745D01*
X62932182Y-24801748D01*
X63011000Y-25197993D01*
X63011000Y-25602007D01*
X62938700Y-25965485D01*
X62932181Y-25998255D01*
X62777573Y-26371513D01*
X62777572Y-26371514D01*
X62553114Y-26707439D01*
X62267439Y-26993114D01*
X62267436Y-26993116D01*
X61931513Y-27217573D01*
X61558255Y-27372181D01*
X61558254Y-27372181D01*
X61558252Y-27372182D01*
X61162007Y-27451000D01*
X60757993Y-27451000D01*
X60361748Y-27372182D01*
X60361746Y-27372181D01*
X60361745Y-27372181D01*
X59988487Y-27217573D01*
X59652564Y-26993116D01*
X59652561Y-26993114D01*
X59366886Y-26707439D01*
X59142428Y-26371514D01*
X59142427Y-26371513D01*
X58987819Y-25998255D01*
X58981301Y-25965485D01*
X58909000Y-25602007D01*
X58909000Y-25197993D01*
X58987818Y-24801748D01*
X58987819Y-24801745D01*
X59142427Y-24428487D01*
X59366884Y-24092564D01*
X59366886Y-24092561D01*
X59652561Y-23806886D01*
X59730329Y-23754923D01*
X59988487Y-23582427D01*
X60361745Y-23427819D01*
X60361746Y-23427819D01*
X60361748Y-23427818D01*
X60757993Y-23349000D01*
X61162007Y-23349000D01*
X61558252Y-23427818D01*
X61558252Y-23427818D01*
G37*
G36*
X89498252Y-23427818D02*
X89498254Y-23427819D01*
X89498255Y-23427819D01*
X89871513Y-23582427D01*
X90129671Y-23754923D01*
X90207439Y-23806886D01*
X90493114Y-24092561D01*
X90493116Y-24092564D01*
X90717573Y-24428487D01*
X90872181Y-24801745D01*
X90872182Y-24801748D01*
X90951000Y-25197993D01*
X90951000Y-25602007D01*
X90878700Y-25965485D01*
X90872181Y-25998255D01*
X90717573Y-26371513D01*
X90717572Y-26371514D01*
X90493114Y-26707439D01*
X90207439Y-26993114D01*
X90207436Y-26993116D01*
X89871513Y-27217573D01*
X89498255Y-27372181D01*
X89498254Y-27372181D01*
X89498252Y-27372182D01*
X89102007Y-27451000D01*
X88697993Y-27451000D01*
X88301748Y-27372182D01*
X88301746Y-27372181D01*
X88301745Y-27372181D01*
X87928487Y-27217573D01*
X87592564Y-26993116D01*
X87592561Y-26993114D01*
X87306886Y-26707439D01*
X87082428Y-26371514D01*
X87082427Y-26371513D01*
X86927819Y-25998255D01*
X86921301Y-25965485D01*
X86849000Y-25602007D01*
X86849000Y-25197993D01*
X86927818Y-24801748D01*
X86927819Y-24801745D01*
X87082427Y-24428487D01*
X87306884Y-24092564D01*
X87306886Y-24092561D01*
X87592561Y-23806886D01*
X87670329Y-23754923D01*
X87928487Y-23582427D01*
X88301745Y-23427819D01*
X88301746Y-23427819D01*
X88301748Y-23427818D01*
X88697993Y-23349000D01*
X89102007Y-23349000D01*
X89498252Y-23427818D01*
X89498252Y-23427818D01*
G37*
G36*
X47678548Y-23754326D02*
X47794287Y-23789435D01*
X47852158Y-23806990D01*
X47875315Y-23819368D01*
X48012156Y-23892511D01*
X48152396Y-24007604D01*
X48267489Y-24147844D01*
X48353010Y-24307843D01*
X48405674Y-24481452D01*
X48419000Y-24616757D01*
X48419000Y-25167244D01*
X48405674Y-25302548D01*
X48370565Y-25418287D01*
X48353010Y-25476158D01*
X48307298Y-25561679D01*
X48267489Y-25636156D01*
X48152396Y-25776396D01*
X48012155Y-25891489D01*
X47910514Y-25945817D01*
X47852157Y-25977010D01*
X47805550Y-25991148D01*
X47678547Y-26029674D01*
X47498000Y-26047456D01*
X47317452Y-26029674D01*
X47190449Y-25991148D01*
X47143842Y-25977010D01*
X47002686Y-25901560D01*
X46983844Y-25891489D01*
X46843604Y-25776396D01*
X46728511Y-25636155D01*
X46642991Y-25476158D01*
X46642990Y-25476157D01*
X46625435Y-25418286D01*
X46590326Y-25302547D01*
X46577000Y-25167243D01*
X46577000Y-24616756D01*
X46590326Y-24481452D01*
X46642990Y-24307843D01*
X46642990Y-24307842D01*
X46728513Y-24147843D01*
X46843605Y-24007604D01*
X46983844Y-23892512D01*
X46983843Y-23892512D01*
X46983845Y-23892511D01*
X47120686Y-23819368D01*
X47143843Y-23806990D01*
X47201714Y-23789435D01*
X47317453Y-23754326D01*
X47498000Y-23736544D01*
X47678548Y-23754326D01*
X47678548Y-23754326D01*
G37*
G36*
X45138548Y-23754326D02*
X45254287Y-23789435D01*
X45312158Y-23806990D01*
X45335315Y-23819368D01*
X45472156Y-23892511D01*
X45612396Y-24007604D01*
X45727489Y-24147844D01*
X45813010Y-24307843D01*
X45865674Y-24481452D01*
X45879000Y-24616757D01*
X45879000Y-25167244D01*
X45865674Y-25302548D01*
X45830565Y-25418287D01*
X45813010Y-25476158D01*
X45767298Y-25561679D01*
X45727489Y-25636156D01*
X45612396Y-25776396D01*
X45472155Y-25891489D01*
X45370514Y-25945817D01*
X45312157Y-25977010D01*
X45265550Y-25991148D01*
X45138547Y-26029674D01*
X44958000Y-26047456D01*
X44777452Y-26029674D01*
X44650449Y-25991148D01*
X44603842Y-25977010D01*
X44462686Y-25901560D01*
X44443844Y-25891489D01*
X44303604Y-25776396D01*
X44188511Y-25636155D01*
X44102991Y-25476158D01*
X44102990Y-25476157D01*
X44085435Y-25418286D01*
X44050326Y-25302547D01*
X44037000Y-25167243D01*
X44037000Y-24616756D01*
X44050326Y-24481452D01*
X44102990Y-24307843D01*
X44102990Y-24307842D01*
X44188513Y-24147843D01*
X44303605Y-24007604D01*
X44443844Y-23892512D01*
X44443843Y-23892512D01*
X44443845Y-23892511D01*
X44580686Y-23819368D01*
X44603843Y-23806990D01*
X44661714Y-23789435D01*
X44777453Y-23754326D01*
X44958000Y-23736544D01*
X45138548Y-23754326D01*
X45138548Y-23754326D01*
G37*
G36*
X50218548Y-23754326D02*
X50334287Y-23789435D01*
X50392158Y-23806990D01*
X50415315Y-23819368D01*
X50552156Y-23892511D01*
X50692396Y-24007604D01*
X50807489Y-24147844D01*
X50893010Y-24307843D01*
X50945674Y-24481452D01*
X50959000Y-24616757D01*
X50959000Y-25167244D01*
X50945674Y-25302548D01*
X50910565Y-25418287D01*
X50893010Y-25476158D01*
X50847298Y-25561679D01*
X50807489Y-25636156D01*
X50692396Y-25776396D01*
X50552155Y-25891489D01*
X50450514Y-25945817D01*
X50392157Y-25977010D01*
X50345550Y-25991148D01*
X50218547Y-26029674D01*
X50038000Y-26047456D01*
X49857452Y-26029674D01*
X49730449Y-25991148D01*
X49683842Y-25977010D01*
X49542686Y-25901560D01*
X49523844Y-25891489D01*
X49383604Y-25776396D01*
X49268511Y-25636155D01*
X49182991Y-25476158D01*
X49182990Y-25476157D01*
X49165435Y-25418286D01*
X49130326Y-25302547D01*
X49117000Y-25167243D01*
X49117000Y-24616756D01*
X49130326Y-24481452D01*
X49182990Y-24307843D01*
X49182990Y-24307842D01*
X49268513Y-24147843D01*
X49383605Y-24007604D01*
X49523844Y-23892512D01*
X49523843Y-23892512D01*
X49523845Y-23892511D01*
X49660686Y-23819368D01*
X49683843Y-23806990D01*
X49741714Y-23789435D01*
X49857453Y-23754326D01*
X50038000Y-23736544D01*
X50218548Y-23754326D01*
X50218548Y-23754326D01*
G37*
G36*
X53357560Y-23744966D02*
X53390383Y-23754923D01*
X53420632Y-23771092D01*
X53447148Y-23792852D01*
X53468908Y-23819368D01*
X53485077Y-23849617D01*
X53495034Y-23882440D01*
X53499000Y-23922712D01*
X53499000Y-25861288D01*
X53495034Y-25901560D01*
X53485077Y-25934383D01*
X53468908Y-25964632D01*
X53447148Y-25991148D01*
X53420632Y-26012908D01*
X53390383Y-26029077D01*
X53357560Y-26039034D01*
X53317288Y-26043000D01*
X51838712Y-26043000D01*
X51798440Y-26039034D01*
X51765617Y-26029077D01*
X51735368Y-26012908D01*
X51708852Y-25991148D01*
X51687092Y-25964632D01*
X51670923Y-25934383D01*
X51660966Y-25901560D01*
X51657000Y-25861288D01*
X51657000Y-23922712D01*
X51660966Y-23882440D01*
X51670923Y-23849617D01*
X51687092Y-23819368D01*
X51708852Y-23792852D01*
X51735368Y-23771092D01*
X51765617Y-23754923D01*
X51798440Y-23744966D01*
X51838712Y-23741000D01*
X53317288Y-23741000D01*
X53357560Y-23744966D01*
X53357560Y-23744966D01*
G37*
M02*
